<?xml version="1.0" encoding="utf-8" standalone="no"?>
<!DOCTYPE svg PUBLIC "-//W3C//DTD SVG 1.1//EN"
  "http://www.w3.org/Graphics/SVG/1.1/DTD/svg11.dtd">
<svg xmlns:xlink="http://www.w3.org/1999/xlink" width="1008pt" height="576pt" viewBox="0 0 1008 576" xmlns="http://www.w3.org/2000/svg" version="1.1">
 <metadata>
  <rdf:RDF xmlns:dc="http://purl.org/dc/elements/1.1/" xmlns:cc="http://creativecommons.org/ns#" xmlns:rdf="http://www.w3.org/1999/02/22-rdf-syntax-ns#">
   <cc:Work>
    <dc:type rdf:resource="http://purl.org/dc/dcmitype/StillImage"/>
    <dc:date>2025-04-13T10:42:02.040473</dc:date>
    <dc:format>image/svg+xml</dc:format>
    <dc:creator>
     <cc:Agent>
      <dc:title>Matplotlib v3.10.1, https://matplotlib.org/</dc:title>
     </cc:Agent>
    </dc:creator>
   </cc:Work>
  </rdf:RDF>
 </metadata>
 <defs>
  <style type="text/css">*{stroke-linejoin: round; stroke-linecap: butt}</style>
 </defs>
 <g id="figure_1">
  <g id="patch_1">
   <path d="M 0 576 
L 1008 576 
L 1008 0 
L 0 0 
z
" style="fill: #ffffff"/>
  </g>
  <g id="axes_1">
   <g id="patch_2">
    <path d="M 55.00125 526.5 
L 988.92 526.5 
L 988.92 30.58125 
L 55.00125 30.58125 
z
" style="fill: #ffffff"/>
   </g>
   <g id="matplotlib.axis_1">
    <g id="xtick_1">
     <g id="line2d_1">
      <path d="M 64.24797 526.5 
L 64.24797 30.58125 
" clip-path="url(#pff096da6ff)" style="fill: none; stroke-dasharray: 3.7,1.6; stroke-dashoffset: 0; stroke: #cccccc; stroke-opacity: 0.5"/>
     </g>
     <g id="text_1">
      <!-- 0 -->
      <g style="fill: #262626" transform="translate(61.189455 543.873594) scale(0.11 -0.11)">
       <defs>
        <path id="ArialMT-30" d="M 266 2259 
Q 266 3072 433 3567 
Q 600 4063 929 4331 
Q 1259 4600 1759 4600 
Q 2128 4600 2406 4451 
Q 2684 4303 2865 4023 
Q 3047 3744 3150 3342 
Q 3253 2941 3253 2259 
Q 3253 1453 3087 958 
Q 2922 463 2592 192 
Q 2263 -78 1759 -78 
Q 1097 -78 719 397 
Q 266 969 266 2259 
z
M 844 2259 
Q 844 1131 1108 757 
Q 1372 384 1759 384 
Q 2147 384 2411 759 
Q 2675 1134 2675 2259 
Q 2675 3391 2411 3762 
Q 2147 4134 1753 4134 
Q 1366 4134 1134 3806 
Q 844 3388 844 2259 
z
" transform="scale(0.015625)"/>
       </defs>
       <use xlink:href="#ArialMT-30"/>
      </g>
     </g>
    </g>
    <g id="xtick_2">
     <g id="line2d_2">
      <path d="M 249.182376 526.5 
L 249.182376 30.58125 
" clip-path="url(#pff096da6ff)" style="fill: none; stroke-dasharray: 3.7,1.6; stroke-dashoffset: 0; stroke: #cccccc; stroke-opacity: 0.5"/>
     </g>
     <g id="text_2">
      <!-- 10 -->
      <g style="fill: #262626" transform="translate(243.065345 543.873594) scale(0.11 -0.11)">
       <defs>
        <path id="ArialMT-31" d="M 2384 0 
L 1822 0 
L 1822 3584 
Q 1619 3391 1289 3197 
Q 959 3003 697 2906 
L 697 3450 
Q 1169 3672 1522 3987 
Q 1875 4303 2022 4600 
L 2384 4600 
L 2384 0 
z
" transform="scale(0.015625)"/>
       </defs>
       <use xlink:href="#ArialMT-31"/>
       <use xlink:href="#ArialMT-30" transform="translate(55.615234 0)"/>
      </g>
     </g>
    </g>
    <g id="xtick_3">
     <g id="line2d_3">
      <path d="M 434.116782 526.5 
L 434.116782 30.58125 
" clip-path="url(#pff096da6ff)" style="fill: none; stroke-dasharray: 3.7,1.6; stroke-dashoffset: 0; stroke: #cccccc; stroke-opacity: 0.5"/>
     </g>
     <g id="text_3">
      <!-- 20 -->
      <g style="fill: #262626" transform="translate(427.999751 543.873594) scale(0.11 -0.11)">
       <defs>
        <path id="ArialMT-32" d="M 3222 541 
L 3222 0 
L 194 0 
Q 188 203 259 391 
Q 375 700 629 1000 
Q 884 1300 1366 1694 
Q 2113 2306 2375 2664 
Q 2638 3022 2638 3341 
Q 2638 3675 2398 3904 
Q 2159 4134 1775 4134 
Q 1369 4134 1125 3890 
Q 881 3647 878 3216 
L 300 3275 
Q 359 3922 746 4261 
Q 1134 4600 1788 4600 
Q 2447 4600 2831 4234 
Q 3216 3869 3216 3328 
Q 3216 3053 3103 2787 
Q 2991 2522 2730 2228 
Q 2469 1934 1863 1422 
Q 1356 997 1212 845 
Q 1069 694 975 541 
L 3222 541 
z
" transform="scale(0.015625)"/>
       </defs>
       <use xlink:href="#ArialMT-32"/>
       <use xlink:href="#ArialMT-30" transform="translate(55.615234 0)"/>
      </g>
     </g>
    </g>
    <g id="xtick_4">
     <g id="line2d_4">
      <path d="M 619.051188 526.5 
L 619.051188 30.58125 
" clip-path="url(#pff096da6ff)" style="fill: none; stroke-dasharray: 3.7,1.6; stroke-dashoffset: 0; stroke: #cccccc; stroke-opacity: 0.5"/>
     </g>
     <g id="text_4">
      <!-- 30 -->
      <g style="fill: #262626" transform="translate(612.934157 543.873594) scale(0.11 -0.11)">
       <defs>
        <path id="ArialMT-33" d="M 269 1209 
L 831 1284 
Q 928 806 1161 595 
Q 1394 384 1728 384 
Q 2125 384 2398 659 
Q 2672 934 2672 1341 
Q 2672 1728 2419 1979 
Q 2166 2231 1775 2231 
Q 1616 2231 1378 2169 
L 1441 2663 
Q 1497 2656 1531 2656 
Q 1891 2656 2178 2843 
Q 2466 3031 2466 3422 
Q 2466 3731 2256 3934 
Q 2047 4138 1716 4138 
Q 1388 4138 1169 3931 
Q 950 3725 888 3313 
L 325 3413 
Q 428 3978 793 4289 
Q 1159 4600 1703 4600 
Q 2078 4600 2393 4439 
Q 2709 4278 2876 4000 
Q 3044 3722 3044 3409 
Q 3044 3113 2884 2869 
Q 2725 2625 2413 2481 
Q 2819 2388 3044 2092 
Q 3269 1797 3269 1353 
Q 3269 753 2831 336 
Q 2394 -81 1725 -81 
Q 1122 -81 723 278 
Q 325 638 269 1209 
z
" transform="scale(0.015625)"/>
       </defs>
       <use xlink:href="#ArialMT-33"/>
       <use xlink:href="#ArialMT-30" transform="translate(55.615234 0)"/>
      </g>
     </g>
    </g>
    <g id="xtick_5">
     <g id="line2d_5">
      <path d="M 803.985594 526.5 
L 803.985594 30.58125 
" clip-path="url(#pff096da6ff)" style="fill: none; stroke-dasharray: 3.7,1.6; stroke-dashoffset: 0; stroke: #cccccc; stroke-opacity: 0.5"/>
     </g>
     <g id="text_5">
      <!-- 40 -->
      <g style="fill: #262626" transform="translate(797.868563 543.873594) scale(0.11 -0.11)">
       <defs>
        <path id="ArialMT-34" d="M 2069 0 
L 2069 1097 
L 81 1097 
L 81 1613 
L 2172 4581 
L 2631 4581 
L 2631 1613 
L 3250 1613 
L 3250 1097 
L 2631 1097 
L 2631 0 
L 2069 0 
z
M 2069 1613 
L 2069 3678 
L 634 1613 
L 2069 1613 
z
" transform="scale(0.015625)"/>
       </defs>
       <use xlink:href="#ArialMT-34"/>
       <use xlink:href="#ArialMT-30" transform="translate(55.615234 0)"/>
      </g>
     </g>
    </g>
    <g id="xtick_6">
     <g id="line2d_6">
      <path d="M 988.92 526.5 
L 988.92 30.58125 
" clip-path="url(#pff096da6ff)" style="fill: none; stroke-dasharray: 3.7,1.6; stroke-dashoffset: 0; stroke: #cccccc; stroke-opacity: 0.5"/>
     </g>
     <g id="text_6">
      <!-- 50 -->
      <g style="fill: #262626" transform="translate(982.802969 543.873594) scale(0.11 -0.11)">
       <defs>
        <path id="ArialMT-35" d="M 266 1200 
L 856 1250 
Q 922 819 1161 601 
Q 1400 384 1738 384 
Q 2144 384 2425 690 
Q 2706 997 2706 1503 
Q 2706 1984 2436 2262 
Q 2166 2541 1728 2541 
Q 1456 2541 1237 2417 
Q 1019 2294 894 2097 
L 366 2166 
L 809 4519 
L 3088 4519 
L 3088 3981 
L 1259 3981 
L 1013 2750 
Q 1425 3038 1878 3038 
Q 2478 3038 2890 2622 
Q 3303 2206 3303 1553 
Q 3303 931 2941 478 
Q 2500 -78 1738 -78 
Q 1113 -78 717 272 
Q 322 622 266 1200 
z
" transform="scale(0.015625)"/>
       </defs>
       <use xlink:href="#ArialMT-35"/>
       <use xlink:href="#ArialMT-30" transform="translate(55.615234 0)"/>
      </g>
     </g>
    </g>
    <g id="text_7">
     <!-- Epoch -->
     <g style="fill: #262626" transform="translate(502.113438 560.080781) scale(0.14 -0.14)">
      <defs>
       <path id="ArialMT-45" d="M 506 0 
L 506 4581 
L 3819 4581 
L 3819 4041 
L 1113 4041 
L 1113 2638 
L 3647 2638 
L 3647 2100 
L 1113 2100 
L 1113 541 
L 3925 541 
L 3925 0 
L 506 0 
z
" transform="scale(0.015625)"/>
       <path id="ArialMT-70" d="M 422 -1272 
L 422 3319 
L 934 3319 
L 934 2888 
Q 1116 3141 1344 3267 
Q 1572 3394 1897 3394 
Q 2322 3394 2647 3175 
Q 2972 2956 3137 2557 
Q 3303 2159 3303 1684 
Q 3303 1175 3120 767 
Q 2938 359 2589 142 
Q 2241 -75 1856 -75 
Q 1575 -75 1351 44 
Q 1128 163 984 344 
L 984 -1272 
L 422 -1272 
z
M 931 1641 
Q 931 1000 1190 694 
Q 1450 388 1819 388 
Q 2194 388 2461 705 
Q 2728 1022 2728 1688 
Q 2728 2322 2467 2637 
Q 2206 2953 1844 2953 
Q 1484 2953 1207 2617 
Q 931 2281 931 1641 
z
" transform="scale(0.015625)"/>
       <path id="ArialMT-6f" d="M 213 1659 
Q 213 2581 725 3025 
Q 1153 3394 1769 3394 
Q 2453 3394 2887 2945 
Q 3322 2497 3322 1706 
Q 3322 1066 3130 698 
Q 2938 331 2570 128 
Q 2203 -75 1769 -75 
Q 1072 -75 642 372 
Q 213 819 213 1659 
z
M 791 1659 
Q 791 1022 1069 705 
Q 1347 388 1769 388 
Q 2188 388 2466 706 
Q 2744 1025 2744 1678 
Q 2744 2294 2464 2611 
Q 2184 2928 1769 2928 
Q 1347 2928 1069 2612 
Q 791 2297 791 1659 
z
" transform="scale(0.015625)"/>
       <path id="ArialMT-63" d="M 2588 1216 
L 3141 1144 
Q 3050 572 2676 248 
Q 2303 -75 1759 -75 
Q 1078 -75 664 370 
Q 250 816 250 1647 
Q 250 2184 428 2587 
Q 606 2991 970 3192 
Q 1334 3394 1763 3394 
Q 2303 3394 2647 3120 
Q 2991 2847 3088 2344 
L 2541 2259 
Q 2463 2594 2264 2762 
Q 2066 2931 1784 2931 
Q 1359 2931 1093 2626 
Q 828 2322 828 1663 
Q 828 994 1084 691 
Q 1341 388 1753 388 
Q 2084 388 2306 591 
Q 2528 794 2588 1216 
z
" transform="scale(0.015625)"/>
       <path id="ArialMT-68" d="M 422 0 
L 422 4581 
L 984 4581 
L 984 2938 
Q 1378 3394 1978 3394 
Q 2347 3394 2619 3248 
Q 2891 3103 3008 2847 
Q 3125 2591 3125 2103 
L 3125 0 
L 2563 0 
L 2563 2103 
Q 2563 2525 2380 2717 
Q 2197 2909 1863 2909 
Q 1613 2909 1392 2779 
Q 1172 2650 1078 2428 
Q 984 2206 984 1816 
L 984 0 
L 422 0 
z
" transform="scale(0.015625)"/>
      </defs>
      <use xlink:href="#ArialMT-45"/>
      <use xlink:href="#ArialMT-70" transform="translate(66.699219 0)"/>
      <use xlink:href="#ArialMT-6f" transform="translate(122.314453 0)"/>
      <use xlink:href="#ArialMT-63" transform="translate(177.929688 0)"/>
      <use xlink:href="#ArialMT-68" transform="translate(227.929688 0)"/>
     </g>
    </g>
   </g>
   <g id="matplotlib.axis_2">
    <g id="ytick_1">
     <g id="line2d_7">
      <path d="M 55.00125 495.060841 
L 988.92 495.060841 
" clip-path="url(#pff096da6ff)" style="fill: none; stroke-dasharray: 3.7,1.6; stroke-dashoffset: 0; stroke: #cccccc; stroke-opacity: 0.5"/>
     </g>
     <g id="text_8">
      <!-- 0.2 -->
      <g style="fill: #262626" transform="translate(30.21125 498.997638) scale(0.11 -0.11)">
       <defs>
        <path id="ArialMT-2e" d="M 581 0 
L 581 641 
L 1222 641 
L 1222 0 
L 581 0 
z
" transform="scale(0.015625)"/>
       </defs>
       <use xlink:href="#ArialMT-30"/>
       <use xlink:href="#ArialMT-2e" transform="translate(55.615234 0)"/>
       <use xlink:href="#ArialMT-32" transform="translate(83.398438 0)"/>
      </g>
     </g>
    </g>
    <g id="ytick_2">
     <g id="line2d_8">
      <path d="M 55.00125 433.65949 
L 988.92 433.65949 
" clip-path="url(#pff096da6ff)" style="fill: none; stroke-dasharray: 3.7,1.6; stroke-dashoffset: 0; stroke: #cccccc; stroke-opacity: 0.5"/>
     </g>
     <g id="text_9">
      <!-- 0.3 -->
      <g style="fill: #262626" transform="translate(30.21125 437.596286) scale(0.11 -0.11)">
       <use xlink:href="#ArialMT-30"/>
       <use xlink:href="#ArialMT-2e" transform="translate(55.615234 0)"/>
       <use xlink:href="#ArialMT-33" transform="translate(83.398438 0)"/>
      </g>
     </g>
    </g>
    <g id="ytick_3">
     <g id="line2d_9">
      <path d="M 55.00125 372.258138 
L 988.92 372.258138 
" clip-path="url(#pff096da6ff)" style="fill: none; stroke-dasharray: 3.7,1.6; stroke-dashoffset: 0; stroke: #cccccc; stroke-opacity: 0.5"/>
     </g>
     <g id="text_10">
      <!-- 0.4 -->
      <g style="fill: #262626" transform="translate(30.21125 376.194935) scale(0.11 -0.11)">
       <use xlink:href="#ArialMT-30"/>
       <use xlink:href="#ArialMT-2e" transform="translate(55.615234 0)"/>
       <use xlink:href="#ArialMT-34" transform="translate(83.398438 0)"/>
      </g>
     </g>
    </g>
    <g id="ytick_4">
     <g id="line2d_10">
      <path d="M 55.00125 310.856787 
L 988.92 310.856787 
" clip-path="url(#pff096da6ff)" style="fill: none; stroke-dasharray: 3.7,1.6; stroke-dashoffset: 0; stroke: #cccccc; stroke-opacity: 0.5"/>
     </g>
     <g id="text_11">
      <!-- 0.5 -->
      <g style="fill: #262626" transform="translate(30.21125 314.793584) scale(0.11 -0.11)">
       <use xlink:href="#ArialMT-30"/>
       <use xlink:href="#ArialMT-2e" transform="translate(55.615234 0)"/>
       <use xlink:href="#ArialMT-35" transform="translate(83.398438 0)"/>
      </g>
     </g>
    </g>
    <g id="ytick_5">
     <g id="line2d_11">
      <path d="M 55.00125 249.455436 
L 988.92 249.455436 
" clip-path="url(#pff096da6ff)" style="fill: none; stroke-dasharray: 3.7,1.6; stroke-dashoffset: 0; stroke: #cccccc; stroke-opacity: 0.5"/>
     </g>
     <g id="text_12">
      <!-- 0.6 -->
      <g style="fill: #262626" transform="translate(30.21125 253.392233) scale(0.11 -0.11)">
       <defs>
        <path id="ArialMT-36" d="M 3184 3459 
L 2625 3416 
Q 2550 3747 2413 3897 
Q 2184 4138 1850 4138 
Q 1581 4138 1378 3988 
Q 1113 3794 959 3422 
Q 806 3050 800 2363 
Q 1003 2672 1297 2822 
Q 1591 2972 1913 2972 
Q 2475 2972 2870 2558 
Q 3266 2144 3266 1488 
Q 3266 1056 3080 686 
Q 2894 316 2569 119 
Q 2244 -78 1831 -78 
Q 1128 -78 684 439 
Q 241 956 241 2144 
Q 241 3472 731 4075 
Q 1159 4600 1884 4600 
Q 2425 4600 2770 4297 
Q 3116 3994 3184 3459 
z
M 888 1484 
Q 888 1194 1011 928 
Q 1134 663 1356 523 
Q 1578 384 1822 384 
Q 2178 384 2434 671 
Q 2691 959 2691 1453 
Q 2691 1928 2437 2201 
Q 2184 2475 1800 2475 
Q 1419 2475 1153 2201 
Q 888 1928 888 1484 
z
" transform="scale(0.015625)"/>
       </defs>
       <use xlink:href="#ArialMT-30"/>
       <use xlink:href="#ArialMT-2e" transform="translate(55.615234 0)"/>
       <use xlink:href="#ArialMT-36" transform="translate(83.398438 0)"/>
      </g>
     </g>
    </g>
    <g id="ytick_6">
     <g id="line2d_12">
      <path d="M 55.00125 188.054085 
L 988.92 188.054085 
" clip-path="url(#pff096da6ff)" style="fill: none; stroke-dasharray: 3.7,1.6; stroke-dashoffset: 0; stroke: #cccccc; stroke-opacity: 0.5"/>
     </g>
     <g id="text_13">
      <!-- 0.7 -->
      <g style="fill: #262626" transform="translate(30.21125 191.990881) scale(0.11 -0.11)">
       <defs>
        <path id="ArialMT-37" d="M 303 3981 
L 303 4522 
L 3269 4522 
L 3269 4084 
Q 2831 3619 2401 2847 
Q 1972 2075 1738 1259 
Q 1569 684 1522 0 
L 944 0 
Q 953 541 1156 1306 
Q 1359 2072 1739 2783 
Q 2119 3494 2547 3981 
L 303 3981 
z
" transform="scale(0.015625)"/>
       </defs>
       <use xlink:href="#ArialMT-30"/>
       <use xlink:href="#ArialMT-2e" transform="translate(55.615234 0)"/>
       <use xlink:href="#ArialMT-37" transform="translate(83.398438 0)"/>
      </g>
     </g>
    </g>
    <g id="ytick_7">
     <g id="line2d_13">
      <path d="M 55.00125 126.652733 
L 988.92 126.652733 
" clip-path="url(#pff096da6ff)" style="fill: none; stroke-dasharray: 3.7,1.6; stroke-dashoffset: 0; stroke: #cccccc; stroke-opacity: 0.5"/>
     </g>
     <g id="text_14">
      <!-- 0.8 -->
      <g style="fill: #262626" transform="translate(30.21125 130.58953) scale(0.11 -0.11)">
       <defs>
        <path id="ArialMT-38" d="M 1131 2484 
Q 781 2613 612 2850 
Q 444 3088 444 3419 
Q 444 3919 803 4259 
Q 1163 4600 1759 4600 
Q 2359 4600 2725 4251 
Q 3091 3903 3091 3403 
Q 3091 3084 2923 2848 
Q 2756 2613 2416 2484 
Q 2838 2347 3058 2040 
Q 3278 1734 3278 1309 
Q 3278 722 2862 322 
Q 2447 -78 1769 -78 
Q 1091 -78 675 323 
Q 259 725 259 1325 
Q 259 1772 486 2073 
Q 713 2375 1131 2484 
z
M 1019 3438 
Q 1019 3113 1228 2906 
Q 1438 2700 1772 2700 
Q 2097 2700 2305 2904 
Q 2513 3109 2513 3406 
Q 2513 3716 2298 3927 
Q 2084 4138 1766 4138 
Q 1444 4138 1231 3931 
Q 1019 3725 1019 3438 
z
M 838 1322 
Q 838 1081 952 856 
Q 1066 631 1291 507 
Q 1516 384 1775 384 
Q 2178 384 2440 643 
Q 2703 903 2703 1303 
Q 2703 1709 2433 1975 
Q 2163 2241 1756 2241 
Q 1359 2241 1098 1978 
Q 838 1716 838 1322 
z
" transform="scale(0.015625)"/>
       </defs>
       <use xlink:href="#ArialMT-30"/>
       <use xlink:href="#ArialMT-2e" transform="translate(55.615234 0)"/>
       <use xlink:href="#ArialMT-38" transform="translate(83.398438 0)"/>
      </g>
     </g>
    </g>
    <g id="ytick_8">
     <g id="line2d_14">
      <path d="M 55.00125 65.251382 
L 988.92 65.251382 
" clip-path="url(#pff096da6ff)" style="fill: none; stroke-dasharray: 3.7,1.6; stroke-dashoffset: 0; stroke: #cccccc; stroke-opacity: 0.5"/>
     </g>
     <g id="text_15">
      <!-- 0.9 -->
      <g style="fill: #262626" transform="translate(30.21125 69.188179) scale(0.11 -0.11)">
       <defs>
        <path id="ArialMT-39" d="M 350 1059 
L 891 1109 
Q 959 728 1153 556 
Q 1347 384 1650 384 
Q 1909 384 2104 503 
Q 2300 622 2425 820 
Q 2550 1019 2634 1356 
Q 2719 1694 2719 2044 
Q 2719 2081 2716 2156 
Q 2547 1888 2255 1720 
Q 1963 1553 1622 1553 
Q 1053 1553 659 1965 
Q 266 2378 266 3053 
Q 266 3750 677 4175 
Q 1088 4600 1706 4600 
Q 2153 4600 2523 4359 
Q 2894 4119 3086 3673 
Q 3278 3228 3278 2384 
Q 3278 1506 3087 986 
Q 2897 466 2520 194 
Q 2144 -78 1638 -78 
Q 1100 -78 759 220 
Q 419 519 350 1059 
z
M 2653 3081 
Q 2653 3566 2395 3850 
Q 2138 4134 1775 4134 
Q 1400 4134 1122 3828 
Q 844 3522 844 3034 
Q 844 2597 1108 2323 
Q 1372 2050 1759 2050 
Q 2150 2050 2401 2323 
Q 2653 2597 2653 3081 
z
" transform="scale(0.015625)"/>
       </defs>
       <use xlink:href="#ArialMT-30"/>
       <use xlink:href="#ArialMT-2e" transform="translate(55.615234 0)"/>
       <use xlink:href="#ArialMT-39" transform="translate(83.398438 0)"/>
      </g>
     </g>
    </g>
    <g id="text_16">
     <!-- Accuracy_mean -->
     <g style="fill: #262626" transform="translate(23.264688 328.727344) rotate(-90) scale(0.14 -0.14)">
      <defs>
       <path id="ArialMT-41" d="M -9 0 
L 1750 4581 
L 2403 4581 
L 4278 0 
L 3588 0 
L 3053 1388 
L 1138 1388 
L 634 0 
L -9 0 
z
M 1313 1881 
L 2866 1881 
L 2388 3150 
Q 2169 3728 2063 4100 
Q 1975 3659 1816 3225 
L 1313 1881 
z
" transform="scale(0.015625)"/>
       <path id="ArialMT-75" d="M 2597 0 
L 2597 488 
Q 2209 -75 1544 -75 
Q 1250 -75 995 37 
Q 741 150 617 320 
Q 494 491 444 738 
Q 409 903 409 1263 
L 409 3319 
L 972 3319 
L 972 1478 
Q 972 1038 1006 884 
Q 1059 663 1231 536 
Q 1403 409 1656 409 
Q 1909 409 2131 539 
Q 2353 669 2445 892 
Q 2538 1116 2538 1541 
L 2538 3319 
L 3100 3319 
L 3100 0 
L 2597 0 
z
" transform="scale(0.015625)"/>
       <path id="ArialMT-72" d="M 416 0 
L 416 3319 
L 922 3319 
L 922 2816 
Q 1116 3169 1280 3281 
Q 1444 3394 1641 3394 
Q 1925 3394 2219 3213 
L 2025 2691 
Q 1819 2813 1613 2813 
Q 1428 2813 1281 2702 
Q 1134 2591 1072 2394 
Q 978 2094 978 1738 
L 978 0 
L 416 0 
z
" transform="scale(0.015625)"/>
       <path id="ArialMT-61" d="M 2588 409 
Q 2275 144 1986 34 
Q 1697 -75 1366 -75 
Q 819 -75 525 192 
Q 231 459 231 875 
Q 231 1119 342 1320 
Q 453 1522 633 1644 
Q 813 1766 1038 1828 
Q 1203 1872 1538 1913 
Q 2219 1994 2541 2106 
Q 2544 2222 2544 2253 
Q 2544 2597 2384 2738 
Q 2169 2928 1744 2928 
Q 1347 2928 1158 2789 
Q 969 2650 878 2297 
L 328 2372 
Q 403 2725 575 2942 
Q 747 3159 1072 3276 
Q 1397 3394 1825 3394 
Q 2250 3394 2515 3294 
Q 2781 3194 2906 3042 
Q 3031 2891 3081 2659 
Q 3109 2516 3109 2141 
L 3109 1391 
Q 3109 606 3145 398 
Q 3181 191 3288 0 
L 2700 0 
Q 2613 175 2588 409 
z
M 2541 1666 
Q 2234 1541 1622 1453 
Q 1275 1403 1131 1340 
Q 988 1278 909 1158 
Q 831 1038 831 891 
Q 831 666 1001 516 
Q 1172 366 1500 366 
Q 1825 366 2078 508 
Q 2331 650 2450 897 
Q 2541 1088 2541 1459 
L 2541 1666 
z
" transform="scale(0.015625)"/>
       <path id="ArialMT-79" d="M 397 -1278 
L 334 -750 
Q 519 -800 656 -800 
Q 844 -800 956 -737 
Q 1069 -675 1141 -563 
Q 1194 -478 1313 -144 
Q 1328 -97 1363 -6 
L 103 3319 
L 709 3319 
L 1400 1397 
Q 1534 1031 1641 628 
Q 1738 1016 1872 1384 
L 2581 3319 
L 3144 3319 
L 1881 -56 
Q 1678 -603 1566 -809 
Q 1416 -1088 1222 -1217 
Q 1028 -1347 759 -1347 
Q 597 -1347 397 -1278 
z
" transform="scale(0.015625)"/>
       <path id="ArialMT-5f" d="M -97 -1272 
L -97 -866 
L 3631 -866 
L 3631 -1272 
L -97 -1272 
z
" transform="scale(0.015625)"/>
       <path id="ArialMT-6d" d="M 422 0 
L 422 3319 
L 925 3319 
L 925 2853 
Q 1081 3097 1340 3245 
Q 1600 3394 1931 3394 
Q 2300 3394 2536 3241 
Q 2772 3088 2869 2813 
Q 3263 3394 3894 3394 
Q 4388 3394 4653 3120 
Q 4919 2847 4919 2278 
L 4919 0 
L 4359 0 
L 4359 2091 
Q 4359 2428 4304 2576 
Q 4250 2725 4106 2815 
Q 3963 2906 3769 2906 
Q 3419 2906 3187 2673 
Q 2956 2441 2956 1928 
L 2956 0 
L 2394 0 
L 2394 2156 
Q 2394 2531 2256 2718 
Q 2119 2906 1806 2906 
Q 1569 2906 1367 2781 
Q 1166 2656 1075 2415 
Q 984 2175 984 1722 
L 984 0 
L 422 0 
z
" transform="scale(0.015625)"/>
       <path id="ArialMT-65" d="M 2694 1069 
L 3275 997 
Q 3138 488 2766 206 
Q 2394 -75 1816 -75 
Q 1088 -75 661 373 
Q 234 822 234 1631 
Q 234 2469 665 2931 
Q 1097 3394 1784 3394 
Q 2450 3394 2872 2941 
Q 3294 2488 3294 1666 
Q 3294 1616 3291 1516 
L 816 1516 
Q 847 969 1125 678 
Q 1403 388 1819 388 
Q 2128 388 2347 550 
Q 2566 713 2694 1069 
z
M 847 1978 
L 2700 1978 
Q 2663 2397 2488 2606 
Q 2219 2931 1791 2931 
Q 1403 2931 1139 2672 
Q 875 2413 847 1978 
z
" transform="scale(0.015625)"/>
       <path id="ArialMT-6e" d="M 422 0 
L 422 3319 
L 928 3319 
L 928 2847 
Q 1294 3394 1984 3394 
Q 2284 3394 2536 3286 
Q 2788 3178 2913 3003 
Q 3038 2828 3088 2588 
Q 3119 2431 3119 2041 
L 3119 0 
L 2556 0 
L 2556 2019 
Q 2556 2363 2490 2533 
Q 2425 2703 2258 2804 
Q 2091 2906 1866 2906 
Q 1506 2906 1245 2678 
Q 984 2450 984 1813 
L 984 0 
L 422 0 
z
" transform="scale(0.015625)"/>
      </defs>
      <use xlink:href="#ArialMT-41"/>
      <use xlink:href="#ArialMT-63" transform="translate(66.699219 0)"/>
      <use xlink:href="#ArialMT-63" transform="translate(116.699219 0)"/>
      <use xlink:href="#ArialMT-75" transform="translate(166.699219 0)"/>
      <use xlink:href="#ArialMT-72" transform="translate(222.314453 0)"/>
      <use xlink:href="#ArialMT-61" transform="translate(255.615234 0)"/>
      <use xlink:href="#ArialMT-63" transform="translate(311.230469 0)"/>
      <use xlink:href="#ArialMT-79" transform="translate(361.230469 0)"/>
      <use xlink:href="#ArialMT-5f" transform="translate(411.230469 0)"/>
      <use xlink:href="#ArialMT-6d" transform="translate(466.845703 0)"/>
      <use xlink:href="#ArialMT-65" transform="translate(550.146484 0)"/>
      <use xlink:href="#ArialMT-61" transform="translate(605.761719 0)"/>
      <use xlink:href="#ArialMT-6e" transform="translate(661.376953 0)"/>
     </g>
    </g>
   </g>
   <g id="patch_3">
    <path d="M 57.775266 477.882869 
L 70.720675 477.882869 
L 70.720675 333.344465 
L 57.775266 333.344465 
L 57.775266 477.882869 
z
" clip-path="url(#pff096da6ff)" style="fill: #72b6a1; stroke: #595959; stroke-linejoin: miter"/>
   </g>
   <g id="line2d_15">
    <path d="M 64.24797 477.882869 
L 64.24797 503.958239 
" clip-path="url(#pff096da6ff)" style="fill: none; stroke: #595959"/>
   </g>
   <g id="line2d_16">
    <path d="M 64.24797 333.344465 
L 64.24797 151.205097 
" clip-path="url(#pff096da6ff)" style="fill: none; stroke: #595959"/>
   </g>
   <g id="line2d_17">
    <path d="M 61.011618 503.958239 
L 67.484322 503.958239 
" clip-path="url(#pff096da6ff)" style="fill: none; stroke: #595959; stroke-linecap: round"/>
   </g>
   <g id="line2d_18">
    <path d="M 61.011618 151.205097 
L 67.484322 151.205097 
" clip-path="url(#pff096da6ff)" style="fill: none; stroke: #595959; stroke-linecap: round"/>
   </g>
   <g id="line2d_19">
    <defs>
     <path id="m0ad5e01519" d="M 0 3 
C 0.795609 3 1.55874 2.683901 2.12132 2.12132 
C 2.683901 1.55874 3 0.795609 3 0 
C 3 -0.795609 2.683901 -1.55874 2.12132 -2.12132 
C 1.55874 -2.683901 0.795609 -3 0 -3 
C -0.795609 -3 -1.55874 -2.683901 -2.12132 -2.12132 
C -2.683901 -1.55874 -3 -0.795609 -3 0 
C -3 0.795609 -2.683901 1.55874 -2.12132 2.12132 
C -1.55874 2.683901 -0.795609 3 0 3 
z
" style="stroke: #595959"/>
    </defs>
    <g clip-path="url(#pff096da6ff)">
     <use xlink:href="#m0ad5e01519" x="64.24797" y="75.672063" style="fill-opacity: 0; stroke: #595959"/>
    </g>
   </g>
   <g id="patch_4">
    <path d="M 76.268707 439.922341 
L 89.214115 439.922341 
L 89.214115 290.332653 
L 76.268707 290.332653 
L 76.268707 439.922341 
z
" clip-path="url(#pff096da6ff)" style="fill: #72b6a1; stroke: #595959; stroke-linejoin: miter"/>
   </g>
   <g id="line2d_20">
    <path d="M 82.741411 439.922341 
L 82.741411 497.603506 
" clip-path="url(#pff096da6ff)" style="fill: none; stroke: #595959"/>
   </g>
   <g id="line2d_21">
    <path d="M 82.741411 290.332653 
L 82.741411 79.776179 
" clip-path="url(#pff096da6ff)" style="fill: none; stroke: #595959"/>
   </g>
   <g id="line2d_22">
    <path d="M 79.505059 497.603506 
L 85.977763 497.603506 
" clip-path="url(#pff096da6ff)" style="fill: none; stroke: #595959; stroke-linecap: round"/>
   </g>
   <g id="line2d_23">
    <path d="M 79.505059 79.776179 
L 85.977763 79.776179 
" clip-path="url(#pff096da6ff)" style="fill: none; stroke: #595959; stroke-linecap: round"/>
   </g>
   <g id="line2d_24"/>
   <g id="patch_5">
    <path d="M 94.762147 414.411742 
L 107.707556 414.411742 
L 107.707556 256.501157 
L 94.762147 256.501157 
L 94.762147 414.411742 
z
" clip-path="url(#pff096da6ff)" style="fill: #72b6a1; stroke: #595959; stroke-linejoin: miter"/>
   </g>
   <g id="line2d_25">
    <path d="M 101.234851 414.411742 
L 101.234851 497.594071 
" clip-path="url(#pff096da6ff)" style="fill: none; stroke: #595959"/>
   </g>
   <g id="line2d_26">
    <path d="M 101.234851 256.501157 
L 101.234851 70.506538 
" clip-path="url(#pff096da6ff)" style="fill: none; stroke: #595959"/>
   </g>
   <g id="line2d_27">
    <path d="M 97.998499 497.594071 
L 104.471204 497.594071 
" clip-path="url(#pff096da6ff)" style="fill: none; stroke: #595959; stroke-linecap: round"/>
   </g>
   <g id="line2d_28">
    <path d="M 97.998499 70.506538 
L 104.471204 70.506538 
" clip-path="url(#pff096da6ff)" style="fill: none; stroke: #595959; stroke-linecap: round"/>
   </g>
   <g id="line2d_29"/>
   <g id="patch_6">
    <path d="M 113.255588 394.718739 
L 126.200996 394.718739 
L 126.200996 245.558563 
L 113.255588 245.558563 
L 113.255588 394.718739 
z
" clip-path="url(#pff096da6ff)" style="fill: #72b6a1; stroke: #595959; stroke-linejoin: miter"/>
   </g>
   <g id="line2d_30">
    <path d="M 119.728292 394.718739 
L 119.728292 497.594071 
" clip-path="url(#pff096da6ff)" style="fill: none; stroke: #595959"/>
   </g>
   <g id="line2d_31">
    <path d="M 119.728292 245.558563 
L 119.728292 54.278768 
" clip-path="url(#pff096da6ff)" style="fill: none; stroke: #595959"/>
   </g>
   <g id="line2d_32">
    <path d="M 116.49194 497.594071 
L 122.964644 497.594071 
" clip-path="url(#pff096da6ff)" style="fill: none; stroke: #595959; stroke-linecap: round"/>
   </g>
   <g id="line2d_33">
    <path d="M 116.49194 54.278768 
L 122.964644 54.278768 
" clip-path="url(#pff096da6ff)" style="fill: none; stroke: #595959; stroke-linecap: round"/>
   </g>
   <g id="line2d_34"/>
   <g id="patch_7">
    <path d="M 131.749028 379.207168 
L 144.694437 379.207168 
L 144.694437 236.821127 
L 131.749028 236.821127 
L 131.749028 379.207168 
z
" clip-path="url(#pff096da6ff)" style="fill: #72b6a1; stroke: #595959; stroke-linejoin: miter"/>
   </g>
   <g id="line2d_35">
    <path d="M 138.221733 379.207168 
L 138.221733 497.594071 
" clip-path="url(#pff096da6ff)" style="fill: none; stroke: #595959"/>
   </g>
   <g id="line2d_36">
    <path d="M 138.221733 236.821127 
L 138.221733 53.123011 
" clip-path="url(#pff096da6ff)" style="fill: none; stroke: #595959"/>
   </g>
   <g id="line2d_37">
    <path d="M 134.985381 497.594071 
L 141.458085 497.594071 
" clip-path="url(#pff096da6ff)" style="fill: none; stroke: #595959; stroke-linecap: round"/>
   </g>
   <g id="line2d_38">
    <path d="M 134.985381 53.123011 
L 141.458085 53.123011 
" clip-path="url(#pff096da6ff)" style="fill: none; stroke: #595959; stroke-linecap: round"/>
   </g>
   <g id="line2d_39"/>
   <g id="patch_8">
    <path d="M 150.242469 289.537201 
L 163.187877 289.537201 
L 163.187877 191.279197 
L 150.242469 191.279197 
L 150.242469 289.537201 
z
" clip-path="url(#pff096da6ff)" style="fill: #72b6a1; stroke: #595959; stroke-linejoin: miter"/>
   </g>
   <g id="line2d_40">
    <path d="M 156.715173 289.537201 
L 156.715173 382.590369 
" clip-path="url(#pff096da6ff)" style="fill: none; stroke: #595959"/>
   </g>
   <g id="line2d_41">
    <path d="M 156.715173 191.279197 
L 156.715173 186.07436 
" clip-path="url(#pff096da6ff)" style="fill: none; stroke: #595959"/>
   </g>
   <g id="line2d_42">
    <path d="M 153.478821 382.590369 
L 159.951525 382.590369 
" clip-path="url(#pff096da6ff)" style="fill: none; stroke: #595959; stroke-linecap: round"/>
   </g>
   <g id="line2d_43">
    <path d="M 153.478821 186.07436 
L 159.951525 186.07436 
" clip-path="url(#pff096da6ff)" style="fill: none; stroke: #595959; stroke-linecap: round"/>
   </g>
   <g id="line2d_44"/>
   <g id="patch_9">
    <path d="M 168.73591 276.641078 
L 181.681318 276.641078 
L 181.681318 175.719722 
L 168.73591 175.719722 
L 168.73591 276.641078 
z
" clip-path="url(#pff096da6ff)" style="fill: #72b6a1; stroke: #595959; stroke-linejoin: miter"/>
   </g>
   <g id="line2d_45">
    <path d="M 175.208614 276.641078 
L 175.208614 370.195466 
" clip-path="url(#pff096da6ff)" style="fill: none; stroke: #595959"/>
   </g>
   <g id="line2d_46">
    <path d="M 175.208614 175.719722 
L 175.208614 168.352755 
" clip-path="url(#pff096da6ff)" style="fill: none; stroke: #595959"/>
   </g>
   <g id="line2d_47">
    <path d="M 171.972262 370.195466 
L 178.444966 370.195466 
" clip-path="url(#pff096da6ff)" style="fill: none; stroke: #595959; stroke-linecap: round"/>
   </g>
   <g id="line2d_48">
    <path d="M 171.972262 168.352755 
L 178.444966 168.352755 
" clip-path="url(#pff096da6ff)" style="fill: none; stroke: #595959; stroke-linecap: round"/>
   </g>
   <g id="line2d_49"/>
   <g id="patch_10">
    <path d="M 187.22935 262.35726 
L 200.174759 262.35726 
L 200.174759 162.1612 
L 187.22935 162.1612 
L 187.22935 262.35726 
z
" clip-path="url(#pff096da6ff)" style="fill: #72b6a1; stroke: #595959; stroke-linejoin: miter"/>
   </g>
   <g id="line2d_50">
    <path d="M 193.702054 262.35726 
L 193.702054 354.993726 
" clip-path="url(#pff096da6ff)" style="fill: none; stroke: #595959"/>
   </g>
   <g id="line2d_51">
    <path d="M 193.702054 162.1612 
L 193.702054 154.601607 
" clip-path="url(#pff096da6ff)" style="fill: none; stroke: #595959"/>
   </g>
   <g id="line2d_52">
    <path d="M 190.465702 354.993726 
L 196.938407 354.993726 
" clip-path="url(#pff096da6ff)" style="fill: none; stroke: #595959; stroke-linecap: round"/>
   </g>
   <g id="line2d_53">
    <path d="M 190.465702 154.601607 
L 196.938407 154.601607 
" clip-path="url(#pff096da6ff)" style="fill: none; stroke: #595959; stroke-linecap: round"/>
   </g>
   <g id="line2d_54"/>
   <g id="patch_11">
    <path d="M 205.722791 258.186314 
L 218.668199 258.186314 
L 218.668199 160.168109 
L 205.722791 160.168109 
L 205.722791 258.186314 
z
" clip-path="url(#pff096da6ff)" style="fill: #72b6a1; stroke: #595959; stroke-linejoin: miter"/>
   </g>
   <g id="line2d_55">
    <path d="M 212.195495 258.186314 
L 212.195495 355.064486 
" clip-path="url(#pff096da6ff)" style="fill: none; stroke: #595959"/>
   </g>
   <g id="line2d_56">
    <path d="M 212.195495 160.168109 
L 212.195495 159.028077 
" clip-path="url(#pff096da6ff)" style="fill: none; stroke: #595959"/>
   </g>
   <g id="line2d_57">
    <path d="M 208.959143 355.064486 
L 215.431847 355.064486 
" clip-path="url(#pff096da6ff)" style="fill: none; stroke: #595959; stroke-linecap: round"/>
   </g>
   <g id="line2d_58">
    <path d="M 208.959143 159.028077 
L 215.431847 159.028077 
" clip-path="url(#pff096da6ff)" style="fill: none; stroke: #595959; stroke-linecap: round"/>
   </g>
   <g id="line2d_59"/>
   <g id="patch_12">
    <path d="M 224.216231 262.665854 
L 237.16164 262.665854 
L 237.16164 161.280624 
L 224.216231 161.280624 
L 224.216231 262.665854 
z
" clip-path="url(#pff096da6ff)" style="fill: #72b6a1; stroke: #595959; stroke-linejoin: miter"/>
   </g>
   <g id="line2d_60">
    <path d="M 230.688936 262.665854 
L 230.688936 357.647249 
" clip-path="url(#pff096da6ff)" style="fill: none; stroke: #595959"/>
   </g>
   <g id="line2d_61">
    <path d="M 230.688936 161.280624 
L 230.688936 154.876787 
" clip-path="url(#pff096da6ff)" style="fill: none; stroke: #595959"/>
   </g>
   <g id="line2d_62">
    <path d="M 227.452584 357.647249 
L 233.925288 357.647249 
" clip-path="url(#pff096da6ff)" style="fill: none; stroke: #595959; stroke-linecap: round"/>
   </g>
   <g id="line2d_63">
    <path d="M 227.452584 154.876787 
L 233.925288 154.876787 
" clip-path="url(#pff096da6ff)" style="fill: none; stroke: #595959; stroke-linecap: round"/>
   </g>
   <g id="line2d_64"/>
   <g id="patch_13">
    <path d="M 242.709672 246.871494 
L 255.65508 246.871494 
L 255.65508 147.218915 
L 242.709672 147.218915 
L 242.709672 246.871494 
z
" clip-path="url(#pff096da6ff)" style="fill: #72b6a1; stroke: #595959; stroke-linejoin: miter"/>
   </g>
   <g id="line2d_65">
    <path d="M 249.182376 246.871494 
L 249.182376 346.390413 
" clip-path="url(#pff096da6ff)" style="fill: none; stroke: #595959"/>
   </g>
   <g id="line2d_66">
    <path d="M 249.182376 147.218915 
L 249.182376 147.085256 
" clip-path="url(#pff096da6ff)" style="fill: none; stroke: #595959"/>
   </g>
   <g id="line2d_67">
    <path d="M 245.946024 346.390413 
L 252.418728 346.390413 
" clip-path="url(#pff096da6ff)" style="fill: none; stroke: #595959; stroke-linecap: round"/>
   </g>
   <g id="line2d_68">
    <path d="M 245.946024 147.085256 
L 252.418728 147.085256 
" clip-path="url(#pff096da6ff)" style="fill: none; stroke: #595959; stroke-linecap: round"/>
   </g>
   <g id="line2d_69"/>
   <g id="patch_14">
    <path d="M 261.203113 242.890226 
L 274.148521 242.890226 
L 274.148521 147.384023 
L 261.203113 147.384023 
L 261.203113 242.890226 
z
" clip-path="url(#pff096da6ff)" style="fill: #72b6a1; stroke: #595959; stroke-linejoin: miter"/>
   </g>
   <g id="line2d_70">
    <path d="M 267.675817 242.890226 
L 267.675817 333.057933 
" clip-path="url(#pff096da6ff)" style="fill: none; stroke: #595959"/>
   </g>
   <g id="line2d_71">
    <path d="M 267.675817 147.384023 
L 267.675817 142.045528 
" clip-path="url(#pff096da6ff)" style="fill: none; stroke: #595959"/>
   </g>
   <g id="line2d_72">
    <path d="M 264.439465 333.057933 
L 270.912169 333.057933 
" clip-path="url(#pff096da6ff)" style="fill: none; stroke: #595959; stroke-linecap: round"/>
   </g>
   <g id="line2d_73">
    <path d="M 264.439465 142.045528 
L 270.912169 142.045528 
" clip-path="url(#pff096da6ff)" style="fill: none; stroke: #595959; stroke-linecap: round"/>
   </g>
   <g id="line2d_74"/>
   <g id="patch_15">
    <path d="M 279.696553 223.33769 
L 292.641962 223.33769 
L 292.641962 143.877441 
L 279.696553 143.877441 
L 279.696553 223.33769 
z
" clip-path="url(#pff096da6ff)" style="fill: #72b6a1; stroke: #595959; stroke-linejoin: miter"/>
   </g>
   <g id="line2d_75">
    <path d="M 286.169257 223.33769 
L 286.169257 296.681076 
" clip-path="url(#pff096da6ff)" style="fill: none; stroke: #595959"/>
   </g>
   <g id="line2d_76">
    <path d="M 286.169257 143.877441 
L 286.169257 137.760579 
" clip-path="url(#pff096da6ff)" style="fill: none; stroke: #595959"/>
   </g>
   <g id="line2d_77">
    <path d="M 282.932905 296.681076 
L 289.40561 296.681076 
" clip-path="url(#pff096da6ff)" style="fill: none; stroke: #595959; stroke-linecap: round"/>
   </g>
   <g id="line2d_78">
    <path d="M 282.932905 137.760579 
L 289.40561 137.760579 
" clip-path="url(#pff096da6ff)" style="fill: none; stroke: #595959; stroke-linecap: round"/>
   </g>
   <g id="line2d_79"/>
   <g id="patch_16">
    <path d="M 298.189994 219.79671 
L 311.135402 219.79671 
L 311.135402 141.357577 
L 298.189994 141.357577 
L 298.189994 219.79671 
z
" clip-path="url(#pff096da6ff)" style="fill: #72b6a1; stroke: #595959; stroke-linejoin: miter"/>
   </g>
   <g id="line2d_80">
    <path d="M 304.662698 219.79671 
L 304.662698 293.467364 
" clip-path="url(#pff096da6ff)" style="fill: none; stroke: #595959"/>
   </g>
   <g id="line2d_81">
    <path d="M 304.662698 141.357577 
L 304.662698 136.589097 
" clip-path="url(#pff096da6ff)" style="fill: none; stroke: #595959"/>
   </g>
   <g id="line2d_82">
    <path d="M 301.426346 293.467364 
L 307.89905 293.467364 
" clip-path="url(#pff096da6ff)" style="fill: none; stroke: #595959; stroke-linecap: round"/>
   </g>
   <g id="line2d_83">
    <path d="M 301.426346 136.589097 
L 307.89905 136.589097 
" clip-path="url(#pff096da6ff)" style="fill: none; stroke: #595959; stroke-linecap: round"/>
   </g>
   <g id="line2d_84"/>
   <g id="patch_17">
    <path d="M 316.683434 180.480339 
L 329.628843 180.480339 
L 329.628843 142.933966 
L 316.683434 142.933966 
L 316.683434 180.480339 
z
" clip-path="url(#pff096da6ff)" style="fill: #72b6a1; stroke: #595959; stroke-linejoin: miter"/>
   </g>
   <g id="line2d_85">
    <path d="M 323.156139 180.480339 
L 323.156139 206.04458 
" clip-path="url(#pff096da6ff)" style="fill: none; stroke: #595959"/>
   </g>
   <g id="line2d_86">
    <path d="M 323.156139 142.933966 
L 323.156139 130.951834 
" clip-path="url(#pff096da6ff)" style="fill: none; stroke: #595959"/>
   </g>
   <g id="line2d_87">
    <path d="M 319.919787 206.04458 
L 326.392491 206.04458 
" clip-path="url(#pff096da6ff)" style="fill: none; stroke: #595959; stroke-linecap: round"/>
   </g>
   <g id="line2d_88">
    <path d="M 319.919787 130.951834 
L 326.392491 130.951834 
" clip-path="url(#pff096da6ff)" style="fill: none; stroke: #595959; stroke-linecap: round"/>
   </g>
   <g id="line2d_89"/>
   <g id="patch_18">
    <path d="M 335.176875 165.4555 
L 348.122283 165.4555 
L 348.122283 130.888936 
L 335.176875 130.888936 
L 335.176875 165.4555 
z
" clip-path="url(#pff096da6ff)" style="fill: #72b6a1; stroke: #595959; stroke-linejoin: miter"/>
   </g>
   <g id="line2d_90">
    <path d="M 341.649579 165.4555 
L 341.649579 198.001456 
" clip-path="url(#pff096da6ff)" style="fill: none; stroke: #595959"/>
   </g>
   <g id="line2d_91">
    <path d="M 341.649579 130.888936 
L 341.649579 128.868327 
" clip-path="url(#pff096da6ff)" style="fill: none; stroke: #595959"/>
   </g>
   <g id="line2d_92">
    <path d="M 338.413227 198.001456 
L 344.885931 198.001456 
" clip-path="url(#pff096da6ff)" style="fill: none; stroke: #595959; stroke-linecap: round"/>
   </g>
   <g id="line2d_93">
    <path d="M 338.413227 128.868327 
L 344.885931 128.868327 
" clip-path="url(#pff096da6ff)" style="fill: none; stroke: #595959; stroke-linecap: round"/>
   </g>
   <g id="line2d_94"/>
   <g id="patch_19">
    <path d="M 353.670316 172.653428 
L 366.615724 172.653428 
L 366.615724 138.731572 
L 353.670316 138.731572 
L 353.670316 172.653428 
z
" clip-path="url(#pff096da6ff)" style="fill: #72b6a1; stroke: #595959; stroke-linejoin: miter"/>
   </g>
   <g id="line2d_95">
    <path d="M 360.14302 172.653428 
L 360.14302 196.106644 
" clip-path="url(#pff096da6ff)" style="fill: none; stroke: #595959"/>
   </g>
   <g id="line2d_96">
    <path d="M 360.14302 138.731572 
L 360.14302 128.262931 
" clip-path="url(#pff096da6ff)" style="fill: none; stroke: #595959"/>
   </g>
   <g id="line2d_97">
    <path d="M 356.906668 196.106644 
L 363.379372 196.106644 
" clip-path="url(#pff096da6ff)" style="fill: none; stroke: #595959; stroke-linecap: round"/>
   </g>
   <g id="line2d_98">
    <path d="M 356.906668 128.262931 
L 363.379372 128.262931 
" clip-path="url(#pff096da6ff)" style="fill: none; stroke: #595959; stroke-linecap: round"/>
   </g>
   <g id="line2d_99"/>
   <g id="patch_20">
    <path d="M 372.163756 162.440312 
L 385.109165 162.440312 
L 385.109165 128.659976 
L 372.163756 128.659976 
L 372.163756 162.440312 
z
" clip-path="url(#pff096da6ff)" style="fill: #72b6a1; stroke: #595959; stroke-linejoin: miter"/>
   </g>
   <g id="line2d_100">
    <path d="M 378.63646 162.440312 
L 378.63646 195.233929 
" clip-path="url(#pff096da6ff)" style="fill: none; stroke: #595959"/>
   </g>
   <g id="line2d_101">
    <path d="M 378.63646 128.659976 
L 378.63646 127.673259 
" clip-path="url(#pff096da6ff)" style="fill: none; stroke: #595959"/>
   </g>
   <g id="line2d_102">
    <path d="M 375.400108 195.233929 
L 381.872813 195.233929 
" clip-path="url(#pff096da6ff)" style="fill: none; stroke: #595959; stroke-linecap: round"/>
   </g>
   <g id="line2d_103">
    <path d="M 375.400108 127.673259 
L 381.872813 127.673259 
" clip-path="url(#pff096da6ff)" style="fill: none; stroke: #595959; stroke-linecap: round"/>
   </g>
   <g id="line2d_104"/>
   <g id="patch_21">
    <path d="M 390.657197 154.931823 
L 403.602605 154.931823 
L 403.602605 128.860465 
L 390.657197 128.860465 
L 390.657197 154.931823 
z
" clip-path="url(#pff096da6ff)" style="fill: #72b6a1; stroke: #595959; stroke-linejoin: miter"/>
   </g>
   <g id="line2d_105">
    <path d="M 397.129901 154.931823 
L 397.129901 178.786015 
" clip-path="url(#pff096da6ff)" style="fill: none; stroke: #595959"/>
   </g>
   <g id="line2d_106">
    <path d="M 397.129901 128.860465 
L 397.129901 126.643299 
" clip-path="url(#pff096da6ff)" style="fill: none; stroke: #595959"/>
   </g>
   <g id="line2d_107">
    <path d="M 393.893549 178.786015 
L 400.366253 178.786015 
" clip-path="url(#pff096da6ff)" style="fill: none; stroke: #595959; stroke-linecap: round"/>
   </g>
   <g id="line2d_108">
    <path d="M 393.893549 126.643299 
L 400.366253 126.643299 
" clip-path="url(#pff096da6ff)" style="fill: none; stroke: #595959; stroke-linecap: round"/>
   </g>
   <g id="line2d_109"/>
   <g id="patch_22">
    <path d="M 409.150637 152.706795 
L 422.096046 152.706795 
L 422.096046 128.420176 
L 409.150637 128.420176 
L 409.150637 152.706795 
z
" clip-path="url(#pff096da6ff)" style="fill: #72b6a1; stroke: #595959; stroke-linejoin: miter"/>
   </g>
   <g id="line2d_110">
    <path d="M 415.623342 152.706795 
L 415.623342 175.428817 
" clip-path="url(#pff096da6ff)" style="fill: none; stroke: #595959"/>
   </g>
   <g id="line2d_111">
    <path d="M 415.623342 128.420176 
L 415.623342 126.85558 
" clip-path="url(#pff096da6ff)" style="fill: none; stroke: #595959"/>
   </g>
   <g id="line2d_112">
    <path d="M 412.386989 175.428817 
L 418.859694 175.428817 
" clip-path="url(#pff096da6ff)" style="fill: none; stroke: #595959; stroke-linecap: round"/>
   </g>
   <g id="line2d_113">
    <path d="M 412.386989 126.85558 
L 418.859694 126.85558 
" clip-path="url(#pff096da6ff)" style="fill: none; stroke: #595959; stroke-linecap: round"/>
   </g>
   <g id="line2d_114"/>
   <g id="patch_23">
    <path d="M 427.644078 151.051782 
L 440.589486 151.051782 
L 440.589486 121.163281 
L 427.644078 121.163281 
L 427.644078 151.051782 
z
" clip-path="url(#pff096da6ff)" style="fill: #72b6a1; stroke: #595959; stroke-linejoin: miter"/>
   </g>
   <g id="line2d_115">
    <path d="M 434.116782 151.051782 
L 434.116782 177.18997 
" clip-path="url(#pff096da6ff)" style="fill: none; stroke: #595959"/>
   </g>
   <g id="line2d_116">
    <path d="M 434.116782 121.163281 
L 434.116782 117.412968 
" clip-path="url(#pff096da6ff)" style="fill: none; stroke: #595959"/>
   </g>
   <g id="line2d_117">
    <path d="M 430.88043 177.18997 
L 437.353134 177.18997 
" clip-path="url(#pff096da6ff)" style="fill: none; stroke: #595959; stroke-linecap: round"/>
   </g>
   <g id="line2d_118">
    <path d="M 430.88043 117.412968 
L 437.353134 117.412968 
" clip-path="url(#pff096da6ff)" style="fill: none; stroke: #595959; stroke-linecap: round"/>
   </g>
   <g id="line2d_119"/>
   <g id="patch_24">
    <path d="M 446.137519 152.769693 
L 459.082927 152.769693 
L 459.082927 118.030158 
L 446.137519 118.030158 
L 446.137519 152.769693 
z
" clip-path="url(#pff096da6ff)" style="fill: #72b6a1; stroke: #595959; stroke-linejoin: miter"/>
   </g>
   <g id="line2d_120">
    <path d="M 452.610223 152.769693 
L 452.610223 183.063102 
" clip-path="url(#pff096da6ff)" style="fill: none; stroke: #595959"/>
   </g>
   <g id="line2d_121">
    <path d="M 452.610223 118.030158 
L 452.610223 113.584033 
" clip-path="url(#pff096da6ff)" style="fill: none; stroke: #595959"/>
   </g>
   <g id="line2d_122">
    <path d="M 449.373871 183.063102 
L 455.846575 183.063102 
" clip-path="url(#pff096da6ff)" style="fill: none; stroke: #595959; stroke-linecap: round"/>
   </g>
   <g id="line2d_123">
    <path d="M 449.373871 113.584033 
L 455.846575 113.584033 
" clip-path="url(#pff096da6ff)" style="fill: none; stroke: #595959; stroke-linecap: round"/>
   </g>
   <g id="line2d_124"/>
   <g id="patch_25">
    <path d="M 464.630959 151.590349 
L 477.576368 151.590349 
L 477.576368 124.14309 
L 464.630959 124.14309 
L 464.630959 151.590349 
z
" clip-path="url(#pff096da6ff)" style="fill: #72b6a1; stroke: #595959; stroke-linejoin: miter"/>
   </g>
   <g id="line2d_125">
    <path d="M 471.103663 151.590349 
L 471.103663 178.864638 
" clip-path="url(#pff096da6ff)" style="fill: none; stroke: #595959"/>
   </g>
   <g id="line2d_126">
    <path d="M 471.103663 124.14309 
L 471.103663 123.97012 
" clip-path="url(#pff096da6ff)" style="fill: none; stroke: #595959"/>
   </g>
   <g id="line2d_127">
    <path d="M 467.867311 178.864638 
L 474.340015 178.864638 
" clip-path="url(#pff096da6ff)" style="fill: none; stroke: #595959; stroke-linecap: round"/>
   </g>
   <g id="line2d_128">
    <path d="M 467.867311 123.97012 
L 474.340015 123.97012 
" clip-path="url(#pff096da6ff)" style="fill: none; stroke: #595959; stroke-linecap: round"/>
   </g>
   <g id="line2d_129"/>
   <g id="patch_26">
    <path d="M 483.1244 145.799772 
L 496.069808 145.799772 
L 496.069808 121.890543 
L 483.1244 121.890543 
L 483.1244 145.799772 
z
" clip-path="url(#pff096da6ff)" style="fill: #72b6a1; stroke: #595959; stroke-linejoin: miter"/>
   </g>
   <g id="line2d_130">
    <path d="M 489.597104 145.799772 
L 489.597104 166.678087 
" clip-path="url(#pff096da6ff)" style="fill: none; stroke: #595959"/>
   </g>
   <g id="line2d_131">
    <path d="M 489.597104 121.890543 
L 489.597104 118.85963 
" clip-path="url(#pff096da6ff)" style="fill: none; stroke: #595959"/>
   </g>
   <g id="line2d_132">
    <path d="M 486.360752 166.678087 
L 492.833456 166.678087 
" clip-path="url(#pff096da6ff)" style="fill: none; stroke: #595959; stroke-linecap: round"/>
   </g>
   <g id="line2d_133">
    <path d="M 486.360752 118.85963 
L 492.833456 118.85963 
" clip-path="url(#pff096da6ff)" style="fill: none; stroke: #595959; stroke-linecap: round"/>
   </g>
   <g id="line2d_134"/>
   <g id="patch_27">
    <path d="M 501.61784 146.346201 
L 514.563249 146.346201 
L 514.563249 125.597614 
L 501.61784 125.597614 
L 501.61784 146.346201 
z
" clip-path="url(#pff096da6ff)" style="fill: #72b6a1; stroke: #595959; stroke-linejoin: miter"/>
   </g>
   <g id="line2d_135">
    <path d="M 508.090545 146.346201 
L 508.090545 165.883995 
" clip-path="url(#pff096da6ff)" style="fill: none; stroke: #595959"/>
   </g>
   <g id="line2d_136">
    <path d="M 508.090545 125.597614 
L 508.090545 124.386821 
" clip-path="url(#pff096da6ff)" style="fill: none; stroke: #595959"/>
   </g>
   <g id="line2d_137">
    <path d="M 504.854192 165.883995 
L 511.326897 165.883995 
" clip-path="url(#pff096da6ff)" style="fill: none; stroke: #595959; stroke-linecap: round"/>
   </g>
   <g id="line2d_138">
    <path d="M 504.854192 124.386821 
L 511.326897 124.386821 
" clip-path="url(#pff096da6ff)" style="fill: none; stroke: #595959; stroke-linecap: round"/>
   </g>
   <g id="line2d_139"/>
   <g id="patch_28">
    <path d="M 520.111281 145.599283 
L 533.056689 145.599283 
L 533.056689 113.792383 
L 520.111281 113.792383 
L 520.111281 145.599283 
z
" clip-path="url(#pff096da6ff)" style="fill: #72b6a1; stroke: #595959; stroke-linejoin: miter"/>
   </g>
   <g id="line2d_140">
    <path d="M 526.583985 145.599283 
L 526.583985 169.209744 
" clip-path="url(#pff096da6ff)" style="fill: none; stroke: #595959"/>
   </g>
   <g id="line2d_141">
    <path d="M 526.583985 113.792383 
L 526.583985 105.595944 
" clip-path="url(#pff096da6ff)" style="fill: none; stroke: #595959"/>
   </g>
   <g id="line2d_142">
    <path d="M 523.347633 169.209744 
L 529.820337 169.209744 
" clip-path="url(#pff096da6ff)" style="fill: none; stroke: #595959; stroke-linecap: round"/>
   </g>
   <g id="line2d_143">
    <path d="M 523.347633 105.595944 
L 529.820337 105.595944 
" clip-path="url(#pff096da6ff)" style="fill: none; stroke: #595959; stroke-linecap: round"/>
   </g>
   <g id="line2d_144"/>
   <g id="patch_29">
    <path d="M 538.604722 140.056368 
L 551.55013 140.056368 
L 551.55013 117.330414 
L 538.604722 117.330414 
L 538.604722 140.056368 
z
" clip-path="url(#pff096da6ff)" style="fill: #72b6a1; stroke: #595959; stroke-linejoin: miter"/>
   </g>
   <g id="line2d_145">
    <path d="M 545.077426 140.056368 
L 545.077426 158.666412 
" clip-path="url(#pff096da6ff)" style="fill: none; stroke: #595959"/>
   </g>
   <g id="line2d_146">
    <path d="M 545.077426 117.330414 
L 545.077426 113.214505 
" clip-path="url(#pff096da6ff)" style="fill: none; stroke: #595959"/>
   </g>
   <g id="line2d_147">
    <path d="M 541.841074 158.666412 
L 548.313778 158.666412 
" clip-path="url(#pff096da6ff)" style="fill: none; stroke: #595959; stroke-linecap: round"/>
   </g>
   <g id="line2d_148">
    <path d="M 541.841074 113.214505 
L 548.313778 113.214505 
" clip-path="url(#pff096da6ff)" style="fill: none; stroke: #595959; stroke-linecap: round"/>
   </g>
   <g id="line2d_149"/>
   <g id="patch_30">
    <path d="M 557.098162 141.074535 
L 570.043571 141.074535 
L 570.043571 117.884706 
L 557.098162 117.884706 
L 557.098162 141.074535 
z
" clip-path="url(#pff096da6ff)" style="fill: #72b6a1; stroke: #595959; stroke-linejoin: miter"/>
   </g>
   <g id="line2d_150">
    <path d="M 563.570866 141.074535 
L 563.570866 161.905676 
" clip-path="url(#pff096da6ff)" style="fill: none; stroke: #595959"/>
   </g>
   <g id="line2d_151">
    <path d="M 563.570866 117.884706 
L 563.570866 115.526019 
" clip-path="url(#pff096da6ff)" style="fill: none; stroke: #595959"/>
   </g>
   <g id="line2d_152">
    <path d="M 560.334514 161.905676 
L 566.807218 161.905676 
" clip-path="url(#pff096da6ff)" style="fill: none; stroke: #595959; stroke-linecap: round"/>
   </g>
   <g id="line2d_153">
    <path d="M 560.334514 115.526019 
L 566.807218 115.526019 
" clip-path="url(#pff096da6ff)" style="fill: none; stroke: #595959; stroke-linecap: round"/>
   </g>
   <g id="line2d_154"/>
   <g id="patch_31">
    <path d="M 575.591603 139.675047 
L 588.537011 139.675047 
L 588.537011 115.282287 
L 575.591603 115.282287 
L 575.591603 139.675047 
z
" clip-path="url(#pff096da6ff)" style="fill: #72b6a1; stroke: #595959; stroke-linejoin: miter"/>
   </g>
   <g id="line2d_155">
    <path d="M 582.064307 139.675047 
L 582.064307 157.998117 
" clip-path="url(#pff096da6ff)" style="fill: none; stroke: #595959"/>
   </g>
   <g id="line2d_156">
    <path d="M 582.064307 115.282287 
L 582.064307 109.212599 
" clip-path="url(#pff096da6ff)" style="fill: none; stroke: #595959"/>
   </g>
   <g id="line2d_157">
    <path d="M 578.827955 157.998117 
L 585.300659 157.998117 
" clip-path="url(#pff096da6ff)" style="fill: none; stroke: #595959; stroke-linecap: round"/>
   </g>
   <g id="line2d_158">
    <path d="M 578.827955 109.212599 
L 585.300659 109.212599 
" clip-path="url(#pff096da6ff)" style="fill: none; stroke: #595959; stroke-linecap: round"/>
   </g>
   <g id="line2d_159"/>
   <g id="patch_32">
    <path d="M 594.085043 142.033734 
L 607.030452 142.033734 
L 607.030452 115.950582 
L 594.085043 115.950582 
L 594.085043 142.033734 
z
" clip-path="url(#pff096da6ff)" style="fill: #72b6a1; stroke: #595959; stroke-linejoin: miter"/>
   </g>
   <g id="line2d_160">
    <path d="M 600.557748 142.033734 
L 600.557748 161.056548 
" clip-path="url(#pff096da6ff)" style="fill: none; stroke: #595959"/>
   </g>
   <g id="line2d_161">
    <path d="M 600.557748 115.950582 
L 600.557748 108.890245 
" clip-path="url(#pff096da6ff)" style="fill: none; stroke: #595959"/>
   </g>
   <g id="line2d_162">
    <path d="M 597.321395 161.056548 
L 603.7941 161.056548 
" clip-path="url(#pff096da6ff)" style="fill: none; stroke: #595959; stroke-linecap: round"/>
   </g>
   <g id="line2d_163">
    <path d="M 597.321395 108.890245 
L 603.7941 108.890245 
" clip-path="url(#pff096da6ff)" style="fill: none; stroke: #595959; stroke-linecap: round"/>
   </g>
   <g id="line2d_164"/>
   <g id="patch_33">
    <path d="M 612.578484 147.175673 
L 625.523892 147.175673 
L 625.523892 111.213552 
L 612.578484 111.213552 
L 612.578484 147.175673 
z
" clip-path="url(#pff096da6ff)" style="fill: #72b6a1; stroke: #595959; stroke-linejoin: miter"/>
   </g>
   <g id="line2d_165">
    <path d="M 619.051188 147.175673 
L 619.051188 173.321723 
" clip-path="url(#pff096da6ff)" style="fill: none; stroke: #595959"/>
   </g>
   <g id="line2d_166">
    <path d="M 619.051188 111.213552 
L 619.051188 101.397481 
" clip-path="url(#pff096da6ff)" style="fill: none; stroke: #595959"/>
   </g>
   <g id="line2d_167">
    <path d="M 615.814836 173.321723 
L 622.28754 173.321723 
" clip-path="url(#pff096da6ff)" style="fill: none; stroke: #595959; stroke-linecap: round"/>
   </g>
   <g id="line2d_168">
    <path d="M 615.814836 101.397481 
L 622.28754 101.397481 
" clip-path="url(#pff096da6ff)" style="fill: none; stroke: #595959; stroke-linecap: round"/>
   </g>
   <g id="line2d_169"/>
   <g id="patch_34">
    <path d="M 631.071925 145.229756 
L 644.017333 145.229756 
L 644.017333 113.536859 
L 631.071925 113.536859 
L 631.071925 145.229756 
z
" clip-path="url(#pff096da6ff)" style="fill: #72b6a1; stroke: #595959; stroke-linejoin: miter"/>
   </g>
   <g id="line2d_170">
    <path d="M 637.544629 145.229756 
L 637.544629 169.84659 
" clip-path="url(#pff096da6ff)" style="fill: none; stroke: #595959"/>
   </g>
   <g id="line2d_171">
    <path d="M 637.544629 113.536859 
L 637.544629 106.460796 
" clip-path="url(#pff096da6ff)" style="fill: none; stroke: #595959"/>
   </g>
   <g id="line2d_172">
    <path d="M 634.308277 169.84659 
L 640.780981 169.84659 
" clip-path="url(#pff096da6ff)" style="fill: none; stroke: #595959; stroke-linecap: round"/>
   </g>
   <g id="line2d_173">
    <path d="M 634.308277 106.460796 
L 640.780981 106.460796 
" clip-path="url(#pff096da6ff)" style="fill: none; stroke: #595959; stroke-linecap: round"/>
   </g>
   <g id="line2d_174"/>
   <g id="patch_35">
    <path d="M 649.565365 136.105566 
L 662.510774 136.105566 
L 662.510774 114.555026 
L 649.565365 114.555026 
L 649.565365 136.105566 
z
" clip-path="url(#pff096da6ff)" style="fill: #72b6a1; stroke: #595959; stroke-linejoin: miter"/>
   </g>
   <g id="line2d_175">
    <path d="M 656.038069 136.105566 
L 656.038069 151.991326 
" clip-path="url(#pff096da6ff)" style="fill: none; stroke: #595959"/>
   </g>
   <g id="line2d_176">
    <path d="M 656.038069 114.555026 
L 656.038069 108.890245 
" clip-path="url(#pff096da6ff)" style="fill: none; stroke: #595959"/>
   </g>
   <g id="line2d_177">
    <path d="M 652.801717 151.991326 
L 659.274421 151.991326 
" clip-path="url(#pff096da6ff)" style="fill: none; stroke: #595959; stroke-linecap: round"/>
   </g>
   <g id="line2d_178">
    <path d="M 652.801717 108.890245 
L 659.274421 108.890245 
" clip-path="url(#pff096da6ff)" style="fill: none; stroke: #595959; stroke-linecap: round"/>
   </g>
   <g id="line2d_179"/>
   <g id="patch_36">
    <path d="M 668.058806 134.603869 
L 681.004214 134.603869 
L 681.004214 108.575753 
L 668.058806 108.575753 
L 668.058806 134.603869 
z
" clip-path="url(#pff096da6ff)" style="fill: #72b6a1; stroke: #595959; stroke-linejoin: miter"/>
   </g>
   <g id="line2d_180">
    <path d="M 674.53151 134.603869 
L 674.53151 148.343223 
" clip-path="url(#pff096da6ff)" style="fill: none; stroke: #595959"/>
   </g>
   <g id="line2d_181">
    <path d="M 674.53151 108.575753 
L 674.53151 96.286991 
" clip-path="url(#pff096da6ff)" style="fill: none; stroke: #595959"/>
   </g>
   <g id="line2d_182">
    <path d="M 671.295158 148.343223 
L 677.767862 148.343223 
" clip-path="url(#pff096da6ff)" style="fill: none; stroke: #595959; stroke-linecap: round"/>
   </g>
   <g id="line2d_183">
    <path d="M 671.295158 96.286991 
L 677.767862 96.286991 
" clip-path="url(#pff096da6ff)" style="fill: none; stroke: #595959; stroke-linecap: round"/>
   </g>
   <g id="line2d_184"/>
   <g id="patch_37">
    <path d="M 686.552246 135.338993 
L 699.497655 135.338993 
L 699.497655 110.792919 
L 686.552246 110.792919 
L 686.552246 135.338993 
z
" clip-path="url(#pff096da6ff)" style="fill: #72b6a1; stroke: #595959; stroke-linejoin: miter"/>
   </g>
   <g id="line2d_185">
    <path d="M 693.02495 135.338993 
L 693.02495 150.819845 
" clip-path="url(#pff096da6ff)" style="fill: none; stroke: #595959"/>
   </g>
   <g id="line2d_186">
    <path d="M 693.02495 110.792919 
L 693.02495 101.727697 
" clip-path="url(#pff096da6ff)" style="fill: none; stroke: #595959"/>
   </g>
   <g id="line2d_187">
    <path d="M 689.788598 150.819845 
L 696.261303 150.819845 
" clip-path="url(#pff096da6ff)" style="fill: none; stroke: #595959; stroke-linecap: round"/>
   </g>
   <g id="line2d_188">
    <path d="M 689.788598 101.727697 
L 696.261303 101.727697 
" clip-path="url(#pff096da6ff)" style="fill: none; stroke: #595959; stroke-linecap: round"/>
   </g>
   <g id="line2d_189"/>
   <g id="patch_38">
    <path d="M 705.045687 136.679514 
L 717.991095 136.679514 
L 717.991095 113.564377 
L 705.045687 113.564377 
L 705.045687 136.679514 
z
" clip-path="url(#pff096da6ff)" style="fill: #72b6a1; stroke: #595959; stroke-linejoin: miter"/>
   </g>
   <g id="line2d_190">
    <path d="M 711.518391 136.679514 
L 711.518391 152.934801 
" clip-path="url(#pff096da6ff)" style="fill: none; stroke: #595959"/>
   </g>
   <g id="line2d_191">
    <path d="M 711.518391 113.564377 
L 711.518391 106.704528 
" clip-path="url(#pff096da6ff)" style="fill: none; stroke: #595959"/>
   </g>
   <g id="line2d_192">
    <path d="M 708.282039 152.934801 
L 714.754743 152.934801 
" clip-path="url(#pff096da6ff)" style="fill: none; stroke: #595959; stroke-linecap: round"/>
   </g>
   <g id="line2d_193">
    <path d="M 708.282039 106.704528 
L 714.754743 106.704528 
" clip-path="url(#pff096da6ff)" style="fill: none; stroke: #595959; stroke-linecap: round"/>
   </g>
   <g id="line2d_194"/>
   <g id="patch_39">
    <path d="M 723.539127 132.697263 
L 736.484536 132.697263 
L 736.484536 110.399805 
L 723.539127 110.399805 
L 723.539127 132.697263 
z
" clip-path="url(#pff096da6ff)" style="fill: #72b6a1; stroke: #595959; stroke-linejoin: miter"/>
   </g>
   <g id="line2d_195">
    <path d="M 730.011832 132.697263 
L 730.011832 145.048923 
" clip-path="url(#pff096da6ff)" style="fill: none; stroke: #595959"/>
   </g>
   <g id="line2d_196">
    <path d="M 730.011832 110.399805 
L 730.011832 100.454006 
" clip-path="url(#pff096da6ff)" style="fill: none; stroke: #595959"/>
   </g>
   <g id="line2d_197">
    <path d="M 726.77548 145.048923 
L 733.248184 145.048923 
" clip-path="url(#pff096da6ff)" style="fill: none; stroke: #595959; stroke-linecap: round"/>
   </g>
   <g id="line2d_198">
    <path d="M 726.77548 100.454006 
L 733.248184 100.454006 
" clip-path="url(#pff096da6ff)" style="fill: none; stroke: #595959; stroke-linecap: round"/>
   </g>
   <g id="line2d_199"/>
   <g id="patch_40">
    <path d="M 742.032568 132.925269 
L 754.977976 132.925269 
L 754.977976 119.539718 
L 742.032568 119.539718 
L 742.032568 132.925269 
z
" clip-path="url(#pff096da6ff)" style="fill: #72b6a1; stroke: #595959; stroke-linejoin: miter"/>
   </g>
   <g id="line2d_200">
    <path d="M 748.505272 132.925269 
L 748.505272 145.261205 
" clip-path="url(#pff096da6ff)" style="fill: none; stroke: #595959"/>
   </g>
   <g id="line2d_201">
    <path d="M 748.505272 119.539718 
L 748.505272 118.490102 
" clip-path="url(#pff096da6ff)" style="fill: none; stroke: #595959"/>
   </g>
   <g id="line2d_202">
    <path d="M 745.26892 145.261205 
L 751.741624 145.261205 
" clip-path="url(#pff096da6ff)" style="fill: none; stroke: #595959; stroke-linecap: round"/>
   </g>
   <g id="line2d_203">
    <path d="M 745.26892 118.490102 
L 751.741624 118.490102 
" clip-path="url(#pff096da6ff)" style="fill: none; stroke: #595959; stroke-linecap: round"/>
   </g>
   <g id="line2d_204"/>
   <g id="patch_41">
    <path d="M 760.526009 132.402427 
L 773.471417 132.402427 
L 773.471417 118.792801 
L 760.526009 118.792801 
L 760.526009 132.402427 
z
" clip-path="url(#pff096da6ff)" style="fill: #72b6a1; stroke: #595959; stroke-linejoin: miter"/>
   </g>
   <g id="line2d_205">
    <path d="M 766.998713 132.402427 
L 766.998713 144.058274 
" clip-path="url(#pff096da6ff)" style="fill: none; stroke: #595959"/>
   </g>
   <g id="line2d_206">
    <path d="M 766.998713 118.792801 
L 766.998713 116.839021 
" clip-path="url(#pff096da6ff)" style="fill: none; stroke: #595959"/>
   </g>
   <g id="line2d_207">
    <path d="M 763.762361 144.058274 
L 770.235065 144.058274 
" clip-path="url(#pff096da6ff)" style="fill: none; stroke: #595959; stroke-linecap: round"/>
   </g>
   <g id="line2d_208">
    <path d="M 763.762361 116.839021 
L 770.235065 116.839021 
" clip-path="url(#pff096da6ff)" style="fill: none; stroke: #595959; stroke-linecap: round"/>
   </g>
   <g id="line2d_209"/>
   <g id="patch_42">
    <path d="M 779.019449 131.651578 
L 791.964858 131.651578 
L 791.964858 109.110389 
L 779.019449 109.110389 
L 779.019449 131.651578 
z
" clip-path="url(#pff096da6ff)" style="fill: #72b6a1; stroke: #595959; stroke-linejoin: miter"/>
   </g>
   <g id="line2d_210">
    <path d="M 785.492153 131.651578 
L 785.492153 142.698098 
" clip-path="url(#pff096da6ff)" style="fill: none; stroke: #595959"/>
   </g>
   <g id="line2d_211">
    <path d="M 785.492153 109.110389 
L 785.492153 97.615719 
" clip-path="url(#pff096da6ff)" style="fill: none; stroke: #595959"/>
   </g>
   <g id="line2d_212">
    <path d="M 782.255801 142.698098 
L 788.728506 142.698098 
" clip-path="url(#pff096da6ff)" style="fill: none; stroke: #595959; stroke-linecap: round"/>
   </g>
   <g id="line2d_213">
    <path d="M 782.255801 97.615719 
L 788.728506 97.615719 
" clip-path="url(#pff096da6ff)" style="fill: none; stroke: #595959; stroke-linecap: round"/>
   </g>
   <g id="line2d_214"/>
   <g id="patch_43">
    <path d="M 797.51289 132.374909 
L 810.458298 132.374909 
L 810.458298 112.915738 
L 797.51289 112.915738 
L 797.51289 132.374909 
z
" clip-path="url(#pff096da6ff)" style="fill: #72b6a1; stroke: #595959; stroke-linejoin: miter"/>
   </g>
   <g id="line2d_215">
    <path d="M 803.985594 132.374909 
L 803.985594 143.004727 
" clip-path="url(#pff096da6ff)" style="fill: none; stroke: #595959"/>
   </g>
   <g id="line2d_216">
    <path d="M 803.985594 112.915738 
L 803.985594 104.086384 
" clip-path="url(#pff096da6ff)" style="fill: none; stroke: #595959"/>
   </g>
   <g id="line2d_217">
    <path d="M 800.749242 143.004727 
L 807.221946 143.004727 
" clip-path="url(#pff096da6ff)" style="fill: none; stroke: #595959; stroke-linecap: round"/>
   </g>
   <g id="line2d_218">
    <path d="M 800.749242 104.086384 
L 807.221946 104.086384 
" clip-path="url(#pff096da6ff)" style="fill: none; stroke: #595959; stroke-linecap: round"/>
   </g>
   <g id="line2d_219"/>
   <g id="patch_44">
    <path d="M 816.00633 130.739552 
L 828.951739 130.739552 
L 828.951739 114.323088 
L 816.00633 114.323088 
L 816.00633 130.739552 
z
" clip-path="url(#pff096da6ff)" style="fill: #72b6a1; stroke: #595959; stroke-linejoin: miter"/>
   </g>
   <g id="line2d_220">
    <path d="M 822.479035 130.739552 
L 822.479035 142.249947 
" clip-path="url(#pff096da6ff)" style="fill: none; stroke: #595959"/>
   </g>
   <g id="line2d_221">
    <path d="M 822.479035 114.323088 
L 822.479035 109.417018 
" clip-path="url(#pff096da6ff)" style="fill: none; stroke: #595959"/>
   </g>
   <g id="line2d_222">
    <path d="M 819.242683 142.249947 
L 825.715387 142.249947 
" clip-path="url(#pff096da6ff)" style="fill: none; stroke: #595959; stroke-linecap: round"/>
   </g>
   <g id="line2d_223">
    <path d="M 819.242683 109.417018 
L 825.715387 109.417018 
" clip-path="url(#pff096da6ff)" style="fill: none; stroke: #595959; stroke-linecap: round"/>
   </g>
   <g id="line2d_224"/>
   <g id="patch_45">
    <path d="M 834.499771 130.900729 
L 847.445179 130.900729 
L 847.445179 106.570869 
L 834.499771 106.570869 
L 834.499771 130.900729 
z
" clip-path="url(#pff096da6ff)" style="fill: #72b6a1; stroke: #595959; stroke-linejoin: miter"/>
   </g>
   <g id="line2d_225">
    <path d="M 840.972475 130.900729 
L 840.972475 140.756112 
" clip-path="url(#pff096da6ff)" style="fill: none; stroke: #595959"/>
   </g>
   <g id="line2d_226">
    <path d="M 840.972475 106.570869 
L 840.972475 92.09639 
" clip-path="url(#pff096da6ff)" style="fill: none; stroke: #595959"/>
   </g>
   <g id="line2d_227">
    <path d="M 837.736123 140.756112 
L 844.208827 140.756112 
" clip-path="url(#pff096da6ff)" style="fill: none; stroke: #595959; stroke-linecap: round"/>
   </g>
   <g id="line2d_228">
    <path d="M 837.736123 92.09639 
L 844.208827 92.09639 
" clip-path="url(#pff096da6ff)" style="fill: none; stroke: #595959; stroke-linecap: round"/>
   </g>
   <g id="line2d_229"/>
   <g id="patch_46">
    <path d="M 852.993212 129.800009 
L 865.93862 129.800009 
L 865.93862 110.918716 
L 852.993212 110.918716 
L 852.993212 129.800009 
z
" clip-path="url(#pff096da6ff)" style="fill: #72b6a1; stroke: #595959; stroke-linejoin: miter"/>
   </g>
   <g id="line2d_230">
    <path d="M 859.465916 129.800009 
L 859.465916 138.924198 
" clip-path="url(#pff096da6ff)" style="fill: none; stroke: #595959"/>
   </g>
   <g id="line2d_231">
    <path d="M 859.465916 110.918716 
L 859.465916 101.161612 
" clip-path="url(#pff096da6ff)" style="fill: none; stroke: #595959"/>
   </g>
   <g id="line2d_232">
    <path d="M 856.229564 138.924198 
L 862.702268 138.924198 
" clip-path="url(#pff096da6ff)" style="fill: none; stroke: #595959; stroke-linecap: round"/>
   </g>
   <g id="line2d_233">
    <path d="M 856.229564 101.161612 
L 862.702268 101.161612 
" clip-path="url(#pff096da6ff)" style="fill: none; stroke: #595959; stroke-linecap: round"/>
   </g>
   <g id="line2d_234"/>
   <g id="patch_47">
    <path d="M 871.486652 130.700241 
L 884.432061 130.700241 
L 884.432061 109.023904 
L 871.486652 109.023904 
L 871.486652 130.700241 
z
" clip-path="url(#pff096da6ff)" style="fill: #72b6a1; stroke: #595959; stroke-linejoin: miter"/>
   </g>
   <g id="line2d_235">
    <path d="M 877.959356 130.700241 
L 877.959356 140.740387 
" clip-path="url(#pff096da6ff)" style="fill: none; stroke: #595959"/>
   </g>
   <g id="line2d_236">
    <path d="M 877.959356 109.023904 
L 877.959356 97.387712 
" clip-path="url(#pff096da6ff)" style="fill: none; stroke: #595959"/>
   </g>
   <g id="line2d_237">
    <path d="M 874.723004 140.740387 
L 881.195709 140.740387 
" clip-path="url(#pff096da6ff)" style="fill: none; stroke: #595959; stroke-linecap: round"/>
   </g>
   <g id="line2d_238">
    <path d="M 874.723004 97.387712 
L 881.195709 97.387712 
" clip-path="url(#pff096da6ff)" style="fill: none; stroke: #595959; stroke-linecap: round"/>
   </g>
   <g id="line2d_239"/>
   <g id="patch_48">
    <path d="M 889.980093 131.958208 
L 902.925501 131.958208 
L 902.925501 105.965472 
L 889.980093 105.965472 
L 889.980093 131.958208 
z
" clip-path="url(#pff096da6ff)" style="fill: #72b6a1; stroke: #595959; stroke-linejoin: miter"/>
   </g>
   <g id="line2d_240">
    <path d="M 896.452797 131.958208 
L 896.452797 144.325592 
" clip-path="url(#pff096da6ff)" style="fill: none; stroke: #595959"/>
   </g>
   <g id="line2d_241">
    <path d="M 896.452797 105.965472 
L 896.452797 92.340121 
" clip-path="url(#pff096da6ff)" style="fill: none; stroke: #595959"/>
   </g>
   <g id="line2d_242">
    <path d="M 893.216445 144.325592 
L 899.689149 144.325592 
" clip-path="url(#pff096da6ff)" style="fill: none; stroke: #595959; stroke-linecap: round"/>
   </g>
   <g id="line2d_243">
    <path d="M 893.216445 92.340121 
L 899.689149 92.340121 
" clip-path="url(#pff096da6ff)" style="fill: none; stroke: #595959; stroke-linecap: round"/>
   </g>
   <g id="line2d_244"/>
   <g id="patch_49">
    <path d="M 908.473533 128.887983 
L 921.418942 128.887983 
L 921.418942 109.460261 
L 908.473533 109.460261 
L 908.473533 128.887983 
z
" clip-path="url(#pff096da6ff)" style="fill: #72b6a1; stroke: #595959; stroke-linejoin: miter"/>
   </g>
   <g id="line2d_245">
    <path d="M 914.946238 128.887983 
L 914.946238 137.964998 
" clip-path="url(#pff096da6ff)" style="fill: none; stroke: #595959"/>
   </g>
   <g id="line2d_246">
    <path d="M 914.946238 109.460261 
L 914.946238 99.109554 
" clip-path="url(#pff096da6ff)" style="fill: none; stroke: #595959"/>
   </g>
   <g id="line2d_247">
    <path d="M 911.709886 137.964998 
L 918.18259 137.964998 
" clip-path="url(#pff096da6ff)" style="fill: none; stroke: #595959; stroke-linecap: round"/>
   </g>
   <g id="line2d_248">
    <path d="M 911.709886 99.109554 
L 918.18259 99.109554 
" clip-path="url(#pff096da6ff)" style="fill: none; stroke: #595959; stroke-linecap: round"/>
   </g>
   <g id="line2d_249"/>
   <g id="patch_50">
    <path d="M 926.966974 127.453115 
L 939.912382 127.453115 
L 939.912382 111.473007 
L 926.966974 111.473007 
L 926.966974 127.453115 
z
" clip-path="url(#pff096da6ff)" style="fill: #72b6a1; stroke: #595959; stroke-linejoin: miter"/>
   </g>
   <g id="line2d_250">
    <path d="M 933.439678 127.453115 
L 933.439678 134.670698 
" clip-path="url(#pff096da6ff)" style="fill: none; stroke: #595959"/>
   </g>
   <g id="line2d_251">
    <path d="M 933.439678 111.473007 
L 933.439678 102.710483 
" clip-path="url(#pff096da6ff)" style="fill: none; stroke: #595959"/>
   </g>
   <g id="line2d_252">
    <path d="M 930.203326 134.670698 
L 936.67603 134.670698 
" clip-path="url(#pff096da6ff)" style="fill: none; stroke: #595959; stroke-linecap: round"/>
   </g>
   <g id="line2d_253">
    <path d="M 930.203326 102.710483 
L 936.67603 102.710483 
" clip-path="url(#pff096da6ff)" style="fill: none; stroke: #595959; stroke-linecap: round"/>
   </g>
   <g id="line2d_254"/>
   <g id="patch_51">
    <path d="M 945.460415 127.744019 
L 958.405823 127.744019 
L 958.405823 106.378242 
L 945.460415 106.378242 
L 945.460415 127.744019 
z
" clip-path="url(#pff096da6ff)" style="fill: #72b6a1; stroke: #595959; stroke-linejoin: miter"/>
   </g>
   <g id="line2d_255">
    <path d="M 951.933119 127.744019 
L 951.933119 136.195983 
" clip-path="url(#pff096da6ff)" style="fill: none; stroke: #595959"/>
   </g>
   <g id="line2d_256">
    <path d="M 951.933119 106.378242 
L 951.933119 93.464429 
" clip-path="url(#pff096da6ff)" style="fill: none; stroke: #595959"/>
   </g>
   <g id="line2d_257">
    <path d="M 948.696767 136.195983 
L 955.169471 136.195983 
" clip-path="url(#pff096da6ff)" style="fill: none; stroke: #595959; stroke-linecap: round"/>
   </g>
   <g id="line2d_258">
    <path d="M 948.696767 93.464429 
L 955.169471 93.464429 
" clip-path="url(#pff096da6ff)" style="fill: none; stroke: #595959; stroke-linecap: round"/>
   </g>
   <g id="line2d_259"/>
   <g id="patch_52">
    <path d="M 963.953855 128.962675 
L 976.899264 128.962675 
L 976.899264 111.280381 
L 963.953855 111.280381 
L 963.953855 128.962675 
z
" clip-path="url(#pff096da6ff)" style="fill: #72b6a1; stroke: #595959; stroke-linejoin: miter"/>
   </g>
   <g id="line2d_260">
    <path d="M 970.426559 128.962675 
L 970.426559 137.917825 
" clip-path="url(#pff096da6ff)" style="fill: none; stroke: #595959"/>
   </g>
   <g id="line2d_261">
    <path d="M 970.426559 111.280381 
L 970.426559 102.553238 
" clip-path="url(#pff096da6ff)" style="fill: none; stroke: #595959"/>
   </g>
   <g id="line2d_262">
    <path d="M 967.190207 137.917825 
L 973.662912 137.917825 
" clip-path="url(#pff096da6ff)" style="fill: none; stroke: #595959; stroke-linecap: round"/>
   </g>
   <g id="line2d_263">
    <path d="M 967.190207 102.553238 
L 973.662912 102.553238 
" clip-path="url(#pff096da6ff)" style="fill: none; stroke: #595959; stroke-linecap: round"/>
   </g>
   <g id="line2d_264"/>
   <g id="line2d_265">
    <path d="M 57.775266 440.94003 
L 70.720675 440.94003 
" clip-path="url(#pff096da6ff)" style="fill: none; stroke: #595959"/>
   </g>
   <g id="line2d_266">
    <path d="M 76.268707 408.647968 
L 89.214115 408.647968 
" clip-path="url(#pff096da6ff)" style="fill: none; stroke: #595959"/>
   </g>
   <g id="line2d_267">
    <path d="M 94.762147 375.602757 
L 107.707556 375.602757 
" clip-path="url(#pff096da6ff)" style="fill: none; stroke: #595959"/>
   </g>
   <g id="line2d_268">
    <path d="M 113.255588 347.508646 
L 126.200996 347.508646 
" clip-path="url(#pff096da6ff)" style="fill: none; stroke: #595959"/>
   </g>
   <g id="line2d_269">
    <path d="M 131.749028 319.33391 
L 144.694437 319.33391 
" clip-path="url(#pff096da6ff)" style="fill: none; stroke: #595959"/>
   </g>
   <g id="line2d_270">
    <path d="M 150.242469 196.484033 
L 163.187877 196.484033 
" clip-path="url(#pff096da6ff)" style="fill: none; stroke: #595959"/>
   </g>
   <g id="line2d_271">
    <path d="M 168.73591 183.086689 
L 181.681318 183.086689 
" clip-path="url(#pff096da6ff)" style="fill: none; stroke: #595959"/>
   </g>
   <g id="line2d_272">
    <path d="M 187.22935 169.720793 
L 200.174759 169.720793 
" clip-path="url(#pff096da6ff)" style="fill: none; stroke: #595959"/>
   </g>
   <g id="line2d_273">
    <path d="M 205.722791 161.308142 
L 218.668199 161.308142 
" clip-path="url(#pff096da6ff)" style="fill: none; stroke: #595959"/>
   </g>
   <g id="line2d_274">
    <path d="M 224.216231 167.68446 
L 237.16164 167.68446 
" clip-path="url(#pff096da6ff)" style="fill: none; stroke: #595959"/>
   </g>
   <g id="line2d_275">
    <path d="M 242.709672 147.352574 
L 255.65508 147.352574 
" clip-path="url(#pff096da6ff)" style="fill: none; stroke: #595959"/>
   </g>
   <g id="line2d_276">
    <path d="M 261.203113 152.722519 
L 274.148521 152.722519 
" clip-path="url(#pff096da6ff)" style="fill: none; stroke: #595959"/>
   </g>
   <g id="line2d_277">
    <path d="M 279.696553 149.994304 
L 292.641962 149.994304 
" clip-path="url(#pff096da6ff)" style="fill: none; stroke: #595959"/>
   </g>
   <g id="line2d_278">
    <path d="M 298.189994 146.126057 
L 311.135402 146.126057 
" clip-path="url(#pff096da6ff)" style="fill: none; stroke: #595959"/>
   </g>
   <g id="line2d_279">
    <path d="M 316.683434 154.916099 
L 329.628843 154.916099 
" clip-path="url(#pff096da6ff)" style="fill: none; stroke: #595959"/>
   </g>
   <g id="line2d_280">
    <path d="M 335.176875 132.909545 
L 348.122283 132.909545 
" clip-path="url(#pff096da6ff)" style="fill: none; stroke: #595959"/>
   </g>
   <g id="line2d_281">
    <path d="M 353.670316 149.200213 
L 366.615724 149.200213 
" clip-path="url(#pff096da6ff)" style="fill: none; stroke: #595959"/>
   </g>
   <g id="line2d_282">
    <path d="M 372.163756 129.646694 
L 385.109165 129.646694 
" clip-path="url(#pff096da6ff)" style="fill: none; stroke: #595959"/>
   </g>
   <g id="line2d_283">
    <path d="M 390.657197 131.077631 
L 403.602605 131.077631 
" clip-path="url(#pff096da6ff)" style="fill: none; stroke: #595959"/>
   </g>
   <g id="line2d_284">
    <path d="M 409.150637 129.984772 
L 422.096046 129.984772 
" clip-path="url(#pff096da6ff)" style="fill: none; stroke: #595959"/>
   </g>
   <g id="line2d_285">
    <path d="M 427.644078 124.913595 
L 440.589486 124.913595 
" clip-path="url(#pff096da6ff)" style="fill: none; stroke: #595959"/>
   </g>
   <g id="line2d_286">
    <path d="M 446.137519 122.476284 
L 459.082927 122.476284 
" clip-path="url(#pff096da6ff)" style="fill: none; stroke: #595959"/>
   </g>
   <g id="line2d_287">
    <path d="M 464.630959 124.31606 
L 477.576368 124.31606 
" clip-path="url(#pff096da6ff)" style="fill: none; stroke: #595959"/>
   </g>
   <g id="line2d_288">
    <path d="M 483.1244 124.921457 
L 496.069808 124.921457 
" clip-path="url(#pff096da6ff)" style="fill: none; stroke: #595959"/>
   </g>
   <g id="line2d_289">
    <path d="M 501.61784 126.808407 
L 514.563249 126.808407 
" clip-path="url(#pff096da6ff)" style="fill: none; stroke: #595959"/>
   </g>
   <g id="line2d_290">
    <path d="M 520.111281 121.988822 
L 533.056689 121.988822 
" clip-path="url(#pff096da6ff)" style="fill: none; stroke: #595959"/>
   </g>
   <g id="line2d_291">
    <path d="M 538.604722 121.446324 
L 551.55013 121.446324 
" clip-path="url(#pff096da6ff)" style="fill: none; stroke: #595959"/>
   </g>
   <g id="line2d_292">
    <path d="M 557.098162 120.243393 
L 570.043571 120.243393 
" clip-path="url(#pff096da6ff)" style="fill: none; stroke: #595959"/>
   </g>
   <g id="line2d_293">
    <path d="M 575.591603 121.351976 
L 588.537011 121.351976 
" clip-path="url(#pff096da6ff)" style="fill: none; stroke: #595959"/>
   </g>
   <g id="line2d_294">
    <path d="M 594.085043 123.01092 
L 607.030452 123.01092 
" clip-path="url(#pff096da6ff)" style="fill: none; stroke: #595959"/>
   </g>
   <g id="line2d_295">
    <path d="M 612.578484 121.029623 
L 625.523892 121.029623 
" clip-path="url(#pff096da6ff)" style="fill: none; stroke: #595959"/>
   </g>
   <g id="line2d_296">
    <path d="M 631.071925 120.612921 
L 644.017333 120.612921 
" clip-path="url(#pff096da6ff)" style="fill: none; stroke: #595959"/>
   </g>
   <g id="line2d_297">
    <path d="M 649.565365 120.219807 
L 662.510774 120.219807 
" clip-path="url(#pff096da6ff)" style="fill: none; stroke: #595959"/>
   </g>
   <g id="line2d_298">
    <path d="M 668.058806 120.864514 
L 681.004214 120.864514 
" clip-path="url(#pff096da6ff)" style="fill: none; stroke: #595959"/>
   </g>
   <g id="line2d_299">
    <path d="M 686.552246 119.858141 
L 699.497655 119.858141 
" clip-path="url(#pff096da6ff)" style="fill: none; stroke: #595959"/>
   </g>
   <g id="line2d_300">
    <path d="M 705.045687 120.424226 
L 717.991095 120.424226 
" clip-path="url(#pff096da6ff)" style="fill: none; stroke: #595959"/>
   </g>
   <g id="line2d_301">
    <path d="M 723.539127 120.345603 
L 736.484536 120.345603 
" clip-path="url(#pff096da6ff)" style="fill: none; stroke: #595959"/>
   </g>
   <g id="line2d_302">
    <path d="M 742.032568 120.589334 
L 754.977976 120.589334 
" clip-path="url(#pff096da6ff)" style="fill: none; stroke: #595959"/>
   </g>
   <g id="line2d_303">
    <path d="M 760.526009 120.74658 
L 773.471417 120.74658 
" clip-path="url(#pff096da6ff)" style="fill: none; stroke: #595959"/>
   </g>
   <g id="line2d_304">
    <path d="M 779.019449 120.605059 
L 791.964858 120.605059 
" clip-path="url(#pff096da6ff)" style="fill: none; stroke: #595959"/>
   </g>
   <g id="line2d_305">
    <path d="M 797.51289 121.745091 
L 810.458298 121.745091 
" clip-path="url(#pff096da6ff)" style="fill: none; stroke: #595959"/>
   </g>
   <g id="line2d_306">
    <path d="M 816.00633 119.229158 
L 828.951739 119.229158 
" clip-path="url(#pff096da6ff)" style="fill: none; stroke: #595959"/>
   </g>
   <g id="line2d_307">
    <path d="M 834.499771 121.045347 
L 847.445179 121.045347 
" clip-path="url(#pff096da6ff)" style="fill: none; stroke: #595959"/>
   </g>
   <g id="line2d_308">
    <path d="M 852.993212 120.675819 
L 865.93862 120.675819 
" clip-path="url(#pff096da6ff)" style="fill: none; stroke: #595959"/>
   </g>
   <g id="line2d_309">
    <path d="M 871.486652 120.660095 
L 884.432061 120.660095 
" clip-path="url(#pff096da6ff)" style="fill: none; stroke: #595959"/>
   </g>
   <g id="line2d_310">
    <path d="M 889.980093 119.590823 
L 902.925501 119.590823 
" clip-path="url(#pff096da6ff)" style="fill: none; stroke: #595959"/>
   </g>
   <g id="line2d_311">
    <path d="M 908.473533 119.810967 
L 921.418942 119.810967 
" clip-path="url(#pff096da6ff)" style="fill: none; stroke: #595959"/>
   </g>
   <g id="line2d_312">
    <path d="M 926.966974 120.235531 
L 939.912382 120.235531 
" clip-path="url(#pff096da6ff)" style="fill: none; stroke: #595959"/>
   </g>
   <g id="line2d_313">
    <path d="M 945.460415 119.292056 
L 958.405823 119.292056 
" clip-path="url(#pff096da6ff)" style="fill: none; stroke: #595959"/>
   </g>
   <g id="line2d_314">
    <path d="M 963.953855 120.007525 
L 976.899264 120.007525 
" clip-path="url(#pff096da6ff)" style="fill: none; stroke: #595959"/>
   </g>
   <g id="patch_53">
    <path d="M 55.00125 526.5 
L 55.00125 30.58125 
" style="fill: none; stroke: #cccccc; stroke-width: 1.25; stroke-linejoin: miter; stroke-linecap: square"/>
   </g>
   <g id="patch_54">
    <path d="M 988.92 526.5 
L 988.92 30.58125 
" style="fill: none; stroke: #cccccc; stroke-width: 1.25; stroke-linejoin: miter; stroke-linecap: square"/>
   </g>
   <g id="patch_55">
    <path d="M 55.00125 526.5 
L 988.92 526.5 
" style="fill: none; stroke: #cccccc; stroke-width: 1.25; stroke-linejoin: miter; stroke-linecap: square"/>
   </g>
   <g id="patch_56">
    <path d="M 55.00125 30.58125 
L 988.92 30.58125 
" style="fill: none; stroke: #cccccc; stroke-width: 1.25; stroke-linejoin: miter; stroke-linecap: square"/>
   </g>
   <g id="text_17">
    <!-- img-classification - svhn (Accuracy_mean Distribution) -->
    <g style="fill: #262626" transform="translate(312.593125 24.58125) scale(0.16 -0.16)">
     <defs>
      <path id="Arial-BoldMT-69" d="M 459 3769 
L 459 4581 
L 1338 4581 
L 1338 3769 
L 459 3769 
z
M 459 0 
L 459 3319 
L 1338 3319 
L 1338 0 
L 459 0 
z
" transform="scale(0.015625)"/>
      <path id="Arial-BoldMT-6d" d="M 394 3319 
L 1203 3319 
L 1203 2866 
Q 1638 3394 2238 3394 
Q 2556 3394 2790 3262 
Q 3025 3131 3175 2866 
Q 3394 3131 3647 3262 
Q 3900 3394 4188 3394 
Q 4553 3394 4806 3245 
Q 5059 3097 5184 2809 
Q 5275 2597 5275 2122 
L 5275 0 
L 4397 0 
L 4397 1897 
Q 4397 2391 4306 2534 
Q 4184 2722 3931 2722 
Q 3747 2722 3584 2609 
Q 3422 2497 3350 2280 
Q 3278 2063 3278 1594 
L 3278 0 
L 2400 0 
L 2400 1819 
Q 2400 2303 2353 2443 
Q 2306 2584 2207 2653 
Q 2109 2722 1941 2722 
Q 1738 2722 1575 2612 
Q 1413 2503 1342 2297 
Q 1272 2091 1272 1613 
L 1272 0 
L 394 0 
L 394 3319 
z
" transform="scale(0.015625)"/>
      <path id="Arial-BoldMT-67" d="M 378 -219 
L 1381 -341 
Q 1406 -516 1497 -581 
Q 1622 -675 1891 -675 
Q 2234 -675 2406 -572 
Q 2522 -503 2581 -350 
Q 2622 -241 2622 53 
L 2622 538 
Q 2228 0 1628 0 
Q 959 0 569 566 
Q 263 1013 263 1678 
Q 263 2513 664 2953 
Q 1066 3394 1663 3394 
Q 2278 3394 2678 2853 
L 2678 3319 
L 3500 3319 
L 3500 341 
Q 3500 -247 3403 -537 
Q 3306 -828 3131 -993 
Q 2956 -1159 2664 -1253 
Q 2372 -1347 1925 -1347 
Q 1081 -1347 728 -1058 
Q 375 -769 375 -325 
Q 375 -281 378 -219 
z
M 1163 1728 
Q 1163 1200 1367 954 
Q 1572 709 1872 709 
Q 2194 709 2416 961 
Q 2638 1213 2638 1706 
Q 2638 2222 2425 2472 
Q 2213 2722 1888 2722 
Q 1572 2722 1367 2476 
Q 1163 2231 1163 1728 
z
" transform="scale(0.015625)"/>
      <path id="Arial-BoldMT-2d" d="M 359 1222 
L 359 2100 
L 2084 2100 
L 2084 1222 
L 359 1222 
z
" transform="scale(0.015625)"/>
      <path id="Arial-BoldMT-63" d="M 3353 2338 
L 2488 2181 
Q 2444 2441 2289 2572 
Q 2134 2703 1888 2703 
Q 1559 2703 1364 2476 
Q 1169 2250 1169 1719 
Q 1169 1128 1367 884 
Q 1566 641 1900 641 
Q 2150 641 2309 783 
Q 2469 925 2534 1272 
L 3397 1125 
Q 3263 531 2881 228 
Q 2500 -75 1859 -75 
Q 1131 -75 698 384 
Q 266 844 266 1656 
Q 266 2478 700 2936 
Q 1134 3394 1875 3394 
Q 2481 3394 2839 3133 
Q 3197 2872 3353 2338 
z
" transform="scale(0.015625)"/>
      <path id="Arial-BoldMT-6c" d="M 459 0 
L 459 4581 
L 1338 4581 
L 1338 0 
L 459 0 
z
" transform="scale(0.015625)"/>
      <path id="Arial-BoldMT-61" d="M 1116 2306 
L 319 2450 
Q 453 2931 781 3162 
Q 1109 3394 1756 3394 
Q 2344 3394 2631 3255 
Q 2919 3116 3036 2902 
Q 3153 2688 3153 2116 
L 3144 1091 
Q 3144 653 3186 445 
Q 3228 238 3344 0 
L 2475 0 
Q 2441 88 2391 259 
Q 2369 338 2359 363 
Q 2134 144 1878 34 
Q 1622 -75 1331 -75 
Q 819 -75 523 203 
Q 228 481 228 906 
Q 228 1188 362 1408 
Q 497 1628 739 1745 
Q 981 1863 1438 1950 
Q 2053 2066 2291 2166 
L 2291 2253 
Q 2291 2506 2166 2614 
Q 2041 2722 1694 2722 
Q 1459 2722 1328 2630 
Q 1197 2538 1116 2306 
z
M 2291 1594 
Q 2122 1538 1756 1459 
Q 1391 1381 1278 1306 
Q 1106 1184 1106 997 
Q 1106 813 1243 678 
Q 1381 544 1594 544 
Q 1831 544 2047 700 
Q 2206 819 2256 991 
Q 2291 1103 2291 1419 
L 2291 1594 
z
" transform="scale(0.015625)"/>
      <path id="Arial-BoldMT-73" d="M 150 947 
L 1031 1081 
Q 1088 825 1259 692 
Q 1431 559 1741 559 
Q 2081 559 2253 684 
Q 2369 772 2369 919 
Q 2369 1019 2306 1084 
Q 2241 1147 2013 1200 
Q 950 1434 666 1628 
Q 272 1897 272 2375 
Q 272 2806 612 3100 
Q 953 3394 1669 3394 
Q 2350 3394 2681 3172 
Q 3013 2950 3138 2516 
L 2309 2363 
Q 2256 2556 2107 2659 
Q 1959 2763 1684 2763 
Q 1338 2763 1188 2666 
Q 1088 2597 1088 2488 
Q 1088 2394 1175 2328 
Q 1294 2241 1995 2081 
Q 2697 1922 2975 1691 
Q 3250 1456 3250 1038 
Q 3250 581 2869 253 
Q 2488 -75 1741 -75 
Q 1063 -75 667 200 
Q 272 475 150 947 
z
" transform="scale(0.015625)"/>
      <path id="Arial-BoldMT-66" d="M 75 3319 
L 563 3319 
L 563 3569 
Q 563 3988 652 4194 
Q 741 4400 980 4529 
Q 1219 4659 1584 4659 
Q 1959 4659 2319 4547 
L 2200 3934 
Q 1991 3984 1797 3984 
Q 1606 3984 1523 3895 
Q 1441 3806 1441 3553 
L 1441 3319 
L 2097 3319 
L 2097 2628 
L 1441 2628 
L 1441 0 
L 563 0 
L 563 2628 
L 75 2628 
L 75 3319 
z
" transform="scale(0.015625)"/>
      <path id="Arial-BoldMT-74" d="M 1981 3319 
L 1981 2619 
L 1381 2619 
L 1381 1281 
Q 1381 875 1398 808 
Q 1416 741 1477 697 
Q 1538 653 1625 653 
Q 1747 653 1978 738 
L 2053 56 
Q 1747 -75 1359 -75 
Q 1122 -75 931 4 
Q 741 84 652 211 
Q 563 338 528 553 
Q 500 706 500 1172 
L 500 2619 
L 97 2619 
L 97 3319 
L 500 3319 
L 500 3978 
L 1381 4491 
L 1381 3319 
L 1981 3319 
z
" transform="scale(0.015625)"/>
      <path id="Arial-BoldMT-6f" d="M 256 1706 
Q 256 2144 472 2553 
Q 688 2963 1083 3178 
Q 1478 3394 1966 3394 
Q 2719 3394 3200 2905 
Q 3681 2416 3681 1669 
Q 3681 916 3195 420 
Q 2709 -75 1972 -75 
Q 1516 -75 1102 131 
Q 688 338 472 736 
Q 256 1134 256 1706 
z
M 1156 1659 
Q 1156 1166 1390 903 
Q 1625 641 1969 641 
Q 2313 641 2545 903 
Q 2778 1166 2778 1666 
Q 2778 2153 2545 2415 
Q 2313 2678 1969 2678 
Q 1625 2678 1390 2415 
Q 1156 2153 1156 1659 
z
" transform="scale(0.015625)"/>
      <path id="Arial-BoldMT-6e" d="M 3478 0 
L 2600 0 
L 2600 1694 
Q 2600 2231 2544 2389 
Q 2488 2547 2361 2634 
Q 2234 2722 2056 2722 
Q 1828 2722 1647 2597 
Q 1466 2472 1398 2265 
Q 1331 2059 1331 1503 
L 1331 0 
L 453 0 
L 453 3319 
L 1269 3319 
L 1269 2831 
Q 1703 3394 2363 3394 
Q 2653 3394 2893 3289 
Q 3134 3184 3257 3021 
Q 3381 2859 3429 2653 
Q 3478 2447 3478 2063 
L 3478 0 
z
" transform="scale(0.015625)"/>
      <path id="Arial-BoldMT-20" transform="scale(0.015625)"/>
      <path id="Arial-BoldMT-76" d="M 1372 0 
L 34 3319 
L 956 3319 
L 1581 1625 
L 1763 1059 
Q 1834 1275 1853 1344 
Q 1897 1484 1947 1625 
L 2578 3319 
L 3481 3319 
L 2163 0 
L 1372 0 
z
" transform="scale(0.015625)"/>
      <path id="Arial-BoldMT-68" d="M 1334 4581 
L 1334 2897 
Q 1759 3394 2350 3394 
Q 2653 3394 2897 3281 
Q 3141 3169 3264 2994 
Q 3388 2819 3433 2606 
Q 3478 2394 3478 1947 
L 3478 0 
L 2600 0 
L 2600 1753 
Q 2600 2275 2550 2415 
Q 2500 2556 2373 2639 
Q 2247 2722 2056 2722 
Q 1838 2722 1666 2615 
Q 1494 2509 1414 2295 
Q 1334 2081 1334 1663 
L 1334 0 
L 456 0 
L 456 4581 
L 1334 4581 
z
" transform="scale(0.015625)"/>
      <path id="Arial-BoldMT-28" d="M 1916 -1347 
L 1313 -1347 
Q 834 -625 584 153 
Q 334 931 334 1659 
Q 334 2563 644 3369 
Q 913 4069 1325 4659 
L 1925 4659 
Q 1497 3713 1336 3048 
Q 1175 2384 1175 1641 
Q 1175 1128 1270 590 
Q 1366 53 1531 -431 
Q 1641 -750 1916 -1347 
z
" transform="scale(0.015625)"/>
      <path id="Arial-BoldMT-41" d="M 4597 0 
L 3591 0 
L 3191 1041 
L 1359 1041 
L 981 0 
L 0 0 
L 1784 4581 
L 2763 4581 
L 4597 0 
z
M 2894 1813 
L 2263 3513 
L 1644 1813 
L 2894 1813 
z
" transform="scale(0.015625)"/>
      <path id="Arial-BoldMT-75" d="M 2644 0 
L 2644 497 
Q 2463 231 2167 78 
Q 1872 -75 1544 -75 
Q 1209 -75 943 72 
Q 678 219 559 484 
Q 441 750 441 1219 
L 441 3319 
L 1319 3319 
L 1319 1794 
Q 1319 1094 1367 936 
Q 1416 778 1544 686 
Q 1672 594 1869 594 
Q 2094 594 2272 717 
Q 2450 841 2515 1023 
Q 2581 1206 2581 1919 
L 2581 3319 
L 3459 3319 
L 3459 0 
L 2644 0 
z
" transform="scale(0.015625)"/>
      <path id="Arial-BoldMT-72" d="M 1300 0 
L 422 0 
L 422 3319 
L 1238 3319 
L 1238 2847 
Q 1447 3181 1614 3287 
Q 1781 3394 1994 3394 
Q 2294 3394 2572 3228 
L 2300 2463 
Q 2078 2606 1888 2606 
Q 1703 2606 1575 2504 
Q 1447 2403 1373 2137 
Q 1300 1872 1300 1025 
L 1300 0 
z
" transform="scale(0.015625)"/>
      <path id="Arial-BoldMT-79" d="M 44 3319 
L 978 3319 
L 1772 963 
L 2547 3319 
L 3456 3319 
L 2284 125 
L 2075 -453 
Q 1959 -744 1854 -897 
Q 1750 -1050 1614 -1145 
Q 1478 -1241 1279 -1294 
Q 1081 -1347 831 -1347 
Q 578 -1347 334 -1294 
L 256 -606 
Q 463 -647 628 -647 
Q 934 -647 1081 -467 
Q 1228 -288 1306 -9 
L 44 3319 
z
" transform="scale(0.015625)"/>
      <path id="Arial-BoldMT-5f" d="M -59 -1266 
L -59 -697 
L 3591 -697 
L 3591 -1266 
L -59 -1266 
z
" transform="scale(0.015625)"/>
      <path id="Arial-BoldMT-65" d="M 2381 1056 
L 3256 909 
Q 3088 428 2723 176 
Q 2359 -75 1813 -75 
Q 947 -75 531 491 
Q 203 944 203 1634 
Q 203 2459 634 2926 
Q 1066 3394 1725 3394 
Q 2466 3394 2894 2905 
Q 3322 2416 3303 1406 
L 1103 1406 
Q 1113 1016 1316 798 
Q 1519 581 1822 581 
Q 2028 581 2168 693 
Q 2309 806 2381 1056 
z
M 2431 1944 
Q 2422 2325 2234 2523 
Q 2047 2722 1778 2722 
Q 1491 2722 1303 2513 
Q 1116 2303 1119 1944 
L 2431 1944 
z
" transform="scale(0.015625)"/>
      <path id="Arial-BoldMT-44" d="M 463 4581 
L 2153 4581 
Q 2725 4581 3025 4494 
Q 3428 4375 3715 4072 
Q 4003 3769 4153 3330 
Q 4303 2891 4303 2247 
Q 4303 1681 4163 1272 
Q 3991 772 3672 463 
Q 3431 228 3022 97 
Q 2716 0 2203 0 
L 463 0 
L 463 4581 
z
M 1388 3806 
L 1388 772 
L 2078 772 
Q 2466 772 2638 816 
Q 2863 872 3011 1006 
Q 3159 1141 3253 1448 
Q 3347 1756 3347 2288 
Q 3347 2819 3253 3103 
Q 3159 3388 2990 3547 
Q 2822 3706 2563 3763 
Q 2369 3806 1803 3806 
L 1388 3806 
z
" transform="scale(0.015625)"/>
      <path id="Arial-BoldMT-62" d="M 422 0 
L 422 4581 
L 1300 4581 
L 1300 2931 
Q 1706 3394 2263 3394 
Q 2869 3394 3266 2955 
Q 3663 2516 3663 1694 
Q 3663 844 3258 384 
Q 2853 -75 2275 -75 
Q 1991 -75 1714 67 
Q 1438 209 1238 488 
L 1238 0 
L 422 0 
z
M 1294 1731 
Q 1294 1216 1456 969 
Q 1684 619 2063 619 
Q 2353 619 2558 867 
Q 2763 1116 2763 1650 
Q 2763 2219 2556 2470 
Q 2350 2722 2028 2722 
Q 1713 2722 1503 2476 
Q 1294 2231 1294 1731 
z
" transform="scale(0.015625)"/>
      <path id="Arial-BoldMT-29" d="M 216 -1347 
Q 475 -791 581 -494 
Q 688 -197 778 190 
Q 869 578 912 926 
Q 956 1275 956 1641 
Q 956 2384 797 3048 
Q 638 3713 209 4659 
L 806 4659 
Q 1278 3988 1539 3234 
Q 1800 2481 1800 1706 
Q 1800 1053 1594 306 
Q 1359 -531 822 -1347 
L 216 -1347 
z
" transform="scale(0.015625)"/>
     </defs>
     <use xlink:href="#Arial-BoldMT-69"/>
     <use xlink:href="#Arial-BoldMT-6d" transform="translate(27.783203 0)"/>
     <use xlink:href="#Arial-BoldMT-67" transform="translate(116.699219 0)"/>
     <use xlink:href="#Arial-BoldMT-2d" transform="translate(177.783203 0)"/>
     <use xlink:href="#Arial-BoldMT-63" transform="translate(211.083984 0)"/>
     <use xlink:href="#Arial-BoldMT-6c" transform="translate(266.699219 0)"/>
     <use xlink:href="#Arial-BoldMT-61" transform="translate(294.482422 0)"/>
     <use xlink:href="#Arial-BoldMT-73" transform="translate(350.097656 0)"/>
     <use xlink:href="#Arial-BoldMT-73" transform="translate(405.712891 0)"/>
     <use xlink:href="#Arial-BoldMT-69" transform="translate(461.328125 0)"/>
     <use xlink:href="#Arial-BoldMT-66" transform="translate(489.111328 0)"/>
     <use xlink:href="#Arial-BoldMT-69" transform="translate(522.412109 0)"/>
     <use xlink:href="#Arial-BoldMT-63" transform="translate(550.195312 0)"/>
     <use xlink:href="#Arial-BoldMT-61" transform="translate(605.810547 0)"/>
     <use xlink:href="#Arial-BoldMT-74" transform="translate(661.425781 0)"/>
     <use xlink:href="#Arial-BoldMT-69" transform="translate(694.726562 0)"/>
     <use xlink:href="#Arial-BoldMT-6f" transform="translate(722.509766 0)"/>
     <use xlink:href="#Arial-BoldMT-6e" transform="translate(783.59375 0)"/>
     <use xlink:href="#Arial-BoldMT-20" transform="translate(844.677734 0)"/>
     <use xlink:href="#Arial-BoldMT-2d" transform="translate(872.460938 0)"/>
     <use xlink:href="#Arial-BoldMT-20" transform="translate(905.761719 0)"/>
     <use xlink:href="#Arial-BoldMT-73" transform="translate(933.544922 0)"/>
     <use xlink:href="#Arial-BoldMT-76" transform="translate(989.160156 0)"/>
     <use xlink:href="#Arial-BoldMT-68" transform="translate(1044.775391 0)"/>
     <use xlink:href="#Arial-BoldMT-6e" transform="translate(1105.859375 0)"/>
     <use xlink:href="#Arial-BoldMT-20" transform="translate(1166.943359 0)"/>
     <use xlink:href="#Arial-BoldMT-28" transform="translate(1194.726562 0)"/>
     <use xlink:href="#Arial-BoldMT-41" transform="translate(1228.027344 0)"/>
     <use xlink:href="#Arial-BoldMT-63" transform="translate(1300.244141 0)"/>
     <use xlink:href="#Arial-BoldMT-63" transform="translate(1355.859375 0)"/>
     <use xlink:href="#Arial-BoldMT-75" transform="translate(1411.474609 0)"/>
     <use xlink:href="#Arial-BoldMT-72" transform="translate(1472.558594 0)"/>
     <use xlink:href="#Arial-BoldMT-61" transform="translate(1511.474609 0)"/>
     <use xlink:href="#Arial-BoldMT-63" transform="translate(1567.089844 0)"/>
     <use xlink:href="#Arial-BoldMT-79" transform="translate(1622.705078 0)"/>
     <use xlink:href="#Arial-BoldMT-5f" transform="translate(1678.320312 0)"/>
     <use xlink:href="#Arial-BoldMT-6d" transform="translate(1733.935547 0)"/>
     <use xlink:href="#Arial-BoldMT-65" transform="translate(1822.851562 0)"/>
     <use xlink:href="#Arial-BoldMT-61" transform="translate(1878.466797 0)"/>
     <use xlink:href="#Arial-BoldMT-6e" transform="translate(1934.082031 0)"/>
     <use xlink:href="#Arial-BoldMT-20" transform="translate(1995.166016 0)"/>
     <use xlink:href="#Arial-BoldMT-44" transform="translate(2022.949219 0)"/>
     <use xlink:href="#Arial-BoldMT-69" transform="translate(2095.166016 0)"/>
     <use xlink:href="#Arial-BoldMT-73" transform="translate(2122.949219 0)"/>
     <use xlink:href="#Arial-BoldMT-74" transform="translate(2178.564453 0)"/>
     <use xlink:href="#Arial-BoldMT-72" transform="translate(2211.865234 0)"/>
     <use xlink:href="#Arial-BoldMT-69" transform="translate(2250.78125 0)"/>
     <use xlink:href="#Arial-BoldMT-62" transform="translate(2278.564453 0)"/>
     <use xlink:href="#Arial-BoldMT-75" transform="translate(2339.648438 0)"/>
     <use xlink:href="#Arial-BoldMT-74" transform="translate(2400.732422 0)"/>
     <use xlink:href="#Arial-BoldMT-69" transform="translate(2434.033203 0)"/>
     <use xlink:href="#Arial-BoldMT-6f" transform="translate(2461.816406 0)"/>
     <use xlink:href="#Arial-BoldMT-6e" transform="translate(2522.900391 0)"/>
     <use xlink:href="#Arial-BoldMT-29" transform="translate(2583.984375 0)"/>
    </g>
   </g>
  </g>
 </g>
 <defs>
  <clipPath id="pff096da6ff">
   <rect x="55.00125" y="30.58125" width="933.91875" height="495.91875"/>
  </clipPath>
 </defs>
</svg>
