<?xml version="1.0" encoding="utf-8" standalone="no"?>
<!DOCTYPE svg PUBLIC "-//W3C//DTD SVG 1.1//EN"
  "http://www.w3.org/Graphics/SVG/1.1/DTD/svg11.dtd">
<svg xmlns:xlink="http://www.w3.org/1999/xlink" width="1008pt" height="576pt" viewBox="0 0 1008 576" xmlns="http://www.w3.org/2000/svg" version="1.1">
 <metadata>
  <rdf:RDF xmlns:dc="http://purl.org/dc/elements/1.1/" xmlns:cc="http://creativecommons.org/ns#" xmlns:rdf="http://www.w3.org/1999/02/22-rdf-syntax-ns#">
   <cc:Work>
    <dc:type rdf:resource="http://purl.org/dc/dcmitype/StillImage"/>
    <dc:date>2025-03-27T11:55:43.426035</dc:date>
    <dc:format>image/svg+xml</dc:format>
    <dc:creator>
     <cc:Agent>
      <dc:title>Matplotlib v3.10.1, https://matplotlib.org/</dc:title>
     </cc:Agent>
    </dc:creator>
   </cc:Work>
  </rdf:RDF>
 </metadata>
 <defs>
  <style type="text/css">*{stroke-linejoin: round; stroke-linecap: butt}</style>
 </defs>
 <g id="figure_1">
  <g id="patch_1">
   <path d="M 0 576 
L 1008 576 
L 1008 0 
L 0 0 
z
" style="fill: #ffffff"/>
  </g>
  <g id="axes_1">
   <g id="patch_2">
    <path d="M 55.00125 526.5 
L 988.92 526.5 
L 988.92 30.58125 
L 55.00125 30.58125 
z
" style="fill: #ffffff"/>
   </g>
   <g id="matplotlib.axis_1">
    <g id="xtick_1">
     <g id="line2d_1">
      <path d="M 64.24797 526.5 
L 64.24797 30.58125 
" clip-path="url(#p2492bb0a88)" style="fill: none; stroke-dasharray: 3.7,1.6; stroke-dashoffset: 0; stroke: #cccccc; stroke-opacity: 0.5"/>
     </g>
     <g id="text_1">
      <!-- 0 -->
      <g style="fill: #262626" transform="translate(61.189455 543.873594) scale(0.11 -0.11)">
       <defs>
        <path id="ArialMT-30" d="M 266 2259 
Q 266 3072 433 3567 
Q 600 4063 929 4331 
Q 1259 4600 1759 4600 
Q 2128 4600 2406 4451 
Q 2684 4303 2865 4023 
Q 3047 3744 3150 3342 
Q 3253 2941 3253 2259 
Q 3253 1453 3087 958 
Q 2922 463 2592 192 
Q 2263 -78 1759 -78 
Q 1097 -78 719 397 
Q 266 969 266 2259 
z
M 844 2259 
Q 844 1131 1108 757 
Q 1372 384 1759 384 
Q 2147 384 2411 759 
Q 2675 1134 2675 2259 
Q 2675 3391 2411 3762 
Q 2147 4134 1753 4134 
Q 1366 4134 1134 3806 
Q 844 3388 844 2259 
z
" transform="scale(0.015625)"/>
       </defs>
       <use xlink:href="#ArialMT-30"/>
      </g>
     </g>
    </g>
    <g id="xtick_2">
     <g id="line2d_2">
      <path d="M 249.182376 526.5 
L 249.182376 30.58125 
" clip-path="url(#p2492bb0a88)" style="fill: none; stroke-dasharray: 3.7,1.6; stroke-dashoffset: 0; stroke: #cccccc; stroke-opacity: 0.5"/>
     </g>
     <g id="text_2">
      <!-- 10 -->
      <g style="fill: #262626" transform="translate(243.065345 543.873594) scale(0.11 -0.11)">
       <defs>
        <path id="ArialMT-31" d="M 2384 0 
L 1822 0 
L 1822 3584 
Q 1619 3391 1289 3197 
Q 959 3003 697 2906 
L 697 3450 
Q 1169 3672 1522 3987 
Q 1875 4303 2022 4600 
L 2384 4600 
L 2384 0 
z
" transform="scale(0.015625)"/>
       </defs>
       <use xlink:href="#ArialMT-31"/>
       <use xlink:href="#ArialMT-30" transform="translate(55.615234 0)"/>
      </g>
     </g>
    </g>
    <g id="xtick_3">
     <g id="line2d_3">
      <path d="M 434.116782 526.5 
L 434.116782 30.58125 
" clip-path="url(#p2492bb0a88)" style="fill: none; stroke-dasharray: 3.7,1.6; stroke-dashoffset: 0; stroke: #cccccc; stroke-opacity: 0.5"/>
     </g>
     <g id="text_3">
      <!-- 20 -->
      <g style="fill: #262626" transform="translate(427.999751 543.873594) scale(0.11 -0.11)">
       <defs>
        <path id="ArialMT-32" d="M 3222 541 
L 3222 0 
L 194 0 
Q 188 203 259 391 
Q 375 700 629 1000 
Q 884 1300 1366 1694 
Q 2113 2306 2375 2664 
Q 2638 3022 2638 3341 
Q 2638 3675 2398 3904 
Q 2159 4134 1775 4134 
Q 1369 4134 1125 3890 
Q 881 3647 878 3216 
L 300 3275 
Q 359 3922 746 4261 
Q 1134 4600 1788 4600 
Q 2447 4600 2831 4234 
Q 3216 3869 3216 3328 
Q 3216 3053 3103 2787 
Q 2991 2522 2730 2228 
Q 2469 1934 1863 1422 
Q 1356 997 1212 845 
Q 1069 694 975 541 
L 3222 541 
z
" transform="scale(0.015625)"/>
       </defs>
       <use xlink:href="#ArialMT-32"/>
       <use xlink:href="#ArialMT-30" transform="translate(55.615234 0)"/>
      </g>
     </g>
    </g>
    <g id="xtick_4">
     <g id="line2d_4">
      <path d="M 619.051188 526.5 
L 619.051188 30.58125 
" clip-path="url(#p2492bb0a88)" style="fill: none; stroke-dasharray: 3.7,1.6; stroke-dashoffset: 0; stroke: #cccccc; stroke-opacity: 0.5"/>
     </g>
     <g id="text_4">
      <!-- 30 -->
      <g style="fill: #262626" transform="translate(612.934157 543.873594) scale(0.11 -0.11)">
       <defs>
        <path id="ArialMT-33" d="M 269 1209 
L 831 1284 
Q 928 806 1161 595 
Q 1394 384 1728 384 
Q 2125 384 2398 659 
Q 2672 934 2672 1341 
Q 2672 1728 2419 1979 
Q 2166 2231 1775 2231 
Q 1616 2231 1378 2169 
L 1441 2663 
Q 1497 2656 1531 2656 
Q 1891 2656 2178 2843 
Q 2466 3031 2466 3422 
Q 2466 3731 2256 3934 
Q 2047 4138 1716 4138 
Q 1388 4138 1169 3931 
Q 950 3725 888 3313 
L 325 3413 
Q 428 3978 793 4289 
Q 1159 4600 1703 4600 
Q 2078 4600 2393 4439 
Q 2709 4278 2876 4000 
Q 3044 3722 3044 3409 
Q 3044 3113 2884 2869 
Q 2725 2625 2413 2481 
Q 2819 2388 3044 2092 
Q 3269 1797 3269 1353 
Q 3269 753 2831 336 
Q 2394 -81 1725 -81 
Q 1122 -81 723 278 
Q 325 638 269 1209 
z
" transform="scale(0.015625)"/>
       </defs>
       <use xlink:href="#ArialMT-33"/>
       <use xlink:href="#ArialMT-30" transform="translate(55.615234 0)"/>
      </g>
     </g>
    </g>
    <g id="xtick_5">
     <g id="line2d_5">
      <path d="M 803.985594 526.5 
L 803.985594 30.58125 
" clip-path="url(#p2492bb0a88)" style="fill: none; stroke-dasharray: 3.7,1.6; stroke-dashoffset: 0; stroke: #cccccc; stroke-opacity: 0.5"/>
     </g>
     <g id="text_5">
      <!-- 40 -->
      <g style="fill: #262626" transform="translate(797.868563 543.873594) scale(0.11 -0.11)">
       <defs>
        <path id="ArialMT-34" d="M 2069 0 
L 2069 1097 
L 81 1097 
L 81 1613 
L 2172 4581 
L 2631 4581 
L 2631 1613 
L 3250 1613 
L 3250 1097 
L 2631 1097 
L 2631 0 
L 2069 0 
z
M 2069 1613 
L 2069 3678 
L 634 1613 
L 2069 1613 
z
" transform="scale(0.015625)"/>
       </defs>
       <use xlink:href="#ArialMT-34"/>
       <use xlink:href="#ArialMT-30" transform="translate(55.615234 0)"/>
      </g>
     </g>
    </g>
    <g id="xtick_6">
     <g id="line2d_6">
      <path d="M 988.92 526.5 
L 988.92 30.58125 
" clip-path="url(#p2492bb0a88)" style="fill: none; stroke-dasharray: 3.7,1.6; stroke-dashoffset: 0; stroke: #cccccc; stroke-opacity: 0.5"/>
     </g>
     <g id="text_6">
      <!-- 50 -->
      <g style="fill: #262626" transform="translate(982.802969 543.873594) scale(0.11 -0.11)">
       <defs>
        <path id="ArialMT-35" d="M 266 1200 
L 856 1250 
Q 922 819 1161 601 
Q 1400 384 1738 384 
Q 2144 384 2425 690 
Q 2706 997 2706 1503 
Q 2706 1984 2436 2262 
Q 2166 2541 1728 2541 
Q 1456 2541 1237 2417 
Q 1019 2294 894 2097 
L 366 2166 
L 809 4519 
L 3088 4519 
L 3088 3981 
L 1259 3981 
L 1013 2750 
Q 1425 3038 1878 3038 
Q 2478 3038 2890 2622 
Q 3303 2206 3303 1553 
Q 3303 931 2941 478 
Q 2500 -78 1738 -78 
Q 1113 -78 717 272 
Q 322 622 266 1200 
z
" transform="scale(0.015625)"/>
       </defs>
       <use xlink:href="#ArialMT-35"/>
       <use xlink:href="#ArialMT-30" transform="translate(55.615234 0)"/>
      </g>
     </g>
    </g>
    <g id="text_7">
     <!-- Epoch -->
     <g style="fill: #262626" transform="translate(502.113438 560.080781) scale(0.14 -0.14)">
      <defs>
       <path id="ArialMT-45" d="M 506 0 
L 506 4581 
L 3819 4581 
L 3819 4041 
L 1113 4041 
L 1113 2638 
L 3647 2638 
L 3647 2100 
L 1113 2100 
L 1113 541 
L 3925 541 
L 3925 0 
L 506 0 
z
" transform="scale(0.015625)"/>
       <path id="ArialMT-70" d="M 422 -1272 
L 422 3319 
L 934 3319 
L 934 2888 
Q 1116 3141 1344 3267 
Q 1572 3394 1897 3394 
Q 2322 3394 2647 3175 
Q 2972 2956 3137 2557 
Q 3303 2159 3303 1684 
Q 3303 1175 3120 767 
Q 2938 359 2589 142 
Q 2241 -75 1856 -75 
Q 1575 -75 1351 44 
Q 1128 163 984 344 
L 984 -1272 
L 422 -1272 
z
M 931 1641 
Q 931 1000 1190 694 
Q 1450 388 1819 388 
Q 2194 388 2461 705 
Q 2728 1022 2728 1688 
Q 2728 2322 2467 2637 
Q 2206 2953 1844 2953 
Q 1484 2953 1207 2617 
Q 931 2281 931 1641 
z
" transform="scale(0.015625)"/>
       <path id="ArialMT-6f" d="M 213 1659 
Q 213 2581 725 3025 
Q 1153 3394 1769 3394 
Q 2453 3394 2887 2945 
Q 3322 2497 3322 1706 
Q 3322 1066 3130 698 
Q 2938 331 2570 128 
Q 2203 -75 1769 -75 
Q 1072 -75 642 372 
Q 213 819 213 1659 
z
M 791 1659 
Q 791 1022 1069 705 
Q 1347 388 1769 388 
Q 2188 388 2466 706 
Q 2744 1025 2744 1678 
Q 2744 2294 2464 2611 
Q 2184 2928 1769 2928 
Q 1347 2928 1069 2612 
Q 791 2297 791 1659 
z
" transform="scale(0.015625)"/>
       <path id="ArialMT-63" d="M 2588 1216 
L 3141 1144 
Q 3050 572 2676 248 
Q 2303 -75 1759 -75 
Q 1078 -75 664 370 
Q 250 816 250 1647 
Q 250 2184 428 2587 
Q 606 2991 970 3192 
Q 1334 3394 1763 3394 
Q 2303 3394 2647 3120 
Q 2991 2847 3088 2344 
L 2541 2259 
Q 2463 2594 2264 2762 
Q 2066 2931 1784 2931 
Q 1359 2931 1093 2626 
Q 828 2322 828 1663 
Q 828 994 1084 691 
Q 1341 388 1753 388 
Q 2084 388 2306 591 
Q 2528 794 2588 1216 
z
" transform="scale(0.015625)"/>
       <path id="ArialMT-68" d="M 422 0 
L 422 4581 
L 984 4581 
L 984 2938 
Q 1378 3394 1978 3394 
Q 2347 3394 2619 3248 
Q 2891 3103 3008 2847 
Q 3125 2591 3125 2103 
L 3125 0 
L 2563 0 
L 2563 2103 
Q 2563 2525 2380 2717 
Q 2197 2909 1863 2909 
Q 1613 2909 1392 2779 
Q 1172 2650 1078 2428 
Q 984 2206 984 1816 
L 984 0 
L 422 0 
z
" transform="scale(0.015625)"/>
      </defs>
      <use xlink:href="#ArialMT-45"/>
      <use xlink:href="#ArialMT-70" transform="translate(66.699219 0)"/>
      <use xlink:href="#ArialMT-6f" transform="translate(122.314453 0)"/>
      <use xlink:href="#ArialMT-63" transform="translate(177.929688 0)"/>
      <use xlink:href="#ArialMT-68" transform="translate(227.929688 0)"/>
     </g>
    </g>
   </g>
   <g id="matplotlib.axis_2">
    <g id="ytick_1">
     <g id="line2d_7">
      <path d="M 55.00125 522.234867 
L 988.92 522.234867 
" clip-path="url(#p2492bb0a88)" style="fill: none; stroke-dasharray: 3.7,1.6; stroke-dashoffset: 0; stroke: #cccccc; stroke-opacity: 0.5"/>
     </g>
     <g id="text_8">
      <!-- 0.0 -->
      <g style="fill: #262626" transform="translate(30.21125 526.171664) scale(0.11 -0.11)">
       <defs>
        <path id="ArialMT-2e" d="M 581 0 
L 581 641 
L 1222 641 
L 1222 0 
L 581 0 
z
" transform="scale(0.015625)"/>
       </defs>
       <use xlink:href="#ArialMT-30"/>
       <use xlink:href="#ArialMT-2e" transform="translate(55.615234 0)"/>
       <use xlink:href="#ArialMT-30" transform="translate(83.398438 0)"/>
      </g>
     </g>
    </g>
    <g id="ytick_2">
     <g id="line2d_8">
      <path d="M 55.00125 446.79474 
L 988.92 446.79474 
" clip-path="url(#p2492bb0a88)" style="fill: none; stroke-dasharray: 3.7,1.6; stroke-dashoffset: 0; stroke: #cccccc; stroke-opacity: 0.5"/>
     </g>
     <g id="text_9">
      <!-- 0.1 -->
      <g style="fill: #262626" transform="translate(30.21125 450.731537) scale(0.11 -0.11)">
       <use xlink:href="#ArialMT-30"/>
       <use xlink:href="#ArialMT-2e" transform="translate(55.615234 0)"/>
       <use xlink:href="#ArialMT-31" transform="translate(83.398438 0)"/>
      </g>
     </g>
    </g>
    <g id="ytick_3">
     <g id="line2d_9">
      <path d="M 55.00125 371.354613 
L 988.92 371.354613 
" clip-path="url(#p2492bb0a88)" style="fill: none; stroke-dasharray: 3.7,1.6; stroke-dashoffset: 0; stroke: #cccccc; stroke-opacity: 0.5"/>
     </g>
     <g id="text_10">
      <!-- 0.2 -->
      <g style="fill: #262626" transform="translate(30.21125 375.29141) scale(0.11 -0.11)">
       <use xlink:href="#ArialMT-30"/>
       <use xlink:href="#ArialMT-2e" transform="translate(55.615234 0)"/>
       <use xlink:href="#ArialMT-32" transform="translate(83.398438 0)"/>
      </g>
     </g>
    </g>
    <g id="ytick_4">
     <g id="line2d_10">
      <path d="M 55.00125 295.914486 
L 988.92 295.914486 
" clip-path="url(#p2492bb0a88)" style="fill: none; stroke-dasharray: 3.7,1.6; stroke-dashoffset: 0; stroke: #cccccc; stroke-opacity: 0.5"/>
     </g>
     <g id="text_11">
      <!-- 0.3 -->
      <g style="fill: #262626" transform="translate(30.21125 299.851283) scale(0.11 -0.11)">
       <use xlink:href="#ArialMT-30"/>
       <use xlink:href="#ArialMT-2e" transform="translate(55.615234 0)"/>
       <use xlink:href="#ArialMT-33" transform="translate(83.398438 0)"/>
      </g>
     </g>
    </g>
    <g id="ytick_5">
     <g id="line2d_11">
      <path d="M 55.00125 220.474359 
L 988.92 220.474359 
" clip-path="url(#p2492bb0a88)" style="fill: none; stroke-dasharray: 3.7,1.6; stroke-dashoffset: 0; stroke: #cccccc; stroke-opacity: 0.5"/>
     </g>
     <g id="text_12">
      <!-- 0.4 -->
      <g style="fill: #262626" transform="translate(30.21125 224.411156) scale(0.11 -0.11)">
       <use xlink:href="#ArialMT-30"/>
       <use xlink:href="#ArialMT-2e" transform="translate(55.615234 0)"/>
       <use xlink:href="#ArialMT-34" transform="translate(83.398438 0)"/>
      </g>
     </g>
    </g>
    <g id="ytick_6">
     <g id="line2d_12">
      <path d="M 55.00125 145.034233 
L 988.92 145.034233 
" clip-path="url(#p2492bb0a88)" style="fill: none; stroke-dasharray: 3.7,1.6; stroke-dashoffset: 0; stroke: #cccccc; stroke-opacity: 0.5"/>
     </g>
     <g id="text_13">
      <!-- 0.5 -->
      <g style="fill: #262626" transform="translate(30.21125 148.971029) scale(0.11 -0.11)">
       <use xlink:href="#ArialMT-30"/>
       <use xlink:href="#ArialMT-2e" transform="translate(55.615234 0)"/>
       <use xlink:href="#ArialMT-35" transform="translate(83.398438 0)"/>
      </g>
     </g>
    </g>
    <g id="ytick_7">
     <g id="line2d_13">
      <path d="M 55.00125 69.594106 
L 988.92 69.594106 
" clip-path="url(#p2492bb0a88)" style="fill: none; stroke-dasharray: 3.7,1.6; stroke-dashoffset: 0; stroke: #cccccc; stroke-opacity: 0.5"/>
     </g>
     <g id="text_14">
      <!-- 0.6 -->
      <g style="fill: #262626" transform="translate(30.21125 73.530903) scale(0.11 -0.11)">
       <defs>
        <path id="ArialMT-36" d="M 3184 3459 
L 2625 3416 
Q 2550 3747 2413 3897 
Q 2184 4138 1850 4138 
Q 1581 4138 1378 3988 
Q 1113 3794 959 3422 
Q 806 3050 800 2363 
Q 1003 2672 1297 2822 
Q 1591 2972 1913 2972 
Q 2475 2972 2870 2558 
Q 3266 2144 3266 1488 
Q 3266 1056 3080 686 
Q 2894 316 2569 119 
Q 2244 -78 1831 -78 
Q 1128 -78 684 439 
Q 241 956 241 2144 
Q 241 3472 731 4075 
Q 1159 4600 1884 4600 
Q 2425 4600 2770 4297 
Q 3116 3994 3184 3459 
z
M 888 1484 
Q 888 1194 1011 928 
Q 1134 663 1356 523 
Q 1578 384 1822 384 
Q 2178 384 2434 671 
Q 2691 959 2691 1453 
Q 2691 1928 2437 2201 
Q 2184 2475 1800 2475 
Q 1419 2475 1153 2201 
Q 888 1928 888 1484 
z
" transform="scale(0.015625)"/>
       </defs>
       <use xlink:href="#ArialMT-30"/>
       <use xlink:href="#ArialMT-2e" transform="translate(55.615234 0)"/>
       <use xlink:href="#ArialMT-36" transform="translate(83.398438 0)"/>
      </g>
     </g>
    </g>
    <g id="text_15">
     <!-- Accuracy_mean -->
     <g style="fill: #262626" transform="translate(23.264688 328.727344) rotate(-90) scale(0.14 -0.14)">
      <defs>
       <path id="ArialMT-41" d="M -9 0 
L 1750 4581 
L 2403 4581 
L 4278 0 
L 3588 0 
L 3053 1388 
L 1138 1388 
L 634 0 
L -9 0 
z
M 1313 1881 
L 2866 1881 
L 2388 3150 
Q 2169 3728 2063 4100 
Q 1975 3659 1816 3225 
L 1313 1881 
z
" transform="scale(0.015625)"/>
       <path id="ArialMT-75" d="M 2597 0 
L 2597 488 
Q 2209 -75 1544 -75 
Q 1250 -75 995 37 
Q 741 150 617 320 
Q 494 491 444 738 
Q 409 903 409 1263 
L 409 3319 
L 972 3319 
L 972 1478 
Q 972 1038 1006 884 
Q 1059 663 1231 536 
Q 1403 409 1656 409 
Q 1909 409 2131 539 
Q 2353 669 2445 892 
Q 2538 1116 2538 1541 
L 2538 3319 
L 3100 3319 
L 3100 0 
L 2597 0 
z
" transform="scale(0.015625)"/>
       <path id="ArialMT-72" d="M 416 0 
L 416 3319 
L 922 3319 
L 922 2816 
Q 1116 3169 1280 3281 
Q 1444 3394 1641 3394 
Q 1925 3394 2219 3213 
L 2025 2691 
Q 1819 2813 1613 2813 
Q 1428 2813 1281 2702 
Q 1134 2591 1072 2394 
Q 978 2094 978 1738 
L 978 0 
L 416 0 
z
" transform="scale(0.015625)"/>
       <path id="ArialMT-61" d="M 2588 409 
Q 2275 144 1986 34 
Q 1697 -75 1366 -75 
Q 819 -75 525 192 
Q 231 459 231 875 
Q 231 1119 342 1320 
Q 453 1522 633 1644 
Q 813 1766 1038 1828 
Q 1203 1872 1538 1913 
Q 2219 1994 2541 2106 
Q 2544 2222 2544 2253 
Q 2544 2597 2384 2738 
Q 2169 2928 1744 2928 
Q 1347 2928 1158 2789 
Q 969 2650 878 2297 
L 328 2372 
Q 403 2725 575 2942 
Q 747 3159 1072 3276 
Q 1397 3394 1825 3394 
Q 2250 3394 2515 3294 
Q 2781 3194 2906 3042 
Q 3031 2891 3081 2659 
Q 3109 2516 3109 2141 
L 3109 1391 
Q 3109 606 3145 398 
Q 3181 191 3288 0 
L 2700 0 
Q 2613 175 2588 409 
z
M 2541 1666 
Q 2234 1541 1622 1453 
Q 1275 1403 1131 1340 
Q 988 1278 909 1158 
Q 831 1038 831 891 
Q 831 666 1001 516 
Q 1172 366 1500 366 
Q 1825 366 2078 508 
Q 2331 650 2450 897 
Q 2541 1088 2541 1459 
L 2541 1666 
z
" transform="scale(0.015625)"/>
       <path id="ArialMT-79" d="M 397 -1278 
L 334 -750 
Q 519 -800 656 -800 
Q 844 -800 956 -737 
Q 1069 -675 1141 -563 
Q 1194 -478 1313 -144 
Q 1328 -97 1363 -6 
L 103 3319 
L 709 3319 
L 1400 1397 
Q 1534 1031 1641 628 
Q 1738 1016 1872 1384 
L 2581 3319 
L 3144 3319 
L 1881 -56 
Q 1678 -603 1566 -809 
Q 1416 -1088 1222 -1217 
Q 1028 -1347 759 -1347 
Q 597 -1347 397 -1278 
z
" transform="scale(0.015625)"/>
       <path id="ArialMT-5f" d="M -97 -1272 
L -97 -866 
L 3631 -866 
L 3631 -1272 
L -97 -1272 
z
" transform="scale(0.015625)"/>
       <path id="ArialMT-6d" d="M 422 0 
L 422 3319 
L 925 3319 
L 925 2853 
Q 1081 3097 1340 3245 
Q 1600 3394 1931 3394 
Q 2300 3394 2536 3241 
Q 2772 3088 2869 2813 
Q 3263 3394 3894 3394 
Q 4388 3394 4653 3120 
Q 4919 2847 4919 2278 
L 4919 0 
L 4359 0 
L 4359 2091 
Q 4359 2428 4304 2576 
Q 4250 2725 4106 2815 
Q 3963 2906 3769 2906 
Q 3419 2906 3187 2673 
Q 2956 2441 2956 1928 
L 2956 0 
L 2394 0 
L 2394 2156 
Q 2394 2531 2256 2718 
Q 2119 2906 1806 2906 
Q 1569 2906 1367 2781 
Q 1166 2656 1075 2415 
Q 984 2175 984 1722 
L 984 0 
L 422 0 
z
" transform="scale(0.015625)"/>
       <path id="ArialMT-65" d="M 2694 1069 
L 3275 997 
Q 3138 488 2766 206 
Q 2394 -75 1816 -75 
Q 1088 -75 661 373 
Q 234 822 234 1631 
Q 234 2469 665 2931 
Q 1097 3394 1784 3394 
Q 2450 3394 2872 2941 
Q 3294 2488 3294 1666 
Q 3294 1616 3291 1516 
L 816 1516 
Q 847 969 1125 678 
Q 1403 388 1819 388 
Q 2128 388 2347 550 
Q 2566 713 2694 1069 
z
M 847 1978 
L 2700 1978 
Q 2663 2397 2488 2606 
Q 2219 2931 1791 2931 
Q 1403 2931 1139 2672 
Q 875 2413 847 1978 
z
" transform="scale(0.015625)"/>
       <path id="ArialMT-6e" d="M 422 0 
L 422 3319 
L 928 3319 
L 928 2847 
Q 1294 3394 1984 3394 
Q 2284 3394 2536 3286 
Q 2788 3178 2913 3003 
Q 3038 2828 3088 2588 
Q 3119 2431 3119 2041 
L 3119 0 
L 2556 0 
L 2556 2019 
Q 2556 2363 2490 2533 
Q 2425 2703 2258 2804 
Q 2091 2906 1866 2906 
Q 1506 2906 1245 2678 
Q 984 2450 984 1813 
L 984 0 
L 422 0 
z
" transform="scale(0.015625)"/>
      </defs>
      <use xlink:href="#ArialMT-41"/>
      <use xlink:href="#ArialMT-63" transform="translate(66.699219 0)"/>
      <use xlink:href="#ArialMT-63" transform="translate(116.699219 0)"/>
      <use xlink:href="#ArialMT-75" transform="translate(166.699219 0)"/>
      <use xlink:href="#ArialMT-72" transform="translate(222.314453 0)"/>
      <use xlink:href="#ArialMT-61" transform="translate(255.615234 0)"/>
      <use xlink:href="#ArialMT-63" transform="translate(311.230469 0)"/>
      <use xlink:href="#ArialMT-79" transform="translate(361.230469 0)"/>
      <use xlink:href="#ArialMT-5f" transform="translate(411.230469 0)"/>
      <use xlink:href="#ArialMT-6d" transform="translate(466.845703 0)"/>
      <use xlink:href="#ArialMT-65" transform="translate(550.146484 0)"/>
      <use xlink:href="#ArialMT-61" transform="translate(605.761719 0)"/>
      <use xlink:href="#ArialMT-6e" transform="translate(661.376953 0)"/>
     </g>
    </g>
   </g>
   <g id="patch_3">
    <path d="M 57.775266 489.783409 
L 70.720675 489.783409 
L 70.720675 465.385792 
L 57.775266 465.385792 
L 57.775266 489.783409 
z
" clip-path="url(#p2492bb0a88)" style="fill: #72b6a1; stroke: #595959; stroke-linejoin: miter"/>
   </g>
   <g id="line2d_14">
    <path d="M 64.24797 489.783409 
L 64.24797 503.958239 
" clip-path="url(#p2492bb0a88)" style="fill: none; stroke: #595959"/>
   </g>
   <g id="line2d_15">
    <path d="M 64.24797 465.385792 
L 64.24797 430.520628 
" clip-path="url(#p2492bb0a88)" style="fill: none; stroke: #595959"/>
   </g>
   <g id="line2d_16">
    <path d="M 61.011618 503.958239 
L 67.484322 503.958239 
" clip-path="url(#p2492bb0a88)" style="fill: none; stroke: #595959; stroke-linecap: round"/>
   </g>
   <g id="line2d_17">
    <path d="M 61.011618 430.520628 
L 67.484322 430.520628 
" clip-path="url(#p2492bb0a88)" style="fill: none; stroke: #595959; stroke-linecap: round"/>
   </g>
   <g id="line2d_18">
    <defs>
     <path id="m44a856c9bb" d="M 0 3 
C 0.795609 3 1.55874 2.683901 2.12132 2.12132 
C 2.683901 1.55874 3 0.795609 3 0 
C 3 -0.795609 2.683901 -1.55874 2.12132 -2.12132 
C 1.55874 -2.683901 0.795609 -3 0 -3 
C -0.795609 -3 -1.55874 -2.683901 -2.12132 -2.12132 
C -2.683901 -1.55874 -3 -0.795609 -3 0 
C -3 0.795609 -2.683901 1.55874 -2.12132 2.12132 
C -1.55874 2.683901 -0.795609 3 0 3 
z
" style="stroke: #595959"/>
    </defs>
    <g clip-path="url(#p2492bb0a88)">
     <use xlink:href="#m44a856c9bb" x="64.24797" y="417.569235" style="fill-opacity: 0; stroke: #595959"/>
    </g>
   </g>
   <g id="patch_4">
    <path d="M 76.268707 470.04746 
L 89.214115 470.04746 
L 89.214115 422.409354 
L 76.268707 422.409354 
L 76.268707 470.04746 
z
" clip-path="url(#p2492bb0a88)" style="fill: #72b6a1; stroke: #595959; stroke-linejoin: miter"/>
   </g>
   <g id="line2d_19">
    <path d="M 82.741411 470.04746 
L 82.741411 496.004915 
" clip-path="url(#p2492bb0a88)" style="fill: none; stroke: #595959"/>
   </g>
   <g id="line2d_20">
    <path d="M 82.741411 422.409354 
L 82.741411 382.196437 
" clip-path="url(#p2492bb0a88)" style="fill: none; stroke: #595959"/>
   </g>
   <g id="line2d_21">
    <path d="M 79.505059 496.004915 
L 85.977763 496.004915 
" clip-path="url(#p2492bb0a88)" style="fill: none; stroke: #595959; stroke-linecap: round"/>
   </g>
   <g id="line2d_22">
    <path d="M 79.505059 382.196437 
L 85.977763 382.196437 
" clip-path="url(#p2492bb0a88)" style="fill: none; stroke: #595959; stroke-linecap: round"/>
   </g>
   <g id="line2d_23"/>
   <g id="patch_5">
    <path d="M 94.762147 458.281185 
L 107.707556 458.281185 
L 107.707556 389.171303 
L 94.762147 389.171303 
L 94.762147 458.281185 
z
" clip-path="url(#p2492bb0a88)" style="fill: #72b6a1; stroke: #595959; stroke-linejoin: miter"/>
   </g>
   <g id="line2d_24">
    <path d="M 101.234851 458.281185 
L 101.234851 492.012391 
" clip-path="url(#p2492bb0a88)" style="fill: none; stroke: #595959"/>
   </g>
   <g id="line2d_25">
    <path d="M 101.234851 389.171303 
L 101.234851 336.194125 
" clip-path="url(#p2492bb0a88)" style="fill: none; stroke: #595959"/>
   </g>
   <g id="line2d_26">
    <path d="M 97.998499 492.012391 
L 104.471204 492.012391 
" clip-path="url(#p2492bb0a88)" style="fill: none; stroke: #595959; stroke-linecap: round"/>
   </g>
   <g id="line2d_27">
    <path d="M 97.998499 336.194125 
L 104.471204 336.194125 
" clip-path="url(#p2492bb0a88)" style="fill: none; stroke: #595959; stroke-linecap: round"/>
   </g>
   <g id="line2d_28"/>
   <g id="patch_6">
    <path d="M 113.255588 447.893292 
L 126.200996 447.893292 
L 126.200996 363.60854 
L 113.255588 363.60854 
L 113.255588 447.893292 
z
" clip-path="url(#p2492bb0a88)" style="fill: #72b6a1; stroke: #595959; stroke-linejoin: miter"/>
   </g>
   <g id="line2d_29">
    <path d="M 119.728292 447.893292 
L 119.728292 487.050752 
" clip-path="url(#p2492bb0a88)" style="fill: none; stroke: #595959"/>
   </g>
   <g id="line2d_30">
    <path d="M 119.728292 363.60854 
L 119.728292 266.666929 
" clip-path="url(#p2492bb0a88)" style="fill: none; stroke: #595959"/>
   </g>
   <g id="line2d_31">
    <path d="M 116.49194 487.050752 
L 122.964644 487.050752 
" clip-path="url(#p2492bb0a88)" style="fill: none; stroke: #595959; stroke-linecap: round"/>
   </g>
   <g id="line2d_32">
    <path d="M 116.49194 266.666929 
L 122.964644 266.666929 
" clip-path="url(#p2492bb0a88)" style="fill: none; stroke: #595959; stroke-linecap: round"/>
   </g>
   <g id="line2d_33"/>
   <g id="patch_7">
    <path d="M 131.749028 439.175287 
L 144.694437 439.175287 
L 144.694437 345.732051 
L 131.749028 345.732051 
L 131.749028 439.175287 
z
" clip-path="url(#p2492bb0a88)" style="fill: #72b6a1; stroke: #595959; stroke-linejoin: miter"/>
   </g>
   <g id="line2d_34">
    <path d="M 138.221733 439.175287 
L 138.221733 486.226714 
" clip-path="url(#p2492bb0a88)" style="fill: none; stroke: #595959"/>
   </g>
   <g id="line2d_35">
    <path d="M 138.221733 345.732051 
L 138.221733 229.997225 
" clip-path="url(#p2492bb0a88)" style="fill: none; stroke: #595959"/>
   </g>
   <g id="line2d_36">
    <path d="M 134.985381 486.226714 
L 141.458085 486.226714 
" clip-path="url(#p2492bb0a88)" style="fill: none; stroke: #595959; stroke-linecap: round"/>
   </g>
   <g id="line2d_37">
    <path d="M 134.985381 229.997225 
L 141.458085 229.997225 
" clip-path="url(#p2492bb0a88)" style="fill: none; stroke: #595959; stroke-linecap: round"/>
   </g>
   <g id="line2d_38"/>
   <g id="patch_8">
    <path d="M 150.242469 428.563376 
L 163.187877 428.563376 
L 163.187877 300.535194 
L 150.242469 300.535194 
L 150.242469 428.563376 
z
" clip-path="url(#p2492bb0a88)" style="fill: #72b6a1; stroke: #595959; stroke-linejoin: miter"/>
   </g>
   <g id="line2d_39">
    <path d="M 156.715173 428.563376 
L 156.715173 488.73945 
" clip-path="url(#p2492bb0a88)" style="fill: none; stroke: #595959"/>
   </g>
   <g id="line2d_40">
    <path d="M 156.715173 300.535194 
L 156.715173 199.979792 
" clip-path="url(#p2492bb0a88)" style="fill: none; stroke: #595959"/>
   </g>
   <g id="line2d_41">
    <path d="M 153.478821 488.73945 
L 159.951525 488.73945 
" clip-path="url(#p2492bb0a88)" style="fill: none; stroke: #595959; stroke-linecap: round"/>
   </g>
   <g id="line2d_42">
    <path d="M 153.478821 199.979792 
L 159.951525 199.979792 
" clip-path="url(#p2492bb0a88)" style="fill: none; stroke: #595959; stroke-linecap: round"/>
   </g>
   <g id="line2d_43"/>
   <g id="patch_9">
    <path d="M 168.73591 418.793879 
L 181.681318 418.793879 
L 181.681318 287.553205 
L 168.73591 287.553205 
L 168.73591 418.793879 
z
" clip-path="url(#p2492bb0a88)" style="fill: #72b6a1; stroke: #595959; stroke-linejoin: miter"/>
   </g>
   <g id="line2d_44">
    <path d="M 175.208614 418.793879 
L 175.208614 490.587733 
" clip-path="url(#p2492bb0a88)" style="fill: none; stroke: #595959"/>
   </g>
   <g id="line2d_45">
    <path d="M 175.208614 287.553205 
L 175.208614 187.557317 
" clip-path="url(#p2492bb0a88)" style="fill: none; stroke: #595959"/>
   </g>
   <g id="line2d_46">
    <path d="M 171.972262 490.587733 
L 178.444966 490.587733 
" clip-path="url(#p2492bb0a88)" style="fill: none; stroke: #595959; stroke-linecap: round"/>
   </g>
   <g id="line2d_47">
    <path d="M 171.972262 187.557317 
L 178.444966 187.557317 
" clip-path="url(#p2492bb0a88)" style="fill: none; stroke: #595959; stroke-linecap: round"/>
   </g>
   <g id="line2d_48"/>
   <g id="patch_10">
    <path d="M 187.22935 412.293455 
L 200.174759 412.293455 
L 200.174759 279.848883 
L 187.22935 279.848883 
L 187.22935 412.293455 
z
" clip-path="url(#p2492bb0a88)" style="fill: #72b6a1; stroke: #595959; stroke-linejoin: miter"/>
   </g>
   <g id="line2d_49">
    <path d="M 193.702054 412.293455 
L 193.702054 484.552523 
" clip-path="url(#p2492bb0a88)" style="fill: none; stroke: #595959"/>
   </g>
   <g id="line2d_50">
    <path d="M 193.702054 279.848883 
L 193.702054 164.774399 
" clip-path="url(#p2492bb0a88)" style="fill: none; stroke: #595959"/>
   </g>
   <g id="line2d_51">
    <path d="M 190.465702 484.552523 
L 196.938407 484.552523 
" clip-path="url(#p2492bb0a88)" style="fill: none; stroke: #595959; stroke-linecap: round"/>
   </g>
   <g id="line2d_52">
    <path d="M 190.465702 164.774399 
L 196.938407 164.774399 
" clip-path="url(#p2492bb0a88)" style="fill: none; stroke: #595959; stroke-linecap: round"/>
   </g>
   <g id="line2d_53"/>
   <g id="patch_11">
    <path d="M 205.722791 409.35129 
L 218.668199 409.35129 
L 218.668199 269.491582 
L 205.722791 269.491582 
L 205.722791 409.35129 
z
" clip-path="url(#p2492bb0a88)" style="fill: #72b6a1; stroke: #595959; stroke-linejoin: miter"/>
   </g>
   <g id="line2d_54">
    <path d="M 212.195495 409.35129 
L 212.195495 491.379855 
" clip-path="url(#p2492bb0a88)" style="fill: none; stroke: #595959"/>
   </g>
   <g id="line2d_55">
    <path d="M 212.195495 269.491582 
L 212.195495 147.875811 
" clip-path="url(#p2492bb0a88)" style="fill: none; stroke: #595959"/>
   </g>
   <g id="line2d_56">
    <path d="M 208.959143 491.379855 
L 215.431847 491.379855 
" clip-path="url(#p2492bb0a88)" style="fill: none; stroke: #595959; stroke-linecap: round"/>
   </g>
   <g id="line2d_57">
    <path d="M 208.959143 147.875811 
L 215.431847 147.875811 
" clip-path="url(#p2492bb0a88)" style="fill: none; stroke: #595959; stroke-linecap: round"/>
   </g>
   <g id="line2d_58"/>
   <g id="patch_12">
    <path d="M 224.216231 404.479115 
L 237.16164 404.479115 
L 237.16164 265.873599 
L 224.216231 265.873599 
L 224.216231 404.479115 
z
" clip-path="url(#p2492bb0a88)" style="fill: #72b6a1; stroke: #595959; stroke-linejoin: miter"/>
   </g>
   <g id="line2d_59">
    <path d="M 230.688936 404.479115 
L 230.688936 481.006837 
" clip-path="url(#p2492bb0a88)" style="fill: none; stroke: #595959"/>
   </g>
   <g id="line2d_60">
    <path d="M 230.688936 265.873599 
L 230.688936 141.563987 
" clip-path="url(#p2492bb0a88)" style="fill: none; stroke: #595959"/>
   </g>
   <g id="line2d_61">
    <path d="M 227.452584 481.006837 
L 233.925288 481.006837 
" clip-path="url(#p2492bb0a88)" style="fill: none; stroke: #595959; stroke-linecap: round"/>
   </g>
   <g id="line2d_62">
    <path d="M 227.452584 141.563987 
L 233.925288 141.563987 
" clip-path="url(#p2492bb0a88)" style="fill: none; stroke: #595959; stroke-linecap: round"/>
   </g>
   <g id="line2d_63"/>
   <g id="patch_13">
    <path d="M 242.709672 401.42379 
L 255.65508 401.42379 
L 255.65508 256.056953 
L 242.709672 256.056953 
L 242.709672 401.42379 
z
" clip-path="url(#p2492bb0a88)" style="fill: #72b6a1; stroke: #595959; stroke-linejoin: miter"/>
   </g>
   <g id="line2d_64">
    <path d="M 249.182376 401.42379 
L 249.182376 479.158554 
" clip-path="url(#p2492bb0a88)" style="fill: none; stroke: #595959"/>
   </g>
   <g id="line2d_65">
    <path d="M 249.182376 256.056953 
L 249.182376 134.019974 
" clip-path="url(#p2492bb0a88)" style="fill: none; stroke: #595959"/>
   </g>
   <g id="line2d_66">
    <path d="M 245.946024 479.158554 
L 252.418728 479.158554 
" clip-path="url(#p2492bb0a88)" style="fill: none; stroke: #595959; stroke-linecap: round"/>
   </g>
   <g id="line2d_67">
    <path d="M 245.946024 134.019974 
L 252.418728 134.019974 
" clip-path="url(#p2492bb0a88)" style="fill: none; stroke: #595959; stroke-linecap: round"/>
   </g>
   <g id="line2d_68"/>
   <g id="patch_14">
    <path d="M 261.203113 397.324877 
L 274.148521 397.324877 
L 274.148521 253.954059 
L 261.203113 253.954059 
L 261.203113 397.324877 
z
" clip-path="url(#p2492bb0a88)" style="fill: #72b6a1; stroke: #595959; stroke-linejoin: miter"/>
   </g>
   <g id="line2d_69">
    <path d="M 267.675817 397.324877 
L 267.675817 478.555033 
" clip-path="url(#p2492bb0a88)" style="fill: none; stroke: #595959"/>
   </g>
   <g id="line2d_70">
    <path d="M 267.675817 253.954059 
L 267.675817 126.224494 
" clip-path="url(#p2492bb0a88)" style="fill: none; stroke: #595959"/>
   </g>
   <g id="line2d_71">
    <path d="M 264.439465 478.555033 
L 270.912169 478.555033 
" clip-path="url(#p2492bb0a88)" style="fill: none; stroke: #595959; stroke-linecap: round"/>
   </g>
   <g id="line2d_72">
    <path d="M 264.439465 126.224494 
L 270.912169 126.224494 
" clip-path="url(#p2492bb0a88)" style="fill: none; stroke: #595959; stroke-linecap: round"/>
   </g>
   <g id="line2d_73"/>
   <g id="patch_15">
    <path d="M 279.696553 396.010961 
L 292.641962 396.010961 
L 292.641962 249.295631 
L 279.696553 249.295631 
L 279.696553 396.010961 
z
" clip-path="url(#p2492bb0a88)" style="fill: #72b6a1; stroke: #595959; stroke-linejoin: miter"/>
   </g>
   <g id="line2d_74">
    <path d="M 286.169257 396.010961 
L 286.169257 476.51815 
" clip-path="url(#p2492bb0a88)" style="fill: none; stroke: #595959"/>
   </g>
   <g id="line2d_75">
    <path d="M 286.169257 249.295631 
L 286.169257 117.724907 
" clip-path="url(#p2492bb0a88)" style="fill: none; stroke: #595959"/>
   </g>
   <g id="line2d_76">
    <path d="M 282.932905 476.51815 
L 289.40561 476.51815 
" clip-path="url(#p2492bb0a88)" style="fill: none; stroke: #595959; stroke-linecap: round"/>
   </g>
   <g id="line2d_77">
    <path d="M 282.932905 117.724907 
L 289.40561 117.724907 
" clip-path="url(#p2492bb0a88)" style="fill: none; stroke: #595959; stroke-linecap: round"/>
   </g>
   <g id="line2d_78"/>
   <g id="patch_16">
    <path d="M 298.189994 394.376425 
L 311.135402 394.376425 
L 311.135402 250.458666 
L 298.189994 250.458666 
L 298.189994 394.376425 
z
" clip-path="url(#p2492bb0a88)" style="fill: #72b6a1; stroke: #595959; stroke-linejoin: miter"/>
   </g>
   <g id="line2d_79">
    <path d="M 304.662698 394.376425 
L 304.662698 475.197948 
" clip-path="url(#p2492bb0a88)" style="fill: none; stroke: #595959"/>
   </g>
   <g id="line2d_80">
    <path d="M 304.662698 250.458666 
L 304.662698 117.62432 
" clip-path="url(#p2492bb0a88)" style="fill: none; stroke: #595959"/>
   </g>
   <g id="line2d_81">
    <path d="M 301.426346 475.197948 
L 307.89905 475.197948 
" clip-path="url(#p2492bb0a88)" style="fill: none; stroke: #595959; stroke-linecap: round"/>
   </g>
   <g id="line2d_82">
    <path d="M 301.426346 117.62432 
L 307.89905 117.62432 
" clip-path="url(#p2492bb0a88)" style="fill: none; stroke: #595959; stroke-linecap: round"/>
   </g>
   <g id="line2d_83"/>
   <g id="patch_17">
    <path d="M 316.683434 391.251946 
L 329.628843 391.251946 
L 329.628843 247.774255 
L 316.683434 247.774255 
L 316.683434 391.251946 
z
" clip-path="url(#p2492bb0a88)" style="fill: #72b6a1; stroke: #595959; stroke-linejoin: miter"/>
   </g>
   <g id="line2d_84">
    <path d="M 323.156139 391.251946 
L 323.156139 475.160228 
" clip-path="url(#p2492bb0a88)" style="fill: none; stroke: #595959"/>
   </g>
   <g id="line2d_85">
    <path d="M 323.156139 247.774255 
L 323.156139 104.724058 
" clip-path="url(#p2492bb0a88)" style="fill: none; stroke: #595959"/>
   </g>
   <g id="line2d_86">
    <path d="M 319.919787 475.160228 
L 326.392491 475.160228 
" clip-path="url(#p2492bb0a88)" style="fill: none; stroke: #595959; stroke-linecap: round"/>
   </g>
   <g id="line2d_87">
    <path d="M 319.919787 104.724058 
L 326.392491 104.724058 
" clip-path="url(#p2492bb0a88)" style="fill: none; stroke: #595959; stroke-linecap: round"/>
   </g>
   <g id="line2d_88"/>
   <g id="patch_18">
    <path d="M 335.176875 387.863427 
L 348.122283 387.863427 
L 348.122283 243.269851 
L 335.176875 243.269851 
L 335.176875 387.863427 
z
" clip-path="url(#p2492bb0a88)" style="fill: #72b6a1; stroke: #595959; stroke-linejoin: miter"/>
   </g>
   <g id="line2d_89">
    <path d="M 341.649579 387.863427 
L 341.649579 471.463661 
" clip-path="url(#p2492bb0a88)" style="fill: none; stroke: #595959"/>
   </g>
   <g id="line2d_90">
    <path d="M 341.649579 243.269851 
L 341.649579 107.716516 
" clip-path="url(#p2492bb0a88)" style="fill: none; stroke: #595959"/>
   </g>
   <g id="line2d_91">
    <path d="M 338.413227 471.463661 
L 344.885931 471.463661 
" clip-path="url(#p2492bb0a88)" style="fill: none; stroke: #595959; stroke-linecap: round"/>
   </g>
   <g id="line2d_92">
    <path d="M 338.413227 107.716516 
L 344.885931 107.716516 
" clip-path="url(#p2492bb0a88)" style="fill: none; stroke: #595959; stroke-linecap: round"/>
   </g>
   <g id="line2d_93"/>
   <g id="patch_19">
    <path d="M 353.670316 383.839954 
L 366.615724 383.839954 
L 366.615724 240.000779 
L 353.670316 240.000779 
L 353.670316 383.839954 
z
" clip-path="url(#p2492bb0a88)" style="fill: #72b6a1; stroke: #595959; stroke-linejoin: miter"/>
   </g>
   <g id="line2d_94">
    <path d="M 360.14302 383.839954 
L 360.14302 474.556707 
" clip-path="url(#p2492bb0a88)" style="fill: none; stroke: #595959"/>
   </g>
   <g id="line2d_95">
    <path d="M 360.14302 240.000779 
L 360.14302 106.107127 
" clip-path="url(#p2492bb0a88)" style="fill: none; stroke: #595959"/>
   </g>
   <g id="line2d_96">
    <path d="M 356.906668 474.556707 
L 363.379372 474.556707 
" clip-path="url(#p2492bb0a88)" style="fill: none; stroke: #595959; stroke-linecap: round"/>
   </g>
   <g id="line2d_97">
    <path d="M 356.906668 106.107127 
L 363.379372 106.107127 
" clip-path="url(#p2492bb0a88)" style="fill: none; stroke: #595959; stroke-linecap: round"/>
   </g>
   <g id="line2d_98"/>
   <g id="patch_20">
    <path d="M 372.163756 385.776251 
L 385.109165 385.776251 
L 385.109165 230.910244 
L 372.163756 230.910244 
L 372.163756 385.776251 
z
" clip-path="url(#p2492bb0a88)" style="fill: #72b6a1; stroke: #595959; stroke-linejoin: miter"/>
   </g>
   <g id="line2d_99">
    <path d="M 378.63646 385.776251 
L 378.63646 468.257456 
" clip-path="url(#p2492bb0a88)" style="fill: none; stroke: #595959"/>
   </g>
   <g id="line2d_100">
    <path d="M 378.63646 230.910244 
L 378.63646 97.230339 
" clip-path="url(#p2492bb0a88)" style="fill: none; stroke: #595959"/>
   </g>
   <g id="line2d_101">
    <path d="M 375.400108 468.257456 
L 381.872813 468.257456 
" clip-path="url(#p2492bb0a88)" style="fill: none; stroke: #595959; stroke-linecap: round"/>
   </g>
   <g id="line2d_102">
    <path d="M 375.400108 97.230339 
L 381.872813 97.230339 
" clip-path="url(#p2492bb0a88)" style="fill: none; stroke: #595959; stroke-linecap: round"/>
   </g>
   <g id="line2d_103"/>
   <g id="patch_21">
    <path d="M 390.657197 384.254875 
L 403.602605 384.254875 
L 403.602605 229.872942 
L 390.657197 229.872942 
L 390.657197 384.254875 
z
" clip-path="url(#p2492bb0a88)" style="fill: #72b6a1; stroke: #595959; stroke-linejoin: miter"/>
   </g>
   <g id="line2d_104">
    <path d="M 397.129901 384.254875 
L 397.129901 471.312781 
" clip-path="url(#p2492bb0a88)" style="fill: none; stroke: #595959"/>
   </g>
   <g id="line2d_105">
    <path d="M 397.129901 229.872942 
L 397.129901 102.812908 
" clip-path="url(#p2492bb0a88)" style="fill: none; stroke: #595959"/>
   </g>
   <g id="line2d_106">
    <path d="M 393.893549 471.312781 
L 400.366253 471.312781 
" clip-path="url(#p2492bb0a88)" style="fill: none; stroke: #595959; stroke-linecap: round"/>
   </g>
   <g id="line2d_107">
    <path d="M 393.893549 102.812908 
L 400.366253 102.812908 
" clip-path="url(#p2492bb0a88)" style="fill: none; stroke: #595959; stroke-linecap: round"/>
   </g>
   <g id="line2d_108"/>
   <g id="patch_22">
    <path d="M 409.150637 376.635422 
L 422.096046 376.635422 
L 422.096046 228.766487 
L 409.150637 228.766487 
L 409.150637 376.635422 
z
" clip-path="url(#p2492bb0a88)" style="fill: #72b6a1; stroke: #595959; stroke-linejoin: miter"/>
   </g>
   <g id="line2d_109">
    <path d="M 415.623342 376.635422 
L 415.623342 469.615378 
" clip-path="url(#p2492bb0a88)" style="fill: none; stroke: #595959"/>
   </g>
   <g id="line2d_110">
    <path d="M 415.623342 228.766487 
L 415.623342 90.993955 
" clip-path="url(#p2492bb0a88)" style="fill: none; stroke: #595959"/>
   </g>
   <g id="line2d_111">
    <path d="M 412.386989 469.615378 
L 418.859694 469.615378 
" clip-path="url(#p2492bb0a88)" style="fill: none; stroke: #595959; stroke-linecap: round"/>
   </g>
   <g id="line2d_112">
    <path d="M 412.386989 90.993955 
L 418.859694 90.993955 
" clip-path="url(#p2492bb0a88)" style="fill: none; stroke: #595959; stroke-linecap: round"/>
   </g>
   <g id="line2d_113"/>
   <g id="patch_23">
    <path d="M 427.644078 376.748582 
L 440.589486 376.748582 
L 440.589486 227.565731 
L 427.644078 227.565731 
L 427.644078 376.748582 
z
" clip-path="url(#p2492bb0a88)" style="fill: #72b6a1; stroke: #595959; stroke-linejoin: miter"/>
   </g>
   <g id="line2d_114">
    <path d="M 434.116782 376.748582 
L 434.116782 471.539101 
" clip-path="url(#p2492bb0a88)" style="fill: none; stroke: #595959"/>
   </g>
   <g id="line2d_115">
    <path d="M 434.116782 227.565731 
L 434.116782 88.881631 
" clip-path="url(#p2492bb0a88)" style="fill: none; stroke: #595959"/>
   </g>
   <g id="line2d_116">
    <path d="M 430.88043 471.539101 
L 437.353134 471.539101 
" clip-path="url(#p2492bb0a88)" style="fill: none; stroke: #595959; stroke-linecap: round"/>
   </g>
   <g id="line2d_117">
    <path d="M 430.88043 88.881631 
L 437.353134 88.881631 
" clip-path="url(#p2492bb0a88)" style="fill: none; stroke: #595959; stroke-linecap: round"/>
   </g>
   <g id="line2d_118"/>
   <g id="patch_24">
    <path d="M 446.137519 371.467773 
L 459.082927 371.467773 
L 459.082927 228.81678 
L 446.137519 228.81678 
L 446.137519 371.467773 
z
" clip-path="url(#p2492bb0a88)" style="fill: #72b6a1; stroke: #595959; stroke-linejoin: miter"/>
   </g>
   <g id="line2d_119">
    <path d="M 452.610223 371.467773 
L 452.610223 468.710097 
" clip-path="url(#p2492bb0a88)" style="fill: none; stroke: #595959"/>
   </g>
   <g id="line2d_120">
    <path d="M 452.610223 228.81678 
L 452.610223 91.371156 
" clip-path="url(#p2492bb0a88)" style="fill: none; stroke: #595959"/>
   </g>
   <g id="line2d_121">
    <path d="M 449.373871 468.710097 
L 455.846575 468.710097 
" clip-path="url(#p2492bb0a88)" style="fill: none; stroke: #595959; stroke-linecap: round"/>
   </g>
   <g id="line2d_122">
    <path d="M 449.373871 91.371156 
L 455.846575 91.371156 
" clip-path="url(#p2492bb0a88)" style="fill: none; stroke: #595959; stroke-linecap: round"/>
   </g>
   <g id="line2d_123"/>
   <g id="patch_25">
    <path d="M 464.630959 373.749837 
L 477.576368 373.749837 
L 477.576368 225.214514 
L 464.630959 225.214514 
L 464.630959 373.749837 
z
" clip-path="url(#p2492bb0a88)" style="fill: #72b6a1; stroke: #595959; stroke-linejoin: miter"/>
   </g>
   <g id="line2d_124">
    <path d="M 471.103663 373.749837 
L 471.103663 466.974974 
" clip-path="url(#p2492bb0a88)" style="fill: none; stroke: #595959"/>
   </g>
   <g id="line2d_125">
    <path d="M 471.103663 225.214514 
L 471.103663 87.75003 
" clip-path="url(#p2492bb0a88)" style="fill: none; stroke: #595959"/>
   </g>
   <g id="line2d_126">
    <path d="M 467.867311 466.974974 
L 474.340015 466.974974 
" clip-path="url(#p2492bb0a88)" style="fill: none; stroke: #595959; stroke-linecap: round"/>
   </g>
   <g id="line2d_127">
    <path d="M 467.867311 87.75003 
L 474.340015 87.75003 
" clip-path="url(#p2492bb0a88)" style="fill: none; stroke: #595959; stroke-linecap: round"/>
   </g>
   <g id="line2d_128"/>
   <g id="patch_26">
    <path d="M 483.1244 366.469865 
L 496.069808 366.469865 
L 496.069808 226.553576 
L 483.1244 226.553576 
L 483.1244 366.469865 
z
" clip-path="url(#p2492bb0a88)" style="fill: #72b6a1; stroke: #595959; stroke-linejoin: miter"/>
   </g>
   <g id="line2d_129">
    <path d="M 489.597104 366.469865 
L 489.597104 470.4075 
" clip-path="url(#p2492bb0a88)" style="fill: none; stroke: #595959"/>
   </g>
   <g id="line2d_130">
    <path d="M 489.597104 226.553576 
L 489.597104 81.563939 
" clip-path="url(#p2492bb0a88)" style="fill: none; stroke: #595959"/>
   </g>
   <g id="line2d_131">
    <path d="M 486.360752 470.4075 
L 492.833456 470.4075 
" clip-path="url(#p2492bb0a88)" style="fill: none; stroke: #595959; stroke-linecap: round"/>
   </g>
   <g id="line2d_132">
    <path d="M 486.360752 81.563939 
L 492.833456 81.563939 
" clip-path="url(#p2492bb0a88)" style="fill: none; stroke: #595959; stroke-linecap: round"/>
   </g>
   <g id="line2d_133"/>
   <g id="patch_27">
    <path d="M 501.61784 373.580097 
L 514.563249 373.580097 
L 514.563249 220.304619 
L 501.61784 220.304619 
L 501.61784 373.580097 
z
" clip-path="url(#p2492bb0a88)" style="fill: #72b6a1; stroke: #595959; stroke-linejoin: miter"/>
   </g>
   <g id="line2d_134">
    <path d="M 508.090545 373.580097 
L 508.090545 466.371453 
" clip-path="url(#p2492bb0a88)" style="fill: none; stroke: #595959"/>
   </g>
   <g id="line2d_135">
    <path d="M 508.090545 220.304619 
L 508.090545 84.07861 
" clip-path="url(#p2492bb0a88)" style="fill: none; stroke: #595959"/>
   </g>
   <g id="line2d_136">
    <path d="M 504.854192 466.371453 
L 511.326897 466.371453 
" clip-path="url(#p2492bb0a88)" style="fill: none; stroke: #595959; stroke-linecap: round"/>
   </g>
   <g id="line2d_137">
    <path d="M 504.854192 84.07861 
L 511.326897 84.07861 
" clip-path="url(#p2492bb0a88)" style="fill: none; stroke: #595959; stroke-linecap: round"/>
   </g>
   <g id="line2d_138"/>
   <g id="patch_28">
    <path d="M 520.111281 367.695767 
L 533.056689 367.695767 
L 533.056689 217.852815 
L 520.111281 217.852815 
L 520.111281 367.695767 
z
" clip-path="url(#p2492bb0a88)" style="fill: #72b6a1; stroke: #595959; stroke-linejoin: miter"/>
   </g>
   <g id="line2d_139">
    <path d="M 526.583985 367.695767 
L 526.583985 466.635493 
" clip-path="url(#p2492bb0a88)" style="fill: none; stroke: #595959"/>
   </g>
   <g id="line2d_140">
    <path d="M 526.583985 217.852815 
L 526.583985 78.998975 
" clip-path="url(#p2492bb0a88)" style="fill: none; stroke: #595959"/>
   </g>
   <g id="line2d_141">
    <path d="M 523.347633 466.635493 
L 529.820337 466.635493 
" clip-path="url(#p2492bb0a88)" style="fill: none; stroke: #595959; stroke-linecap: round"/>
   </g>
   <g id="line2d_142">
    <path d="M 523.347633 78.998975 
L 529.820337 78.998975 
" clip-path="url(#p2492bb0a88)" style="fill: none; stroke: #595959; stroke-linecap: round"/>
   </g>
   <g id="line2d_143"/>
   <g id="patch_29">
    <path d="M 538.604722 363.169359 
L 551.55013 363.169359 
L 551.55013 213.603021 
L 538.604722 213.603021 
L 538.604722 363.169359 
z
" clip-path="url(#p2492bb0a88)" style="fill: #72b6a1; stroke: #595959; stroke-linejoin: miter"/>
   </g>
   <g id="line2d_144">
    <path d="M 545.077426 363.169359 
L 545.077426 466.031972 
" clip-path="url(#p2492bb0a88)" style="fill: none; stroke: #595959"/>
   </g>
   <g id="line2d_145">
    <path d="M 545.077426 213.603021 
L 545.077426 76.710624 
" clip-path="url(#p2492bb0a88)" style="fill: none; stroke: #595959"/>
   </g>
   <g id="line2d_146">
    <path d="M 541.841074 466.031972 
L 548.313778 466.031972 
" clip-path="url(#p2492bb0a88)" style="fill: none; stroke: #595959; stroke-linecap: round"/>
   </g>
   <g id="line2d_147">
    <path d="M 541.841074 76.710624 
L 548.313778 76.710624 
" clip-path="url(#p2492bb0a88)" style="fill: none; stroke: #595959; stroke-linecap: round"/>
   </g>
   <g id="line2d_148"/>
   <g id="patch_30">
    <path d="M 557.098162 360.717555 
L 570.043571 360.717555 
L 570.043571 215.740491 
L 557.098162 215.740491 
L 557.098162 360.717555 
z
" clip-path="url(#p2492bb0a88)" style="fill: #72b6a1; stroke: #595959; stroke-linejoin: miter"/>
   </g>
   <g id="line2d_149">
    <path d="M 563.570866 360.717555 
L 563.570866 465.353011 
" clip-path="url(#p2492bb0a88)" style="fill: none; stroke: #595959"/>
   </g>
   <g id="line2d_150">
    <path d="M 563.570866 215.740491 
L 563.570866 74.497714 
" clip-path="url(#p2492bb0a88)" style="fill: none; stroke: #595959"/>
   </g>
   <g id="line2d_151">
    <path d="M 560.334514 465.353011 
L 566.807218 465.353011 
" clip-path="url(#p2492bb0a88)" style="fill: none; stroke: #595959; stroke-linecap: round"/>
   </g>
   <g id="line2d_152">
    <path d="M 560.334514 74.497714 
L 566.807218 74.497714 
" clip-path="url(#p2492bb0a88)" style="fill: none; stroke: #595959; stroke-linecap: round"/>
   </g>
   <g id="line2d_153"/>
   <g id="patch_31">
    <path d="M 575.591603 360.943876 
L 588.537011 360.943876 
L 588.537011 213.659601 
L 575.591603 213.659601 
L 575.591603 360.943876 
z
" clip-path="url(#p2492bb0a88)" style="fill: #72b6a1; stroke: #595959; stroke-linejoin: miter"/>
   </g>
   <g id="line2d_154">
    <path d="M 582.064307 360.943876 
L 582.064307 470.332059 
" clip-path="url(#p2492bb0a88)" style="fill: none; stroke: #595959"/>
   </g>
   <g id="line2d_155">
    <path d="M 582.064307 213.659601 
L 582.064307 71.379522 
" clip-path="url(#p2492bb0a88)" style="fill: none; stroke: #595959"/>
   </g>
   <g id="line2d_156">
    <path d="M 578.827955 470.332059 
L 585.300659 470.332059 
" clip-path="url(#p2492bb0a88)" style="fill: none; stroke: #595959; stroke-linecap: round"/>
   </g>
   <g id="line2d_157">
    <path d="M 578.827955 71.379522 
L 585.300659 71.379522 
" clip-path="url(#p2492bb0a88)" style="fill: none; stroke: #595959; stroke-linecap: round"/>
   </g>
   <g id="line2d_158"/>
   <g id="patch_32">
    <path d="M 594.085043 357.66223 
L 607.030452 357.66223 
L 607.030452 210.453396 
L 594.085043 210.453396 
L 594.085043 357.66223 
z
" clip-path="url(#p2492bb0a88)" style="fill: #72b6a1; stroke: #595959; stroke-linejoin: miter"/>
   </g>
   <g id="line2d_159">
    <path d="M 600.557748 357.66223 
L 600.557748 465.579331 
" clip-path="url(#p2492bb0a88)" style="fill: none; stroke: #595959"/>
   </g>
   <g id="line2d_160">
    <path d="M 600.557748 210.453396 
L 600.557748 71.429815 
" clip-path="url(#p2492bb0a88)" style="fill: none; stroke: #595959"/>
   </g>
   <g id="line2d_161">
    <path d="M 597.321395 465.579331 
L 603.7941 465.579331 
" clip-path="url(#p2492bb0a88)" style="fill: none; stroke: #595959; stroke-linecap: round"/>
   </g>
   <g id="line2d_162">
    <path d="M 597.321395 71.429815 
L 603.7941 71.429815 
" clip-path="url(#p2492bb0a88)" style="fill: none; stroke: #595959; stroke-linecap: round"/>
   </g>
   <g id="line2d_163"/>
   <g id="patch_33">
    <path d="M 612.578484 357.71881 
L 625.523892 357.71881 
L 625.523892 207.856998 
L 612.578484 207.856998 
L 612.578484 357.71881 
z
" clip-path="url(#p2492bb0a88)" style="fill: #72b6a1; stroke: #595959; stroke-linejoin: miter"/>
   </g>
   <g id="line2d_164">
    <path d="M 619.051188 357.71881 
L 619.051188 467.314454 
" clip-path="url(#p2492bb0a88)" style="fill: none; stroke: #595959"/>
   </g>
   <g id="line2d_165">
    <path d="M 619.051188 207.856998 
L 619.051188 70.776001 
" clip-path="url(#p2492bb0a88)" style="fill: none; stroke: #595959"/>
   </g>
   <g id="line2d_166">
    <path d="M 615.814836 467.314454 
L 622.28754 467.314454 
" clip-path="url(#p2492bb0a88)" style="fill: none; stroke: #595959; stroke-linecap: round"/>
   </g>
   <g id="line2d_167">
    <path d="M 615.814836 70.776001 
L 622.28754 70.776001 
" clip-path="url(#p2492bb0a88)" style="fill: none; stroke: #595959; stroke-linecap: round"/>
   </g>
   <g id="line2d_168"/>
   <g id="patch_34">
    <path d="M 631.071925 356.285448 
L 644.017333 356.285448 
L 644.017333 206.348196 
L 631.071925 206.348196 
L 631.071925 356.285448 
z
" clip-path="url(#p2492bb0a88)" style="fill: #72b6a1; stroke: #595959; stroke-linejoin: miter"/>
   </g>
   <g id="line2d_169">
    <path d="M 637.544629 356.285448 
L 637.544629 465.164411 
" clip-path="url(#p2492bb0a88)" style="fill: none; stroke: #595959"/>
   </g>
   <g id="line2d_170">
    <path d="M 637.544629 206.348196 
L 637.544629 60.063503 
" clip-path="url(#p2492bb0a88)" style="fill: none; stroke: #595959"/>
   </g>
   <g id="line2d_171">
    <path d="M 634.308277 465.164411 
L 640.780981 465.164411 
" clip-path="url(#p2492bb0a88)" style="fill: none; stroke: #595959; stroke-linecap: round"/>
   </g>
   <g id="line2d_172">
    <path d="M 634.308277 60.063503 
L 640.780981 60.063503 
" clip-path="url(#p2492bb0a88)" style="fill: none; stroke: #595959; stroke-linecap: round"/>
   </g>
   <g id="line2d_173"/>
   <g id="patch_35">
    <path d="M 649.565365 354.022244 
L 662.510774 354.022244 
L 662.510774 205.562361 
L 649.565365 205.562361 
L 649.565365 354.022244 
z
" clip-path="url(#p2492bb0a88)" style="fill: #72b6a1; stroke: #595959; stroke-linejoin: miter"/>
   </g>
   <g id="line2d_174">
    <path d="M 656.038069 354.022244 
L 656.038069 466.824094 
" clip-path="url(#p2492bb0a88)" style="fill: none; stroke: #595959"/>
   </g>
   <g id="line2d_175">
    <path d="M 656.038069 205.562361 
L 656.038069 67.003995 
" clip-path="url(#p2492bb0a88)" style="fill: none; stroke: #595959"/>
   </g>
   <g id="line2d_176">
    <path d="M 652.801717 466.824094 
L 659.274421 466.824094 
" clip-path="url(#p2492bb0a88)" style="fill: none; stroke: #595959; stroke-linecap: round"/>
   </g>
   <g id="line2d_177">
    <path d="M 652.801717 67.003995 
L 659.274421 67.003995 
" clip-path="url(#p2492bb0a88)" style="fill: none; stroke: #595959; stroke-linecap: round"/>
   </g>
   <g id="line2d_178"/>
   <g id="patch_36">
    <path d="M 668.058806 359.340773 
L 681.004214 359.340773 
L 681.004214 204.870826 
L 668.058806 204.870826 
L 668.058806 359.340773 
z
" clip-path="url(#p2492bb0a88)" style="fill: #72b6a1; stroke: #595959; stroke-linejoin: miter"/>
   </g>
   <g id="line2d_179">
    <path d="M 674.53151 359.340773 
L 674.53151 464.82493 
" clip-path="url(#p2492bb0a88)" style="fill: none; stroke: #595959"/>
   </g>
   <g id="line2d_180">
    <path d="M 674.53151 204.870826 
L 674.53151 66.651941 
" clip-path="url(#p2492bb0a88)" style="fill: none; stroke: #595959"/>
   </g>
   <g id="line2d_181">
    <path d="M 671.295158 464.82493 
L 677.767862 464.82493 
" clip-path="url(#p2492bb0a88)" style="fill: none; stroke: #595959; stroke-linecap: round"/>
   </g>
   <g id="line2d_182">
    <path d="M 671.295158 66.651941 
L 677.767862 66.651941 
" clip-path="url(#p2492bb0a88)" style="fill: none; stroke: #595959; stroke-linecap: round"/>
   </g>
   <g id="line2d_183"/>
   <g id="patch_37">
    <path d="M 686.552246 353.852504 
L 699.497655 353.852504 
L 699.497655 196.258079 
L 686.552246 196.258079 
L 686.552246 353.852504 
z
" clip-path="url(#p2492bb0a88)" style="fill: #72b6a1; stroke: #595959; stroke-linejoin: miter"/>
   </g>
   <g id="line2d_184">
    <path d="M 693.02495 353.852504 
L 693.02495 467.427615 
" clip-path="url(#p2492bb0a88)" style="fill: none; stroke: #595959"/>
   </g>
   <g id="line2d_185">
    <path d="M 693.02495 196.258079 
L 693.02495 66.551354 
" clip-path="url(#p2492bb0a88)" style="fill: none; stroke: #595959"/>
   </g>
   <g id="line2d_186">
    <path d="M 689.788598 467.427615 
L 696.261303 467.427615 
" clip-path="url(#p2492bb0a88)" style="fill: none; stroke: #595959; stroke-linecap: round"/>
   </g>
   <g id="line2d_187">
    <path d="M 689.788598 66.551354 
L 696.261303 66.551354 
" clip-path="url(#p2492bb0a88)" style="fill: none; stroke: #595959; stroke-linecap: round"/>
   </g>
   <g id="line2d_188"/>
   <g id="patch_38">
    <path d="M 705.045687 354.927525 
L 717.991095 354.927525 
L 717.991095 199.627738 
L 705.045687 199.627738 
L 705.045687 354.927525 
z
" clip-path="url(#p2492bb0a88)" style="fill: #72b6a1; stroke: #595959; stroke-linejoin: miter"/>
   </g>
   <g id="line2d_189">
    <path d="M 711.518391 354.927525 
L 711.518391 462.561726 
" clip-path="url(#p2492bb0a88)" style="fill: none; stroke: #595959"/>
   </g>
   <g id="line2d_190">
    <path d="M 711.518391 199.627738 
L 711.518391 73.139792 
" clip-path="url(#p2492bb0a88)" style="fill: none; stroke: #595959"/>
   </g>
   <g id="line2d_191">
    <path d="M 708.282039 462.561726 
L 714.754743 462.561726 
" clip-path="url(#p2492bb0a88)" style="fill: none; stroke: #595959; stroke-linecap: round"/>
   </g>
   <g id="line2d_192">
    <path d="M 708.282039 73.139792 
L 714.754743 73.139792 
" clip-path="url(#p2492bb0a88)" style="fill: none; stroke: #595959; stroke-linecap: round"/>
   </g>
   <g id="line2d_193"/>
   <g id="patch_39">
    <path d="M 723.539127 356.021407 
L 736.484536 356.021407 
L 736.484536 194.284062 
L 723.539127 194.284062 
L 723.539127 356.021407 
z
" clip-path="url(#p2492bb0a88)" style="fill: #72b6a1; stroke: #595959; stroke-linejoin: miter"/>
   </g>
   <g id="line2d_194">
    <path d="M 730.011832 356.021407 
L 730.011832 468.332896 
" clip-path="url(#p2492bb0a88)" style="fill: none; stroke: #595959"/>
   </g>
   <g id="line2d_195">
    <path d="M 730.011832 194.284062 
L 730.011832 65.218578 
" clip-path="url(#p2492bb0a88)" style="fill: none; stroke: #595959"/>
   </g>
   <g id="line2d_196">
    <path d="M 726.77548 468.332896 
L 733.248184 468.332896 
" clip-path="url(#p2492bb0a88)" style="fill: none; stroke: #595959; stroke-linecap: round"/>
   </g>
   <g id="line2d_197">
    <path d="M 726.77548 65.218578 
L 733.248184 65.218578 
" clip-path="url(#p2492bb0a88)" style="fill: none; stroke: #595959; stroke-linecap: round"/>
   </g>
   <g id="line2d_198"/>
   <g id="patch_40">
    <path d="M 742.032568 356.417468 
L 754.977976 356.417468 
L 754.977976 183.873325 
L 742.032568 183.873325 
L 742.032568 356.417468 
z
" clip-path="url(#p2492bb0a88)" style="fill: #72b6a1; stroke: #595959; stroke-linejoin: miter"/>
   </g>
   <g id="line2d_199">
    <path d="M 748.505272 356.417468 
L 748.505272 465.01353 
" clip-path="url(#p2492bb0a88)" style="fill: none; stroke: #595959"/>
   </g>
   <g id="line2d_200">
    <path d="M 748.505272 183.873325 
L 748.505272 64.263003 
" clip-path="url(#p2492bb0a88)" style="fill: none; stroke: #595959"/>
   </g>
   <g id="line2d_201">
    <path d="M 745.26892 465.01353 
L 751.741624 465.01353 
" clip-path="url(#p2492bb0a88)" style="fill: none; stroke: #595959; stroke-linecap: round"/>
   </g>
   <g id="line2d_202">
    <path d="M 745.26892 64.263003 
L 751.741624 64.263003 
" clip-path="url(#p2492bb0a88)" style="fill: none; stroke: #595959; stroke-linecap: round"/>
   </g>
   <g id="line2d_203"/>
   <g id="patch_41">
    <path d="M 760.526009 357.75653 
L 773.471417 357.75653 
L 773.471417 193.202754 
L 760.526009 193.202754 
L 760.526009 357.75653 
z
" clip-path="url(#p2492bb0a88)" style="fill: #72b6a1; stroke: #595959; stroke-linejoin: miter"/>
   </g>
   <g id="line2d_204">
    <path d="M 766.998713 357.75653 
L 766.998713 464.183689 
" clip-path="url(#p2492bb0a88)" style="fill: none; stroke: #595959"/>
   </g>
   <g id="line2d_205">
    <path d="M 766.998713 193.202754 
L 766.998713 61.672892 
" clip-path="url(#p2492bb0a88)" style="fill: none; stroke: #595959"/>
   </g>
   <g id="line2d_206">
    <path d="M 763.762361 464.183689 
L 770.235065 464.183689 
" clip-path="url(#p2492bb0a88)" style="fill: none; stroke: #595959; stroke-linecap: round"/>
   </g>
   <g id="line2d_207">
    <path d="M 763.762361 61.672892 
L 770.235065 61.672892 
" clip-path="url(#p2492bb0a88)" style="fill: none; stroke: #595959; stroke-linecap: round"/>
   </g>
   <g id="line2d_208"/>
   <g id="patch_42">
    <path d="M 779.019449 354.474885 
L 791.964858 354.474885 
L 791.964858 198.502422 
L 779.019449 198.502422 
L 779.019449 354.474885 
z
" clip-path="url(#p2492bb0a88)" style="fill: #72b6a1; stroke: #595959; stroke-linejoin: miter"/>
   </g>
   <g id="line2d_209">
    <path d="M 785.492153 354.474885 
L 785.492153 465.353011 
" clip-path="url(#p2492bb0a88)" style="fill: none; stroke: #595959"/>
   </g>
   <g id="line2d_210">
    <path d="M 785.492153 198.502422 
L 785.492153 65.369459 
" clip-path="url(#p2492bb0a88)" style="fill: none; stroke: #595959"/>
   </g>
   <g id="line2d_211">
    <path d="M 782.255801 465.353011 
L 788.728506 465.353011 
" clip-path="url(#p2492bb0a88)" style="fill: none; stroke: #595959; stroke-linecap: round"/>
   </g>
   <g id="line2d_212">
    <path d="M 782.255801 65.369459 
L 788.728506 65.369459 
" clip-path="url(#p2492bb0a88)" style="fill: none; stroke: #595959; stroke-linecap: round"/>
   </g>
   <g id="line2d_213"/>
   <g id="patch_43">
    <path d="M 797.51289 354.267424 
L 810.458298 354.267424 
L 810.458298 190.499482 
L 797.51289 190.499482 
L 797.51289 354.267424 
z
" clip-path="url(#p2492bb0a88)" style="fill: #72b6a1; stroke: #595959; stroke-linejoin: miter"/>
   </g>
   <g id="line2d_214">
    <path d="M 803.985594 354.267424 
L 803.985594 465.843372 
" clip-path="url(#p2492bb0a88)" style="fill: none; stroke: #595959"/>
   </g>
   <g id="line2d_215">
    <path d="M 803.985594 190.499482 
L 803.985594 64.715644 
" clip-path="url(#p2492bb0a88)" style="fill: none; stroke: #595959"/>
   </g>
   <g id="line2d_216">
    <path d="M 800.749242 465.843372 
L 807.221946 465.843372 
" clip-path="url(#p2492bb0a88)" style="fill: none; stroke: #595959; stroke-linecap: round"/>
   </g>
   <g id="line2d_217">
    <path d="M 800.749242 64.715644 
L 807.221946 64.715644 
" clip-path="url(#p2492bb0a88)" style="fill: none; stroke: #595959; stroke-linecap: round"/>
   </g>
   <g id="line2d_218"/>
   <g id="patch_44">
    <path d="M 816.00633 351.6836 
L 828.951739 351.6836 
L 828.951739 183.169217 
L 816.00633 183.169217 
L 816.00633 351.6836 
z
" clip-path="url(#p2492bb0a88)" style="fill: #72b6a1; stroke: #595959; stroke-linejoin: miter"/>
   </g>
   <g id="line2d_219">
    <path d="M 822.479035 351.6836 
L 822.479035 465.466171 
" clip-path="url(#p2492bb0a88)" style="fill: none; stroke: #595959"/>
   </g>
   <g id="line2d_220">
    <path d="M 822.479035 183.169217 
L 822.479035 59.334248 
" clip-path="url(#p2492bb0a88)" style="fill: none; stroke: #595959"/>
   </g>
   <g id="line2d_221">
    <path d="M 819.242683 465.466171 
L 825.715387 465.466171 
" clip-path="url(#p2492bb0a88)" style="fill: none; stroke: #595959; stroke-linecap: round"/>
   </g>
   <g id="line2d_222">
    <path d="M 819.242683 59.334248 
L 825.715387 59.334248 
" clip-path="url(#p2492bb0a88)" style="fill: none; stroke: #595959; stroke-linecap: round"/>
   </g>
   <g id="line2d_223"/>
   <g id="patch_45">
    <path d="M 834.499771 351.6836 
L 847.445179 351.6836 
L 847.445179 177.624367 
L 834.499771 177.624367 
L 834.499771 351.6836 
z
" clip-path="url(#p2492bb0a88)" style="fill: #72b6a1; stroke: #595959; stroke-linejoin: miter"/>
   </g>
   <g id="line2d_224">
    <path d="M 840.972475 351.6836 
L 840.972475 464.74949 
" clip-path="url(#p2492bb0a88)" style="fill: none; stroke: #595959"/>
   </g>
   <g id="line2d_225">
    <path d="M 840.972475 177.624367 
L 840.972475 56.668697 
" clip-path="url(#p2492bb0a88)" style="fill: none; stroke: #595959"/>
   </g>
   <g id="line2d_226">
    <path d="M 837.736123 464.74949 
L 844.208827 464.74949 
" clip-path="url(#p2492bb0a88)" style="fill: none; stroke: #595959; stroke-linecap: round"/>
   </g>
   <g id="line2d_227">
    <path d="M 837.736123 56.668697 
L 844.208827 56.668697 
" clip-path="url(#p2492bb0a88)" style="fill: none; stroke: #595959; stroke-linecap: round"/>
   </g>
   <g id="line2d_228"/>
   <g id="patch_46">
    <path d="M 852.993212 355.323586 
L 865.93862 355.323586 
L 865.93862 181.610121 
L 852.993212 181.610121 
L 852.993212 355.323586 
z
" clip-path="url(#p2492bb0a88)" style="fill: #72b6a1; stroke: #595959; stroke-linejoin: miter"/>
   </g>
   <g id="line2d_229">
    <path d="M 859.465916 355.323586 
L 859.465916 466.786373 
" clip-path="url(#p2492bb0a88)" style="fill: none; stroke: #595959"/>
   </g>
   <g id="line2d_230">
    <path d="M 859.465916 181.610121 
L 859.465916 53.123011 
" clip-path="url(#p2492bb0a88)" style="fill: none; stroke: #595959"/>
   </g>
   <g id="line2d_231">
    <path d="M 856.229564 466.786373 
L 862.702268 466.786373 
" clip-path="url(#p2492bb0a88)" style="fill: none; stroke: #595959; stroke-linecap: round"/>
   </g>
   <g id="line2d_232">
    <path d="M 856.229564 53.123011 
L 862.702268 53.123011 
" clip-path="url(#p2492bb0a88)" style="fill: none; stroke: #595959; stroke-linecap: round"/>
   </g>
   <g id="line2d_233"/>
   <g id="patch_47">
    <path d="M 871.486652 354.889805 
L 884.432061 354.889805 
L 884.432061 185.683888 
L 871.486652 185.683888 
L 871.486652 354.889805 
z
" clip-path="url(#p2492bb0a88)" style="fill: #72b6a1; stroke: #595959; stroke-linejoin: miter"/>
   </g>
   <g id="line2d_234">
    <path d="M 877.959356 354.889805 
L 877.959356 465.692492 
" clip-path="url(#p2492bb0a88)" style="fill: none; stroke: #595959"/>
   </g>
   <g id="line2d_235">
    <path d="M 877.959356 185.683888 
L 877.959356 61.773479 
" clip-path="url(#p2492bb0a88)" style="fill: none; stroke: #595959"/>
   </g>
   <g id="line2d_236">
    <path d="M 874.723004 465.692492 
L 881.195709 465.692492 
" clip-path="url(#p2492bb0a88)" style="fill: none; stroke: #595959; stroke-linecap: round"/>
   </g>
   <g id="line2d_237">
    <path d="M 874.723004 61.773479 
L 881.195709 61.773479 
" clip-path="url(#p2492bb0a88)" style="fill: none; stroke: #595959; stroke-linecap: round"/>
   </g>
   <g id="line2d_238"/>
   <g id="patch_48">
    <path d="M 889.980093 348.892315 
L 902.925501 348.892315 
L 902.925501 174.380442 
L 889.980093 174.380442 
L 889.980093 348.892315 
z
" clip-path="url(#p2492bb0a88)" style="fill: #72b6a1; stroke: #595959; stroke-linejoin: miter"/>
   </g>
   <g id="line2d_239">
    <path d="M 896.452797 348.892315 
L 896.452797 462.825767 
" clip-path="url(#p2492bb0a88)" style="fill: none; stroke: #595959"/>
   </g>
   <g id="line2d_240">
    <path d="M 896.452797 174.380442 
L 896.452797 56.014883 
" clip-path="url(#p2492bb0a88)" style="fill: none; stroke: #595959"/>
   </g>
   <g id="line2d_241">
    <path d="M 893.216445 462.825767 
L 899.689149 462.825767 
" clip-path="url(#p2492bb0a88)" style="fill: none; stroke: #595959; stroke-linecap: round"/>
   </g>
   <g id="line2d_242">
    <path d="M 893.216445 56.014883 
L 899.689149 56.014883 
" clip-path="url(#p2492bb0a88)" style="fill: none; stroke: #595959; stroke-linecap: round"/>
   </g>
   <g id="line2d_243"/>
   <g id="patch_49">
    <path d="M 908.473533 354.229704 
L 921.418942 354.229704 
L 921.418942 179.24633 
L 908.473533 179.24633 
L 908.473533 354.229704 
z
" clip-path="url(#p2492bb0a88)" style="fill: #72b6a1; stroke: #595959; stroke-linejoin: miter"/>
   </g>
   <g id="line2d_244">
    <path d="M 914.946238 354.229704 
L 914.946238 465.881092 
" clip-path="url(#p2492bb0a88)" style="fill: none; stroke: #595959"/>
   </g>
   <g id="line2d_245">
    <path d="M 914.946238 179.24633 
L 914.946238 58.856461 
" clip-path="url(#p2492bb0a88)" style="fill: none; stroke: #595959"/>
   </g>
   <g id="line2d_246">
    <path d="M 911.709886 465.881092 
L 918.18259 465.881092 
" clip-path="url(#p2492bb0a88)" style="fill: none; stroke: #595959; stroke-linecap: round"/>
   </g>
   <g id="line2d_247">
    <path d="M 911.709886 58.856461 
L 918.18259 58.856461 
" clip-path="url(#p2492bb0a88)" style="fill: none; stroke: #595959; stroke-linecap: round"/>
   </g>
   <g id="line2d_248"/>
   <g id="patch_50">
    <path d="M 926.966974 351.60816 
L 939.912382 351.60816 
L 939.912382 175.939538 
L 926.966974 175.939538 
L 926.966974 351.60816 
z
" clip-path="url(#p2492bb0a88)" style="fill: #72b6a1; stroke: #595959; stroke-linejoin: miter"/>
   </g>
   <g id="line2d_249">
    <path d="M 933.439678 351.60816 
L 933.439678 461.128364 
" clip-path="url(#p2492bb0a88)" style="fill: none; stroke: #595959"/>
   </g>
   <g id="line2d_250">
    <path d="M 933.439678 175.939538 
L 933.439678 55.310775 
" clip-path="url(#p2492bb0a88)" style="fill: none; stroke: #595959"/>
   </g>
   <g id="line2d_251">
    <path d="M 930.203326 461.128364 
L 936.67603 461.128364 
" clip-path="url(#p2492bb0a88)" style="fill: none; stroke: #595959; stroke-linecap: round"/>
   </g>
   <g id="line2d_252">
    <path d="M 930.203326 55.310775 
L 936.67603 55.310775 
" clip-path="url(#p2492bb0a88)" style="fill: none; stroke: #595959; stroke-linecap: round"/>
   </g>
   <g id="line2d_253"/>
   <g id="patch_51">
    <path d="M 945.460415 350.948059 
L 958.405823 350.948059 
L 958.405823 172.657892 
L 945.460415 172.657892 
L 945.460415 350.948059 
z
" clip-path="url(#p2492bb0a88)" style="fill: #72b6a1; stroke: #595959; stroke-linejoin: miter"/>
   </g>
   <g id="line2d_254">
    <path d="M 951.933119 350.948059 
L 951.933119 462.788047 
" clip-path="url(#p2492bb0a88)" style="fill: none; stroke: #595959"/>
   </g>
   <g id="line2d_255">
    <path d="M 951.933119 172.657892 
L 951.933119 55.461655 
" clip-path="url(#p2492bb0a88)" style="fill: none; stroke: #595959"/>
   </g>
   <g id="line2d_256">
    <path d="M 948.696767 462.788047 
L 955.169471 462.788047 
" clip-path="url(#p2492bb0a88)" style="fill: none; stroke: #595959; stroke-linecap: round"/>
   </g>
   <g id="line2d_257">
    <path d="M 948.696767 55.461655 
L 955.169471 55.461655 
" clip-path="url(#p2492bb0a88)" style="fill: none; stroke: #595959; stroke-linecap: round"/>
   </g>
   <g id="line2d_258"/>
   <g id="patch_52">
    <path d="M 963.953855 352.305981 
L 976.899264 352.305981 
L 976.899264 180.604252 
L 963.953855 180.604252 
L 963.953855 352.305981 
z
" clip-path="url(#p2492bb0a88)" style="fill: #72b6a1; stroke: #595959; stroke-linejoin: miter"/>
   </g>
   <g id="line2d_259">
    <path d="M 970.426559 352.305981 
L 970.426559 462.109086 
" clip-path="url(#p2492bb0a88)" style="fill: none; stroke: #595959"/>
   </g>
   <g id="line2d_260">
    <path d="M 970.426559 180.604252 
L 970.426559 55.763416 
" clip-path="url(#p2492bb0a88)" style="fill: none; stroke: #595959"/>
   </g>
   <g id="line2d_261">
    <path d="M 967.190207 462.109086 
L 973.662912 462.109086 
" clip-path="url(#p2492bb0a88)" style="fill: none; stroke: #595959; stroke-linecap: round"/>
   </g>
   <g id="line2d_262">
    <path d="M 967.190207 55.763416 
L 973.662912 55.763416 
" clip-path="url(#p2492bb0a88)" style="fill: none; stroke: #595959; stroke-linecap: round"/>
   </g>
   <g id="line2d_263"/>
   <g id="line2d_264">
    <path d="M 57.775266 479.039905 
L 70.720675 479.039905 
" clip-path="url(#p2492bb0a88)" style="fill: none; stroke: #595959"/>
   </g>
   <g id="line2d_265">
    <path d="M 76.268707 448.287826 
L 89.214115 448.287826 
" clip-path="url(#p2492bb0a88)" style="fill: none; stroke: #595959"/>
   </g>
   <g id="line2d_266">
    <path d="M 94.762147 423.908978 
L 107.707556 423.908978 
" clip-path="url(#p2492bb0a88)" style="fill: none; stroke: #595959"/>
   </g>
   <g id="line2d_267">
    <path d="M 113.255588 395.827499 
L 126.200996 395.827499 
" clip-path="url(#p2492bb0a88)" style="fill: none; stroke: #595959"/>
   </g>
   <g id="line2d_268">
    <path d="M 131.749028 375.752144 
L 144.694437 375.752144 
" clip-path="url(#p2492bb0a88)" style="fill: none; stroke: #595959"/>
   </g>
   <g id="line2d_269">
    <path d="M 150.242469 378.974066 
L 163.187877 378.974066 
" clip-path="url(#p2492bb0a88)" style="fill: none; stroke: #595959"/>
   </g>
   <g id="line2d_270">
    <path d="M 168.73591 359.46022 
L 181.681318 359.46022 
" clip-path="url(#p2492bb0a88)" style="fill: none; stroke: #595959"/>
   </g>
   <g id="line2d_271">
    <path d="M 187.22935 372.259895 
L 200.174759 372.259895 
" clip-path="url(#p2492bb0a88)" style="fill: none; stroke: #595959"/>
   </g>
   <g id="line2d_272">
    <path d="M 205.722791 352.922075 
L 218.668199 352.922075 
" clip-path="url(#p2492bb0a88)" style="fill: none; stroke: #595959"/>
   </g>
   <g id="line2d_273">
    <path d="M 224.216231 340.700775 
L 237.16164 340.700775 
" clip-path="url(#p2492bb0a88)" style="fill: none; stroke: #595959"/>
   </g>
   <g id="line2d_274">
    <path d="M 242.709672 339.166826 
L 255.65508 339.166826 
" clip-path="url(#p2492bb0a88)" style="fill: none; stroke: #595959"/>
   </g>
   <g id="line2d_275">
    <path d="M 261.203113 331.572519 
L 274.148521 331.572519 
" clip-path="url(#p2492bb0a88)" style="fill: none; stroke: #595959"/>
   </g>
   <g id="line2d_276">
    <path d="M 279.696553 331.547373 
L 292.641962 331.547373 
" clip-path="url(#p2492bb0a88)" style="fill: none; stroke: #595959"/>
   </g>
   <g id="line2d_277">
    <path d="M 298.189994 329.259022 
L 311.135402 329.259022 
" clip-path="url(#p2492bb0a88)" style="fill: none; stroke: #595959"/>
   </g>
   <g id="line2d_278">
    <path d="M 316.683434 320.407381 
L 329.628843 320.407381 
" clip-path="url(#p2492bb0a88)" style="fill: none; stroke: #595959"/>
   </g>
   <g id="line2d_279">
    <path d="M 335.176875 318.647111 
L 348.122283 318.647111 
" clip-path="url(#p2492bb0a88)" style="fill: none; stroke: #595959"/>
   </g>
   <g id="line2d_280">
    <path d="M 353.670316 319.451806 
L 366.615724 319.451806 
" clip-path="url(#p2492bb0a88)" style="fill: none; stroke: #595959"/>
   </g>
   <g id="line2d_281">
    <path d="M 372.163756 311.492872 
L 385.109165 311.492872 
" clip-path="url(#p2492bb0a88)" style="fill: none; stroke: #595959"/>
   </g>
   <g id="line2d_282">
    <path d="M 390.657197 307.305945 
L 403.602605 307.305945 
" clip-path="url(#p2492bb0a88)" style="fill: none; stroke: #595959"/>
   </g>
   <g id="line2d_283">
    <path d="M 409.150637 305.344502 
L 422.096046 305.344502 
" clip-path="url(#p2492bb0a88)" style="fill: none; stroke: #595959"/>
   </g>
   <g id="line2d_284">
    <path d="M 427.644078 314.271584 
L 440.589486 314.271584 
" clip-path="url(#p2492bb0a88)" style="fill: none; stroke: #595959"/>
   </g>
   <g id="line2d_285">
    <path d="M 446.137519 305.193622 
L 459.082927 305.193622 
" clip-path="url(#p2492bb0a88)" style="fill: none; stroke: #595959"/>
   </g>
   <g id="line2d_286">
    <path d="M 464.630959 307.80888 
L 477.576368 307.80888 
" clip-path="url(#p2492bb0a88)" style="fill: none; stroke: #595959"/>
   </g>
   <g id="line2d_287">
    <path d="M 483.1244 304.917008 
L 496.069808 304.917008 
" clip-path="url(#p2492bb0a88)" style="fill: none; stroke: #595959"/>
   </g>
   <g id="line2d_288">
    <path d="M 501.61784 306.601838 
L 514.563249 306.601838 
" clip-path="url(#p2492bb0a88)" style="fill: none; stroke: #595959"/>
   </g>
   <g id="line2d_289">
    <path d="M 520.111281 303.659673 
L 533.056689 303.659673 
" clip-path="url(#p2492bb0a88)" style="fill: none; stroke: #595959"/>
   </g>
   <g id="line2d_290">
    <path d="M 538.604722 302.829831 
L 551.55013 302.829831 
" clip-path="url(#p2492bb0a88)" style="fill: none; stroke: #595959"/>
   </g>
   <g id="line2d_291">
    <path d="M 557.098162 298.378864 
L 570.043571 298.378864 
" clip-path="url(#p2492bb0a88)" style="fill: none; stroke: #595959"/>
   </g>
   <g id="line2d_292">
    <path d="M 575.591603 297.574169 
L 588.537011 297.574169 
" clip-path="url(#p2492bb0a88)" style="fill: none; stroke: #595959"/>
   </g>
   <g id="line2d_293">
    <path d="M 594.085043 297.423289 
L 607.030452 297.423289 
" clip-path="url(#p2492bb0a88)" style="fill: none; stroke: #595959"/>
   </g>
   <g id="line2d_294">
    <path d="M 612.578484 294.984058 
L 625.523892 294.984058 
" clip-path="url(#p2492bb0a88)" style="fill: none; stroke: #595959"/>
   </g>
   <g id="line2d_295">
    <path d="M 631.071925 296.316834 
L 644.017333 296.316834 
" clip-path="url(#p2492bb0a88)" style="fill: none; stroke: #595959"/>
   </g>
   <g id="line2d_296">
    <path d="M 649.565365 293.274082 
L 662.510774 293.274082 
" clip-path="url(#p2492bb0a88)" style="fill: none; stroke: #595959"/>
   </g>
   <g id="line2d_297">
    <path d="M 668.058806 293.626136 
L 681.004214 293.626136 
" clip-path="url(#p2492bb0a88)" style="fill: none; stroke: #595959"/>
   </g>
   <g id="line2d_298">
    <path d="M 686.552246 291.840719 
L 699.497655 291.840719 
" clip-path="url(#p2492bb0a88)" style="fill: none; stroke: #595959"/>
   </g>
   <g id="line2d_299">
    <path d="M 705.045687 292.695707 
L 717.991095 292.695707 
" clip-path="url(#p2492bb0a88)" style="fill: none; stroke: #595959"/>
   </g>
   <g id="line2d_300">
    <path d="M 723.539127 295.411552 
L 736.484536 295.411552 
" clip-path="url(#p2492bb0a88)" style="fill: none; stroke: #595959"/>
   </g>
   <g id="line2d_301">
    <path d="M 742.032568 293.248935 
L 754.977976 293.248935 
" clip-path="url(#p2492bb0a88)" style="fill: none; stroke: #595959"/>
   </g>
   <g id="line2d_302">
    <path d="M 760.526009 289.854129 
L 773.471417 289.854129 
" clip-path="url(#p2492bb0a88)" style="fill: none; stroke: #595959"/>
   </g>
   <g id="line2d_303">
    <path d="M 779.019449 290.407357 
L 791.964858 290.407357 
" clip-path="url(#p2492bb0a88)" style="fill: none; stroke: #595959"/>
   </g>
   <g id="line2d_304">
    <path d="M 797.51289 288.496207 
L 810.458298 288.496207 
" clip-path="url(#p2492bb0a88)" style="fill: none; stroke: #595959"/>
   </g>
   <g id="line2d_305">
    <path d="M 816.00633 288.672234 
L 828.951739 288.672234 
" clip-path="url(#p2492bb0a88)" style="fill: none; stroke: #595959"/>
   </g>
   <g id="line2d_306">
    <path d="M 834.499771 291.589252 
L 847.445179 291.589252 
" clip-path="url(#p2492bb0a88)" style="fill: none; stroke: #595959"/>
   </g>
   <g id="line2d_307">
    <path d="M 852.993212 290.507944 
L 865.93862 290.507944 
" clip-path="url(#p2492bb0a88)" style="fill: none; stroke: #595959"/>
   </g>
   <g id="line2d_308">
    <path d="M 871.486652 292.117333 
L 884.432061 292.117333 
" clip-path="url(#p2492bb0a88)" style="fill: none; stroke: #595959"/>
   </g>
   <g id="line2d_309">
    <path d="M 889.980093 291.513812 
L 902.925501 291.513812 
" clip-path="url(#p2492bb0a88)" style="fill: none; stroke: #595959"/>
   </g>
   <g id="line2d_310">
    <path d="M 908.473533 287.792099 
L 921.418942 287.792099 
" clip-path="url(#p2492bb0a88)" style="fill: none; stroke: #595959"/>
   </g>
   <g id="line2d_311">
    <path d="M 926.966974 297.775343 
L 939.912382 297.775343 
" clip-path="url(#p2492bb0a88)" style="fill: none; stroke: #595959"/>
   </g>
   <g id="line2d_312">
    <path d="M 945.460415 287.264018 
L 958.405823 287.264018 
" clip-path="url(#p2492bb0a88)" style="fill: none; stroke: #595959"/>
   </g>
   <g id="line2d_313">
    <path d="M 963.953855 290.206183 
L 976.899264 290.206183 
" clip-path="url(#p2492bb0a88)" style="fill: none; stroke: #595959"/>
   </g>
   <g id="patch_53">
    <path d="M 55.00125 526.5 
L 55.00125 30.58125 
" style="fill: none; stroke: #cccccc; stroke-width: 1.25; stroke-linejoin: miter; stroke-linecap: square"/>
   </g>
   <g id="patch_54">
    <path d="M 988.92 526.5 
L 988.92 30.58125 
" style="fill: none; stroke: #cccccc; stroke-width: 1.25; stroke-linejoin: miter; stroke-linecap: square"/>
   </g>
   <g id="patch_55">
    <path d="M 55.00125 526.5 
L 988.92 526.5 
" style="fill: none; stroke: #cccccc; stroke-width: 1.25; stroke-linejoin: miter; stroke-linecap: square"/>
   </g>
   <g id="patch_56">
    <path d="M 55.00125 30.58125 
L 988.92 30.58125 
" style="fill: none; stroke: #cccccc; stroke-width: 1.25; stroke-linejoin: miter; stroke-linecap: square"/>
   </g>
   <g id="text_16">
    <!-- img-classification - cifar-100 (Accuracy_mean Distribution) -->
    <g style="fill: #262626" transform="translate(298.355625 24.58125) scale(0.16 -0.16)">
     <defs>
      <path id="Arial-BoldMT-69" d="M 459 3769 
L 459 4581 
L 1338 4581 
L 1338 3769 
L 459 3769 
z
M 459 0 
L 459 3319 
L 1338 3319 
L 1338 0 
L 459 0 
z
" transform="scale(0.015625)"/>
      <path id="Arial-BoldMT-6d" d="M 394 3319 
L 1203 3319 
L 1203 2866 
Q 1638 3394 2238 3394 
Q 2556 3394 2790 3262 
Q 3025 3131 3175 2866 
Q 3394 3131 3647 3262 
Q 3900 3394 4188 3394 
Q 4553 3394 4806 3245 
Q 5059 3097 5184 2809 
Q 5275 2597 5275 2122 
L 5275 0 
L 4397 0 
L 4397 1897 
Q 4397 2391 4306 2534 
Q 4184 2722 3931 2722 
Q 3747 2722 3584 2609 
Q 3422 2497 3350 2280 
Q 3278 2063 3278 1594 
L 3278 0 
L 2400 0 
L 2400 1819 
Q 2400 2303 2353 2443 
Q 2306 2584 2207 2653 
Q 2109 2722 1941 2722 
Q 1738 2722 1575 2612 
Q 1413 2503 1342 2297 
Q 1272 2091 1272 1613 
L 1272 0 
L 394 0 
L 394 3319 
z
" transform="scale(0.015625)"/>
      <path id="Arial-BoldMT-67" d="M 378 -219 
L 1381 -341 
Q 1406 -516 1497 -581 
Q 1622 -675 1891 -675 
Q 2234 -675 2406 -572 
Q 2522 -503 2581 -350 
Q 2622 -241 2622 53 
L 2622 538 
Q 2228 0 1628 0 
Q 959 0 569 566 
Q 263 1013 263 1678 
Q 263 2513 664 2953 
Q 1066 3394 1663 3394 
Q 2278 3394 2678 2853 
L 2678 3319 
L 3500 3319 
L 3500 341 
Q 3500 -247 3403 -537 
Q 3306 -828 3131 -993 
Q 2956 -1159 2664 -1253 
Q 2372 -1347 1925 -1347 
Q 1081 -1347 728 -1058 
Q 375 -769 375 -325 
Q 375 -281 378 -219 
z
M 1163 1728 
Q 1163 1200 1367 954 
Q 1572 709 1872 709 
Q 2194 709 2416 961 
Q 2638 1213 2638 1706 
Q 2638 2222 2425 2472 
Q 2213 2722 1888 2722 
Q 1572 2722 1367 2476 
Q 1163 2231 1163 1728 
z
" transform="scale(0.015625)"/>
      <path id="Arial-BoldMT-2d" d="M 359 1222 
L 359 2100 
L 2084 2100 
L 2084 1222 
L 359 1222 
z
" transform="scale(0.015625)"/>
      <path id="Arial-BoldMT-63" d="M 3353 2338 
L 2488 2181 
Q 2444 2441 2289 2572 
Q 2134 2703 1888 2703 
Q 1559 2703 1364 2476 
Q 1169 2250 1169 1719 
Q 1169 1128 1367 884 
Q 1566 641 1900 641 
Q 2150 641 2309 783 
Q 2469 925 2534 1272 
L 3397 1125 
Q 3263 531 2881 228 
Q 2500 -75 1859 -75 
Q 1131 -75 698 384 
Q 266 844 266 1656 
Q 266 2478 700 2936 
Q 1134 3394 1875 3394 
Q 2481 3394 2839 3133 
Q 3197 2872 3353 2338 
z
" transform="scale(0.015625)"/>
      <path id="Arial-BoldMT-6c" d="M 459 0 
L 459 4581 
L 1338 4581 
L 1338 0 
L 459 0 
z
" transform="scale(0.015625)"/>
      <path id="Arial-BoldMT-61" d="M 1116 2306 
L 319 2450 
Q 453 2931 781 3162 
Q 1109 3394 1756 3394 
Q 2344 3394 2631 3255 
Q 2919 3116 3036 2902 
Q 3153 2688 3153 2116 
L 3144 1091 
Q 3144 653 3186 445 
Q 3228 238 3344 0 
L 2475 0 
Q 2441 88 2391 259 
Q 2369 338 2359 363 
Q 2134 144 1878 34 
Q 1622 -75 1331 -75 
Q 819 -75 523 203 
Q 228 481 228 906 
Q 228 1188 362 1408 
Q 497 1628 739 1745 
Q 981 1863 1438 1950 
Q 2053 2066 2291 2166 
L 2291 2253 
Q 2291 2506 2166 2614 
Q 2041 2722 1694 2722 
Q 1459 2722 1328 2630 
Q 1197 2538 1116 2306 
z
M 2291 1594 
Q 2122 1538 1756 1459 
Q 1391 1381 1278 1306 
Q 1106 1184 1106 997 
Q 1106 813 1243 678 
Q 1381 544 1594 544 
Q 1831 544 2047 700 
Q 2206 819 2256 991 
Q 2291 1103 2291 1419 
L 2291 1594 
z
" transform="scale(0.015625)"/>
      <path id="Arial-BoldMT-73" d="M 150 947 
L 1031 1081 
Q 1088 825 1259 692 
Q 1431 559 1741 559 
Q 2081 559 2253 684 
Q 2369 772 2369 919 
Q 2369 1019 2306 1084 
Q 2241 1147 2013 1200 
Q 950 1434 666 1628 
Q 272 1897 272 2375 
Q 272 2806 612 3100 
Q 953 3394 1669 3394 
Q 2350 3394 2681 3172 
Q 3013 2950 3138 2516 
L 2309 2363 
Q 2256 2556 2107 2659 
Q 1959 2763 1684 2763 
Q 1338 2763 1188 2666 
Q 1088 2597 1088 2488 
Q 1088 2394 1175 2328 
Q 1294 2241 1995 2081 
Q 2697 1922 2975 1691 
Q 3250 1456 3250 1038 
Q 3250 581 2869 253 
Q 2488 -75 1741 -75 
Q 1063 -75 667 200 
Q 272 475 150 947 
z
" transform="scale(0.015625)"/>
      <path id="Arial-BoldMT-66" d="M 75 3319 
L 563 3319 
L 563 3569 
Q 563 3988 652 4194 
Q 741 4400 980 4529 
Q 1219 4659 1584 4659 
Q 1959 4659 2319 4547 
L 2200 3934 
Q 1991 3984 1797 3984 
Q 1606 3984 1523 3895 
Q 1441 3806 1441 3553 
L 1441 3319 
L 2097 3319 
L 2097 2628 
L 1441 2628 
L 1441 0 
L 563 0 
L 563 2628 
L 75 2628 
L 75 3319 
z
" transform="scale(0.015625)"/>
      <path id="Arial-BoldMT-74" d="M 1981 3319 
L 1981 2619 
L 1381 2619 
L 1381 1281 
Q 1381 875 1398 808 
Q 1416 741 1477 697 
Q 1538 653 1625 653 
Q 1747 653 1978 738 
L 2053 56 
Q 1747 -75 1359 -75 
Q 1122 -75 931 4 
Q 741 84 652 211 
Q 563 338 528 553 
Q 500 706 500 1172 
L 500 2619 
L 97 2619 
L 97 3319 
L 500 3319 
L 500 3978 
L 1381 4491 
L 1381 3319 
L 1981 3319 
z
" transform="scale(0.015625)"/>
      <path id="Arial-BoldMT-6f" d="M 256 1706 
Q 256 2144 472 2553 
Q 688 2963 1083 3178 
Q 1478 3394 1966 3394 
Q 2719 3394 3200 2905 
Q 3681 2416 3681 1669 
Q 3681 916 3195 420 
Q 2709 -75 1972 -75 
Q 1516 -75 1102 131 
Q 688 338 472 736 
Q 256 1134 256 1706 
z
M 1156 1659 
Q 1156 1166 1390 903 
Q 1625 641 1969 641 
Q 2313 641 2545 903 
Q 2778 1166 2778 1666 
Q 2778 2153 2545 2415 
Q 2313 2678 1969 2678 
Q 1625 2678 1390 2415 
Q 1156 2153 1156 1659 
z
" transform="scale(0.015625)"/>
      <path id="Arial-BoldMT-6e" d="M 3478 0 
L 2600 0 
L 2600 1694 
Q 2600 2231 2544 2389 
Q 2488 2547 2361 2634 
Q 2234 2722 2056 2722 
Q 1828 2722 1647 2597 
Q 1466 2472 1398 2265 
Q 1331 2059 1331 1503 
L 1331 0 
L 453 0 
L 453 3319 
L 1269 3319 
L 1269 2831 
Q 1703 3394 2363 3394 
Q 2653 3394 2893 3289 
Q 3134 3184 3257 3021 
Q 3381 2859 3429 2653 
Q 3478 2447 3478 2063 
L 3478 0 
z
" transform="scale(0.015625)"/>
      <path id="Arial-BoldMT-20" transform="scale(0.015625)"/>
      <path id="Arial-BoldMT-72" d="M 1300 0 
L 422 0 
L 422 3319 
L 1238 3319 
L 1238 2847 
Q 1447 3181 1614 3287 
Q 1781 3394 1994 3394 
Q 2294 3394 2572 3228 
L 2300 2463 
Q 2078 2606 1888 2606 
Q 1703 2606 1575 2504 
Q 1447 2403 1373 2137 
Q 1300 1872 1300 1025 
L 1300 0 
z
" transform="scale(0.015625)"/>
      <path id="Arial-BoldMT-31" d="M 2519 0 
L 1641 0 
L 1641 3309 
Q 1159 2859 506 2644 
L 506 3441 
Q 850 3553 1253 3867 
Q 1656 4181 1806 4600 
L 2519 4600 
L 2519 0 
z
" transform="scale(0.015625)"/>
      <path id="Arial-BoldMT-30" d="M 1756 4600 
Q 2422 4600 2797 4125 
Q 3244 3563 3244 2259 
Q 3244 959 2794 391 
Q 2422 -78 1756 -78 
Q 1088 -78 678 436 
Q 269 950 269 2269 
Q 269 3563 719 4131 
Q 1091 4600 1756 4600 
z
M 1756 3872 
Q 1597 3872 1472 3770 
Q 1347 3669 1278 3406 
Q 1188 3066 1188 2259 
Q 1188 1453 1269 1151 
Q 1350 850 1473 750 
Q 1597 650 1756 650 
Q 1916 650 2041 751 
Q 2166 853 2234 1116 
Q 2325 1453 2325 2259 
Q 2325 3066 2244 3367 
Q 2163 3669 2039 3770 
Q 1916 3872 1756 3872 
z
" transform="scale(0.015625)"/>
      <path id="Arial-BoldMT-28" d="M 1916 -1347 
L 1313 -1347 
Q 834 -625 584 153 
Q 334 931 334 1659 
Q 334 2563 644 3369 
Q 913 4069 1325 4659 
L 1925 4659 
Q 1497 3713 1336 3048 
Q 1175 2384 1175 1641 
Q 1175 1128 1270 590 
Q 1366 53 1531 -431 
Q 1641 -750 1916 -1347 
z
" transform="scale(0.015625)"/>
      <path id="Arial-BoldMT-41" d="M 4597 0 
L 3591 0 
L 3191 1041 
L 1359 1041 
L 981 0 
L 0 0 
L 1784 4581 
L 2763 4581 
L 4597 0 
z
M 2894 1813 
L 2263 3513 
L 1644 1813 
L 2894 1813 
z
" transform="scale(0.015625)"/>
      <path id="Arial-BoldMT-75" d="M 2644 0 
L 2644 497 
Q 2463 231 2167 78 
Q 1872 -75 1544 -75 
Q 1209 -75 943 72 
Q 678 219 559 484 
Q 441 750 441 1219 
L 441 3319 
L 1319 3319 
L 1319 1794 
Q 1319 1094 1367 936 
Q 1416 778 1544 686 
Q 1672 594 1869 594 
Q 2094 594 2272 717 
Q 2450 841 2515 1023 
Q 2581 1206 2581 1919 
L 2581 3319 
L 3459 3319 
L 3459 0 
L 2644 0 
z
" transform="scale(0.015625)"/>
      <path id="Arial-BoldMT-79" d="M 44 3319 
L 978 3319 
L 1772 963 
L 2547 3319 
L 3456 3319 
L 2284 125 
L 2075 -453 
Q 1959 -744 1854 -897 
Q 1750 -1050 1614 -1145 
Q 1478 -1241 1279 -1294 
Q 1081 -1347 831 -1347 
Q 578 -1347 334 -1294 
L 256 -606 
Q 463 -647 628 -647 
Q 934 -647 1081 -467 
Q 1228 -288 1306 -9 
L 44 3319 
z
" transform="scale(0.015625)"/>
      <path id="Arial-BoldMT-5f" d="M -59 -1266 
L -59 -697 
L 3591 -697 
L 3591 -1266 
L -59 -1266 
z
" transform="scale(0.015625)"/>
      <path id="Arial-BoldMT-65" d="M 2381 1056 
L 3256 909 
Q 3088 428 2723 176 
Q 2359 -75 1813 -75 
Q 947 -75 531 491 
Q 203 944 203 1634 
Q 203 2459 634 2926 
Q 1066 3394 1725 3394 
Q 2466 3394 2894 2905 
Q 3322 2416 3303 1406 
L 1103 1406 
Q 1113 1016 1316 798 
Q 1519 581 1822 581 
Q 2028 581 2168 693 
Q 2309 806 2381 1056 
z
M 2431 1944 
Q 2422 2325 2234 2523 
Q 2047 2722 1778 2722 
Q 1491 2722 1303 2513 
Q 1116 2303 1119 1944 
L 2431 1944 
z
" transform="scale(0.015625)"/>
      <path id="Arial-BoldMT-44" d="M 463 4581 
L 2153 4581 
Q 2725 4581 3025 4494 
Q 3428 4375 3715 4072 
Q 4003 3769 4153 3330 
Q 4303 2891 4303 2247 
Q 4303 1681 4163 1272 
Q 3991 772 3672 463 
Q 3431 228 3022 97 
Q 2716 0 2203 0 
L 463 0 
L 463 4581 
z
M 1388 3806 
L 1388 772 
L 2078 772 
Q 2466 772 2638 816 
Q 2863 872 3011 1006 
Q 3159 1141 3253 1448 
Q 3347 1756 3347 2288 
Q 3347 2819 3253 3103 
Q 3159 3388 2990 3547 
Q 2822 3706 2563 3763 
Q 2369 3806 1803 3806 
L 1388 3806 
z
" transform="scale(0.015625)"/>
      <path id="Arial-BoldMT-62" d="M 422 0 
L 422 4581 
L 1300 4581 
L 1300 2931 
Q 1706 3394 2263 3394 
Q 2869 3394 3266 2955 
Q 3663 2516 3663 1694 
Q 3663 844 3258 384 
Q 2853 -75 2275 -75 
Q 1991 -75 1714 67 
Q 1438 209 1238 488 
L 1238 0 
L 422 0 
z
M 1294 1731 
Q 1294 1216 1456 969 
Q 1684 619 2063 619 
Q 2353 619 2558 867 
Q 2763 1116 2763 1650 
Q 2763 2219 2556 2470 
Q 2350 2722 2028 2722 
Q 1713 2722 1503 2476 
Q 1294 2231 1294 1731 
z
" transform="scale(0.015625)"/>
      <path id="Arial-BoldMT-29" d="M 216 -1347 
Q 475 -791 581 -494 
Q 688 -197 778 190 
Q 869 578 912 926 
Q 956 1275 956 1641 
Q 956 2384 797 3048 
Q 638 3713 209 4659 
L 806 4659 
Q 1278 3988 1539 3234 
Q 1800 2481 1800 1706 
Q 1800 1053 1594 306 
Q 1359 -531 822 -1347 
L 216 -1347 
z
" transform="scale(0.015625)"/>
     </defs>
     <use xlink:href="#Arial-BoldMT-69"/>
     <use xlink:href="#Arial-BoldMT-6d" transform="translate(27.783203 0)"/>
     <use xlink:href="#Arial-BoldMT-67" transform="translate(116.699219 0)"/>
     <use xlink:href="#Arial-BoldMT-2d" transform="translate(177.783203 0)"/>
     <use xlink:href="#Arial-BoldMT-63" transform="translate(211.083984 0)"/>
     <use xlink:href="#Arial-BoldMT-6c" transform="translate(266.699219 0)"/>
     <use xlink:href="#Arial-BoldMT-61" transform="translate(294.482422 0)"/>
     <use xlink:href="#Arial-BoldMT-73" transform="translate(350.097656 0)"/>
     <use xlink:href="#Arial-BoldMT-73" transform="translate(405.712891 0)"/>
     <use xlink:href="#Arial-BoldMT-69" transform="translate(461.328125 0)"/>
     <use xlink:href="#Arial-BoldMT-66" transform="translate(489.111328 0)"/>
     <use xlink:href="#Arial-BoldMT-69" transform="translate(522.412109 0)"/>
     <use xlink:href="#Arial-BoldMT-63" transform="translate(550.195312 0)"/>
     <use xlink:href="#Arial-BoldMT-61" transform="translate(605.810547 0)"/>
     <use xlink:href="#Arial-BoldMT-74" transform="translate(661.425781 0)"/>
     <use xlink:href="#Arial-BoldMT-69" transform="translate(694.726562 0)"/>
     <use xlink:href="#Arial-BoldMT-6f" transform="translate(722.509766 0)"/>
     <use xlink:href="#Arial-BoldMT-6e" transform="translate(783.59375 0)"/>
     <use xlink:href="#Arial-BoldMT-20" transform="translate(844.677734 0)"/>
     <use xlink:href="#Arial-BoldMT-2d" transform="translate(872.460938 0)"/>
     <use xlink:href="#Arial-BoldMT-20" transform="translate(905.761719 0)"/>
     <use xlink:href="#Arial-BoldMT-63" transform="translate(933.544922 0)"/>
     <use xlink:href="#Arial-BoldMT-69" transform="translate(989.160156 0)"/>
     <use xlink:href="#Arial-BoldMT-66" transform="translate(1016.943359 0)"/>
     <use xlink:href="#Arial-BoldMT-61" transform="translate(1050.244141 0)"/>
     <use xlink:href="#Arial-BoldMT-72" transform="translate(1105.859375 0)"/>
     <use xlink:href="#Arial-BoldMT-2d" transform="translate(1144.775391 0)"/>
     <use xlink:href="#Arial-BoldMT-31" transform="translate(1178.076172 0)"/>
     <use xlink:href="#Arial-BoldMT-30" transform="translate(1233.691406 0)"/>
     <use xlink:href="#Arial-BoldMT-30" transform="translate(1289.306641 0)"/>
     <use xlink:href="#Arial-BoldMT-20" transform="translate(1344.921875 0)"/>
     <use xlink:href="#Arial-BoldMT-28" transform="translate(1372.705078 0)"/>
     <use xlink:href="#Arial-BoldMT-41" transform="translate(1406.005859 0)"/>
     <use xlink:href="#Arial-BoldMT-63" transform="translate(1478.222656 0)"/>
     <use xlink:href="#Arial-BoldMT-63" transform="translate(1533.837891 0)"/>
     <use xlink:href="#Arial-BoldMT-75" transform="translate(1589.453125 0)"/>
     <use xlink:href="#Arial-BoldMT-72" transform="translate(1650.537109 0)"/>
     <use xlink:href="#Arial-BoldMT-61" transform="translate(1689.453125 0)"/>
     <use xlink:href="#Arial-BoldMT-63" transform="translate(1745.068359 0)"/>
     <use xlink:href="#Arial-BoldMT-79" transform="translate(1800.683594 0)"/>
     <use xlink:href="#Arial-BoldMT-5f" transform="translate(1856.298828 0)"/>
     <use xlink:href="#Arial-BoldMT-6d" transform="translate(1911.914062 0)"/>
     <use xlink:href="#Arial-BoldMT-65" transform="translate(2000.830078 0)"/>
     <use xlink:href="#Arial-BoldMT-61" transform="translate(2056.445312 0)"/>
     <use xlink:href="#Arial-BoldMT-6e" transform="translate(2112.060547 0)"/>
     <use xlink:href="#Arial-BoldMT-20" transform="translate(2173.144531 0)"/>
     <use xlink:href="#Arial-BoldMT-44" transform="translate(2200.927734 0)"/>
     <use xlink:href="#Arial-BoldMT-69" transform="translate(2273.144531 0)"/>
     <use xlink:href="#Arial-BoldMT-73" transform="translate(2300.927734 0)"/>
     <use xlink:href="#Arial-BoldMT-74" transform="translate(2356.542969 0)"/>
     <use xlink:href="#Arial-BoldMT-72" transform="translate(2389.84375 0)"/>
     <use xlink:href="#Arial-BoldMT-69" transform="translate(2428.759766 0)"/>
     <use xlink:href="#Arial-BoldMT-62" transform="translate(2456.542969 0)"/>
     <use xlink:href="#Arial-BoldMT-75" transform="translate(2517.626953 0)"/>
     <use xlink:href="#Arial-BoldMT-74" transform="translate(2578.710938 0)"/>
     <use xlink:href="#Arial-BoldMT-69" transform="translate(2612.011719 0)"/>
     <use xlink:href="#Arial-BoldMT-6f" transform="translate(2639.794922 0)"/>
     <use xlink:href="#Arial-BoldMT-6e" transform="translate(2700.878906 0)"/>
     <use xlink:href="#Arial-BoldMT-29" transform="translate(2761.962891 0)"/>
    </g>
   </g>
  </g>
 </g>
 <defs>
  <clipPath id="p2492bb0a88">
   <rect x="55.00125" y="30.58125" width="933.91875" height="495.91875"/>
  </clipPath>
 </defs>
</svg>
