<?xml version="1.0" encoding="utf-8" standalone="no"?>
<!DOCTYPE svg PUBLIC "-//W3C//DTD SVG 1.1//EN"
  "http://www.w3.org/Graphics/SVG/1.1/DTD/svg11.dtd">
<svg xmlns:xlink="http://www.w3.org/1999/xlink" width="1008pt" height="576pt" viewBox="0 0 1008 576" xmlns="http://www.w3.org/2000/svg" version="1.1">
 <metadata>
  <rdf:RDF xmlns:dc="http://purl.org/dc/elements/1.1/" xmlns:cc="http://creativecommons.org/ns#" xmlns:rdf="http://www.w3.org/1999/02/22-rdf-syntax-ns#">
   <cc:Work>
    <dc:type rdf:resource="http://purl.org/dc/dcmitype/StillImage"/>
    <dc:date>2025-03-27T11:55:39.729787</dc:date>
    <dc:format>image/svg+xml</dc:format>
    <dc:creator>
     <cc:Agent>
      <dc:title>Matplotlib v3.10.1, https://matplotlib.org/</dc:title>
     </cc:Agent>
    </dc:creator>
   </cc:Work>
  </rdf:RDF>
 </metadata>
 <defs>
  <style type="text/css">*{stroke-linejoin: round; stroke-linecap: butt}</style>
 </defs>
 <g id="figure_1">
  <g id="patch_1">
   <path d="M 0 576 
L 1008 576 
L 1008 0 
L 0 0 
z
" style="fill: #ffffff"/>
  </g>
  <g id="axes_1">
   <g id="patch_2">
    <path d="M 55.00125 526.5 
L 988.92 526.5 
L 988.92 30.58125 
L 55.00125 30.58125 
z
" style="fill: #ffffff"/>
   </g>
   <g id="matplotlib.axis_1">
    <g id="xtick_1">
     <g id="line2d_1">
      <path d="M 64.24797 526.5 
L 64.24797 30.58125 
" clip-path="url(#p9b37cdfbdd)" style="fill: none; stroke-dasharray: 3.7,1.6; stroke-dashoffset: 0; stroke: #cccccc; stroke-opacity: 0.5"/>
     </g>
     <g id="text_1">
      <!-- 0 -->
      <g style="fill: #262626" transform="translate(61.189455 543.873594) scale(0.11 -0.11)">
       <defs>
        <path id="ArialMT-30" d="M 266 2259 
Q 266 3072 433 3567 
Q 600 4063 929 4331 
Q 1259 4600 1759 4600 
Q 2128 4600 2406 4451 
Q 2684 4303 2865 4023 
Q 3047 3744 3150 3342 
Q 3253 2941 3253 2259 
Q 3253 1453 3087 958 
Q 2922 463 2592 192 
Q 2263 -78 1759 -78 
Q 1097 -78 719 397 
Q 266 969 266 2259 
z
M 844 2259 
Q 844 1131 1108 757 
Q 1372 384 1759 384 
Q 2147 384 2411 759 
Q 2675 1134 2675 2259 
Q 2675 3391 2411 3762 
Q 2147 4134 1753 4134 
Q 1366 4134 1134 3806 
Q 844 3388 844 2259 
z
" transform="scale(0.015625)"/>
       </defs>
       <use xlink:href="#ArialMT-30"/>
      </g>
     </g>
    </g>
    <g id="xtick_2">
     <g id="line2d_2">
      <path d="M 249.182376 526.5 
L 249.182376 30.58125 
" clip-path="url(#p9b37cdfbdd)" style="fill: none; stroke-dasharray: 3.7,1.6; stroke-dashoffset: 0; stroke: #cccccc; stroke-opacity: 0.5"/>
     </g>
     <g id="text_2">
      <!-- 10 -->
      <g style="fill: #262626" transform="translate(243.065345 543.873594) scale(0.11 -0.11)">
       <defs>
        <path id="ArialMT-31" d="M 2384 0 
L 1822 0 
L 1822 3584 
Q 1619 3391 1289 3197 
Q 959 3003 697 2906 
L 697 3450 
Q 1169 3672 1522 3987 
Q 1875 4303 2022 4600 
L 2384 4600 
L 2384 0 
z
" transform="scale(0.015625)"/>
       </defs>
       <use xlink:href="#ArialMT-31"/>
       <use xlink:href="#ArialMT-30" transform="translate(55.615234 0)"/>
      </g>
     </g>
    </g>
    <g id="xtick_3">
     <g id="line2d_3">
      <path d="M 434.116782 526.5 
L 434.116782 30.58125 
" clip-path="url(#p9b37cdfbdd)" style="fill: none; stroke-dasharray: 3.7,1.6; stroke-dashoffset: 0; stroke: #cccccc; stroke-opacity: 0.5"/>
     </g>
     <g id="text_3">
      <!-- 20 -->
      <g style="fill: #262626" transform="translate(427.999751 543.873594) scale(0.11 -0.11)">
       <defs>
        <path id="ArialMT-32" d="M 3222 541 
L 3222 0 
L 194 0 
Q 188 203 259 391 
Q 375 700 629 1000 
Q 884 1300 1366 1694 
Q 2113 2306 2375 2664 
Q 2638 3022 2638 3341 
Q 2638 3675 2398 3904 
Q 2159 4134 1775 4134 
Q 1369 4134 1125 3890 
Q 881 3647 878 3216 
L 300 3275 
Q 359 3922 746 4261 
Q 1134 4600 1788 4600 
Q 2447 4600 2831 4234 
Q 3216 3869 3216 3328 
Q 3216 3053 3103 2787 
Q 2991 2522 2730 2228 
Q 2469 1934 1863 1422 
Q 1356 997 1212 845 
Q 1069 694 975 541 
L 3222 541 
z
" transform="scale(0.015625)"/>
       </defs>
       <use xlink:href="#ArialMT-32"/>
       <use xlink:href="#ArialMT-30" transform="translate(55.615234 0)"/>
      </g>
     </g>
    </g>
    <g id="xtick_4">
     <g id="line2d_4">
      <path d="M 619.051188 526.5 
L 619.051188 30.58125 
" clip-path="url(#p9b37cdfbdd)" style="fill: none; stroke-dasharray: 3.7,1.6; stroke-dashoffset: 0; stroke: #cccccc; stroke-opacity: 0.5"/>
     </g>
     <g id="text_4">
      <!-- 30 -->
      <g style="fill: #262626" transform="translate(612.934157 543.873594) scale(0.11 -0.11)">
       <defs>
        <path id="ArialMT-33" d="M 269 1209 
L 831 1284 
Q 928 806 1161 595 
Q 1394 384 1728 384 
Q 2125 384 2398 659 
Q 2672 934 2672 1341 
Q 2672 1728 2419 1979 
Q 2166 2231 1775 2231 
Q 1616 2231 1378 2169 
L 1441 2663 
Q 1497 2656 1531 2656 
Q 1891 2656 2178 2843 
Q 2466 3031 2466 3422 
Q 2466 3731 2256 3934 
Q 2047 4138 1716 4138 
Q 1388 4138 1169 3931 
Q 950 3725 888 3313 
L 325 3413 
Q 428 3978 793 4289 
Q 1159 4600 1703 4600 
Q 2078 4600 2393 4439 
Q 2709 4278 2876 4000 
Q 3044 3722 3044 3409 
Q 3044 3113 2884 2869 
Q 2725 2625 2413 2481 
Q 2819 2388 3044 2092 
Q 3269 1797 3269 1353 
Q 3269 753 2831 336 
Q 2394 -81 1725 -81 
Q 1122 -81 723 278 
Q 325 638 269 1209 
z
" transform="scale(0.015625)"/>
       </defs>
       <use xlink:href="#ArialMT-33"/>
       <use xlink:href="#ArialMT-30" transform="translate(55.615234 0)"/>
      </g>
     </g>
    </g>
    <g id="xtick_5">
     <g id="line2d_5">
      <path d="M 803.985594 526.5 
L 803.985594 30.58125 
" clip-path="url(#p9b37cdfbdd)" style="fill: none; stroke-dasharray: 3.7,1.6; stroke-dashoffset: 0; stroke: #cccccc; stroke-opacity: 0.5"/>
     </g>
     <g id="text_5">
      <!-- 40 -->
      <g style="fill: #262626" transform="translate(797.868563 543.873594) scale(0.11 -0.11)">
       <defs>
        <path id="ArialMT-34" d="M 2069 0 
L 2069 1097 
L 81 1097 
L 81 1613 
L 2172 4581 
L 2631 4581 
L 2631 1613 
L 3250 1613 
L 3250 1097 
L 2631 1097 
L 2631 0 
L 2069 0 
z
M 2069 1613 
L 2069 3678 
L 634 1613 
L 2069 1613 
z
" transform="scale(0.015625)"/>
       </defs>
       <use xlink:href="#ArialMT-34"/>
       <use xlink:href="#ArialMT-30" transform="translate(55.615234 0)"/>
      </g>
     </g>
    </g>
    <g id="xtick_6">
     <g id="line2d_6">
      <path d="M 988.92 526.5 
L 988.92 30.58125 
" clip-path="url(#p9b37cdfbdd)" style="fill: none; stroke-dasharray: 3.7,1.6; stroke-dashoffset: 0; stroke: #cccccc; stroke-opacity: 0.5"/>
     </g>
     <g id="text_6">
      <!-- 50 -->
      <g style="fill: #262626" transform="translate(982.802969 543.873594) scale(0.11 -0.11)">
       <defs>
        <path id="ArialMT-35" d="M 266 1200 
L 856 1250 
Q 922 819 1161 601 
Q 1400 384 1738 384 
Q 2144 384 2425 690 
Q 2706 997 2706 1503 
Q 2706 1984 2436 2262 
Q 2166 2541 1728 2541 
Q 1456 2541 1237 2417 
Q 1019 2294 894 2097 
L 366 2166 
L 809 4519 
L 3088 4519 
L 3088 3981 
L 1259 3981 
L 1013 2750 
Q 1425 3038 1878 3038 
Q 2478 3038 2890 2622 
Q 3303 2206 3303 1553 
Q 3303 931 2941 478 
Q 2500 -78 1738 -78 
Q 1113 -78 717 272 
Q 322 622 266 1200 
z
" transform="scale(0.015625)"/>
       </defs>
       <use xlink:href="#ArialMT-35"/>
       <use xlink:href="#ArialMT-30" transform="translate(55.615234 0)"/>
      </g>
     </g>
    </g>
    <g id="text_7">
     <!-- Epoch -->
     <g style="fill: #262626" transform="translate(502.113438 560.080781) scale(0.14 -0.14)">
      <defs>
       <path id="ArialMT-45" d="M 506 0 
L 506 4581 
L 3819 4581 
L 3819 4041 
L 1113 4041 
L 1113 2638 
L 3647 2638 
L 3647 2100 
L 1113 2100 
L 1113 541 
L 3925 541 
L 3925 0 
L 506 0 
z
" transform="scale(0.015625)"/>
       <path id="ArialMT-70" d="M 422 -1272 
L 422 3319 
L 934 3319 
L 934 2888 
Q 1116 3141 1344 3267 
Q 1572 3394 1897 3394 
Q 2322 3394 2647 3175 
Q 2972 2956 3137 2557 
Q 3303 2159 3303 1684 
Q 3303 1175 3120 767 
Q 2938 359 2589 142 
Q 2241 -75 1856 -75 
Q 1575 -75 1351 44 
Q 1128 163 984 344 
L 984 -1272 
L 422 -1272 
z
M 931 1641 
Q 931 1000 1190 694 
Q 1450 388 1819 388 
Q 2194 388 2461 705 
Q 2728 1022 2728 1688 
Q 2728 2322 2467 2637 
Q 2206 2953 1844 2953 
Q 1484 2953 1207 2617 
Q 931 2281 931 1641 
z
" transform="scale(0.015625)"/>
       <path id="ArialMT-6f" d="M 213 1659 
Q 213 2581 725 3025 
Q 1153 3394 1769 3394 
Q 2453 3394 2887 2945 
Q 3322 2497 3322 1706 
Q 3322 1066 3130 698 
Q 2938 331 2570 128 
Q 2203 -75 1769 -75 
Q 1072 -75 642 372 
Q 213 819 213 1659 
z
M 791 1659 
Q 791 1022 1069 705 
Q 1347 388 1769 388 
Q 2188 388 2466 706 
Q 2744 1025 2744 1678 
Q 2744 2294 2464 2611 
Q 2184 2928 1769 2928 
Q 1347 2928 1069 2612 
Q 791 2297 791 1659 
z
" transform="scale(0.015625)"/>
       <path id="ArialMT-63" d="M 2588 1216 
L 3141 1144 
Q 3050 572 2676 248 
Q 2303 -75 1759 -75 
Q 1078 -75 664 370 
Q 250 816 250 1647 
Q 250 2184 428 2587 
Q 606 2991 970 3192 
Q 1334 3394 1763 3394 
Q 2303 3394 2647 3120 
Q 2991 2847 3088 2344 
L 2541 2259 
Q 2463 2594 2264 2762 
Q 2066 2931 1784 2931 
Q 1359 2931 1093 2626 
Q 828 2322 828 1663 
Q 828 994 1084 691 
Q 1341 388 1753 388 
Q 2084 388 2306 591 
Q 2528 794 2588 1216 
z
" transform="scale(0.015625)"/>
       <path id="ArialMT-68" d="M 422 0 
L 422 4581 
L 984 4581 
L 984 2938 
Q 1378 3394 1978 3394 
Q 2347 3394 2619 3248 
Q 2891 3103 3008 2847 
Q 3125 2591 3125 2103 
L 3125 0 
L 2563 0 
L 2563 2103 
Q 2563 2525 2380 2717 
Q 2197 2909 1863 2909 
Q 1613 2909 1392 2779 
Q 1172 2650 1078 2428 
Q 984 2206 984 1816 
L 984 0 
L 422 0 
z
" transform="scale(0.015625)"/>
      </defs>
      <use xlink:href="#ArialMT-45"/>
      <use xlink:href="#ArialMT-70" transform="translate(66.699219 0)"/>
      <use xlink:href="#ArialMT-6f" transform="translate(122.314453 0)"/>
      <use xlink:href="#ArialMT-63" transform="translate(177.929688 0)"/>
      <use xlink:href="#ArialMT-68" transform="translate(227.929688 0)"/>
     </g>
    </g>
   </g>
   <g id="matplotlib.axis_2">
    <g id="ytick_1">
     <g id="line2d_7">
      <path d="M 55.00125 497.855093 
L 988.92 497.855093 
" clip-path="url(#p9b37cdfbdd)" style="fill: none; stroke-dasharray: 3.7,1.6; stroke-dashoffset: 0; stroke: #cccccc; stroke-opacity: 0.5"/>
     </g>
     <g id="text_8">
      <!-- 0.2 -->
      <g style="fill: #262626" transform="translate(30.21125 501.79189) scale(0.11 -0.11)">
       <defs>
        <path id="ArialMT-2e" d="M 581 0 
L 581 641 
L 1222 641 
L 1222 0 
L 581 0 
z
" transform="scale(0.015625)"/>
       </defs>
       <use xlink:href="#ArialMT-30"/>
       <use xlink:href="#ArialMT-2e" transform="translate(55.615234 0)"/>
       <use xlink:href="#ArialMT-32" transform="translate(83.398438 0)"/>
      </g>
     </g>
    </g>
    <g id="ytick_2">
     <g id="line2d_8">
      <path d="M 55.00125 428.501162 
L 988.92 428.501162 
" clip-path="url(#p9b37cdfbdd)" style="fill: none; stroke-dasharray: 3.7,1.6; stroke-dashoffset: 0; stroke: #cccccc; stroke-opacity: 0.5"/>
     </g>
     <g id="text_9">
      <!-- 0.3 -->
      <g style="fill: #262626" transform="translate(30.21125 432.437959) scale(0.11 -0.11)">
       <use xlink:href="#ArialMT-30"/>
       <use xlink:href="#ArialMT-2e" transform="translate(55.615234 0)"/>
       <use xlink:href="#ArialMT-33" transform="translate(83.398438 0)"/>
      </g>
     </g>
    </g>
    <g id="ytick_3">
     <g id="line2d_9">
      <path d="M 55.00125 359.147231 
L 988.92 359.147231 
" clip-path="url(#p9b37cdfbdd)" style="fill: none; stroke-dasharray: 3.7,1.6; stroke-dashoffset: 0; stroke: #cccccc; stroke-opacity: 0.5"/>
     </g>
     <g id="text_10">
      <!-- 0.4 -->
      <g style="fill: #262626" transform="translate(30.21125 363.084028) scale(0.11 -0.11)">
       <use xlink:href="#ArialMT-30"/>
       <use xlink:href="#ArialMT-2e" transform="translate(55.615234 0)"/>
       <use xlink:href="#ArialMT-34" transform="translate(83.398438 0)"/>
      </g>
     </g>
    </g>
    <g id="ytick_4">
     <g id="line2d_10">
      <path d="M 55.00125 289.7933 
L 988.92 289.7933 
" clip-path="url(#p9b37cdfbdd)" style="fill: none; stroke-dasharray: 3.7,1.6; stroke-dashoffset: 0; stroke: #cccccc; stroke-opacity: 0.5"/>
     </g>
     <g id="text_11">
      <!-- 0.5 -->
      <g style="fill: #262626" transform="translate(30.21125 293.730097) scale(0.11 -0.11)">
       <use xlink:href="#ArialMT-30"/>
       <use xlink:href="#ArialMT-2e" transform="translate(55.615234 0)"/>
       <use xlink:href="#ArialMT-35" transform="translate(83.398438 0)"/>
      </g>
     </g>
    </g>
    <g id="ytick_5">
     <g id="line2d_11">
      <path d="M 55.00125 220.439369 
L 988.92 220.439369 
" clip-path="url(#p9b37cdfbdd)" style="fill: none; stroke-dasharray: 3.7,1.6; stroke-dashoffset: 0; stroke: #cccccc; stroke-opacity: 0.5"/>
     </g>
     <g id="text_12">
      <!-- 0.6 -->
      <g style="fill: #262626" transform="translate(30.21125 224.376166) scale(0.11 -0.11)">
       <defs>
        <path id="ArialMT-36" d="M 3184 3459 
L 2625 3416 
Q 2550 3747 2413 3897 
Q 2184 4138 1850 4138 
Q 1581 4138 1378 3988 
Q 1113 3794 959 3422 
Q 806 3050 800 2363 
Q 1003 2672 1297 2822 
Q 1591 2972 1913 2972 
Q 2475 2972 2870 2558 
Q 3266 2144 3266 1488 
Q 3266 1056 3080 686 
Q 2894 316 2569 119 
Q 2244 -78 1831 -78 
Q 1128 -78 684 439 
Q 241 956 241 2144 
Q 241 3472 731 4075 
Q 1159 4600 1884 4600 
Q 2425 4600 2770 4297 
Q 3116 3994 3184 3459 
z
M 888 1484 
Q 888 1194 1011 928 
Q 1134 663 1356 523 
Q 1578 384 1822 384 
Q 2178 384 2434 671 
Q 2691 959 2691 1453 
Q 2691 1928 2437 2201 
Q 2184 2475 1800 2475 
Q 1419 2475 1153 2201 
Q 888 1928 888 1484 
z
" transform="scale(0.015625)"/>
       </defs>
       <use xlink:href="#ArialMT-30"/>
       <use xlink:href="#ArialMT-2e" transform="translate(55.615234 0)"/>
       <use xlink:href="#ArialMT-36" transform="translate(83.398438 0)"/>
      </g>
     </g>
    </g>
    <g id="ytick_6">
     <g id="line2d_12">
      <path d="M 55.00125 151.085439 
L 988.92 151.085439 
" clip-path="url(#p9b37cdfbdd)" style="fill: none; stroke-dasharray: 3.7,1.6; stroke-dashoffset: 0; stroke: #cccccc; stroke-opacity: 0.5"/>
     </g>
     <g id="text_13">
      <!-- 0.7 -->
      <g style="fill: #262626" transform="translate(30.21125 155.022236) scale(0.11 -0.11)">
       <defs>
        <path id="ArialMT-37" d="M 303 3981 
L 303 4522 
L 3269 4522 
L 3269 4084 
Q 2831 3619 2401 2847 
Q 1972 2075 1738 1259 
Q 1569 684 1522 0 
L 944 0 
Q 953 541 1156 1306 
Q 1359 2072 1739 2783 
Q 2119 3494 2547 3981 
L 303 3981 
z
" transform="scale(0.015625)"/>
       </defs>
       <use xlink:href="#ArialMT-30"/>
       <use xlink:href="#ArialMT-2e" transform="translate(55.615234 0)"/>
       <use xlink:href="#ArialMT-37" transform="translate(83.398438 0)"/>
      </g>
     </g>
    </g>
    <g id="ytick_7">
     <g id="line2d_13">
      <path d="M 55.00125 81.731508 
L 988.92 81.731508 
" clip-path="url(#p9b37cdfbdd)" style="fill: none; stroke-dasharray: 3.7,1.6; stroke-dashoffset: 0; stroke: #cccccc; stroke-opacity: 0.5"/>
     </g>
     <g id="text_14">
      <!-- 0.8 -->
      <g style="fill: #262626" transform="translate(30.21125 85.668305) scale(0.11 -0.11)">
       <defs>
        <path id="ArialMT-38" d="M 1131 2484 
Q 781 2613 612 2850 
Q 444 3088 444 3419 
Q 444 3919 803 4259 
Q 1163 4600 1759 4600 
Q 2359 4600 2725 4251 
Q 3091 3903 3091 3403 
Q 3091 3084 2923 2848 
Q 2756 2613 2416 2484 
Q 2838 2347 3058 2040 
Q 3278 1734 3278 1309 
Q 3278 722 2862 322 
Q 2447 -78 1769 -78 
Q 1091 -78 675 323 
Q 259 725 259 1325 
Q 259 1772 486 2073 
Q 713 2375 1131 2484 
z
M 1019 3438 
Q 1019 3113 1228 2906 
Q 1438 2700 1772 2700 
Q 2097 2700 2305 2904 
Q 2513 3109 2513 3406 
Q 2513 3716 2298 3927 
Q 2084 4138 1766 4138 
Q 1444 4138 1231 3931 
Q 1019 3725 1019 3438 
z
M 838 1322 
Q 838 1081 952 856 
Q 1066 631 1291 507 
Q 1516 384 1775 384 
Q 2178 384 2440 643 
Q 2703 903 2703 1303 
Q 2703 1709 2433 1975 
Q 2163 2241 1756 2241 
Q 1359 2241 1098 1978 
Q 838 1716 838 1322 
z
" transform="scale(0.015625)"/>
       </defs>
       <use xlink:href="#ArialMT-30"/>
       <use xlink:href="#ArialMT-2e" transform="translate(55.615234 0)"/>
       <use xlink:href="#ArialMT-38" transform="translate(83.398438 0)"/>
      </g>
     </g>
    </g>
    <g id="text_15">
     <!-- Accuracy_mean -->
     <g style="fill: #262626" transform="translate(23.264688 328.727344) rotate(-90) scale(0.14 -0.14)">
      <defs>
       <path id="ArialMT-41" d="M -9 0 
L 1750 4581 
L 2403 4581 
L 4278 0 
L 3588 0 
L 3053 1388 
L 1138 1388 
L 634 0 
L -9 0 
z
M 1313 1881 
L 2866 1881 
L 2388 3150 
Q 2169 3728 2063 4100 
Q 1975 3659 1816 3225 
L 1313 1881 
z
" transform="scale(0.015625)"/>
       <path id="ArialMT-75" d="M 2597 0 
L 2597 488 
Q 2209 -75 1544 -75 
Q 1250 -75 995 37 
Q 741 150 617 320 
Q 494 491 444 738 
Q 409 903 409 1263 
L 409 3319 
L 972 3319 
L 972 1478 
Q 972 1038 1006 884 
Q 1059 663 1231 536 
Q 1403 409 1656 409 
Q 1909 409 2131 539 
Q 2353 669 2445 892 
Q 2538 1116 2538 1541 
L 2538 3319 
L 3100 3319 
L 3100 0 
L 2597 0 
z
" transform="scale(0.015625)"/>
       <path id="ArialMT-72" d="M 416 0 
L 416 3319 
L 922 3319 
L 922 2816 
Q 1116 3169 1280 3281 
Q 1444 3394 1641 3394 
Q 1925 3394 2219 3213 
L 2025 2691 
Q 1819 2813 1613 2813 
Q 1428 2813 1281 2702 
Q 1134 2591 1072 2394 
Q 978 2094 978 1738 
L 978 0 
L 416 0 
z
" transform="scale(0.015625)"/>
       <path id="ArialMT-61" d="M 2588 409 
Q 2275 144 1986 34 
Q 1697 -75 1366 -75 
Q 819 -75 525 192 
Q 231 459 231 875 
Q 231 1119 342 1320 
Q 453 1522 633 1644 
Q 813 1766 1038 1828 
Q 1203 1872 1538 1913 
Q 2219 1994 2541 2106 
Q 2544 2222 2544 2253 
Q 2544 2597 2384 2738 
Q 2169 2928 1744 2928 
Q 1347 2928 1158 2789 
Q 969 2650 878 2297 
L 328 2372 
Q 403 2725 575 2942 
Q 747 3159 1072 3276 
Q 1397 3394 1825 3394 
Q 2250 3394 2515 3294 
Q 2781 3194 2906 3042 
Q 3031 2891 3081 2659 
Q 3109 2516 3109 2141 
L 3109 1391 
Q 3109 606 3145 398 
Q 3181 191 3288 0 
L 2700 0 
Q 2613 175 2588 409 
z
M 2541 1666 
Q 2234 1541 1622 1453 
Q 1275 1403 1131 1340 
Q 988 1278 909 1158 
Q 831 1038 831 891 
Q 831 666 1001 516 
Q 1172 366 1500 366 
Q 1825 366 2078 508 
Q 2331 650 2450 897 
Q 2541 1088 2541 1459 
L 2541 1666 
z
" transform="scale(0.015625)"/>
       <path id="ArialMT-79" d="M 397 -1278 
L 334 -750 
Q 519 -800 656 -800 
Q 844 -800 956 -737 
Q 1069 -675 1141 -563 
Q 1194 -478 1313 -144 
Q 1328 -97 1363 -6 
L 103 3319 
L 709 3319 
L 1400 1397 
Q 1534 1031 1641 628 
Q 1738 1016 1872 1384 
L 2581 3319 
L 3144 3319 
L 1881 -56 
Q 1678 -603 1566 -809 
Q 1416 -1088 1222 -1217 
Q 1028 -1347 759 -1347 
Q 597 -1347 397 -1278 
z
" transform="scale(0.015625)"/>
       <path id="ArialMT-5f" d="M -97 -1272 
L -97 -866 
L 3631 -866 
L 3631 -1272 
L -97 -1272 
z
" transform="scale(0.015625)"/>
       <path id="ArialMT-6d" d="M 422 0 
L 422 3319 
L 925 3319 
L 925 2853 
Q 1081 3097 1340 3245 
Q 1600 3394 1931 3394 
Q 2300 3394 2536 3241 
Q 2772 3088 2869 2813 
Q 3263 3394 3894 3394 
Q 4388 3394 4653 3120 
Q 4919 2847 4919 2278 
L 4919 0 
L 4359 0 
L 4359 2091 
Q 4359 2428 4304 2576 
Q 4250 2725 4106 2815 
Q 3963 2906 3769 2906 
Q 3419 2906 3187 2673 
Q 2956 2441 2956 1928 
L 2956 0 
L 2394 0 
L 2394 2156 
Q 2394 2531 2256 2718 
Q 2119 2906 1806 2906 
Q 1569 2906 1367 2781 
Q 1166 2656 1075 2415 
Q 984 2175 984 1722 
L 984 0 
L 422 0 
z
" transform="scale(0.015625)"/>
       <path id="ArialMT-65" d="M 2694 1069 
L 3275 997 
Q 3138 488 2766 206 
Q 2394 -75 1816 -75 
Q 1088 -75 661 373 
Q 234 822 234 1631 
Q 234 2469 665 2931 
Q 1097 3394 1784 3394 
Q 2450 3394 2872 2941 
Q 3294 2488 3294 1666 
Q 3294 1616 3291 1516 
L 816 1516 
Q 847 969 1125 678 
Q 1403 388 1819 388 
Q 2128 388 2347 550 
Q 2566 713 2694 1069 
z
M 847 1978 
L 2700 1978 
Q 2663 2397 2488 2606 
Q 2219 2931 1791 2931 
Q 1403 2931 1139 2672 
Q 875 2413 847 1978 
z
" transform="scale(0.015625)"/>
       <path id="ArialMT-6e" d="M 422 0 
L 422 3319 
L 928 3319 
L 928 2847 
Q 1294 3394 1984 3394 
Q 2284 3394 2536 3286 
Q 2788 3178 2913 3003 
Q 3038 2828 3088 2588 
Q 3119 2431 3119 2041 
L 3119 0 
L 2556 0 
L 2556 2019 
Q 2556 2363 2490 2533 
Q 2425 2703 2258 2804 
Q 2091 2906 1866 2906 
Q 1506 2906 1245 2678 
Q 984 2450 984 1813 
L 984 0 
L 422 0 
z
" transform="scale(0.015625)"/>
      </defs>
      <use xlink:href="#ArialMT-41"/>
      <use xlink:href="#ArialMT-63" transform="translate(66.699219 0)"/>
      <use xlink:href="#ArialMT-63" transform="translate(116.699219 0)"/>
      <use xlink:href="#ArialMT-75" transform="translate(166.699219 0)"/>
      <use xlink:href="#ArialMT-72" transform="translate(222.314453 0)"/>
      <use xlink:href="#ArialMT-61" transform="translate(255.615234 0)"/>
      <use xlink:href="#ArialMT-63" transform="translate(311.230469 0)"/>
      <use xlink:href="#ArialMT-79" transform="translate(361.230469 0)"/>
      <use xlink:href="#ArialMT-5f" transform="translate(411.230469 0)"/>
      <use xlink:href="#ArialMT-6d" transform="translate(466.845703 0)"/>
      <use xlink:href="#ArialMT-65" transform="translate(550.146484 0)"/>
      <use xlink:href="#ArialMT-61" transform="translate(605.761719 0)"/>
      <use xlink:href="#ArialMT-6e" transform="translate(661.376953 0)"/>
     </g>
    </g>
   </g>
   <g id="patch_3">
    <path d="M 57.775266 441.599147 
L 70.720675 441.599147 
L 70.720675 354.637613 
L 57.775266 354.637613 
L 57.775266 441.599147 
z
" clip-path="url(#p9b37cdfbdd)" style="fill: #72b6a1; stroke: #595959; stroke-linejoin: miter"/>
   </g>
   <g id="line2d_14">
    <path d="M 64.24797 441.599147 
L 64.24797 495.24595 
" clip-path="url(#p9b37cdfbdd)" style="fill: none; stroke: #595959"/>
   </g>
   <g id="line2d_15">
    <path d="M 64.24797 354.637613 
L 64.24797 273.017427 
" clip-path="url(#p9b37cdfbdd)" style="fill: none; stroke: #595959"/>
   </g>
   <g id="line2d_16">
    <path d="M 61.011618 495.24595 
L 67.484322 495.24595 
" clip-path="url(#p9b37cdfbdd)" style="fill: none; stroke: #595959; stroke-linecap: round"/>
   </g>
   <g id="line2d_17">
    <path d="M 61.011618 273.017427 
L 67.484322 273.017427 
" clip-path="url(#p9b37cdfbdd)" style="fill: none; stroke: #595959; stroke-linecap: round"/>
   </g>
   <g id="line2d_18"/>
   <g id="patch_4">
    <path d="M 76.268707 402.66949 
L 89.214115 402.66949 
L 89.214115 240.439228 
L 76.268707 240.439228 
L 76.268707 402.66949 
z
" clip-path="url(#p9b37cdfbdd)" style="fill: #72b6a1; stroke: #595959; stroke-linejoin: miter"/>
   </g>
   <g id="line2d_19">
    <path d="M 82.741411 402.66949 
L 82.741411 464.725253 
" clip-path="url(#p9b37cdfbdd)" style="fill: none; stroke: #595959"/>
   </g>
   <g id="line2d_20">
    <path d="M 82.741411 240.439228 
L 82.741411 182.052599 
" clip-path="url(#p9b37cdfbdd)" style="fill: none; stroke: #595959"/>
   </g>
   <g id="line2d_21">
    <path d="M 79.505059 464.725253 
L 85.977763 464.725253 
" clip-path="url(#p9b37cdfbdd)" style="fill: none; stroke: #595959; stroke-linecap: round"/>
   </g>
   <g id="line2d_22">
    <path d="M 79.505059 182.052599 
L 85.977763 182.052599 
" clip-path="url(#p9b37cdfbdd)" style="fill: none; stroke: #595959; stroke-linecap: round"/>
   </g>
   <g id="line2d_23"/>
   <g id="patch_5">
    <path d="M 94.762147 384.902759 
L 107.707556 384.902759 
L 107.707556 288.64896 
L 94.762147 288.64896 
L 94.762147 384.902759 
z
" clip-path="url(#p9b37cdfbdd)" style="fill: #72b6a1; stroke: #595959; stroke-linejoin: miter"/>
   </g>
   <g id="line2d_24">
    <path d="M 101.234851 384.902759 
L 101.234851 437.780718 
" clip-path="url(#p9b37cdfbdd)" style="fill: none; stroke: #595959"/>
   </g>
   <g id="line2d_25">
    <path d="M 101.234851 288.64896 
L 101.234851 166.872127 
" clip-path="url(#p9b37cdfbdd)" style="fill: none; stroke: #595959"/>
   </g>
   <g id="line2d_26">
    <path d="M 97.998499 437.780718 
L 104.471204 437.780718 
" clip-path="url(#p9b37cdfbdd)" style="fill: none; stroke: #595959; stroke-linecap: round"/>
   </g>
   <g id="line2d_27">
    <path d="M 97.998499 166.872127 
L 104.471204 166.872127 
" clip-path="url(#p9b37cdfbdd)" style="fill: none; stroke: #595959; stroke-linecap: round"/>
   </g>
   <g id="line2d_28"/>
   <g id="patch_6">
    <path d="M 113.255588 375.034616 
L 126.200996 375.034616 
L 126.200996 267.391981 
L 113.255588 267.391981 
L 113.255588 375.034616 
z
" clip-path="url(#p9b37cdfbdd)" style="fill: #72b6a1; stroke: #595959; stroke-linejoin: miter"/>
   </g>
   <g id="line2d_29">
    <path d="M 119.728292 375.034616 
L 119.728292 450.174265 
" clip-path="url(#p9b37cdfbdd)" style="fill: none; stroke: #595959"/>
   </g>
   <g id="line2d_30">
    <path d="M 119.728292 267.391981 
L 119.728292 144.583508 
" clip-path="url(#p9b37cdfbdd)" style="fill: none; stroke: #595959"/>
   </g>
   <g id="line2d_31">
    <path d="M 116.49194 450.174265 
L 122.964644 450.174265 
" clip-path="url(#p9b37cdfbdd)" style="fill: none; stroke: #595959; stroke-linecap: round"/>
   </g>
   <g id="line2d_32">
    <path d="M 116.49194 144.583508 
L 122.964644 144.583508 
" clip-path="url(#p9b37cdfbdd)" style="fill: none; stroke: #595959; stroke-linecap: round"/>
   </g>
   <g id="line2d_33"/>
   <g id="patch_7">
    <path d="M 131.749028 349.721401 
L 144.694437 349.721401 
L 144.694437 190.906626 
L 131.749028 190.906626 
L 131.749028 349.721401 
z
" clip-path="url(#p9b37cdfbdd)" style="fill: #72b6a1; stroke: #595959; stroke-linejoin: miter"/>
   </g>
   <g id="line2d_34">
    <path d="M 138.221733 349.721401 
L 138.221733 402.857546 
" clip-path="url(#p9b37cdfbdd)" style="fill: none; stroke: #595959"/>
   </g>
   <g id="line2d_35">
    <path d="M 138.221733 190.906626 
L 138.221733 78.632801 
" clip-path="url(#p9b37cdfbdd)" style="fill: none; stroke: #595959"/>
   </g>
   <g id="line2d_36">
    <path d="M 134.985381 402.857546 
L 141.458085 402.857546 
" clip-path="url(#p9b37cdfbdd)" style="fill: none; stroke: #595959; stroke-linecap: round"/>
   </g>
   <g id="line2d_37">
    <path d="M 134.985381 78.632801 
L 141.458085 78.632801 
" clip-path="url(#p9b37cdfbdd)" style="fill: none; stroke: #595959; stroke-linecap: round"/>
   </g>
   <g id="line2d_38"/>
   <g id="patch_8">
    <path d="M 150.242469 363.331585 
L 163.187877 363.331585 
L 163.187877 218.902024 
L 150.242469 218.902024 
L 150.242469 363.331585 
z
" clip-path="url(#p9b37cdfbdd)" style="fill: #72b6a1; stroke: #595959; stroke-linejoin: miter"/>
   </g>
   <g id="line2d_39">
    <path d="M 156.715173 363.331585 
L 156.715173 503.912003 
" clip-path="url(#p9b37cdfbdd)" style="fill: none; stroke: #595959"/>
   </g>
   <g id="line2d_40">
    <path d="M 156.715173 218.902024 
L 156.715173 160.413542 
" clip-path="url(#p9b37cdfbdd)" style="fill: none; stroke: #595959"/>
   </g>
   <g id="line2d_41">
    <path d="M 153.478821 503.912003 
L 159.951525 503.912003 
" clip-path="url(#p9b37cdfbdd)" style="fill: none; stroke: #595959; stroke-linecap: round"/>
   </g>
   <g id="line2d_42">
    <path d="M 153.478821 160.413542 
L 159.951525 160.413542 
" clip-path="url(#p9b37cdfbdd)" style="fill: none; stroke: #595959; stroke-linecap: round"/>
   </g>
   <g id="line2d_43"/>
   <g id="patch_9">
    <path d="M 168.73591 357.250401 
L 181.681318 357.250401 
L 181.681318 210.514822 
L 168.73591 210.514822 
L 168.73591 357.250401 
z
" clip-path="url(#p9b37cdfbdd)" style="fill: #72b6a1; stroke: #595959; stroke-linejoin: miter"/>
   </g>
   <g id="line2d_44">
    <path d="M 175.208614 357.250401 
L 175.208614 503.958239 
" clip-path="url(#p9b37cdfbdd)" style="fill: none; stroke: #595959"/>
   </g>
   <g id="line2d_45">
    <path d="M 175.208614 210.514822 
L 175.208614 144.970734 
" clip-path="url(#p9b37cdfbdd)" style="fill: none; stroke: #595959"/>
   </g>
   <g id="line2d_46">
    <path d="M 171.972262 503.958239 
L 178.444966 503.958239 
" clip-path="url(#p9b37cdfbdd)" style="fill: none; stroke: #595959; stroke-linecap: round"/>
   </g>
   <g id="line2d_47">
    <path d="M 171.972262 144.970734 
L 178.444966 144.970734 
" clip-path="url(#p9b37cdfbdd)" style="fill: none; stroke: #595959; stroke-linecap: round"/>
   </g>
   <g id="line2d_48"/>
   <g id="patch_10">
    <path d="M 187.22935 352.827354 
L 200.174759 352.827354 
L 200.174759 195.438433 
L 187.22935 195.438433 
L 187.22935 352.827354 
z
" clip-path="url(#p9b37cdfbdd)" style="fill: #72b6a1; stroke: #595959; stroke-linejoin: miter"/>
   </g>
   <g id="line2d_49">
    <path d="M 193.702054 352.827354 
L 193.702054 492.907846 
" clip-path="url(#p9b37cdfbdd)" style="fill: none; stroke: #595959"/>
   </g>
   <g id="line2d_50">
    <path d="M 193.702054 195.438433 
L 193.702054 132.880032 
" clip-path="url(#p9b37cdfbdd)" style="fill: none; stroke: #595959"/>
   </g>
   <g id="line2d_51">
    <path d="M 190.465702 492.907846 
L 196.938407 492.907846 
" clip-path="url(#p9b37cdfbdd)" style="fill: none; stroke: #595959; stroke-linecap: round"/>
   </g>
   <g id="line2d_52">
    <path d="M 190.465702 132.880032 
L 196.938407 132.880032 
" clip-path="url(#p9b37cdfbdd)" style="fill: none; stroke: #595959; stroke-linecap: round"/>
   </g>
   <g id="line2d_53"/>
   <g id="patch_11">
    <path d="M 205.722791 343.820012 
L 218.668199 343.820012 
L 218.668199 184.710536 
L 205.722791 184.710536 
L 205.722791 343.820012 
z
" clip-path="url(#p9b37cdfbdd)" style="fill: #72b6a1; stroke: #595959; stroke-linejoin: miter"/>
   </g>
   <g id="line2d_54">
    <path d="M 212.195495 343.820012 
L 212.195495 491.081525 
" clip-path="url(#p9b37cdfbdd)" style="fill: none; stroke: #595959"/>
   </g>
   <g id="line2d_55">
    <path d="M 212.195495 184.710536 
L 212.195495 123.632841 
" clip-path="url(#p9b37cdfbdd)" style="fill: none; stroke: #595959"/>
   </g>
   <g id="line2d_56">
    <path d="M 208.959143 491.081525 
L 215.431847 491.081525 
" clip-path="url(#p9b37cdfbdd)" style="fill: none; stroke: #595959; stroke-linecap: round"/>
   </g>
   <g id="line2d_57">
    <path d="M 208.959143 123.632841 
L 215.431847 123.632841 
" clip-path="url(#p9b37cdfbdd)" style="fill: none; stroke: #595959; stroke-linecap: round"/>
   </g>
   <g id="line2d_58"/>
   <g id="patch_12">
    <path d="M 224.216231 332.506652 
L 237.16164 332.506652 
L 237.16164 190.339763 
L 224.216231 190.339763 
L 224.216231 332.506652 
z
" clip-path="url(#p9b37cdfbdd)" style="fill: #72b6a1; stroke: #595959; stroke-linejoin: miter"/>
   </g>
   <g id="line2d_59">
    <path d="M 230.688936 332.506652 
L 230.688936 467.651456 
" clip-path="url(#p9b37cdfbdd)" style="fill: none; stroke: #595959"/>
   </g>
   <g id="line2d_60">
    <path d="M 230.688936 190.339763 
L 230.688936 127.172203 
" clip-path="url(#p9b37cdfbdd)" style="fill: none; stroke: #595959"/>
   </g>
   <g id="line2d_61">
    <path d="M 227.452584 467.651456 
L 233.925288 467.651456 
" clip-path="url(#p9b37cdfbdd)" style="fill: none; stroke: #595959; stroke-linecap: round"/>
   </g>
   <g id="line2d_62">
    <path d="M 227.452584 127.172203 
L 233.925288 127.172203 
" clip-path="url(#p9b37cdfbdd)" style="fill: none; stroke: #595959; stroke-linecap: round"/>
   </g>
   <g id="line2d_63"/>
   <g id="patch_13">
    <path d="M 242.709672 321.834816 
L 255.65508 321.834816 
L 255.65508 168.228574 
L 242.709672 168.228574 
L 242.709672 321.834816 
z
" clip-path="url(#p9b37cdfbdd)" style="fill: #72b6a1; stroke: #595959; stroke-linejoin: miter"/>
   </g>
   <g id="line2d_64">
    <path d="M 249.182376 321.834816 
L 249.182376 483.406357 
" clip-path="url(#p9b37cdfbdd)" style="fill: none; stroke: #595959"/>
   </g>
   <g id="line2d_65">
    <path d="M 249.182376 168.228574 
L 249.182376 105.93603 
" clip-path="url(#p9b37cdfbdd)" style="fill: none; stroke: #595959"/>
   </g>
   <g id="line2d_66">
    <path d="M 245.946024 483.406357 
L 252.418728 483.406357 
" clip-path="url(#p9b37cdfbdd)" style="fill: none; stroke: #595959; stroke-linecap: round"/>
   </g>
   <g id="line2d_67">
    <path d="M 245.946024 105.93603 
L 252.418728 105.93603 
" clip-path="url(#p9b37cdfbdd)" style="fill: none; stroke: #595959; stroke-linecap: round"/>
   </g>
   <g id="line2d_68"/>
   <g id="patch_14">
    <path d="M 261.203113 322.71041 
L 274.148521 322.71041 
L 274.148521 166.986561 
L 261.203113 166.986561 
L 261.203113 322.71041 
z
" clip-path="url(#p9b37cdfbdd)" style="fill: #72b6a1; stroke: #595959; stroke-linejoin: miter"/>
   </g>
   <g id="line2d_69">
    <path d="M 267.675817 322.71041 
L 267.675817 461.791049 
" clip-path="url(#p9b37cdfbdd)" style="fill: none; stroke: #595959"/>
   </g>
   <g id="line2d_70">
    <path d="M 267.675817 166.986561 
L 267.675817 118.350383 
" clip-path="url(#p9b37cdfbdd)" style="fill: none; stroke: #595959"/>
   </g>
   <g id="line2d_71">
    <path d="M 264.439465 461.791049 
L 270.912169 461.791049 
" clip-path="url(#p9b37cdfbdd)" style="fill: none; stroke: #595959; stroke-linecap: round"/>
   </g>
   <g id="line2d_72">
    <path d="M 264.439465 118.350383 
L 270.912169 118.350383 
" clip-path="url(#p9b37cdfbdd)" style="fill: none; stroke: #595959; stroke-linecap: round"/>
   </g>
   <g id="line2d_73"/>
   <g id="patch_15">
    <path d="M 279.696553 313.273074 
L 292.641962 313.273074 
L 292.641962 153.592583 
L 279.696553 153.592583 
L 279.696553 313.273074 
z
" clip-path="url(#p9b37cdfbdd)" style="fill: #72b6a1; stroke: #595959; stroke-linejoin: miter"/>
   </g>
   <g id="line2d_74">
    <path d="M 286.169257 313.273074 
L 286.169257 460.0572 
" clip-path="url(#p9b37cdfbdd)" style="fill: none; stroke: #595959"/>
   </g>
   <g id="line2d_75">
    <path d="M 286.169257 153.592583 
L 286.169257 83.396002 
" clip-path="url(#p9b37cdfbdd)" style="fill: none; stroke: #595959"/>
   </g>
   <g id="line2d_76">
    <path d="M 282.932905 460.0572 
L 289.40561 460.0572 
" clip-path="url(#p9b37cdfbdd)" style="fill: none; stroke: #595959; stroke-linecap: round"/>
   </g>
   <g id="line2d_77">
    <path d="M 282.932905 83.396002 
L 289.40561 83.396002 
" clip-path="url(#p9b37cdfbdd)" style="fill: none; stroke: #595959; stroke-linecap: round"/>
   </g>
   <g id="line2d_78"/>
   <g id="patch_16">
    <path d="M 298.189994 317.846965 
L 311.135402 317.846965 
L 311.135402 163.768539 
L 298.189994 163.768539 
L 298.189994 317.846965 
z
" clip-path="url(#p9b37cdfbdd)" style="fill: #72b6a1; stroke: #595959; stroke-linejoin: miter"/>
   </g>
   <g id="line2d_79">
    <path d="M 304.662698 317.846965 
L 304.662698 455.514518 
" clip-path="url(#p9b37cdfbdd)" style="fill: none; stroke: #595959"/>
   </g>
   <g id="line2d_80">
    <path d="M 304.662698 163.768539 
L 304.662698 118.090306 
" clip-path="url(#p9b37cdfbdd)" style="fill: none; stroke: #595959"/>
   </g>
   <g id="line2d_81">
    <path d="M 301.426346 455.514518 
L 307.89905 455.514518 
" clip-path="url(#p9b37cdfbdd)" style="fill: none; stroke: #595959; stroke-linecap: round"/>
   </g>
   <g id="line2d_82">
    <path d="M 301.426346 118.090306 
L 307.89905 118.090306 
" clip-path="url(#p9b37cdfbdd)" style="fill: none; stroke: #595959; stroke-linecap: round"/>
   </g>
   <g id="line2d_83"/>
   <g id="patch_17">
    <path d="M 316.683434 316.737302 
L 329.628843 316.737302 
L 329.628843 147.06869 
L 316.683434 147.06869 
L 316.683434 316.737302 
z
" clip-path="url(#p9b37cdfbdd)" style="fill: #72b6a1; stroke: #595959; stroke-linejoin: miter"/>
   </g>
   <g id="line2d_84">
    <path d="M 323.156139 316.737302 
L 323.156139 457.577797 
" clip-path="url(#p9b37cdfbdd)" style="fill: none; stroke: #595959"/>
   </g>
   <g id="line2d_85">
    <path d="M 323.156139 147.06869 
L 323.156139 110.079927 
" clip-path="url(#p9b37cdfbdd)" style="fill: none; stroke: #595959"/>
   </g>
   <g id="line2d_86">
    <path d="M 319.919787 457.577797 
L 326.392491 457.577797 
" clip-path="url(#p9b37cdfbdd)" style="fill: none; stroke: #595959; stroke-linecap: round"/>
   </g>
   <g id="line2d_87">
    <path d="M 319.919787 110.079927 
L 326.392491 110.079927 
" clip-path="url(#p9b37cdfbdd)" style="fill: none; stroke: #595959; stroke-linecap: round"/>
   </g>
   <g id="line2d_88"/>
   <g id="patch_18">
    <path d="M 335.176875 311.110965 
L 348.122283 311.110965 
L 348.122283 145.0083 
L 335.176875 145.0083 
L 335.176875 311.110965 
z
" clip-path="url(#p9b37cdfbdd)" style="fill: #72b6a1; stroke: #595959; stroke-linejoin: miter"/>
   </g>
   <g id="line2d_89">
    <path d="M 341.649579 311.110965 
L 341.649579 451.110543 
" clip-path="url(#p9b37cdfbdd)" style="fill: none; stroke: #595959"/>
   </g>
   <g id="line2d_90">
    <path d="M 341.649579 145.0083 
L 341.649579 109.317034 
" clip-path="url(#p9b37cdfbdd)" style="fill: none; stroke: #595959"/>
   </g>
   <g id="line2d_91">
    <path d="M 338.413227 451.110543 
L 344.885931 451.110543 
" clip-path="url(#p9b37cdfbdd)" style="fill: none; stroke: #595959; stroke-linecap: round"/>
   </g>
   <g id="line2d_92">
    <path d="M 338.413227 109.317034 
L 344.885931 109.317034 
" clip-path="url(#p9b37cdfbdd)" style="fill: none; stroke: #595959; stroke-linecap: round"/>
   </g>
   <g id="line2d_93"/>
   <g id="patch_19">
    <path d="M 353.670316 311.05028 
L 366.615724 311.05028 
L 366.615724 159.832703 
L 353.670316 159.832703 
L 353.670316 311.05028 
z
" clip-path="url(#p9b37cdfbdd)" style="fill: #72b6a1; stroke: #595959; stroke-linejoin: miter"/>
   </g>
   <g id="line2d_94">
    <path d="M 360.14302 311.05028 
L 360.14302 445.007397 
" clip-path="url(#p9b37cdfbdd)" style="fill: none; stroke: #595959"/>
   </g>
   <g id="line2d_95">
    <path d="M 360.14302 159.832703 
L 360.14302 105.155798 
" clip-path="url(#p9b37cdfbdd)" style="fill: none; stroke: #595959"/>
   </g>
   <g id="line2d_96">
    <path d="M 356.906668 445.007397 
L 363.379372 445.007397 
" clip-path="url(#p9b37cdfbdd)" style="fill: none; stroke: #595959; stroke-linecap: round"/>
   </g>
   <g id="line2d_97">
    <path d="M 356.906668 105.155798 
L 363.379372 105.155798 
" clip-path="url(#p9b37cdfbdd)" style="fill: none; stroke: #595959; stroke-linecap: round"/>
   </g>
   <g id="line2d_98"/>
   <g id="patch_20">
    <path d="M 372.163756 308.081932 
L 385.109165 308.081932 
L 385.109165 147.635081 
L 372.163756 147.635081 
L 372.163756 308.081932 
z
" clip-path="url(#p9b37cdfbdd)" style="fill: #72b6a1; stroke: #595959; stroke-linejoin: miter"/>
   </g>
   <g id="line2d_99">
    <path d="M 378.63646 308.081932 
L 378.63646 442.441302 
" clip-path="url(#p9b37cdfbdd)" style="fill: none; stroke: #595959"/>
   </g>
   <g id="line2d_100">
    <path d="M 378.63646 147.635081 
L 378.63646 100.572659 
" clip-path="url(#p9b37cdfbdd)" style="fill: none; stroke: #595959"/>
   </g>
   <g id="line2d_101">
    <path d="M 375.400108 442.441302 
L 381.872813 442.441302 
" clip-path="url(#p9b37cdfbdd)" style="fill: none; stroke: #595959; stroke-linecap: round"/>
   </g>
   <g id="line2d_102">
    <path d="M 375.400108 100.572659 
L 381.872813 100.572659 
" clip-path="url(#p9b37cdfbdd)" style="fill: none; stroke: #595959; stroke-linecap: round"/>
   </g>
   <g id="line2d_103"/>
   <g id="patch_21">
    <path d="M 390.657197 305.874743 
L 403.602605 305.874743 
L 403.602605 142.650267 
L 390.657197 142.650267 
L 390.657197 305.874743 
z
" clip-path="url(#p9b37cdfbdd)" style="fill: #72b6a1; stroke: #595959; stroke-linejoin: miter"/>
   </g>
   <g id="line2d_104">
    <path d="M 397.129901 305.874743 
L 397.129901 442.545333 
" clip-path="url(#p9b37cdfbdd)" style="fill: none; stroke: #595959"/>
   </g>
   <g id="line2d_105">
    <path d="M 397.129901 142.650267 
L 397.129901 98.931283 
" clip-path="url(#p9b37cdfbdd)" style="fill: none; stroke: #595959"/>
   </g>
   <g id="line2d_106">
    <path d="M 393.893549 442.545333 
L 400.366253 442.545333 
" clip-path="url(#p9b37cdfbdd)" style="fill: none; stroke: #595959; stroke-linecap: round"/>
   </g>
   <g id="line2d_107">
    <path d="M 393.893549 98.931283 
L 400.366253 98.931283 
" clip-path="url(#p9b37cdfbdd)" style="fill: none; stroke: #595959; stroke-linecap: round"/>
   </g>
   <g id="line2d_108"/>
   <g id="patch_22">
    <path d="M 409.150637 304.661049 
L 422.096046 304.661049 
L 422.096046 139.566907 
L 409.150637 139.566907 
L 409.150637 304.661049 
z
" clip-path="url(#p9b37cdfbdd)" style="fill: #72b6a1; stroke: #595959; stroke-linejoin: miter"/>
   </g>
   <g id="line2d_109">
    <path d="M 415.623342 304.661049 
L 415.623342 436.199448 
" clip-path="url(#p9b37cdfbdd)" style="fill: none; stroke: #595959"/>
   </g>
   <g id="line2d_110">
    <path d="M 415.623342 139.566907 
L 415.623342 96.139787 
" clip-path="url(#p9b37cdfbdd)" style="fill: none; stroke: #595959"/>
   </g>
   <g id="line2d_111">
    <path d="M 412.386989 436.199448 
L 418.859694 436.199448 
" clip-path="url(#p9b37cdfbdd)" style="fill: none; stroke: #595959; stroke-linecap: round"/>
   </g>
   <g id="line2d_112">
    <path d="M 412.386989 96.139787 
L 418.859694 96.139787 
" clip-path="url(#p9b37cdfbdd)" style="fill: none; stroke: #595959; stroke-linecap: round"/>
   </g>
   <g id="line2d_113"/>
   <g id="patch_23">
    <path d="M 427.644078 302.967079 
L 440.589486 302.967079 
L 440.589486 137.567202 
L 427.644078 137.567202 
L 427.644078 302.967079 
z
" clip-path="url(#p9b37cdfbdd)" style="fill: #72b6a1; stroke: #595959; stroke-linejoin: miter"/>
   </g>
   <g id="line2d_114">
    <path d="M 434.116782 302.967079 
L 434.116782 435.124462 
" clip-path="url(#p9b37cdfbdd)" style="fill: none; stroke: #595959"/>
   </g>
   <g id="line2d_115">
    <path d="M 434.116782 137.567202 
L 434.116782 91.215658 
" clip-path="url(#p9b37cdfbdd)" style="fill: none; stroke: #595959"/>
   </g>
   <g id="line2d_116">
    <path d="M 430.88043 435.124462 
L 437.353134 435.124462 
" clip-path="url(#p9b37cdfbdd)" style="fill: none; stroke: #595959; stroke-linecap: round"/>
   </g>
   <g id="line2d_117">
    <path d="M 430.88043 91.215658 
L 437.353134 91.215658 
" clip-path="url(#p9b37cdfbdd)" style="fill: none; stroke: #595959; stroke-linecap: round"/>
   </g>
   <g id="line2d_118"/>
   <g id="patch_24">
    <path d="M 446.137519 299.619018 
L 459.082927 299.619018 
L 459.082927 140.717026 
L 446.137519 140.717026 
L 446.137519 299.619018 
z
" clip-path="url(#p9b37cdfbdd)" style="fill: #72b6a1; stroke: #595959; stroke-linejoin: miter"/>
   </g>
   <g id="line2d_119">
    <path d="M 452.610223 299.619018 
L 452.610223 436.095417 
" clip-path="url(#p9b37cdfbdd)" style="fill: none; stroke: #595959"/>
   </g>
   <g id="line2d_120">
    <path d="M 452.610223 140.717026 
L 452.610223 88.961655 
" clip-path="url(#p9b37cdfbdd)" style="fill: none; stroke: #595959"/>
   </g>
   <g id="line2d_121">
    <path d="M 449.373871 436.095417 
L 455.846575 436.095417 
" clip-path="url(#p9b37cdfbdd)" style="fill: none; stroke: #595959; stroke-linecap: round"/>
   </g>
   <g id="line2d_122">
    <path d="M 449.373871 88.961655 
L 455.846575 88.961655 
" clip-path="url(#p9b37cdfbdd)" style="fill: none; stroke: #595959; stroke-linecap: round"/>
   </g>
   <g id="line2d_123"/>
   <g id="patch_25">
    <path d="M 464.630959 300.031674 
L 477.576368 300.031674 
L 477.576368 145.303055 
L 464.630959 145.303055 
L 464.630959 300.031674 
z
" clip-path="url(#p9b37cdfbdd)" style="fill: #72b6a1; stroke: #595959; stroke-linejoin: miter"/>
   </g>
   <g id="line2d_124">
    <path d="M 471.103663 300.031674 
L 471.103663 446.082383 
" clip-path="url(#p9b37cdfbdd)" style="fill: none; stroke: #595959"/>
   </g>
   <g id="line2d_125">
    <path d="M 471.103663 145.303055 
L 471.103663 85.216543 
" clip-path="url(#p9b37cdfbdd)" style="fill: none; stroke: #595959"/>
   </g>
   <g id="line2d_126">
    <path d="M 467.867311 446.082383 
L 474.340015 446.082383 
" clip-path="url(#p9b37cdfbdd)" style="fill: none; stroke: #595959; stroke-linecap: round"/>
   </g>
   <g id="line2d_127">
    <path d="M 467.867311 85.216543 
L 474.340015 85.216543 
" clip-path="url(#p9b37cdfbdd)" style="fill: none; stroke: #595959; stroke-linecap: round"/>
   </g>
   <g id="line2d_128"/>
   <g id="patch_26">
    <path d="M 483.1244 299.927643 
L 496.069808 299.927643 
L 496.069808 140.566759 
L 483.1244 140.566759 
L 483.1244 299.927643 
z
" clip-path="url(#p9b37cdfbdd)" style="fill: #72b6a1; stroke: #595959; stroke-linejoin: miter"/>
   </g>
   <g id="line2d_129">
    <path d="M 489.597104 299.927643 
L 489.597104 461.687018 
" clip-path="url(#p9b37cdfbdd)" style="fill: none; stroke: #595959"/>
   </g>
   <g id="line2d_130">
    <path d="M 489.597104 140.566759 
L 489.597104 83.066571 
" clip-path="url(#p9b37cdfbdd)" style="fill: none; stroke: #595959"/>
   </g>
   <g id="line2d_131">
    <path d="M 486.360752 461.687018 
L 492.833456 461.687018 
" clip-path="url(#p9b37cdfbdd)" style="fill: none; stroke: #595959; stroke-linecap: round"/>
   </g>
   <g id="line2d_132">
    <path d="M 486.360752 83.066571 
L 492.833456 83.066571 
" clip-path="url(#p9b37cdfbdd)" style="fill: none; stroke: #595959; stroke-linecap: round"/>
   </g>
   <g id="line2d_133"/>
   <g id="patch_27">
    <path d="M 501.61784 298.0967 
L 514.563249 298.0967 
L 514.563249 141.367219 
L 501.61784 141.367219 
L 501.61784 298.0967 
z
" clip-path="url(#p9b37cdfbdd)" style="fill: #72b6a1; stroke: #595959; stroke-linejoin: miter"/>
   </g>
   <g id="line2d_134">
    <path d="M 508.090545 298.0967 
L 508.090545 431.257981 
" clip-path="url(#p9b37cdfbdd)" style="fill: none; stroke: #595959"/>
   </g>
   <g id="line2d_135">
    <path d="M 508.090545 141.367219 
L 508.090545 84.523004 
" clip-path="url(#p9b37cdfbdd)" style="fill: none; stroke: #595959"/>
   </g>
   <g id="line2d_136">
    <path d="M 504.854192 431.257981 
L 511.326897 431.257981 
" clip-path="url(#p9b37cdfbdd)" style="fill: none; stroke: #595959; stroke-linecap: round"/>
   </g>
   <g id="line2d_137">
    <path d="M 504.854192 84.523004 
L 511.326897 84.523004 
" clip-path="url(#p9b37cdfbdd)" style="fill: none; stroke: #595959; stroke-linecap: round"/>
   </g>
   <g id="line2d_138"/>
   <g id="patch_28">
    <path d="M 520.111281 299.537528 
L 533.056689 299.537528 
L 533.056689 138.887816 
L 520.111281 138.887816 
L 520.111281 299.537528 
z
" clip-path="url(#p9b37cdfbdd)" style="fill: #72b6a1; stroke: #595959; stroke-linejoin: miter"/>
   </g>
   <g id="line2d_139">
    <path d="M 526.583985 299.537528 
L 526.583985 435.159139 
" clip-path="url(#p9b37cdfbdd)" style="fill: none; stroke: #595959"/>
   </g>
   <g id="line2d_140">
    <path d="M 526.583985 138.887816 
L 526.583985 83.18794 
" clip-path="url(#p9b37cdfbdd)" style="fill: none; stroke: #595959"/>
   </g>
   <g id="line2d_141">
    <path d="M 523.347633 435.159139 
L 529.820337 435.159139 
" clip-path="url(#p9b37cdfbdd)" style="fill: none; stroke: #595959; stroke-linecap: round"/>
   </g>
   <g id="line2d_142">
    <path d="M 523.347633 83.18794 
L 529.820337 83.18794 
" clip-path="url(#p9b37cdfbdd)" style="fill: none; stroke: #595959; stroke-linecap: round"/>
   </g>
   <g id="line2d_143"/>
   <g id="patch_29">
    <path d="M 538.604722 295.773343 
L 551.55013 295.773343 
L 551.55013 139.581355 
L 538.604722 139.581355 
L 538.604722 295.773343 
z
" clip-path="url(#p9b37cdfbdd)" style="fill: #72b6a1; stroke: #595959; stroke-linejoin: miter"/>
   </g>
   <g id="line2d_144">
    <path d="M 545.077426 295.773343 
L 545.077426 424.617342 
" clip-path="url(#p9b37cdfbdd)" style="fill: none; stroke: #595959"/>
   </g>
   <g id="line2d_145">
    <path d="M 545.077426 139.581355 
L 545.077426 75.350946 
" clip-path="url(#p9b37cdfbdd)" style="fill: none; stroke: #595959"/>
   </g>
   <g id="line2d_146">
    <path d="M 541.841074 424.617342 
L 548.313778 424.617342 
" clip-path="url(#p9b37cdfbdd)" style="fill: none; stroke: #595959; stroke-linecap: round"/>
   </g>
   <g id="line2d_147">
    <path d="M 541.841074 75.350946 
L 548.313778 75.350946 
" clip-path="url(#p9b37cdfbdd)" style="fill: none; stroke: #595959; stroke-linecap: round"/>
   </g>
   <g id="line2d_148"/>
   <g id="patch_30">
    <path d="M 557.098162 296.440875 
L 570.043571 296.440875 
L 570.043571 139.095878 
L 557.098162 139.095878 
L 557.098162 296.440875 
z
" clip-path="url(#p9b37cdfbdd)" style="fill: #72b6a1; stroke: #595959; stroke-linejoin: miter"/>
   </g>
   <g id="line2d_149">
    <path d="M 563.570866 296.440875 
L 563.570866 434.049476 
" clip-path="url(#p9b37cdfbdd)" style="fill: none; stroke: #595959"/>
   </g>
   <g id="line2d_150">
    <path d="M 563.570866 139.095878 
L 563.570866 79.234766 
" clip-path="url(#p9b37cdfbdd)" style="fill: none; stroke: #595959"/>
   </g>
   <g id="line2d_151">
    <path d="M 560.334514 434.049476 
L 566.807218 434.049476 
" clip-path="url(#p9b37cdfbdd)" style="fill: none; stroke: #595959; stroke-linecap: round"/>
   </g>
   <g id="line2d_152">
    <path d="M 560.334514 79.234766 
L 566.807218 79.234766 
" clip-path="url(#p9b37cdfbdd)" style="fill: none; stroke: #595959; stroke-linecap: round"/>
   </g>
   <g id="line2d_153"/>
   <g id="patch_31">
    <path d="M 575.591603 295.639259 
L 588.537011 295.639259 
L 588.537011 157.171246 
L 575.591603 157.171246 
L 575.591603 295.639259 
z
" clip-path="url(#p9b37cdfbdd)" style="fill: #72b6a1; stroke: #595959; stroke-linejoin: miter"/>
   </g>
   <g id="line2d_154">
    <path d="M 582.064307 295.639259 
L 582.064307 421.357707 
" clip-path="url(#p9b37cdfbdd)" style="fill: none; stroke: #595959"/>
   </g>
   <g id="line2d_155">
    <path d="M 582.064307 157.171246 
L 582.064307 74.934823 
" clip-path="url(#p9b37cdfbdd)" style="fill: none; stroke: #595959"/>
   </g>
   <g id="line2d_156">
    <path d="M 578.827955 421.357707 
L 585.300659 421.357707 
" clip-path="url(#p9b37cdfbdd)" style="fill: none; stroke: #595959; stroke-linecap: round"/>
   </g>
   <g id="line2d_157">
    <path d="M 578.827955 74.934823 
L 585.300659 74.934823 
" clip-path="url(#p9b37cdfbdd)" style="fill: none; stroke: #595959; stroke-linecap: round"/>
   </g>
   <g id="line2d_158"/>
   <g id="patch_32">
    <path d="M 594.085043 296.130516 
L 607.030452 296.130516 
L 607.030452 139.098768 
L 594.085043 139.098768 
L 594.085043 296.130516 
z
" clip-path="url(#p9b37cdfbdd)" style="fill: #72b6a1; stroke: #595959; stroke-linejoin: miter"/>
   </g>
   <g id="line2d_159">
    <path d="M 600.557748 296.130516 
L 600.557748 429.073332 
" clip-path="url(#p9b37cdfbdd)" style="fill: none; stroke: #595959"/>
   </g>
   <g id="line2d_160">
    <path d="M 600.557748 139.098768 
L 600.557748 73.02759 
" clip-path="url(#p9b37cdfbdd)" style="fill: none; stroke: #595959"/>
   </g>
   <g id="line2d_161">
    <path d="M 597.321395 429.073332 
L 603.7941 429.073332 
" clip-path="url(#p9b37cdfbdd)" style="fill: none; stroke: #595959; stroke-linecap: round"/>
   </g>
   <g id="line2d_162">
    <path d="M 597.321395 73.02759 
L 603.7941 73.02759 
" clip-path="url(#p9b37cdfbdd)" style="fill: none; stroke: #595959; stroke-linecap: round"/>
   </g>
   <g id="line2d_163"/>
   <g id="patch_33">
    <path d="M 612.578484 294.268363 
L 625.523892 294.268363 
L 625.523892 140.494515 
L 612.578484 140.494515 
L 612.578484 294.268363 
z
" clip-path="url(#p9b37cdfbdd)" style="fill: #72b6a1; stroke: #595959; stroke-linejoin: miter"/>
   </g>
   <g id="line2d_164">
    <path d="M 619.051188 294.268363 
L 619.051188 430.668472 
" clip-path="url(#p9b37cdfbdd)" style="fill: none; stroke: #595959"/>
   </g>
   <g id="line2d_165">
    <path d="M 619.051188 140.494515 
L 619.051188 71.345757 
" clip-path="url(#p9b37cdfbdd)" style="fill: none; stroke: #595959"/>
   </g>
   <g id="line2d_166">
    <path d="M 615.814836 430.668472 
L 622.28754 430.668472 
" clip-path="url(#p9b37cdfbdd)" style="fill: none; stroke: #595959; stroke-linecap: round"/>
   </g>
   <g id="line2d_167">
    <path d="M 615.814836 71.345757 
L 622.28754 71.345757 
" clip-path="url(#p9b37cdfbdd)" style="fill: none; stroke: #595959; stroke-linecap: round"/>
   </g>
   <g id="line2d_168"/>
   <g id="patch_34">
    <path d="M 631.071925 294.493185 
L 644.017333 294.493185 
L 644.017333 138.853139 
L 631.071925 138.853139 
L 631.071925 294.493185 
z
" clip-path="url(#p9b37cdfbdd)" style="fill: #72b6a1; stroke: #595959; stroke-linejoin: miter"/>
   </g>
   <g id="line2d_169">
    <path d="M 637.544629 294.493185 
L 637.544629 432.853121 
" clip-path="url(#p9b37cdfbdd)" style="fill: none; stroke: #595959"/>
   </g>
   <g id="line2d_170">
    <path d="M 637.544629 138.853139 
L 637.544629 68.883692 
" clip-path="url(#p9b37cdfbdd)" style="fill: none; stroke: #595959"/>
   </g>
   <g id="line2d_171">
    <path d="M 634.308277 432.853121 
L 640.780981 432.853121 
" clip-path="url(#p9b37cdfbdd)" style="fill: none; stroke: #595959; stroke-linecap: round"/>
   </g>
   <g id="line2d_172">
    <path d="M 634.308277 68.883692 
L 640.780981 68.883692 
" clip-path="url(#p9b37cdfbdd)" style="fill: none; stroke: #595959; stroke-linecap: round"/>
   </g>
   <g id="line2d_173"/>
   <g id="patch_35">
    <path d="M 649.565365 293.044266 
L 662.510774 293.044266 
L 662.510774 141.104252 
L 649.565365 141.104252 
L 649.565365 293.044266 
z
" clip-path="url(#p9b37cdfbdd)" style="fill: #72b6a1; stroke: #595959; stroke-linejoin: miter"/>
   </g>
   <g id="line2d_174">
    <path d="M 656.038069 293.044266 
L 656.038069 427.582222 
" clip-path="url(#p9b37cdfbdd)" style="fill: none; stroke: #595959"/>
   </g>
   <g id="line2d_175">
    <path d="M 656.038069 141.104252 
L 656.038069 68.554261 
" clip-path="url(#p9b37cdfbdd)" style="fill: none; stroke: #595959"/>
   </g>
   <g id="line2d_176">
    <path d="M 652.801717 427.582222 
L 659.274421 427.582222 
" clip-path="url(#p9b37cdfbdd)" style="fill: none; stroke: #595959; stroke-linecap: round"/>
   </g>
   <g id="line2d_177">
    <path d="M 652.801717 68.554261 
L 659.274421 68.554261 
" clip-path="url(#p9b37cdfbdd)" style="fill: none; stroke: #595959; stroke-linecap: round"/>
   </g>
   <g id="line2d_178"/>
   <g id="patch_36">
    <path d="M 668.058806 291.810344 
L 681.004214 291.810344 
L 681.004214 138.489031 
L 668.058806 138.489031 
L 668.058806 291.810344 
z
" clip-path="url(#p9b37cdfbdd)" style="fill: #72b6a1; stroke: #595959; stroke-linejoin: miter"/>
   </g>
   <g id="line2d_179">
    <path d="M 674.53151 291.810344 
L 674.53151 420.282721 
" clip-path="url(#p9b37cdfbdd)" style="fill: none; stroke: #595959"/>
   </g>
   <g id="line2d_180">
    <path d="M 674.53151 138.489031 
L 674.53151 67.011136 
" clip-path="url(#p9b37cdfbdd)" style="fill: none; stroke: #595959"/>
   </g>
   <g id="line2d_181">
    <path d="M 671.295158 420.282721 
L 677.767862 420.282721 
" clip-path="url(#p9b37cdfbdd)" style="fill: none; stroke: #595959; stroke-linecap: round"/>
   </g>
   <g id="line2d_182">
    <path d="M 671.295158 67.011136 
L 677.767862 67.011136 
" clip-path="url(#p9b37cdfbdd)" style="fill: none; stroke: #595959; stroke-linecap: round"/>
   </g>
   <g id="line2d_183"/>
   <g id="patch_37">
    <path d="M 686.552246 290.911632 
L 699.497655 290.911632 
L 699.497655 137.006591 
L 686.552246 137.006591 
L 686.552246 290.911632 
z
" clip-path="url(#p9b37cdfbdd)" style="fill: #72b6a1; stroke: #595959; stroke-linejoin: miter"/>
   </g>
   <g id="line2d_184">
    <path d="M 693.02495 290.911632 
L 693.02495 415.2719 
" clip-path="url(#p9b37cdfbdd)" style="fill: none; stroke: #595959"/>
   </g>
   <g id="line2d_185">
    <path d="M 693.02495 137.006591 
L 693.02495 66.941782 
" clip-path="url(#p9b37cdfbdd)" style="fill: none; stroke: #595959"/>
   </g>
   <g id="line2d_186">
    <path d="M 689.788598 415.2719 
L 696.261303 415.2719 
" clip-path="url(#p9b37cdfbdd)" style="fill: none; stroke: #595959; stroke-linecap: round"/>
   </g>
   <g id="line2d_187">
    <path d="M 689.788598 66.941782 
L 696.261303 66.941782 
" clip-path="url(#p9b37cdfbdd)" style="fill: none; stroke: #595959; stroke-linecap: round"/>
   </g>
   <g id="line2d_188"/>
   <g id="patch_38">
    <path d="M 705.045687 290.086321 
L 717.991095 290.086321 
L 717.991095 139.676717 
L 705.045687 139.676717 
L 705.045687 290.086321 
z
" clip-path="url(#p9b37cdfbdd)" style="fill: #72b6a1; stroke: #595959; stroke-linejoin: miter"/>
   </g>
   <g id="line2d_189">
    <path d="M 711.518391 290.086321 
L 711.518391 420.785537 
" clip-path="url(#p9b37cdfbdd)" style="fill: none; stroke: #595959"/>
   </g>
   <g id="line2d_190">
    <path d="M 711.518391 139.676717 
L 711.518391 65.520026 
" clip-path="url(#p9b37cdfbdd)" style="fill: none; stroke: #595959"/>
   </g>
   <g id="line2d_191">
    <path d="M 708.282039 420.785537 
L 714.754743 420.785537 
" clip-path="url(#p9b37cdfbdd)" style="fill: none; stroke: #595959; stroke-linecap: round"/>
   </g>
   <g id="line2d_192">
    <path d="M 708.282039 65.520026 
L 714.754743 65.520026 
" clip-path="url(#p9b37cdfbdd)" style="fill: none; stroke: #595959; stroke-linecap: round"/>
   </g>
   <g id="line2d_193"/>
   <g id="patch_39">
    <path d="M 723.539127 289.871323 
L 736.484536 289.871323 
L 736.484536 137.440053 
L 723.539127 137.440053 
L 723.539127 289.871323 
z
" clip-path="url(#p9b37cdfbdd)" style="fill: #72b6a1; stroke: #595959; stroke-linejoin: miter"/>
   </g>
   <g id="line2d_194">
    <path d="M 730.011832 289.871323 
L 730.011832 414.821099 
" clip-path="url(#p9b37cdfbdd)" style="fill: none; stroke: #595959"/>
   </g>
   <g id="line2d_195">
    <path d="M 730.011832 137.440053 
L 730.011832 63.630132 
" clip-path="url(#p9b37cdfbdd)" style="fill: none; stroke: #595959"/>
   </g>
   <g id="line2d_196">
    <path d="M 726.77548 414.821099 
L 733.248184 414.821099 
" clip-path="url(#p9b37cdfbdd)" style="fill: none; stroke: #595959; stroke-linecap: round"/>
   </g>
   <g id="line2d_197">
    <path d="M 726.77548 63.630132 
L 733.248184 63.630132 
" clip-path="url(#p9b37cdfbdd)" style="fill: none; stroke: #595959; stroke-linecap: round"/>
   </g>
   <g id="line2d_198"/>
   <g id="patch_40">
    <path d="M 742.032568 293.867844 
L 754.977976 293.867844 
L 754.977976 141.618627 
L 742.032568 141.618627 
L 742.032568 293.867844 
z
" clip-path="url(#p9b37cdfbdd)" style="fill: #72b6a1; stroke: #595959; stroke-linejoin: miter"/>
   </g>
   <g id="line2d_199">
    <path d="M 748.505272 293.867844 
L 748.505272 416.433578 
" clip-path="url(#p9b37cdfbdd)" style="fill: none; stroke: #595959"/>
   </g>
   <g id="line2d_200">
    <path d="M 748.505272 141.618627 
L 748.505272 61.965638 
" clip-path="url(#p9b37cdfbdd)" style="fill: none; stroke: #595959"/>
   </g>
   <g id="line2d_201">
    <path d="M 745.26892 416.433578 
L 751.741624 416.433578 
" clip-path="url(#p9b37cdfbdd)" style="fill: none; stroke: #595959; stroke-linecap: round"/>
   </g>
   <g id="line2d_202">
    <path d="M 745.26892 61.965638 
L 751.741624 61.965638 
" clip-path="url(#p9b37cdfbdd)" style="fill: none; stroke: #595959; stroke-linecap: round"/>
   </g>
   <g id="line2d_203"/>
   <g id="patch_41">
    <path d="M 760.526009 287.560971 
L 773.471417 287.560971 
L 773.471417 136.526893 
L 760.526009 136.526893 
L 760.526009 287.560971 
z
" clip-path="url(#p9b37cdfbdd)" style="fill: #72b6a1; stroke: #595959; stroke-linejoin: miter"/>
   </g>
   <g id="line2d_204">
    <path d="M 766.998713 287.560971 
L 766.998713 416.260193 
" clip-path="url(#p9b37cdfbdd)" style="fill: none; stroke: #595959"/>
   </g>
   <g id="line2d_205">
    <path d="M 766.998713 136.526893 
L 766.998713 60.231789 
" clip-path="url(#p9b37cdfbdd)" style="fill: none; stroke: #595959"/>
   </g>
   <g id="line2d_206">
    <path d="M 763.762361 416.260193 
L 770.235065 416.260193 
" clip-path="url(#p9b37cdfbdd)" style="fill: none; stroke: #595959; stroke-linecap: round"/>
   </g>
   <g id="line2d_207">
    <path d="M 763.762361 60.231789 
L 770.235065 60.231789 
" clip-path="url(#p9b37cdfbdd)" style="fill: none; stroke: #595959; stroke-linecap: round"/>
   </g>
   <g id="line2d_208"/>
   <g id="patch_42">
    <path d="M 779.019449 285.205538 
L 791.964858 285.205538 
L 791.964858 138.370551 
L 779.019449 138.370551 
L 779.019449 285.205538 
z
" clip-path="url(#p9b37cdfbdd)" style="fill: #72b6a1; stroke: #595959; stroke-linejoin: miter"/>
   </g>
   <g id="line2d_209">
    <path d="M 785.492153 285.205538 
L 785.492153 421.114968 
" clip-path="url(#p9b37cdfbdd)" style="fill: none; stroke: #595959"/>
   </g>
   <g id="line2d_210">
    <path d="M 785.492153 138.370551 
L 785.492153 59.76365 
" clip-path="url(#p9b37cdfbdd)" style="fill: none; stroke: #595959"/>
   </g>
   <g id="line2d_211">
    <path d="M 782.255801 421.114968 
L 788.728506 421.114968 
" clip-path="url(#p9b37cdfbdd)" style="fill: none; stroke: #595959; stroke-linecap: round"/>
   </g>
   <g id="line2d_212">
    <path d="M 782.255801 59.76365 
L 788.728506 59.76365 
" clip-path="url(#p9b37cdfbdd)" style="fill: none; stroke: #595959; stroke-linecap: round"/>
   </g>
   <g id="line2d_213"/>
   <g id="patch_43">
    <path d="M 797.51289 286.544069 
L 810.458298 286.544069 
L 810.458298 135.607953 
L 797.51289 135.607953 
L 797.51289 286.544069 
z
" clip-path="url(#p9b37cdfbdd)" style="fill: #72b6a1; stroke: #595959; stroke-linejoin: miter"/>
   </g>
   <g id="line2d_214">
    <path d="M 803.985594 286.544069 
L 803.985594 408.492553 
" clip-path="url(#p9b37cdfbdd)" style="fill: none; stroke: #595959"/>
   </g>
   <g id="line2d_215">
    <path d="M 803.985594 135.607953 
L 803.985594 58.411249 
" clip-path="url(#p9b37cdfbdd)" style="fill: none; stroke: #595959"/>
   </g>
   <g id="line2d_216">
    <path d="M 800.749242 408.492553 
L 807.221946 408.492553 
" clip-path="url(#p9b37cdfbdd)" style="fill: none; stroke: #595959; stroke-linecap: round"/>
   </g>
   <g id="line2d_217">
    <path d="M 800.749242 58.411249 
L 807.221946 58.411249 
" clip-path="url(#p9b37cdfbdd)" style="fill: none; stroke: #595959; stroke-linecap: round"/>
   </g>
   <g id="line2d_218"/>
   <g id="patch_44">
    <path d="M 816.00633 286.767735 
L 828.951739 286.767735 
L 828.951739 134.168859 
L 816.00633 134.168859 
L 816.00633 286.767735 
z
" clip-path="url(#p9b37cdfbdd)" style="fill: #72b6a1; stroke: #595959; stroke-linejoin: miter"/>
   </g>
   <g id="line2d_219">
    <path d="M 822.479035 286.767735 
L 822.479035 423.577033 
" clip-path="url(#p9b37cdfbdd)" style="fill: none; stroke: #595959"/>
   </g>
   <g id="line2d_220">
    <path d="M 822.479035 134.168859 
L 822.479035 58.792695 
" clip-path="url(#p9b37cdfbdd)" style="fill: none; stroke: #595959"/>
   </g>
   <g id="line2d_221">
    <path d="M 819.242683 423.577033 
L 825.715387 423.577033 
" clip-path="url(#p9b37cdfbdd)" style="fill: none; stroke: #595959; stroke-linecap: round"/>
   </g>
   <g id="line2d_222">
    <path d="M 819.242683 58.792695 
L 825.715387 58.792695 
" clip-path="url(#p9b37cdfbdd)" style="fill: none; stroke: #595959; stroke-linecap: round"/>
   </g>
   <g id="line2d_223"/>
   <g id="patch_45">
    <path d="M 834.499771 283.464754 
L 847.445179 283.464754 
L 847.445179 132.174934 
L 834.499771 132.174934 
L 834.499771 283.464754 
z
" clip-path="url(#p9b37cdfbdd)" style="fill: #72b6a1; stroke: #595959; stroke-linejoin: miter"/>
   </g>
   <g id="line2d_224">
    <path d="M 840.972475 283.464754 
L 840.972475 406.550643 
" clip-path="url(#p9b37cdfbdd)" style="fill: none; stroke: #595959"/>
   </g>
   <g id="line2d_225">
    <path d="M 840.972475 132.174934 
L 840.972475 55.810476 
" clip-path="url(#p9b37cdfbdd)" style="fill: none; stroke: #595959"/>
   </g>
   <g id="line2d_226">
    <path d="M 837.736123 406.550643 
L 844.208827 406.550643 
" clip-path="url(#p9b37cdfbdd)" style="fill: none; stroke: #595959; stroke-linecap: round"/>
   </g>
   <g id="line2d_227">
    <path d="M 837.736123 55.810476 
L 844.208827 55.810476 
" clip-path="url(#p9b37cdfbdd)" style="fill: none; stroke: #595959; stroke-linecap: round"/>
   </g>
   <g id="line2d_228"/>
   <g id="patch_46">
    <path d="M 852.993212 289.17345 
L 865.93862 289.17345 
L 865.93862 134.093726 
L 852.993212 134.093726 
L 852.993212 289.17345 
z
" clip-path="url(#p9b37cdfbdd)" style="fill: #72b6a1; stroke: #595959; stroke-linejoin: miter"/>
   </g>
   <g id="line2d_229">
    <path d="M 859.465916 289.17345 
L 859.465916 410.139709 
" clip-path="url(#p9b37cdfbdd)" style="fill: none; stroke: #595959"/>
   </g>
   <g id="line2d_230">
    <path d="M 859.465916 134.093726 
L 859.465916 60.283805 
" clip-path="url(#p9b37cdfbdd)" style="fill: none; stroke: #595959"/>
   </g>
   <g id="line2d_231">
    <path d="M 856.229564 410.139709 
L 862.702268 410.139709 
" clip-path="url(#p9b37cdfbdd)" style="fill: none; stroke: #595959; stroke-linecap: round"/>
   </g>
   <g id="line2d_232">
    <path d="M 856.229564 60.283805 
L 862.702268 60.283805 
" clip-path="url(#p9b37cdfbdd)" style="fill: none; stroke: #595959; stroke-linecap: round"/>
   </g>
   <g id="line2d_233"/>
   <g id="patch_47">
    <path d="M 871.486652 284.529337 
L 884.432061 284.529337 
L 884.432061 133.446422 
L 871.486652 133.446422 
L 871.486652 284.529337 
z
" clip-path="url(#p9b37cdfbdd)" style="fill: #72b6a1; stroke: #595959; stroke-linejoin: miter"/>
   </g>
   <g id="line2d_234">
    <path d="M 877.959356 284.529337 
L 877.959356 408.544568 
" clip-path="url(#p9b37cdfbdd)" style="fill: none; stroke: #595959"/>
   </g>
   <g id="line2d_235">
    <path d="M 877.959356 133.446422 
L 877.959356 56.434662 
" clip-path="url(#p9b37cdfbdd)" style="fill: none; stroke: #595959"/>
   </g>
   <g id="line2d_236">
    <path d="M 874.723004 408.544568 
L 881.195709 408.544568 
" clip-path="url(#p9b37cdfbdd)" style="fill: none; stroke: #595959; stroke-linecap: round"/>
   </g>
   <g id="line2d_237">
    <path d="M 874.723004 56.434662 
L 881.195709 56.434662 
" clip-path="url(#p9b37cdfbdd)" style="fill: none; stroke: #595959; stroke-linecap: round"/>
   </g>
   <g id="line2d_238"/>
   <g id="patch_48">
    <path d="M 889.980093 282.320414 
L 902.925501 282.320414 
L 902.925501 136.278374 
L 889.980093 136.278374 
L 889.980093 282.320414 
z
" clip-path="url(#p9b37cdfbdd)" style="fill: #72b6a1; stroke: #595959; stroke-linejoin: miter"/>
   </g>
   <g id="line2d_239">
    <path d="M 896.452797 282.320414 
L 896.452797 409.879631 
" clip-path="url(#p9b37cdfbdd)" style="fill: none; stroke: #595959"/>
   </g>
   <g id="line2d_240">
    <path d="M 896.452797 136.278374 
L 896.452797 57.232232 
" clip-path="url(#p9b37cdfbdd)" style="fill: none; stroke: #595959"/>
   </g>
   <g id="line2d_241">
    <path d="M 893.216445 409.879631 
L 899.689149 409.879631 
" clip-path="url(#p9b37cdfbdd)" style="fill: none; stroke: #595959; stroke-linecap: round"/>
   </g>
   <g id="line2d_242">
    <path d="M 893.216445 57.232232 
L 899.689149 57.232232 
" clip-path="url(#p9b37cdfbdd)" style="fill: none; stroke: #595959; stroke-linecap: round"/>
   </g>
   <g id="line2d_243"/>
   <g id="patch_49">
    <path d="M 908.473533 284.042126 
L 921.418942 284.042126 
L 921.418942 132.122918 
L 908.473533 132.122918 
L 908.473533 284.042126 
z
" clip-path="url(#p9b37cdfbdd)" style="fill: #72b6a1; stroke: #595959; stroke-linejoin: miter"/>
   </g>
   <g id="line2d_244">
    <path d="M 914.946238 284.042126 
L 914.946238 412.359035 
" clip-path="url(#p9b37cdfbdd)" style="fill: none; stroke: #595959"/>
   </g>
   <g id="line2d_245">
    <path d="M 914.946238 132.122918 
L 914.946238 54.406059 
" clip-path="url(#p9b37cdfbdd)" style="fill: none; stroke: #595959"/>
   </g>
   <g id="line2d_246">
    <path d="M 911.709886 412.359035 
L 918.18259 412.359035 
" clip-path="url(#p9b37cdfbdd)" style="fill: none; stroke: #595959; stroke-linecap: round"/>
   </g>
   <g id="line2d_247">
    <path d="M 911.709886 54.406059 
L 918.18259 54.406059 
" clip-path="url(#p9b37cdfbdd)" style="fill: none; stroke: #595959; stroke-linecap: round"/>
   </g>
   <g id="line2d_248"/>
   <g id="patch_50">
    <path d="M 926.966974 283.755174 
L 939.912382 283.755174 
L 939.912382 134.3827 
L 926.966974 134.3827 
L 926.966974 283.755174 
z
" clip-path="url(#p9b37cdfbdd)" style="fill: #72b6a1; stroke: #595959; stroke-linejoin: miter"/>
   </g>
   <g id="line2d_249">
    <path d="M 933.439678 283.755174 
L 933.439678 417.577918 
" clip-path="url(#p9b37cdfbdd)" style="fill: none; stroke: #595959"/>
   </g>
   <g id="line2d_250">
    <path d="M 933.439678 134.3827 
L 933.439678 54.943552 
" clip-path="url(#p9b37cdfbdd)" style="fill: none; stroke: #595959"/>
   </g>
   <g id="line2d_251">
    <path d="M 930.203326 417.577918 
L 936.67603 417.577918 
" clip-path="url(#p9b37cdfbdd)" style="fill: none; stroke: #595959; stroke-linecap: round"/>
   </g>
   <g id="line2d_252">
    <path d="M 930.203326 54.943552 
L 936.67603 54.943552 
" clip-path="url(#p9b37cdfbdd)" style="fill: none; stroke: #595959; stroke-linecap: round"/>
   </g>
   <g id="line2d_253"/>
   <g id="patch_51">
    <path d="M 945.460415 280.226792 
L 958.405823 280.226792 
L 958.405823 131.98999 
L 945.460415 131.98999 
L 945.460415 280.226792 
z
" clip-path="url(#p9b37cdfbdd)" style="fill: #72b6a1; stroke: #595959; stroke-linejoin: miter"/>
   </g>
   <g id="line2d_254">
    <path d="M 951.933119 280.226792 
L 951.933119 407.313536 
" clip-path="url(#p9b37cdfbdd)" style="fill: none; stroke: #595959"/>
   </g>
   <g id="line2d_255">
    <path d="M 951.933119 131.98999 
L 951.933119 53.123011 
" clip-path="url(#p9b37cdfbdd)" style="fill: none; stroke: #595959"/>
   </g>
   <g id="line2d_256">
    <path d="M 948.696767 407.313536 
L 955.169471 407.313536 
" clip-path="url(#p9b37cdfbdd)" style="fill: none; stroke: #595959; stroke-linecap: round"/>
   </g>
   <g id="line2d_257">
    <path d="M 948.696767 53.123011 
L 955.169471 53.123011 
" clip-path="url(#p9b37cdfbdd)" style="fill: none; stroke: #595959; stroke-linecap: round"/>
   </g>
   <g id="line2d_258"/>
   <g id="patch_52">
    <path d="M 963.953855 278.362039 
L 976.899264 278.362039 
L 976.899264 132.614175 
L 963.953855 132.614175 
L 963.953855 278.362039 
z
" clip-path="url(#p9b37cdfbdd)" style="fill: #72b6a1; stroke: #595959; stroke-linejoin: miter"/>
   </g>
   <g id="line2d_259">
    <path d="M 970.426559 278.362039 
L 970.426559 409.706247 
" clip-path="url(#p9b37cdfbdd)" style="fill: none; stroke: #595959"/>
   </g>
   <g id="line2d_260">
    <path d="M 970.426559 132.614175 
L 970.426559 54.908875 
" clip-path="url(#p9b37cdfbdd)" style="fill: none; stroke: #595959"/>
   </g>
   <g id="line2d_261">
    <path d="M 967.190207 409.706247 
L 973.662912 409.706247 
" clip-path="url(#p9b37cdfbdd)" style="fill: none; stroke: #595959; stroke-linecap: round"/>
   </g>
   <g id="line2d_262">
    <path d="M 967.190207 54.908875 
L 973.662912 54.908875 
" clip-path="url(#p9b37cdfbdd)" style="fill: none; stroke: #595959; stroke-linecap: round"/>
   </g>
   <g id="line2d_263"/>
   <g id="line2d_264">
    <path d="M 57.775266 411.542792 
L 70.720675 411.542792 
" clip-path="url(#p9b37cdfbdd)" style="fill: none; stroke: #595959"/>
   </g>
   <g id="line2d_265">
    <path d="M 76.268707 359.986492 
L 89.214115 359.986492 
" clip-path="url(#p9b37cdfbdd)" style="fill: none; stroke: #595959"/>
   </g>
   <g id="line2d_266">
    <path d="M 94.762147 333.763692 
L 107.707556 333.763692 
" clip-path="url(#p9b37cdfbdd)" style="fill: none; stroke: #595959"/>
   </g>
   <g id="line2d_267">
    <path d="M 113.255588 314.344592 
L 126.200996 314.344592 
" clip-path="url(#p9b37cdfbdd)" style="fill: none; stroke: #595959"/>
   </g>
   <g id="line2d_268">
    <path d="M 131.749028 279.343975 
L 144.694437 279.343975 
" clip-path="url(#p9b37cdfbdd)" style="fill: none; stroke: #595959"/>
   </g>
   <g id="line2d_269">
    <path d="M 150.242469 312.359336 
L 163.187877 312.359336 
" clip-path="url(#p9b37cdfbdd)" style="fill: none; stroke: #595959"/>
   </g>
   <g id="line2d_270">
    <path d="M 168.73591 300.42468 
L 181.681318 300.42468 
" clip-path="url(#p9b37cdfbdd)" style="fill: none; stroke: #595959"/>
   </g>
   <g id="line2d_271">
    <path d="M 187.22935 297.855695 
L 200.174759 297.855695 
" clip-path="url(#p9b37cdfbdd)" style="fill: none; stroke: #595959"/>
   </g>
   <g id="line2d_272">
    <path d="M 205.722791 275.957191 
L 218.668199 275.957191 
" clip-path="url(#p9b37cdfbdd)" style="fill: none; stroke: #595959"/>
   </g>
   <g id="line2d_273">
    <path d="M 224.216231 285.481798 
L 237.16164 285.481798 
" clip-path="url(#p9b37cdfbdd)" style="fill: none; stroke: #595959"/>
   </g>
   <g id="line2d_274">
    <path d="M 242.709672 270.441242 
L 255.65508 270.441242 
" clip-path="url(#p9b37cdfbdd)" style="fill: none; stroke: #595959"/>
   </g>
   <g id="line2d_275">
    <path d="M 261.203113 272.19474 
L 274.148521 272.19474 
" clip-path="url(#p9b37cdfbdd)" style="fill: none; stroke: #595959"/>
   </g>
   <g id="line2d_276">
    <path d="M 279.696553 259.381602 
L 292.641962 259.381602 
" clip-path="url(#p9b37cdfbdd)" style="fill: none; stroke: #595959"/>
   </g>
   <g id="line2d_277">
    <path d="M 298.189994 261.982374 
L 311.135402 261.982374 
" clip-path="url(#p9b37cdfbdd)" style="fill: none; stroke: #595959"/>
   </g>
   <g id="line2d_278">
    <path d="M 316.683434 262.450513 
L 329.628843 262.450513 
" clip-path="url(#p9b37cdfbdd)" style="fill: none; stroke: #595959"/>
   </g>
   <g id="line2d_279">
    <path d="M 335.176875 257.607297 
L 348.122283 257.607297 
" clip-path="url(#p9b37cdfbdd)" style="fill: none; stroke: #595959"/>
   </g>
   <g id="line2d_280">
    <path d="M 353.670316 257.098701 
L 366.615724 257.098701 
" clip-path="url(#p9b37cdfbdd)" style="fill: none; stroke: #595959"/>
   </g>
   <g id="line2d_281">
    <path d="M 372.163756 249.319502 
L 385.109165 249.319502 
" clip-path="url(#p9b37cdfbdd)" style="fill: none; stroke: #595959"/>
   </g>
   <g id="line2d_282">
    <path d="M 390.657197 250.047718 
L 403.602605 250.047718 
" clip-path="url(#p9b37cdfbdd)" style="fill: none; stroke: #595959"/>
   </g>
   <g id="line2d_283">
    <path d="M 409.150637 247.678126 
L 422.096046 247.678126 
" clip-path="url(#p9b37cdfbdd)" style="fill: none; stroke: #595959"/>
   </g>
   <g id="line2d_284">
    <path d="M 427.644078 240.586686 
L 440.589486 240.586686 
" clip-path="url(#p9b37cdfbdd)" style="fill: none; stroke: #595959"/>
   </g>
   <g id="line2d_285">
    <path d="M 446.137519 241.014369 
L 459.082927 241.014369 
" clip-path="url(#p9b37cdfbdd)" style="fill: none; stroke: #595959"/>
   </g>
   <g id="line2d_286">
    <path d="M 464.630959 237.587129 
L 477.576368 237.587129 
" clip-path="url(#p9b37cdfbdd)" style="fill: none; stroke: #595959"/>
   </g>
   <g id="line2d_287">
    <path d="M 483.1244 232.293112 
L 496.069808 232.293112 
" clip-path="url(#p9b37cdfbdd)" style="fill: none; stroke: #595959"/>
   </g>
   <g id="line2d_288">
    <path d="M 501.61784 233.627762 
L 514.563249 233.627762 
" clip-path="url(#p9b37cdfbdd)" style="fill: none; stroke: #595959"/>
   </g>
   <g id="line2d_289">
    <path d="M 520.111281 235.466054 
L 533.056689 235.466054 
" clip-path="url(#p9b37cdfbdd)" style="fill: none; stroke: #595959"/>
   </g>
   <g id="line2d_290">
    <path d="M 538.604722 229.794719 
L 551.55013 229.794719 
" clip-path="url(#p9b37cdfbdd)" style="fill: none; stroke: #595959"/>
   </g>
   <g id="line2d_291">
    <path d="M 557.098162 221.924699 
L 570.043571 221.924699 
" clip-path="url(#p9b37cdfbdd)" style="fill: none; stroke: #595959"/>
   </g>
   <g id="line2d_292">
    <path d="M 575.591603 225.328822 
L 588.537011 225.328822 
" clip-path="url(#p9b37cdfbdd)" style="fill: none; stroke: #595959"/>
   </g>
   <g id="line2d_293">
    <path d="M 594.085043 215.983379 
L 607.030452 215.983379 
" clip-path="url(#p9b37cdfbdd)" style="fill: none; stroke: #595959"/>
   </g>
   <g id="line2d_294">
    <path d="M 612.578484 215.559165 
L 625.523892 215.559165 
" clip-path="url(#p9b37cdfbdd)" style="fill: none; stroke: #595959"/>
   </g>
   <g id="line2d_295">
    <path d="M 631.071925 216.231898 
L 644.017333 216.231898 
" clip-path="url(#p9b37cdfbdd)" style="fill: none; stroke: #595959"/>
   </g>
   <g id="line2d_296">
    <path d="M 649.565365 212.973419 
L 662.510774 212.973419 
" clip-path="url(#p9b37cdfbdd)" style="fill: none; stroke: #595959"/>
   </g>
   <g id="line2d_297">
    <path d="M 668.058806 213.174545 
L 681.004214 213.174545 
" clip-path="url(#p9b37cdfbdd)" style="fill: none; stroke: #595959"/>
   </g>
   <g id="line2d_298">
    <path d="M 686.552246 216.842212 
L 699.497655 216.842212 
" clip-path="url(#p9b37cdfbdd)" style="fill: none; stroke: #595959"/>
   </g>
   <g id="line2d_299">
    <path d="M 705.045687 220.924847 
L 717.991095 220.924847 
" clip-path="url(#p9b37cdfbdd)" style="fill: none; stroke: #595959"/>
   </g>
   <g id="line2d_300">
    <path d="M 723.539127 212.283347 
L 736.484536 212.283347 
" clip-path="url(#p9b37cdfbdd)" style="fill: none; stroke: #595959"/>
   </g>
   <g id="line2d_301">
    <path d="M 742.032568 220.04174 
L 754.977976 220.04174 
" clip-path="url(#p9b37cdfbdd)" style="fill: none; stroke: #595959"/>
   </g>
   <g id="line2d_302">
    <path d="M 760.526009 208.025016 
L 773.471417 208.025016 
" clip-path="url(#p9b37cdfbdd)" style="fill: none; stroke: #595959"/>
   </g>
   <g id="line2d_303">
    <path d="M 779.019449 208.732426 
L 791.964858 208.732426 
" clip-path="url(#p9b37cdfbdd)" style="fill: none; stroke: #595959"/>
   </g>
   <g id="line2d_304">
    <path d="M 797.51289 214.47262 
L 810.458298 214.47262 
" clip-path="url(#p9b37cdfbdd)" style="fill: none; stroke: #595959"/>
   </g>
   <g id="line2d_305">
    <path d="M 816.00633 206.936159 
L 828.951739 206.936159 
" clip-path="url(#p9b37cdfbdd)" style="fill: none; stroke: #595959"/>
   </g>
   <g id="line2d_306">
    <path d="M 834.499771 209.518437 
L 847.445179 209.518437 
" clip-path="url(#p9b37cdfbdd)" style="fill: none; stroke: #595959"/>
   </g>
   <g id="line2d_307">
    <path d="M 852.993212 207.352283 
L 865.93862 207.352283 
" clip-path="url(#p9b37cdfbdd)" style="fill: none; stroke: #595959"/>
   </g>
   <g id="line2d_308">
    <path d="M 871.486652 213.608007 
L 884.432061 213.608007 
" clip-path="url(#p9b37cdfbdd)" style="fill: none; stroke: #595959"/>
   </g>
   <g id="line2d_309">
    <path d="M 889.980093 205.750207 
L 902.925501 205.750207 
" clip-path="url(#p9b37cdfbdd)" style="fill: none; stroke: #595959"/>
   </g>
   <g id="line2d_310">
    <path d="M 908.473533 209.044519 
L 921.418942 209.044519 
" clip-path="url(#p9b37cdfbdd)" style="fill: none; stroke: #595959"/>
   </g>
   <g id="line2d_311">
    <path d="M 926.966974 205.084409 
L 939.912382 205.084409 
" clip-path="url(#p9b37cdfbdd)" style="fill: none; stroke: #595959"/>
   </g>
   <g id="line2d_312">
    <path d="M 945.460415 204.924895 
L 958.405823 204.924895 
" clip-path="url(#p9b37cdfbdd)" style="fill: none; stroke: #595959"/>
   </g>
   <g id="line2d_313">
    <path d="M 963.953855 201.803968 
L 976.899264 201.803968 
" clip-path="url(#p9b37cdfbdd)" style="fill: none; stroke: #595959"/>
   </g>
   <g id="patch_53">
    <path d="M 55.00125 526.5 
L 55.00125 30.58125 
" style="fill: none; stroke: #cccccc; stroke-width: 1.25; stroke-linejoin: miter; stroke-linecap: square"/>
   </g>
   <g id="patch_54">
    <path d="M 988.92 526.5 
L 988.92 30.58125 
" style="fill: none; stroke: #cccccc; stroke-width: 1.25; stroke-linejoin: miter; stroke-linecap: square"/>
   </g>
   <g id="patch_55">
    <path d="M 55.00125 526.5 
L 988.92 526.5 
" style="fill: none; stroke: #cccccc; stroke-width: 1.25; stroke-linejoin: miter; stroke-linecap: square"/>
   </g>
   <g id="patch_56">
    <path d="M 55.00125 30.58125 
L 988.92 30.58125 
" style="fill: none; stroke: #cccccc; stroke-width: 1.25; stroke-linejoin: miter; stroke-linecap: square"/>
   </g>
   <g id="text_16">
    <!-- img-classification - cifar-10 (Accuracy_mean Distribution) -->
    <g style="fill: #262626" transform="translate(302.804375 24.58125) scale(0.16 -0.16)">
     <defs>
      <path id="Arial-BoldMT-69" d="M 459 3769 
L 459 4581 
L 1338 4581 
L 1338 3769 
L 459 3769 
z
M 459 0 
L 459 3319 
L 1338 3319 
L 1338 0 
L 459 0 
z
" transform="scale(0.015625)"/>
      <path id="Arial-BoldMT-6d" d="M 394 3319 
L 1203 3319 
L 1203 2866 
Q 1638 3394 2238 3394 
Q 2556 3394 2790 3262 
Q 3025 3131 3175 2866 
Q 3394 3131 3647 3262 
Q 3900 3394 4188 3394 
Q 4553 3394 4806 3245 
Q 5059 3097 5184 2809 
Q 5275 2597 5275 2122 
L 5275 0 
L 4397 0 
L 4397 1897 
Q 4397 2391 4306 2534 
Q 4184 2722 3931 2722 
Q 3747 2722 3584 2609 
Q 3422 2497 3350 2280 
Q 3278 2063 3278 1594 
L 3278 0 
L 2400 0 
L 2400 1819 
Q 2400 2303 2353 2443 
Q 2306 2584 2207 2653 
Q 2109 2722 1941 2722 
Q 1738 2722 1575 2612 
Q 1413 2503 1342 2297 
Q 1272 2091 1272 1613 
L 1272 0 
L 394 0 
L 394 3319 
z
" transform="scale(0.015625)"/>
      <path id="Arial-BoldMT-67" d="M 378 -219 
L 1381 -341 
Q 1406 -516 1497 -581 
Q 1622 -675 1891 -675 
Q 2234 -675 2406 -572 
Q 2522 -503 2581 -350 
Q 2622 -241 2622 53 
L 2622 538 
Q 2228 0 1628 0 
Q 959 0 569 566 
Q 263 1013 263 1678 
Q 263 2513 664 2953 
Q 1066 3394 1663 3394 
Q 2278 3394 2678 2853 
L 2678 3319 
L 3500 3319 
L 3500 341 
Q 3500 -247 3403 -537 
Q 3306 -828 3131 -993 
Q 2956 -1159 2664 -1253 
Q 2372 -1347 1925 -1347 
Q 1081 -1347 728 -1058 
Q 375 -769 375 -325 
Q 375 -281 378 -219 
z
M 1163 1728 
Q 1163 1200 1367 954 
Q 1572 709 1872 709 
Q 2194 709 2416 961 
Q 2638 1213 2638 1706 
Q 2638 2222 2425 2472 
Q 2213 2722 1888 2722 
Q 1572 2722 1367 2476 
Q 1163 2231 1163 1728 
z
" transform="scale(0.015625)"/>
      <path id="Arial-BoldMT-2d" d="M 359 1222 
L 359 2100 
L 2084 2100 
L 2084 1222 
L 359 1222 
z
" transform="scale(0.015625)"/>
      <path id="Arial-BoldMT-63" d="M 3353 2338 
L 2488 2181 
Q 2444 2441 2289 2572 
Q 2134 2703 1888 2703 
Q 1559 2703 1364 2476 
Q 1169 2250 1169 1719 
Q 1169 1128 1367 884 
Q 1566 641 1900 641 
Q 2150 641 2309 783 
Q 2469 925 2534 1272 
L 3397 1125 
Q 3263 531 2881 228 
Q 2500 -75 1859 -75 
Q 1131 -75 698 384 
Q 266 844 266 1656 
Q 266 2478 700 2936 
Q 1134 3394 1875 3394 
Q 2481 3394 2839 3133 
Q 3197 2872 3353 2338 
z
" transform="scale(0.015625)"/>
      <path id="Arial-BoldMT-6c" d="M 459 0 
L 459 4581 
L 1338 4581 
L 1338 0 
L 459 0 
z
" transform="scale(0.015625)"/>
      <path id="Arial-BoldMT-61" d="M 1116 2306 
L 319 2450 
Q 453 2931 781 3162 
Q 1109 3394 1756 3394 
Q 2344 3394 2631 3255 
Q 2919 3116 3036 2902 
Q 3153 2688 3153 2116 
L 3144 1091 
Q 3144 653 3186 445 
Q 3228 238 3344 0 
L 2475 0 
Q 2441 88 2391 259 
Q 2369 338 2359 363 
Q 2134 144 1878 34 
Q 1622 -75 1331 -75 
Q 819 -75 523 203 
Q 228 481 228 906 
Q 228 1188 362 1408 
Q 497 1628 739 1745 
Q 981 1863 1438 1950 
Q 2053 2066 2291 2166 
L 2291 2253 
Q 2291 2506 2166 2614 
Q 2041 2722 1694 2722 
Q 1459 2722 1328 2630 
Q 1197 2538 1116 2306 
z
M 2291 1594 
Q 2122 1538 1756 1459 
Q 1391 1381 1278 1306 
Q 1106 1184 1106 997 
Q 1106 813 1243 678 
Q 1381 544 1594 544 
Q 1831 544 2047 700 
Q 2206 819 2256 991 
Q 2291 1103 2291 1419 
L 2291 1594 
z
" transform="scale(0.015625)"/>
      <path id="Arial-BoldMT-73" d="M 150 947 
L 1031 1081 
Q 1088 825 1259 692 
Q 1431 559 1741 559 
Q 2081 559 2253 684 
Q 2369 772 2369 919 
Q 2369 1019 2306 1084 
Q 2241 1147 2013 1200 
Q 950 1434 666 1628 
Q 272 1897 272 2375 
Q 272 2806 612 3100 
Q 953 3394 1669 3394 
Q 2350 3394 2681 3172 
Q 3013 2950 3138 2516 
L 2309 2363 
Q 2256 2556 2107 2659 
Q 1959 2763 1684 2763 
Q 1338 2763 1188 2666 
Q 1088 2597 1088 2488 
Q 1088 2394 1175 2328 
Q 1294 2241 1995 2081 
Q 2697 1922 2975 1691 
Q 3250 1456 3250 1038 
Q 3250 581 2869 253 
Q 2488 -75 1741 -75 
Q 1063 -75 667 200 
Q 272 475 150 947 
z
" transform="scale(0.015625)"/>
      <path id="Arial-BoldMT-66" d="M 75 3319 
L 563 3319 
L 563 3569 
Q 563 3988 652 4194 
Q 741 4400 980 4529 
Q 1219 4659 1584 4659 
Q 1959 4659 2319 4547 
L 2200 3934 
Q 1991 3984 1797 3984 
Q 1606 3984 1523 3895 
Q 1441 3806 1441 3553 
L 1441 3319 
L 2097 3319 
L 2097 2628 
L 1441 2628 
L 1441 0 
L 563 0 
L 563 2628 
L 75 2628 
L 75 3319 
z
" transform="scale(0.015625)"/>
      <path id="Arial-BoldMT-74" d="M 1981 3319 
L 1981 2619 
L 1381 2619 
L 1381 1281 
Q 1381 875 1398 808 
Q 1416 741 1477 697 
Q 1538 653 1625 653 
Q 1747 653 1978 738 
L 2053 56 
Q 1747 -75 1359 -75 
Q 1122 -75 931 4 
Q 741 84 652 211 
Q 563 338 528 553 
Q 500 706 500 1172 
L 500 2619 
L 97 2619 
L 97 3319 
L 500 3319 
L 500 3978 
L 1381 4491 
L 1381 3319 
L 1981 3319 
z
" transform="scale(0.015625)"/>
      <path id="Arial-BoldMT-6f" d="M 256 1706 
Q 256 2144 472 2553 
Q 688 2963 1083 3178 
Q 1478 3394 1966 3394 
Q 2719 3394 3200 2905 
Q 3681 2416 3681 1669 
Q 3681 916 3195 420 
Q 2709 -75 1972 -75 
Q 1516 -75 1102 131 
Q 688 338 472 736 
Q 256 1134 256 1706 
z
M 1156 1659 
Q 1156 1166 1390 903 
Q 1625 641 1969 641 
Q 2313 641 2545 903 
Q 2778 1166 2778 1666 
Q 2778 2153 2545 2415 
Q 2313 2678 1969 2678 
Q 1625 2678 1390 2415 
Q 1156 2153 1156 1659 
z
" transform="scale(0.015625)"/>
      <path id="Arial-BoldMT-6e" d="M 3478 0 
L 2600 0 
L 2600 1694 
Q 2600 2231 2544 2389 
Q 2488 2547 2361 2634 
Q 2234 2722 2056 2722 
Q 1828 2722 1647 2597 
Q 1466 2472 1398 2265 
Q 1331 2059 1331 1503 
L 1331 0 
L 453 0 
L 453 3319 
L 1269 3319 
L 1269 2831 
Q 1703 3394 2363 3394 
Q 2653 3394 2893 3289 
Q 3134 3184 3257 3021 
Q 3381 2859 3429 2653 
Q 3478 2447 3478 2063 
L 3478 0 
z
" transform="scale(0.015625)"/>
      <path id="Arial-BoldMT-20" transform="scale(0.015625)"/>
      <path id="Arial-BoldMT-72" d="M 1300 0 
L 422 0 
L 422 3319 
L 1238 3319 
L 1238 2847 
Q 1447 3181 1614 3287 
Q 1781 3394 1994 3394 
Q 2294 3394 2572 3228 
L 2300 2463 
Q 2078 2606 1888 2606 
Q 1703 2606 1575 2504 
Q 1447 2403 1373 2137 
Q 1300 1872 1300 1025 
L 1300 0 
z
" transform="scale(0.015625)"/>
      <path id="Arial-BoldMT-31" d="M 2519 0 
L 1641 0 
L 1641 3309 
Q 1159 2859 506 2644 
L 506 3441 
Q 850 3553 1253 3867 
Q 1656 4181 1806 4600 
L 2519 4600 
L 2519 0 
z
" transform="scale(0.015625)"/>
      <path id="Arial-BoldMT-30" d="M 1756 4600 
Q 2422 4600 2797 4125 
Q 3244 3563 3244 2259 
Q 3244 959 2794 391 
Q 2422 -78 1756 -78 
Q 1088 -78 678 436 
Q 269 950 269 2269 
Q 269 3563 719 4131 
Q 1091 4600 1756 4600 
z
M 1756 3872 
Q 1597 3872 1472 3770 
Q 1347 3669 1278 3406 
Q 1188 3066 1188 2259 
Q 1188 1453 1269 1151 
Q 1350 850 1473 750 
Q 1597 650 1756 650 
Q 1916 650 2041 751 
Q 2166 853 2234 1116 
Q 2325 1453 2325 2259 
Q 2325 3066 2244 3367 
Q 2163 3669 2039 3770 
Q 1916 3872 1756 3872 
z
" transform="scale(0.015625)"/>
      <path id="Arial-BoldMT-28" d="M 1916 -1347 
L 1313 -1347 
Q 834 -625 584 153 
Q 334 931 334 1659 
Q 334 2563 644 3369 
Q 913 4069 1325 4659 
L 1925 4659 
Q 1497 3713 1336 3048 
Q 1175 2384 1175 1641 
Q 1175 1128 1270 590 
Q 1366 53 1531 -431 
Q 1641 -750 1916 -1347 
z
" transform="scale(0.015625)"/>
      <path id="Arial-BoldMT-41" d="M 4597 0 
L 3591 0 
L 3191 1041 
L 1359 1041 
L 981 0 
L 0 0 
L 1784 4581 
L 2763 4581 
L 4597 0 
z
M 2894 1813 
L 2263 3513 
L 1644 1813 
L 2894 1813 
z
" transform="scale(0.015625)"/>
      <path id="Arial-BoldMT-75" d="M 2644 0 
L 2644 497 
Q 2463 231 2167 78 
Q 1872 -75 1544 -75 
Q 1209 -75 943 72 
Q 678 219 559 484 
Q 441 750 441 1219 
L 441 3319 
L 1319 3319 
L 1319 1794 
Q 1319 1094 1367 936 
Q 1416 778 1544 686 
Q 1672 594 1869 594 
Q 2094 594 2272 717 
Q 2450 841 2515 1023 
Q 2581 1206 2581 1919 
L 2581 3319 
L 3459 3319 
L 3459 0 
L 2644 0 
z
" transform="scale(0.015625)"/>
      <path id="Arial-BoldMT-79" d="M 44 3319 
L 978 3319 
L 1772 963 
L 2547 3319 
L 3456 3319 
L 2284 125 
L 2075 -453 
Q 1959 -744 1854 -897 
Q 1750 -1050 1614 -1145 
Q 1478 -1241 1279 -1294 
Q 1081 -1347 831 -1347 
Q 578 -1347 334 -1294 
L 256 -606 
Q 463 -647 628 -647 
Q 934 -647 1081 -467 
Q 1228 -288 1306 -9 
L 44 3319 
z
" transform="scale(0.015625)"/>
      <path id="Arial-BoldMT-5f" d="M -59 -1266 
L -59 -697 
L 3591 -697 
L 3591 -1266 
L -59 -1266 
z
" transform="scale(0.015625)"/>
      <path id="Arial-BoldMT-65" d="M 2381 1056 
L 3256 909 
Q 3088 428 2723 176 
Q 2359 -75 1813 -75 
Q 947 -75 531 491 
Q 203 944 203 1634 
Q 203 2459 634 2926 
Q 1066 3394 1725 3394 
Q 2466 3394 2894 2905 
Q 3322 2416 3303 1406 
L 1103 1406 
Q 1113 1016 1316 798 
Q 1519 581 1822 581 
Q 2028 581 2168 693 
Q 2309 806 2381 1056 
z
M 2431 1944 
Q 2422 2325 2234 2523 
Q 2047 2722 1778 2722 
Q 1491 2722 1303 2513 
Q 1116 2303 1119 1944 
L 2431 1944 
z
" transform="scale(0.015625)"/>
      <path id="Arial-BoldMT-44" d="M 463 4581 
L 2153 4581 
Q 2725 4581 3025 4494 
Q 3428 4375 3715 4072 
Q 4003 3769 4153 3330 
Q 4303 2891 4303 2247 
Q 4303 1681 4163 1272 
Q 3991 772 3672 463 
Q 3431 228 3022 97 
Q 2716 0 2203 0 
L 463 0 
L 463 4581 
z
M 1388 3806 
L 1388 772 
L 2078 772 
Q 2466 772 2638 816 
Q 2863 872 3011 1006 
Q 3159 1141 3253 1448 
Q 3347 1756 3347 2288 
Q 3347 2819 3253 3103 
Q 3159 3388 2990 3547 
Q 2822 3706 2563 3763 
Q 2369 3806 1803 3806 
L 1388 3806 
z
" transform="scale(0.015625)"/>
      <path id="Arial-BoldMT-62" d="M 422 0 
L 422 4581 
L 1300 4581 
L 1300 2931 
Q 1706 3394 2263 3394 
Q 2869 3394 3266 2955 
Q 3663 2516 3663 1694 
Q 3663 844 3258 384 
Q 2853 -75 2275 -75 
Q 1991 -75 1714 67 
Q 1438 209 1238 488 
L 1238 0 
L 422 0 
z
M 1294 1731 
Q 1294 1216 1456 969 
Q 1684 619 2063 619 
Q 2353 619 2558 867 
Q 2763 1116 2763 1650 
Q 2763 2219 2556 2470 
Q 2350 2722 2028 2722 
Q 1713 2722 1503 2476 
Q 1294 2231 1294 1731 
z
" transform="scale(0.015625)"/>
      <path id="Arial-BoldMT-29" d="M 216 -1347 
Q 475 -791 581 -494 
Q 688 -197 778 190 
Q 869 578 912 926 
Q 956 1275 956 1641 
Q 956 2384 797 3048 
Q 638 3713 209 4659 
L 806 4659 
Q 1278 3988 1539 3234 
Q 1800 2481 1800 1706 
Q 1800 1053 1594 306 
Q 1359 -531 822 -1347 
L 216 -1347 
z
" transform="scale(0.015625)"/>
     </defs>
     <use xlink:href="#Arial-BoldMT-69"/>
     <use xlink:href="#Arial-BoldMT-6d" transform="translate(27.783203 0)"/>
     <use xlink:href="#Arial-BoldMT-67" transform="translate(116.699219 0)"/>
     <use xlink:href="#Arial-BoldMT-2d" transform="translate(177.783203 0)"/>
     <use xlink:href="#Arial-BoldMT-63" transform="translate(211.083984 0)"/>
     <use xlink:href="#Arial-BoldMT-6c" transform="translate(266.699219 0)"/>
     <use xlink:href="#Arial-BoldMT-61" transform="translate(294.482422 0)"/>
     <use xlink:href="#Arial-BoldMT-73" transform="translate(350.097656 0)"/>
     <use xlink:href="#Arial-BoldMT-73" transform="translate(405.712891 0)"/>
     <use xlink:href="#Arial-BoldMT-69" transform="translate(461.328125 0)"/>
     <use xlink:href="#Arial-BoldMT-66" transform="translate(489.111328 0)"/>
     <use xlink:href="#Arial-BoldMT-69" transform="translate(522.412109 0)"/>
     <use xlink:href="#Arial-BoldMT-63" transform="translate(550.195312 0)"/>
     <use xlink:href="#Arial-BoldMT-61" transform="translate(605.810547 0)"/>
     <use xlink:href="#Arial-BoldMT-74" transform="translate(661.425781 0)"/>
     <use xlink:href="#Arial-BoldMT-69" transform="translate(694.726562 0)"/>
     <use xlink:href="#Arial-BoldMT-6f" transform="translate(722.509766 0)"/>
     <use xlink:href="#Arial-BoldMT-6e" transform="translate(783.59375 0)"/>
     <use xlink:href="#Arial-BoldMT-20" transform="translate(844.677734 0)"/>
     <use xlink:href="#Arial-BoldMT-2d" transform="translate(872.460938 0)"/>
     <use xlink:href="#Arial-BoldMT-20" transform="translate(905.761719 0)"/>
     <use xlink:href="#Arial-BoldMT-63" transform="translate(933.544922 0)"/>
     <use xlink:href="#Arial-BoldMT-69" transform="translate(989.160156 0)"/>
     <use xlink:href="#Arial-BoldMT-66" transform="translate(1016.943359 0)"/>
     <use xlink:href="#Arial-BoldMT-61" transform="translate(1050.244141 0)"/>
     <use xlink:href="#Arial-BoldMT-72" transform="translate(1105.859375 0)"/>
     <use xlink:href="#Arial-BoldMT-2d" transform="translate(1144.775391 0)"/>
     <use xlink:href="#Arial-BoldMT-31" transform="translate(1178.076172 0)"/>
     <use xlink:href="#Arial-BoldMT-30" transform="translate(1233.691406 0)"/>
     <use xlink:href="#Arial-BoldMT-20" transform="translate(1289.306641 0)"/>
     <use xlink:href="#Arial-BoldMT-28" transform="translate(1317.089844 0)"/>
     <use xlink:href="#Arial-BoldMT-41" transform="translate(1350.390625 0)"/>
     <use xlink:href="#Arial-BoldMT-63" transform="translate(1422.607422 0)"/>
     <use xlink:href="#Arial-BoldMT-63" transform="translate(1478.222656 0)"/>
     <use xlink:href="#Arial-BoldMT-75" transform="translate(1533.837891 0)"/>
     <use xlink:href="#Arial-BoldMT-72" transform="translate(1594.921875 0)"/>
     <use xlink:href="#Arial-BoldMT-61" transform="translate(1633.837891 0)"/>
     <use xlink:href="#Arial-BoldMT-63" transform="translate(1689.453125 0)"/>
     <use xlink:href="#Arial-BoldMT-79" transform="translate(1745.068359 0)"/>
     <use xlink:href="#Arial-BoldMT-5f" transform="translate(1800.683594 0)"/>
     <use xlink:href="#Arial-BoldMT-6d" transform="translate(1856.298828 0)"/>
     <use xlink:href="#Arial-BoldMT-65" transform="translate(1945.214844 0)"/>
     <use xlink:href="#Arial-BoldMT-61" transform="translate(2000.830078 0)"/>
     <use xlink:href="#Arial-BoldMT-6e" transform="translate(2056.445312 0)"/>
     <use xlink:href="#Arial-BoldMT-20" transform="translate(2117.529297 0)"/>
     <use xlink:href="#Arial-BoldMT-44" transform="translate(2145.3125 0)"/>
     <use xlink:href="#Arial-BoldMT-69" transform="translate(2217.529297 0)"/>
     <use xlink:href="#Arial-BoldMT-73" transform="translate(2245.3125 0)"/>
     <use xlink:href="#Arial-BoldMT-74" transform="translate(2300.927734 0)"/>
     <use xlink:href="#Arial-BoldMT-72" transform="translate(2334.228516 0)"/>
     <use xlink:href="#Arial-BoldMT-69" transform="translate(2373.144531 0)"/>
     <use xlink:href="#Arial-BoldMT-62" transform="translate(2400.927734 0)"/>
     <use xlink:href="#Arial-BoldMT-75" transform="translate(2462.011719 0)"/>
     <use xlink:href="#Arial-BoldMT-74" transform="translate(2523.095703 0)"/>
     <use xlink:href="#Arial-BoldMT-69" transform="translate(2556.396484 0)"/>
     <use xlink:href="#Arial-BoldMT-6f" transform="translate(2584.179688 0)"/>
     <use xlink:href="#Arial-BoldMT-6e" transform="translate(2645.263672 0)"/>
     <use xlink:href="#Arial-BoldMT-29" transform="translate(2706.347656 0)"/>
    </g>
   </g>
  </g>
 </g>
 <defs>
  <clipPath id="p9b37cdfbdd">
   <rect x="55.00125" y="30.58125" width="933.91875" height="495.91875"/>
  </clipPath>
 </defs>
</svg>
