<?xml version="1.0" encoding="utf-8" standalone="no"?>
<!DOCTYPE svg PUBLIC "-//W3C//DTD SVG 1.1//EN"
  "http://www.w3.org/Graphics/SVG/1.1/DTD/svg11.dtd">
<svg xmlns:xlink="http://www.w3.org/1999/xlink" width="1008pt" height="576pt" viewBox="0 0 1008 576" xmlns="http://www.w3.org/2000/svg" version="1.1">
 <metadata>
  <rdf:RDF xmlns:dc="http://purl.org/dc/elements/1.1/" xmlns:cc="http://creativecommons.org/ns#" xmlns:rdf="http://www.w3.org/1999/02/22-rdf-syntax-ns#">
   <cc:Work>
    <dc:type rdf:resource="http://purl.org/dc/dcmitype/StillImage"/>
    <dc:date>2025-03-27T13:59:58.083804</dc:date>
    <dc:format>image/svg+xml</dc:format>
    <dc:creator>
     <cc:Agent>
      <dc:title>Matplotlib v3.10.1, https://matplotlib.org/</dc:title>
     </cc:Agent>
    </dc:creator>
   </cc:Work>
  </rdf:RDF>
 </metadata>
 <defs>
  <style type="text/css">*{stroke-linejoin: round; stroke-linecap: butt}</style>
 </defs>
 <g id="figure_1">
  <g id="patch_1">
   <path d="M 0 576 
L 1008 576 
L 1008 0 
L 0 0 
z
" style="fill: #ffffff"/>
  </g>
  <g id="axes_1">
   <g id="patch_2">
    <path d="M 64.53 525.06 
L 988.11 525.06 
L 988.11 30.48 
L 64.53 30.48 
z
" style="fill: #ffffff"/>
   </g>
   <g id="matplotlib.axis_1">
    <g id="xtick_1">
     <g id="line2d_1">
      <path d="M 73.674356 525.06 
L 73.674356 30.48 
" clip-path="url(#pc9d0665c81)" style="fill: none; stroke-dasharray: 3.7,1.6; stroke-dashoffset: 0; stroke: #cccccc; stroke-opacity: 0.5"/>
     </g>
     <g id="text_1">
      <!-- 0 -->
      <g style="fill: #262626" transform="translate(70.174981 542.918281) scale(0.11 -0.11)">
       <defs>
        <path id="DejaVuSans-30" d="M 2034 4250 
Q 1547 4250 1301 3770 
Q 1056 3291 1056 2328 
Q 1056 1369 1301 889 
Q 1547 409 2034 409 
Q 2525 409 2770 889 
Q 3016 1369 3016 2328 
Q 3016 3291 2770 3770 
Q 2525 4250 2034 4250 
z
M 2034 4750 
Q 2819 4750 3233 4129 
Q 3647 3509 3647 2328 
Q 3647 1150 3233 529 
Q 2819 -91 2034 -91 
Q 1250 -91 836 529 
Q 422 1150 422 2328 
Q 422 3509 836 4129 
Q 1250 4750 2034 4750 
z
" transform="scale(0.015625)"/>
       </defs>
       <use xlink:href="#DejaVuSans-30"/>
      </g>
     </g>
    </g>
    <g id="xtick_2">
     <g id="line2d_2">
      <path d="M 256.561485 525.06 
L 256.561485 30.48 
" clip-path="url(#pc9d0665c81)" style="fill: none; stroke-dasharray: 3.7,1.6; stroke-dashoffset: 0; stroke: #cccccc; stroke-opacity: 0.5"/>
     </g>
     <g id="text_2">
      <!-- 10 -->
      <g style="fill: #262626" transform="translate(249.562735 542.918281) scale(0.11 -0.11)">
       <defs>
        <path id="DejaVuSans-31" d="M 794 531 
L 1825 531 
L 1825 4091 
L 703 3866 
L 703 4441 
L 1819 4666 
L 2450 4666 
L 2450 531 
L 3481 531 
L 3481 0 
L 794 0 
L 794 531 
z
" transform="scale(0.015625)"/>
       </defs>
       <use xlink:href="#DejaVuSans-31"/>
       <use xlink:href="#DejaVuSans-30" transform="translate(63.623047 0)"/>
      </g>
     </g>
    </g>
    <g id="xtick_3">
     <g id="line2d_3">
      <path d="M 439.448614 525.06 
L 439.448614 30.48 
" clip-path="url(#pc9d0665c81)" style="fill: none; stroke-dasharray: 3.7,1.6; stroke-dashoffset: 0; stroke: #cccccc; stroke-opacity: 0.5"/>
     </g>
     <g id="text_3">
      <!-- 20 -->
      <g style="fill: #262626" transform="translate(432.449864 542.918281) scale(0.11 -0.11)">
       <defs>
        <path id="DejaVuSans-32" d="M 1228 531 
L 3431 531 
L 3431 0 
L 469 0 
L 469 531 
Q 828 903 1448 1529 
Q 2069 2156 2228 2338 
Q 2531 2678 2651 2914 
Q 2772 3150 2772 3378 
Q 2772 3750 2511 3984 
Q 2250 4219 1831 4219 
Q 1534 4219 1204 4116 
Q 875 4013 500 3803 
L 500 4441 
Q 881 4594 1212 4672 
Q 1544 4750 1819 4750 
Q 2544 4750 2975 4387 
Q 3406 4025 3406 3419 
Q 3406 3131 3298 2873 
Q 3191 2616 2906 2266 
Q 2828 2175 2409 1742 
Q 1991 1309 1228 531 
z
" transform="scale(0.015625)"/>
       </defs>
       <use xlink:href="#DejaVuSans-32"/>
       <use xlink:href="#DejaVuSans-30" transform="translate(63.623047 0)"/>
      </g>
     </g>
    </g>
    <g id="xtick_4">
     <g id="line2d_4">
      <path d="M 622.335743 525.06 
L 622.335743 30.48 
" clip-path="url(#pc9d0665c81)" style="fill: none; stroke-dasharray: 3.7,1.6; stroke-dashoffset: 0; stroke: #cccccc; stroke-opacity: 0.5"/>
     </g>
     <g id="text_4">
      <!-- 30 -->
      <g style="fill: #262626" transform="translate(615.336993 542.918281) scale(0.11 -0.11)">
       <defs>
        <path id="DejaVuSans-33" d="M 2597 2516 
Q 3050 2419 3304 2112 
Q 3559 1806 3559 1356 
Q 3559 666 3084 287 
Q 2609 -91 1734 -91 
Q 1441 -91 1130 -33 
Q 819 25 488 141 
L 488 750 
Q 750 597 1062 519 
Q 1375 441 1716 441 
Q 2309 441 2620 675 
Q 2931 909 2931 1356 
Q 2931 1769 2642 2001 
Q 2353 2234 1838 2234 
L 1294 2234 
L 1294 2753 
L 1863 2753 
Q 2328 2753 2575 2939 
Q 2822 3125 2822 3475 
Q 2822 3834 2567 4026 
Q 2313 4219 1838 4219 
Q 1578 4219 1281 4162 
Q 984 4106 628 3988 
L 628 4550 
Q 988 4650 1302 4700 
Q 1616 4750 1894 4750 
Q 2613 4750 3031 4423 
Q 3450 4097 3450 3541 
Q 3450 3153 3228 2886 
Q 3006 2619 2597 2516 
z
" transform="scale(0.015625)"/>
       </defs>
       <use xlink:href="#DejaVuSans-33"/>
       <use xlink:href="#DejaVuSans-30" transform="translate(63.623047 0)"/>
      </g>
     </g>
    </g>
    <g id="xtick_5">
     <g id="line2d_5">
      <path d="M 805.222871 525.06 
L 805.222871 30.48 
" clip-path="url(#pc9d0665c81)" style="fill: none; stroke-dasharray: 3.7,1.6; stroke-dashoffset: 0; stroke: #cccccc; stroke-opacity: 0.5"/>
     </g>
     <g id="text_5">
      <!-- 40 -->
      <g style="fill: #262626" transform="translate(798.224121 542.918281) scale(0.11 -0.11)">
       <defs>
        <path id="DejaVuSans-34" d="M 2419 4116 
L 825 1625 
L 2419 1625 
L 2419 4116 
z
M 2253 4666 
L 3047 4666 
L 3047 1625 
L 3713 1625 
L 3713 1100 
L 3047 1100 
L 3047 0 
L 2419 0 
L 2419 1100 
L 313 1100 
L 313 1709 
L 2253 4666 
z
" transform="scale(0.015625)"/>
       </defs>
       <use xlink:href="#DejaVuSans-34"/>
       <use xlink:href="#DejaVuSans-30" transform="translate(63.623047 0)"/>
      </g>
     </g>
    </g>
    <g id="xtick_6">
     <g id="line2d_6">
      <path d="M 988.11 525.06 
L 988.11 30.48 
" clip-path="url(#pc9d0665c81)" style="fill: none; stroke-dasharray: 3.7,1.6; stroke-dashoffset: 0; stroke: #cccccc; stroke-opacity: 0.5"/>
     </g>
     <g id="text_6">
      <!-- 50 -->
      <g style="fill: #262626" transform="translate(981.11125 542.918281) scale(0.11 -0.11)">
       <defs>
        <path id="DejaVuSans-35" d="M 691 4666 
L 3169 4666 
L 3169 4134 
L 1269 4134 
L 1269 2991 
Q 1406 3038 1543 3061 
Q 1681 3084 1819 3084 
Q 2600 3084 3056 2656 
Q 3513 2228 3513 1497 
Q 3513 744 3044 326 
Q 2575 -91 1722 -91 
Q 1428 -91 1123 -41 
Q 819 9 494 109 
L 494 744 
Q 775 591 1075 516 
Q 1375 441 1709 441 
Q 2250 441 2565 725 
Q 2881 1009 2881 1497 
Q 2881 1984 2565 2268 
Q 2250 2553 1709 2553 
Q 1456 2553 1204 2497 
Q 953 2441 691 2322 
L 691 4666 
z
" transform="scale(0.015625)"/>
       </defs>
       <use xlink:href="#DejaVuSans-35"/>
       <use xlink:href="#DejaVuSans-30" transform="translate(63.623047 0)"/>
      </g>
     </g>
    </g>
    <g id="text_7">
     <!-- Epoch -->
     <g style="fill: #262626" transform="translate(504.884688 559.84375) scale(0.14 -0.14)">
      <defs>
       <path id="DejaVuSans-45" d="M 628 4666 
L 3578 4666 
L 3578 4134 
L 1259 4134 
L 1259 2753 
L 3481 2753 
L 3481 2222 
L 1259 2222 
L 1259 531 
L 3634 531 
L 3634 0 
L 628 0 
L 628 4666 
z
" transform="scale(0.015625)"/>
       <path id="DejaVuSans-70" d="M 1159 525 
L 1159 -1331 
L 581 -1331 
L 581 3500 
L 1159 3500 
L 1159 2969 
Q 1341 3281 1617 3432 
Q 1894 3584 2278 3584 
Q 2916 3584 3314 3078 
Q 3713 2572 3713 1747 
Q 3713 922 3314 415 
Q 2916 -91 2278 -91 
Q 1894 -91 1617 61 
Q 1341 213 1159 525 
z
M 3116 1747 
Q 3116 2381 2855 2742 
Q 2594 3103 2138 3103 
Q 1681 3103 1420 2742 
Q 1159 2381 1159 1747 
Q 1159 1113 1420 752 
Q 1681 391 2138 391 
Q 2594 391 2855 752 
Q 3116 1113 3116 1747 
z
" transform="scale(0.015625)"/>
       <path id="DejaVuSans-6f" d="M 1959 3097 
Q 1497 3097 1228 2736 
Q 959 2375 959 1747 
Q 959 1119 1226 758 
Q 1494 397 1959 397 
Q 2419 397 2687 759 
Q 2956 1122 2956 1747 
Q 2956 2369 2687 2733 
Q 2419 3097 1959 3097 
z
M 1959 3584 
Q 2709 3584 3137 3096 
Q 3566 2609 3566 1747 
Q 3566 888 3137 398 
Q 2709 -91 1959 -91 
Q 1206 -91 779 398 
Q 353 888 353 1747 
Q 353 2609 779 3096 
Q 1206 3584 1959 3584 
z
" transform="scale(0.015625)"/>
       <path id="DejaVuSans-63" d="M 3122 3366 
L 3122 2828 
Q 2878 2963 2633 3030 
Q 2388 3097 2138 3097 
Q 1578 3097 1268 2742 
Q 959 2388 959 1747 
Q 959 1106 1268 751 
Q 1578 397 2138 397 
Q 2388 397 2633 464 
Q 2878 531 3122 666 
L 3122 134 
Q 2881 22 2623 -34 
Q 2366 -91 2075 -91 
Q 1284 -91 818 406 
Q 353 903 353 1747 
Q 353 2603 823 3093 
Q 1294 3584 2113 3584 
Q 2378 3584 2631 3529 
Q 2884 3475 3122 3366 
z
" transform="scale(0.015625)"/>
       <path id="DejaVuSans-68" d="M 3513 2113 
L 3513 0 
L 2938 0 
L 2938 2094 
Q 2938 2591 2744 2837 
Q 2550 3084 2163 3084 
Q 1697 3084 1428 2787 
Q 1159 2491 1159 1978 
L 1159 0 
L 581 0 
L 581 4863 
L 1159 4863 
L 1159 2956 
Q 1366 3272 1645 3428 
Q 1925 3584 2291 3584 
Q 2894 3584 3203 3211 
Q 3513 2838 3513 2113 
z
" transform="scale(0.015625)"/>
      </defs>
      <use xlink:href="#DejaVuSans-45"/>
      <use xlink:href="#DejaVuSans-70" transform="translate(63.183594 0)"/>
      <use xlink:href="#DejaVuSans-6f" transform="translate(126.660156 0)"/>
      <use xlink:href="#DejaVuSans-63" transform="translate(187.841797 0)"/>
      <use xlink:href="#DejaVuSans-68" transform="translate(242.822266 0)"/>
     </g>
    </g>
   </g>
   <g id="matplotlib.axis_2">
    <g id="ytick_1">
     <g id="line2d_7">
      <path d="M 64.53 519.232988 
L 988.11 519.232988 
" clip-path="url(#pc9d0665c81)" style="fill: none; stroke-dasharray: 3.7,1.6; stroke-dashoffset: 0; stroke: #cccccc; stroke-opacity: 0.5"/>
     </g>
     <g id="text_8">
      <!-- 0.60 -->
      <g style="fill: #262626" transform="translate(30.537813 523.412128) scale(0.11 -0.11)">
       <defs>
        <path id="DejaVuSans-2e" d="M 684 794 
L 1344 794 
L 1344 0 
L 684 0 
L 684 794 
z
" transform="scale(0.015625)"/>
        <path id="DejaVuSans-36" d="M 2113 2584 
Q 1688 2584 1439 2293 
Q 1191 2003 1191 1497 
Q 1191 994 1439 701 
Q 1688 409 2113 409 
Q 2538 409 2786 701 
Q 3034 994 3034 1497 
Q 3034 2003 2786 2293 
Q 2538 2584 2113 2584 
z
M 3366 4563 
L 3366 3988 
Q 3128 4100 2886 4159 
Q 2644 4219 2406 4219 
Q 1781 4219 1451 3797 
Q 1122 3375 1075 2522 
Q 1259 2794 1537 2939 
Q 1816 3084 2150 3084 
Q 2853 3084 3261 2657 
Q 3669 2231 3669 1497 
Q 3669 778 3244 343 
Q 2819 -91 2113 -91 
Q 1303 -91 875 529 
Q 447 1150 447 2328 
Q 447 3434 972 4092 
Q 1497 4750 2381 4750 
Q 2619 4750 2861 4703 
Q 3103 4656 3366 4563 
z
" transform="scale(0.015625)"/>
       </defs>
       <use xlink:href="#DejaVuSans-30"/>
       <use xlink:href="#DejaVuSans-2e" transform="translate(63.623047 0)"/>
       <use xlink:href="#DejaVuSans-36" transform="translate(95.410156 0)"/>
       <use xlink:href="#DejaVuSans-30" transform="translate(159.033203 0)"/>
      </g>
     </g>
    </g>
    <g id="ytick_2">
     <g id="line2d_8">
      <path d="M 64.53 457.623445 
L 988.11 457.623445 
" clip-path="url(#pc9d0665c81)" style="fill: none; stroke-dasharray: 3.7,1.6; stroke-dashoffset: 0; stroke: #cccccc; stroke-opacity: 0.5"/>
     </g>
     <g id="text_9">
      <!-- 0.65 -->
      <g style="fill: #262626" transform="translate(30.537813 461.802586) scale(0.11 -0.11)">
       <use xlink:href="#DejaVuSans-30"/>
       <use xlink:href="#DejaVuSans-2e" transform="translate(63.623047 0)"/>
       <use xlink:href="#DejaVuSans-36" transform="translate(95.410156 0)"/>
       <use xlink:href="#DejaVuSans-35" transform="translate(159.033203 0)"/>
      </g>
     </g>
    </g>
    <g id="ytick_3">
     <g id="line2d_9">
      <path d="M 64.53 396.013903 
L 988.11 396.013903 
" clip-path="url(#pc9d0665c81)" style="fill: none; stroke-dasharray: 3.7,1.6; stroke-dashoffset: 0; stroke: #cccccc; stroke-opacity: 0.5"/>
     </g>
     <g id="text_10">
      <!-- 0.70 -->
      <g style="fill: #262626" transform="translate(30.537813 400.193044) scale(0.11 -0.11)">
       <defs>
        <path id="DejaVuSans-37" d="M 525 4666 
L 3525 4666 
L 3525 4397 
L 1831 0 
L 1172 0 
L 2766 4134 
L 525 4134 
L 525 4666 
z
" transform="scale(0.015625)"/>
       </defs>
       <use xlink:href="#DejaVuSans-30"/>
       <use xlink:href="#DejaVuSans-2e" transform="translate(63.623047 0)"/>
       <use xlink:href="#DejaVuSans-37" transform="translate(95.410156 0)"/>
       <use xlink:href="#DejaVuSans-30" transform="translate(159.033203 0)"/>
      </g>
     </g>
    </g>
    <g id="ytick_4">
     <g id="line2d_10">
      <path d="M 64.53 334.40436 
L 988.11 334.40436 
" clip-path="url(#pc9d0665c81)" style="fill: none; stroke-dasharray: 3.7,1.6; stroke-dashoffset: 0; stroke: #cccccc; stroke-opacity: 0.5"/>
     </g>
     <g id="text_11">
      <!-- 0.75 -->
      <g style="fill: #262626" transform="translate(30.537813 338.583501) scale(0.11 -0.11)">
       <use xlink:href="#DejaVuSans-30"/>
       <use xlink:href="#DejaVuSans-2e" transform="translate(63.623047 0)"/>
       <use xlink:href="#DejaVuSans-37" transform="translate(95.410156 0)"/>
       <use xlink:href="#DejaVuSans-35" transform="translate(159.033203 0)"/>
      </g>
     </g>
    </g>
    <g id="ytick_5">
     <g id="line2d_11">
      <path d="M 64.53 272.794818 
L 988.11 272.794818 
" clip-path="url(#pc9d0665c81)" style="fill: none; stroke-dasharray: 3.7,1.6; stroke-dashoffset: 0; stroke: #cccccc; stroke-opacity: 0.5"/>
     </g>
     <g id="text_12">
      <!-- 0.80 -->
      <g style="fill: #262626" transform="translate(30.537813 276.973959) scale(0.11 -0.11)">
       <defs>
        <path id="DejaVuSans-38" d="M 2034 2216 
Q 1584 2216 1326 1975 
Q 1069 1734 1069 1313 
Q 1069 891 1326 650 
Q 1584 409 2034 409 
Q 2484 409 2743 651 
Q 3003 894 3003 1313 
Q 3003 1734 2745 1975 
Q 2488 2216 2034 2216 
z
M 1403 2484 
Q 997 2584 770 2862 
Q 544 3141 544 3541 
Q 544 4100 942 4425 
Q 1341 4750 2034 4750 
Q 2731 4750 3128 4425 
Q 3525 4100 3525 3541 
Q 3525 3141 3298 2862 
Q 3072 2584 2669 2484 
Q 3125 2378 3379 2068 
Q 3634 1759 3634 1313 
Q 3634 634 3220 271 
Q 2806 -91 2034 -91 
Q 1263 -91 848 271 
Q 434 634 434 1313 
Q 434 1759 690 2068 
Q 947 2378 1403 2484 
z
M 1172 3481 
Q 1172 3119 1398 2916 
Q 1625 2713 2034 2713 
Q 2441 2713 2670 2916 
Q 2900 3119 2900 3481 
Q 2900 3844 2670 4047 
Q 2441 4250 2034 4250 
Q 1625 4250 1398 4047 
Q 1172 3844 1172 3481 
z
" transform="scale(0.015625)"/>
       </defs>
       <use xlink:href="#DejaVuSans-30"/>
       <use xlink:href="#DejaVuSans-2e" transform="translate(63.623047 0)"/>
       <use xlink:href="#DejaVuSans-38" transform="translate(95.410156 0)"/>
       <use xlink:href="#DejaVuSans-30" transform="translate(159.033203 0)"/>
      </g>
     </g>
    </g>
    <g id="ytick_6">
     <g id="line2d_12">
      <path d="M 64.53 211.185276 
L 988.11 211.185276 
" clip-path="url(#pc9d0665c81)" style="fill: none; stroke-dasharray: 3.7,1.6; stroke-dashoffset: 0; stroke: #cccccc; stroke-opacity: 0.5"/>
     </g>
     <g id="text_13">
      <!-- 0.85 -->
      <g style="fill: #262626" transform="translate(30.537813 215.364416) scale(0.11 -0.11)">
       <use xlink:href="#DejaVuSans-30"/>
       <use xlink:href="#DejaVuSans-2e" transform="translate(63.623047 0)"/>
       <use xlink:href="#DejaVuSans-38" transform="translate(95.410156 0)"/>
       <use xlink:href="#DejaVuSans-35" transform="translate(159.033203 0)"/>
      </g>
     </g>
    </g>
    <g id="ytick_7">
     <g id="line2d_13">
      <path d="M 64.53 149.575733 
L 988.11 149.575733 
" clip-path="url(#pc9d0665c81)" style="fill: none; stroke-dasharray: 3.7,1.6; stroke-dashoffset: 0; stroke: #cccccc; stroke-opacity: 0.5"/>
     </g>
     <g id="text_14">
      <!-- 0.90 -->
      <g style="fill: #262626" transform="translate(30.537813 153.754874) scale(0.11 -0.11)">
       <defs>
        <path id="DejaVuSans-39" d="M 703 97 
L 703 672 
Q 941 559 1184 500 
Q 1428 441 1663 441 
Q 2288 441 2617 861 
Q 2947 1281 2994 2138 
Q 2813 1869 2534 1725 
Q 2256 1581 1919 1581 
Q 1219 1581 811 2004 
Q 403 2428 403 3163 
Q 403 3881 828 4315 
Q 1253 4750 1959 4750 
Q 2769 4750 3195 4129 
Q 3622 3509 3622 2328 
Q 3622 1225 3098 567 
Q 2575 -91 1691 -91 
Q 1453 -91 1209 -44 
Q 966 3 703 97 
z
M 1959 2075 
Q 2384 2075 2632 2365 
Q 2881 2656 2881 3163 
Q 2881 3666 2632 3958 
Q 2384 4250 1959 4250 
Q 1534 4250 1286 3958 
Q 1038 3666 1038 3163 
Q 1038 2656 1286 2365 
Q 1534 2075 1959 2075 
z
" transform="scale(0.015625)"/>
       </defs>
       <use xlink:href="#DejaVuSans-30"/>
       <use xlink:href="#DejaVuSans-2e" transform="translate(63.623047 0)"/>
       <use xlink:href="#DejaVuSans-39" transform="translate(95.410156 0)"/>
       <use xlink:href="#DejaVuSans-30" transform="translate(159.033203 0)"/>
      </g>
     </g>
    </g>
    <g id="ytick_8">
     <g id="line2d_14">
      <path d="M 64.53 87.966191 
L 988.11 87.966191 
" clip-path="url(#pc9d0665c81)" style="fill: none; stroke-dasharray: 3.7,1.6; stroke-dashoffset: 0; stroke: #cccccc; stroke-opacity: 0.5"/>
     </g>
     <g id="text_15">
      <!-- 0.95 -->
      <g style="fill: #262626" transform="translate(30.537813 92.145331) scale(0.11 -0.11)">
       <use xlink:href="#DejaVuSans-30"/>
       <use xlink:href="#DejaVuSans-2e" transform="translate(63.623047 0)"/>
       <use xlink:href="#DejaVuSans-39" transform="translate(95.410156 0)"/>
       <use xlink:href="#DejaVuSans-35" transform="translate(159.033203 0)"/>
      </g>
     </g>
    </g>
    <g id="text_16">
     <!-- Accuracy_mean -->
     <g style="fill: #262626" transform="translate(23.236875 333.080938) rotate(-90) scale(0.14 -0.14)">
      <defs>
       <path id="DejaVuSans-41" d="M 2188 4044 
L 1331 1722 
L 3047 1722 
L 2188 4044 
z
M 1831 4666 
L 2547 4666 
L 4325 0 
L 3669 0 
L 3244 1197 
L 1141 1197 
L 716 0 
L 50 0 
L 1831 4666 
z
" transform="scale(0.015625)"/>
       <path id="DejaVuSans-75" d="M 544 1381 
L 544 3500 
L 1119 3500 
L 1119 1403 
Q 1119 906 1312 657 
Q 1506 409 1894 409 
Q 2359 409 2629 706 
Q 2900 1003 2900 1516 
L 2900 3500 
L 3475 3500 
L 3475 0 
L 2900 0 
L 2900 538 
Q 2691 219 2414 64 
Q 2138 -91 1772 -91 
Q 1169 -91 856 284 
Q 544 659 544 1381 
z
M 1991 3584 
L 1991 3584 
z
" transform="scale(0.015625)"/>
       <path id="DejaVuSans-72" d="M 2631 2963 
Q 2534 3019 2420 3045 
Q 2306 3072 2169 3072 
Q 1681 3072 1420 2755 
Q 1159 2438 1159 1844 
L 1159 0 
L 581 0 
L 581 3500 
L 1159 3500 
L 1159 2956 
Q 1341 3275 1631 3429 
Q 1922 3584 2338 3584 
Q 2397 3584 2469 3576 
Q 2541 3569 2628 3553 
L 2631 2963 
z
" transform="scale(0.015625)"/>
       <path id="DejaVuSans-61" d="M 2194 1759 
Q 1497 1759 1228 1600 
Q 959 1441 959 1056 
Q 959 750 1161 570 
Q 1363 391 1709 391 
Q 2188 391 2477 730 
Q 2766 1069 2766 1631 
L 2766 1759 
L 2194 1759 
z
M 3341 1997 
L 3341 0 
L 2766 0 
L 2766 531 
Q 2569 213 2275 61 
Q 1981 -91 1556 -91 
Q 1019 -91 701 211 
Q 384 513 384 1019 
Q 384 1609 779 1909 
Q 1175 2209 1959 2209 
L 2766 2209 
L 2766 2266 
Q 2766 2663 2505 2880 
Q 2244 3097 1772 3097 
Q 1472 3097 1187 3025 
Q 903 2953 641 2809 
L 641 3341 
Q 956 3463 1253 3523 
Q 1550 3584 1831 3584 
Q 2591 3584 2966 3190 
Q 3341 2797 3341 1997 
z
" transform="scale(0.015625)"/>
       <path id="DejaVuSans-79" d="M 2059 -325 
Q 1816 -950 1584 -1140 
Q 1353 -1331 966 -1331 
L 506 -1331 
L 506 -850 
L 844 -850 
Q 1081 -850 1212 -737 
Q 1344 -625 1503 -206 
L 1606 56 
L 191 3500 
L 800 3500 
L 1894 763 
L 2988 3500 
L 3597 3500 
L 2059 -325 
z
" transform="scale(0.015625)"/>
       <path id="DejaVuSans-5f" d="M 3263 -1063 
L 3263 -1509 
L -63 -1509 
L -63 -1063 
L 3263 -1063 
z
" transform="scale(0.015625)"/>
       <path id="DejaVuSans-6d" d="M 3328 2828 
Q 3544 3216 3844 3400 
Q 4144 3584 4550 3584 
Q 5097 3584 5394 3201 
Q 5691 2819 5691 2113 
L 5691 0 
L 5113 0 
L 5113 2094 
Q 5113 2597 4934 2840 
Q 4756 3084 4391 3084 
Q 3944 3084 3684 2787 
Q 3425 2491 3425 1978 
L 3425 0 
L 2847 0 
L 2847 2094 
Q 2847 2600 2669 2842 
Q 2491 3084 2119 3084 
Q 1678 3084 1418 2786 
Q 1159 2488 1159 1978 
L 1159 0 
L 581 0 
L 581 3500 
L 1159 3500 
L 1159 2956 
Q 1356 3278 1631 3431 
Q 1906 3584 2284 3584 
Q 2666 3584 2933 3390 
Q 3200 3197 3328 2828 
z
" transform="scale(0.015625)"/>
       <path id="DejaVuSans-65" d="M 3597 1894 
L 3597 1613 
L 953 1613 
Q 991 1019 1311 708 
Q 1631 397 2203 397 
Q 2534 397 2845 478 
Q 3156 559 3463 722 
L 3463 178 
Q 3153 47 2828 -22 
Q 2503 -91 2169 -91 
Q 1331 -91 842 396 
Q 353 884 353 1716 
Q 353 2575 817 3079 
Q 1281 3584 2069 3584 
Q 2775 3584 3186 3129 
Q 3597 2675 3597 1894 
z
M 3022 2063 
Q 3016 2534 2758 2815 
Q 2500 3097 2075 3097 
Q 1594 3097 1305 2825 
Q 1016 2553 972 2059 
L 3022 2063 
z
" transform="scale(0.015625)"/>
       <path id="DejaVuSans-6e" d="M 3513 2113 
L 3513 0 
L 2938 0 
L 2938 2094 
Q 2938 2591 2744 2837 
Q 2550 3084 2163 3084 
Q 1697 3084 1428 2787 
Q 1159 2491 1159 1978 
L 1159 0 
L 581 0 
L 581 3500 
L 1159 3500 
L 1159 2956 
Q 1366 3272 1645 3428 
Q 1925 3584 2291 3584 
Q 2894 3584 3203 3211 
Q 3513 2838 3513 2113 
z
" transform="scale(0.015625)"/>
      </defs>
      <use xlink:href="#DejaVuSans-41"/>
      <use xlink:href="#DejaVuSans-63" transform="translate(66.658203 0)"/>
      <use xlink:href="#DejaVuSans-63" transform="translate(121.638672 0)"/>
      <use xlink:href="#DejaVuSans-75" transform="translate(176.619141 0)"/>
      <use xlink:href="#DejaVuSans-72" transform="translate(239.998047 0)"/>
      <use xlink:href="#DejaVuSans-61" transform="translate(281.111328 0)"/>
      <use xlink:href="#DejaVuSans-63" transform="translate(342.390625 0)"/>
      <use xlink:href="#DejaVuSans-79" transform="translate(397.371094 0)"/>
      <use xlink:href="#DejaVuSans-5f" transform="translate(456.550781 0)"/>
      <use xlink:href="#DejaVuSans-6d" transform="translate(506.550781 0)"/>
      <use xlink:href="#DejaVuSans-65" transform="translate(603.962891 0)"/>
      <use xlink:href="#DejaVuSans-61" transform="translate(665.486328 0)"/>
      <use xlink:href="#DejaVuSans-6e" transform="translate(726.765625 0)"/>
     </g>
    </g>
   </g>
   <g id="patch_3">
    <path d="M 67.273307 374.883359 
L 80.075406 374.883359 
L 80.075406 282.698927 
L 67.273307 282.698927 
L 67.273307 374.883359 
z
" clip-path="url(#pc9d0665c81)" style="fill: #72b6a1; stroke: #595959; stroke-linejoin: miter"/>
   </g>
   <g id="line2d_15">
    <path d="M 73.674356 374.883359 
L 73.674356 502.579091 
" clip-path="url(#pc9d0665c81)" style="fill: none; stroke: #595959"/>
   </g>
   <g id="line2d_16">
    <path d="M 73.674356 282.698927 
L 73.674356 165.740564 
" clip-path="url(#pc9d0665c81)" style="fill: none; stroke: #595959"/>
   </g>
   <g id="line2d_17">
    <path d="M 70.473832 502.579091 
L 76.874881 502.579091 
" clip-path="url(#pc9d0665c81)" style="fill: none; stroke: #595959; stroke-linecap: round"/>
   </g>
   <g id="line2d_18">
    <path d="M 70.473832 165.740564 
L 76.874881 165.740564 
" clip-path="url(#pc9d0665c81)" style="fill: none; stroke: #595959; stroke-linecap: round"/>
   </g>
   <g id="line2d_19"/>
   <g id="patch_4">
    <path d="M 85.56202 328.602121 
L 98.364119 328.602121 
L 98.364119 216.782033 
L 85.56202 216.782033 
L 85.56202 328.602121 
z
" clip-path="url(#pc9d0665c81)" style="fill: #72b6a1; stroke: #595959; stroke-linejoin: miter"/>
   </g>
   <g id="line2d_20">
    <path d="M 91.963069 328.602121 
L 91.963069 494.111293 
" clip-path="url(#pc9d0665c81)" style="fill: none; stroke: #595959"/>
   </g>
   <g id="line2d_21">
    <path d="M 91.963069 216.782033 
L 91.963069 145.412259 
" clip-path="url(#pc9d0665c81)" style="fill: none; stroke: #595959"/>
   </g>
   <g id="line2d_22">
    <path d="M 88.762545 494.111293 
L 95.163594 494.111293 
" clip-path="url(#pc9d0665c81)" style="fill: none; stroke: #595959; stroke-linecap: round"/>
   </g>
   <g id="line2d_23">
    <path d="M 88.762545 145.412259 
L 95.163594 145.412259 
" clip-path="url(#pc9d0665c81)" style="fill: none; stroke: #595959; stroke-linecap: round"/>
   </g>
   <g id="line2d_24"/>
   <g id="patch_5">
    <path d="M 103.850733 308.083014 
L 116.652832 308.083014 
L 116.652832 182.82496 
L 103.850733 182.82496 
L 103.850733 308.083014 
z
" clip-path="url(#pc9d0665c81)" style="fill: #72b6a1; stroke: #595959; stroke-linejoin: miter"/>
   </g>
   <g id="line2d_25">
    <path d="M 110.251782 308.083014 
L 110.251782 485.424646 
" clip-path="url(#pc9d0665c81)" style="fill: none; stroke: #595959"/>
   </g>
   <g id="line2d_26">
    <path d="M 110.251782 182.82496 
L 110.251782 125.034098 
" clip-path="url(#pc9d0665c81)" style="fill: none; stroke: #595959"/>
   </g>
   <g id="line2d_27">
    <path d="M 107.051257 485.424646 
L 113.452307 485.424646 
" clip-path="url(#pc9d0665c81)" style="fill: none; stroke: #595959; stroke-linecap: round"/>
   </g>
   <g id="line2d_28">
    <path d="M 107.051257 125.034098 
L 113.452307 125.034098 
" clip-path="url(#pc9d0665c81)" style="fill: none; stroke: #595959; stroke-linecap: round"/>
   </g>
   <g id="line2d_29"/>
   <g id="patch_6">
    <path d="M 122.139446 296.77627 
L 134.941545 296.77627 
L 134.941545 173.547565 
L 122.139446 173.547565 
L 122.139446 296.77627 
z
" clip-path="url(#pc9d0665c81)" style="fill: #72b6a1; stroke: #595959; stroke-linejoin: miter"/>
   </g>
   <g id="line2d_30">
    <path d="M 128.540495 296.77627 
L 128.540495 476.810948 
" clip-path="url(#pc9d0665c81)" style="fill: none; stroke: #595959"/>
   </g>
   <g id="line2d_31">
    <path d="M 128.540495 173.547565 
L 128.540495 123.814689 
" clip-path="url(#pc9d0665c81)" style="fill: none; stroke: #595959"/>
   </g>
   <g id="line2d_32">
    <path d="M 125.33997 476.810948 
L 131.74102 476.810948 
" clip-path="url(#pc9d0665c81)" style="fill: none; stroke: #595959; stroke-linecap: round"/>
   </g>
   <g id="line2d_33">
    <path d="M 125.33997 123.814689 
L 131.74102 123.814689 
" clip-path="url(#pc9d0665c81)" style="fill: none; stroke: #595959; stroke-linecap: round"/>
   </g>
   <g id="line2d_34"/>
   <g id="patch_7">
    <path d="M 140.428158 288.119531 
L 153.230257 288.119531 
L 153.230257 158.169136 
L 140.428158 158.169136 
L 140.428158 288.119531 
z
" clip-path="url(#pc9d0665c81)" style="fill: #72b6a1; stroke: #595959; stroke-linejoin: miter"/>
   </g>
   <g id="line2d_35">
    <path d="M 146.829208 288.119531 
L 146.829208 470.447474 
" clip-path="url(#pc9d0665c81)" style="fill: none; stroke: #595959"/>
   </g>
   <g id="line2d_36">
    <path d="M 146.829208 158.169136 
L 146.829208 114.313065 
" clip-path="url(#pc9d0665c81)" style="fill: none; stroke: #595959"/>
   </g>
   <g id="line2d_37">
    <path d="M 143.628683 470.447474 
L 150.029733 470.447474 
" clip-path="url(#pc9d0665c81)" style="fill: none; stroke: #595959; stroke-linecap: round"/>
   </g>
   <g id="line2d_38">
    <path d="M 143.628683 114.313065 
L 150.029733 114.313065 
" clip-path="url(#pc9d0665c81)" style="fill: none; stroke: #595959; stroke-linecap: round"/>
   </g>
   <g id="line2d_39"/>
   <g id="patch_8">
    <path d="M 158.716871 287.211632 
L 171.51897 287.211632 
L 171.51897 94.441334 
L 158.716871 94.441334 
L 158.716871 287.211632 
z
" clip-path="url(#pc9d0665c81)" style="fill: #72b6a1; stroke: #595959; stroke-linejoin: miter"/>
   </g>
   <g id="line2d_40">
    <path d="M 165.117921 287.211632 
L 165.117921 502.579091 
" clip-path="url(#pc9d0665c81)" style="fill: none; stroke: #595959"/>
   </g>
   <g id="line2d_41">
    <path d="M 165.117921 94.441334 
L 165.117921 63.084108 
" clip-path="url(#pc9d0665c81)" style="fill: none; stroke: #595959"/>
   </g>
   <g id="line2d_42">
    <path d="M 161.917396 502.579091 
L 168.318446 502.579091 
" clip-path="url(#pc9d0665c81)" style="fill: none; stroke: #595959; stroke-linecap: round"/>
   </g>
   <g id="line2d_43">
    <path d="M 161.917396 63.084108 
L 168.318446 63.084108 
" clip-path="url(#pc9d0665c81)" style="fill: none; stroke: #595959; stroke-linecap: round"/>
   </g>
   <g id="line2d_44"/>
   <g id="patch_9">
    <path d="M 177.005584 280.609434 
L 189.807683 280.609434 
L 189.807683 129.417296 
L 177.005584 129.417296 
L 177.005584 280.609434 
z
" clip-path="url(#pc9d0665c81)" style="fill: #72b6a1; stroke: #595959; stroke-linejoin: miter"/>
   </g>
   <g id="line2d_45">
    <path d="M 183.406634 280.609434 
L 183.406634 502.332184 
" clip-path="url(#pc9d0665c81)" style="fill: none; stroke: #595959"/>
   </g>
   <g id="line2d_46">
    <path d="M 183.406634 129.417296 
L 183.406634 61.232303 
" clip-path="url(#pc9d0665c81)" style="fill: none; stroke: #595959"/>
   </g>
   <g id="line2d_47">
    <path d="M 180.206109 502.332184 
L 186.607158 502.332184 
" clip-path="url(#pc9d0665c81)" style="fill: none; stroke: #595959; stroke-linecap: round"/>
   </g>
   <g id="line2d_48">
    <path d="M 180.206109 61.232303 
L 186.607158 61.232303 
" clip-path="url(#pc9d0665c81)" style="fill: none; stroke: #595959; stroke-linecap: round"/>
   </g>
   <g id="line2d_49"/>
   <g id="patch_10">
    <path d="M 195.294297 242.421106 
L 208.096396 242.421106 
L 208.096396 125.860288 
L 195.294297 125.860288 
L 195.294297 242.421106 
z
" clip-path="url(#pc9d0665c81)" style="fill: #72b6a1; stroke: #595959; stroke-linejoin: miter"/>
   </g>
   <g id="line2d_50">
    <path d="M 201.695347 242.421106 
L 201.695347 318.509703 
" clip-path="url(#pc9d0665c81)" style="fill: none; stroke: #595959"/>
   </g>
   <g id="line2d_51">
    <path d="M 201.695347 125.860288 
L 201.695347 64.627279 
" clip-path="url(#pc9d0665c81)" style="fill: none; stroke: #595959"/>
   </g>
   <g id="line2d_52">
    <path d="M 198.494822 318.509703 
L 204.895871 318.509703 
" clip-path="url(#pc9d0665c81)" style="fill: none; stroke: #595959; stroke-linecap: round"/>
   </g>
   <g id="line2d_53">
    <path d="M 198.494822 64.627279 
L 204.895871 64.627279 
" clip-path="url(#pc9d0665c81)" style="fill: none; stroke: #595959; stroke-linecap: round"/>
   </g>
   <g id="line2d_54">
    <defs>
     <path id="mbd6f7d5acf" d="M 0 3 
C 0.795609 3 1.55874 2.683901 2.12132 2.12132 
C 2.683901 1.55874 3 0.795609 3 0 
C 3 -0.795609 2.683901 -1.55874 2.12132 -2.12132 
C 1.55874 -2.683901 0.795609 -3 0 -3 
C -0.795609 -3 -1.55874 -2.683901 -2.12132 -2.12132 
C -2.683901 -1.55874 -3 -0.795609 -3 0 
C -3 0.795609 -2.683901 1.55874 -2.12132 2.12132 
C -1.55874 2.683901 -0.795609 3 0 3 
z
" style="stroke: #595959"/>
    </defs>
    <g clip-path="url(#pc9d0665c81)">
     <use xlink:href="#mbd6f7d5acf" x="201.695347" y="437.179521" style="fill-opacity: 0; stroke: #595959"/>
    </g>
   </g>
   <g id="patch_11">
    <path d="M 213.58301 239.643399 
L 226.385109 239.643399 
L 226.385109 111.200167 
L 213.58301 111.200167 
L 213.58301 239.643399 
z
" clip-path="url(#pc9d0665c81)" style="fill: #72b6a1; stroke: #595959; stroke-linejoin: miter"/>
   </g>
   <g id="line2d_55">
    <path d="M 219.984059 239.643399 
L 219.984059 336.348755 
" clip-path="url(#pc9d0665c81)" style="fill: none; stroke: #595959"/>
   </g>
   <g id="line2d_56">
    <path d="M 219.984059 111.200167 
L 219.984059 66.293903 
" clip-path="url(#pc9d0665c81)" style="fill: none; stroke: #595959"/>
   </g>
   <g id="line2d_57">
    <path d="M 216.783535 336.348755 
L 223.184584 336.348755 
" clip-path="url(#pc9d0665c81)" style="fill: none; stroke: #595959; stroke-linecap: round"/>
   </g>
   <g id="line2d_58">
    <path d="M 216.783535 66.293903 
L 223.184584 66.293903 
" clip-path="url(#pc9d0665c81)" style="fill: none; stroke: #595959; stroke-linecap: round"/>
   </g>
   <g id="line2d_59">
    <g clip-path="url(#pc9d0665c81)">
     <use xlink:href="#mbd6f7d5acf" x="219.984059" y="440.173272" style="fill-opacity: 0; stroke: #595959"/>
    </g>
   </g>
   <g id="patch_12">
    <path d="M 231.871723 240.054911 
L 244.673822 240.054911 
L 244.673822 74.688751 
L 231.871723 74.688751 
L 231.871723 240.054911 
z
" clip-path="url(#pc9d0665c81)" style="fill: #72b6a1; stroke: #595959; stroke-linejoin: miter"/>
   </g>
   <g id="line2d_60">
    <path d="M 238.272772 240.054911 
L 238.272772 434.216634 
" clip-path="url(#pc9d0665c81)" style="fill: none; stroke: #595959"/>
   </g>
   <g id="line2d_61">
    <path d="M 238.272772 74.688751 
L 238.272772 57.40524 
" clip-path="url(#pc9d0665c81)" style="fill: none; stroke: #595959"/>
   </g>
   <g id="line2d_62">
    <path d="M 235.072248 434.216634 
L 241.473297 434.216634 
" clip-path="url(#pc9d0665c81)" style="fill: none; stroke: #595959; stroke-linecap: round"/>
   </g>
   <g id="line2d_63">
    <path d="M 235.072248 57.40524 
L 241.473297 57.40524 
" clip-path="url(#pc9d0665c81)" style="fill: none; stroke: #595959; stroke-linecap: round"/>
   </g>
   <g id="line2d_64"/>
   <g id="patch_13">
    <path d="M 250.160436 237.15375 
L 262.962535 237.15375 
L 262.962535 72.034498 
L 250.160436 72.034498 
L 250.160436 237.15375 
z
" clip-path="url(#pc9d0665c81)" style="fill: #72b6a1; stroke: #595959; stroke-linejoin: miter"/>
   </g>
   <g id="line2d_65">
    <path d="M 256.561485 237.15375 
L 256.561485 426.593371 
" clip-path="url(#pc9d0665c81)" style="fill: none; stroke: #595959"/>
   </g>
   <g id="line2d_66">
    <path d="M 256.561485 72.034498 
L 256.561485 58.115099 
" clip-path="url(#pc9d0665c81)" style="fill: none; stroke: #595959"/>
   </g>
   <g id="line2d_67">
    <path d="M 253.36096 426.593371 
L 259.76201 426.593371 
" clip-path="url(#pc9d0665c81)" style="fill: none; stroke: #595959; stroke-linecap: round"/>
   </g>
   <g id="line2d_68">
    <path d="M 253.36096 58.115099 
L 259.76201 58.115099 
" clip-path="url(#pc9d0665c81)" style="fill: none; stroke: #595959; stroke-linecap: round"/>
   </g>
   <g id="line2d_69"/>
   <g id="patch_14">
    <path d="M 268.449149 238.367711 
L 281.251248 238.367711 
L 281.251248 72.487161 
L 268.449149 72.487161 
L 268.449149 238.367711 
z
" clip-path="url(#pc9d0665c81)" style="fill: #72b6a1; stroke: #595959; stroke-linejoin: miter"/>
   </g>
   <g id="line2d_70">
    <path d="M 274.850198 238.367711 
L 274.850198 421.686089 
" clip-path="url(#pc9d0665c81)" style="fill: none; stroke: #595959"/>
   </g>
   <g id="line2d_71">
    <path d="M 274.850198 72.487161 
L 274.850198 57.806465 
" clip-path="url(#pc9d0665c81)" style="fill: none; stroke: #595959"/>
   </g>
   <g id="line2d_72">
    <path d="M 271.649673 421.686089 
L 278.050723 421.686089 
" clip-path="url(#pc9d0665c81)" style="fill: none; stroke: #595959; stroke-linecap: round"/>
   </g>
   <g id="line2d_73">
    <path d="M 271.649673 57.806465 
L 278.050723 57.806465 
" clip-path="url(#pc9d0665c81)" style="fill: none; stroke: #595959; stroke-linecap: round"/>
   </g>
   <g id="line2d_74"/>
   <g id="patch_15">
    <path d="M 286.737861 235.487126 
L 299.53996 235.487126 
L 299.53996 72.055073 
L 286.737861 72.055073 
L 286.737861 235.487126 
z
" clip-path="url(#pc9d0665c81)" style="fill: #72b6a1; stroke: #595959; stroke-linejoin: miter"/>
   </g>
   <g id="line2d_75">
    <path d="M 293.138911 235.487126 
L 293.138911 416.439309 
" clip-path="url(#pc9d0665c81)" style="fill: none; stroke: #595959"/>
   </g>
   <g id="line2d_76">
    <path d="M 293.138911 72.055073 
L 293.138911 56.602792 
" clip-path="url(#pc9d0665c81)" style="fill: none; stroke: #595959"/>
   </g>
   <g id="line2d_77">
    <path d="M 289.938386 416.439309 
L 296.339436 416.439309 
" clip-path="url(#pc9d0665c81)" style="fill: none; stroke: #595959; stroke-linecap: round"/>
   </g>
   <g id="line2d_78">
    <path d="M 289.938386 56.602792 
L 296.339436 56.602792 
" clip-path="url(#pc9d0665c81)" style="fill: none; stroke: #595959; stroke-linecap: round"/>
   </g>
   <g id="line2d_79"/>
   <g id="patch_16">
    <path d="M 305.026574 271.720771 
L 317.828673 271.720771 
L 317.828673 73.310185 
L 305.026574 73.310185 
L 305.026574 271.720771 
z
" clip-path="url(#pc9d0665c81)" style="fill: #72b6a1; stroke: #595959; stroke-linejoin: miter"/>
   </g>
   <g id="line2d_80">
    <path d="M 311.427624 271.720771 
L 311.427624 414.062826 
" clip-path="url(#pc9d0665c81)" style="fill: none; stroke: #595959"/>
   </g>
   <g id="line2d_81">
    <path d="M 311.427624 73.310185 
L 311.427624 57.652148 
" clip-path="url(#pc9d0665c81)" style="fill: none; stroke: #595959"/>
   </g>
   <g id="line2d_82">
    <path d="M 308.227099 414.062826 
L 314.628149 414.062826 
" clip-path="url(#pc9d0665c81)" style="fill: none; stroke: #595959; stroke-linecap: round"/>
   </g>
   <g id="line2d_83">
    <path d="M 308.227099 57.652148 
L 314.628149 57.652148 
" clip-path="url(#pc9d0665c81)" style="fill: none; stroke: #595959; stroke-linecap: round"/>
   </g>
   <g id="line2d_84"/>
   <g id="patch_17">
    <path d="M 323.315287 267.708528 
L 336.117386 267.708528 
L 336.117386 65.861815 
L 323.315287 65.861815 
L 323.315287 267.708528 
z
" clip-path="url(#pc9d0665c81)" style="fill: #72b6a1; stroke: #595959; stroke-linejoin: miter"/>
   </g>
   <g id="line2d_85">
    <path d="M 329.716337 267.708528 
L 329.716337 414.988728 
" clip-path="url(#pc9d0665c81)" style="fill: none; stroke: #595959"/>
   </g>
   <g id="line2d_86">
    <path d="M 329.716337 65.861815 
L 329.716337 57.096606 
" clip-path="url(#pc9d0665c81)" style="fill: none; stroke: #595959"/>
   </g>
   <g id="line2d_87">
    <path d="M 326.515812 414.988728 
L 332.916861 414.988728 
" clip-path="url(#pc9d0665c81)" style="fill: none; stroke: #595959; stroke-linecap: round"/>
   </g>
   <g id="line2d_88">
    <path d="M 326.515812 57.096606 
L 332.916861 57.096606 
" clip-path="url(#pc9d0665c81)" style="fill: none; stroke: #595959; stroke-linecap: round"/>
   </g>
   <g id="line2d_89"/>
   <g id="patch_18">
    <path d="M 341.604 263.974055 
L 354.406099 263.974055 
L 354.406099 67.127215 
L 341.604 67.127215 
L 341.604 263.974055 
z
" clip-path="url(#pc9d0665c81)" style="fill: #72b6a1; stroke: #595959; stroke-linejoin: miter"/>
   </g>
   <g id="line2d_90">
    <path d="M 348.00505 263.974055 
L 348.00505 406.717334 
" clip-path="url(#pc9d0665c81)" style="fill: none; stroke: #595959"/>
   </g>
   <g id="line2d_91">
    <path d="M 348.00505 67.127215 
L 348.00505 57.343514 
" clip-path="url(#pc9d0665c81)" style="fill: none; stroke: #595959"/>
   </g>
   <g id="line2d_92">
    <path d="M 344.804525 406.717334 
L 351.205574 406.717334 
" clip-path="url(#pc9d0665c81)" style="fill: none; stroke: #595959; stroke-linecap: round"/>
   </g>
   <g id="line2d_93">
    <path d="M 344.804525 57.343514 
L 351.205574 57.343514 
" clip-path="url(#pc9d0665c81)" style="fill: none; stroke: #595959; stroke-linecap: round"/>
   </g>
   <g id="line2d_94"/>
   <g id="patch_19">
    <path d="M 359.892713 258.572958 
L 372.694812 258.572958 
L 372.694812 70.964566 
L 359.892713 70.964566 
L 359.892713 258.572958 
z
" clip-path="url(#pc9d0665c81)" style="fill: #72b6a1; stroke: #595959; stroke-linejoin: miter"/>
   </g>
   <g id="line2d_95">
    <path d="M 366.293762 258.572958 
L 366.293762 405.976612 
" clip-path="url(#pc9d0665c81)" style="fill: none; stroke: #595959"/>
   </g>
   <g id="line2d_96">
    <path d="M 366.293762 70.964566 
L 366.293762 57.590421 
" clip-path="url(#pc9d0665c81)" style="fill: none; stroke: #595959"/>
   </g>
   <g id="line2d_97">
    <path d="M 363.093238 405.976612 
L 369.494287 405.976612 
" clip-path="url(#pc9d0665c81)" style="fill: none; stroke: #595959; stroke-linecap: round"/>
   </g>
   <g id="line2d_98">
    <path d="M 363.093238 57.590421 
L 369.494287 57.590421 
" clip-path="url(#pc9d0665c81)" style="fill: none; stroke: #595959; stroke-linecap: round"/>
   </g>
   <g id="line2d_99"/>
   <g id="patch_20">
    <path d="M 378.181426 259.066773 
L 390.983525 259.066773 
L 390.983525 65.985269 
L 378.181426 65.985269 
L 378.181426 259.066773 
z
" clip-path="url(#pc9d0665c81)" style="fill: #72b6a1; stroke: #595959; stroke-linejoin: miter"/>
   </g>
   <g id="line2d_100">
    <path d="M 384.582475 259.066773 
L 384.582475 402.458183 
" clip-path="url(#pc9d0665c81)" style="fill: none; stroke: #595959"/>
   </g>
   <g id="line2d_101">
    <path d="M 384.582475 65.985269 
L 384.582475 57.466967 
" clip-path="url(#pc9d0665c81)" style="fill: none; stroke: #595959"/>
   </g>
   <g id="line2d_102">
    <path d="M 381.38195 402.458183 
L 387.783 402.458183 
" clip-path="url(#pc9d0665c81)" style="fill: none; stroke: #595959; stroke-linecap: round"/>
   </g>
   <g id="line2d_103">
    <path d="M 381.38195 57.466967 
L 387.783 57.466967 
" clip-path="url(#pc9d0665c81)" style="fill: none; stroke: #595959; stroke-linecap: round"/>
   </g>
   <g id="line2d_104"/>
   <g id="patch_21">
    <path d="M 396.470139 255.455753 
L 409.272238 255.455753 
L 409.272238 77.805956 
L 396.470139 77.805956 
L 396.470139 255.455753 
z
" clip-path="url(#pc9d0665c81)" style="fill: #72b6a1; stroke: #595959; stroke-linejoin: miter"/>
   </g>
   <g id="line2d_105">
    <path d="M 402.871188 255.455753 
L 402.871188 431.901878 
" clip-path="url(#pc9d0665c81)" style="fill: none; stroke: #595959"/>
   </g>
   <g id="line2d_106">
    <path d="M 402.871188 77.805956 
L 402.871188 57.621284 
" clip-path="url(#pc9d0665c81)" style="fill: none; stroke: #595959"/>
   </g>
   <g id="line2d_107">
    <path d="M 399.670663 431.901878 
L 406.071713 431.901878 
" clip-path="url(#pc9d0665c81)" style="fill: none; stroke: #595959; stroke-linecap: round"/>
   </g>
   <g id="line2d_108">
    <path d="M 399.670663 57.621284 
L 406.071713 57.621284 
" clip-path="url(#pc9d0665c81)" style="fill: none; stroke: #595959; stroke-linecap: round"/>
   </g>
   <g id="line2d_109"/>
   <g id="patch_22">
    <path d="M 414.758851 257.801373 
L 427.56095 257.801373 
L 427.56095 70.24442 
L 414.758851 70.24442 
L 414.758851 257.801373 
z
" clip-path="url(#pc9d0665c81)" style="fill: #72b6a1; stroke: #595959; stroke-linejoin: miter"/>
   </g>
   <g id="line2d_110">
    <path d="M 421.159901 257.801373 
L 421.159901 394.279379 
" clip-path="url(#pc9d0665c81)" style="fill: none; stroke: #595959"/>
   </g>
   <g id="line2d_111">
    <path d="M 421.159901 70.24442 
L 421.159901 56.787972 
" clip-path="url(#pc9d0665c81)" style="fill: none; stroke: #595959"/>
   </g>
   <g id="line2d_112">
    <path d="M 417.959376 394.279379 
L 424.360426 394.279379 
" clip-path="url(#pc9d0665c81)" style="fill: none; stroke: #595959; stroke-linecap: round"/>
   </g>
   <g id="line2d_113">
    <path d="M 417.959376 56.787972 
L 424.360426 56.787972 
" clip-path="url(#pc9d0665c81)" style="fill: none; stroke: #595959; stroke-linecap: round"/>
   </g>
   <g id="line2d_114"/>
   <g id="patch_23">
    <path d="M 433.047564 250.610198 
L 445.849663 250.610198 
L 445.849663 67.188942 
L 433.047564 67.188942 
L 433.047564 250.610198 
z
" clip-path="url(#pc9d0665c81)" style="fill: #72b6a1; stroke: #595959; stroke-linejoin: miter"/>
   </g>
   <g id="line2d_115">
    <path d="M 439.448614 250.610198 
L 439.448614 389.032599 
" clip-path="url(#pc9d0665c81)" style="fill: none; stroke: #595959"/>
   </g>
   <g id="line2d_116">
    <path d="M 439.448614 67.188942 
L 439.448614 57.374377 
" clip-path="url(#pc9d0665c81)" style="fill: none; stroke: #595959"/>
   </g>
   <g id="line2d_117">
    <path d="M 436.248089 389.032599 
L 442.649139 389.032599 
" clip-path="url(#pc9d0665c81)" style="fill: none; stroke: #595959; stroke-linecap: round"/>
   </g>
   <g id="line2d_118">
    <path d="M 436.248089 57.374377 
L 442.649139 57.374377 
" clip-path="url(#pc9d0665c81)" style="fill: none; stroke: #595959; stroke-linecap: round"/>
   </g>
   <g id="line2d_119"/>
   <g id="patch_24">
    <path d="M 451.336277 251.44351 
L 464.138376 251.44351 
L 464.138376 65.769225 
L 451.336277 65.769225 
L 451.336277 251.44351 
z
" clip-path="url(#pc9d0665c81)" style="fill: #72b6a1; stroke: #595959; stroke-linejoin: miter"/>
   </g>
   <g id="line2d_120">
    <path d="M 457.737327 251.44351 
L 457.737327 386.254892 
" clip-path="url(#pc9d0665c81)" style="fill: none; stroke: #595959"/>
   </g>
   <g id="line2d_121">
    <path d="M 457.737327 65.769225 
L 457.737327 56.787972 
" clip-path="url(#pc9d0665c81)" style="fill: none; stroke: #595959"/>
   </g>
   <g id="line2d_122">
    <path d="M 454.536802 386.254892 
L 460.937851 386.254892 
" clip-path="url(#pc9d0665c81)" style="fill: none; stroke: #595959; stroke-linecap: round"/>
   </g>
   <g id="line2d_123">
    <path d="M 454.536802 56.787972 
L 460.937851 56.787972 
" clip-path="url(#pc9d0665c81)" style="fill: none; stroke: #595959; stroke-linecap: round"/>
   </g>
   <g id="line2d_124"/>
   <g id="patch_25">
    <path d="M 469.62499 249.962066 
L 482.427089 249.962066 
L 482.427089 65.614908 
L 469.62499 65.614908 
L 469.62499 249.962066 
z
" clip-path="url(#pc9d0665c81)" style="fill: #72b6a1; stroke: #595959; stroke-linejoin: miter"/>
   </g>
   <g id="line2d_125">
    <path d="M 476.02604 249.962066 
L 476.02604 384.526541 
" clip-path="url(#pc9d0665c81)" style="fill: none; stroke: #595959"/>
   </g>
   <g id="line2d_126">
    <path d="M 476.02604 65.614908 
L 476.02604 56.787972 
" clip-path="url(#pc9d0665c81)" style="fill: none; stroke: #595959"/>
   </g>
   <g id="line2d_127">
    <path d="M 472.825515 384.526541 
L 479.226564 384.526541 
" clip-path="url(#pc9d0665c81)" style="fill: none; stroke: #595959; stroke-linecap: round"/>
   </g>
   <g id="line2d_128">
    <path d="M 472.825515 56.787972 
L 479.226564 56.787972 
" clip-path="url(#pc9d0665c81)" style="fill: none; stroke: #595959; stroke-linecap: round"/>
   </g>
   <g id="line2d_129"/>
   <g id="patch_26">
    <path d="M 487.913703 254.498988 
L 500.715802 254.498988 
L 500.715802 65.491454 
L 487.913703 65.491454 
L 487.913703 254.498988 
z
" clip-path="url(#pc9d0665c81)" style="fill: #72b6a1; stroke: #595959; stroke-linejoin: miter"/>
   </g>
   <g id="line2d_130">
    <path d="M 494.314752 254.498988 
L 494.314752 381.378473 
" clip-path="url(#pc9d0665c81)" style="fill: none; stroke: #595959"/>
   </g>
   <g id="line2d_131">
    <path d="M 494.314752 65.491454 
L 494.314752 57.31265 
" clip-path="url(#pc9d0665c81)" style="fill: none; stroke: #595959"/>
   </g>
   <g id="line2d_132">
    <path d="M 491.114228 381.378473 
L 497.515277 381.378473 
" clip-path="url(#pc9d0665c81)" style="fill: none; stroke: #595959; stroke-linecap: round"/>
   </g>
   <g id="line2d_133">
    <path d="M 491.114228 57.31265 
L 497.515277 57.31265 
" clip-path="url(#pc9d0665c81)" style="fill: none; stroke: #595959; stroke-linecap: round"/>
   </g>
   <g id="line2d_134"/>
   <g id="patch_27">
    <path d="M 506.202416 247.894217 
L 519.004515 247.894217 
L 519.004515 66.725991 
L 506.202416 66.725991 
L 506.202416 247.894217 
z
" clip-path="url(#pc9d0665c81)" style="fill: #72b6a1; stroke: #595959; stroke-linejoin: miter"/>
   </g>
   <g id="line2d_135">
    <path d="M 512.603465 247.894217 
L 512.603465 377.520547 
" clip-path="url(#pc9d0665c81)" style="fill: none; stroke: #595959"/>
   </g>
   <g id="line2d_136">
    <path d="M 512.603465 66.725991 
L 512.603465 56.541065 
" clip-path="url(#pc9d0665c81)" style="fill: none; stroke: #595959"/>
   </g>
   <g id="line2d_137">
    <path d="M 509.402941 377.520547 
L 515.80399 377.520547 
" clip-path="url(#pc9d0665c81)" style="fill: none; stroke: #595959; stroke-linecap: round"/>
   </g>
   <g id="line2d_138">
    <path d="M 509.402941 56.541065 
L 515.80399 56.541065 
" clip-path="url(#pc9d0665c81)" style="fill: none; stroke: #595959; stroke-linecap: round"/>
   </g>
   <g id="line2d_139"/>
   <g id="patch_28">
    <path d="M 524.491129 249.684295 
L 537.293228 249.684295 
L 537.293228 65.398864 
L 524.491129 65.398864 
L 524.491129 249.684295 
z
" clip-path="url(#pc9d0665c81)" style="fill: #72b6a1; stroke: #595959; stroke-linejoin: miter"/>
   </g>
   <g id="line2d_140">
    <path d="M 530.892178 249.684295 
L 530.892178 411.964114 
" clip-path="url(#pc9d0665c81)" style="fill: none; stroke: #595959"/>
   </g>
   <g id="line2d_141">
    <path d="M 530.892178 65.398864 
L 530.892178 56.541065 
" clip-path="url(#pc9d0665c81)" style="fill: none; stroke: #595959"/>
   </g>
   <g id="line2d_142">
    <path d="M 527.691653 411.964114 
L 534.092703 411.964114 
" clip-path="url(#pc9d0665c81)" style="fill: none; stroke: #595959; stroke-linecap: round"/>
   </g>
   <g id="line2d_143">
    <path d="M 527.691653 56.541065 
L 534.092703 56.541065 
" clip-path="url(#pc9d0665c81)" style="fill: none; stroke: #595959; stroke-linecap: round"/>
   </g>
   <g id="line2d_144"/>
   <g id="patch_29">
    <path d="M 542.779842 244.252335 
L 555.581941 244.252335 
L 555.581941 65.306274 
L 542.779842 65.306274 
L 542.779842 244.252335 
z
" clip-path="url(#pc9d0665c81)" style="fill: #72b6a1; stroke: #595959; stroke-linejoin: miter"/>
   </g>
   <g id="line2d_145">
    <path d="M 549.180891 244.252335 
L 549.180891 375.02061 
" clip-path="url(#pc9d0665c81)" style="fill: none; stroke: #595959"/>
   </g>
   <g id="line2d_146">
    <path d="M 549.180891 65.306274 
L 549.180891 55.553436 
" clip-path="url(#pc9d0665c81)" style="fill: none; stroke: #595959"/>
   </g>
   <g id="line2d_147">
    <path d="M 545.980366 375.02061 
L 552.381416 375.02061 
" clip-path="url(#pc9d0665c81)" style="fill: none; stroke: #595959; stroke-linecap: round"/>
   </g>
   <g id="line2d_148">
    <path d="M 545.980366 55.553436 
L 552.381416 55.553436 
" clip-path="url(#pc9d0665c81)" style="fill: none; stroke: #595959; stroke-linecap: round"/>
   </g>
   <g id="line2d_149"/>
   <g id="patch_30">
    <path d="M 561.068554 242.369667 
L 573.870653 242.369667 
L 573.870653 66.880308 
L 561.068554 66.880308 
L 561.068554 242.369667 
z
" clip-path="url(#pc9d0665c81)" style="fill: #72b6a1; stroke: #595959; stroke-linejoin: miter"/>
   </g>
   <g id="line2d_150">
    <path d="M 567.469604 242.369667 
L 567.469604 384.619131 
" clip-path="url(#pc9d0665c81)" style="fill: none; stroke: #595959"/>
   </g>
   <g id="line2d_151">
    <path d="M 567.469604 66.880308 
L 567.469604 56.108977 
" clip-path="url(#pc9d0665c81)" style="fill: none; stroke: #595959"/>
   </g>
   <g id="line2d_152">
    <path d="M 564.269079 384.619131 
L 570.670129 384.619131 
" clip-path="url(#pc9d0665c81)" style="fill: none; stroke: #595959; stroke-linecap: round"/>
   </g>
   <g id="line2d_153">
    <path d="M 564.269079 56.108977 
L 570.670129 56.108977 
" clip-path="url(#pc9d0665c81)" style="fill: none; stroke: #595959; stroke-linecap: round"/>
   </g>
   <g id="line2d_154"/>
   <g id="patch_31">
    <path d="M 579.357267 243.48075 
L 592.159366 243.48075 
L 592.159366 70.33701 
L 579.357267 70.33701 
L 579.357267 243.48075 
z
" clip-path="url(#pc9d0665c81)" style="fill: #72b6a1; stroke: #595959; stroke-linejoin: miter"/>
   </g>
   <g id="line2d_155">
    <path d="M 585.758317 243.48075 
L 585.758317 368.50843 
" clip-path="url(#pc9d0665c81)" style="fill: none; stroke: #595959"/>
   </g>
   <g id="line2d_156">
    <path d="M 585.758317 70.33701 
L 585.758317 57.096606 
" clip-path="url(#pc9d0665c81)" style="fill: none; stroke: #595959"/>
   </g>
   <g id="line2d_157">
    <path d="M 582.557792 368.50843 
L 588.958842 368.50843 
" clip-path="url(#pc9d0665c81)" style="fill: none; stroke: #595959; stroke-linecap: round"/>
   </g>
   <g id="line2d_158">
    <path d="M 582.557792 57.096606 
L 588.958842 57.096606 
" clip-path="url(#pc9d0665c81)" style="fill: none; stroke: #595959; stroke-linecap: round"/>
   </g>
   <g id="line2d_159"/>
   <g id="patch_32">
    <path d="M 597.64598 245.980686 
L 610.448079 245.980686 
L 610.448079 64.812459 
L 597.64598 64.812459 
L 597.64598 245.980686 
z
" clip-path="url(#pc9d0665c81)" style="fill: #72b6a1; stroke: #595959; stroke-linejoin: miter"/>
   </g>
   <g id="line2d_160">
    <path d="M 604.04703 245.980686 
L 604.04703 369.280016 
" clip-path="url(#pc9d0665c81)" style="fill: none; stroke: #595959"/>
   </g>
   <g id="line2d_161">
    <path d="M 604.04703 64.812459 
L 604.04703 56.170704 
" clip-path="url(#pc9d0665c81)" style="fill: none; stroke: #595959"/>
   </g>
   <g id="line2d_162">
    <path d="M 600.846505 369.280016 
L 607.247554 369.280016 
" clip-path="url(#pc9d0665c81)" style="fill: none; stroke: #595959; stroke-linecap: round"/>
   </g>
   <g id="line2d_163">
    <path d="M 600.846505 56.170704 
L 607.247554 56.170704 
" clip-path="url(#pc9d0665c81)" style="fill: none; stroke: #595959; stroke-linecap: round"/>
   </g>
   <g id="line2d_164"/>
   <g id="patch_33">
    <path d="M 615.934693 238.32656 
L 628.736792 238.32656 
L 628.736792 65.954405 
L 615.934693 65.954405 
L 615.934693 238.32656 
z
" clip-path="url(#pc9d0665c81)" style="fill: #72b6a1; stroke: #595959; stroke-linejoin: miter"/>
   </g>
   <g id="line2d_165">
    <path d="M 622.335743 238.32656 
L 622.335743 366.378855 
" clip-path="url(#pc9d0665c81)" style="fill: none; stroke: #595959"/>
   </g>
   <g id="line2d_166">
    <path d="M 622.335743 65.954405 
L 622.335743 54.442353 
" clip-path="url(#pc9d0665c81)" style="fill: none; stroke: #595959"/>
   </g>
   <g id="line2d_167">
    <path d="M 619.135218 366.378855 
L 625.536267 366.378855 
" clip-path="url(#pc9d0665c81)" style="fill: none; stroke: #595959; stroke-linecap: round"/>
   </g>
   <g id="line2d_168">
    <path d="M 619.135218 54.442353 
L 625.536267 54.442353 
" clip-path="url(#pc9d0665c81)" style="fill: none; stroke: #595959; stroke-linecap: round"/>
   </g>
   <g id="line2d_169"/>
   <g id="patch_34">
    <path d="M 634.223406 238.882101 
L 647.025505 238.882101 
L 647.025505 65.398864 
L 634.223406 65.398864 
L 634.223406 238.882101 
z
" clip-path="url(#pc9d0665c81)" style="fill: #72b6a1; stroke: #595959; stroke-linejoin: miter"/>
   </g>
   <g id="line2d_170">
    <path d="M 640.624455 238.882101 
L 640.624455 366.131948 
" clip-path="url(#pc9d0665c81)" style="fill: none; stroke: #595959"/>
   </g>
   <g id="line2d_171">
    <path d="M 640.624455 65.398864 
L 640.624455 54.936167 
" clip-path="url(#pc9d0665c81)" style="fill: none; stroke: #595959"/>
   </g>
   <g id="line2d_172">
    <path d="M 637.423931 366.131948 
L 643.82498 366.131948 
" clip-path="url(#pc9d0665c81)" style="fill: none; stroke: #595959; stroke-linecap: round"/>
   </g>
   <g id="line2d_173">
    <path d="M 637.423931 54.936167 
L 643.82498 54.936167 
" clip-path="url(#pc9d0665c81)" style="fill: none; stroke: #595959; stroke-linecap: round"/>
   </g>
   <g id="line2d_174"/>
   <g id="patch_35">
    <path d="M 652.512119 239.067282 
L 665.314218 239.067282 
L 665.314218 65.306274 
L 652.512119 65.306274 
L 652.512119 239.067282 
z
" clip-path="url(#pc9d0665c81)" style="fill: #72b6a1; stroke: #595959; stroke-linejoin: miter"/>
   </g>
   <g id="line2d_175">
    <path d="M 658.913168 239.067282 
L 658.913168 362.860426 
" clip-path="url(#pc9d0665c81)" style="fill: none; stroke: #595959"/>
   </g>
   <g id="line2d_176">
    <path d="M 658.913168 65.306274 
L 658.913168 56.294158 
" clip-path="url(#pc9d0665c81)" style="fill: none; stroke: #595959"/>
   </g>
   <g id="line2d_177">
    <path d="M 655.712644 362.860426 
L 662.113693 362.860426 
" clip-path="url(#pc9d0665c81)" style="fill: none; stroke: #595959; stroke-linecap: round"/>
   </g>
   <g id="line2d_178">
    <path d="M 655.712644 56.294158 
L 662.113693 56.294158 
" clip-path="url(#pc9d0665c81)" style="fill: none; stroke: #595959; stroke-linecap: round"/>
   </g>
   <g id="line2d_179"/>
   <g id="patch_36">
    <path d="M 670.800832 235.764897 
L 683.602931 235.764897 
L 683.602931 64.935913 
L 670.800832 64.935913 
L 670.800832 235.764897 
z
" clip-path="url(#pc9d0665c81)" style="fill: #72b6a1; stroke: #595959; stroke-linejoin: miter"/>
   </g>
   <g id="line2d_180">
    <path d="M 677.201881 235.764897 
L 677.201881 362.428338 
" clip-path="url(#pc9d0665c81)" style="fill: none; stroke: #595959"/>
   </g>
   <g id="line2d_181">
    <path d="M 677.201881 64.935913 
L 677.201881 57.343514 
" clip-path="url(#pc9d0665c81)" style="fill: none; stroke: #595959"/>
   </g>
   <g id="line2d_182">
    <path d="M 674.001356 362.428338 
L 680.402406 362.428338 
" clip-path="url(#pc9d0665c81)" style="fill: none; stroke: #595959; stroke-linecap: round"/>
   </g>
   <g id="line2d_183">
    <path d="M 674.001356 57.343514 
L 680.402406 57.343514 
" clip-path="url(#pc9d0665c81)" style="fill: none; stroke: #595959; stroke-linecap: round"/>
   </g>
   <g id="line2d_184"/>
   <g id="patch_37">
    <path d="M 689.089545 235.70317 
L 701.891644 235.70317 
L 701.891644 65.553181 
L 689.089545 65.553181 
L 689.089545 235.70317 
z
" clip-path="url(#pc9d0665c81)" style="fill: #72b6a1; stroke: #595959; stroke-linejoin: miter"/>
   </g>
   <g id="line2d_185">
    <path d="M 695.490594 235.70317 
L 695.490594 357.706236 
" clip-path="url(#pc9d0665c81)" style="fill: none; stroke: #595959"/>
   </g>
   <g id="line2d_186">
    <path d="M 695.490594 65.553181 
L 695.490594 55.368255 
" clip-path="url(#pc9d0665c81)" style="fill: none; stroke: #595959"/>
   </g>
   <g id="line2d_187">
    <path d="M 692.290069 357.706236 
L 698.691119 357.706236 
" clip-path="url(#pc9d0665c81)" style="fill: none; stroke: #595959; stroke-linecap: round"/>
   </g>
   <g id="line2d_188">
    <path d="M 692.290069 55.368255 
L 698.691119 55.368255 
" clip-path="url(#pc9d0665c81)" style="fill: none; stroke: #595959; stroke-linecap: round"/>
   </g>
   <g id="line2d_189"/>
   <g id="patch_38">
    <path d="M 707.378257 232.832873 
L 720.180356 232.832873 
L 720.180356 65.121093 
L 707.378257 65.121093 
L 707.378257 232.832873 
z
" clip-path="url(#pc9d0665c81)" style="fill: #72b6a1; stroke: #595959; stroke-linejoin: miter"/>
   </g>
   <g id="line2d_190">
    <path d="M 713.779307 232.832873 
L 713.779307 357.335875 
" clip-path="url(#pc9d0665c81)" style="fill: none; stroke: #595959"/>
   </g>
   <g id="line2d_191">
    <path d="M 713.779307 65.121093 
L 713.779307 54.997894 
" clip-path="url(#pc9d0665c81)" style="fill: none; stroke: #595959"/>
   </g>
   <g id="line2d_192">
    <path d="M 710.578782 357.335875 
L 716.979832 357.335875 
" clip-path="url(#pc9d0665c81)" style="fill: none; stroke: #595959; stroke-linecap: round"/>
   </g>
   <g id="line2d_193">
    <path d="M 710.578782 54.997894 
L 716.979832 54.997894 
" clip-path="url(#pc9d0665c81)" style="fill: none; stroke: #595959; stroke-linecap: round"/>
   </g>
   <g id="line2d_194"/>
   <g id="patch_39">
    <path d="M 725.66697 232.462512 
L 738.469069 232.462512 
L 738.469069 63.701376 
L 725.66697 63.701376 
L 725.66697 232.462512 
z
" clip-path="url(#pc9d0665c81)" style="fill: #72b6a1; stroke: #595959; stroke-linejoin: miter"/>
   </g>
   <g id="line2d_195">
    <path d="M 732.06802 232.462512 
L 732.06802 357.82969 
" clip-path="url(#pc9d0665c81)" style="fill: none; stroke: #595959"/>
   </g>
   <g id="line2d_196">
    <path d="M 732.06802 63.701376 
L 732.06802 55.800343 
" clip-path="url(#pc9d0665c81)" style="fill: none; stroke: #595959"/>
   </g>
   <g id="line2d_197">
    <path d="M 728.867495 357.82969 
L 735.268545 357.82969 
" clip-path="url(#pc9d0665c81)" style="fill: none; stroke: #595959; stroke-linecap: round"/>
   </g>
   <g id="line2d_198">
    <path d="M 728.867495 55.800343 
L 735.268545 55.800343 
" clip-path="url(#pc9d0665c81)" style="fill: none; stroke: #595959; stroke-linecap: round"/>
   </g>
   <g id="line2d_199"/>
   <g id="patch_40">
    <path d="M 743.955683 233.820502 
L 756.757782 233.820502 
L 756.757782 66.54081 
L 743.955683 66.54081 
L 743.955683 233.820502 
z
" clip-path="url(#pc9d0665c81)" style="fill: #72b6a1; stroke: #595959; stroke-linejoin: miter"/>
   </g>
   <g id="line2d_200">
    <path d="M 750.356733 233.820502 
L 750.356733 354.434715 
" clip-path="url(#pc9d0665c81)" style="fill: none; stroke: #595959"/>
   </g>
   <g id="line2d_201">
    <path d="M 750.356733 66.54081 
L 750.356733 53.825085 
" clip-path="url(#pc9d0665c81)" style="fill: none; stroke: #595959"/>
   </g>
   <g id="line2d_202">
    <path d="M 747.156208 354.434715 
L 753.557257 354.434715 
" clip-path="url(#pc9d0665c81)" style="fill: none; stroke: #595959; stroke-linecap: round"/>
   </g>
   <g id="line2d_203">
    <path d="M 747.156208 53.825085 
L 753.557257 53.825085 
" clip-path="url(#pc9d0665c81)" style="fill: none; stroke: #595959; stroke-linecap: round"/>
   </g>
   <g id="line2d_204"/>
   <g id="patch_41">
    <path d="M 762.244396 228.542858 
L 775.046495 228.542858 
L 775.046495 64.689006 
L 762.244396 64.689006 
L 762.244396 228.542858 
z
" clip-path="url(#pc9d0665c81)" style="fill: #72b6a1; stroke: #595959; stroke-linejoin: miter"/>
   </g>
   <g id="line2d_205">
    <path d="M 768.645446 228.542858 
L 768.645446 353.076725 
" clip-path="url(#pc9d0665c81)" style="fill: none; stroke: #595959"/>
   </g>
   <g id="line2d_206">
    <path d="M 768.645446 64.689006 
L 768.645446 55.86207 
" clip-path="url(#pc9d0665c81)" style="fill: none; stroke: #595959"/>
   </g>
   <g id="line2d_207">
    <path d="M 765.444921 353.076725 
L 771.84597 353.076725 
" clip-path="url(#pc9d0665c81)" style="fill: none; stroke: #595959; stroke-linecap: round"/>
   </g>
   <g id="line2d_208">
    <path d="M 765.444921 55.86207 
L 771.84597 55.86207 
" clip-path="url(#pc9d0665c81)" style="fill: none; stroke: #595959; stroke-linecap: round"/>
   </g>
   <g id="line2d_209"/>
   <g id="patch_42">
    <path d="M 780.533109 229.777395 
L 793.335208 229.777395 
L 793.335208 64.287781 
L 780.533109 64.287781 
L 780.533109 229.777395 
z
" clip-path="url(#pc9d0665c81)" style="fill: #72b6a1; stroke: #595959; stroke-linejoin: miter"/>
   </g>
   <g id="line2d_210">
    <path d="M 786.934158 229.777395 
L 786.934158 353.076725 
" clip-path="url(#pc9d0665c81)" style="fill: none; stroke: #595959"/>
   </g>
   <g id="line2d_211">
    <path d="M 786.934158 64.287781 
L 786.934158 53.948538 
" clip-path="url(#pc9d0665c81)" style="fill: none; stroke: #595959"/>
   </g>
   <g id="line2d_212">
    <path d="M 783.733634 353.076725 
L 790.134683 353.076725 
" clip-path="url(#pc9d0665c81)" style="fill: none; stroke: #595959; stroke-linecap: round"/>
   </g>
   <g id="line2d_213">
    <path d="M 783.733634 53.948538 
L 790.134683 53.948538 
" clip-path="url(#pc9d0665c81)" style="fill: none; stroke: #595959; stroke-linecap: round"/>
   </g>
   <g id="line2d_214"/>
   <g id="patch_43">
    <path d="M 798.821822 225.549107 
L 811.623921 225.549107 
L 811.623921 64.318645 
L 798.821822 64.318645 
L 798.821822 225.549107 
z
" clip-path="url(#pc9d0665c81)" style="fill: #72b6a1; stroke: #595959; stroke-linejoin: miter"/>
   </g>
   <g id="line2d_215">
    <path d="M 805.222871 225.549107 
L 805.222871 349.836066 
" clip-path="url(#pc9d0665c81)" style="fill: none; stroke: #595959"/>
   </g>
   <g id="line2d_216">
    <path d="M 805.222871 64.318645 
L 805.222871 54.997894 
" clip-path="url(#pc9d0665c81)" style="fill: none; stroke: #595959"/>
   </g>
   <g id="line2d_217">
    <path d="M 802.022347 349.836066 
L 808.423396 349.836066 
" clip-path="url(#pc9d0665c81)" style="fill: none; stroke: #595959; stroke-linecap: round"/>
   </g>
   <g id="line2d_218">
    <path d="M 802.022347 54.997894 
L 808.423396 54.997894 
" clip-path="url(#pc9d0665c81)" style="fill: none; stroke: #595959; stroke-linecap: round"/>
   </g>
   <g id="line2d_219"/>
   <g id="patch_44">
    <path d="M 817.110535 224.191117 
L 829.912634 224.191117 
L 829.912634 65.121093 
L 817.110535 65.121093 
L 817.110535 224.191117 
z
" clip-path="url(#pc9d0665c81)" style="fill: #72b6a1; stroke: #595959; stroke-linejoin: miter"/>
   </g>
   <g id="line2d_220">
    <path d="M 823.511584 224.191117 
L 823.511584 349.836066 
" clip-path="url(#pc9d0665c81)" style="fill: none; stroke: #595959"/>
   </g>
   <g id="line2d_221">
    <path d="M 823.511584 65.121093 
L 823.511584 53.701631 
" clip-path="url(#pc9d0665c81)" style="fill: none; stroke: #595959"/>
   </g>
   <g id="line2d_222">
    <path d="M 820.311059 349.836066 
L 826.712109 349.836066 
" clip-path="url(#pc9d0665c81)" style="fill: none; stroke: #595959; stroke-linecap: round"/>
   </g>
   <g id="line2d_223">
    <path d="M 820.311059 53.701631 
L 826.712109 53.701631 
" clip-path="url(#pc9d0665c81)" style="fill: none; stroke: #595959; stroke-linecap: round"/>
   </g>
   <g id="line2d_224"/>
   <g id="patch_45">
    <path d="M 835.399248 223.542986 
L 848.201347 223.542986 
L 848.201347 67.312396 
L 835.399248 67.312396 
L 835.399248 223.542986 
z
" clip-path="url(#pc9d0665c81)" style="fill: #72b6a1; stroke: #595959; stroke-linejoin: miter"/>
   </g>
   <g id="line2d_225">
    <path d="M 841.800297 223.542986 
L 841.800297 349.589159 
" clip-path="url(#pc9d0665c81)" style="fill: none; stroke: #595959"/>
   </g>
   <g id="line2d_226">
    <path d="M 841.800297 67.312396 
L 841.800297 56.04725 
" clip-path="url(#pc9d0665c81)" style="fill: none; stroke: #595959"/>
   </g>
   <g id="line2d_227">
    <path d="M 838.599772 349.589159 
L 845.000822 349.589159 
" clip-path="url(#pc9d0665c81)" style="fill: none; stroke: #595959; stroke-linecap: round"/>
   </g>
   <g id="line2d_228">
    <path d="M 838.599772 56.04725 
L 845.000822 56.04725 
" clip-path="url(#pc9d0665c81)" style="fill: none; stroke: #595959; stroke-linecap: round"/>
   </g>
   <g id="line2d_229"/>
   <g id="patch_46">
    <path d="M 853.68796 223.234352 
L 866.490059 223.234352 
L 866.490059 66.44822 
L 853.68796 66.44822 
L 853.68796 223.234352 
z
" clip-path="url(#pc9d0665c81)" style="fill: #72b6a1; stroke: #595959; stroke-linejoin: miter"/>
   </g>
   <g id="line2d_230">
    <path d="M 860.08901 223.234352 
L 860.08901 349.126208 
" clip-path="url(#pc9d0665c81)" style="fill: none; stroke: #595959"/>
   </g>
   <g id="line2d_231">
    <path d="M 860.08901 66.44822 
L 860.08901 54.750987 
" clip-path="url(#pc9d0665c81)" style="fill: none; stroke: #595959"/>
   </g>
   <g id="line2d_232">
    <path d="M 856.888485 349.126208 
L 863.289535 349.126208 
" clip-path="url(#pc9d0665c81)" style="fill: none; stroke: #595959; stroke-linecap: round"/>
   </g>
   <g id="line2d_233">
    <path d="M 856.888485 54.750987 
L 863.289535 54.750987 
" clip-path="url(#pc9d0665c81)" style="fill: none; stroke: #595959; stroke-linecap: round"/>
   </g>
   <g id="line2d_234"/>
   <g id="patch_47">
    <path d="M 871.976673 220.888732 
L 884.778772 220.888732 
L 884.778772 64.102601 
L 871.976673 64.102601 
L 871.976673 220.888732 
z
" clip-path="url(#pc9d0665c81)" style="fill: #72b6a1; stroke: #595959; stroke-linejoin: miter"/>
   </g>
   <g id="line2d_235">
    <path d="M 878.377723 220.888732 
L 878.377723 349.681749 
" clip-path="url(#pc9d0665c81)" style="fill: none; stroke: #595959"/>
   </g>
   <g id="line2d_236">
    <path d="M 878.377723 64.102601 
L 878.377723 54.874441 
" clip-path="url(#pc9d0665c81)" style="fill: none; stroke: #595959"/>
   </g>
   <g id="line2d_237">
    <path d="M 875.177198 349.681749 
L 881.578248 349.681749 
" clip-path="url(#pc9d0665c81)" style="fill: none; stroke: #595959; stroke-linecap: round"/>
   </g>
   <g id="line2d_238">
    <path d="M 875.177198 54.874441 
L 881.578248 54.874441 
" clip-path="url(#pc9d0665c81)" style="fill: none; stroke: #595959; stroke-linecap: round"/>
   </g>
   <g id="line2d_239"/>
   <g id="patch_48">
    <path d="M 890.265386 220.765279 
L 903.067485 220.765279 
L 903.067485 64.411235 
L 890.265386 64.411235 
L 890.265386 220.765279 
z
" clip-path="url(#pc9d0665c81)" style="fill: #72b6a1; stroke: #595959; stroke-linejoin: miter"/>
   </g>
   <g id="line2d_240">
    <path d="M 896.666436 220.765279 
L 896.666436 344.095472 
" clip-path="url(#pc9d0665c81)" style="fill: none; stroke: #595959"/>
   </g>
   <g id="line2d_241">
    <path d="M 896.666436 64.411235 
L 896.666436 56.04725 
" clip-path="url(#pc9d0665c81)" style="fill: none; stroke: #595959"/>
   </g>
   <g id="line2d_242">
    <path d="M 893.465911 344.095472 
L 899.86696 344.095472 
" clip-path="url(#pc9d0665c81)" style="fill: none; stroke: #595959; stroke-linecap: round"/>
   </g>
   <g id="line2d_243">
    <path d="M 893.465911 56.04725 
L 899.86696 56.04725 
" clip-path="url(#pc9d0665c81)" style="fill: none; stroke: #595959; stroke-linecap: round"/>
   </g>
   <g id="line2d_244"/>
   <g id="patch_49">
    <path d="M 908.554099 222.431903 
L 921.356198 222.431903 
L 921.356198 64.411235 
L 908.554099 64.411235 
L 908.554099 222.431903 
z
" clip-path="url(#pc9d0665c81)" style="fill: #72b6a1; stroke: #595959; stroke-linejoin: miter"/>
   </g>
   <g id="line2d_245">
    <path d="M 914.955149 222.431903 
L 914.955149 344.52756 
" clip-path="url(#pc9d0665c81)" style="fill: none; stroke: #595959"/>
   </g>
   <g id="line2d_246">
    <path d="M 914.955149 64.411235 
L 914.955149 55.121348 
" clip-path="url(#pc9d0665c81)" style="fill: none; stroke: #595959"/>
   </g>
   <g id="line2d_247">
    <path d="M 911.754624 344.52756 
L 918.155673 344.52756 
" clip-path="url(#pc9d0665c81)" style="fill: none; stroke: #595959; stroke-linecap: round"/>
   </g>
   <g id="line2d_248">
    <path d="M 911.754624 55.121348 
L 918.155673 55.121348 
" clip-path="url(#pc9d0665c81)" style="fill: none; stroke: #595959; stroke-linecap: round"/>
   </g>
   <g id="line2d_249"/>
   <g id="patch_50">
    <path d="M 926.842812 218.60484 
L 939.644911 218.60484 
L 939.644911 64.843323 
L 926.842812 64.843323 
L 926.842812 218.60484 
z
" clip-path="url(#pc9d0665c81)" style="fill: #72b6a1; stroke: #595959; stroke-linejoin: miter"/>
   </g>
   <g id="line2d_250">
    <path d="M 933.243861 218.60484 
L 933.243861 343.015252 
" clip-path="url(#pc9d0665c81)" style="fill: none; stroke: #595959"/>
   </g>
   <g id="line2d_251">
    <path d="M 933.243861 64.843323 
L 933.243861 55.429982 
" clip-path="url(#pc9d0665c81)" style="fill: none; stroke: #595959"/>
   </g>
   <g id="line2d_252">
    <path d="M 930.043337 343.015252 
L 936.444386 343.015252 
" clip-path="url(#pc9d0665c81)" style="fill: none; stroke: #595959; stroke-linecap: round"/>
   </g>
   <g id="line2d_253">
    <path d="M 930.043337 55.429982 
L 936.444386 55.429982 
" clip-path="url(#pc9d0665c81)" style="fill: none; stroke: #595959; stroke-linecap: round"/>
   </g>
   <g id="line2d_254"/>
   <g id="patch_51">
    <path d="M 945.131525 218.728293 
L 957.933624 218.728293 
L 957.933624 71.911044 
L 945.131525 71.911044 
L 945.131525 218.728293 
z
" clip-path="url(#pc9d0665c81)" style="fill: #72b6a1; stroke: #595959; stroke-linejoin: miter"/>
   </g>
   <g id="line2d_255">
    <path d="M 951.532574 218.728293 
L 951.532574 341.935033 
" clip-path="url(#pc9d0665c81)" style="fill: none; stroke: #595959"/>
   </g>
   <g id="line2d_256">
    <path d="M 951.532574 71.911044 
L 951.532574 54.812714 
" clip-path="url(#pc9d0665c81)" style="fill: none; stroke: #595959"/>
   </g>
   <g id="line2d_257">
    <path d="M 948.33205 341.935033 
L 954.733099 341.935033 
" clip-path="url(#pc9d0665c81)" style="fill: none; stroke: #595959; stroke-linecap: round"/>
   </g>
   <g id="line2d_258">
    <path d="M 948.33205 54.812714 
L 954.733099 54.812714 
" clip-path="url(#pc9d0665c81)" style="fill: none; stroke: #595959; stroke-linecap: round"/>
   </g>
   <g id="line2d_259"/>
   <g id="patch_52">
    <path d="M 963.420238 218.759157 
L 976.222337 218.759157 
L 976.222337 64.164328 
L 963.420238 64.164328 
L 963.420238 218.759157 
z
" clip-path="url(#pc9d0665c81)" style="fill: #72b6a1; stroke: #595959; stroke-linejoin: miter"/>
   </g>
   <g id="line2d_260">
    <path d="M 969.821287 218.759157 
L 969.821287 341.163448 
" clip-path="url(#pc9d0665c81)" style="fill: none; stroke: #595959"/>
   </g>
   <g id="line2d_261">
    <path d="M 969.821287 64.164328 
L 969.821287 52.960909 
" clip-path="url(#pc9d0665c81)" style="fill: none; stroke: #595959"/>
   </g>
   <g id="line2d_262">
    <path d="M 966.620762 341.163448 
L 973.021812 341.163448 
" clip-path="url(#pc9d0665c81)" style="fill: none; stroke: #595959; stroke-linecap: round"/>
   </g>
   <g id="line2d_263">
    <path d="M 966.620762 52.960909 
L 973.021812 52.960909 
" clip-path="url(#pc9d0665c81)" style="fill: none; stroke: #595959; stroke-linecap: round"/>
   </g>
   <g id="line2d_264"/>
   <g id="line2d_265">
    <path d="M 67.273307 301.658281 
L 80.075406 301.658281 
" clip-path="url(#pc9d0665c81)" style="fill: none; stroke: #595959"/>
   </g>
   <g id="line2d_266">
    <path d="M 85.56202 267.167231 
L 98.364119 267.167231 
" clip-path="url(#pc9d0665c81)" style="fill: none; stroke: #595959"/>
   </g>
   <g id="line2d_267">
    <path d="M 103.850733 240.894396 
L 116.652832 240.894396 
" clip-path="url(#pc9d0665c81)" style="fill: none; stroke: #595959"/>
   </g>
   <g id="line2d_268">
    <path d="M 122.139446 229.44407 
L 134.941545 229.44407 
" clip-path="url(#pc9d0665c81)" style="fill: none; stroke: #595959"/>
   </g>
   <g id="line2d_269">
    <path d="M 140.428158 222.141787 
L 153.230257 222.141787 
" clip-path="url(#pc9d0665c81)" style="fill: none; stroke: #595959"/>
   </g>
   <g id="line2d_270">
    <path d="M 158.716871 209.006319 
L 171.51897 209.006319 
" clip-path="url(#pc9d0665c81)" style="fill: none; stroke: #595959"/>
   </g>
   <g id="line2d_271">
    <path d="M 177.005584 212.308704 
L 189.807683 212.308704 
" clip-path="url(#pc9d0665c81)" style="fill: none; stroke: #595959"/>
   </g>
   <g id="line2d_272">
    <path d="M 195.294297 206.722426 
L 208.096396 206.722426 
" clip-path="url(#pc9d0665c81)" style="fill: none; stroke: #595959"/>
   </g>
   <g id="line2d_273">
    <path d="M 213.58301 158.482914 
L 226.385109 158.482914 
" clip-path="url(#pc9d0665c81)" style="fill: none; stroke: #595959"/>
   </g>
   <g id="line2d_274">
    <path d="M 231.871723 118.267888 
L 244.673822 118.267888 
" clip-path="url(#pc9d0665c81)" style="fill: none; stroke: #595959"/>
   </g>
   <g id="line2d_275">
    <path d="M 250.160436 112.21866 
L 262.962535 112.21866 
" clip-path="url(#pc9d0665c81)" style="fill: none; stroke: #595959"/>
   </g>
   <g id="line2d_276">
    <path d="M 268.449149 116.879035 
L 281.251248 116.879035 
" clip-path="url(#pc9d0665c81)" style="fill: none; stroke: #595959"/>
   </g>
   <g id="line2d_277">
    <path d="M 286.737861 102.743592 
L 299.53996 102.743592 
" clip-path="url(#pc9d0665c81)" style="fill: none; stroke: #595959"/>
   </g>
   <g id="line2d_278">
    <path d="M 305.026574 117.033352 
L 317.828673 117.033352 
" clip-path="url(#pc9d0665c81)" style="fill: none; stroke: #595959"/>
   </g>
   <g id="line2d_279">
    <path d="M 323.315287 130.242892 
L 336.117386 130.242892 
" clip-path="url(#pc9d0665c81)" style="fill: none; stroke: #595959"/>
   </g>
   <g id="line2d_280">
    <path d="M 341.604 99.811568 
L 354.406099 99.811568 
" clip-path="url(#pc9d0665c81)" style="fill: none; stroke: #595959"/>
   </g>
   <g id="line2d_281">
    <path d="M 359.892713 97.774583 
L 372.694812 97.774583 
" clip-path="url(#pc9d0665c81)" style="fill: none; stroke: #595959"/>
   </g>
   <g id="line2d_282">
    <path d="M 378.181426 119.255517 
L 390.983525 119.255517 
" clip-path="url(#pc9d0665c81)" style="fill: none; stroke: #595959"/>
   </g>
   <g id="line2d_283">
    <path d="M 396.470139 121.601137 
L 409.272238 121.601137 
" clip-path="url(#pc9d0665c81)" style="fill: none; stroke: #595959"/>
   </g>
   <g id="line2d_284">
    <path d="M 414.758851 93.638886 
L 427.56095 93.638886 
" clip-path="url(#pc9d0665c81)" style="fill: none; stroke: #595959"/>
   </g>
   <g id="line2d_285">
    <path d="M 433.047564 114.502552 
L 445.849663 114.502552 
" clip-path="url(#pc9d0665c81)" style="fill: none; stroke: #595959"/>
   </g>
   <g id="line2d_286">
    <path d="M 451.336277 92.527803 
L 464.138376 92.527803 
" clip-path="url(#pc9d0665c81)" style="fill: none; stroke: #595959"/>
   </g>
   <g id="line2d_287">
    <path d="M 469.62499 94.533925 
L 482.427089 94.533925 
" clip-path="url(#pc9d0665c81)" style="fill: none; stroke: #595959"/>
   </g>
   <g id="line2d_288">
    <path d="M 487.913703 120.459191 
L 500.715802 120.459191 
" clip-path="url(#pc9d0665c81)" style="fill: none; stroke: #595959"/>
   </g>
   <g id="line2d_289">
    <path d="M 506.202416 109.59527 
L 519.004515 109.59527 
" clip-path="url(#pc9d0665c81)" style="fill: none; stroke: #595959"/>
   </g>
   <g id="line2d_290">
    <path d="M 524.491129 92.280896 
L 537.293228 92.280896 
" clip-path="url(#pc9d0665c81)" style="fill: none; stroke: #595959"/>
   </g>
   <g id="line2d_291">
    <path d="M 542.779842 91.23154 
L 555.581941 91.23154 
" clip-path="url(#pc9d0665c81)" style="fill: none; stroke: #595959"/>
   </g>
   <g id="line2d_292">
    <path d="M 561.068554 91.663627 
L 573.870653 91.663627 
" clip-path="url(#pc9d0665c81)" style="fill: none; stroke: #595959"/>
   </g>
   <g id="line2d_293">
    <path d="M 579.357267 94.163564 
L 592.159366 94.163564 
" clip-path="url(#pc9d0665c81)" style="fill: none; stroke: #595959"/>
   </g>
   <g id="line2d_294">
    <path d="M 597.64598 87.960018 
L 610.448079 87.960018 
" clip-path="url(#pc9d0665c81)" style="fill: none; stroke: #595959"/>
   </g>
   <g id="line2d_295">
    <path d="M 615.934693 87.898291 
L 628.736792 87.898291 
" clip-path="url(#pc9d0665c81)" style="fill: none; stroke: #595959"/>
   </g>
   <g id="line2d_296">
    <path d="M 634.223406 90.182184 
L 647.025505 90.182184 
" clip-path="url(#pc9d0665c81)" style="fill: none; stroke: #595959"/>
   </g>
   <g id="line2d_297">
    <path d="M 652.512119 97.095588 
L 665.314218 97.095588 
" clip-path="url(#pc9d0665c81)" style="fill: none; stroke: #595959"/>
   </g>
   <g id="line2d_298">
    <path d="M 670.800832 85.98476 
L 683.602931 85.98476 
" clip-path="url(#pc9d0665c81)" style="fill: none; stroke: #595959"/>
   </g>
   <g id="line2d_299">
    <path d="M 689.089545 129.100946 
L 701.891644 129.100946 
" clip-path="url(#pc9d0665c81)" style="fill: none; stroke: #595959"/>
   </g>
   <g id="line2d_300">
    <path d="M 707.378257 85.058857 
L 720.180356 85.058857 
" clip-path="url(#pc9d0665c81)" style="fill: none; stroke: #595959"/>
   </g>
   <g id="line2d_301">
    <path d="M 725.66697 100.428836 
L 738.469069 100.428836 
" clip-path="url(#pc9d0665c81)" style="fill: none; stroke: #595959"/>
   </g>
   <g id="line2d_302">
    <path d="M 743.955683 92.003125 
L 756.757782 92.003125 
" clip-path="url(#pc9d0665c81)" style="fill: none; stroke: #595959"/>
   </g>
   <g id="line2d_303">
    <path d="M 762.244396 84.62677 
L 775.046495 84.62677 
" clip-path="url(#pc9d0665c81)" style="fill: none; stroke: #595959"/>
   </g>
   <g id="line2d_304">
    <path d="M 780.533109 126.014605 
L 793.335208 126.014605 
" clip-path="url(#pc9d0665c81)" style="fill: none; stroke: #595959"/>
   </g>
   <g id="line2d_305">
    <path d="M 798.821822 81.416975 
L 811.623921 81.416975 
" clip-path="url(#pc9d0665c81)" style="fill: none; stroke: #595959"/>
   </g>
   <g id="line2d_306">
    <path d="M 817.110535 83.145326 
L 829.912634 83.145326 
" clip-path="url(#pc9d0665c81)" style="fill: none; stroke: #595959"/>
   </g>
   <g id="line2d_307">
    <path d="M 835.399248 86.941525 
L 848.201347 86.941525 
" clip-path="url(#pc9d0665c81)" style="fill: none; stroke: #595959"/>
   </g>
   <g id="line2d_308">
    <path d="M 853.68796 104.965758 
L 866.490059 104.965758 
" clip-path="url(#pc9d0665c81)" style="fill: none; stroke: #595959"/>
   </g>
   <g id="line2d_309">
    <path d="M 871.976673 92.342622 
L 884.778772 92.342622 
" clip-path="url(#pc9d0665c81)" style="fill: none; stroke: #595959"/>
   </g>
   <g id="line2d_310">
    <path d="M 890.265386 81.046614 
L 903.067485 81.046614 
" clip-path="url(#pc9d0665c81)" style="fill: none; stroke: #595959"/>
   </g>
   <g id="line2d_311">
    <path d="M 908.554099 94.1327 
L 921.356198 94.1327 
" clip-path="url(#pc9d0665c81)" style="fill: none; stroke: #595959"/>
   </g>
   <g id="line2d_312">
    <path d="M 926.842812 77.065234 
L 939.644911 77.065234 
" clip-path="url(#pc9d0665c81)" style="fill: none; stroke: #595959"/>
   </g>
   <g id="line2d_313">
    <path d="M 945.131525 83.083599 
L 957.933624 83.083599 
" clip-path="url(#pc9d0665c81)" style="fill: none; stroke: #595959"/>
   </g>
   <g id="line2d_314">
    <path d="M 963.420238 81.972516 
L 976.222337 81.972516 
" clip-path="url(#pc9d0665c81)" style="fill: none; stroke: #595959"/>
   </g>
   <g id="patch_53">
    <path d="M 64.53 525.06 
L 64.53 30.48 
" style="fill: none; stroke: #cccccc; stroke-width: 1.25; stroke-linejoin: miter; stroke-linecap: square"/>
   </g>
   <g id="patch_54">
    <path d="M 988.11 525.06 
L 988.11 30.48 
" style="fill: none; stroke: #cccccc; stroke-width: 1.25; stroke-linejoin: miter; stroke-linecap: square"/>
   </g>
   <g id="patch_55">
    <path d="M 64.53 525.06 
L 988.11 525.06 
" style="fill: none; stroke: #cccccc; stroke-width: 1.25; stroke-linejoin: miter; stroke-linecap: square"/>
   </g>
   <g id="patch_56">
    <path d="M 64.53 30.48 
L 988.11 30.48 
" style="fill: none; stroke: #cccccc; stroke-width: 1.25; stroke-linejoin: miter; stroke-linecap: square"/>
   </g>
   <g id="text_17">
    <!-- img-classification - celeba-gender (Accuracy_mean Distribution) -->
    <g style="fill: #262626" transform="translate(237.06125 24.48) scale(0.16 -0.16)">
     <defs>
      <path id="DejaVuSans-Bold-69" d="M 538 3500 
L 1656 3500 
L 1656 0 
L 538 0 
L 538 3500 
z
M 538 4863 
L 1656 4863 
L 1656 3950 
L 538 3950 
L 538 4863 
z
" transform="scale(0.015625)"/>
      <path id="DejaVuSans-Bold-6d" d="M 3781 2919 
Q 3994 3244 4286 3414 
Q 4578 3584 4928 3584 
Q 5531 3584 5847 3212 
Q 6163 2841 6163 2131 
L 6163 0 
L 5038 0 
L 5038 1825 
Q 5041 1866 5042 1909 
Q 5044 1953 5044 2034 
Q 5044 2406 4934 2573 
Q 4825 2741 4581 2741 
Q 4263 2741 4089 2478 
Q 3916 2216 3909 1719 
L 3909 0 
L 2784 0 
L 2784 1825 
Q 2784 2406 2684 2573 
Q 2584 2741 2328 2741 
Q 2006 2741 1831 2477 
Q 1656 2213 1656 1722 
L 1656 0 
L 531 0 
L 531 3500 
L 1656 3500 
L 1656 2988 
Q 1863 3284 2130 3434 
Q 2397 3584 2719 3584 
Q 3081 3584 3359 3409 
Q 3638 3234 3781 2919 
z
" transform="scale(0.015625)"/>
      <path id="DejaVuSans-Bold-67" d="M 2919 594 
Q 2688 288 2409 144 
Q 2131 0 1766 0 
Q 1125 0 706 504 
Q 288 1009 288 1791 
Q 288 2575 706 3076 
Q 1125 3578 1766 3578 
Q 2131 3578 2409 3434 
Q 2688 3291 2919 2981 
L 2919 3500 
L 4044 3500 
L 4044 353 
Q 4044 -491 3511 -936 
Q 2978 -1381 1966 -1381 
Q 1638 -1381 1331 -1331 
Q 1025 -1281 716 -1178 
L 716 -306 
Q 1009 -475 1290 -558 
Q 1572 -641 1856 -641 
Q 2406 -641 2662 -400 
Q 2919 -159 2919 353 
L 2919 594 
z
M 2181 2772 
Q 1834 2772 1640 2515 
Q 1447 2259 1447 1791 
Q 1447 1309 1634 1061 
Q 1822 813 2181 813 
Q 2531 813 2725 1069 
Q 2919 1325 2919 1791 
Q 2919 2259 2725 2515 
Q 2531 2772 2181 2772 
z
" transform="scale(0.015625)"/>
      <path id="DejaVuSans-Bold-2d" d="M 347 2297 
L 2309 2297 
L 2309 1388 
L 347 1388 
L 347 2297 
z
" transform="scale(0.015625)"/>
      <path id="DejaVuSans-Bold-63" d="M 3366 3391 
L 3366 2478 
Q 3138 2634 2908 2709 
Q 2678 2784 2431 2784 
Q 1963 2784 1702 2511 
Q 1441 2238 1441 1747 
Q 1441 1256 1702 982 
Q 1963 709 2431 709 
Q 2694 709 2930 787 
Q 3166 866 3366 1019 
L 3366 103 
Q 3103 6 2833 -42 
Q 2563 -91 2291 -91 
Q 1344 -91 809 395 
Q 275 881 275 1747 
Q 275 2613 809 3098 
Q 1344 3584 2291 3584 
Q 2566 3584 2833 3536 
Q 3100 3488 3366 3391 
z
" transform="scale(0.015625)"/>
      <path id="DejaVuSans-Bold-6c" d="M 538 4863 
L 1656 4863 
L 1656 0 
L 538 0 
L 538 4863 
z
" transform="scale(0.015625)"/>
      <path id="DejaVuSans-Bold-61" d="M 2106 1575 
Q 1756 1575 1579 1456 
Q 1403 1338 1403 1106 
Q 1403 894 1545 773 
Q 1688 653 1941 653 
Q 2256 653 2472 879 
Q 2688 1106 2688 1447 
L 2688 1575 
L 2106 1575 
z
M 3816 1997 
L 3816 0 
L 2688 0 
L 2688 519 
Q 2463 200 2181 54 
Q 1900 -91 1497 -91 
Q 953 -91 614 226 
Q 275 544 275 1050 
Q 275 1666 698 1953 
Q 1122 2241 2028 2241 
L 2688 2241 
L 2688 2328 
Q 2688 2594 2478 2717 
Q 2269 2841 1825 2841 
Q 1466 2841 1156 2769 
Q 847 2697 581 2553 
L 581 3406 
Q 941 3494 1303 3539 
Q 1666 3584 2028 3584 
Q 2975 3584 3395 3211 
Q 3816 2838 3816 1997 
z
" transform="scale(0.015625)"/>
      <path id="DejaVuSans-Bold-73" d="M 3272 3391 
L 3272 2541 
Q 2913 2691 2578 2766 
Q 2244 2841 1947 2841 
Q 1628 2841 1473 2761 
Q 1319 2681 1319 2516 
Q 1319 2381 1436 2309 
Q 1553 2238 1856 2203 
L 2053 2175 
Q 2913 2066 3209 1816 
Q 3506 1566 3506 1031 
Q 3506 472 3093 190 
Q 2681 -91 1863 -91 
Q 1516 -91 1145 -36 
Q 775 19 384 128 
L 384 978 
Q 719 816 1070 734 
Q 1422 653 1784 653 
Q 2113 653 2278 743 
Q 2444 834 2444 1013 
Q 2444 1163 2330 1236 
Q 2216 1309 1875 1350 
L 1678 1375 
Q 931 1469 631 1722 
Q 331 1975 331 2491 
Q 331 3047 712 3315 
Q 1094 3584 1881 3584 
Q 2191 3584 2531 3537 
Q 2872 3491 3272 3391 
z
" transform="scale(0.015625)"/>
      <path id="DejaVuSans-Bold-66" d="M 2841 4863 
L 2841 4128 
L 2222 4128 
Q 1984 4128 1890 4042 
Q 1797 3956 1797 3744 
L 1797 3500 
L 2753 3500 
L 2753 2700 
L 1797 2700 
L 1797 0 
L 678 0 
L 678 2700 
L 122 2700 
L 122 3500 
L 678 3500 
L 678 3744 
Q 678 4316 997 4589 
Q 1316 4863 1984 4863 
L 2841 4863 
z
" transform="scale(0.015625)"/>
      <path id="DejaVuSans-Bold-74" d="M 1759 4494 
L 1759 3500 
L 2913 3500 
L 2913 2700 
L 1759 2700 
L 1759 1216 
Q 1759 972 1856 886 
Q 1953 800 2241 800 
L 2816 800 
L 2816 0 
L 1856 0 
Q 1194 0 917 276 
Q 641 553 641 1216 
L 641 2700 
L 84 2700 
L 84 3500 
L 641 3500 
L 641 4494 
L 1759 4494 
z
" transform="scale(0.015625)"/>
      <path id="DejaVuSans-Bold-6f" d="M 2203 2784 
Q 1831 2784 1636 2517 
Q 1441 2250 1441 1747 
Q 1441 1244 1636 976 
Q 1831 709 2203 709 
Q 2569 709 2762 976 
Q 2956 1244 2956 1747 
Q 2956 2250 2762 2517 
Q 2569 2784 2203 2784 
z
M 2203 3584 
Q 3106 3584 3614 3096 
Q 4122 2609 4122 1747 
Q 4122 884 3614 396 
Q 3106 -91 2203 -91 
Q 1297 -91 786 396 
Q 275 884 275 1747 
Q 275 2609 786 3096 
Q 1297 3584 2203 3584 
z
" transform="scale(0.015625)"/>
      <path id="DejaVuSans-Bold-6e" d="M 4056 2131 
L 4056 0 
L 2931 0 
L 2931 347 
L 2931 1631 
Q 2931 2084 2911 2256 
Q 2891 2428 2841 2509 
Q 2775 2619 2662 2680 
Q 2550 2741 2406 2741 
Q 2056 2741 1856 2470 
Q 1656 2200 1656 1722 
L 1656 0 
L 538 0 
L 538 3500 
L 1656 3500 
L 1656 2988 
Q 1909 3294 2193 3439 
Q 2478 3584 2822 3584 
Q 3428 3584 3742 3212 
Q 4056 2841 4056 2131 
z
" transform="scale(0.015625)"/>
      <path id="DejaVuSans-Bold-20" transform="scale(0.015625)"/>
      <path id="DejaVuSans-Bold-65" d="M 4031 1759 
L 4031 1441 
L 1416 1441 
Q 1456 1047 1700 850 
Q 1944 653 2381 653 
Q 2734 653 3104 758 
Q 3475 863 3866 1075 
L 3866 213 
Q 3469 63 3072 -14 
Q 2675 -91 2278 -91 
Q 1328 -91 801 392 
Q 275 875 275 1747 
Q 275 2603 792 3093 
Q 1309 3584 2216 3584 
Q 3041 3584 3536 3087 
Q 4031 2591 4031 1759 
z
M 2881 2131 
Q 2881 2450 2695 2645 
Q 2509 2841 2209 2841 
Q 1884 2841 1681 2658 
Q 1478 2475 1428 2131 
L 2881 2131 
z
" transform="scale(0.015625)"/>
      <path id="DejaVuSans-Bold-62" d="M 2400 722 
Q 2759 722 2948 984 
Q 3138 1247 3138 1747 
Q 3138 2247 2948 2509 
Q 2759 2772 2400 2772 
Q 2041 2772 1848 2508 
Q 1656 2244 1656 1747 
Q 1656 1250 1848 986 
Q 2041 722 2400 722 
z
M 1656 2988 
Q 1888 3294 2169 3439 
Q 2450 3584 2816 3584 
Q 3463 3584 3878 3070 
Q 4294 2556 4294 1747 
Q 4294 938 3878 423 
Q 3463 -91 2816 -91 
Q 2450 -91 2169 54 
Q 1888 200 1656 506 
L 1656 0 
L 538 0 
L 538 4863 
L 1656 4863 
L 1656 2988 
z
" transform="scale(0.015625)"/>
      <path id="DejaVuSans-Bold-64" d="M 2919 2988 
L 2919 4863 
L 4044 4863 
L 4044 0 
L 2919 0 
L 2919 506 
Q 2688 197 2409 53 
Q 2131 -91 1766 -91 
Q 1119 -91 703 423 
Q 288 938 288 1747 
Q 288 2556 703 3070 
Q 1119 3584 1766 3584 
Q 2128 3584 2408 3439 
Q 2688 3294 2919 2988 
z
M 2181 722 
Q 2541 722 2730 984 
Q 2919 1247 2919 1747 
Q 2919 2247 2730 2509 
Q 2541 2772 2181 2772 
Q 1825 2772 1636 2509 
Q 1447 2247 1447 1747 
Q 1447 1247 1636 984 
Q 1825 722 2181 722 
z
" transform="scale(0.015625)"/>
      <path id="DejaVuSans-Bold-72" d="M 3138 2547 
Q 2991 2616 2845 2648 
Q 2700 2681 2553 2681 
Q 2122 2681 1889 2404 
Q 1656 2128 1656 1613 
L 1656 0 
L 538 0 
L 538 3500 
L 1656 3500 
L 1656 2925 
Q 1872 3269 2151 3426 
Q 2431 3584 2822 3584 
Q 2878 3584 2943 3579 
Q 3009 3575 3134 3559 
L 3138 2547 
z
" transform="scale(0.015625)"/>
      <path id="DejaVuSans-Bold-28" d="M 2413 -844 
L 1484 -844 
Q 1006 -72 778 623 
Q 550 1319 550 2003 
Q 550 2688 779 3389 
Q 1009 4091 1484 4856 
L 2413 4856 
Q 2013 4116 1813 3408 
Q 1613 2700 1613 2009 
Q 1613 1319 1811 609 
Q 2009 -100 2413 -844 
z
" transform="scale(0.015625)"/>
      <path id="DejaVuSans-Bold-41" d="M 3419 850 
L 1538 850 
L 1241 0 
L 31 0 
L 1759 4666 
L 3194 4666 
L 4922 0 
L 3713 0 
L 3419 850 
z
M 1838 1716 
L 3116 1716 
L 2478 3572 
L 1838 1716 
z
" transform="scale(0.015625)"/>
      <path id="DejaVuSans-Bold-75" d="M 500 1363 
L 500 3500 
L 1625 3500 
L 1625 3150 
Q 1625 2866 1622 2436 
Q 1619 2006 1619 1863 
Q 1619 1441 1641 1255 
Q 1663 1069 1716 984 
Q 1784 875 1895 815 
Q 2006 756 2150 756 
Q 2500 756 2700 1025 
Q 2900 1294 2900 1772 
L 2900 3500 
L 4019 3500 
L 4019 0 
L 2900 0 
L 2900 506 
Q 2647 200 2364 54 
Q 2081 -91 1741 -91 
Q 1134 -91 817 281 
Q 500 653 500 1363 
z
" transform="scale(0.015625)"/>
      <path id="DejaVuSans-Bold-79" d="M 78 3500 
L 1197 3500 
L 2138 1125 
L 2938 3500 
L 4056 3500 
L 2584 -331 
Q 2363 -916 2067 -1148 
Q 1772 -1381 1288 -1381 
L 641 -1381 
L 641 -647 
L 991 -647 
Q 1275 -647 1404 -556 
Q 1534 -466 1606 -231 
L 1638 -134 
L 78 3500 
z
" transform="scale(0.015625)"/>
      <path id="DejaVuSans-Bold-5f" d="M 3200 -916 
L 3200 -1509 
L 0 -1509 
L 0 -916 
L 3200 -916 
z
" transform="scale(0.015625)"/>
      <path id="DejaVuSans-Bold-44" d="M 1791 3756 
L 1791 909 
L 2222 909 
Q 2959 909 3348 1275 
Q 3738 1641 3738 2338 
Q 3738 3031 3350 3393 
Q 2963 3756 2222 3756 
L 1791 3756 
z
M 588 4666 
L 1856 4666 
Q 2919 4666 3439 4514 
Q 3959 4363 4331 4000 
Q 4659 3684 4818 3271 
Q 4978 2859 4978 2338 
Q 4978 1809 4818 1395 
Q 4659 981 4331 666 
Q 3956 303 3431 151 
Q 2906 0 1856 0 
L 588 0 
L 588 4666 
z
" transform="scale(0.015625)"/>
      <path id="DejaVuSans-Bold-29" d="M 513 -844 
Q 913 -100 1113 609 
Q 1313 1319 1313 2009 
Q 1313 2700 1113 3408 
Q 913 4116 513 4856 
L 1441 4856 
Q 1916 4091 2145 3389 
Q 2375 2688 2375 2003 
Q 2375 1319 2147 623 
Q 1919 -72 1441 -844 
L 513 -844 
z
" transform="scale(0.015625)"/>
     </defs>
     <use xlink:href="#DejaVuSans-Bold-69"/>
     <use xlink:href="#DejaVuSans-Bold-6d" transform="translate(34.277344 0)"/>
     <use xlink:href="#DejaVuSans-Bold-67" transform="translate(138.476562 0)"/>
     <use xlink:href="#DejaVuSans-Bold-2d" transform="translate(210.058594 0)"/>
     <use xlink:href="#DejaVuSans-Bold-63" transform="translate(251.5625 0)"/>
     <use xlink:href="#DejaVuSans-Bold-6c" transform="translate(310.839844 0)"/>
     <use xlink:href="#DejaVuSans-Bold-61" transform="translate(345.117188 0)"/>
     <use xlink:href="#DejaVuSans-Bold-73" transform="translate(412.597656 0)"/>
     <use xlink:href="#DejaVuSans-Bold-73" transform="translate(472.119141 0)"/>
     <use xlink:href="#DejaVuSans-Bold-69" transform="translate(531.640625 0)"/>
     <use xlink:href="#DejaVuSans-Bold-66" transform="translate(565.917969 0)"/>
     <use xlink:href="#DejaVuSans-Bold-69" transform="translate(609.423828 0)"/>
     <use xlink:href="#DejaVuSans-Bold-63" transform="translate(643.701172 0)"/>
     <use xlink:href="#DejaVuSans-Bold-61" transform="translate(702.978516 0)"/>
     <use xlink:href="#DejaVuSans-Bold-74" transform="translate(770.458984 0)"/>
     <use xlink:href="#DejaVuSans-Bold-69" transform="translate(818.261719 0)"/>
     <use xlink:href="#DejaVuSans-Bold-6f" transform="translate(852.539062 0)"/>
     <use xlink:href="#DejaVuSans-Bold-6e" transform="translate(921.240234 0)"/>
     <use xlink:href="#DejaVuSans-Bold-20" transform="translate(992.431641 0)"/>
     <use xlink:href="#DejaVuSans-Bold-2d" transform="translate(1027.246094 0)"/>
     <use xlink:href="#DejaVuSans-Bold-20" transform="translate(1068.75 0)"/>
     <use xlink:href="#DejaVuSans-Bold-63" transform="translate(1103.564453 0)"/>
     <use xlink:href="#DejaVuSans-Bold-65" transform="translate(1162.841797 0)"/>
     <use xlink:href="#DejaVuSans-Bold-6c" transform="translate(1230.664062 0)"/>
     <use xlink:href="#DejaVuSans-Bold-65" transform="translate(1264.941406 0)"/>
     <use xlink:href="#DejaVuSans-Bold-62" transform="translate(1332.763672 0)"/>
     <use xlink:href="#DejaVuSans-Bold-61" transform="translate(1404.345703 0)"/>
     <use xlink:href="#DejaVuSans-Bold-2d" transform="translate(1471.826172 0)"/>
     <use xlink:href="#DejaVuSans-Bold-67" transform="translate(1513.330078 0)"/>
     <use xlink:href="#DejaVuSans-Bold-65" transform="translate(1584.912109 0)"/>
     <use xlink:href="#DejaVuSans-Bold-6e" transform="translate(1652.734375 0)"/>
     <use xlink:href="#DejaVuSans-Bold-64" transform="translate(1723.925781 0)"/>
     <use xlink:href="#DejaVuSans-Bold-65" transform="translate(1795.507812 0)"/>
     <use xlink:href="#DejaVuSans-Bold-72" transform="translate(1863.330078 0)"/>
     <use xlink:href="#DejaVuSans-Bold-20" transform="translate(1912.646484 0)"/>
     <use xlink:href="#DejaVuSans-Bold-28" transform="translate(1947.460938 0)"/>
     <use xlink:href="#DejaVuSans-Bold-41" transform="translate(1993.164062 0)"/>
     <use xlink:href="#DejaVuSans-Bold-63" transform="translate(2070.556641 0)"/>
     <use xlink:href="#DejaVuSans-Bold-63" transform="translate(2129.833984 0)"/>
     <use xlink:href="#DejaVuSans-Bold-75" transform="translate(2189.111328 0)"/>
     <use xlink:href="#DejaVuSans-Bold-72" transform="translate(2260.302734 0)"/>
     <use xlink:href="#DejaVuSans-Bold-61" transform="translate(2309.619141 0)"/>
     <use xlink:href="#DejaVuSans-Bold-63" transform="translate(2377.099609 0)"/>
     <use xlink:href="#DejaVuSans-Bold-79" transform="translate(2436.376953 0)"/>
     <use xlink:href="#DejaVuSans-Bold-5f" transform="translate(2501.5625 0)"/>
     <use xlink:href="#DejaVuSans-Bold-6d" transform="translate(2551.5625 0)"/>
     <use xlink:href="#DejaVuSans-Bold-65" transform="translate(2655.761719 0)"/>
     <use xlink:href="#DejaVuSans-Bold-61" transform="translate(2723.583984 0)"/>
     <use xlink:href="#DejaVuSans-Bold-6e" transform="translate(2791.064453 0)"/>
     <use xlink:href="#DejaVuSans-Bold-20" transform="translate(2862.255859 0)"/>
     <use xlink:href="#DejaVuSans-Bold-44" transform="translate(2897.070312 0)"/>
     <use xlink:href="#DejaVuSans-Bold-69" transform="translate(2980.078125 0)"/>
     <use xlink:href="#DejaVuSans-Bold-73" transform="translate(3014.355469 0)"/>
     <use xlink:href="#DejaVuSans-Bold-74" transform="translate(3073.876953 0)"/>
     <use xlink:href="#DejaVuSans-Bold-72" transform="translate(3121.679688 0)"/>
     <use xlink:href="#DejaVuSans-Bold-69" transform="translate(3170.996094 0)"/>
     <use xlink:href="#DejaVuSans-Bold-62" transform="translate(3205.273438 0)"/>
     <use xlink:href="#DejaVuSans-Bold-75" transform="translate(3276.855469 0)"/>
     <use xlink:href="#DejaVuSans-Bold-74" transform="translate(3348.046875 0)"/>
     <use xlink:href="#DejaVuSans-Bold-69" transform="translate(3395.849609 0)"/>
     <use xlink:href="#DejaVuSans-Bold-6f" transform="translate(3430.126953 0)"/>
     <use xlink:href="#DejaVuSans-Bold-6e" transform="translate(3498.828125 0)"/>
     <use xlink:href="#DejaVuSans-Bold-29" transform="translate(3570.019531 0)"/>
    </g>
   </g>
  </g>
 </g>
 <defs>
  <clipPath id="pc9d0665c81">
   <rect x="64.53" y="30.48" width="923.58" height="494.58"/>
  </clipPath>
 </defs>
</svg>
