<?xml version="1.0" encoding="utf-8" standalone="no"?>
<!DOCTYPE svg PUBLIC "-//W3C//DTD SVG 1.1//EN"
  "http://www.w3.org/Graphics/SVG/1.1/DTD/svg11.dtd">
<svg xmlns:xlink="http://www.w3.org/1999/xlink" width="1008pt" height="576pt" viewBox="0 0 1008 576" xmlns="http://www.w3.org/2000/svg" version="1.1">
 <metadata>
  <rdf:RDF xmlns:dc="http://purl.org/dc/elements/1.1/" xmlns:cc="http://creativecommons.org/ns#" xmlns:rdf="http://www.w3.org/1999/02/22-rdf-syntax-ns#">
   <cc:Work>
    <dc:type rdf:resource="http://purl.org/dc/dcmitype/StillImage"/>
    <dc:date>2025-03-27T11:55:35.851917</dc:date>
    <dc:format>image/svg+xml</dc:format>
    <dc:creator>
     <cc:Agent>
      <dc:title>Matplotlib v3.10.1, https://matplotlib.org/</dc:title>
     </cc:Agent>
    </dc:creator>
   </cc:Work>
  </rdf:RDF>
 </metadata>
 <defs>
  <style type="text/css">*{stroke-linejoin: round; stroke-linecap: butt}</style>
 </defs>
 <g id="figure_1">
  <g id="patch_1">
   <path d="M 0 576 
L 1008 576 
L 1008 0 
L 0 0 
z
" style="fill: #ffffff"/>
  </g>
  <g id="axes_1">
   <g id="patch_2">
    <path d="M 61.12125 526.5 
L 988.92 526.5 
L 988.92 30.58125 
L 61.12125 30.58125 
z
" style="fill: #ffffff"/>
   </g>
   <g id="matplotlib.axis_1">
    <g id="xtick_1">
     <g id="line2d_1">
      <path d="M 70.307376 526.5 
L 70.307376 30.58125 
" clip-path="url(#pd792c79a84)" style="fill: none; stroke-dasharray: 3.7,1.6; stroke-dashoffset: 0; stroke: #cccccc; stroke-opacity: 0.5"/>
     </g>
     <g id="text_1">
      <!-- 0 -->
      <g style="fill: #262626" transform="translate(67.248861 543.873594) scale(0.11 -0.11)">
       <defs>
        <path id="ArialMT-30" d="M 266 2259 
Q 266 3072 433 3567 
Q 600 4063 929 4331 
Q 1259 4600 1759 4600 
Q 2128 4600 2406 4451 
Q 2684 4303 2865 4023 
Q 3047 3744 3150 3342 
Q 3253 2941 3253 2259 
Q 3253 1453 3087 958 
Q 2922 463 2592 192 
Q 2263 -78 1759 -78 
Q 1097 -78 719 397 
Q 266 969 266 2259 
z
M 844 2259 
Q 844 1131 1108 757 
Q 1372 384 1759 384 
Q 2147 384 2411 759 
Q 2675 1134 2675 2259 
Q 2675 3391 2411 3762 
Q 2147 4134 1753 4134 
Q 1366 4134 1134 3806 
Q 844 3388 844 2259 
z
" transform="scale(0.015625)"/>
       </defs>
       <use xlink:href="#ArialMT-30"/>
      </g>
     </g>
    </g>
    <g id="xtick_2">
     <g id="line2d_2">
      <path d="M 254.029901 526.5 
L 254.029901 30.58125 
" clip-path="url(#pd792c79a84)" style="fill: none; stroke-dasharray: 3.7,1.6; stroke-dashoffset: 0; stroke: #cccccc; stroke-opacity: 0.5"/>
     </g>
     <g id="text_2">
      <!-- 10 -->
      <g style="fill: #262626" transform="translate(247.91287 543.873594) scale(0.11 -0.11)">
       <defs>
        <path id="ArialMT-31" d="M 2384 0 
L 1822 0 
L 1822 3584 
Q 1619 3391 1289 3197 
Q 959 3003 697 2906 
L 697 3450 
Q 1169 3672 1522 3987 
Q 1875 4303 2022 4600 
L 2384 4600 
L 2384 0 
z
" transform="scale(0.015625)"/>
       </defs>
       <use xlink:href="#ArialMT-31"/>
       <use xlink:href="#ArialMT-30" transform="translate(55.615234 0)"/>
      </g>
     </g>
    </g>
    <g id="xtick_3">
     <g id="line2d_3">
      <path d="M 437.752426 526.5 
L 437.752426 30.58125 
" clip-path="url(#pd792c79a84)" style="fill: none; stroke-dasharray: 3.7,1.6; stroke-dashoffset: 0; stroke: #cccccc; stroke-opacity: 0.5"/>
     </g>
     <g id="text_3">
      <!-- 20 -->
      <g style="fill: #262626" transform="translate(431.635394 543.873594) scale(0.11 -0.11)">
       <defs>
        <path id="ArialMT-32" d="M 3222 541 
L 3222 0 
L 194 0 
Q 188 203 259 391 
Q 375 700 629 1000 
Q 884 1300 1366 1694 
Q 2113 2306 2375 2664 
Q 2638 3022 2638 3341 
Q 2638 3675 2398 3904 
Q 2159 4134 1775 4134 
Q 1369 4134 1125 3890 
Q 881 3647 878 3216 
L 300 3275 
Q 359 3922 746 4261 
Q 1134 4600 1788 4600 
Q 2447 4600 2831 4234 
Q 3216 3869 3216 3328 
Q 3216 3053 3103 2787 
Q 2991 2522 2730 2228 
Q 2469 1934 1863 1422 
Q 1356 997 1212 845 
Q 1069 694 975 541 
L 3222 541 
z
" transform="scale(0.015625)"/>
       </defs>
       <use xlink:href="#ArialMT-32"/>
       <use xlink:href="#ArialMT-30" transform="translate(55.615234 0)"/>
      </g>
     </g>
    </g>
    <g id="xtick_4">
     <g id="line2d_4">
      <path d="M 621.47495 526.5 
L 621.47495 30.58125 
" clip-path="url(#pd792c79a84)" style="fill: none; stroke-dasharray: 3.7,1.6; stroke-dashoffset: 0; stroke: #cccccc; stroke-opacity: 0.5"/>
     </g>
     <g id="text_4">
      <!-- 30 -->
      <g style="fill: #262626" transform="translate(615.357919 543.873594) scale(0.11 -0.11)">
       <defs>
        <path id="ArialMT-33" d="M 269 1209 
L 831 1284 
Q 928 806 1161 595 
Q 1394 384 1728 384 
Q 2125 384 2398 659 
Q 2672 934 2672 1341 
Q 2672 1728 2419 1979 
Q 2166 2231 1775 2231 
Q 1616 2231 1378 2169 
L 1441 2663 
Q 1497 2656 1531 2656 
Q 1891 2656 2178 2843 
Q 2466 3031 2466 3422 
Q 2466 3731 2256 3934 
Q 2047 4138 1716 4138 
Q 1388 4138 1169 3931 
Q 950 3725 888 3313 
L 325 3413 
Q 428 3978 793 4289 
Q 1159 4600 1703 4600 
Q 2078 4600 2393 4439 
Q 2709 4278 2876 4000 
Q 3044 3722 3044 3409 
Q 3044 3113 2884 2869 
Q 2725 2625 2413 2481 
Q 2819 2388 3044 2092 
Q 3269 1797 3269 1353 
Q 3269 753 2831 336 
Q 2394 -81 1725 -81 
Q 1122 -81 723 278 
Q 325 638 269 1209 
z
" transform="scale(0.015625)"/>
       </defs>
       <use xlink:href="#ArialMT-33"/>
       <use xlink:href="#ArialMT-30" transform="translate(55.615234 0)"/>
      </g>
     </g>
    </g>
    <g id="xtick_5">
     <g id="line2d_5">
      <path d="M 805.197475 526.5 
L 805.197475 30.58125 
" clip-path="url(#pd792c79a84)" style="fill: none; stroke-dasharray: 3.7,1.6; stroke-dashoffset: 0; stroke: #cccccc; stroke-opacity: 0.5"/>
     </g>
     <g id="text_5">
      <!-- 40 -->
      <g style="fill: #262626" transform="translate(799.080444 543.873594) scale(0.11 -0.11)">
       <defs>
        <path id="ArialMT-34" d="M 2069 0 
L 2069 1097 
L 81 1097 
L 81 1613 
L 2172 4581 
L 2631 4581 
L 2631 1613 
L 3250 1613 
L 3250 1097 
L 2631 1097 
L 2631 0 
L 2069 0 
z
M 2069 1613 
L 2069 3678 
L 634 1613 
L 2069 1613 
z
" transform="scale(0.015625)"/>
       </defs>
       <use xlink:href="#ArialMT-34"/>
       <use xlink:href="#ArialMT-30" transform="translate(55.615234 0)"/>
      </g>
     </g>
    </g>
    <g id="xtick_6">
     <g id="line2d_6">
      <path d="M 988.92 526.5 
L 988.92 30.58125 
" clip-path="url(#pd792c79a84)" style="fill: none; stroke-dasharray: 3.7,1.6; stroke-dashoffset: 0; stroke: #cccccc; stroke-opacity: 0.5"/>
     </g>
     <g id="text_6">
      <!-- 50 -->
      <g style="fill: #262626" transform="translate(982.802969 543.873594) scale(0.11 -0.11)">
       <defs>
        <path id="ArialMT-35" d="M 266 1200 
L 856 1250 
Q 922 819 1161 601 
Q 1400 384 1738 384 
Q 2144 384 2425 690 
Q 2706 997 2706 1503 
Q 2706 1984 2436 2262 
Q 2166 2541 1728 2541 
Q 1456 2541 1237 2417 
Q 1019 2294 894 2097 
L 366 2166 
L 809 4519 
L 3088 4519 
L 3088 3981 
L 1259 3981 
L 1013 2750 
Q 1425 3038 1878 3038 
Q 2478 3038 2890 2622 
Q 3303 2206 3303 1553 
Q 3303 931 2941 478 
Q 2500 -78 1738 -78 
Q 1113 -78 717 272 
Q 322 622 266 1200 
z
" transform="scale(0.015625)"/>
       </defs>
       <use xlink:href="#ArialMT-35"/>
       <use xlink:href="#ArialMT-30" transform="translate(55.615234 0)"/>
      </g>
     </g>
    </g>
    <g id="text_7">
     <!-- Epoch -->
     <g style="fill: #262626" transform="translate(505.173437 560.080781) scale(0.14 -0.14)">
      <defs>
       <path id="ArialMT-45" d="M 506 0 
L 506 4581 
L 3819 4581 
L 3819 4041 
L 1113 4041 
L 1113 2638 
L 3647 2638 
L 3647 2100 
L 1113 2100 
L 1113 541 
L 3925 541 
L 3925 0 
L 506 0 
z
" transform="scale(0.015625)"/>
       <path id="ArialMT-70" d="M 422 -1272 
L 422 3319 
L 934 3319 
L 934 2888 
Q 1116 3141 1344 3267 
Q 1572 3394 1897 3394 
Q 2322 3394 2647 3175 
Q 2972 2956 3137 2557 
Q 3303 2159 3303 1684 
Q 3303 1175 3120 767 
Q 2938 359 2589 142 
Q 2241 -75 1856 -75 
Q 1575 -75 1351 44 
Q 1128 163 984 344 
L 984 -1272 
L 422 -1272 
z
M 931 1641 
Q 931 1000 1190 694 
Q 1450 388 1819 388 
Q 2194 388 2461 705 
Q 2728 1022 2728 1688 
Q 2728 2322 2467 2637 
Q 2206 2953 1844 2953 
Q 1484 2953 1207 2617 
Q 931 2281 931 1641 
z
" transform="scale(0.015625)"/>
       <path id="ArialMT-6f" d="M 213 1659 
Q 213 2581 725 3025 
Q 1153 3394 1769 3394 
Q 2453 3394 2887 2945 
Q 3322 2497 3322 1706 
Q 3322 1066 3130 698 
Q 2938 331 2570 128 
Q 2203 -75 1769 -75 
Q 1072 -75 642 372 
Q 213 819 213 1659 
z
M 791 1659 
Q 791 1022 1069 705 
Q 1347 388 1769 388 
Q 2188 388 2466 706 
Q 2744 1025 2744 1678 
Q 2744 2294 2464 2611 
Q 2184 2928 1769 2928 
Q 1347 2928 1069 2612 
Q 791 2297 791 1659 
z
" transform="scale(0.015625)"/>
       <path id="ArialMT-63" d="M 2588 1216 
L 3141 1144 
Q 3050 572 2676 248 
Q 2303 -75 1759 -75 
Q 1078 -75 664 370 
Q 250 816 250 1647 
Q 250 2184 428 2587 
Q 606 2991 970 3192 
Q 1334 3394 1763 3394 
Q 2303 3394 2647 3120 
Q 2991 2847 3088 2344 
L 2541 2259 
Q 2463 2594 2264 2762 
Q 2066 2931 1784 2931 
Q 1359 2931 1093 2626 
Q 828 2322 828 1663 
Q 828 994 1084 691 
Q 1341 388 1753 388 
Q 2084 388 2306 591 
Q 2528 794 2588 1216 
z
" transform="scale(0.015625)"/>
       <path id="ArialMT-68" d="M 422 0 
L 422 4581 
L 984 4581 
L 984 2938 
Q 1378 3394 1978 3394 
Q 2347 3394 2619 3248 
Q 2891 3103 3008 2847 
Q 3125 2591 3125 2103 
L 3125 0 
L 2563 0 
L 2563 2103 
Q 2563 2525 2380 2717 
Q 2197 2909 1863 2909 
Q 1613 2909 1392 2779 
Q 1172 2650 1078 2428 
Q 984 2206 984 1816 
L 984 0 
L 422 0 
z
" transform="scale(0.015625)"/>
      </defs>
      <use xlink:href="#ArialMT-45"/>
      <use xlink:href="#ArialMT-70" transform="translate(66.699219 0)"/>
      <use xlink:href="#ArialMT-6f" transform="translate(122.314453 0)"/>
      <use xlink:href="#ArialMT-63" transform="translate(177.929688 0)"/>
      <use xlink:href="#ArialMT-68" transform="translate(227.929688 0)"/>
     </g>
    </g>
   </g>
   <g id="matplotlib.axis_2">
    <g id="ytick_1">
     <g id="line2d_7">
      <path d="M 61.12125 522.844856 
L 988.92 522.844856 
" clip-path="url(#pd792c79a84)" style="fill: none; stroke-dasharray: 3.7,1.6; stroke-dashoffset: 0; stroke: #cccccc; stroke-opacity: 0.5"/>
     </g>
     <g id="text_8">
      <!-- 0.60 -->
      <g style="fill: #262626" transform="translate(30.214219 526.781653) scale(0.11 -0.11)">
       <defs>
        <path id="ArialMT-2e" d="M 581 0 
L 581 641 
L 1222 641 
L 1222 0 
L 581 0 
z
" transform="scale(0.015625)"/>
        <path id="ArialMT-36" d="M 3184 3459 
L 2625 3416 
Q 2550 3747 2413 3897 
Q 2184 4138 1850 4138 
Q 1581 4138 1378 3988 
Q 1113 3794 959 3422 
Q 806 3050 800 2363 
Q 1003 2672 1297 2822 
Q 1591 2972 1913 2972 
Q 2475 2972 2870 2558 
Q 3266 2144 3266 1488 
Q 3266 1056 3080 686 
Q 2894 316 2569 119 
Q 2244 -78 1831 -78 
Q 1128 -78 684 439 
Q 241 956 241 2144 
Q 241 3472 731 4075 
Q 1159 4600 1884 4600 
Q 2425 4600 2770 4297 
Q 3116 3994 3184 3459 
z
M 888 1484 
Q 888 1194 1011 928 
Q 1134 663 1356 523 
Q 1578 384 1822 384 
Q 2178 384 2434 671 
Q 2691 959 2691 1453 
Q 2691 1928 2437 2201 
Q 2184 2475 1800 2475 
Q 1419 2475 1153 2201 
Q 888 1928 888 1484 
z
" transform="scale(0.015625)"/>
       </defs>
       <use xlink:href="#ArialMT-30"/>
       <use xlink:href="#ArialMT-2e" transform="translate(55.615234 0)"/>
       <use xlink:href="#ArialMT-36" transform="translate(83.398438 0)"/>
       <use xlink:href="#ArialMT-30" transform="translate(139.013672 0)"/>
      </g>
     </g>
    </g>
    <g id="ytick_2">
     <g id="line2d_8">
      <path d="M 61.12125 452.975572 
L 988.92 452.975572 
" clip-path="url(#pd792c79a84)" style="fill: none; stroke-dasharray: 3.7,1.6; stroke-dashoffset: 0; stroke: #cccccc; stroke-opacity: 0.5"/>
     </g>
     <g id="text_9">
      <!-- 0.65 -->
      <g style="fill: #262626" transform="translate(30.214219 456.912369) scale(0.11 -0.11)">
       <use xlink:href="#ArialMT-30"/>
       <use xlink:href="#ArialMT-2e" transform="translate(55.615234 0)"/>
       <use xlink:href="#ArialMT-36" transform="translate(83.398438 0)"/>
       <use xlink:href="#ArialMT-35" transform="translate(139.013672 0)"/>
      </g>
     </g>
    </g>
    <g id="ytick_3">
     <g id="line2d_9">
      <path d="M 61.12125 383.106288 
L 988.92 383.106288 
" clip-path="url(#pd792c79a84)" style="fill: none; stroke-dasharray: 3.7,1.6; stroke-dashoffset: 0; stroke: #cccccc; stroke-opacity: 0.5"/>
     </g>
     <g id="text_10">
      <!-- 0.70 -->
      <g style="fill: #262626" transform="translate(30.214219 387.043084) scale(0.11 -0.11)">
       <defs>
        <path id="ArialMT-37" d="M 303 3981 
L 303 4522 
L 3269 4522 
L 3269 4084 
Q 2831 3619 2401 2847 
Q 1972 2075 1738 1259 
Q 1569 684 1522 0 
L 944 0 
Q 953 541 1156 1306 
Q 1359 2072 1739 2783 
Q 2119 3494 2547 3981 
L 303 3981 
z
" transform="scale(0.015625)"/>
       </defs>
       <use xlink:href="#ArialMT-30"/>
       <use xlink:href="#ArialMT-2e" transform="translate(55.615234 0)"/>
       <use xlink:href="#ArialMT-37" transform="translate(83.398438 0)"/>
       <use xlink:href="#ArialMT-30" transform="translate(139.013672 0)"/>
      </g>
     </g>
    </g>
    <g id="ytick_4">
     <g id="line2d_10">
      <path d="M 61.12125 313.237003 
L 988.92 313.237003 
" clip-path="url(#pd792c79a84)" style="fill: none; stroke-dasharray: 3.7,1.6; stroke-dashoffset: 0; stroke: #cccccc; stroke-opacity: 0.5"/>
     </g>
     <g id="text_11">
      <!-- 0.75 -->
      <g style="fill: #262626" transform="translate(30.214219 317.1738) scale(0.11 -0.11)">
       <use xlink:href="#ArialMT-30"/>
       <use xlink:href="#ArialMT-2e" transform="translate(55.615234 0)"/>
       <use xlink:href="#ArialMT-37" transform="translate(83.398438 0)"/>
       <use xlink:href="#ArialMT-35" transform="translate(139.013672 0)"/>
      </g>
     </g>
    </g>
    <g id="ytick_5">
     <g id="line2d_11">
      <path d="M 61.12125 243.367719 
L 988.92 243.367719 
" clip-path="url(#pd792c79a84)" style="fill: none; stroke-dasharray: 3.7,1.6; stroke-dashoffset: 0; stroke: #cccccc; stroke-opacity: 0.5"/>
     </g>
     <g id="text_12">
      <!-- 0.80 -->
      <g style="fill: #262626" transform="translate(30.214219 247.304516) scale(0.11 -0.11)">
       <defs>
        <path id="ArialMT-38" d="M 1131 2484 
Q 781 2613 612 2850 
Q 444 3088 444 3419 
Q 444 3919 803 4259 
Q 1163 4600 1759 4600 
Q 2359 4600 2725 4251 
Q 3091 3903 3091 3403 
Q 3091 3084 2923 2848 
Q 2756 2613 2416 2484 
Q 2838 2347 3058 2040 
Q 3278 1734 3278 1309 
Q 3278 722 2862 322 
Q 2447 -78 1769 -78 
Q 1091 -78 675 323 
Q 259 725 259 1325 
Q 259 1772 486 2073 
Q 713 2375 1131 2484 
z
M 1019 3438 
Q 1019 3113 1228 2906 
Q 1438 2700 1772 2700 
Q 2097 2700 2305 2904 
Q 2513 3109 2513 3406 
Q 2513 3716 2298 3927 
Q 2084 4138 1766 4138 
Q 1444 4138 1231 3931 
Q 1019 3725 1019 3438 
z
M 838 1322 
Q 838 1081 952 856 
Q 1066 631 1291 507 
Q 1516 384 1775 384 
Q 2178 384 2440 643 
Q 2703 903 2703 1303 
Q 2703 1709 2433 1975 
Q 2163 2241 1756 2241 
Q 1359 2241 1098 1978 
Q 838 1716 838 1322 
z
" transform="scale(0.015625)"/>
       </defs>
       <use xlink:href="#ArialMT-30"/>
       <use xlink:href="#ArialMT-2e" transform="translate(55.615234 0)"/>
       <use xlink:href="#ArialMT-38" transform="translate(83.398438 0)"/>
       <use xlink:href="#ArialMT-30" transform="translate(139.013672 0)"/>
      </g>
     </g>
    </g>
    <g id="ytick_6">
     <g id="line2d_12">
      <path d="M 61.12125 173.498435 
L 988.92 173.498435 
" clip-path="url(#pd792c79a84)" style="fill: none; stroke-dasharray: 3.7,1.6; stroke-dashoffset: 0; stroke: #cccccc; stroke-opacity: 0.5"/>
     </g>
     <g id="text_13">
      <!-- 0.85 -->
      <g style="fill: #262626" transform="translate(30.214219 177.435232) scale(0.11 -0.11)">
       <use xlink:href="#ArialMT-30"/>
       <use xlink:href="#ArialMT-2e" transform="translate(55.615234 0)"/>
       <use xlink:href="#ArialMT-38" transform="translate(83.398438 0)"/>
       <use xlink:href="#ArialMT-35" transform="translate(139.013672 0)"/>
      </g>
     </g>
    </g>
    <g id="ytick_7">
     <g id="line2d_13">
      <path d="M 61.12125 103.62915 
L 988.92 103.62915 
" clip-path="url(#pd792c79a84)" style="fill: none; stroke-dasharray: 3.7,1.6; stroke-dashoffset: 0; stroke: #cccccc; stroke-opacity: 0.5"/>
     </g>
     <g id="text_14">
      <!-- 0.90 -->
      <g style="fill: #262626" transform="translate(30.214219 107.565947) scale(0.11 -0.11)">
       <defs>
        <path id="ArialMT-39" d="M 350 1059 
L 891 1109 
Q 959 728 1153 556 
Q 1347 384 1650 384 
Q 1909 384 2104 503 
Q 2300 622 2425 820 
Q 2550 1019 2634 1356 
Q 2719 1694 2719 2044 
Q 2719 2081 2716 2156 
Q 2547 1888 2255 1720 
Q 1963 1553 1622 1553 
Q 1053 1553 659 1965 
Q 266 2378 266 3053 
Q 266 3750 677 4175 
Q 1088 4600 1706 4600 
Q 2153 4600 2523 4359 
Q 2894 4119 3086 3673 
Q 3278 3228 3278 2384 
Q 3278 1506 3087 986 
Q 2897 466 2520 194 
Q 2144 -78 1638 -78 
Q 1100 -78 759 220 
Q 419 519 350 1059 
z
M 2653 3081 
Q 2653 3566 2395 3850 
Q 2138 4134 1775 4134 
Q 1400 4134 1122 3828 
Q 844 3522 844 3034 
Q 844 2597 1108 2323 
Q 1372 2050 1759 2050 
Q 2150 2050 2401 2323 
Q 2653 2597 2653 3081 
z
" transform="scale(0.015625)"/>
       </defs>
       <use xlink:href="#ArialMT-30"/>
       <use xlink:href="#ArialMT-2e" transform="translate(55.615234 0)"/>
       <use xlink:href="#ArialMT-39" transform="translate(83.398438 0)"/>
       <use xlink:href="#ArialMT-30" transform="translate(139.013672 0)"/>
      </g>
     </g>
    </g>
    <g id="ytick_8">
     <g id="line2d_14">
      <path d="M 61.12125 33.759866 
L 988.92 33.759866 
" clip-path="url(#pd792c79a84)" style="fill: none; stroke-dasharray: 3.7,1.6; stroke-dashoffset: 0; stroke: #cccccc; stroke-opacity: 0.5"/>
     </g>
     <g id="text_15">
      <!-- 0.95 -->
      <g style="fill: #262626" transform="translate(30.214219 37.696663) scale(0.11 -0.11)">
       <use xlink:href="#ArialMT-30"/>
       <use xlink:href="#ArialMT-2e" transform="translate(55.615234 0)"/>
       <use xlink:href="#ArialMT-39" transform="translate(83.398438 0)"/>
       <use xlink:href="#ArialMT-35" transform="translate(139.013672 0)"/>
      </g>
     </g>
    </g>
    <g id="text_16">
     <!-- Accuracy_mean -->
     <g style="fill: #262626" transform="translate(23.267656 328.727344) rotate(-90) scale(0.14 -0.14)">
      <defs>
       <path id="ArialMT-41" d="M -9 0 
L 1750 4581 
L 2403 4581 
L 4278 0 
L 3588 0 
L 3053 1388 
L 1138 1388 
L 634 0 
L -9 0 
z
M 1313 1881 
L 2866 1881 
L 2388 3150 
Q 2169 3728 2063 4100 
Q 1975 3659 1816 3225 
L 1313 1881 
z
" transform="scale(0.015625)"/>
       <path id="ArialMT-75" d="M 2597 0 
L 2597 488 
Q 2209 -75 1544 -75 
Q 1250 -75 995 37 
Q 741 150 617 320 
Q 494 491 444 738 
Q 409 903 409 1263 
L 409 3319 
L 972 3319 
L 972 1478 
Q 972 1038 1006 884 
Q 1059 663 1231 536 
Q 1403 409 1656 409 
Q 1909 409 2131 539 
Q 2353 669 2445 892 
Q 2538 1116 2538 1541 
L 2538 3319 
L 3100 3319 
L 3100 0 
L 2597 0 
z
" transform="scale(0.015625)"/>
       <path id="ArialMT-72" d="M 416 0 
L 416 3319 
L 922 3319 
L 922 2816 
Q 1116 3169 1280 3281 
Q 1444 3394 1641 3394 
Q 1925 3394 2219 3213 
L 2025 2691 
Q 1819 2813 1613 2813 
Q 1428 2813 1281 2702 
Q 1134 2591 1072 2394 
Q 978 2094 978 1738 
L 978 0 
L 416 0 
z
" transform="scale(0.015625)"/>
       <path id="ArialMT-61" d="M 2588 409 
Q 2275 144 1986 34 
Q 1697 -75 1366 -75 
Q 819 -75 525 192 
Q 231 459 231 875 
Q 231 1119 342 1320 
Q 453 1522 633 1644 
Q 813 1766 1038 1828 
Q 1203 1872 1538 1913 
Q 2219 1994 2541 2106 
Q 2544 2222 2544 2253 
Q 2544 2597 2384 2738 
Q 2169 2928 1744 2928 
Q 1347 2928 1158 2789 
Q 969 2650 878 2297 
L 328 2372 
Q 403 2725 575 2942 
Q 747 3159 1072 3276 
Q 1397 3394 1825 3394 
Q 2250 3394 2515 3294 
Q 2781 3194 2906 3042 
Q 3031 2891 3081 2659 
Q 3109 2516 3109 2141 
L 3109 1391 
Q 3109 606 3145 398 
Q 3181 191 3288 0 
L 2700 0 
Q 2613 175 2588 409 
z
M 2541 1666 
Q 2234 1541 1622 1453 
Q 1275 1403 1131 1340 
Q 988 1278 909 1158 
Q 831 1038 831 891 
Q 831 666 1001 516 
Q 1172 366 1500 366 
Q 1825 366 2078 508 
Q 2331 650 2450 897 
Q 2541 1088 2541 1459 
L 2541 1666 
z
" transform="scale(0.015625)"/>
       <path id="ArialMT-79" d="M 397 -1278 
L 334 -750 
Q 519 -800 656 -800 
Q 844 -800 956 -737 
Q 1069 -675 1141 -563 
Q 1194 -478 1313 -144 
Q 1328 -97 1363 -6 
L 103 3319 
L 709 3319 
L 1400 1397 
Q 1534 1031 1641 628 
Q 1738 1016 1872 1384 
L 2581 3319 
L 3144 3319 
L 1881 -56 
Q 1678 -603 1566 -809 
Q 1416 -1088 1222 -1217 
Q 1028 -1347 759 -1347 
Q 597 -1347 397 -1278 
z
" transform="scale(0.015625)"/>
       <path id="ArialMT-5f" d="M -97 -1272 
L -97 -866 
L 3631 -866 
L 3631 -1272 
L -97 -1272 
z
" transform="scale(0.015625)"/>
       <path id="ArialMT-6d" d="M 422 0 
L 422 3319 
L 925 3319 
L 925 2853 
Q 1081 3097 1340 3245 
Q 1600 3394 1931 3394 
Q 2300 3394 2536 3241 
Q 2772 3088 2869 2813 
Q 3263 3394 3894 3394 
Q 4388 3394 4653 3120 
Q 4919 2847 4919 2278 
L 4919 0 
L 4359 0 
L 4359 2091 
Q 4359 2428 4304 2576 
Q 4250 2725 4106 2815 
Q 3963 2906 3769 2906 
Q 3419 2906 3187 2673 
Q 2956 2441 2956 1928 
L 2956 0 
L 2394 0 
L 2394 2156 
Q 2394 2531 2256 2718 
Q 2119 2906 1806 2906 
Q 1569 2906 1367 2781 
Q 1166 2656 1075 2415 
Q 984 2175 984 1722 
L 984 0 
L 422 0 
z
" transform="scale(0.015625)"/>
       <path id="ArialMT-65" d="M 2694 1069 
L 3275 997 
Q 3138 488 2766 206 
Q 2394 -75 1816 -75 
Q 1088 -75 661 373 
Q 234 822 234 1631 
Q 234 2469 665 2931 
Q 1097 3394 1784 3394 
Q 2450 3394 2872 2941 
Q 3294 2488 3294 1666 
Q 3294 1616 3291 1516 
L 816 1516 
Q 847 969 1125 678 
Q 1403 388 1819 388 
Q 2128 388 2347 550 
Q 2566 713 2694 1069 
z
M 847 1978 
L 2700 1978 
Q 2663 2397 2488 2606 
Q 2219 2931 1791 2931 
Q 1403 2931 1139 2672 
Q 875 2413 847 1978 
z
" transform="scale(0.015625)"/>
       <path id="ArialMT-6e" d="M 422 0 
L 422 3319 
L 928 3319 
L 928 2847 
Q 1294 3394 1984 3394 
Q 2284 3394 2536 3286 
Q 2788 3178 2913 3003 
Q 3038 2828 3088 2588 
Q 3119 2431 3119 2041 
L 3119 0 
L 2556 0 
L 2556 2019 
Q 2556 2363 2490 2533 
Q 2425 2703 2258 2804 
Q 2091 2906 1866 2906 
Q 1506 2906 1245 2678 
Q 984 2450 984 1813 
L 984 0 
L 422 0 
z
" transform="scale(0.015625)"/>
      </defs>
      <use xlink:href="#ArialMT-41"/>
      <use xlink:href="#ArialMT-63" transform="translate(66.699219 0)"/>
      <use xlink:href="#ArialMT-63" transform="translate(116.699219 0)"/>
      <use xlink:href="#ArialMT-75" transform="translate(166.699219 0)"/>
      <use xlink:href="#ArialMT-72" transform="translate(222.314453 0)"/>
      <use xlink:href="#ArialMT-61" transform="translate(255.615234 0)"/>
      <use xlink:href="#ArialMT-63" transform="translate(311.230469 0)"/>
      <use xlink:href="#ArialMT-79" transform="translate(361.230469 0)"/>
      <use xlink:href="#ArialMT-5f" transform="translate(411.230469 0)"/>
      <use xlink:href="#ArialMT-6d" transform="translate(466.845703 0)"/>
      <use xlink:href="#ArialMT-65" transform="translate(550.146484 0)"/>
      <use xlink:href="#ArialMT-61" transform="translate(605.761719 0)"/>
      <use xlink:href="#ArialMT-6e" transform="translate(661.376953 0)"/>
     </g>
    </g>
   </g>
   <g id="patch_3">
    <path d="M 63.877088 339.961314 
L 76.737665 339.961314 
L 76.737665 243.13528 
L 63.877088 243.13528 
L 63.877088 339.961314 
z
" clip-path="url(#pd792c79a84)" style="fill: #72b6a1; stroke: #595959; stroke-linejoin: miter"/>
   </g>
   <g id="line2d_15">
    <path d="M 70.307376 339.961314 
L 70.307376 460.67349 
" clip-path="url(#pd792c79a84)" style="fill: none; stroke: #595959"/>
   </g>
   <g id="line2d_16">
    <path d="M 70.307376 243.13528 
L 70.307376 121.961134 
" clip-path="url(#pd792c79a84)" style="fill: none; stroke: #595959"/>
   </g>
   <g id="line2d_17">
    <path d="M 67.092232 460.67349 
L 73.52252 460.67349 
" clip-path="url(#pd792c79a84)" style="fill: none; stroke: #595959; stroke-linecap: round"/>
   </g>
   <g id="line2d_18">
    <path d="M 67.092232 121.961134 
L 73.52252 121.961134 
" clip-path="url(#pd792c79a84)" style="fill: none; stroke: #595959; stroke-linecap: round"/>
   </g>
   <g id="line2d_19">
    <defs>
     <path id="m75f8032b31" d="M 0 3 
C 0.795609 3 1.55874 2.683901 2.12132 2.12132 
C 2.683901 1.55874 3 0.795609 3 0 
C 3 -0.795609 2.683901 -1.55874 2.12132 -2.12132 
C 1.55874 -2.683901 0.795609 -3 0 -3 
C -0.795609 -3 -1.55874 -2.683901 -2.12132 -2.12132 
C -2.683901 -1.55874 -3 -0.795609 -3 0 
C -3 0.795609 -2.683901 1.55874 -2.12132 2.12132 
C -1.55874 2.683901 -0.795609 3 0 3 
z
" style="stroke: #595959"/>
    </defs>
    <g clip-path="url(#pd792c79a84)">
     <use xlink:href="#m75f8032b31" x="70.307376" y="503.958239" style="fill-opacity: 0; stroke: #595959"/>
     <use xlink:href="#m75f8032b31" x="70.307376" y="497.906223" style="fill-opacity: 0; stroke: #595959"/>
    </g>
   </g>
   <g id="patch_4">
    <path d="M 82.24934 284.647369 
L 95.109917 284.647369 
L 95.109917 177.759016 
L 82.24934 177.759016 
L 82.24934 284.647369 
z
" clip-path="url(#pd792c79a84)" style="fill: #72b6a1; stroke: #595959; stroke-linejoin: miter"/>
   </g>
   <g id="line2d_20">
    <path d="M 88.679629 284.647369 
L 88.679629 443.762634 
" clip-path="url(#pd792c79a84)" style="fill: none; stroke: #595959"/>
   </g>
   <g id="line2d_21">
    <path d="M 88.679629 177.759016 
L 88.679629 92.621376 
" clip-path="url(#pd792c79a84)" style="fill: none; stroke: #595959"/>
   </g>
   <g id="line2d_22">
    <path d="M 85.464485 443.762634 
L 91.894773 443.762634 
" clip-path="url(#pd792c79a84)" style="fill: none; stroke: #595959; stroke-linecap: round"/>
   </g>
   <g id="line2d_23">
    <path d="M 85.464485 92.621376 
L 91.894773 92.621376 
" clip-path="url(#pd792c79a84)" style="fill: none; stroke: #595959; stroke-linecap: round"/>
   </g>
   <g id="line2d_24">
    <g clip-path="url(#pd792c79a84)">
     <use xlink:href="#m75f8032b31" x="88.679629" y="494.355197" style="fill-opacity: 0; stroke: #595959"/>
     <use xlink:href="#m75f8032b31" x="88.679629" y="476.587344" style="fill-opacity: 0; stroke: #595959"/>
    </g>
   </g>
   <g id="patch_5">
    <path d="M 100.621593 271.564004 
L 113.48217 271.564004 
L 113.48217 137.53105 
L 100.621593 137.53105 
L 100.621593 271.564004 
z
" clip-path="url(#pd792c79a84)" style="fill: #72b6a1; stroke: #595959; stroke-linejoin: miter"/>
   </g>
   <g id="line2d_25">
    <path d="M 107.051881 271.564004 
L 107.051881 441.845208 
" clip-path="url(#pd792c79a84)" style="fill: none; stroke: #595959"/>
   </g>
   <g id="line2d_26">
    <path d="M 107.051881 137.53105 
L 107.051881 71.44483 
" clip-path="url(#pd792c79a84)" style="fill: none; stroke: #595959"/>
   </g>
   <g id="line2d_27">
    <path d="M 103.836737 441.845208 
L 110.267025 441.845208 
" clip-path="url(#pd792c79a84)" style="fill: none; stroke: #595959; stroke-linecap: round"/>
   </g>
   <g id="line2d_28">
    <path d="M 103.836737 71.44483 
L 110.267025 71.44483 
" clip-path="url(#pd792c79a84)" style="fill: none; stroke: #595959; stroke-linecap: round"/>
   </g>
   <g id="line2d_29">
    <g clip-path="url(#pd792c79a84)">
     <use xlink:href="#m75f8032b31" x="107.051881" y="484.503966" style="fill-opacity: 0; stroke: #595959"/>
    </g>
   </g>
   <g id="patch_6">
    <path d="M 118.993845 264.074146 
L 131.854422 264.074146 
L 131.854422 128.191578 
L 118.993845 128.191578 
L 118.993845 264.074146 
z
" clip-path="url(#pd792c79a84)" style="fill: #72b6a1; stroke: #595959; stroke-linejoin: miter"/>
   </g>
   <g id="line2d_30">
    <path d="M 125.424134 264.074146 
L 125.424134 455.922668 
" clip-path="url(#pd792c79a84)" style="fill: none; stroke: #595959"/>
   </g>
   <g id="line2d_31">
    <path d="M 125.424134 128.191578 
L 125.424134 63.341638 
" clip-path="url(#pd792c79a84)" style="fill: none; stroke: #595959"/>
   </g>
   <g id="line2d_32">
    <path d="M 122.208989 455.922668 
L 128.639278 455.922668 
" clip-path="url(#pd792c79a84)" style="fill: none; stroke: #595959; stroke-linecap: round"/>
   </g>
   <g id="line2d_33">
    <path d="M 122.208989 63.341638 
L 128.639278 63.341638 
" clip-path="url(#pd792c79a84)" style="fill: none; stroke: #595959; stroke-linecap: round"/>
   </g>
   <g id="line2d_34">
    <g clip-path="url(#pd792c79a84)">
     <use xlink:href="#m75f8032b31" x="125.424134" y="474.735465" style="fill-opacity: 0; stroke: #595959"/>
    </g>
   </g>
   <g id="patch_7">
    <path d="M 137.366098 249.982663 
L 150.226675 249.982663 
L 150.226675 108.265927 
L 137.366098 108.265927 
L 137.366098 249.982663 
z
" clip-path="url(#pd792c79a84)" style="fill: #72b6a1; stroke: #595959; stroke-linejoin: miter"/>
   </g>
   <g id="line2d_35">
    <path d="M 143.796386 249.982663 
L 143.796386 455.747662 
" clip-path="url(#pd792c79a84)" style="fill: none; stroke: #595959"/>
   </g>
   <g id="line2d_36">
    <path d="M 143.796386 108.265927 
L 143.796386 53.123011 
" clip-path="url(#pd792c79a84)" style="fill: none; stroke: #595959"/>
   </g>
   <g id="line2d_37">
    <path d="M 140.581242 455.747662 
L 147.01153 455.747662 
" clip-path="url(#pd792c79a84)" style="fill: none; stroke: #595959; stroke-linecap: round"/>
   </g>
   <g id="line2d_38">
    <path d="M 140.581242 53.123011 
L 147.01153 53.123011 
" clip-path="url(#pd792c79a84)" style="fill: none; stroke: #595959; stroke-linecap: round"/>
   </g>
   <g id="line2d_39">
    <g clip-path="url(#pd792c79a84)">
     <use xlink:href="#m75f8032b31" x="143.796386" y="467.518865" style="fill-opacity: 0; stroke: #595959"/>
    </g>
   </g>
   <g id="patch_8">
    <path d="M 155.73835 212.958725 
L 168.598927 212.958725 
L 168.598927 212.958725 
L 155.73835 212.958725 
L 155.73835 212.958725 
z
" clip-path="url(#pd792c79a84)" style="fill: #72b6a1; stroke: #595959; stroke-linejoin: miter"/>
   </g>
   <g id="line2d_40">
    <path d="M 162.168639 212.958725 
L 162.168639 212.958725 
" clip-path="url(#pd792c79a84)" style="fill: none; stroke: #595959"/>
   </g>
   <g id="line2d_41">
    <path d="M 162.168639 212.958725 
L 162.168639 212.958725 
" clip-path="url(#pd792c79a84)" style="fill: none; stroke: #595959"/>
   </g>
   <g id="line2d_42">
    <path d="M 158.953494 212.958725 
L 165.383783 212.958725 
" clip-path="url(#pd792c79a84)" style="fill: none; stroke: #595959; stroke-linecap: round"/>
   </g>
   <g id="line2d_43">
    <path d="M 158.953494 212.958725 
L 165.383783 212.958725 
" clip-path="url(#pd792c79a84)" style="fill: none; stroke: #595959; stroke-linecap: round"/>
   </g>
   <g id="line2d_44"/>
   <g id="patch_9">
    <path d="M 174.110603 206.553515 
L 186.971179 206.553515 
L 186.971179 206.553515 
L 174.110603 206.553515 
L 174.110603 206.553515 
z
" clip-path="url(#pd792c79a84)" style="fill: #72b6a1; stroke: #595959; stroke-linejoin: miter"/>
   </g>
   <g id="line2d_45">
    <path d="M 180.540891 206.553515 
L 180.540891 206.553515 
" clip-path="url(#pd792c79a84)" style="fill: none; stroke: #595959"/>
   </g>
   <g id="line2d_46">
    <path d="M 180.540891 206.553515 
L 180.540891 206.553515 
" clip-path="url(#pd792c79a84)" style="fill: none; stroke: #595959"/>
   </g>
   <g id="line2d_47">
    <path d="M 177.325747 206.553515 
L 183.756035 206.553515 
" clip-path="url(#pd792c79a84)" style="fill: none; stroke: #595959; stroke-linecap: round"/>
   </g>
   <g id="line2d_48">
    <path d="M 177.325747 206.553515 
L 183.756035 206.553515 
" clip-path="url(#pd792c79a84)" style="fill: none; stroke: #595959; stroke-linecap: round"/>
   </g>
   <g id="line2d_49"/>
   <g id="patch_10">
    <path d="M 192.482855 208.443577 
L 205.343432 208.443577 
L 205.343432 208.443577 
L 192.482855 208.443577 
L 192.482855 208.443577 
z
" clip-path="url(#pd792c79a84)" style="fill: #72b6a1; stroke: #595959; stroke-linejoin: miter"/>
   </g>
   <g id="line2d_50">
    <path d="M 198.913144 208.443577 
L 198.913144 208.443577 
" clip-path="url(#pd792c79a84)" style="fill: none; stroke: #595959"/>
   </g>
   <g id="line2d_51">
    <path d="M 198.913144 208.443577 
L 198.913144 208.443577 
" clip-path="url(#pd792c79a84)" style="fill: none; stroke: #595959"/>
   </g>
   <g id="line2d_52">
    <path d="M 195.697999 208.443577 
L 202.128288 208.443577 
" clip-path="url(#pd792c79a84)" style="fill: none; stroke: #595959; stroke-linecap: round"/>
   </g>
   <g id="line2d_53">
    <path d="M 195.697999 208.443577 
L 202.128288 208.443577 
" clip-path="url(#pd792c79a84)" style="fill: none; stroke: #595959; stroke-linecap: round"/>
   </g>
   <g id="line2d_54"/>
   <g id="patch_11">
    <path d="M 210.855108 205.188471 
L 223.715684 205.188471 
L 223.715684 205.188471 
L 210.855108 205.188471 
L 210.855108 205.188471 
z
" clip-path="url(#pd792c79a84)" style="fill: #72b6a1; stroke: #595959; stroke-linejoin: miter"/>
   </g>
   <g id="line2d_55">
    <path d="M 217.285396 205.188471 
L 217.285396 205.188471 
" clip-path="url(#pd792c79a84)" style="fill: none; stroke: #595959"/>
   </g>
   <g id="line2d_56">
    <path d="M 217.285396 205.188471 
L 217.285396 205.188471 
" clip-path="url(#pd792c79a84)" style="fill: none; stroke: #595959"/>
   </g>
   <g id="line2d_57">
    <path d="M 214.070252 205.188471 
L 220.50054 205.188471 
" clip-path="url(#pd792c79a84)" style="fill: none; stroke: #595959; stroke-linecap: round"/>
   </g>
   <g id="line2d_58">
    <path d="M 214.070252 205.188471 
L 220.50054 205.188471 
" clip-path="url(#pd792c79a84)" style="fill: none; stroke: #595959; stroke-linecap: round"/>
   </g>
   <g id="line2d_59"/>
   <g id="patch_12">
    <path d="M 229.22736 202.353378 
L 242.087937 202.353378 
L 242.087937 202.353378 
L 229.22736 202.353378 
L 229.22736 202.353378 
z
" clip-path="url(#pd792c79a84)" style="fill: #72b6a1; stroke: #595959; stroke-linejoin: miter"/>
   </g>
   <g id="line2d_60">
    <path d="M 235.657649 202.353378 
L 235.657649 202.353378 
" clip-path="url(#pd792c79a84)" style="fill: none; stroke: #595959"/>
   </g>
   <g id="line2d_61">
    <path d="M 235.657649 202.353378 
L 235.657649 202.353378 
" clip-path="url(#pd792c79a84)" style="fill: none; stroke: #595959"/>
   </g>
   <g id="line2d_62">
    <path d="M 232.442504 202.353378 
L 238.872793 202.353378 
" clip-path="url(#pd792c79a84)" style="fill: none; stroke: #595959; stroke-linecap: round"/>
   </g>
   <g id="line2d_63">
    <path d="M 232.442504 202.353378 
L 238.872793 202.353378 
" clip-path="url(#pd792c79a84)" style="fill: none; stroke: #595959; stroke-linecap: round"/>
   </g>
   <g id="line2d_64"/>
   <g id="patch_13">
    <path d="M 247.599613 202.948398 
L 260.460189 202.948398 
L 260.460189 202.948398 
L 247.599613 202.948398 
L 247.599613 202.948398 
z
" clip-path="url(#pd792c79a84)" style="fill: #72b6a1; stroke: #595959; stroke-linejoin: miter"/>
   </g>
   <g id="line2d_65">
    <path d="M 254.029901 202.948398 
L 254.029901 202.948398 
" clip-path="url(#pd792c79a84)" style="fill: none; stroke: #595959"/>
   </g>
   <g id="line2d_66">
    <path d="M 254.029901 202.948398 
L 254.029901 202.948398 
" clip-path="url(#pd792c79a84)" style="fill: none; stroke: #595959"/>
   </g>
   <g id="line2d_67">
    <path d="M 250.814757 202.948398 
L 257.245045 202.948398 
" clip-path="url(#pd792c79a84)" style="fill: none; stroke: #595959; stroke-linecap: round"/>
   </g>
   <g id="line2d_68">
    <path d="M 250.814757 202.948398 
L 257.245045 202.948398 
" clip-path="url(#pd792c79a84)" style="fill: none; stroke: #595959; stroke-linecap: round"/>
   </g>
   <g id="line2d_69"/>
   <g id="patch_14">
    <path d="M 265.971865 194.688127 
L 278.832442 194.688127 
L 278.832442 194.688127 
L 265.971865 194.688127 
L 265.971865 194.688127 
z
" clip-path="url(#pd792c79a84)" style="fill: #72b6a1; stroke: #595959; stroke-linejoin: miter"/>
   </g>
   <g id="line2d_70">
    <path d="M 272.402153 194.688127 
L 272.402153 194.688127 
" clip-path="url(#pd792c79a84)" style="fill: none; stroke: #595959"/>
   </g>
   <g id="line2d_71">
    <path d="M 272.402153 194.688127 
L 272.402153 194.688127 
" clip-path="url(#pd792c79a84)" style="fill: none; stroke: #595959"/>
   </g>
   <g id="line2d_72">
    <path d="M 269.187009 194.688127 
L 275.617298 194.688127 
" clip-path="url(#pd792c79a84)" style="fill: none; stroke: #595959; stroke-linecap: round"/>
   </g>
   <g id="line2d_73">
    <path d="M 269.187009 194.688127 
L 275.617298 194.688127 
" clip-path="url(#pd792c79a84)" style="fill: none; stroke: #595959; stroke-linecap: round"/>
   </g>
   <g id="line2d_74"/>
   <g id="patch_15">
    <path d="M 284.344118 201.058336 
L 297.204694 201.058336 
L 297.204694 201.058336 
L 284.344118 201.058336 
L 284.344118 201.058336 
z
" clip-path="url(#pd792c79a84)" style="fill: #72b6a1; stroke: #595959; stroke-linejoin: miter"/>
   </g>
   <g id="line2d_75">
    <path d="M 290.774406 201.058336 
L 290.774406 201.058336 
" clip-path="url(#pd792c79a84)" style="fill: none; stroke: #595959"/>
   </g>
   <g id="line2d_76">
    <path d="M 290.774406 201.058336 
L 290.774406 201.058336 
" clip-path="url(#pd792c79a84)" style="fill: none; stroke: #595959"/>
   </g>
   <g id="line2d_77">
    <path d="M 287.559262 201.058336 
L 293.98955 201.058336 
" clip-path="url(#pd792c79a84)" style="fill: none; stroke: #595959; stroke-linecap: round"/>
   </g>
   <g id="line2d_78">
    <path d="M 287.559262 201.058336 
L 293.98955 201.058336 
" clip-path="url(#pd792c79a84)" style="fill: none; stroke: #595959; stroke-linecap: round"/>
   </g>
   <g id="line2d_79"/>
   <g id="patch_16">
    <path d="M 302.71637 194.233113 
L 315.576947 194.233113 
L 315.576947 194.233113 
L 302.71637 194.233113 
L 302.71637 194.233113 
z
" clip-path="url(#pd792c79a84)" style="fill: #72b6a1; stroke: #595959; stroke-linejoin: miter"/>
   </g>
   <g id="line2d_80">
    <path d="M 309.146658 194.233113 
L 309.146658 194.233113 
" clip-path="url(#pd792c79a84)" style="fill: none; stroke: #595959"/>
   </g>
   <g id="line2d_81">
    <path d="M 309.146658 194.233113 
L 309.146658 194.233113 
" clip-path="url(#pd792c79a84)" style="fill: none; stroke: #595959"/>
   </g>
   <g id="line2d_82">
    <path d="M 305.931514 194.233113 
L 312.361803 194.233113 
" clip-path="url(#pd792c79a84)" style="fill: none; stroke: #595959; stroke-linecap: round"/>
   </g>
   <g id="line2d_83">
    <path d="M 305.931514 194.233113 
L 312.361803 194.233113 
" clip-path="url(#pd792c79a84)" style="fill: none; stroke: #595959; stroke-linecap: round"/>
   </g>
   <g id="line2d_84"/>
   <g id="patch_17">
    <path d="M 321.088623 198.573254 
L 333.949199 198.573254 
L 333.949199 198.573254 
L 321.088623 198.573254 
L 321.088623 198.573254 
z
" clip-path="url(#pd792c79a84)" style="fill: #72b6a1; stroke: #595959; stroke-linejoin: miter"/>
   </g>
   <g id="line2d_85">
    <path d="M 327.518911 198.573254 
L 327.518911 198.573254 
" clip-path="url(#pd792c79a84)" style="fill: none; stroke: #595959"/>
   </g>
   <g id="line2d_86">
    <path d="M 327.518911 198.573254 
L 327.518911 198.573254 
" clip-path="url(#pd792c79a84)" style="fill: none; stroke: #595959"/>
   </g>
   <g id="line2d_87">
    <path d="M 324.303767 198.573254 
L 330.734055 198.573254 
" clip-path="url(#pd792c79a84)" style="fill: none; stroke: #595959; stroke-linecap: round"/>
   </g>
   <g id="line2d_88">
    <path d="M 324.303767 198.573254 
L 330.734055 198.573254 
" clip-path="url(#pd792c79a84)" style="fill: none; stroke: #595959; stroke-linecap: round"/>
   </g>
   <g id="line2d_89"/>
   <g id="patch_18">
    <path d="M 339.460875 189.192948 
L 352.321452 189.192948 
L 352.321452 189.192948 
L 339.460875 189.192948 
L 339.460875 189.192948 
z
" clip-path="url(#pd792c79a84)" style="fill: #72b6a1; stroke: #595959; stroke-linejoin: miter"/>
   </g>
   <g id="line2d_90">
    <path d="M 345.891163 189.192948 
L 345.891163 189.192948 
" clip-path="url(#pd792c79a84)" style="fill: none; stroke: #595959"/>
   </g>
   <g id="line2d_91">
    <path d="M 345.891163 189.192948 
L 345.891163 189.192948 
" clip-path="url(#pd792c79a84)" style="fill: none; stroke: #595959"/>
   </g>
   <g id="line2d_92">
    <path d="M 342.676019 189.192948 
L 349.106308 189.192948 
" clip-path="url(#pd792c79a84)" style="fill: none; stroke: #595959; stroke-linecap: round"/>
   </g>
   <g id="line2d_93">
    <path d="M 342.676019 189.192948 
L 349.106308 189.192948 
" clip-path="url(#pd792c79a84)" style="fill: none; stroke: #595959; stroke-linecap: round"/>
   </g>
   <g id="line2d_94"/>
   <g id="patch_19">
    <path d="M 357.833127 188.35292 
L 370.693704 188.35292 
L 370.693704 188.35292 
L 357.833127 188.35292 
L 357.833127 188.35292 
z
" clip-path="url(#pd792c79a84)" style="fill: #72b6a1; stroke: #595959; stroke-linejoin: miter"/>
   </g>
   <g id="line2d_95">
    <path d="M 364.263416 188.35292 
L 364.263416 188.35292 
" clip-path="url(#pd792c79a84)" style="fill: none; stroke: #595959"/>
   </g>
   <g id="line2d_96">
    <path d="M 364.263416 188.35292 
L 364.263416 188.35292 
" clip-path="url(#pd792c79a84)" style="fill: none; stroke: #595959"/>
   </g>
   <g id="line2d_97">
    <path d="M 361.048272 188.35292 
L 367.47856 188.35292 
" clip-path="url(#pd792c79a84)" style="fill: none; stroke: #595959; stroke-linecap: round"/>
   </g>
   <g id="line2d_98">
    <path d="M 361.048272 188.35292 
L 367.47856 188.35292 
" clip-path="url(#pd792c79a84)" style="fill: none; stroke: #595959; stroke-linecap: round"/>
   </g>
   <g id="line2d_99"/>
   <g id="patch_20">
    <path d="M 376.20538 185.797837 
L 389.065957 185.797837 
L 389.065957 185.797837 
L 376.20538 185.797837 
L 376.20538 185.797837 
z
" clip-path="url(#pd792c79a84)" style="fill: #72b6a1; stroke: #595959; stroke-linejoin: miter"/>
   </g>
   <g id="line2d_100">
    <path d="M 382.635668 185.797837 
L 382.635668 185.797837 
" clip-path="url(#pd792c79a84)" style="fill: none; stroke: #595959"/>
   </g>
   <g id="line2d_101">
    <path d="M 382.635668 185.797837 
L 382.635668 185.797837 
" clip-path="url(#pd792c79a84)" style="fill: none; stroke: #595959"/>
   </g>
   <g id="line2d_102">
    <path d="M 379.420524 185.797837 
L 385.850813 185.797837 
" clip-path="url(#pd792c79a84)" style="fill: none; stroke: #595959; stroke-linecap: round"/>
   </g>
   <g id="line2d_103">
    <path d="M 379.420524 185.797837 
L 385.850813 185.797837 
" clip-path="url(#pd792c79a84)" style="fill: none; stroke: #595959; stroke-linecap: round"/>
   </g>
   <g id="line2d_104"/>
   <g id="patch_21">
    <path d="M 394.577632 184.04778 
L 407.438209 184.04778 
L 407.438209 184.04778 
L 394.577632 184.04778 
L 394.577632 184.04778 
z
" clip-path="url(#pd792c79a84)" style="fill: #72b6a1; stroke: #595959; stroke-linejoin: miter"/>
   </g>
   <g id="line2d_105">
    <path d="M 401.007921 184.04778 
L 401.007921 184.04778 
" clip-path="url(#pd792c79a84)" style="fill: none; stroke: #595959"/>
   </g>
   <g id="line2d_106">
    <path d="M 401.007921 184.04778 
L 401.007921 184.04778 
" clip-path="url(#pd792c79a84)" style="fill: none; stroke: #595959"/>
   </g>
   <g id="line2d_107">
    <path d="M 397.792777 184.04778 
L 404.223065 184.04778 
" clip-path="url(#pd792c79a84)" style="fill: none; stroke: #595959; stroke-linecap: round"/>
   </g>
   <g id="line2d_108">
    <path d="M 397.792777 184.04778 
L 404.223065 184.04778 
" clip-path="url(#pd792c79a84)" style="fill: none; stroke: #595959; stroke-linecap: round"/>
   </g>
   <g id="line2d_109"/>
   <g id="patch_22">
    <path d="M 412.949885 182.962744 
L 425.810462 182.962744 
L 425.810462 182.962744 
L 412.949885 182.962744 
L 412.949885 182.962744 
z
" clip-path="url(#pd792c79a84)" style="fill: #72b6a1; stroke: #595959; stroke-linejoin: miter"/>
   </g>
   <g id="line2d_110">
    <path d="M 419.380173 182.962744 
L 419.380173 182.962744 
" clip-path="url(#pd792c79a84)" style="fill: none; stroke: #595959"/>
   </g>
   <g id="line2d_111">
    <path d="M 419.380173 182.962744 
L 419.380173 182.962744 
" clip-path="url(#pd792c79a84)" style="fill: none; stroke: #595959"/>
   </g>
   <g id="line2d_112">
    <path d="M 416.165029 182.962744 
L 422.595317 182.962744 
" clip-path="url(#pd792c79a84)" style="fill: none; stroke: #595959; stroke-linecap: round"/>
   </g>
   <g id="line2d_113">
    <path d="M 416.165029 182.962744 
L 422.595317 182.962744 
" clip-path="url(#pd792c79a84)" style="fill: none; stroke: #595959; stroke-linecap: round"/>
   </g>
   <g id="line2d_114"/>
   <g id="patch_23">
    <path d="M 431.322137 182.752737 
L 444.182714 182.752737 
L 444.182714 182.752737 
L 431.322137 182.752737 
L 431.322137 182.752737 
z
" clip-path="url(#pd792c79a84)" style="fill: #72b6a1; stroke: #595959; stroke-linejoin: miter"/>
   </g>
   <g id="line2d_115">
    <path d="M 437.752426 182.752737 
L 437.752426 182.752737 
" clip-path="url(#pd792c79a84)" style="fill: none; stroke: #595959"/>
   </g>
   <g id="line2d_116">
    <path d="M 437.752426 182.752737 
L 437.752426 182.752737 
" clip-path="url(#pd792c79a84)" style="fill: none; stroke: #595959"/>
   </g>
   <g id="line2d_117">
    <path d="M 434.537282 182.752737 
L 440.96757 182.752737 
" clip-path="url(#pd792c79a84)" style="fill: none; stroke: #595959; stroke-linecap: round"/>
   </g>
   <g id="line2d_118">
    <path d="M 434.537282 182.752737 
L 440.96757 182.752737 
" clip-path="url(#pd792c79a84)" style="fill: none; stroke: #595959; stroke-linecap: round"/>
   </g>
   <g id="line2d_119"/>
   <g id="patch_24">
    <path d="M 449.69439 180.547665 
L 462.554967 180.547665 
L 462.554967 180.547665 
L 449.69439 180.547665 
L 449.69439 180.547665 
z
" clip-path="url(#pd792c79a84)" style="fill: #72b6a1; stroke: #595959; stroke-linejoin: miter"/>
   </g>
   <g id="line2d_120">
    <path d="M 456.124678 180.547665 
L 456.124678 180.547665 
" clip-path="url(#pd792c79a84)" style="fill: none; stroke: #595959"/>
   </g>
   <g id="line2d_121">
    <path d="M 456.124678 180.547665 
L 456.124678 180.547665 
" clip-path="url(#pd792c79a84)" style="fill: none; stroke: #595959"/>
   </g>
   <g id="line2d_122">
    <path d="M 452.909534 180.547665 
L 459.339822 180.547665 
" clip-path="url(#pd792c79a84)" style="fill: none; stroke: #595959; stroke-linecap: round"/>
   </g>
   <g id="line2d_123">
    <path d="M 452.909534 180.547665 
L 459.339822 180.547665 
" clip-path="url(#pd792c79a84)" style="fill: none; stroke: #595959; stroke-linecap: round"/>
   </g>
   <g id="line2d_124"/>
   <g id="patch_25">
    <path d="M 468.066642 178.447596 
L 480.927219 178.447596 
L 480.927219 178.447596 
L 468.066642 178.447596 
L 468.066642 178.447596 
z
" clip-path="url(#pd792c79a84)" style="fill: #72b6a1; stroke: #595959; stroke-linejoin: miter"/>
   </g>
   <g id="line2d_125">
    <path d="M 474.496931 178.447596 
L 474.496931 178.447596 
" clip-path="url(#pd792c79a84)" style="fill: none; stroke: #595959"/>
   </g>
   <g id="line2d_126">
    <path d="M 474.496931 178.447596 
L 474.496931 178.447596 
" clip-path="url(#pd792c79a84)" style="fill: none; stroke: #595959"/>
   </g>
   <g id="line2d_127">
    <path d="M 471.281787 178.447596 
L 477.712075 178.447596 
" clip-path="url(#pd792c79a84)" style="fill: none; stroke: #595959; stroke-linecap: round"/>
   </g>
   <g id="line2d_128">
    <path d="M 471.281787 178.447596 
L 477.712075 178.447596 
" clip-path="url(#pd792c79a84)" style="fill: none; stroke: #595959; stroke-linecap: round"/>
   </g>
   <g id="line2d_129"/>
   <g id="patch_26">
    <path d="M 486.438895 176.872545 
L 499.299472 176.872545 
L 499.299472 176.872545 
L 486.438895 176.872545 
L 486.438895 176.872545 
z
" clip-path="url(#pd792c79a84)" style="fill: #72b6a1; stroke: #595959; stroke-linejoin: miter"/>
   </g>
   <g id="line2d_130">
    <path d="M 492.869183 176.872545 
L 492.869183 176.872545 
" clip-path="url(#pd792c79a84)" style="fill: none; stroke: #595959"/>
   </g>
   <g id="line2d_131">
    <path d="M 492.869183 176.872545 
L 492.869183 176.872545 
" clip-path="url(#pd792c79a84)" style="fill: none; stroke: #595959"/>
   </g>
   <g id="line2d_132">
    <path d="M 489.654039 176.872545 
L 496.084327 176.872545 
" clip-path="url(#pd792c79a84)" style="fill: none; stroke: #595959; stroke-linecap: round"/>
   </g>
   <g id="line2d_133">
    <path d="M 489.654039 176.872545 
L 496.084327 176.872545 
" clip-path="url(#pd792c79a84)" style="fill: none; stroke: #595959; stroke-linecap: round"/>
   </g>
   <g id="line2d_134"/>
   <g id="patch_27">
    <path d="M 504.811147 174.982483 
L 517.671724 174.982483 
L 517.671724 174.982483 
L 504.811147 174.982483 
L 504.811147 174.982483 
z
" clip-path="url(#pd792c79a84)" style="fill: #72b6a1; stroke: #595959; stroke-linejoin: miter"/>
   </g>
   <g id="line2d_135">
    <path d="M 511.241436 174.982483 
L 511.241436 174.982483 
" clip-path="url(#pd792c79a84)" style="fill: none; stroke: #595959"/>
   </g>
   <g id="line2d_136">
    <path d="M 511.241436 174.982483 
L 511.241436 174.982483 
" clip-path="url(#pd792c79a84)" style="fill: none; stroke: #595959"/>
   </g>
   <g id="line2d_137">
    <path d="M 508.026291 174.982483 
L 514.45658 174.982483 
" clip-path="url(#pd792c79a84)" style="fill: none; stroke: #595959; stroke-linecap: round"/>
   </g>
   <g id="line2d_138">
    <path d="M 508.026291 174.982483 
L 514.45658 174.982483 
" clip-path="url(#pd792c79a84)" style="fill: none; stroke: #595959; stroke-linecap: round"/>
   </g>
   <g id="line2d_139"/>
   <g id="patch_28">
    <path d="M 523.1834 174.107455 
L 536.043976 174.107455 
L 536.043976 174.107455 
L 523.1834 174.107455 
L 523.1834 174.107455 
z
" clip-path="url(#pd792c79a84)" style="fill: #72b6a1; stroke: #595959; stroke-linejoin: miter"/>
   </g>
   <g id="line2d_140">
    <path d="M 529.613688 174.107455 
L 529.613688 174.107455 
" clip-path="url(#pd792c79a84)" style="fill: none; stroke: #595959"/>
   </g>
   <g id="line2d_141">
    <path d="M 529.613688 174.107455 
L 529.613688 174.107455 
" clip-path="url(#pd792c79a84)" style="fill: none; stroke: #595959"/>
   </g>
   <g id="line2d_142">
    <path d="M 526.398544 174.107455 
L 532.828832 174.107455 
" clip-path="url(#pd792c79a84)" style="fill: none; stroke: #595959; stroke-linecap: round"/>
   </g>
   <g id="line2d_143">
    <path d="M 526.398544 174.107455 
L 532.828832 174.107455 
" clip-path="url(#pd792c79a84)" style="fill: none; stroke: #595959; stroke-linecap: round"/>
   </g>
   <g id="line2d_144"/>
   <g id="patch_29">
    <path d="M 541.555652 172.392399 
L 554.416229 172.392399 
L 554.416229 172.392399 
L 541.555652 172.392399 
L 541.555652 172.392399 
z
" clip-path="url(#pd792c79a84)" style="fill: #72b6a1; stroke: #595959; stroke-linejoin: miter"/>
   </g>
   <g id="line2d_145">
    <path d="M 547.985941 172.392399 
L 547.985941 172.392399 
" clip-path="url(#pd792c79a84)" style="fill: none; stroke: #595959"/>
   </g>
   <g id="line2d_146">
    <path d="M 547.985941 172.392399 
L 547.985941 172.392399 
" clip-path="url(#pd792c79a84)" style="fill: none; stroke: #595959"/>
   </g>
   <g id="line2d_147">
    <path d="M 544.770796 172.392399 
L 551.201085 172.392399 
" clip-path="url(#pd792c79a84)" style="fill: none; stroke: #595959; stroke-linecap: round"/>
   </g>
   <g id="line2d_148">
    <path d="M 544.770796 172.392399 
L 551.201085 172.392399 
" clip-path="url(#pd792c79a84)" style="fill: none; stroke: #595959; stroke-linecap: round"/>
   </g>
   <g id="line2d_149"/>
   <g id="patch_30">
    <path d="M 559.927905 172.252394 
L 572.788481 172.252394 
L 572.788481 172.252394 
L 559.927905 172.252394 
L 559.927905 172.252394 
z
" clip-path="url(#pd792c79a84)" style="fill: #72b6a1; stroke: #595959; stroke-linejoin: miter"/>
   </g>
   <g id="line2d_150">
    <path d="M 566.358193 172.252394 
L 566.358193 172.252394 
" clip-path="url(#pd792c79a84)" style="fill: none; stroke: #595959"/>
   </g>
   <g id="line2d_151">
    <path d="M 566.358193 172.252394 
L 566.358193 172.252394 
" clip-path="url(#pd792c79a84)" style="fill: none; stroke: #595959"/>
   </g>
   <g id="line2d_152">
    <path d="M 563.143049 172.252394 
L 569.573337 172.252394 
" clip-path="url(#pd792c79a84)" style="fill: none; stroke: #595959; stroke-linecap: round"/>
   </g>
   <g id="line2d_153">
    <path d="M 563.143049 172.252394 
L 569.573337 172.252394 
" clip-path="url(#pd792c79a84)" style="fill: none; stroke: #595959; stroke-linecap: round"/>
   </g>
   <g id="line2d_154"/>
   <g id="patch_31">
    <path d="M 578.300157 170.782346 
L 591.160734 170.782346 
L 591.160734 170.782346 
L 578.300157 170.782346 
L 578.300157 170.782346 
z
" clip-path="url(#pd792c79a84)" style="fill: #72b6a1; stroke: #595959; stroke-linejoin: miter"/>
   </g>
   <g id="line2d_155">
    <path d="M 584.730446 170.782346 
L 584.730446 170.782346 
" clip-path="url(#pd792c79a84)" style="fill: none; stroke: #595959"/>
   </g>
   <g id="line2d_156">
    <path d="M 584.730446 170.782346 
L 584.730446 170.782346 
" clip-path="url(#pd792c79a84)" style="fill: none; stroke: #595959"/>
   </g>
   <g id="line2d_157">
    <path d="M 581.515301 170.782346 
L 587.94559 170.782346 
" clip-path="url(#pd792c79a84)" style="fill: none; stroke: #595959; stroke-linecap: round"/>
   </g>
   <g id="line2d_158">
    <path d="M 581.515301 170.782346 
L 587.94559 170.782346 
" clip-path="url(#pd792c79a84)" style="fill: none; stroke: #595959; stroke-linecap: round"/>
   </g>
   <g id="line2d_159"/>
   <g id="patch_32">
    <path d="M 596.67241 166.792215 
L 609.532986 166.792215 
L 609.532986 166.792215 
L 596.67241 166.792215 
L 596.67241 166.792215 
z
" clip-path="url(#pd792c79a84)" style="fill: #72b6a1; stroke: #595959; stroke-linejoin: miter"/>
   </g>
   <g id="line2d_160">
    <path d="M 603.102698 166.792215 
L 603.102698 166.792215 
" clip-path="url(#pd792c79a84)" style="fill: none; stroke: #595959"/>
   </g>
   <g id="line2d_161">
    <path d="M 603.102698 166.792215 
L 603.102698 166.792215 
" clip-path="url(#pd792c79a84)" style="fill: none; stroke: #595959"/>
   </g>
   <g id="line2d_162">
    <path d="M 599.887554 166.792215 
L 606.317842 166.792215 
" clip-path="url(#pd792c79a84)" style="fill: none; stroke: #595959; stroke-linecap: round"/>
   </g>
   <g id="line2d_163">
    <path d="M 599.887554 166.792215 
L 606.317842 166.792215 
" clip-path="url(#pd792c79a84)" style="fill: none; stroke: #595959; stroke-linecap: round"/>
   </g>
   <g id="line2d_164"/>
   <g id="patch_33">
    <path d="M 615.044662 167.947253 
L 627.905239 167.947253 
L 627.905239 167.947253 
L 615.044662 167.947253 
L 615.044662 167.947253 
z
" clip-path="url(#pd792c79a84)" style="fill: #72b6a1; stroke: #595959; stroke-linejoin: miter"/>
   </g>
   <g id="line2d_165">
    <path d="M 621.47495 167.947253 
L 621.47495 167.947253 
" clip-path="url(#pd792c79a84)" style="fill: none; stroke: #595959"/>
   </g>
   <g id="line2d_166">
    <path d="M 621.47495 167.947253 
L 621.47495 167.947253 
" clip-path="url(#pd792c79a84)" style="fill: none; stroke: #595959"/>
   </g>
   <g id="line2d_167">
    <path d="M 618.259806 167.947253 
L 624.690095 167.947253 
" clip-path="url(#pd792c79a84)" style="fill: none; stroke: #595959; stroke-linecap: round"/>
   </g>
   <g id="line2d_168">
    <path d="M 618.259806 167.947253 
L 624.690095 167.947253 
" clip-path="url(#pd792c79a84)" style="fill: none; stroke: #595959; stroke-linecap: round"/>
   </g>
   <g id="line2d_169"/>
   <g id="patch_34">
    <path d="M 633.416915 168.017255 
L 646.277491 168.017255 
L 646.277491 168.017255 
L 633.416915 168.017255 
L 633.416915 168.017255 
z
" clip-path="url(#pd792c79a84)" style="fill: #72b6a1; stroke: #595959; stroke-linejoin: miter"/>
   </g>
   <g id="line2d_170">
    <path d="M 639.847203 168.017255 
L 639.847203 168.017255 
" clip-path="url(#pd792c79a84)" style="fill: none; stroke: #595959"/>
   </g>
   <g id="line2d_171">
    <path d="M 639.847203 168.017255 
L 639.847203 168.017255 
" clip-path="url(#pd792c79a84)" style="fill: none; stroke: #595959"/>
   </g>
   <g id="line2d_172">
    <path d="M 636.632059 168.017255 
L 643.062347 168.017255 
" clip-path="url(#pd792c79a84)" style="fill: none; stroke: #595959; stroke-linecap: round"/>
   </g>
   <g id="line2d_173">
    <path d="M 636.632059 168.017255 
L 643.062347 168.017255 
" clip-path="url(#pd792c79a84)" style="fill: none; stroke: #595959; stroke-linecap: round"/>
   </g>
   <g id="line2d_174"/>
   <g id="patch_35">
    <path d="M 651.789167 164.517141 
L 664.649744 164.517141 
L 664.649744 164.517141 
L 651.789167 164.517141 
L 651.789167 164.517141 
z
" clip-path="url(#pd792c79a84)" style="fill: #72b6a1; stroke: #595959; stroke-linejoin: miter"/>
   </g>
   <g id="line2d_175">
    <path d="M 658.219455 164.517141 
L 658.219455 164.517141 
" clip-path="url(#pd792c79a84)" style="fill: none; stroke: #595959"/>
   </g>
   <g id="line2d_176">
    <path d="M 658.219455 164.517141 
L 658.219455 164.517141 
" clip-path="url(#pd792c79a84)" style="fill: none; stroke: #595959"/>
   </g>
   <g id="line2d_177">
    <path d="M 655.004311 164.517141 
L 661.4346 164.517141 
" clip-path="url(#pd792c79a84)" style="fill: none; stroke: #595959; stroke-linecap: round"/>
   </g>
   <g id="line2d_178">
    <path d="M 655.004311 164.517141 
L 661.4346 164.517141 
" clip-path="url(#pd792c79a84)" style="fill: none; stroke: #595959; stroke-linecap: round"/>
   </g>
   <g id="line2d_179"/>
   <g id="patch_36">
    <path d="M 670.16142 162.66208 
L 683.021996 162.66208 
L 683.021996 162.66208 
L 670.16142 162.66208 
L 670.16142 162.66208 
z
" clip-path="url(#pd792c79a84)" style="fill: #72b6a1; stroke: #595959; stroke-linejoin: miter"/>
   </g>
   <g id="line2d_180">
    <path d="M 676.591708 162.66208 
L 676.591708 162.66208 
" clip-path="url(#pd792c79a84)" style="fill: none; stroke: #595959"/>
   </g>
   <g id="line2d_181">
    <path d="M 676.591708 162.66208 
L 676.591708 162.66208 
" clip-path="url(#pd792c79a84)" style="fill: none; stroke: #595959"/>
   </g>
   <g id="line2d_182">
    <path d="M 673.376564 162.66208 
L 679.806852 162.66208 
" clip-path="url(#pd792c79a84)" style="fill: none; stroke: #595959; stroke-linecap: round"/>
   </g>
   <g id="line2d_183">
    <path d="M 673.376564 162.66208 
L 679.806852 162.66208 
" clip-path="url(#pd792c79a84)" style="fill: none; stroke: #595959; stroke-linecap: round"/>
   </g>
   <g id="line2d_184"/>
   <g id="patch_37">
    <path d="M 688.533672 162.172064 
L 701.394249 162.172064 
L 701.394249 162.172064 
L 688.533672 162.172064 
L 688.533672 162.172064 
z
" clip-path="url(#pd792c79a84)" style="fill: #72b6a1; stroke: #595959; stroke-linejoin: miter"/>
   </g>
   <g id="line2d_185">
    <path d="M 694.96396 162.172064 
L 694.96396 162.172064 
" clip-path="url(#pd792c79a84)" style="fill: none; stroke: #595959"/>
   </g>
   <g id="line2d_186">
    <path d="M 694.96396 162.172064 
L 694.96396 162.172064 
" clip-path="url(#pd792c79a84)" style="fill: none; stroke: #595959"/>
   </g>
   <g id="line2d_187">
    <path d="M 691.748816 162.172064 
L 698.179105 162.172064 
" clip-path="url(#pd792c79a84)" style="fill: none; stroke: #595959; stroke-linecap: round"/>
   </g>
   <g id="line2d_188">
    <path d="M 691.748816 162.172064 
L 698.179105 162.172064 
" clip-path="url(#pd792c79a84)" style="fill: none; stroke: #595959; stroke-linecap: round"/>
   </g>
   <g id="line2d_189"/>
   <g id="patch_38">
    <path d="M 706.905925 159.161966 
L 719.766501 159.161966 
L 719.766501 159.161966 
L 706.905925 159.161966 
L 706.905925 159.161966 
z
" clip-path="url(#pd792c79a84)" style="fill: #72b6a1; stroke: #595959; stroke-linejoin: miter"/>
   </g>
   <g id="line2d_190">
    <path d="M 713.336213 159.161966 
L 713.336213 159.161966 
" clip-path="url(#pd792c79a84)" style="fill: none; stroke: #595959"/>
   </g>
   <g id="line2d_191">
    <path d="M 713.336213 159.161966 
L 713.336213 159.161966 
" clip-path="url(#pd792c79a84)" style="fill: none; stroke: #595959"/>
   </g>
   <g id="line2d_192">
    <path d="M 710.121069 159.161966 
L 716.551357 159.161966 
" clip-path="url(#pd792c79a84)" style="fill: none; stroke: #595959; stroke-linecap: round"/>
   </g>
   <g id="line2d_193">
    <path d="M 710.121069 159.161966 
L 716.551357 159.161966 
" clip-path="url(#pd792c79a84)" style="fill: none; stroke: #595959; stroke-linecap: round"/>
   </g>
   <g id="line2d_194"/>
   <g id="patch_39">
    <path d="M 725.278177 159.756985 
L 738.138754 159.756985 
L 738.138754 159.756985 
L 725.278177 159.756985 
L 725.278177 159.756985 
z
" clip-path="url(#pd792c79a84)" style="fill: #72b6a1; stroke: #595959; stroke-linejoin: miter"/>
   </g>
   <g id="line2d_195">
    <path d="M 731.708465 159.756985 
L 731.708465 159.756985 
" clip-path="url(#pd792c79a84)" style="fill: none; stroke: #595959"/>
   </g>
   <g id="line2d_196">
    <path d="M 731.708465 159.756985 
L 731.708465 159.756985 
" clip-path="url(#pd792c79a84)" style="fill: none; stroke: #595959"/>
   </g>
   <g id="line2d_197">
    <path d="M 728.493321 159.756985 
L 734.92361 159.756985 
" clip-path="url(#pd792c79a84)" style="fill: none; stroke: #595959; stroke-linecap: round"/>
   </g>
   <g id="line2d_198">
    <path d="M 728.493321 159.756985 
L 734.92361 159.756985 
" clip-path="url(#pd792c79a84)" style="fill: none; stroke: #595959; stroke-linecap: round"/>
   </g>
   <g id="line2d_199"/>
   <g id="patch_40">
    <path d="M 743.650429 158.566947 
L 756.511006 158.566947 
L 756.511006 158.566947 
L 743.650429 158.566947 
L 743.650429 158.566947 
z
" clip-path="url(#pd792c79a84)" style="fill: #72b6a1; stroke: #595959; stroke-linejoin: miter"/>
   </g>
   <g id="line2d_200">
    <path d="M 750.080718 158.566947 
L 750.080718 158.566947 
" clip-path="url(#pd792c79a84)" style="fill: none; stroke: #595959"/>
   </g>
   <g id="line2d_201">
    <path d="M 750.080718 158.566947 
L 750.080718 158.566947 
" clip-path="url(#pd792c79a84)" style="fill: none; stroke: #595959"/>
   </g>
   <g id="line2d_202">
    <path d="M 746.865574 158.566947 
L 753.295862 158.566947 
" clip-path="url(#pd792c79a84)" style="fill: none; stroke: #595959; stroke-linecap: round"/>
   </g>
   <g id="line2d_203">
    <path d="M 746.865574 158.566947 
L 753.295862 158.566947 
" clip-path="url(#pd792c79a84)" style="fill: none; stroke: #595959; stroke-linecap: round"/>
   </g>
   <g id="line2d_204"/>
   <g id="patch_41">
    <path d="M 762.022682 156.641884 
L 774.883259 156.641884 
L 774.883259 156.641884 
L 762.022682 156.641884 
L 762.022682 156.641884 
z
" clip-path="url(#pd792c79a84)" style="fill: #72b6a1; stroke: #595959; stroke-linejoin: miter"/>
   </g>
   <g id="line2d_205">
    <path d="M 768.45297 156.641884 
L 768.45297 156.641884 
" clip-path="url(#pd792c79a84)" style="fill: none; stroke: #595959"/>
   </g>
   <g id="line2d_206">
    <path d="M 768.45297 156.641884 
L 768.45297 156.641884 
" clip-path="url(#pd792c79a84)" style="fill: none; stroke: #595959"/>
   </g>
   <g id="line2d_207">
    <path d="M 765.237826 156.641884 
L 771.668114 156.641884 
" clip-path="url(#pd792c79a84)" style="fill: none; stroke: #595959; stroke-linecap: round"/>
   </g>
   <g id="line2d_208">
    <path d="M 765.237826 156.641884 
L 771.668114 156.641884 
" clip-path="url(#pd792c79a84)" style="fill: none; stroke: #595959; stroke-linecap: round"/>
   </g>
   <g id="line2d_209"/>
   <g id="patch_42">
    <path d="M 780.394934 167.282231 
L 793.255511 167.282231 
L 793.255511 167.282231 
L 780.394934 167.282231 
L 780.394934 167.282231 
z
" clip-path="url(#pd792c79a84)" style="fill: #72b6a1; stroke: #595959; stroke-linejoin: miter"/>
   </g>
   <g id="line2d_210">
    <path d="M 786.825223 167.282231 
L 786.825223 167.282231 
" clip-path="url(#pd792c79a84)" style="fill: none; stroke: #595959"/>
   </g>
   <g id="line2d_211">
    <path d="M 786.825223 167.282231 
L 786.825223 167.282231 
" clip-path="url(#pd792c79a84)" style="fill: none; stroke: #595959"/>
   </g>
   <g id="line2d_212">
    <path d="M 783.610079 167.282231 
L 790.040367 167.282231 
" clip-path="url(#pd792c79a84)" style="fill: none; stroke: #595959; stroke-linecap: round"/>
   </g>
   <g id="line2d_213">
    <path d="M 783.610079 167.282231 
L 790.040367 167.282231 
" clip-path="url(#pd792c79a84)" style="fill: none; stroke: #595959; stroke-linecap: round"/>
   </g>
   <g id="line2d_214"/>
   <g id="patch_43">
    <path d="M 798.767187 155.556848 
L 811.627764 155.556848 
L 811.627764 155.556848 
L 798.767187 155.556848 
L 798.767187 155.556848 
z
" clip-path="url(#pd792c79a84)" style="fill: #72b6a1; stroke: #595959; stroke-linejoin: miter"/>
   </g>
   <g id="line2d_215">
    <path d="M 805.197475 155.556848 
L 805.197475 155.556848 
" clip-path="url(#pd792c79a84)" style="fill: none; stroke: #595959"/>
   </g>
   <g id="line2d_216">
    <path d="M 805.197475 155.556848 
L 805.197475 155.556848 
" clip-path="url(#pd792c79a84)" style="fill: none; stroke: #595959"/>
   </g>
   <g id="line2d_217">
    <path d="M 801.982331 155.556848 
L 808.412619 155.556848 
" clip-path="url(#pd792c79a84)" style="fill: none; stroke: #595959; stroke-linecap: round"/>
   </g>
   <g id="line2d_218">
    <path d="M 801.982331 155.556848 
L 808.412619 155.556848 
" clip-path="url(#pd792c79a84)" style="fill: none; stroke: #595959; stroke-linecap: round"/>
   </g>
   <g id="line2d_219"/>
   <g id="patch_44">
    <path d="M 817.139439 154.366809 
L 830.000016 154.366809 
L 830.000016 154.366809 
L 817.139439 154.366809 
L 817.139439 154.366809 
z
" clip-path="url(#pd792c79a84)" style="fill: #72b6a1; stroke: #595959; stroke-linejoin: miter"/>
   </g>
   <g id="line2d_220">
    <path d="M 823.569728 154.366809 
L 823.569728 154.366809 
" clip-path="url(#pd792c79a84)" style="fill: none; stroke: #595959"/>
   </g>
   <g id="line2d_221">
    <path d="M 823.569728 154.366809 
L 823.569728 154.366809 
" clip-path="url(#pd792c79a84)" style="fill: none; stroke: #595959"/>
   </g>
   <g id="line2d_222">
    <path d="M 820.354584 154.366809 
L 826.784872 154.366809 
" clip-path="url(#pd792c79a84)" style="fill: none; stroke: #595959; stroke-linecap: round"/>
   </g>
   <g id="line2d_223">
    <path d="M 820.354584 154.366809 
L 826.784872 154.366809 
" clip-path="url(#pd792c79a84)" style="fill: none; stroke: #595959; stroke-linecap: round"/>
   </g>
   <g id="line2d_224"/>
   <g id="patch_45">
    <path d="M 835.511692 151.286709 
L 848.372269 151.286709 
L 848.372269 151.286709 
L 835.511692 151.286709 
L 835.511692 151.286709 
z
" clip-path="url(#pd792c79a84)" style="fill: #72b6a1; stroke: #595959; stroke-linejoin: miter"/>
   </g>
   <g id="line2d_225">
    <path d="M 841.94198 151.286709 
L 841.94198 151.286709 
" clip-path="url(#pd792c79a84)" style="fill: none; stroke: #595959"/>
   </g>
   <g id="line2d_226">
    <path d="M 841.94198 151.286709 
L 841.94198 151.286709 
" clip-path="url(#pd792c79a84)" style="fill: none; stroke: #595959"/>
   </g>
   <g id="line2d_227">
    <path d="M 838.726836 151.286709 
L 845.157124 151.286709 
" clip-path="url(#pd792c79a84)" style="fill: none; stroke: #595959; stroke-linecap: round"/>
   </g>
   <g id="line2d_228">
    <path d="M 838.726836 151.286709 
L 845.157124 151.286709 
" clip-path="url(#pd792c79a84)" style="fill: none; stroke: #595959; stroke-linecap: round"/>
   </g>
   <g id="line2d_229"/>
   <g id="patch_46">
    <path d="M 853.883944 155.976862 
L 866.744521 155.976862 
L 866.744521 155.976862 
L 853.883944 155.976862 
L 853.883944 155.976862 
z
" clip-path="url(#pd792c79a84)" style="fill: #72b6a1; stroke: #595959; stroke-linejoin: miter"/>
   </g>
   <g id="line2d_230">
    <path d="M 860.314233 155.976862 
L 860.314233 155.976862 
" clip-path="url(#pd792c79a84)" style="fill: none; stroke: #595959"/>
   </g>
   <g id="line2d_231">
    <path d="M 860.314233 155.976862 
L 860.314233 155.976862 
" clip-path="url(#pd792c79a84)" style="fill: none; stroke: #595959"/>
   </g>
   <g id="line2d_232">
    <path d="M 857.099088 155.976862 
L 863.529377 155.976862 
" clip-path="url(#pd792c79a84)" style="fill: none; stroke: #595959; stroke-linecap: round"/>
   </g>
   <g id="line2d_233">
    <path d="M 857.099088 155.976862 
L 863.529377 155.976862 
" clip-path="url(#pd792c79a84)" style="fill: none; stroke: #595959; stroke-linecap: round"/>
   </g>
   <g id="line2d_234"/>
   <g id="patch_47">
    <path d="M 872.256197 149.991666 
L 885.116774 149.991666 
L 885.116774 149.991666 
L 872.256197 149.991666 
L 872.256197 149.991666 
z
" clip-path="url(#pd792c79a84)" style="fill: #72b6a1; stroke: #595959; stroke-linejoin: miter"/>
   </g>
   <g id="line2d_235">
    <path d="M 878.686485 149.991666 
L 878.686485 149.991666 
" clip-path="url(#pd792c79a84)" style="fill: none; stroke: #595959"/>
   </g>
   <g id="line2d_236">
    <path d="M 878.686485 149.991666 
L 878.686485 149.991666 
" clip-path="url(#pd792c79a84)" style="fill: none; stroke: #595959"/>
   </g>
   <g id="line2d_237">
    <path d="M 875.471341 149.991666 
L 881.901629 149.991666 
" clip-path="url(#pd792c79a84)" style="fill: none; stroke: #595959; stroke-linecap: round"/>
   </g>
   <g id="line2d_238">
    <path d="M 875.471341 149.991666 
L 881.901629 149.991666 
" clip-path="url(#pd792c79a84)" style="fill: none; stroke: #595959; stroke-linecap: round"/>
   </g>
   <g id="line2d_239"/>
   <g id="patch_48">
    <path d="M 890.628449 147.611588 
L 903.489026 147.611588 
L 903.489026 147.611588 
L 890.628449 147.611588 
L 890.628449 147.611588 
z
" clip-path="url(#pd792c79a84)" style="fill: #72b6a1; stroke: #595959; stroke-linejoin: miter"/>
   </g>
   <g id="line2d_240">
    <path d="M 897.058738 147.611588 
L 897.058738 147.611588 
" clip-path="url(#pd792c79a84)" style="fill: none; stroke: #595959"/>
   </g>
   <g id="line2d_241">
    <path d="M 897.058738 147.611588 
L 897.058738 147.611588 
" clip-path="url(#pd792c79a84)" style="fill: none; stroke: #595959"/>
   </g>
   <g id="line2d_242">
    <path d="M 893.843593 147.611588 
L 900.273882 147.611588 
" clip-path="url(#pd792c79a84)" style="fill: none; stroke: #595959; stroke-linecap: round"/>
   </g>
   <g id="line2d_243">
    <path d="M 893.843593 147.611588 
L 900.273882 147.611588 
" clip-path="url(#pd792c79a84)" style="fill: none; stroke: #595959; stroke-linecap: round"/>
   </g>
   <g id="line2d_244"/>
   <g id="patch_49">
    <path d="M 909.000702 152.371744 
L 921.861278 152.371744 
L 921.861278 152.371744 
L 909.000702 152.371744 
L 909.000702 152.371744 
z
" clip-path="url(#pd792c79a84)" style="fill: #72b6a1; stroke: #595959; stroke-linejoin: miter"/>
   </g>
   <g id="line2d_245">
    <path d="M 915.43099 152.371744 
L 915.43099 152.371744 
" clip-path="url(#pd792c79a84)" style="fill: none; stroke: #595959"/>
   </g>
   <g id="line2d_246">
    <path d="M 915.43099 152.371744 
L 915.43099 152.371744 
" clip-path="url(#pd792c79a84)" style="fill: none; stroke: #595959"/>
   </g>
   <g id="line2d_247">
    <path d="M 912.215846 152.371744 
L 918.646134 152.371744 
" clip-path="url(#pd792c79a84)" style="fill: none; stroke: #595959; stroke-linecap: round"/>
   </g>
   <g id="line2d_248">
    <path d="M 912.215846 152.371744 
L 918.646134 152.371744 
" clip-path="url(#pd792c79a84)" style="fill: none; stroke: #595959; stroke-linecap: round"/>
   </g>
   <g id="line2d_249"/>
   <g id="patch_50">
    <path d="M 927.372954 147.646589 
L 940.233531 147.646589 
L 940.233531 147.646589 
L 927.372954 147.646589 
L 927.372954 147.646589 
z
" clip-path="url(#pd792c79a84)" style="fill: #72b6a1; stroke: #595959; stroke-linejoin: miter"/>
   </g>
   <g id="line2d_250">
    <path d="M 933.803243 147.646589 
L 933.803243 147.646589 
" clip-path="url(#pd792c79a84)" style="fill: none; stroke: #595959"/>
   </g>
   <g id="line2d_251">
    <path d="M 933.803243 147.646589 
L 933.803243 147.646589 
" clip-path="url(#pd792c79a84)" style="fill: none; stroke: #595959"/>
   </g>
   <g id="line2d_252">
    <path d="M 930.588098 147.646589 
L 937.018387 147.646589 
" clip-path="url(#pd792c79a84)" style="fill: none; stroke: #595959; stroke-linecap: round"/>
   </g>
   <g id="line2d_253">
    <path d="M 930.588098 147.646589 
L 937.018387 147.646589 
" clip-path="url(#pd792c79a84)" style="fill: none; stroke: #595959; stroke-linecap: round"/>
   </g>
   <g id="line2d_254"/>
   <g id="patch_51">
    <path d="M 945.745207 145.721527 
L 958.605783 145.721527 
L 958.605783 145.721527 
L 945.745207 145.721527 
L 945.745207 145.721527 
z
" clip-path="url(#pd792c79a84)" style="fill: #72b6a1; stroke: #595959; stroke-linejoin: miter"/>
   </g>
   <g id="line2d_255">
    <path d="M 952.175495 145.721527 
L 952.175495 145.721527 
" clip-path="url(#pd792c79a84)" style="fill: none; stroke: #595959"/>
   </g>
   <g id="line2d_256">
    <path d="M 952.175495 145.721527 
L 952.175495 145.721527 
" clip-path="url(#pd792c79a84)" style="fill: none; stroke: #595959"/>
   </g>
   <g id="line2d_257">
    <path d="M 948.960351 145.721527 
L 955.390639 145.721527 
" clip-path="url(#pd792c79a84)" style="fill: none; stroke: #595959; stroke-linecap: round"/>
   </g>
   <g id="line2d_258">
    <path d="M 948.960351 145.721527 
L 955.390639 145.721527 
" clip-path="url(#pd792c79a84)" style="fill: none; stroke: #595959; stroke-linecap: round"/>
   </g>
   <g id="line2d_259"/>
   <g id="patch_52">
    <path d="M 964.117459 148.346612 
L 976.978036 148.346612 
L 976.978036 148.346612 
L 964.117459 148.346612 
L 964.117459 148.346612 
z
" clip-path="url(#pd792c79a84)" style="fill: #72b6a1; stroke: #595959; stroke-linejoin: miter"/>
   </g>
   <g id="line2d_260">
    <path d="M 970.547748 148.346612 
L 970.547748 148.346612 
" clip-path="url(#pd792c79a84)" style="fill: none; stroke: #595959"/>
   </g>
   <g id="line2d_261">
    <path d="M 970.547748 148.346612 
L 970.547748 148.346612 
" clip-path="url(#pd792c79a84)" style="fill: none; stroke: #595959"/>
   </g>
   <g id="line2d_262">
    <path d="M 967.332603 148.346612 
L 973.762892 148.346612 
" clip-path="url(#pd792c79a84)" style="fill: none; stroke: #595959; stroke-linecap: round"/>
   </g>
   <g id="line2d_263">
    <path d="M 967.332603 148.346612 
L 973.762892 148.346612 
" clip-path="url(#pd792c79a84)" style="fill: none; stroke: #595959; stroke-linecap: round"/>
   </g>
   <g id="line2d_264"/>
   <g id="line2d_265">
    <path d="M 63.877088 275.278262 
L 76.737665 275.278262 
" clip-path="url(#pd792c79a84)" style="fill: none; stroke: #595959"/>
   </g>
   <g id="line2d_266">
    <path d="M 82.24934 236.998004 
L 95.109917 236.998004 
" clip-path="url(#pd792c79a84)" style="fill: none; stroke: #595959"/>
   </g>
   <g id="line2d_267">
    <path d="M 100.621593 203.224907 
L 113.48217 203.224907 
" clip-path="url(#pd792c79a84)" style="fill: none; stroke: #595959"/>
   </g>
   <g id="line2d_268">
    <path d="M 118.993845 193.431586 
L 131.854422 193.431586 
" clip-path="url(#pd792c79a84)" style="fill: none; stroke: #595959"/>
   </g>
   <g id="line2d_269">
    <path d="M 137.366098 184.183701 
L 150.226675 184.183701 
" clip-path="url(#pd792c79a84)" style="fill: none; stroke: #595959"/>
   </g>
   <g id="line2d_270">
    <path d="M 155.73835 212.958725 
L 168.598927 212.958725 
" clip-path="url(#pd792c79a84)" style="fill: none; stroke: #595959"/>
   </g>
   <g id="line2d_271">
    <path d="M 174.110603 206.553515 
L 186.971179 206.553515 
" clip-path="url(#pd792c79a84)" style="fill: none; stroke: #595959"/>
   </g>
   <g id="line2d_272">
    <path d="M 192.482855 208.443577 
L 205.343432 208.443577 
" clip-path="url(#pd792c79a84)" style="fill: none; stroke: #595959"/>
   </g>
   <g id="line2d_273">
    <path d="M 210.855108 205.188471 
L 223.715684 205.188471 
" clip-path="url(#pd792c79a84)" style="fill: none; stroke: #595959"/>
   </g>
   <g id="line2d_274">
    <path d="M 229.22736 202.353378 
L 242.087937 202.353378 
" clip-path="url(#pd792c79a84)" style="fill: none; stroke: #595959"/>
   </g>
   <g id="line2d_275">
    <path d="M 247.599613 202.948398 
L 260.460189 202.948398 
" clip-path="url(#pd792c79a84)" style="fill: none; stroke: #595959"/>
   </g>
   <g id="line2d_276">
    <path d="M 265.971865 194.688127 
L 278.832442 194.688127 
" clip-path="url(#pd792c79a84)" style="fill: none; stroke: #595959"/>
   </g>
   <g id="line2d_277">
    <path d="M 284.344118 201.058336 
L 297.204694 201.058336 
" clip-path="url(#pd792c79a84)" style="fill: none; stroke: #595959"/>
   </g>
   <g id="line2d_278">
    <path d="M 302.71637 194.233113 
L 315.576947 194.233113 
" clip-path="url(#pd792c79a84)" style="fill: none; stroke: #595959"/>
   </g>
   <g id="line2d_279">
    <path d="M 321.088623 198.573254 
L 333.949199 198.573254 
" clip-path="url(#pd792c79a84)" style="fill: none; stroke: #595959"/>
   </g>
   <g id="line2d_280">
    <path d="M 339.460875 189.192948 
L 352.321452 189.192948 
" clip-path="url(#pd792c79a84)" style="fill: none; stroke: #595959"/>
   </g>
   <g id="line2d_281">
    <path d="M 357.833127 188.35292 
L 370.693704 188.35292 
" clip-path="url(#pd792c79a84)" style="fill: none; stroke: #595959"/>
   </g>
   <g id="line2d_282">
    <path d="M 376.20538 185.797837 
L 389.065957 185.797837 
" clip-path="url(#pd792c79a84)" style="fill: none; stroke: #595959"/>
   </g>
   <g id="line2d_283">
    <path d="M 394.577632 184.04778 
L 407.438209 184.04778 
" clip-path="url(#pd792c79a84)" style="fill: none; stroke: #595959"/>
   </g>
   <g id="line2d_284">
    <path d="M 412.949885 182.962744 
L 425.810462 182.962744 
" clip-path="url(#pd792c79a84)" style="fill: none; stroke: #595959"/>
   </g>
   <g id="line2d_285">
    <path d="M 431.322137 182.752737 
L 444.182714 182.752737 
" clip-path="url(#pd792c79a84)" style="fill: none; stroke: #595959"/>
   </g>
   <g id="line2d_286">
    <path d="M 449.69439 180.547665 
L 462.554967 180.547665 
" clip-path="url(#pd792c79a84)" style="fill: none; stroke: #595959"/>
   </g>
   <g id="line2d_287">
    <path d="M 468.066642 178.447596 
L 480.927219 178.447596 
" clip-path="url(#pd792c79a84)" style="fill: none; stroke: #595959"/>
   </g>
   <g id="line2d_288">
    <path d="M 486.438895 176.872545 
L 499.299472 176.872545 
" clip-path="url(#pd792c79a84)" style="fill: none; stroke: #595959"/>
   </g>
   <g id="line2d_289">
    <path d="M 504.811147 174.982483 
L 517.671724 174.982483 
" clip-path="url(#pd792c79a84)" style="fill: none; stroke: #595959"/>
   </g>
   <g id="line2d_290">
    <path d="M 523.1834 174.107455 
L 536.043976 174.107455 
" clip-path="url(#pd792c79a84)" style="fill: none; stroke: #595959"/>
   </g>
   <g id="line2d_291">
    <path d="M 541.555652 172.392399 
L 554.416229 172.392399 
" clip-path="url(#pd792c79a84)" style="fill: none; stroke: #595959"/>
   </g>
   <g id="line2d_292">
    <path d="M 559.927905 172.252394 
L 572.788481 172.252394 
" clip-path="url(#pd792c79a84)" style="fill: none; stroke: #595959"/>
   </g>
   <g id="line2d_293">
    <path d="M 578.300157 170.782346 
L 591.160734 170.782346 
" clip-path="url(#pd792c79a84)" style="fill: none; stroke: #595959"/>
   </g>
   <g id="line2d_294">
    <path d="M 596.67241 166.792215 
L 609.532986 166.792215 
" clip-path="url(#pd792c79a84)" style="fill: none; stroke: #595959"/>
   </g>
   <g id="line2d_295">
    <path d="M 615.044662 167.947253 
L 627.905239 167.947253 
" clip-path="url(#pd792c79a84)" style="fill: none; stroke: #595959"/>
   </g>
   <g id="line2d_296">
    <path d="M 633.416915 168.017255 
L 646.277491 168.017255 
" clip-path="url(#pd792c79a84)" style="fill: none; stroke: #595959"/>
   </g>
   <g id="line2d_297">
    <path d="M 651.789167 164.517141 
L 664.649744 164.517141 
" clip-path="url(#pd792c79a84)" style="fill: none; stroke: #595959"/>
   </g>
   <g id="line2d_298">
    <path d="M 670.16142 162.66208 
L 683.021996 162.66208 
" clip-path="url(#pd792c79a84)" style="fill: none; stroke: #595959"/>
   </g>
   <g id="line2d_299">
    <path d="M 688.533672 162.172064 
L 701.394249 162.172064 
" clip-path="url(#pd792c79a84)" style="fill: none; stroke: #595959"/>
   </g>
   <g id="line2d_300">
    <path d="M 706.905925 159.161966 
L 719.766501 159.161966 
" clip-path="url(#pd792c79a84)" style="fill: none; stroke: #595959"/>
   </g>
   <g id="line2d_301">
    <path d="M 725.278177 159.756985 
L 738.138754 159.756985 
" clip-path="url(#pd792c79a84)" style="fill: none; stroke: #595959"/>
   </g>
   <g id="line2d_302">
    <path d="M 743.650429 158.566947 
L 756.511006 158.566947 
" clip-path="url(#pd792c79a84)" style="fill: none; stroke: #595959"/>
   </g>
   <g id="line2d_303">
    <path d="M 762.022682 156.641884 
L 774.883259 156.641884 
" clip-path="url(#pd792c79a84)" style="fill: none; stroke: #595959"/>
   </g>
   <g id="line2d_304">
    <path d="M 780.394934 167.282231 
L 793.255511 167.282231 
" clip-path="url(#pd792c79a84)" style="fill: none; stroke: #595959"/>
   </g>
   <g id="line2d_305">
    <path d="M 798.767187 155.556848 
L 811.627764 155.556848 
" clip-path="url(#pd792c79a84)" style="fill: none; stroke: #595959"/>
   </g>
   <g id="line2d_306">
    <path d="M 817.139439 154.366809 
L 830.000016 154.366809 
" clip-path="url(#pd792c79a84)" style="fill: none; stroke: #595959"/>
   </g>
   <g id="line2d_307">
    <path d="M 835.511692 151.286709 
L 848.372269 151.286709 
" clip-path="url(#pd792c79a84)" style="fill: none; stroke: #595959"/>
   </g>
   <g id="line2d_308">
    <path d="M 853.883944 155.976862 
L 866.744521 155.976862 
" clip-path="url(#pd792c79a84)" style="fill: none; stroke: #595959"/>
   </g>
   <g id="line2d_309">
    <path d="M 872.256197 149.991666 
L 885.116774 149.991666 
" clip-path="url(#pd792c79a84)" style="fill: none; stroke: #595959"/>
   </g>
   <g id="line2d_310">
    <path d="M 890.628449 147.611588 
L 903.489026 147.611588 
" clip-path="url(#pd792c79a84)" style="fill: none; stroke: #595959"/>
   </g>
   <g id="line2d_311">
    <path d="M 909.000702 152.371744 
L 921.861278 152.371744 
" clip-path="url(#pd792c79a84)" style="fill: none; stroke: #595959"/>
   </g>
   <g id="line2d_312">
    <path d="M 927.372954 147.646589 
L 940.233531 147.646589 
" clip-path="url(#pd792c79a84)" style="fill: none; stroke: #595959"/>
   </g>
   <g id="line2d_313">
    <path d="M 945.745207 145.721527 
L 958.605783 145.721527 
" clip-path="url(#pd792c79a84)" style="fill: none; stroke: #595959"/>
   </g>
   <g id="line2d_314">
    <path d="M 964.117459 148.346612 
L 976.978036 148.346612 
" clip-path="url(#pd792c79a84)" style="fill: none; stroke: #595959"/>
   </g>
   <g id="patch_53">
    <path d="M 61.12125 526.5 
L 61.12125 30.58125 
" style="fill: none; stroke: #cccccc; stroke-width: 1.25; stroke-linejoin: miter; stroke-linecap: square"/>
   </g>
   <g id="patch_54">
    <path d="M 988.92 526.5 
L 988.92 30.58125 
" style="fill: none; stroke: #cccccc; stroke-width: 1.25; stroke-linejoin: miter; stroke-linecap: square"/>
   </g>
   <g id="patch_55">
    <path d="M 61.12125 526.5 
L 988.92 526.5 
" style="fill: none; stroke: #cccccc; stroke-width: 1.25; stroke-linejoin: miter; stroke-linecap: square"/>
   </g>
   <g id="patch_56">
    <path d="M 61.12125 30.58125 
L 988.92 30.58125 
" style="fill: none; stroke: #cccccc; stroke-width: 1.25; stroke-linejoin: miter; stroke-linecap: square"/>
   </g>
   <g id="text_17">
    <!-- img-classification - celeba-gender (Accuracy_mean Distribution) -->
    <g style="fill: #262626" transform="translate(280.085625 24.58125) scale(0.16 -0.16)">
     <defs>
      <path id="Arial-BoldMT-69" d="M 459 3769 
L 459 4581 
L 1338 4581 
L 1338 3769 
L 459 3769 
z
M 459 0 
L 459 3319 
L 1338 3319 
L 1338 0 
L 459 0 
z
" transform="scale(0.015625)"/>
      <path id="Arial-BoldMT-6d" d="M 394 3319 
L 1203 3319 
L 1203 2866 
Q 1638 3394 2238 3394 
Q 2556 3394 2790 3262 
Q 3025 3131 3175 2866 
Q 3394 3131 3647 3262 
Q 3900 3394 4188 3394 
Q 4553 3394 4806 3245 
Q 5059 3097 5184 2809 
Q 5275 2597 5275 2122 
L 5275 0 
L 4397 0 
L 4397 1897 
Q 4397 2391 4306 2534 
Q 4184 2722 3931 2722 
Q 3747 2722 3584 2609 
Q 3422 2497 3350 2280 
Q 3278 2063 3278 1594 
L 3278 0 
L 2400 0 
L 2400 1819 
Q 2400 2303 2353 2443 
Q 2306 2584 2207 2653 
Q 2109 2722 1941 2722 
Q 1738 2722 1575 2612 
Q 1413 2503 1342 2297 
Q 1272 2091 1272 1613 
L 1272 0 
L 394 0 
L 394 3319 
z
" transform="scale(0.015625)"/>
      <path id="Arial-BoldMT-67" d="M 378 -219 
L 1381 -341 
Q 1406 -516 1497 -581 
Q 1622 -675 1891 -675 
Q 2234 -675 2406 -572 
Q 2522 -503 2581 -350 
Q 2622 -241 2622 53 
L 2622 538 
Q 2228 0 1628 0 
Q 959 0 569 566 
Q 263 1013 263 1678 
Q 263 2513 664 2953 
Q 1066 3394 1663 3394 
Q 2278 3394 2678 2853 
L 2678 3319 
L 3500 3319 
L 3500 341 
Q 3500 -247 3403 -537 
Q 3306 -828 3131 -993 
Q 2956 -1159 2664 -1253 
Q 2372 -1347 1925 -1347 
Q 1081 -1347 728 -1058 
Q 375 -769 375 -325 
Q 375 -281 378 -219 
z
M 1163 1728 
Q 1163 1200 1367 954 
Q 1572 709 1872 709 
Q 2194 709 2416 961 
Q 2638 1213 2638 1706 
Q 2638 2222 2425 2472 
Q 2213 2722 1888 2722 
Q 1572 2722 1367 2476 
Q 1163 2231 1163 1728 
z
" transform="scale(0.015625)"/>
      <path id="Arial-BoldMT-2d" d="M 359 1222 
L 359 2100 
L 2084 2100 
L 2084 1222 
L 359 1222 
z
" transform="scale(0.015625)"/>
      <path id="Arial-BoldMT-63" d="M 3353 2338 
L 2488 2181 
Q 2444 2441 2289 2572 
Q 2134 2703 1888 2703 
Q 1559 2703 1364 2476 
Q 1169 2250 1169 1719 
Q 1169 1128 1367 884 
Q 1566 641 1900 641 
Q 2150 641 2309 783 
Q 2469 925 2534 1272 
L 3397 1125 
Q 3263 531 2881 228 
Q 2500 -75 1859 -75 
Q 1131 -75 698 384 
Q 266 844 266 1656 
Q 266 2478 700 2936 
Q 1134 3394 1875 3394 
Q 2481 3394 2839 3133 
Q 3197 2872 3353 2338 
z
" transform="scale(0.015625)"/>
      <path id="Arial-BoldMT-6c" d="M 459 0 
L 459 4581 
L 1338 4581 
L 1338 0 
L 459 0 
z
" transform="scale(0.015625)"/>
      <path id="Arial-BoldMT-61" d="M 1116 2306 
L 319 2450 
Q 453 2931 781 3162 
Q 1109 3394 1756 3394 
Q 2344 3394 2631 3255 
Q 2919 3116 3036 2902 
Q 3153 2688 3153 2116 
L 3144 1091 
Q 3144 653 3186 445 
Q 3228 238 3344 0 
L 2475 0 
Q 2441 88 2391 259 
Q 2369 338 2359 363 
Q 2134 144 1878 34 
Q 1622 -75 1331 -75 
Q 819 -75 523 203 
Q 228 481 228 906 
Q 228 1188 362 1408 
Q 497 1628 739 1745 
Q 981 1863 1438 1950 
Q 2053 2066 2291 2166 
L 2291 2253 
Q 2291 2506 2166 2614 
Q 2041 2722 1694 2722 
Q 1459 2722 1328 2630 
Q 1197 2538 1116 2306 
z
M 2291 1594 
Q 2122 1538 1756 1459 
Q 1391 1381 1278 1306 
Q 1106 1184 1106 997 
Q 1106 813 1243 678 
Q 1381 544 1594 544 
Q 1831 544 2047 700 
Q 2206 819 2256 991 
Q 2291 1103 2291 1419 
L 2291 1594 
z
" transform="scale(0.015625)"/>
      <path id="Arial-BoldMT-73" d="M 150 947 
L 1031 1081 
Q 1088 825 1259 692 
Q 1431 559 1741 559 
Q 2081 559 2253 684 
Q 2369 772 2369 919 
Q 2369 1019 2306 1084 
Q 2241 1147 2013 1200 
Q 950 1434 666 1628 
Q 272 1897 272 2375 
Q 272 2806 612 3100 
Q 953 3394 1669 3394 
Q 2350 3394 2681 3172 
Q 3013 2950 3138 2516 
L 2309 2363 
Q 2256 2556 2107 2659 
Q 1959 2763 1684 2763 
Q 1338 2763 1188 2666 
Q 1088 2597 1088 2488 
Q 1088 2394 1175 2328 
Q 1294 2241 1995 2081 
Q 2697 1922 2975 1691 
Q 3250 1456 3250 1038 
Q 3250 581 2869 253 
Q 2488 -75 1741 -75 
Q 1063 -75 667 200 
Q 272 475 150 947 
z
" transform="scale(0.015625)"/>
      <path id="Arial-BoldMT-66" d="M 75 3319 
L 563 3319 
L 563 3569 
Q 563 3988 652 4194 
Q 741 4400 980 4529 
Q 1219 4659 1584 4659 
Q 1959 4659 2319 4547 
L 2200 3934 
Q 1991 3984 1797 3984 
Q 1606 3984 1523 3895 
Q 1441 3806 1441 3553 
L 1441 3319 
L 2097 3319 
L 2097 2628 
L 1441 2628 
L 1441 0 
L 563 0 
L 563 2628 
L 75 2628 
L 75 3319 
z
" transform="scale(0.015625)"/>
      <path id="Arial-BoldMT-74" d="M 1981 3319 
L 1981 2619 
L 1381 2619 
L 1381 1281 
Q 1381 875 1398 808 
Q 1416 741 1477 697 
Q 1538 653 1625 653 
Q 1747 653 1978 738 
L 2053 56 
Q 1747 -75 1359 -75 
Q 1122 -75 931 4 
Q 741 84 652 211 
Q 563 338 528 553 
Q 500 706 500 1172 
L 500 2619 
L 97 2619 
L 97 3319 
L 500 3319 
L 500 3978 
L 1381 4491 
L 1381 3319 
L 1981 3319 
z
" transform="scale(0.015625)"/>
      <path id="Arial-BoldMT-6f" d="M 256 1706 
Q 256 2144 472 2553 
Q 688 2963 1083 3178 
Q 1478 3394 1966 3394 
Q 2719 3394 3200 2905 
Q 3681 2416 3681 1669 
Q 3681 916 3195 420 
Q 2709 -75 1972 -75 
Q 1516 -75 1102 131 
Q 688 338 472 736 
Q 256 1134 256 1706 
z
M 1156 1659 
Q 1156 1166 1390 903 
Q 1625 641 1969 641 
Q 2313 641 2545 903 
Q 2778 1166 2778 1666 
Q 2778 2153 2545 2415 
Q 2313 2678 1969 2678 
Q 1625 2678 1390 2415 
Q 1156 2153 1156 1659 
z
" transform="scale(0.015625)"/>
      <path id="Arial-BoldMT-6e" d="M 3478 0 
L 2600 0 
L 2600 1694 
Q 2600 2231 2544 2389 
Q 2488 2547 2361 2634 
Q 2234 2722 2056 2722 
Q 1828 2722 1647 2597 
Q 1466 2472 1398 2265 
Q 1331 2059 1331 1503 
L 1331 0 
L 453 0 
L 453 3319 
L 1269 3319 
L 1269 2831 
Q 1703 3394 2363 3394 
Q 2653 3394 2893 3289 
Q 3134 3184 3257 3021 
Q 3381 2859 3429 2653 
Q 3478 2447 3478 2063 
L 3478 0 
z
" transform="scale(0.015625)"/>
      <path id="Arial-BoldMT-20" transform="scale(0.015625)"/>
      <path id="Arial-BoldMT-65" d="M 2381 1056 
L 3256 909 
Q 3088 428 2723 176 
Q 2359 -75 1813 -75 
Q 947 -75 531 491 
Q 203 944 203 1634 
Q 203 2459 634 2926 
Q 1066 3394 1725 3394 
Q 2466 3394 2894 2905 
Q 3322 2416 3303 1406 
L 1103 1406 
Q 1113 1016 1316 798 
Q 1519 581 1822 581 
Q 2028 581 2168 693 
Q 2309 806 2381 1056 
z
M 2431 1944 
Q 2422 2325 2234 2523 
Q 2047 2722 1778 2722 
Q 1491 2722 1303 2513 
Q 1116 2303 1119 1944 
L 2431 1944 
z
" transform="scale(0.015625)"/>
      <path id="Arial-BoldMT-62" d="M 422 0 
L 422 4581 
L 1300 4581 
L 1300 2931 
Q 1706 3394 2263 3394 
Q 2869 3394 3266 2955 
Q 3663 2516 3663 1694 
Q 3663 844 3258 384 
Q 2853 -75 2275 -75 
Q 1991 -75 1714 67 
Q 1438 209 1238 488 
L 1238 0 
L 422 0 
z
M 1294 1731 
Q 1294 1216 1456 969 
Q 1684 619 2063 619 
Q 2353 619 2558 867 
Q 2763 1116 2763 1650 
Q 2763 2219 2556 2470 
Q 2350 2722 2028 2722 
Q 1713 2722 1503 2476 
Q 1294 2231 1294 1731 
z
" transform="scale(0.015625)"/>
      <path id="Arial-BoldMT-64" d="M 3503 0 
L 2688 0 
L 2688 488 
Q 2484 203 2207 64 
Q 1931 -75 1650 -75 
Q 1078 -75 670 386 
Q 263 847 263 1672 
Q 263 2516 659 2955 
Q 1056 3394 1663 3394 
Q 2219 3394 2625 2931 
L 2625 4581 
L 3503 4581 
L 3503 0 
z
M 1159 1731 
Q 1159 1200 1306 963 
Q 1519 619 1900 619 
Q 2203 619 2415 876 
Q 2628 1134 2628 1647 
Q 2628 2219 2422 2470 
Q 2216 2722 1894 2722 
Q 1581 2722 1370 2473 
Q 1159 2225 1159 1731 
z
" transform="scale(0.015625)"/>
      <path id="Arial-BoldMT-72" d="M 1300 0 
L 422 0 
L 422 3319 
L 1238 3319 
L 1238 2847 
Q 1447 3181 1614 3287 
Q 1781 3394 1994 3394 
Q 2294 3394 2572 3228 
L 2300 2463 
Q 2078 2606 1888 2606 
Q 1703 2606 1575 2504 
Q 1447 2403 1373 2137 
Q 1300 1872 1300 1025 
L 1300 0 
z
" transform="scale(0.015625)"/>
      <path id="Arial-BoldMT-28" d="M 1916 -1347 
L 1313 -1347 
Q 834 -625 584 153 
Q 334 931 334 1659 
Q 334 2563 644 3369 
Q 913 4069 1325 4659 
L 1925 4659 
Q 1497 3713 1336 3048 
Q 1175 2384 1175 1641 
Q 1175 1128 1270 590 
Q 1366 53 1531 -431 
Q 1641 -750 1916 -1347 
z
" transform="scale(0.015625)"/>
      <path id="Arial-BoldMT-41" d="M 4597 0 
L 3591 0 
L 3191 1041 
L 1359 1041 
L 981 0 
L 0 0 
L 1784 4581 
L 2763 4581 
L 4597 0 
z
M 2894 1813 
L 2263 3513 
L 1644 1813 
L 2894 1813 
z
" transform="scale(0.015625)"/>
      <path id="Arial-BoldMT-75" d="M 2644 0 
L 2644 497 
Q 2463 231 2167 78 
Q 1872 -75 1544 -75 
Q 1209 -75 943 72 
Q 678 219 559 484 
Q 441 750 441 1219 
L 441 3319 
L 1319 3319 
L 1319 1794 
Q 1319 1094 1367 936 
Q 1416 778 1544 686 
Q 1672 594 1869 594 
Q 2094 594 2272 717 
Q 2450 841 2515 1023 
Q 2581 1206 2581 1919 
L 2581 3319 
L 3459 3319 
L 3459 0 
L 2644 0 
z
" transform="scale(0.015625)"/>
      <path id="Arial-BoldMT-79" d="M 44 3319 
L 978 3319 
L 1772 963 
L 2547 3319 
L 3456 3319 
L 2284 125 
L 2075 -453 
Q 1959 -744 1854 -897 
Q 1750 -1050 1614 -1145 
Q 1478 -1241 1279 -1294 
Q 1081 -1347 831 -1347 
Q 578 -1347 334 -1294 
L 256 -606 
Q 463 -647 628 -647 
Q 934 -647 1081 -467 
Q 1228 -288 1306 -9 
L 44 3319 
z
" transform="scale(0.015625)"/>
      <path id="Arial-BoldMT-5f" d="M -59 -1266 
L -59 -697 
L 3591 -697 
L 3591 -1266 
L -59 -1266 
z
" transform="scale(0.015625)"/>
      <path id="Arial-BoldMT-44" d="M 463 4581 
L 2153 4581 
Q 2725 4581 3025 4494 
Q 3428 4375 3715 4072 
Q 4003 3769 4153 3330 
Q 4303 2891 4303 2247 
Q 4303 1681 4163 1272 
Q 3991 772 3672 463 
Q 3431 228 3022 97 
Q 2716 0 2203 0 
L 463 0 
L 463 4581 
z
M 1388 3806 
L 1388 772 
L 2078 772 
Q 2466 772 2638 816 
Q 2863 872 3011 1006 
Q 3159 1141 3253 1448 
Q 3347 1756 3347 2288 
Q 3347 2819 3253 3103 
Q 3159 3388 2990 3547 
Q 2822 3706 2563 3763 
Q 2369 3806 1803 3806 
L 1388 3806 
z
" transform="scale(0.015625)"/>
      <path id="Arial-BoldMT-29" d="M 216 -1347 
Q 475 -791 581 -494 
Q 688 -197 778 190 
Q 869 578 912 926 
Q 956 1275 956 1641 
Q 956 2384 797 3048 
Q 638 3713 209 4659 
L 806 4659 
Q 1278 3988 1539 3234 
Q 1800 2481 1800 1706 
Q 1800 1053 1594 306 
Q 1359 -531 822 -1347 
L 216 -1347 
z
" transform="scale(0.015625)"/>
     </defs>
     <use xlink:href="#Arial-BoldMT-69"/>
     <use xlink:href="#Arial-BoldMT-6d" transform="translate(27.783203 0)"/>
     <use xlink:href="#Arial-BoldMT-67" transform="translate(116.699219 0)"/>
     <use xlink:href="#Arial-BoldMT-2d" transform="translate(177.783203 0)"/>
     <use xlink:href="#Arial-BoldMT-63" transform="translate(211.083984 0)"/>
     <use xlink:href="#Arial-BoldMT-6c" transform="translate(266.699219 0)"/>
     <use xlink:href="#Arial-BoldMT-61" transform="translate(294.482422 0)"/>
     <use xlink:href="#Arial-BoldMT-73" transform="translate(350.097656 0)"/>
     <use xlink:href="#Arial-BoldMT-73" transform="translate(405.712891 0)"/>
     <use xlink:href="#Arial-BoldMT-69" transform="translate(461.328125 0)"/>
     <use xlink:href="#Arial-BoldMT-66" transform="translate(489.111328 0)"/>
     <use xlink:href="#Arial-BoldMT-69" transform="translate(522.412109 0)"/>
     <use xlink:href="#Arial-BoldMT-63" transform="translate(550.195312 0)"/>
     <use xlink:href="#Arial-BoldMT-61" transform="translate(605.810547 0)"/>
     <use xlink:href="#Arial-BoldMT-74" transform="translate(661.425781 0)"/>
     <use xlink:href="#Arial-BoldMT-69" transform="translate(694.726562 0)"/>
     <use xlink:href="#Arial-BoldMT-6f" transform="translate(722.509766 0)"/>
     <use xlink:href="#Arial-BoldMT-6e" transform="translate(783.59375 0)"/>
     <use xlink:href="#Arial-BoldMT-20" transform="translate(844.677734 0)"/>
     <use xlink:href="#Arial-BoldMT-2d" transform="translate(872.460938 0)"/>
     <use xlink:href="#Arial-BoldMT-20" transform="translate(905.761719 0)"/>
     <use xlink:href="#Arial-BoldMT-63" transform="translate(933.544922 0)"/>
     <use xlink:href="#Arial-BoldMT-65" transform="translate(989.160156 0)"/>
     <use xlink:href="#Arial-BoldMT-6c" transform="translate(1044.775391 0)"/>
     <use xlink:href="#Arial-BoldMT-65" transform="translate(1072.558594 0)"/>
     <use xlink:href="#Arial-BoldMT-62" transform="translate(1128.173828 0)"/>
     <use xlink:href="#Arial-BoldMT-61" transform="translate(1189.257812 0)"/>
     <use xlink:href="#Arial-BoldMT-2d" transform="translate(1244.873047 0)"/>
     <use xlink:href="#Arial-BoldMT-67" transform="translate(1278.173828 0)"/>
     <use xlink:href="#Arial-BoldMT-65" transform="translate(1339.257812 0)"/>
     <use xlink:href="#Arial-BoldMT-6e" transform="translate(1394.873047 0)"/>
     <use xlink:href="#Arial-BoldMT-64" transform="translate(1455.957031 0)"/>
     <use xlink:href="#Arial-BoldMT-65" transform="translate(1517.041016 0)"/>
     <use xlink:href="#Arial-BoldMT-72" transform="translate(1572.65625 0)"/>
     <use xlink:href="#Arial-BoldMT-20" transform="translate(1611.572266 0)"/>
     <use xlink:href="#Arial-BoldMT-28" transform="translate(1639.355469 0)"/>
     <use xlink:href="#Arial-BoldMT-41" transform="translate(1672.65625 0)"/>
     <use xlink:href="#Arial-BoldMT-63" transform="translate(1744.873047 0)"/>
     <use xlink:href="#Arial-BoldMT-63" transform="translate(1800.488281 0)"/>
     <use xlink:href="#Arial-BoldMT-75" transform="translate(1856.103516 0)"/>
     <use xlink:href="#Arial-BoldMT-72" transform="translate(1917.1875 0)"/>
     <use xlink:href="#Arial-BoldMT-61" transform="translate(1956.103516 0)"/>
     <use xlink:href="#Arial-BoldMT-63" transform="translate(2011.71875 0)"/>
     <use xlink:href="#Arial-BoldMT-79" transform="translate(2067.333984 0)"/>
     <use xlink:href="#Arial-BoldMT-5f" transform="translate(2122.949219 0)"/>
     <use xlink:href="#Arial-BoldMT-6d" transform="translate(2178.564453 0)"/>
     <use xlink:href="#Arial-BoldMT-65" transform="translate(2267.480469 0)"/>
     <use xlink:href="#Arial-BoldMT-61" transform="translate(2323.095703 0)"/>
     <use xlink:href="#Arial-BoldMT-6e" transform="translate(2378.710938 0)"/>
     <use xlink:href="#Arial-BoldMT-20" transform="translate(2439.794922 0)"/>
     <use xlink:href="#Arial-BoldMT-44" transform="translate(2467.578125 0)"/>
     <use xlink:href="#Arial-BoldMT-69" transform="translate(2539.794922 0)"/>
     <use xlink:href="#Arial-BoldMT-73" transform="translate(2567.578125 0)"/>
     <use xlink:href="#Arial-BoldMT-74" transform="translate(2623.193359 0)"/>
     <use xlink:href="#Arial-BoldMT-72" transform="translate(2656.494141 0)"/>
     <use xlink:href="#Arial-BoldMT-69" transform="translate(2695.410156 0)"/>
     <use xlink:href="#Arial-BoldMT-62" transform="translate(2723.193359 0)"/>
     <use xlink:href="#Arial-BoldMT-75" transform="translate(2784.277344 0)"/>
     <use xlink:href="#Arial-BoldMT-74" transform="translate(2845.361328 0)"/>
     <use xlink:href="#Arial-BoldMT-69" transform="translate(2878.662109 0)"/>
     <use xlink:href="#Arial-BoldMT-6f" transform="translate(2906.445312 0)"/>
     <use xlink:href="#Arial-BoldMT-6e" transform="translate(2967.529297 0)"/>
     <use xlink:href="#Arial-BoldMT-29" transform="translate(3028.613281 0)"/>
    </g>
   </g>
  </g>
 </g>
 <defs>
  <clipPath id="pd792c79a84">
   <rect x="61.12125" y="30.58125" width="927.79875" height="495.91875"/>
  </clipPath>
 </defs>
</svg>
