<?xml version="1.0" encoding="utf-8" standalone="no"?>
<!DOCTYPE svg PUBLIC "-//W3C//DTD SVG 1.1//EN"
  "http://www.w3.org/Graphics/SVG/1.1/DTD/svg11.dtd">
<svg xmlns:xlink="http://www.w3.org/1999/xlink" width="1008pt" height="576pt" viewBox="0 0 1008 576" xmlns="http://www.w3.org/2000/svg" version="1.1">
 <metadata>
  <rdf:RDF xmlns:dc="http://purl.org/dc/elements/1.1/" xmlns:cc="http://creativecommons.org/ns#" xmlns:rdf="http://www.w3.org/1999/02/22-rdf-syntax-ns#">
   <cc:Work>
    <dc:type rdf:resource="http://purl.org/dc/dcmitype/StillImage"/>
    <dc:date>2025-04-13T10:41:41.973747</dc:date>
    <dc:format>image/svg+xml</dc:format>
    <dc:creator>
     <cc:Agent>
      <dc:title>Matplotlib v3.10.1, https://matplotlib.org/</dc:title>
     </cc:Agent>
    </dc:creator>
   </cc:Work>
  </rdf:RDF>
 </metadata>
 <defs>
  <style type="text/css">*{stroke-linejoin: round; stroke-linecap: butt}</style>
 </defs>
 <g id="figure_1">
  <g id="patch_1">
   <path d="M 0 576 
L 1008 576 
L 1008 0 
L 0 0 
z
" style="fill: #ffffff"/>
  </g>
  <g id="axes_1">
   <g id="patch_2">
    <path d="M 55.00125 526.5 
L 988.92 526.5 
L 988.92 30.58125 
L 55.00125 30.58125 
z
" style="fill: #ffffff"/>
   </g>
   <g id="matplotlib.axis_1">
    <g id="xtick_1">
     <g id="line2d_1">
      <path d="M 64.24797 526.5 
L 64.24797 30.58125 
" clip-path="url(#p6208bf1a56)" style="fill: none; stroke-dasharray: 3.7,1.6; stroke-dashoffset: 0; stroke: #cccccc; stroke-opacity: 0.5"/>
     </g>
     <g id="text_1">
      <!-- 0 -->
      <g style="fill: #262626" transform="translate(61.189455 543.873594) scale(0.11 -0.11)">
       <defs>
        <path id="ArialMT-30" d="M 266 2259 
Q 266 3072 433 3567 
Q 600 4063 929 4331 
Q 1259 4600 1759 4600 
Q 2128 4600 2406 4451 
Q 2684 4303 2865 4023 
Q 3047 3744 3150 3342 
Q 3253 2941 3253 2259 
Q 3253 1453 3087 958 
Q 2922 463 2592 192 
Q 2263 -78 1759 -78 
Q 1097 -78 719 397 
Q 266 969 266 2259 
z
M 844 2259 
Q 844 1131 1108 757 
Q 1372 384 1759 384 
Q 2147 384 2411 759 
Q 2675 1134 2675 2259 
Q 2675 3391 2411 3762 
Q 2147 4134 1753 4134 
Q 1366 4134 1134 3806 
Q 844 3388 844 2259 
z
" transform="scale(0.015625)"/>
       </defs>
       <use xlink:href="#ArialMT-30"/>
      </g>
     </g>
    </g>
    <g id="xtick_2">
     <g id="line2d_2">
      <path d="M 249.182376 526.5 
L 249.182376 30.58125 
" clip-path="url(#p6208bf1a56)" style="fill: none; stroke-dasharray: 3.7,1.6; stroke-dashoffset: 0; stroke: #cccccc; stroke-opacity: 0.5"/>
     </g>
     <g id="text_2">
      <!-- 10 -->
      <g style="fill: #262626" transform="translate(243.065345 543.873594) scale(0.11 -0.11)">
       <defs>
        <path id="ArialMT-31" d="M 2384 0 
L 1822 0 
L 1822 3584 
Q 1619 3391 1289 3197 
Q 959 3003 697 2906 
L 697 3450 
Q 1169 3672 1522 3987 
Q 1875 4303 2022 4600 
L 2384 4600 
L 2384 0 
z
" transform="scale(0.015625)"/>
       </defs>
       <use xlink:href="#ArialMT-31"/>
       <use xlink:href="#ArialMT-30" transform="translate(55.615234 0)"/>
      </g>
     </g>
    </g>
    <g id="xtick_3">
     <g id="line2d_3">
      <path d="M 434.116782 526.5 
L 434.116782 30.58125 
" clip-path="url(#p6208bf1a56)" style="fill: none; stroke-dasharray: 3.7,1.6; stroke-dashoffset: 0; stroke: #cccccc; stroke-opacity: 0.5"/>
     </g>
     <g id="text_3">
      <!-- 20 -->
      <g style="fill: #262626" transform="translate(427.999751 543.873594) scale(0.11 -0.11)">
       <defs>
        <path id="ArialMT-32" d="M 3222 541 
L 3222 0 
L 194 0 
Q 188 203 259 391 
Q 375 700 629 1000 
Q 884 1300 1366 1694 
Q 2113 2306 2375 2664 
Q 2638 3022 2638 3341 
Q 2638 3675 2398 3904 
Q 2159 4134 1775 4134 
Q 1369 4134 1125 3890 
Q 881 3647 878 3216 
L 300 3275 
Q 359 3922 746 4261 
Q 1134 4600 1788 4600 
Q 2447 4600 2831 4234 
Q 3216 3869 3216 3328 
Q 3216 3053 3103 2787 
Q 2991 2522 2730 2228 
Q 2469 1934 1863 1422 
Q 1356 997 1212 845 
Q 1069 694 975 541 
L 3222 541 
z
" transform="scale(0.015625)"/>
       </defs>
       <use xlink:href="#ArialMT-32"/>
       <use xlink:href="#ArialMT-30" transform="translate(55.615234 0)"/>
      </g>
     </g>
    </g>
    <g id="xtick_4">
     <g id="line2d_4">
      <path d="M 619.051188 526.5 
L 619.051188 30.58125 
" clip-path="url(#p6208bf1a56)" style="fill: none; stroke-dasharray: 3.7,1.6; stroke-dashoffset: 0; stroke: #cccccc; stroke-opacity: 0.5"/>
     </g>
     <g id="text_4">
      <!-- 30 -->
      <g style="fill: #262626" transform="translate(612.934157 543.873594) scale(0.11 -0.11)">
       <defs>
        <path id="ArialMT-33" d="M 269 1209 
L 831 1284 
Q 928 806 1161 595 
Q 1394 384 1728 384 
Q 2125 384 2398 659 
Q 2672 934 2672 1341 
Q 2672 1728 2419 1979 
Q 2166 2231 1775 2231 
Q 1616 2231 1378 2169 
L 1441 2663 
Q 1497 2656 1531 2656 
Q 1891 2656 2178 2843 
Q 2466 3031 2466 3422 
Q 2466 3731 2256 3934 
Q 2047 4138 1716 4138 
Q 1388 4138 1169 3931 
Q 950 3725 888 3313 
L 325 3413 
Q 428 3978 793 4289 
Q 1159 4600 1703 4600 
Q 2078 4600 2393 4439 
Q 2709 4278 2876 4000 
Q 3044 3722 3044 3409 
Q 3044 3113 2884 2869 
Q 2725 2625 2413 2481 
Q 2819 2388 3044 2092 
Q 3269 1797 3269 1353 
Q 3269 753 2831 336 
Q 2394 -81 1725 -81 
Q 1122 -81 723 278 
Q 325 638 269 1209 
z
" transform="scale(0.015625)"/>
       </defs>
       <use xlink:href="#ArialMT-33"/>
       <use xlink:href="#ArialMT-30" transform="translate(55.615234 0)"/>
      </g>
     </g>
    </g>
    <g id="xtick_5">
     <g id="line2d_5">
      <path d="M 803.985594 526.5 
L 803.985594 30.58125 
" clip-path="url(#p6208bf1a56)" style="fill: none; stroke-dasharray: 3.7,1.6; stroke-dashoffset: 0; stroke: #cccccc; stroke-opacity: 0.5"/>
     </g>
     <g id="text_5">
      <!-- 40 -->
      <g style="fill: #262626" transform="translate(797.868563 543.873594) scale(0.11 -0.11)">
       <defs>
        <path id="ArialMT-34" d="M 2069 0 
L 2069 1097 
L 81 1097 
L 81 1613 
L 2172 4581 
L 2631 4581 
L 2631 1613 
L 3250 1613 
L 3250 1097 
L 2631 1097 
L 2631 0 
L 2069 0 
z
M 2069 1613 
L 2069 3678 
L 634 1613 
L 2069 1613 
z
" transform="scale(0.015625)"/>
       </defs>
       <use xlink:href="#ArialMT-34"/>
       <use xlink:href="#ArialMT-30" transform="translate(55.615234 0)"/>
      </g>
     </g>
    </g>
    <g id="xtick_6">
     <g id="line2d_6">
      <path d="M 988.92 526.5 
L 988.92 30.58125 
" clip-path="url(#p6208bf1a56)" style="fill: none; stroke-dasharray: 3.7,1.6; stroke-dashoffset: 0; stroke: #cccccc; stroke-opacity: 0.5"/>
     </g>
     <g id="text_6">
      <!-- 50 -->
      <g style="fill: #262626" transform="translate(982.802969 543.873594) scale(0.11 -0.11)">
       <defs>
        <path id="ArialMT-35" d="M 266 1200 
L 856 1250 
Q 922 819 1161 601 
Q 1400 384 1738 384 
Q 2144 384 2425 690 
Q 2706 997 2706 1503 
Q 2706 1984 2436 2262 
Q 2166 2541 1728 2541 
Q 1456 2541 1237 2417 
Q 1019 2294 894 2097 
L 366 2166 
L 809 4519 
L 3088 4519 
L 3088 3981 
L 1259 3981 
L 1013 2750 
Q 1425 3038 1878 3038 
Q 2478 3038 2890 2622 
Q 3303 2206 3303 1553 
Q 3303 931 2941 478 
Q 2500 -78 1738 -78 
Q 1113 -78 717 272 
Q 322 622 266 1200 
z
" transform="scale(0.015625)"/>
       </defs>
       <use xlink:href="#ArialMT-35"/>
       <use xlink:href="#ArialMT-30" transform="translate(55.615234 0)"/>
      </g>
     </g>
    </g>
    <g id="text_7">
     <!-- Epoch -->
     <g style="fill: #262626" transform="translate(502.113438 560.080781) scale(0.14 -0.14)">
      <defs>
       <path id="ArialMT-45" d="M 506 0 
L 506 4581 
L 3819 4581 
L 3819 4041 
L 1113 4041 
L 1113 2638 
L 3647 2638 
L 3647 2100 
L 1113 2100 
L 1113 541 
L 3925 541 
L 3925 0 
L 506 0 
z
" transform="scale(0.015625)"/>
       <path id="ArialMT-70" d="M 422 -1272 
L 422 3319 
L 934 3319 
L 934 2888 
Q 1116 3141 1344 3267 
Q 1572 3394 1897 3394 
Q 2322 3394 2647 3175 
Q 2972 2956 3137 2557 
Q 3303 2159 3303 1684 
Q 3303 1175 3120 767 
Q 2938 359 2589 142 
Q 2241 -75 1856 -75 
Q 1575 -75 1351 44 
Q 1128 163 984 344 
L 984 -1272 
L 422 -1272 
z
M 931 1641 
Q 931 1000 1190 694 
Q 1450 388 1819 388 
Q 2194 388 2461 705 
Q 2728 1022 2728 1688 
Q 2728 2322 2467 2637 
Q 2206 2953 1844 2953 
Q 1484 2953 1207 2617 
Q 931 2281 931 1641 
z
" transform="scale(0.015625)"/>
       <path id="ArialMT-6f" d="M 213 1659 
Q 213 2581 725 3025 
Q 1153 3394 1769 3394 
Q 2453 3394 2887 2945 
Q 3322 2497 3322 1706 
Q 3322 1066 3130 698 
Q 2938 331 2570 128 
Q 2203 -75 1769 -75 
Q 1072 -75 642 372 
Q 213 819 213 1659 
z
M 791 1659 
Q 791 1022 1069 705 
Q 1347 388 1769 388 
Q 2188 388 2466 706 
Q 2744 1025 2744 1678 
Q 2744 2294 2464 2611 
Q 2184 2928 1769 2928 
Q 1347 2928 1069 2612 
Q 791 2297 791 1659 
z
" transform="scale(0.015625)"/>
       <path id="ArialMT-63" d="M 2588 1216 
L 3141 1144 
Q 3050 572 2676 248 
Q 2303 -75 1759 -75 
Q 1078 -75 664 370 
Q 250 816 250 1647 
Q 250 2184 428 2587 
Q 606 2991 970 3192 
Q 1334 3394 1763 3394 
Q 2303 3394 2647 3120 
Q 2991 2847 3088 2344 
L 2541 2259 
Q 2463 2594 2264 2762 
Q 2066 2931 1784 2931 
Q 1359 2931 1093 2626 
Q 828 2322 828 1663 
Q 828 994 1084 691 
Q 1341 388 1753 388 
Q 2084 388 2306 591 
Q 2528 794 2588 1216 
z
" transform="scale(0.015625)"/>
       <path id="ArialMT-68" d="M 422 0 
L 422 4581 
L 984 4581 
L 984 2938 
Q 1378 3394 1978 3394 
Q 2347 3394 2619 3248 
Q 2891 3103 3008 2847 
Q 3125 2591 3125 2103 
L 3125 0 
L 2563 0 
L 2563 2103 
Q 2563 2525 2380 2717 
Q 2197 2909 1863 2909 
Q 1613 2909 1392 2779 
Q 1172 2650 1078 2428 
Q 984 2206 984 1816 
L 984 0 
L 422 0 
z
" transform="scale(0.015625)"/>
      </defs>
      <use xlink:href="#ArialMT-45"/>
      <use xlink:href="#ArialMT-70" transform="translate(66.699219 0)"/>
      <use xlink:href="#ArialMT-6f" transform="translate(122.314453 0)"/>
      <use xlink:href="#ArialMT-63" transform="translate(177.929688 0)"/>
      <use xlink:href="#ArialMT-68" transform="translate(227.929688 0)"/>
     </g>
    </g>
   </g>
   <g id="matplotlib.axis_2">
    <g id="ytick_1">
     <g id="line2d_7">
      <path d="M 55.00125 465.899152 
L 988.92 465.899152 
" clip-path="url(#p6208bf1a56)" style="fill: none; stroke-dasharray: 3.7,1.6; stroke-dashoffset: 0; stroke: #cccccc; stroke-opacity: 0.5"/>
     </g>
     <g id="text_8">
      <!-- 0.2 -->
      <g style="fill: #262626" transform="translate(30.21125 469.835949) scale(0.11 -0.11)">
       <defs>
        <path id="ArialMT-2e" d="M 581 0 
L 581 641 
L 1222 641 
L 1222 0 
L 581 0 
z
" transform="scale(0.015625)"/>
       </defs>
       <use xlink:href="#ArialMT-30"/>
       <use xlink:href="#ArialMT-2e" transform="translate(55.615234 0)"/>
       <use xlink:href="#ArialMT-32" transform="translate(83.398438 0)"/>
      </g>
     </g>
    </g>
    <g id="ytick_2">
     <g id="line2d_8">
      <path d="M 55.00125 401.528604 
L 988.92 401.528604 
" clip-path="url(#p6208bf1a56)" style="fill: none; stroke-dasharray: 3.7,1.6; stroke-dashoffset: 0; stroke: #cccccc; stroke-opacity: 0.5"/>
     </g>
     <g id="text_9">
      <!-- 0.3 -->
      <g style="fill: #262626" transform="translate(30.21125 405.465401) scale(0.11 -0.11)">
       <use xlink:href="#ArialMT-30"/>
       <use xlink:href="#ArialMT-2e" transform="translate(55.615234 0)"/>
       <use xlink:href="#ArialMT-33" transform="translate(83.398438 0)"/>
      </g>
     </g>
    </g>
    <g id="ytick_3">
     <g id="line2d_9">
      <path d="M 55.00125 337.158055 
L 988.92 337.158055 
" clip-path="url(#p6208bf1a56)" style="fill: none; stroke-dasharray: 3.7,1.6; stroke-dashoffset: 0; stroke: #cccccc; stroke-opacity: 0.5"/>
     </g>
     <g id="text_10">
      <!-- 0.4 -->
      <g style="fill: #262626" transform="translate(30.21125 341.094852) scale(0.11 -0.11)">
       <use xlink:href="#ArialMT-30"/>
       <use xlink:href="#ArialMT-2e" transform="translate(55.615234 0)"/>
       <use xlink:href="#ArialMT-34" transform="translate(83.398438 0)"/>
      </g>
     </g>
    </g>
    <g id="ytick_4">
     <g id="line2d_10">
      <path d="M 55.00125 272.787507 
L 988.92 272.787507 
" clip-path="url(#p6208bf1a56)" style="fill: none; stroke-dasharray: 3.7,1.6; stroke-dashoffset: 0; stroke: #cccccc; stroke-opacity: 0.5"/>
     </g>
     <g id="text_11">
      <!-- 0.5 -->
      <g style="fill: #262626" transform="translate(30.21125 276.724304) scale(0.11 -0.11)">
       <use xlink:href="#ArialMT-30"/>
       <use xlink:href="#ArialMT-2e" transform="translate(55.615234 0)"/>
       <use xlink:href="#ArialMT-35" transform="translate(83.398438 0)"/>
      </g>
     </g>
    </g>
    <g id="ytick_5">
     <g id="line2d_11">
      <path d="M 55.00125 208.416959 
L 988.92 208.416959 
" clip-path="url(#p6208bf1a56)" style="fill: none; stroke-dasharray: 3.7,1.6; stroke-dashoffset: 0; stroke: #cccccc; stroke-opacity: 0.5"/>
     </g>
     <g id="text_12">
      <!-- 0.6 -->
      <g style="fill: #262626" transform="translate(30.21125 212.353756) scale(0.11 -0.11)">
       <defs>
        <path id="ArialMT-36" d="M 3184 3459 
L 2625 3416 
Q 2550 3747 2413 3897 
Q 2184 4138 1850 4138 
Q 1581 4138 1378 3988 
Q 1113 3794 959 3422 
Q 806 3050 800 2363 
Q 1003 2672 1297 2822 
Q 1591 2972 1913 2972 
Q 2475 2972 2870 2558 
Q 3266 2144 3266 1488 
Q 3266 1056 3080 686 
Q 2894 316 2569 119 
Q 2244 -78 1831 -78 
Q 1128 -78 684 439 
Q 241 956 241 2144 
Q 241 3472 731 4075 
Q 1159 4600 1884 4600 
Q 2425 4600 2770 4297 
Q 3116 3994 3184 3459 
z
M 888 1484 
Q 888 1194 1011 928 
Q 1134 663 1356 523 
Q 1578 384 1822 384 
Q 2178 384 2434 671 
Q 2691 959 2691 1453 
Q 2691 1928 2437 2201 
Q 2184 2475 1800 2475 
Q 1419 2475 1153 2201 
Q 888 1928 888 1484 
z
" transform="scale(0.015625)"/>
       </defs>
       <use xlink:href="#ArialMT-30"/>
       <use xlink:href="#ArialMT-2e" transform="translate(55.615234 0)"/>
       <use xlink:href="#ArialMT-36" transform="translate(83.398438 0)"/>
      </g>
     </g>
    </g>
    <g id="ytick_6">
     <g id="line2d_12">
      <path d="M 55.00125 144.046411 
L 988.92 144.046411 
" clip-path="url(#p6208bf1a56)" style="fill: none; stroke-dasharray: 3.7,1.6; stroke-dashoffset: 0; stroke: #cccccc; stroke-opacity: 0.5"/>
     </g>
     <g id="text_13">
      <!-- 0.7 -->
      <g style="fill: #262626" transform="translate(30.21125 147.983208) scale(0.11 -0.11)">
       <defs>
        <path id="ArialMT-37" d="M 303 3981 
L 303 4522 
L 3269 4522 
L 3269 4084 
Q 2831 3619 2401 2847 
Q 1972 2075 1738 1259 
Q 1569 684 1522 0 
L 944 0 
Q 953 541 1156 1306 
Q 1359 2072 1739 2783 
Q 2119 3494 2547 3981 
L 303 3981 
z
" transform="scale(0.015625)"/>
       </defs>
       <use xlink:href="#ArialMT-30"/>
       <use xlink:href="#ArialMT-2e" transform="translate(55.615234 0)"/>
       <use xlink:href="#ArialMT-37" transform="translate(83.398438 0)"/>
      </g>
     </g>
    </g>
    <g id="ytick_7">
     <g id="line2d_13">
      <path d="M 55.00125 79.675863 
L 988.92 79.675863 
" clip-path="url(#p6208bf1a56)" style="fill: none; stroke-dasharray: 3.7,1.6; stroke-dashoffset: 0; stroke: #cccccc; stroke-opacity: 0.5"/>
     </g>
     <g id="text_14">
      <!-- 0.8 -->
      <g style="fill: #262626" transform="translate(30.21125 83.612659) scale(0.11 -0.11)">
       <defs>
        <path id="ArialMT-38" d="M 1131 2484 
Q 781 2613 612 2850 
Q 444 3088 444 3419 
Q 444 3919 803 4259 
Q 1163 4600 1759 4600 
Q 2359 4600 2725 4251 
Q 3091 3903 3091 3403 
Q 3091 3084 2923 2848 
Q 2756 2613 2416 2484 
Q 2838 2347 3058 2040 
Q 3278 1734 3278 1309 
Q 3278 722 2862 322 
Q 2447 -78 1769 -78 
Q 1091 -78 675 323 
Q 259 725 259 1325 
Q 259 1772 486 2073 
Q 713 2375 1131 2484 
z
M 1019 3438 
Q 1019 3113 1228 2906 
Q 1438 2700 1772 2700 
Q 2097 2700 2305 2904 
Q 2513 3109 2513 3406 
Q 2513 3716 2298 3927 
Q 2084 4138 1766 4138 
Q 1444 4138 1231 3931 
Q 1019 3725 1019 3438 
z
M 838 1322 
Q 838 1081 952 856 
Q 1066 631 1291 507 
Q 1516 384 1775 384 
Q 2178 384 2440 643 
Q 2703 903 2703 1303 
Q 2703 1709 2433 1975 
Q 2163 2241 1756 2241 
Q 1359 2241 1098 1978 
Q 838 1716 838 1322 
z
" transform="scale(0.015625)"/>
       </defs>
       <use xlink:href="#ArialMT-30"/>
       <use xlink:href="#ArialMT-2e" transform="translate(55.615234 0)"/>
       <use xlink:href="#ArialMT-38" transform="translate(83.398438 0)"/>
      </g>
     </g>
    </g>
    <g id="text_15">
     <!-- Accuracy_mean -->
     <g style="fill: #262626" transform="translate(23.264688 328.727344) rotate(-90) scale(0.14 -0.14)">
      <defs>
       <path id="ArialMT-41" d="M -9 0 
L 1750 4581 
L 2403 4581 
L 4278 0 
L 3588 0 
L 3053 1388 
L 1138 1388 
L 634 0 
L -9 0 
z
M 1313 1881 
L 2866 1881 
L 2388 3150 
Q 2169 3728 2063 4100 
Q 1975 3659 1816 3225 
L 1313 1881 
z
" transform="scale(0.015625)"/>
       <path id="ArialMT-75" d="M 2597 0 
L 2597 488 
Q 2209 -75 1544 -75 
Q 1250 -75 995 37 
Q 741 150 617 320 
Q 494 491 444 738 
Q 409 903 409 1263 
L 409 3319 
L 972 3319 
L 972 1478 
Q 972 1038 1006 884 
Q 1059 663 1231 536 
Q 1403 409 1656 409 
Q 1909 409 2131 539 
Q 2353 669 2445 892 
Q 2538 1116 2538 1541 
L 2538 3319 
L 3100 3319 
L 3100 0 
L 2597 0 
z
" transform="scale(0.015625)"/>
       <path id="ArialMT-72" d="M 416 0 
L 416 3319 
L 922 3319 
L 922 2816 
Q 1116 3169 1280 3281 
Q 1444 3394 1641 3394 
Q 1925 3394 2219 3213 
L 2025 2691 
Q 1819 2813 1613 2813 
Q 1428 2813 1281 2702 
Q 1134 2591 1072 2394 
Q 978 2094 978 1738 
L 978 0 
L 416 0 
z
" transform="scale(0.015625)"/>
       <path id="ArialMT-61" d="M 2588 409 
Q 2275 144 1986 34 
Q 1697 -75 1366 -75 
Q 819 -75 525 192 
Q 231 459 231 875 
Q 231 1119 342 1320 
Q 453 1522 633 1644 
Q 813 1766 1038 1828 
Q 1203 1872 1538 1913 
Q 2219 1994 2541 2106 
Q 2544 2222 2544 2253 
Q 2544 2597 2384 2738 
Q 2169 2928 1744 2928 
Q 1347 2928 1158 2789 
Q 969 2650 878 2297 
L 328 2372 
Q 403 2725 575 2942 
Q 747 3159 1072 3276 
Q 1397 3394 1825 3394 
Q 2250 3394 2515 3294 
Q 2781 3194 2906 3042 
Q 3031 2891 3081 2659 
Q 3109 2516 3109 2141 
L 3109 1391 
Q 3109 606 3145 398 
Q 3181 191 3288 0 
L 2700 0 
Q 2613 175 2588 409 
z
M 2541 1666 
Q 2234 1541 1622 1453 
Q 1275 1403 1131 1340 
Q 988 1278 909 1158 
Q 831 1038 831 891 
Q 831 666 1001 516 
Q 1172 366 1500 366 
Q 1825 366 2078 508 
Q 2331 650 2450 897 
Q 2541 1088 2541 1459 
L 2541 1666 
z
" transform="scale(0.015625)"/>
       <path id="ArialMT-79" d="M 397 -1278 
L 334 -750 
Q 519 -800 656 -800 
Q 844 -800 956 -737 
Q 1069 -675 1141 -563 
Q 1194 -478 1313 -144 
Q 1328 -97 1363 -6 
L 103 3319 
L 709 3319 
L 1400 1397 
Q 1534 1031 1641 628 
Q 1738 1016 1872 1384 
L 2581 3319 
L 3144 3319 
L 1881 -56 
Q 1678 -603 1566 -809 
Q 1416 -1088 1222 -1217 
Q 1028 -1347 759 -1347 
Q 597 -1347 397 -1278 
z
" transform="scale(0.015625)"/>
       <path id="ArialMT-5f" d="M -97 -1272 
L -97 -866 
L 3631 -866 
L 3631 -1272 
L -97 -1272 
z
" transform="scale(0.015625)"/>
       <path id="ArialMT-6d" d="M 422 0 
L 422 3319 
L 925 3319 
L 925 2853 
Q 1081 3097 1340 3245 
Q 1600 3394 1931 3394 
Q 2300 3394 2536 3241 
Q 2772 3088 2869 2813 
Q 3263 3394 3894 3394 
Q 4388 3394 4653 3120 
Q 4919 2847 4919 2278 
L 4919 0 
L 4359 0 
L 4359 2091 
Q 4359 2428 4304 2576 
Q 4250 2725 4106 2815 
Q 3963 2906 3769 2906 
Q 3419 2906 3187 2673 
Q 2956 2441 2956 1928 
L 2956 0 
L 2394 0 
L 2394 2156 
Q 2394 2531 2256 2718 
Q 2119 2906 1806 2906 
Q 1569 2906 1367 2781 
Q 1166 2656 1075 2415 
Q 984 2175 984 1722 
L 984 0 
L 422 0 
z
" transform="scale(0.015625)"/>
       <path id="ArialMT-65" d="M 2694 1069 
L 3275 997 
Q 3138 488 2766 206 
Q 2394 -75 1816 -75 
Q 1088 -75 661 373 
Q 234 822 234 1631 
Q 234 2469 665 2931 
Q 1097 3394 1784 3394 
Q 2450 3394 2872 2941 
Q 3294 2488 3294 1666 
Q 3294 1616 3291 1516 
L 816 1516 
Q 847 969 1125 678 
Q 1403 388 1819 388 
Q 2128 388 2347 550 
Q 2566 713 2694 1069 
z
M 847 1978 
L 2700 1978 
Q 2663 2397 2488 2606 
Q 2219 2931 1791 2931 
Q 1403 2931 1139 2672 
Q 875 2413 847 1978 
z
" transform="scale(0.015625)"/>
       <path id="ArialMT-6e" d="M 422 0 
L 422 3319 
L 928 3319 
L 928 2847 
Q 1294 3394 1984 3394 
Q 2284 3394 2536 3286 
Q 2788 3178 2913 3003 
Q 3038 2828 3088 2588 
Q 3119 2431 3119 2041 
L 3119 0 
L 2556 0 
L 2556 2019 
Q 2556 2363 2490 2533 
Q 2425 2703 2258 2804 
Q 2091 2906 1866 2906 
Q 1506 2906 1245 2678 
Q 984 2450 984 1813 
L 984 0 
L 422 0 
z
" transform="scale(0.015625)"/>
      </defs>
      <use xlink:href="#ArialMT-41"/>
      <use xlink:href="#ArialMT-63" transform="translate(66.699219 0)"/>
      <use xlink:href="#ArialMT-63" transform="translate(116.699219 0)"/>
      <use xlink:href="#ArialMT-75" transform="translate(166.699219 0)"/>
      <use xlink:href="#ArialMT-72" transform="translate(222.314453 0)"/>
      <use xlink:href="#ArialMT-61" transform="translate(255.615234 0)"/>
      <use xlink:href="#ArialMT-63" transform="translate(311.230469 0)"/>
      <use xlink:href="#ArialMT-79" transform="translate(361.230469 0)"/>
      <use xlink:href="#ArialMT-5f" transform="translate(411.230469 0)"/>
      <use xlink:href="#ArialMT-6d" transform="translate(466.845703 0)"/>
      <use xlink:href="#ArialMT-65" transform="translate(550.146484 0)"/>
      <use xlink:href="#ArialMT-61" transform="translate(605.761719 0)"/>
      <use xlink:href="#ArialMT-6e" transform="translate(661.376953 0)"/>
     </g>
    </g>
   </g>
   <g id="patch_3">
    <path d="M 57.775266 413.586308 
L 70.720675 413.586308 
L 70.720675 323.548816 
L 57.775266 323.548816 
L 57.775266 413.586308 
z
" clip-path="url(#p6208bf1a56)" style="fill: #72b6a1; stroke: #595959; stroke-linejoin: miter"/>
   </g>
   <g id="line2d_14">
    <path d="M 64.24797 413.586308 
L 64.24797 503.958239 
" clip-path="url(#p6208bf1a56)" style="fill: none; stroke: #595959"/>
   </g>
   <g id="line2d_15">
    <path d="M 64.24797 323.548816 
L 64.24797 251.69006 
" clip-path="url(#p6208bf1a56)" style="fill: none; stroke: #595959"/>
   </g>
   <g id="line2d_16">
    <path d="M 61.011618 503.958239 
L 67.484322 503.958239 
" clip-path="url(#p6208bf1a56)" style="fill: none; stroke: #595959; stroke-linecap: round"/>
   </g>
   <g id="line2d_17">
    <path d="M 61.011618 251.69006 
L 67.484322 251.69006 
" clip-path="url(#p6208bf1a56)" style="fill: none; stroke: #595959; stroke-linecap: round"/>
   </g>
   <g id="line2d_18"/>
   <g id="patch_4">
    <path d="M 76.268707 377.55305 
L 89.214115 377.55305 
L 89.214115 226.979741 
L 76.268707 226.979741 
L 76.268707 377.55305 
z
" clip-path="url(#p6208bf1a56)" style="fill: #72b6a1; stroke: #595959; stroke-linejoin: miter"/>
   </g>
   <g id="line2d_19">
    <path d="M 82.741411 377.55305 
L 82.741411 435.689249 
" clip-path="url(#p6208bf1a56)" style="fill: none; stroke: #595959"/>
   </g>
   <g id="line2d_20">
    <path d="M 82.741411 226.979741 
L 82.741411 135.098905 
" clip-path="url(#p6208bf1a56)" style="fill: none; stroke: #595959"/>
   </g>
   <g id="line2d_21">
    <path d="M 79.505059 435.689249 
L 85.977763 435.689249 
" clip-path="url(#p6208bf1a56)" style="fill: none; stroke: #595959; stroke-linecap: round"/>
   </g>
   <g id="line2d_22">
    <path d="M 79.505059 135.098905 
L 85.977763 135.098905 
" clip-path="url(#p6208bf1a56)" style="fill: none; stroke: #595959; stroke-linecap: round"/>
   </g>
   <g id="line2d_23"/>
   <g id="patch_5">
    <path d="M 94.762147 361.062936 
L 107.707556 361.062936 
L 107.707556 264.942883 
L 94.762147 264.942883 
L 94.762147 361.062936 
z
" clip-path="url(#p6208bf1a56)" style="fill: #72b6a1; stroke: #595959; stroke-linejoin: miter"/>
   </g>
   <g id="line2d_24">
    <path d="M 101.234851 361.062936 
L 101.234851 423.181247 
" clip-path="url(#p6208bf1a56)" style="fill: none; stroke: #595959"/>
   </g>
   <g id="line2d_25">
    <path d="M 101.234851 264.942883 
L 101.234851 158.698757 
" clip-path="url(#p6208bf1a56)" style="fill: none; stroke: #595959"/>
   </g>
   <g id="line2d_26">
    <path d="M 97.998499 423.181247 
L 104.471204 423.181247 
" clip-path="url(#p6208bf1a56)" style="fill: none; stroke: #595959; stroke-linecap: round"/>
   </g>
   <g id="line2d_27">
    <path d="M 97.998499 158.698757 
L 104.471204 158.698757 
" clip-path="url(#p6208bf1a56)" style="fill: none; stroke: #595959; stroke-linecap: round"/>
   </g>
   <g id="line2d_28">
    <defs>
     <path id="m0cb21d1e24" d="M 0 3 
C 0.795609 3 1.55874 2.683901 2.12132 2.12132 
C 2.683901 1.55874 3 0.795609 3 0 
C 3 -0.795609 2.683901 -1.55874 2.12132 -2.12132 
C 1.55874 -2.683901 0.795609 -3 0 -3 
C -0.795609 -3 -1.55874 -2.683901 -2.12132 -2.12132 
C -2.683901 -1.55874 -3 -0.795609 -3 0 
C -3 0.795609 -2.683901 1.55874 -2.12132 2.12132 
C -1.55874 2.683901 -0.795609 3 0 3 
z
" style="stroke: #595959"/>
    </defs>
    <g clip-path="url(#p6208bf1a56)">
     <use xlink:href="#m0cb21d1e24" x="101.234851" y="98.600804" style="fill-opacity: 0; stroke: #595959"/>
    </g>
   </g>
   <g id="patch_6">
    <path d="M 113.255588 351.903863 
L 126.200996 351.903863 
L 126.200996 245.247641 
L 113.255588 245.247641 
L 113.255588 351.903863 
z
" clip-path="url(#p6208bf1a56)" style="fill: #72b6a1; stroke: #595959; stroke-linejoin: miter"/>
   </g>
   <g id="line2d_29">
    <path d="M 119.728292 351.903863 
L 119.728292 421.6444 
" clip-path="url(#p6208bf1a56)" style="fill: none; stroke: #595959"/>
   </g>
   <g id="line2d_30">
    <path d="M 119.728292 245.247641 
L 119.728292 138.011672 
" clip-path="url(#p6208bf1a56)" style="fill: none; stroke: #595959"/>
   </g>
   <g id="line2d_31">
    <path d="M 116.49194 421.6444 
L 122.964644 421.6444 
" clip-path="url(#p6208bf1a56)" style="fill: none; stroke: #595959; stroke-linecap: round"/>
   </g>
   <g id="line2d_32">
    <path d="M 116.49194 138.011672 
L 122.964644 138.011672 
" clip-path="url(#p6208bf1a56)" style="fill: none; stroke: #595959; stroke-linecap: round"/>
   </g>
   <g id="line2d_33">
    <g clip-path="url(#p6208bf1a56)">
     <use xlink:href="#m0cb21d1e24" x="119.728292" y="71.629544" style="fill-opacity: 0; stroke: #595959"/>
    </g>
   </g>
   <g id="patch_7">
    <path d="M 131.749028 328.409513 
L 144.694437 328.409513 
L 144.694437 181.006272 
L 131.749028 181.006272 
L 131.749028 328.409513 
z
" clip-path="url(#p6208bf1a56)" style="fill: #72b6a1; stroke: #595959; stroke-linejoin: miter"/>
   </g>
   <g id="line2d_34">
    <path d="M 138.221733 328.409513 
L 138.221733 402.932686 
" clip-path="url(#p6208bf1a56)" style="fill: none; stroke: #595959"/>
   </g>
   <g id="line2d_35">
    <path d="M 138.221733 181.006272 
L 138.221733 57.982988 
" clip-path="url(#p6208bf1a56)" style="fill: none; stroke: #595959"/>
   </g>
   <g id="line2d_36">
    <path d="M 134.985381 402.932686 
L 141.458085 402.932686 
" clip-path="url(#p6208bf1a56)" style="fill: none; stroke: #595959; stroke-linecap: round"/>
   </g>
   <g id="line2d_37">
    <path d="M 134.985381 57.982988 
L 141.458085 57.982988 
" clip-path="url(#p6208bf1a56)" style="fill: none; stroke: #595959; stroke-linecap: round"/>
   </g>
   <g id="line2d_38"/>
   <g id="patch_8">
    <path d="M 150.242469 341.041745 
L 163.187877 341.041745 
L 163.187877 206.990079 
L 150.242469 206.990079 
L 150.242469 341.041745 
z
" clip-path="url(#p6208bf1a56)" style="fill: #72b6a1; stroke: #595959; stroke-linejoin: miter"/>
   </g>
   <g id="line2d_39">
    <path d="M 156.715173 341.041745 
L 156.715173 471.520847 
" clip-path="url(#p6208bf1a56)" style="fill: none; stroke: #595959"/>
   </g>
   <g id="line2d_40">
    <path d="M 156.715173 206.990079 
L 156.715173 152.704249 
" clip-path="url(#p6208bf1a56)" style="fill: none; stroke: #595959"/>
   </g>
   <g id="line2d_41">
    <path d="M 153.478821 471.520847 
L 159.951525 471.520847 
" clip-path="url(#p6208bf1a56)" style="fill: none; stroke: #595959; stroke-linecap: round"/>
   </g>
   <g id="line2d_42">
    <path d="M 153.478821 152.704249 
L 159.951525 152.704249 
" clip-path="url(#p6208bf1a56)" style="fill: none; stroke: #595959; stroke-linecap: round"/>
   </g>
   <g id="line2d_43"/>
   <g id="patch_9">
    <path d="M 168.73591 335.397521 
L 181.681318 335.397521 
L 181.681318 199.205534 
L 168.73591 199.205534 
L 168.73591 335.397521 
z
" clip-path="url(#p6208bf1a56)" style="fill: #72b6a1; stroke: #595959; stroke-linejoin: miter"/>
   </g>
   <g id="line2d_44">
    <path d="M 175.208614 335.397521 
L 175.208614 471.56376 
" clip-path="url(#p6208bf1a56)" style="fill: none; stroke: #595959"/>
   </g>
   <g id="line2d_45">
    <path d="M 175.208614 199.205534 
L 175.208614 138.371074 
" clip-path="url(#p6208bf1a56)" style="fill: none; stroke: #595959"/>
   </g>
   <g id="line2d_46">
    <path d="M 171.972262 471.56376 
L 178.444966 471.56376 
" clip-path="url(#p6208bf1a56)" style="fill: none; stroke: #595959; stroke-linecap: round"/>
   </g>
   <g id="line2d_47">
    <path d="M 171.972262 138.371074 
L 178.444966 138.371074 
" clip-path="url(#p6208bf1a56)" style="fill: none; stroke: #595959; stroke-linecap: round"/>
   </g>
   <g id="line2d_48"/>
   <g id="patch_10">
    <path d="M 187.22935 331.292289 
L 200.174759 331.292289 
L 200.174759 185.212449 
L 187.22935 185.212449 
L 187.22935 331.292289 
z
" clip-path="url(#p6208bf1a56)" style="fill: #72b6a1; stroke: #595959; stroke-linejoin: miter"/>
   </g>
   <g id="line2d_49">
    <path d="M 193.702054 331.292289 
L 193.702054 461.307386 
" clip-path="url(#p6208bf1a56)" style="fill: none; stroke: #595959"/>
   </g>
   <g id="line2d_50">
    <path d="M 193.702054 185.212449 
L 193.702054 127.149142 
" clip-path="url(#p6208bf1a56)" style="fill: none; stroke: #595959"/>
   </g>
   <g id="line2d_51">
    <path d="M 190.465702 461.307386 
L 196.938407 461.307386 
" clip-path="url(#p6208bf1a56)" style="fill: none; stroke: #595959; stroke-linecap: round"/>
   </g>
   <g id="line2d_52">
    <path d="M 190.465702 127.149142 
L 196.938407 127.149142 
" clip-path="url(#p6208bf1a56)" style="fill: none; stroke: #595959; stroke-linecap: round"/>
   </g>
   <g id="line2d_53"/>
   <g id="patch_11">
    <path d="M 205.722791 322.932164 
L 218.668199 322.932164 
L 218.668199 175.255398 
L 205.722791 175.255398 
L 205.722791 322.932164 
z
" clip-path="url(#p6208bf1a56)" style="fill: #72b6a1; stroke: #595959; stroke-linejoin: miter"/>
   </g>
   <g id="line2d_54">
    <path d="M 212.195495 322.932164 
L 212.195495 459.612295 
" clip-path="url(#p6208bf1a56)" style="fill: none; stroke: #595959"/>
   </g>
   <g id="line2d_55">
    <path d="M 212.195495 175.255398 
L 212.195495 118.566402 
" clip-path="url(#p6208bf1a56)" style="fill: none; stroke: #595959"/>
   </g>
   <g id="line2d_56">
    <path d="M 208.959143 459.612295 
L 215.431847 459.612295 
" clip-path="url(#p6208bf1a56)" style="fill: none; stroke: #595959; stroke-linecap: round"/>
   </g>
   <g id="line2d_57">
    <path d="M 208.959143 118.566402 
L 215.431847 118.566402 
" clip-path="url(#p6208bf1a56)" style="fill: none; stroke: #595959; stroke-linecap: round"/>
   </g>
   <g id="line2d_58"/>
   <g id="patch_12">
    <path d="M 224.216231 312.431719 
L 237.16164 312.431719 
L 237.16164 180.480141 
L 224.216231 180.480141 
L 224.216231 312.431719 
z
" clip-path="url(#p6208bf1a56)" style="fill: #72b6a1; stroke: #595959; stroke-linejoin: miter"/>
   </g>
   <g id="line2d_59">
    <path d="M 230.688936 312.431719 
L 230.688936 437.865778 
" clip-path="url(#p6208bf1a56)" style="fill: none; stroke: #595959"/>
   </g>
   <g id="line2d_60">
    <path d="M 230.688936 180.480141 
L 230.688936 121.851446 
" clip-path="url(#p6208bf1a56)" style="fill: none; stroke: #595959"/>
   </g>
   <g id="line2d_61">
    <path d="M 227.452584 437.865778 
L 233.925288 437.865778 
" clip-path="url(#p6208bf1a56)" style="fill: none; stroke: #595959; stroke-linecap: round"/>
   </g>
   <g id="line2d_62">
    <path d="M 227.452584 121.851446 
L 233.925288 121.851446 
" clip-path="url(#p6208bf1a56)" style="fill: none; stroke: #595959; stroke-linecap: round"/>
   </g>
   <g id="line2d_63"/>
   <g id="patch_13">
    <path d="M 242.709672 302.526701 
L 255.65508 302.526701 
L 255.65508 159.957737 
L 242.709672 159.957737 
L 242.709672 302.526701 
z
" clip-path="url(#p6208bf1a56)" style="fill: #72b6a1; stroke: #595959; stroke-linejoin: miter"/>
   </g>
   <g id="line2d_64">
    <path d="M 249.182376 302.526701 
L 249.182376 452.488621 
" clip-path="url(#p6208bf1a56)" style="fill: none; stroke: #595959"/>
   </g>
   <g id="line2d_65">
    <path d="M 249.182376 159.957737 
L 249.182376 102.141184 
" clip-path="url(#p6208bf1a56)" style="fill: none; stroke: #595959"/>
   </g>
   <g id="line2d_66">
    <path d="M 245.946024 452.488621 
L 252.418728 452.488621 
" clip-path="url(#p6208bf1a56)" style="fill: none; stroke: #595959; stroke-linecap: round"/>
   </g>
   <g id="line2d_67">
    <path d="M 245.946024 102.141184 
L 252.418728 102.141184 
" clip-path="url(#p6208bf1a56)" style="fill: none; stroke: #595959; stroke-linecap: round"/>
   </g>
   <g id="line2d_68"/>
   <g id="patch_14">
    <path d="M 261.203113 303.339379 
L 274.148521 303.339379 
L 274.148521 158.804968 
L 261.203113 158.804968 
L 261.203113 303.339379 
z
" clip-path="url(#p6208bf1a56)" style="fill: #72b6a1; stroke: #595959; stroke-linejoin: miter"/>
   </g>
   <g id="line2d_69">
    <path d="M 267.675817 303.339379 
L 267.675817 432.426467 
" clip-path="url(#p6208bf1a56)" style="fill: none; stroke: #595959"/>
   </g>
   <g id="line2d_70">
    <path d="M 267.675817 158.804968 
L 267.675817 113.663512 
" clip-path="url(#p6208bf1a56)" style="fill: none; stroke: #595959"/>
   </g>
   <g id="line2d_71">
    <path d="M 264.439465 432.426467 
L 270.912169 432.426467 
" clip-path="url(#p6208bf1a56)" style="fill: none; stroke: #595959; stroke-linecap: round"/>
   </g>
   <g id="line2d_72">
    <path d="M 264.439465 113.663512 
L 270.912169 113.663512 
" clip-path="url(#p6208bf1a56)" style="fill: none; stroke: #595959; stroke-linecap: round"/>
   </g>
   <g id="line2d_73"/>
   <g id="patch_15">
    <path d="M 279.696553 294.580156 
L 292.641962 294.580156 
L 292.641962 146.373406 
L 279.696553 146.373406 
L 279.696553 294.580156 
z
" clip-path="url(#p6208bf1a56)" style="fill: #72b6a1; stroke: #595959; stroke-linejoin: miter"/>
   </g>
   <g id="line2d_74">
    <path d="M 286.169257 294.580156 
L 286.169257 430.817203 
" clip-path="url(#p6208bf1a56)" style="fill: none; stroke: #595959"/>
   </g>
   <g id="line2d_75">
    <path d="M 286.169257 146.373406 
L 286.169257 81.220756 
" clip-path="url(#p6208bf1a56)" style="fill: none; stroke: #595959"/>
   </g>
   <g id="line2d_76">
    <path d="M 282.932905 430.817203 
L 289.40561 430.817203 
" clip-path="url(#p6208bf1a56)" style="fill: none; stroke: #595959; stroke-linecap: round"/>
   </g>
   <g id="line2d_77">
    <path d="M 282.932905 81.220756 
L 289.40561 81.220756 
" clip-path="url(#p6208bf1a56)" style="fill: none; stroke: #595959; stroke-linecap: round"/>
   </g>
   <g id="line2d_78"/>
   <g id="patch_16">
    <path d="M 298.189994 298.825394 
L 311.135402 298.825394 
L 311.135402 155.818175 
L 298.189994 155.818175 
L 298.189994 298.825394 
z
" clip-path="url(#p6208bf1a56)" style="fill: #72b6a1; stroke: #595959; stroke-linejoin: miter"/>
   </g>
   <g id="line2d_79">
    <path d="M 304.662698 298.825394 
L 304.662698 426.600932 
" clip-path="url(#p6208bf1a56)" style="fill: none; stroke: #595959"/>
   </g>
   <g id="line2d_80">
    <path d="M 304.662698 155.818175 
L 304.662698 113.422122 
" clip-path="url(#p6208bf1a56)" style="fill: none; stroke: #595959"/>
   </g>
   <g id="line2d_81">
    <path d="M 301.426346 426.600932 
L 307.89905 426.600932 
" clip-path="url(#p6208bf1a56)" style="fill: none; stroke: #595959; stroke-linecap: round"/>
   </g>
   <g id="line2d_82">
    <path d="M 301.426346 113.422122 
L 307.89905 113.422122 
" clip-path="url(#p6208bf1a56)" style="fill: none; stroke: #595959; stroke-linecap: round"/>
   </g>
   <g id="line2d_83"/>
   <g id="patch_17">
    <path d="M 316.683434 297.795465 
L 329.628843 297.795465 
L 329.628843 140.318283 
L 316.683434 140.318283 
L 316.683434 297.795465 
z
" clip-path="url(#p6208bf1a56)" style="fill: #72b6a1; stroke: #595959; stroke-linejoin: miter"/>
   </g>
   <g id="line2d_84">
    <path d="M 323.156139 297.795465 
L 323.156139 428.515956 
" clip-path="url(#p6208bf1a56)" style="fill: none; stroke: #595959"/>
   </g>
   <g id="line2d_85">
    <path d="M 323.156139 140.318283 
L 323.156139 105.987324 
" clip-path="url(#p6208bf1a56)" style="fill: none; stroke: #595959"/>
   </g>
   <g id="line2d_86">
    <path d="M 319.919787 428.515956 
L 326.392491 428.515956 
" clip-path="url(#p6208bf1a56)" style="fill: none; stroke: #595959; stroke-linecap: round"/>
   </g>
   <g id="line2d_87">
    <path d="M 319.919787 105.987324 
L 326.392491 105.987324 
" clip-path="url(#p6208bf1a56)" style="fill: none; stroke: #595959; stroke-linecap: round"/>
   </g>
   <g id="line2d_88"/>
   <g id="patch_18">
    <path d="M 335.176875 292.573405 
L 348.122283 292.573405 
L 348.122283 138.405941 
L 335.176875 138.405941 
L 335.176875 292.573405 
z
" clip-path="url(#p6208bf1a56)" style="fill: #72b6a1; stroke: #595959; stroke-linejoin: miter"/>
   </g>
   <g id="line2d_89">
    <path d="M 341.649579 292.573405 
L 341.649579 422.513402 
" clip-path="url(#p6208bf1a56)" style="fill: none; stroke: #595959"/>
   </g>
   <g id="line2d_90">
    <path d="M 341.649579 138.405941 
L 341.649579 105.279248 
" clip-path="url(#p6208bf1a56)" style="fill: none; stroke: #595959"/>
   </g>
   <g id="line2d_91">
    <path d="M 338.413227 422.513402 
L 344.885931 422.513402 
" clip-path="url(#p6208bf1a56)" style="fill: none; stroke: #595959; stroke-linecap: round"/>
   </g>
   <g id="line2d_92">
    <path d="M 338.413227 105.279248 
L 344.885931 105.279248 
" clip-path="url(#p6208bf1a56)" style="fill: none; stroke: #595959; stroke-linecap: round"/>
   </g>
   <g id="line2d_93"/>
   <g id="patch_19">
    <path d="M 353.670316 292.51708 
L 366.615724 292.51708 
L 366.615724 152.165146 
L 353.670316 152.165146 
L 353.670316 292.51708 
z
" clip-path="url(#p6208bf1a56)" style="fill: #72b6a1; stroke: #595959; stroke-linejoin: miter"/>
   </g>
   <g id="line2d_94">
    <path d="M 360.14302 292.51708 
L 360.14302 416.848794 
" clip-path="url(#p6208bf1a56)" style="fill: none; stroke: #595959"/>
   </g>
   <g id="line2d_95">
    <path d="M 360.14302 152.165146 
L 360.14302 101.417015 
" clip-path="url(#p6208bf1a56)" style="fill: none; stroke: #595959"/>
   </g>
   <g id="line2d_96">
    <path d="M 356.906668 416.848794 
L 363.379372 416.848794 
" clip-path="url(#p6208bf1a56)" style="fill: none; stroke: #595959; stroke-linecap: round"/>
   </g>
   <g id="line2d_97">
    <path d="M 356.906668 101.417015 
L 363.379372 101.417015 
" clip-path="url(#p6208bf1a56)" style="fill: none; stroke: #595959; stroke-linecap: round"/>
   </g>
   <g id="line2d_98"/>
   <g id="patch_20">
    <path d="M 372.163756 289.762021 
L 385.109165 289.762021 
L 385.109165 140.843976 
L 372.163756 140.843976 
L 372.163756 289.762021 
z
" clip-path="url(#p6208bf1a56)" style="fill: #72b6a1; stroke: #595959; stroke-linejoin: miter"/>
   </g>
   <g id="line2d_99">
    <path d="M 378.63646 289.762021 
L 378.63646 414.467084 
" clip-path="url(#p6208bf1a56)" style="fill: none; stroke: #595959"/>
   </g>
   <g id="line2d_100">
    <path d="M 378.63646 140.843976 
L 378.63646 97.163195 
" clip-path="url(#p6208bf1a56)" style="fill: none; stroke: #595959"/>
   </g>
   <g id="line2d_101">
    <path d="M 375.400108 414.467084 
L 381.872813 414.467084 
" clip-path="url(#p6208bf1a56)" style="fill: none; stroke: #595959; stroke-linecap: round"/>
   </g>
   <g id="line2d_102">
    <path d="M 375.400108 97.163195 
L 381.872813 97.163195 
" clip-path="url(#p6208bf1a56)" style="fill: none; stroke: #595959; stroke-linecap: round"/>
   </g>
   <g id="line2d_103"/>
   <g id="patch_21">
    <path d="M 390.657197 287.713428 
L 403.602605 287.713428 
L 403.602605 136.217343 
L 390.657197 136.217343 
L 390.657197 287.713428 
z
" clip-path="url(#p6208bf1a56)" style="fill: #72b6a1; stroke: #595959; stroke-linejoin: miter"/>
   </g>
   <g id="line2d_104">
    <path d="M 397.129901 287.713428 
L 397.129901 414.56364 
" clip-path="url(#p6208bf1a56)" style="fill: none; stroke: #595959"/>
   </g>
   <g id="line2d_105">
    <path d="M 397.129901 136.217343 
L 397.129901 95.639758 
" clip-path="url(#p6208bf1a56)" style="fill: none; stroke: #595959"/>
   </g>
   <g id="line2d_106">
    <path d="M 393.893549 414.56364 
L 400.366253 414.56364 
" clip-path="url(#p6208bf1a56)" style="fill: none; stroke: #595959; stroke-linecap: round"/>
   </g>
   <g id="line2d_107">
    <path d="M 393.893549 95.639758 
L 400.366253 95.639758 
" clip-path="url(#p6208bf1a56)" style="fill: none; stroke: #595959; stroke-linecap: round"/>
   </g>
   <g id="line2d_108"/>
   <g id="patch_22">
    <path d="M 409.150637 286.586944 
L 422.096046 286.586944 
L 422.096046 133.355536 
L 409.150637 133.355536 
L 409.150637 286.586944 
z
" clip-path="url(#p6208bf1a56)" style="fill: #72b6a1; stroke: #595959; stroke-linejoin: miter"/>
   </g>
   <g id="line2d_109">
    <path d="M 415.623342 286.586944 
L 415.623342 408.673735 
" clip-path="url(#p6208bf1a56)" style="fill: none; stroke: #595959"/>
   </g>
   <g id="line2d_110">
    <path d="M 415.623342 133.355536 
L 415.623342 93.048844 
" clip-path="url(#p6208bf1a56)" style="fill: none; stroke: #595959"/>
   </g>
   <g id="line2d_111">
    <path d="M 412.386989 408.673735 
L 418.859694 408.673735 
" clip-path="url(#p6208bf1a56)" style="fill: none; stroke: #595959; stroke-linecap: round"/>
   </g>
   <g id="line2d_112">
    <path d="M 412.386989 93.048844 
L 418.859694 93.048844 
" clip-path="url(#p6208bf1a56)" style="fill: none; stroke: #595959; stroke-linecap: round"/>
   </g>
   <g id="line2d_113"/>
   <g id="patch_23">
    <path d="M 427.644078 285.014693 
L 440.589486 285.014693 
L 440.589486 131.499518 
L 427.644078 131.499518 
L 427.644078 285.014693 
z
" clip-path="url(#p6208bf1a56)" style="fill: #72b6a1; stroke: #595959; stroke-linejoin: miter"/>
   </g>
   <g id="line2d_114">
    <path d="M 434.116782 285.014693 
L 434.116782 407.675991 
" clip-path="url(#p6208bf1a56)" style="fill: none; stroke: #595959"/>
   </g>
   <g id="line2d_115">
    <path d="M 434.116782 131.499518 
L 434.116782 88.478535 
" clip-path="url(#p6208bf1a56)" style="fill: none; stroke: #595959"/>
   </g>
   <g id="line2d_116">
    <path d="M 430.88043 407.675991 
L 437.353134 407.675991 
" clip-path="url(#p6208bf1a56)" style="fill: none; stroke: #595959; stroke-linecap: round"/>
   </g>
   <g id="line2d_117">
    <path d="M 430.88043 88.478535 
L 437.353134 88.478535 
" clip-path="url(#p6208bf1a56)" style="fill: none; stroke: #595959; stroke-linecap: round"/>
   </g>
   <g id="line2d_118"/>
   <g id="patch_24">
    <path d="M 446.137519 281.907205 
L 459.082927 281.907205 
L 459.082927 134.423014 
L 446.137519 134.423014 
L 446.137519 281.907205 
z
" clip-path="url(#p6208bf1a56)" style="fill: #72b6a1; stroke: #595959; stroke-linejoin: miter"/>
   </g>
   <g id="line2d_119">
    <path d="M 452.610223 281.907205 
L 452.610223 408.577179 
" clip-path="url(#p6208bf1a56)" style="fill: none; stroke: #595959"/>
   </g>
   <g id="line2d_120">
    <path d="M 452.610223 134.423014 
L 452.610223 86.386492 
" clip-path="url(#p6208bf1a56)" style="fill: none; stroke: #595959"/>
   </g>
   <g id="line2d_121">
    <path d="M 449.373871 408.577179 
L 455.846575 408.577179 
" clip-path="url(#p6208bf1a56)" style="fill: none; stroke: #595959; stroke-linecap: round"/>
   </g>
   <g id="line2d_122">
    <path d="M 449.373871 86.386492 
L 455.846575 86.386492 
" clip-path="url(#p6208bf1a56)" style="fill: none; stroke: #595959; stroke-linecap: round"/>
   </g>
   <g id="line2d_123"/>
   <g id="patch_25">
    <path d="M 464.630959 282.290209 
L 477.576368 282.290209 
L 477.576368 138.679516 
L 464.630959 138.679516 
L 464.630959 282.290209 
z
" clip-path="url(#p6208bf1a56)" style="fill: #72b6a1; stroke: #595959; stroke-linejoin: miter"/>
   </g>
   <g id="line2d_124">
    <path d="M 471.103663 282.290209 
L 471.103663 417.846538 
" clip-path="url(#p6208bf1a56)" style="fill: none; stroke: #595959"/>
   </g>
   <g id="line2d_125">
    <path d="M 471.103663 138.679516 
L 471.103663 82.910483 
" clip-path="url(#p6208bf1a56)" style="fill: none; stroke: #595959"/>
   </g>
   <g id="line2d_126">
    <path d="M 467.867311 417.846538 
L 474.340015 417.846538 
" clip-path="url(#p6208bf1a56)" style="fill: none; stroke: #595959; stroke-linecap: round"/>
   </g>
   <g id="line2d_127">
    <path d="M 467.867311 82.910483 
L 474.340015 82.910483 
" clip-path="url(#p6208bf1a56)" style="fill: none; stroke: #595959; stroke-linecap: round"/>
   </g>
   <g id="line2d_128"/>
   <g id="patch_26">
    <path d="M 483.1244 282.193654 
L 496.069808 282.193654 
L 496.069808 134.283544 
L 483.1244 134.283544 
L 483.1244 282.193654 
z
" clip-path="url(#p6208bf1a56)" style="fill: #72b6a1; stroke: #595959; stroke-linejoin: miter"/>
   </g>
   <g id="line2d_129">
    <path d="M 489.597104 282.193654 
L 489.597104 432.329911 
" clip-path="url(#p6208bf1a56)" style="fill: none; stroke: #595959"/>
   </g>
   <g id="line2d_130">
    <path d="M 489.597104 134.283544 
L 489.597104 80.914996 
" clip-path="url(#p6208bf1a56)" style="fill: none; stroke: #595959"/>
   </g>
   <g id="line2d_131">
    <path d="M 486.360752 432.329911 
L 492.833456 432.329911 
" clip-path="url(#p6208bf1a56)" style="fill: none; stroke: #595959; stroke-linecap: round"/>
   </g>
   <g id="line2d_132">
    <path d="M 486.360752 80.914996 
L 492.833456 80.914996 
" clip-path="url(#p6208bf1a56)" style="fill: none; stroke: #595959; stroke-linecap: round"/>
   </g>
   <g id="line2d_133"/>
   <g id="patch_27">
    <path d="M 501.61784 280.494271 
L 514.563249 280.494271 
L 514.563249 135.026488 
L 501.61784 135.026488 
L 501.61784 280.494271 
z
" clip-path="url(#p6208bf1a56)" style="fill: #72b6a1; stroke: #595959; stroke-linejoin: miter"/>
   </g>
   <g id="line2d_134">
    <path d="M 508.090545 280.494271 
L 508.090545 404.087333 
" clip-path="url(#p6208bf1a56)" style="fill: none; stroke: #595959"/>
   </g>
   <g id="line2d_135">
    <path d="M 508.090545 135.026488 
L 508.090545 82.266777 
" clip-path="url(#p6208bf1a56)" style="fill: none; stroke: #595959"/>
   </g>
   <g id="line2d_136">
    <path d="M 504.854192 404.087333 
L 511.326897 404.087333 
" clip-path="url(#p6208bf1a56)" style="fill: none; stroke: #595959; stroke-linecap: round"/>
   </g>
   <g id="line2d_137">
    <path d="M 504.854192 82.266777 
L 511.326897 82.266777 
" clip-path="url(#p6208bf1a56)" style="fill: none; stroke: #595959; stroke-linecap: round"/>
   </g>
   <g id="line2d_138"/>
   <g id="patch_28">
    <path d="M 520.111281 281.831569 
L 533.056689 281.831569 
L 533.056689 132.725241 
L 520.111281 132.725241 
L 520.111281 281.831569 
z
" clip-path="url(#p6208bf1a56)" style="fill: #72b6a1; stroke: #595959; stroke-linejoin: miter"/>
   </g>
   <g id="line2d_139">
    <path d="M 526.583985 281.831569 
L 526.583985 407.708176 
" clip-path="url(#p6208bf1a56)" style="fill: none; stroke: #595959"/>
   </g>
   <g id="line2d_140">
    <path d="M 526.583985 132.725241 
L 526.583985 81.027644 
" clip-path="url(#p6208bf1a56)" style="fill: none; stroke: #595959"/>
   </g>
   <g id="line2d_141">
    <path d="M 523.347633 407.708176 
L 529.820337 407.708176 
" clip-path="url(#p6208bf1a56)" style="fill: none; stroke: #595959; stroke-linecap: round"/>
   </g>
   <g id="line2d_142">
    <path d="M 523.347633 81.027644 
L 529.820337 81.027644 
" clip-path="url(#p6208bf1a56)" style="fill: none; stroke: #595959; stroke-linecap: round"/>
   </g>
   <g id="line2d_143"/>
   <g id="patch_29">
    <path d="M 538.604722 278.337858 
L 551.55013 278.337858 
L 551.55013 133.368946 
L 538.604722 133.368946 
L 538.604722 278.337858 
z
" clip-path="url(#p6208bf1a56)" style="fill: #72b6a1; stroke: #595959; stroke-linejoin: miter"/>
   </g>
   <g id="line2d_144">
    <path d="M 545.077426 278.337858 
L 545.077426 397.923853 
" clip-path="url(#p6208bf1a56)" style="fill: none; stroke: #595959"/>
   </g>
   <g id="line2d_145">
    <path d="M 545.077426 133.368946 
L 545.077426 73.753772 
" clip-path="url(#p6208bf1a56)" style="fill: none; stroke: #595959"/>
   </g>
   <g id="line2d_146">
    <path d="M 541.841074 397.923853 
L 548.313778 397.923853 
" clip-path="url(#p6208bf1a56)" style="fill: none; stroke: #595959; stroke-linecap: round"/>
   </g>
   <g id="line2d_147">
    <path d="M 541.841074 73.753772 
L 548.313778 73.753772 
" clip-path="url(#p6208bf1a56)" style="fill: none; stroke: #595959; stroke-linecap: round"/>
   </g>
   <g id="line2d_148"/>
   <g id="patch_30">
    <path d="M 557.098162 278.957424 
L 570.043571 278.957424 
L 570.043571 132.918352 
L 557.098162 132.918352 
L 557.098162 278.957424 
z
" clip-path="url(#p6208bf1a56)" style="fill: #72b6a1; stroke: #595959; stroke-linejoin: miter"/>
   </g>
   <g id="line2d_149">
    <path d="M 563.570866 278.957424 
L 563.570866 406.678248 
" clip-path="url(#p6208bf1a56)" style="fill: none; stroke: #595959"/>
   </g>
   <g id="line2d_150">
    <path d="M 563.570866 132.918352 
L 563.570866 77.358523 
" clip-path="url(#p6208bf1a56)" style="fill: none; stroke: #595959"/>
   </g>
   <g id="line2d_151">
    <path d="M 560.334514 406.678248 
L 566.807218 406.678248 
" clip-path="url(#p6208bf1a56)" style="fill: none; stroke: #595959; stroke-linecap: round"/>
   </g>
   <g id="line2d_152">
    <path d="M 560.334514 77.358523 
L 566.807218 77.358523 
" clip-path="url(#p6208bf1a56)" style="fill: none; stroke: #595959; stroke-linecap: round"/>
   </g>
   <g id="line2d_153"/>
   <g id="patch_31">
    <path d="M 575.591603 278.213408 
L 588.537011 278.213408 
L 588.537011 149.694926 
L 575.591603 149.694926 
L 575.591603 278.213408 
z
" clip-path="url(#p6208bf1a56)" style="fill: #72b6a1; stroke: #595959; stroke-linejoin: miter"/>
   </g>
   <g id="line2d_154">
    <path d="M 582.064307 278.213408 
L 582.064307 394.898437 
" clip-path="url(#p6208bf1a56)" style="fill: none; stroke: #595959"/>
   </g>
   <g id="line2d_155">
    <path d="M 582.064307 149.694926 
L 582.064307 73.367549 
" clip-path="url(#p6208bf1a56)" style="fill: none; stroke: #595959"/>
   </g>
   <g id="line2d_156">
    <path d="M 578.827955 394.898437 
L 585.300659 394.898437 
" clip-path="url(#p6208bf1a56)" style="fill: none; stroke: #595959; stroke-linecap: round"/>
   </g>
   <g id="line2d_157">
    <path d="M 578.827955 73.367549 
L 585.300659 73.367549 
" clip-path="url(#p6208bf1a56)" style="fill: none; stroke: #595959; stroke-linecap: round"/>
   </g>
   <g id="line2d_158"/>
   <g id="patch_32">
    <path d="M 594.085043 278.669366 
L 607.030452 278.669366 
L 607.030452 132.921034 
L 594.085043 132.921034 
L 594.085043 278.669366 
z
" clip-path="url(#p6208bf1a56)" style="fill: #72b6a1; stroke: #595959; stroke-linejoin: miter"/>
   </g>
   <g id="line2d_159">
    <path d="M 600.557748 278.669366 
L 600.557748 402.059661 
" clip-path="url(#p6208bf1a56)" style="fill: none; stroke: #595959"/>
   </g>
   <g id="line2d_160">
    <path d="M 600.557748 132.921034 
L 600.557748 71.597359 
" clip-path="url(#p6208bf1a56)" style="fill: none; stroke: #595959"/>
   </g>
   <g id="line2d_161">
    <path d="M 597.321395 402.059661 
L 603.7941 402.059661 
" clip-path="url(#p6208bf1a56)" style="fill: none; stroke: #595959; stroke-linecap: round"/>
   </g>
   <g id="line2d_162">
    <path d="M 597.321395 71.597359 
L 603.7941 71.597359 
" clip-path="url(#p6208bf1a56)" style="fill: none; stroke: #595959; stroke-linecap: round"/>
   </g>
   <g id="line2d_163"/>
   <g id="patch_33">
    <path d="M 612.578484 276.941017 
L 625.523892 276.941017 
L 625.523892 134.216492 
L 612.578484 134.216492 
L 612.578484 276.941017 
z
" clip-path="url(#p6208bf1a56)" style="fill: #72b6a1; stroke: #595959; stroke-linejoin: miter"/>
   </g>
   <g id="line2d_164">
    <path d="M 619.051188 276.941017 
L 619.051188 403.540183 
" clip-path="url(#p6208bf1a56)" style="fill: none; stroke: #595959"/>
   </g>
   <g id="line2d_165">
    <path d="M 619.051188 134.216492 
L 619.051188 70.036373 
" clip-path="url(#p6208bf1a56)" style="fill: none; stroke: #595959"/>
   </g>
   <g id="line2d_166">
    <path d="M 615.814836 403.540183 
L 622.28754 403.540183 
" clip-path="url(#p6208bf1a56)" style="fill: none; stroke: #595959; stroke-linecap: round"/>
   </g>
   <g id="line2d_167">
    <path d="M 615.814836 70.036373 
L 622.28754 70.036373 
" clip-path="url(#p6208bf1a56)" style="fill: none; stroke: #595959; stroke-linecap: round"/>
   </g>
   <g id="line2d_168"/>
   <g id="patch_34">
    <path d="M 631.071925 277.149685 
L 644.017333 277.149685 
L 644.017333 132.693055 
L 631.071925 132.693055 
L 631.071925 277.149685 
z
" clip-path="url(#p6208bf1a56)" style="fill: #72b6a1; stroke: #595959; stroke-linejoin: miter"/>
   </g>
   <g id="line2d_169">
    <path d="M 637.544629 277.149685 
L 637.544629 405.567856 
" clip-path="url(#p6208bf1a56)" style="fill: none; stroke: #595959"/>
   </g>
   <g id="line2d_170">
    <path d="M 637.544629 132.693055 
L 637.544629 67.751218 
" clip-path="url(#p6208bf1a56)" style="fill: none; stroke: #595959"/>
   </g>
   <g id="line2d_171">
    <path d="M 634.308277 405.567856 
L 640.780981 405.567856 
" clip-path="url(#p6208bf1a56)" style="fill: none; stroke: #595959; stroke-linecap: round"/>
   </g>
   <g id="line2d_172">
    <path d="M 634.308277 67.751218 
L 640.780981 67.751218 
" clip-path="url(#p6208bf1a56)" style="fill: none; stroke: #595959; stroke-linecap: round"/>
   </g>
   <g id="line2d_173"/>
   <g id="patch_35">
    <path d="M 649.565365 275.804877 
L 662.510774 275.804877 
L 662.510774 134.782416 
L 649.565365 134.782416 
L 649.565365 275.804877 
z
" clip-path="url(#p6208bf1a56)" style="fill: #72b6a1; stroke: #595959; stroke-linejoin: miter"/>
   </g>
   <g id="line2d_174">
    <path d="M 656.038069 275.804877 
L 656.038069 400.675694 
" clip-path="url(#p6208bf1a56)" style="fill: none; stroke: #595959"/>
   </g>
   <g id="line2d_175">
    <path d="M 656.038069 134.782416 
L 656.038069 67.445458 
" clip-path="url(#p6208bf1a56)" style="fill: none; stroke: #595959"/>
   </g>
   <g id="line2d_176">
    <path d="M 652.801717 400.675694 
L 659.274421 400.675694 
" clip-path="url(#p6208bf1a56)" style="fill: none; stroke: #595959; stroke-linecap: round"/>
   </g>
   <g id="line2d_177">
    <path d="M 652.801717 67.445458 
L 659.274421 67.445458 
" clip-path="url(#p6208bf1a56)" style="fill: none; stroke: #595959; stroke-linecap: round"/>
   </g>
   <g id="line2d_178"/>
   <g id="patch_36">
    <path d="M 668.058806 274.659617 
L 681.004214 274.659617 
L 681.004214 132.35511 
L 668.058806 132.35511 
L 668.058806 274.659617 
z
" clip-path="url(#p6208bf1a56)" style="fill: #72b6a1; stroke: #595959; stroke-linejoin: miter"/>
   </g>
   <g id="line2d_179">
    <path d="M 674.53151 274.659617 
L 674.53151 393.900694 
" clip-path="url(#p6208bf1a56)" style="fill: none; stroke: #595959"/>
   </g>
   <g id="line2d_180">
    <path d="M 674.53151 132.35511 
L 674.53151 66.013214 
" clip-path="url(#p6208bf1a56)" style="fill: none; stroke: #595959"/>
   </g>
   <g id="line2d_181">
    <path d="M 671.295158 393.900694 
L 677.767862 393.900694 
" clip-path="url(#p6208bf1a56)" style="fill: none; stroke: #595959; stroke-linecap: round"/>
   </g>
   <g id="line2d_182">
    <path d="M 671.295158 66.013214 
L 677.767862 66.013214 
" clip-path="url(#p6208bf1a56)" style="fill: none; stroke: #595959; stroke-linecap: round"/>
   </g>
   <g id="line2d_183"/>
   <g id="patch_37">
    <path d="M 686.552246 273.825482 
L 699.497655 273.825482 
L 699.497655 130.979189 
L 686.552246 130.979189 
L 686.552246 273.825482 
z
" clip-path="url(#p6208bf1a56)" style="fill: #72b6a1; stroke: #595959; stroke-linejoin: miter"/>
   </g>
   <g id="line2d_184">
    <path d="M 693.02495 273.825482 
L 693.02495 389.249922 
" clip-path="url(#p6208bf1a56)" style="fill: none; stroke: #595959"/>
   </g>
   <g id="line2d_185">
    <path d="M 693.02495 130.979189 
L 693.02495 65.948843 
" clip-path="url(#p6208bf1a56)" style="fill: none; stroke: #595959"/>
   </g>
   <g id="line2d_186">
    <path d="M 689.788598 389.249922 
L 696.261303 389.249922 
" clip-path="url(#p6208bf1a56)" style="fill: none; stroke: #595959; stroke-linecap: round"/>
   </g>
   <g id="line2d_187">
    <path d="M 689.788598 65.948843 
L 696.261303 65.948843 
" clip-path="url(#p6208bf1a56)" style="fill: none; stroke: #595959; stroke-linecap: round"/>
   </g>
   <g id="line2d_188"/>
   <g id="patch_38">
    <path d="M 705.045687 273.059473 
L 717.991095 273.059473 
L 717.991095 133.457456 
L 705.045687 133.457456 
L 705.045687 273.059473 
z
" clip-path="url(#p6208bf1a56)" style="fill: #72b6a1; stroke: #595959; stroke-linejoin: miter"/>
   </g>
   <g id="line2d_189">
    <path d="M 711.518391 273.059473 
L 711.518391 394.36738 
" clip-path="url(#p6208bf1a56)" style="fill: none; stroke: #595959"/>
   </g>
   <g id="line2d_190">
    <path d="M 711.518391 133.457456 
L 711.518391 64.629247 
" clip-path="url(#p6208bf1a56)" style="fill: none; stroke: #595959"/>
   </g>
   <g id="line2d_191">
    <path d="M 708.282039 394.36738 
L 714.754743 394.36738 
" clip-path="url(#p6208bf1a56)" style="fill: none; stroke: #595959; stroke-linecap: round"/>
   </g>
   <g id="line2d_192">
    <path d="M 708.282039 64.629247 
L 714.754743 64.629247 
" clip-path="url(#p6208bf1a56)" style="fill: none; stroke: #595959; stroke-linecap: round"/>
   </g>
   <g id="line2d_193"/>
   <g id="patch_39">
    <path d="M 723.539127 272.859924 
L 736.484536 272.859924 
L 736.484536 131.381505 
L 723.539127 131.381505 
L 723.539127 272.859924 
z
" clip-path="url(#p6208bf1a56)" style="fill: #72b6a1; stroke: #595959; stroke-linejoin: miter"/>
   </g>
   <g id="line2d_194">
    <path d="M 730.011832 272.859924 
L 730.011832 388.831513 
" clip-path="url(#p6208bf1a56)" style="fill: none; stroke: #595959"/>
   </g>
   <g id="line2d_195">
    <path d="M 730.011832 131.381505 
L 730.011832 62.875149 
" clip-path="url(#p6208bf1a56)" style="fill: none; stroke: #595959"/>
   </g>
   <g id="line2d_196">
    <path d="M 726.77548 388.831513 
L 733.248184 388.831513 
" clip-path="url(#p6208bf1a56)" style="fill: none; stroke: #595959; stroke-linecap: round"/>
   </g>
   <g id="line2d_197">
    <path d="M 726.77548 62.875149 
L 733.248184 62.875149 
" clip-path="url(#p6208bf1a56)" style="fill: none; stroke: #595959; stroke-linecap: round"/>
   </g>
   <g id="line2d_198"/>
   <g id="patch_40">
    <path d="M 742.032568 276.569277 
L 754.977976 276.569277 
L 754.977976 135.259831 
L 742.032568 135.259831 
L 742.032568 276.569277 
z
" clip-path="url(#p6208bf1a56)" style="fill: #72b6a1; stroke: #595959; stroke-linejoin: miter"/>
   </g>
   <g id="line2d_199">
    <path d="M 748.505272 276.569277 
L 748.505272 390.328128 
" clip-path="url(#p6208bf1a56)" style="fill: none; stroke: #595959"/>
   </g>
   <g id="line2d_200">
    <path d="M 748.505272 135.259831 
L 748.505272 61.330256 
" clip-path="url(#p6208bf1a56)" style="fill: none; stroke: #595959"/>
   </g>
   <g id="line2d_201">
    <path d="M 745.26892 390.328128 
L 751.741624 390.328128 
" clip-path="url(#p6208bf1a56)" style="fill: none; stroke: #595959; stroke-linecap: round"/>
   </g>
   <g id="line2d_202">
    <path d="M 745.26892 61.330256 
L 751.741624 61.330256 
" clip-path="url(#p6208bf1a56)" style="fill: none; stroke: #595959; stroke-linecap: round"/>
   </g>
   <g id="line2d_203"/>
   <g id="patch_41">
    <path d="M 760.526009 270.71558 
L 773.471417 270.71558 
L 773.471417 130.53396 
L 760.526009 130.53396 
L 760.526009 270.71558 
z
" clip-path="url(#p6208bf1a56)" style="fill: #72b6a1; stroke: #595959; stroke-linejoin: miter"/>
   </g>
   <g id="line2d_204">
    <path d="M 766.998713 270.71558 
L 766.998713 390.167202 
" clip-path="url(#p6208bf1a56)" style="fill: none; stroke: #595959"/>
   </g>
   <g id="line2d_205">
    <path d="M 766.998713 130.53396 
L 766.998713 59.720993 
" clip-path="url(#p6208bf1a56)" style="fill: none; stroke: #595959"/>
   </g>
   <g id="line2d_206">
    <path d="M 763.762361 390.167202 
L 770.235065 390.167202 
" clip-path="url(#p6208bf1a56)" style="fill: none; stroke: #595959; stroke-linecap: round"/>
   </g>
   <g id="line2d_207">
    <path d="M 763.762361 59.720993 
L 770.235065 59.720993 
" clip-path="url(#p6208bf1a56)" style="fill: none; stroke: #595959; stroke-linecap: round"/>
   </g>
   <g id="line2d_208"/>
   <g id="patch_42">
    <path d="M 779.019449 268.529395 
L 791.964858 268.529395 
L 791.964858 132.245144 
L 779.019449 132.245144 
L 779.019449 268.529395 
z
" clip-path="url(#p6208bf1a56)" style="fill: #72b6a1; stroke: #595959; stroke-linejoin: miter"/>
   </g>
   <g id="line2d_209">
    <path d="M 785.492153 268.529395 
L 785.492153 394.67314 
" clip-path="url(#p6208bf1a56)" style="fill: none; stroke: #595959"/>
   </g>
   <g id="line2d_210">
    <path d="M 785.492153 132.245144 
L 785.492153 59.286491 
" clip-path="url(#p6208bf1a56)" style="fill: none; stroke: #595959"/>
   </g>
   <g id="line2d_211">
    <path d="M 782.255801 394.67314 
L 788.728506 394.67314 
" clip-path="url(#p6208bf1a56)" style="fill: none; stroke: #595959; stroke-linecap: round"/>
   </g>
   <g id="line2d_212">
    <path d="M 782.255801 59.286491 
L 788.728506 59.286491 
" clip-path="url(#p6208bf1a56)" style="fill: none; stroke: #595959; stroke-linecap: round"/>
   </g>
   <g id="line2d_213"/>
   <g id="patch_43">
    <path d="M 797.51289 269.771747 
L 810.458298 269.771747 
L 810.458298 129.68105 
L 797.51289 129.68105 
L 797.51289 269.771747 
z
" clip-path="url(#p6208bf1a56)" style="fill: #72b6a1; stroke: #595959; stroke-linejoin: miter"/>
   </g>
   <g id="line2d_214">
    <path d="M 803.985594 269.771747 
L 803.985594 382.957701 
" clip-path="url(#p6208bf1a56)" style="fill: none; stroke: #595959"/>
   </g>
   <g id="line2d_215">
    <path d="M 803.985594 129.68105 
L 803.985594 58.031266 
" clip-path="url(#p6208bf1a56)" style="fill: none; stroke: #595959"/>
   </g>
   <g id="line2d_216">
    <path d="M 800.749242 382.957701 
L 807.221946 382.957701 
" clip-path="url(#p6208bf1a56)" style="fill: none; stroke: #595959; stroke-linecap: round"/>
   </g>
   <g id="line2d_217">
    <path d="M 800.749242 58.031266 
L 807.221946 58.031266 
" clip-path="url(#p6208bf1a56)" style="fill: none; stroke: #595959; stroke-linecap: round"/>
   </g>
   <g id="line2d_218"/>
   <g id="patch_44">
    <path d="M 816.00633 269.979342 
L 828.951739 269.979342 
L 828.951739 128.345361 
L 816.00633 128.345361 
L 816.00633 269.979342 
z
" clip-path="url(#p6208bf1a56)" style="fill: #72b6a1; stroke: #595959; stroke-linejoin: miter"/>
   </g>
   <g id="line2d_219">
    <path d="M 822.479035 269.979342 
L 822.479035 396.958295 
" clip-path="url(#p6208bf1a56)" style="fill: none; stroke: #595959"/>
   </g>
   <g id="line2d_220">
    <path d="M 822.479035 128.345361 
L 822.479035 58.385304 
" clip-path="url(#p6208bf1a56)" style="fill: none; stroke: #595959"/>
   </g>
   <g id="line2d_221">
    <path d="M 819.242683 396.958295 
L 825.715387 396.958295 
" clip-path="url(#p6208bf1a56)" style="fill: none; stroke: #595959; stroke-linecap: round"/>
   </g>
   <g id="line2d_222">
    <path d="M 819.242683 58.385304 
L 825.715387 58.385304 
" clip-path="url(#p6208bf1a56)" style="fill: none; stroke: #595959; stroke-linecap: round"/>
   </g>
   <g id="line2d_223"/>
   <g id="patch_45">
    <path d="M 834.499771 266.913695 
L 847.445179 266.913695 
L 847.445179 126.494708 
L 834.499771 126.494708 
L 834.499771 266.913695 
z
" clip-path="url(#p6208bf1a56)" style="fill: #72b6a1; stroke: #595959; stroke-linejoin: miter"/>
   </g>
   <g id="line2d_224">
    <path d="M 840.972475 266.913695 
L 840.972475 381.155325 
" clip-path="url(#p6208bf1a56)" style="fill: none; stroke: #595959"/>
   </g>
   <g id="line2d_225">
    <path d="M 840.972475 126.494708 
L 840.972475 55.61737 
" clip-path="url(#p6208bf1a56)" style="fill: none; stroke: #595959"/>
   </g>
   <g id="line2d_226">
    <path d="M 837.736123 381.155325 
L 844.208827 381.155325 
" clip-path="url(#p6208bf1a56)" style="fill: none; stroke: #595959; stroke-linecap: round"/>
   </g>
   <g id="line2d_227">
    <path d="M 837.736123 55.61737 
L 844.208827 55.61737 
" clip-path="url(#p6208bf1a56)" style="fill: none; stroke: #595959; stroke-linecap: round"/>
   </g>
   <g id="line2d_228"/>
   <g id="patch_46">
    <path d="M 852.993212 272.212195 
L 865.93862 272.212195 
L 865.93862 128.275626 
L 852.993212 128.275626 
L 852.993212 272.212195 
z
" clip-path="url(#p6208bf1a56)" style="fill: #72b6a1; stroke: #595959; stroke-linejoin: miter"/>
   </g>
   <g id="line2d_229">
    <path d="M 859.465916 272.212195 
L 859.465916 384.486501 
" clip-path="url(#p6208bf1a56)" style="fill: none; stroke: #595959"/>
   </g>
   <g id="line2d_230">
    <path d="M 859.465916 128.275626 
L 859.465916 59.76927 
" clip-path="url(#p6208bf1a56)" style="fill: none; stroke: #595959"/>
   </g>
   <g id="line2d_231">
    <path d="M 856.229564 384.486501 
L 862.702268 384.486501 
" clip-path="url(#p6208bf1a56)" style="fill: none; stroke: #595959; stroke-linecap: round"/>
   </g>
   <g id="line2d_232">
    <path d="M 856.229564 59.76927 
L 862.702268 59.76927 
" clip-path="url(#p6208bf1a56)" style="fill: none; stroke: #595959; stroke-linecap: round"/>
   </g>
   <g id="line2d_233"/>
   <g id="patch_47">
    <path d="M 871.486652 267.901783 
L 884.432061 267.901783 
L 884.432061 127.674835 
L 871.486652 127.674835 
L 871.486652 267.901783 
z
" clip-path="url(#p6208bf1a56)" style="fill: #72b6a1; stroke: #595959; stroke-linejoin: miter"/>
   </g>
   <g id="line2d_234">
    <path d="M 877.959356 267.901783 
L 877.959356 383.005978 
" clip-path="url(#p6208bf1a56)" style="fill: none; stroke: #595959"/>
   </g>
   <g id="line2d_235">
    <path d="M 877.959356 127.674835 
L 877.959356 56.196705 
" clip-path="url(#p6208bf1a56)" style="fill: none; stroke: #595959"/>
   </g>
   <g id="line2d_236">
    <path d="M 874.723004 383.005978 
L 881.195709 383.005978 
" clip-path="url(#p6208bf1a56)" style="fill: none; stroke: #595959; stroke-linecap: round"/>
   </g>
   <g id="line2d_237">
    <path d="M 874.723004 56.196705 
L 881.195709 56.196705 
" clip-path="url(#p6208bf1a56)" style="fill: none; stroke: #595959; stroke-linecap: round"/>
   </g>
   <g id="line2d_238"/>
   <g id="patch_48">
    <path d="M 889.980093 265.851581 
L 902.925501 265.851581 
L 902.925501 130.303299 
L 889.980093 130.303299 
L 889.980093 265.851581 
z
" clip-path="url(#p6208bf1a56)" style="fill: #72b6a1; stroke: #595959; stroke-linejoin: miter"/>
   </g>
   <g id="line2d_239">
    <path d="M 896.452797 265.851581 
L 896.452797 384.245112 
" clip-path="url(#p6208bf1a56)" style="fill: none; stroke: #595959"/>
   </g>
   <g id="line2d_240">
    <path d="M 896.452797 130.303299 
L 896.452797 56.936966 
" clip-path="url(#p6208bf1a56)" style="fill: none; stroke: #595959"/>
   </g>
   <g id="line2d_241">
    <path d="M 893.216445 384.245112 
L 899.689149 384.245112 
" clip-path="url(#p6208bf1a56)" style="fill: none; stroke: #595959; stroke-linecap: round"/>
   </g>
   <g id="line2d_242">
    <path d="M 893.216445 56.936966 
L 899.689149 56.936966 
" clip-path="url(#p6208bf1a56)" style="fill: none; stroke: #595959; stroke-linecap: round"/>
   </g>
   <g id="line2d_243"/>
   <g id="patch_49">
    <path d="M 908.473533 267.44958 
L 921.418942 267.44958 
L 921.418942 126.44643 
L 908.473533 126.44643 
L 908.473533 267.44958 
z
" clip-path="url(#p6208bf1a56)" style="fill: #72b6a1; stroke: #595959; stroke-linejoin: miter"/>
   </g>
   <g id="line2d_244">
    <path d="M 914.946238 267.44958 
L 914.946238 386.546359 
" clip-path="url(#p6208bf1a56)" style="fill: none; stroke: #595959"/>
   </g>
   <g id="line2d_245">
    <path d="M 914.946238 126.44643 
L 914.946238 54.313867 
" clip-path="url(#p6208bf1a56)" style="fill: none; stroke: #595959"/>
   </g>
   <g id="line2d_246">
    <path d="M 911.709886 386.546359 
L 918.18259 386.546359 
" clip-path="url(#p6208bf1a56)" style="fill: none; stroke: #595959; stroke-linecap: round"/>
   </g>
   <g id="line2d_247">
    <path d="M 911.709886 54.313867 
L 918.18259 54.313867 
" clip-path="url(#p6208bf1a56)" style="fill: none; stroke: #595959; stroke-linecap: round"/>
   </g>
   <g id="line2d_248"/>
   <g id="patch_50">
    <path d="M 926.966974 267.183246 
L 939.912382 267.183246 
L 939.912382 128.543837 
L 926.966974 128.543837 
L 926.966974 267.183246 
z
" clip-path="url(#p6208bf1a56)" style="fill: #72b6a1; stroke: #595959; stroke-linejoin: miter"/>
   </g>
   <g id="line2d_249">
    <path d="M 933.439678 267.183246 
L 933.439678 391.390242 
" clip-path="url(#p6208bf1a56)" style="fill: none; stroke: #595959"/>
   </g>
   <g id="line2d_250">
    <path d="M 933.439678 128.543837 
L 933.439678 54.812738 
" clip-path="url(#p6208bf1a56)" style="fill: none; stroke: #595959"/>
   </g>
   <g id="line2d_251">
    <path d="M 930.203326 391.390242 
L 936.67603 391.390242 
" clip-path="url(#p6208bf1a56)" style="fill: none; stroke: #595959; stroke-linecap: round"/>
   </g>
   <g id="line2d_252">
    <path d="M 930.203326 54.812738 
L 936.67603 54.812738 
" clip-path="url(#p6208bf1a56)" style="fill: none; stroke: #595959; stroke-linecap: round"/>
   </g>
   <g id="line2d_253"/>
   <g id="patch_51">
    <path d="M 945.460415 263.908395 
L 958.405823 263.908395 
L 958.405823 126.323053 
L 945.460415 126.323053 
L 945.460415 263.908395 
z
" clip-path="url(#p6208bf1a56)" style="fill: #72b6a1; stroke: #595959; stroke-linejoin: miter"/>
   </g>
   <g id="line2d_254">
    <path d="M 951.933119 263.908395 
L 951.933119 381.863401 
" clip-path="url(#p6208bf1a56)" style="fill: none; stroke: #595959"/>
   </g>
   <g id="line2d_255">
    <path d="M 951.933119 126.323053 
L 951.933119 53.123011 
" clip-path="url(#p6208bf1a56)" style="fill: none; stroke: #595959"/>
   </g>
   <g id="line2d_256">
    <path d="M 948.696767 381.863401 
L 955.169471 381.863401 
" clip-path="url(#p6208bf1a56)" style="fill: none; stroke: #595959; stroke-linecap: round"/>
   </g>
   <g id="line2d_257">
    <path d="M 948.696767 53.123011 
L 955.169471 53.123011 
" clip-path="url(#p6208bf1a56)" style="fill: none; stroke: #595959; stroke-linecap: round"/>
   </g>
   <g id="line2d_258"/>
   <g id="patch_52">
    <path d="M 963.953855 262.177632 
L 976.899264 262.177632 
L 976.899264 126.902388 
L 963.953855 126.902388 
L 963.953855 262.177632 
z
" clip-path="url(#p6208bf1a56)" style="fill: #72b6a1; stroke: #595959; stroke-linejoin: miter"/>
   </g>
   <g id="line2d_259">
    <path d="M 970.426559 262.177632 
L 970.426559 384.084185 
" clip-path="url(#p6208bf1a56)" style="fill: none; stroke: #595959"/>
   </g>
   <g id="line2d_260">
    <path d="M 970.426559 126.902388 
L 970.426559 54.780553 
" clip-path="url(#p6208bf1a56)" style="fill: none; stroke: #595959"/>
   </g>
   <g id="line2d_261">
    <path d="M 967.190207 384.084185 
L 973.662912 384.084185 
" clip-path="url(#p6208bf1a56)" style="fill: none; stroke: #595959; stroke-linecap: round"/>
   </g>
   <g id="line2d_262">
    <path d="M 967.190207 54.780553 
L 973.662912 54.780553 
" clip-path="url(#p6208bf1a56)" style="fill: none; stroke: #595959; stroke-linecap: round"/>
   </g>
   <g id="line2d_263"/>
   <g id="line2d_264">
    <path d="M 57.775266 384.634456 
L 70.720675 384.634456 
" clip-path="url(#p6208bf1a56)" style="fill: none; stroke: #595959"/>
   </g>
   <g id="line2d_265">
    <path d="M 76.268707 332.634562 
L 89.214115 332.634562 
" clip-path="url(#p6208bf1a56)" style="fill: none; stroke: #595959"/>
   </g>
   <g id="line2d_266">
    <path d="M 94.762147 307.122758 
L 107.707556 307.122758 
" clip-path="url(#p6208bf1a56)" style="fill: none; stroke: #595959"/>
   </g>
   <g id="line2d_267">
    <path d="M 113.255588 291.49953 
L 126.200996 291.49953 
" clip-path="url(#p6208bf1a56)" style="fill: none; stroke: #595959"/>
   </g>
   <g id="line2d_268">
    <path d="M 131.749028 246.022233 
L 144.694437 246.022233 
" clip-path="url(#p6208bf1a56)" style="fill: none; stroke: #595959"/>
   </g>
   <g id="line2d_269">
    <path d="M 150.242469 293.732074 
L 163.187877 293.732074 
" clip-path="url(#p6208bf1a56)" style="fill: none; stroke: #595959"/>
   </g>
   <g id="line2d_270">
    <path d="M 168.73591 282.654976 
L 181.681318 282.654976 
" clip-path="url(#p6208bf1a56)" style="fill: none; stroke: #595959"/>
   </g>
   <g id="line2d_271">
    <path d="M 187.22935 280.270583 
L 200.174759 280.270583 
" clip-path="url(#p6208bf1a56)" style="fill: none; stroke: #595959"/>
   </g>
   <g id="line2d_272">
    <path d="M 205.722791 259.945583 
L 218.668199 259.945583 
" clip-path="url(#p6208bf1a56)" style="fill: none; stroke: #595959"/>
   </g>
   <g id="line2d_273">
    <path d="M 224.216231 268.785805 
L 237.16164 268.785805 
" clip-path="url(#p6208bf1a56)" style="fill: none; stroke: #595959"/>
   </g>
   <g id="line2d_274">
    <path d="M 242.709672 254.825979 
L 255.65508 254.825979 
" clip-path="url(#p6208bf1a56)" style="fill: none; stroke: #595959"/>
   </g>
   <g id="line2d_275">
    <path d="M 261.203113 256.453481 
L 274.148521 256.453481 
" clip-path="url(#p6208bf1a56)" style="fill: none; stroke: #595959"/>
   </g>
   <g id="line2d_276">
    <path d="M 279.696553 244.561022 
L 292.641962 244.561022 
" clip-path="url(#p6208bf1a56)" style="fill: none; stroke: #595959"/>
   </g>
   <g id="line2d_277">
    <path d="M 298.189994 246.974917 
L 311.135402 246.974917 
" clip-path="url(#p6208bf1a56)" style="fill: none; stroke: #595959"/>
   </g>
   <g id="line2d_278">
    <path d="M 316.683434 247.409419 
L 329.628843 247.409419 
" clip-path="url(#p6208bf1a56)" style="fill: none; stroke: #595959"/>
   </g>
   <g id="line2d_279">
    <path d="M 335.176875 242.914209 
L 348.122283 242.914209 
" clip-path="url(#p6208bf1a56)" style="fill: none; stroke: #595959"/>
   </g>
   <g id="line2d_280">
    <path d="M 353.670316 242.442158 
L 366.615724 242.442158 
" clip-path="url(#p6208bf1a56)" style="fill: none; stroke: #595959"/>
   </g>
   <g id="line2d_281">
    <path d="M 372.163756 235.221928 
L 385.109165 235.221928 
" clip-path="url(#p6208bf1a56)" style="fill: none; stroke: #595959"/>
   </g>
   <g id="line2d_282">
    <path d="M 390.657197 235.897819 
L 403.602605 235.897819 
" clip-path="url(#p6208bf1a56)" style="fill: none; stroke: #595959"/>
   </g>
   <g id="line2d_283">
    <path d="M 409.150637 233.698492 
L 422.096046 233.698492 
" clip-path="url(#p6208bf1a56)" style="fill: none; stroke: #595959"/>
   </g>
   <g id="line2d_284">
    <path d="M 427.644078 227.116603 
L 440.589486 227.116603 
" clip-path="url(#p6208bf1a56)" style="fill: none; stroke: #595959"/>
   </g>
   <g id="line2d_285">
    <path d="M 446.137519 227.513555 
L 459.082927 227.513555 
" clip-path="url(#p6208bf1a56)" style="fill: none; stroke: #595959"/>
   </g>
   <g id="line2d_286">
    <path d="M 464.630959 224.332577 
L 477.576368 224.332577 
" clip-path="url(#p6208bf1a56)" style="fill: none; stroke: #595959"/>
   </g>
   <g id="line2d_287">
    <path d="M 483.1244 219.418959 
L 496.069808 219.418959 
" clip-path="url(#p6208bf1a56)" style="fill: none; stroke: #595959"/>
   </g>
   <g id="line2d_288">
    <path d="M 501.61784 220.657708 
L 514.563249 220.657708 
" clip-path="url(#p6208bf1a56)" style="fill: none; stroke: #595959"/>
   </g>
   <g id="line2d_289">
    <path d="M 520.111281 222.363911 
L 533.056689 222.363911 
" clip-path="url(#p6208bf1a56)" style="fill: none; stroke: #595959"/>
   </g>
   <g id="line2d_290">
    <path d="M 538.604722 217.100086 
L 551.55013 217.100086 
" clip-path="url(#p6208bf1a56)" style="fill: none; stroke: #595959"/>
   </g>
   <g id="line2d_291">
    <path d="M 557.098162 209.795562 
L 570.043571 209.795562 
" clip-path="url(#p6208bf1a56)" style="fill: none; stroke: #595959"/>
   </g>
   <g id="line2d_292">
    <path d="M 575.591603 212.955083 
L 588.537011 212.955083 
" clip-path="url(#p6208bf1a56)" style="fill: none; stroke: #595959"/>
   </g>
   <g id="line2d_293">
    <path d="M 594.085043 204.281151 
L 607.030452 204.281151 
" clip-path="url(#p6208bf1a56)" style="fill: none; stroke: #595959"/>
   </g>
   <g id="line2d_294">
    <path d="M 612.578484 203.887418 
L 625.523892 203.887418 
" clip-path="url(#p6208bf1a56)" style="fill: none; stroke: #595959"/>
   </g>
   <g id="line2d_295">
    <path d="M 631.071925 204.511812 
L 644.017333 204.511812 
" clip-path="url(#p6208bf1a56)" style="fill: none; stroke: #595959"/>
   </g>
   <g id="line2d_296">
    <path d="M 649.565365 201.487469 
L 662.510774 201.487469 
" clip-path="url(#p6208bf1a56)" style="fill: none; stroke: #595959"/>
   </g>
   <g id="line2d_297">
    <path d="M 668.058806 201.674144 
L 681.004214 201.674144 
" clip-path="url(#p6208bf1a56)" style="fill: none; stroke: #595959"/>
   </g>
   <g id="line2d_298">
    <path d="M 686.552246 205.078273 
L 699.497655 205.078273 
" clip-path="url(#p6208bf1a56)" style="fill: none; stroke: #595959"/>
   </g>
   <g id="line2d_299">
    <path d="M 705.045687 208.867553 
L 717.991095 208.867553 
" clip-path="url(#p6208bf1a56)" style="fill: none; stroke: #595959"/>
   </g>
   <g id="line2d_300">
    <path d="M 723.539127 200.846983 
L 736.484536 200.846983 
" clip-path="url(#p6208bf1a56)" style="fill: none; stroke: #595959"/>
   </g>
   <g id="line2d_301">
    <path d="M 742.032568 208.047901 
L 754.977976 208.047901 
" clip-path="url(#p6208bf1a56)" style="fill: none; stroke: #595959"/>
   </g>
   <g id="line2d_302">
    <path d="M 760.526009 196.894631 
L 773.471417 196.894631 
" clip-path="url(#p6208bf1a56)" style="fill: none; stroke: #595959"/>
   </g>
   <g id="line2d_303">
    <path d="M 779.019449 197.55121 
L 791.964858 197.55121 
" clip-path="url(#p6208bf1a56)" style="fill: none; stroke: #595959"/>
   </g>
   <g id="line2d_304">
    <path d="M 797.51289 202.878946 
L 810.458298 202.878946 
" clip-path="url(#p6208bf1a56)" style="fill: none; stroke: #595959"/>
   </g>
   <g id="line2d_305">
    <path d="M 816.00633 195.884013 
L 828.951739 195.884013 
" clip-path="url(#p6208bf1a56)" style="fill: none; stroke: #595959"/>
   </g>
   <g id="line2d_306">
    <path d="M 834.499771 198.280743 
L 847.445179 198.280743 
" clip-path="url(#p6208bf1a56)" style="fill: none; stroke: #595959"/>
   </g>
   <g id="line2d_307">
    <path d="M 852.993212 196.270237 
L 865.93862 196.270237 
" clip-path="url(#p6208bf1a56)" style="fill: none; stroke: #595959"/>
   </g>
   <g id="line2d_308">
    <path d="M 871.486652 202.07646 
L 884.432061 202.07646 
" clip-path="url(#p6208bf1a56)" style="fill: none; stroke: #595959"/>
   </g>
   <g id="line2d_309">
    <path d="M 889.980093 194.783277 
L 902.925501 194.783277 
" clip-path="url(#p6208bf1a56)" style="fill: none; stroke: #595959"/>
   </g>
   <g id="line2d_310">
    <path d="M 908.473533 197.840878 
L 921.418942 197.840878 
" clip-path="url(#p6208bf1a56)" style="fill: none; stroke: #595959"/>
   </g>
   <g id="line2d_311">
    <path d="M 926.966974 194.16532 
L 939.912382 194.16532 
" clip-path="url(#p6208bf1a56)" style="fill: none; stroke: #595959"/>
   </g>
   <g id="line2d_312">
    <path d="M 945.460415 194.017267 
L 958.405823 194.017267 
" clip-path="url(#p6208bf1a56)" style="fill: none; stroke: #595959"/>
   </g>
   <g id="line2d_313">
    <path d="M 963.953855 191.120593 
L 976.899264 191.120593 
" clip-path="url(#p6208bf1a56)" style="fill: none; stroke: #595959"/>
   </g>
   <g id="patch_53">
    <path d="M 55.00125 526.5 
L 55.00125 30.58125 
" style="fill: none; stroke: #cccccc; stroke-width: 1.25; stroke-linejoin: miter; stroke-linecap: square"/>
   </g>
   <g id="patch_54">
    <path d="M 988.92 526.5 
L 988.92 30.58125 
" style="fill: none; stroke: #cccccc; stroke-width: 1.25; stroke-linejoin: miter; stroke-linecap: square"/>
   </g>
   <g id="patch_55">
    <path d="M 55.00125 526.5 
L 988.92 526.5 
" style="fill: none; stroke: #cccccc; stroke-width: 1.25; stroke-linejoin: miter; stroke-linecap: square"/>
   </g>
   <g id="patch_56">
    <path d="M 55.00125 30.58125 
L 988.92 30.58125 
" style="fill: none; stroke: #cccccc; stroke-width: 1.25; stroke-linejoin: miter; stroke-linecap: square"/>
   </g>
   <g id="text_16">
    <!-- img-classification - cifar-10 (Accuracy_mean Distribution) -->
    <g style="fill: #262626" transform="translate(302.804375 24.58125) scale(0.16 -0.16)">
     <defs>
      <path id="Arial-BoldMT-69" d="M 459 3769 
L 459 4581 
L 1338 4581 
L 1338 3769 
L 459 3769 
z
M 459 0 
L 459 3319 
L 1338 3319 
L 1338 0 
L 459 0 
z
" transform="scale(0.015625)"/>
      <path id="Arial-BoldMT-6d" d="M 394 3319 
L 1203 3319 
L 1203 2866 
Q 1638 3394 2238 3394 
Q 2556 3394 2790 3262 
Q 3025 3131 3175 2866 
Q 3394 3131 3647 3262 
Q 3900 3394 4188 3394 
Q 4553 3394 4806 3245 
Q 5059 3097 5184 2809 
Q 5275 2597 5275 2122 
L 5275 0 
L 4397 0 
L 4397 1897 
Q 4397 2391 4306 2534 
Q 4184 2722 3931 2722 
Q 3747 2722 3584 2609 
Q 3422 2497 3350 2280 
Q 3278 2063 3278 1594 
L 3278 0 
L 2400 0 
L 2400 1819 
Q 2400 2303 2353 2443 
Q 2306 2584 2207 2653 
Q 2109 2722 1941 2722 
Q 1738 2722 1575 2612 
Q 1413 2503 1342 2297 
Q 1272 2091 1272 1613 
L 1272 0 
L 394 0 
L 394 3319 
z
" transform="scale(0.015625)"/>
      <path id="Arial-BoldMT-67" d="M 378 -219 
L 1381 -341 
Q 1406 -516 1497 -581 
Q 1622 -675 1891 -675 
Q 2234 -675 2406 -572 
Q 2522 -503 2581 -350 
Q 2622 -241 2622 53 
L 2622 538 
Q 2228 0 1628 0 
Q 959 0 569 566 
Q 263 1013 263 1678 
Q 263 2513 664 2953 
Q 1066 3394 1663 3394 
Q 2278 3394 2678 2853 
L 2678 3319 
L 3500 3319 
L 3500 341 
Q 3500 -247 3403 -537 
Q 3306 -828 3131 -993 
Q 2956 -1159 2664 -1253 
Q 2372 -1347 1925 -1347 
Q 1081 -1347 728 -1058 
Q 375 -769 375 -325 
Q 375 -281 378 -219 
z
M 1163 1728 
Q 1163 1200 1367 954 
Q 1572 709 1872 709 
Q 2194 709 2416 961 
Q 2638 1213 2638 1706 
Q 2638 2222 2425 2472 
Q 2213 2722 1888 2722 
Q 1572 2722 1367 2476 
Q 1163 2231 1163 1728 
z
" transform="scale(0.015625)"/>
      <path id="Arial-BoldMT-2d" d="M 359 1222 
L 359 2100 
L 2084 2100 
L 2084 1222 
L 359 1222 
z
" transform="scale(0.015625)"/>
      <path id="Arial-BoldMT-63" d="M 3353 2338 
L 2488 2181 
Q 2444 2441 2289 2572 
Q 2134 2703 1888 2703 
Q 1559 2703 1364 2476 
Q 1169 2250 1169 1719 
Q 1169 1128 1367 884 
Q 1566 641 1900 641 
Q 2150 641 2309 783 
Q 2469 925 2534 1272 
L 3397 1125 
Q 3263 531 2881 228 
Q 2500 -75 1859 -75 
Q 1131 -75 698 384 
Q 266 844 266 1656 
Q 266 2478 700 2936 
Q 1134 3394 1875 3394 
Q 2481 3394 2839 3133 
Q 3197 2872 3353 2338 
z
" transform="scale(0.015625)"/>
      <path id="Arial-BoldMT-6c" d="M 459 0 
L 459 4581 
L 1338 4581 
L 1338 0 
L 459 0 
z
" transform="scale(0.015625)"/>
      <path id="Arial-BoldMT-61" d="M 1116 2306 
L 319 2450 
Q 453 2931 781 3162 
Q 1109 3394 1756 3394 
Q 2344 3394 2631 3255 
Q 2919 3116 3036 2902 
Q 3153 2688 3153 2116 
L 3144 1091 
Q 3144 653 3186 445 
Q 3228 238 3344 0 
L 2475 0 
Q 2441 88 2391 259 
Q 2369 338 2359 363 
Q 2134 144 1878 34 
Q 1622 -75 1331 -75 
Q 819 -75 523 203 
Q 228 481 228 906 
Q 228 1188 362 1408 
Q 497 1628 739 1745 
Q 981 1863 1438 1950 
Q 2053 2066 2291 2166 
L 2291 2253 
Q 2291 2506 2166 2614 
Q 2041 2722 1694 2722 
Q 1459 2722 1328 2630 
Q 1197 2538 1116 2306 
z
M 2291 1594 
Q 2122 1538 1756 1459 
Q 1391 1381 1278 1306 
Q 1106 1184 1106 997 
Q 1106 813 1243 678 
Q 1381 544 1594 544 
Q 1831 544 2047 700 
Q 2206 819 2256 991 
Q 2291 1103 2291 1419 
L 2291 1594 
z
" transform="scale(0.015625)"/>
      <path id="Arial-BoldMT-73" d="M 150 947 
L 1031 1081 
Q 1088 825 1259 692 
Q 1431 559 1741 559 
Q 2081 559 2253 684 
Q 2369 772 2369 919 
Q 2369 1019 2306 1084 
Q 2241 1147 2013 1200 
Q 950 1434 666 1628 
Q 272 1897 272 2375 
Q 272 2806 612 3100 
Q 953 3394 1669 3394 
Q 2350 3394 2681 3172 
Q 3013 2950 3138 2516 
L 2309 2363 
Q 2256 2556 2107 2659 
Q 1959 2763 1684 2763 
Q 1338 2763 1188 2666 
Q 1088 2597 1088 2488 
Q 1088 2394 1175 2328 
Q 1294 2241 1995 2081 
Q 2697 1922 2975 1691 
Q 3250 1456 3250 1038 
Q 3250 581 2869 253 
Q 2488 -75 1741 -75 
Q 1063 -75 667 200 
Q 272 475 150 947 
z
" transform="scale(0.015625)"/>
      <path id="Arial-BoldMT-66" d="M 75 3319 
L 563 3319 
L 563 3569 
Q 563 3988 652 4194 
Q 741 4400 980 4529 
Q 1219 4659 1584 4659 
Q 1959 4659 2319 4547 
L 2200 3934 
Q 1991 3984 1797 3984 
Q 1606 3984 1523 3895 
Q 1441 3806 1441 3553 
L 1441 3319 
L 2097 3319 
L 2097 2628 
L 1441 2628 
L 1441 0 
L 563 0 
L 563 2628 
L 75 2628 
L 75 3319 
z
" transform="scale(0.015625)"/>
      <path id="Arial-BoldMT-74" d="M 1981 3319 
L 1981 2619 
L 1381 2619 
L 1381 1281 
Q 1381 875 1398 808 
Q 1416 741 1477 697 
Q 1538 653 1625 653 
Q 1747 653 1978 738 
L 2053 56 
Q 1747 -75 1359 -75 
Q 1122 -75 931 4 
Q 741 84 652 211 
Q 563 338 528 553 
Q 500 706 500 1172 
L 500 2619 
L 97 2619 
L 97 3319 
L 500 3319 
L 500 3978 
L 1381 4491 
L 1381 3319 
L 1981 3319 
z
" transform="scale(0.015625)"/>
      <path id="Arial-BoldMT-6f" d="M 256 1706 
Q 256 2144 472 2553 
Q 688 2963 1083 3178 
Q 1478 3394 1966 3394 
Q 2719 3394 3200 2905 
Q 3681 2416 3681 1669 
Q 3681 916 3195 420 
Q 2709 -75 1972 -75 
Q 1516 -75 1102 131 
Q 688 338 472 736 
Q 256 1134 256 1706 
z
M 1156 1659 
Q 1156 1166 1390 903 
Q 1625 641 1969 641 
Q 2313 641 2545 903 
Q 2778 1166 2778 1666 
Q 2778 2153 2545 2415 
Q 2313 2678 1969 2678 
Q 1625 2678 1390 2415 
Q 1156 2153 1156 1659 
z
" transform="scale(0.015625)"/>
      <path id="Arial-BoldMT-6e" d="M 3478 0 
L 2600 0 
L 2600 1694 
Q 2600 2231 2544 2389 
Q 2488 2547 2361 2634 
Q 2234 2722 2056 2722 
Q 1828 2722 1647 2597 
Q 1466 2472 1398 2265 
Q 1331 2059 1331 1503 
L 1331 0 
L 453 0 
L 453 3319 
L 1269 3319 
L 1269 2831 
Q 1703 3394 2363 3394 
Q 2653 3394 2893 3289 
Q 3134 3184 3257 3021 
Q 3381 2859 3429 2653 
Q 3478 2447 3478 2063 
L 3478 0 
z
" transform="scale(0.015625)"/>
      <path id="Arial-BoldMT-20" transform="scale(0.015625)"/>
      <path id="Arial-BoldMT-72" d="M 1300 0 
L 422 0 
L 422 3319 
L 1238 3319 
L 1238 2847 
Q 1447 3181 1614 3287 
Q 1781 3394 1994 3394 
Q 2294 3394 2572 3228 
L 2300 2463 
Q 2078 2606 1888 2606 
Q 1703 2606 1575 2504 
Q 1447 2403 1373 2137 
Q 1300 1872 1300 1025 
L 1300 0 
z
" transform="scale(0.015625)"/>
      <path id="Arial-BoldMT-31" d="M 2519 0 
L 1641 0 
L 1641 3309 
Q 1159 2859 506 2644 
L 506 3441 
Q 850 3553 1253 3867 
Q 1656 4181 1806 4600 
L 2519 4600 
L 2519 0 
z
" transform="scale(0.015625)"/>
      <path id="Arial-BoldMT-30" d="M 1756 4600 
Q 2422 4600 2797 4125 
Q 3244 3563 3244 2259 
Q 3244 959 2794 391 
Q 2422 -78 1756 -78 
Q 1088 -78 678 436 
Q 269 950 269 2269 
Q 269 3563 719 4131 
Q 1091 4600 1756 4600 
z
M 1756 3872 
Q 1597 3872 1472 3770 
Q 1347 3669 1278 3406 
Q 1188 3066 1188 2259 
Q 1188 1453 1269 1151 
Q 1350 850 1473 750 
Q 1597 650 1756 650 
Q 1916 650 2041 751 
Q 2166 853 2234 1116 
Q 2325 1453 2325 2259 
Q 2325 3066 2244 3367 
Q 2163 3669 2039 3770 
Q 1916 3872 1756 3872 
z
" transform="scale(0.015625)"/>
      <path id="Arial-BoldMT-28" d="M 1916 -1347 
L 1313 -1347 
Q 834 -625 584 153 
Q 334 931 334 1659 
Q 334 2563 644 3369 
Q 913 4069 1325 4659 
L 1925 4659 
Q 1497 3713 1336 3048 
Q 1175 2384 1175 1641 
Q 1175 1128 1270 590 
Q 1366 53 1531 -431 
Q 1641 -750 1916 -1347 
z
" transform="scale(0.015625)"/>
      <path id="Arial-BoldMT-41" d="M 4597 0 
L 3591 0 
L 3191 1041 
L 1359 1041 
L 981 0 
L 0 0 
L 1784 4581 
L 2763 4581 
L 4597 0 
z
M 2894 1813 
L 2263 3513 
L 1644 1813 
L 2894 1813 
z
" transform="scale(0.015625)"/>
      <path id="Arial-BoldMT-75" d="M 2644 0 
L 2644 497 
Q 2463 231 2167 78 
Q 1872 -75 1544 -75 
Q 1209 -75 943 72 
Q 678 219 559 484 
Q 441 750 441 1219 
L 441 3319 
L 1319 3319 
L 1319 1794 
Q 1319 1094 1367 936 
Q 1416 778 1544 686 
Q 1672 594 1869 594 
Q 2094 594 2272 717 
Q 2450 841 2515 1023 
Q 2581 1206 2581 1919 
L 2581 3319 
L 3459 3319 
L 3459 0 
L 2644 0 
z
" transform="scale(0.015625)"/>
      <path id="Arial-BoldMT-79" d="M 44 3319 
L 978 3319 
L 1772 963 
L 2547 3319 
L 3456 3319 
L 2284 125 
L 2075 -453 
Q 1959 -744 1854 -897 
Q 1750 -1050 1614 -1145 
Q 1478 -1241 1279 -1294 
Q 1081 -1347 831 -1347 
Q 578 -1347 334 -1294 
L 256 -606 
Q 463 -647 628 -647 
Q 934 -647 1081 -467 
Q 1228 -288 1306 -9 
L 44 3319 
z
" transform="scale(0.015625)"/>
      <path id="Arial-BoldMT-5f" d="M -59 -1266 
L -59 -697 
L 3591 -697 
L 3591 -1266 
L -59 -1266 
z
" transform="scale(0.015625)"/>
      <path id="Arial-BoldMT-65" d="M 2381 1056 
L 3256 909 
Q 3088 428 2723 176 
Q 2359 -75 1813 -75 
Q 947 -75 531 491 
Q 203 944 203 1634 
Q 203 2459 634 2926 
Q 1066 3394 1725 3394 
Q 2466 3394 2894 2905 
Q 3322 2416 3303 1406 
L 1103 1406 
Q 1113 1016 1316 798 
Q 1519 581 1822 581 
Q 2028 581 2168 693 
Q 2309 806 2381 1056 
z
M 2431 1944 
Q 2422 2325 2234 2523 
Q 2047 2722 1778 2722 
Q 1491 2722 1303 2513 
Q 1116 2303 1119 1944 
L 2431 1944 
z
" transform="scale(0.015625)"/>
      <path id="Arial-BoldMT-44" d="M 463 4581 
L 2153 4581 
Q 2725 4581 3025 4494 
Q 3428 4375 3715 4072 
Q 4003 3769 4153 3330 
Q 4303 2891 4303 2247 
Q 4303 1681 4163 1272 
Q 3991 772 3672 463 
Q 3431 228 3022 97 
Q 2716 0 2203 0 
L 463 0 
L 463 4581 
z
M 1388 3806 
L 1388 772 
L 2078 772 
Q 2466 772 2638 816 
Q 2863 872 3011 1006 
Q 3159 1141 3253 1448 
Q 3347 1756 3347 2288 
Q 3347 2819 3253 3103 
Q 3159 3388 2990 3547 
Q 2822 3706 2563 3763 
Q 2369 3806 1803 3806 
L 1388 3806 
z
" transform="scale(0.015625)"/>
      <path id="Arial-BoldMT-62" d="M 422 0 
L 422 4581 
L 1300 4581 
L 1300 2931 
Q 1706 3394 2263 3394 
Q 2869 3394 3266 2955 
Q 3663 2516 3663 1694 
Q 3663 844 3258 384 
Q 2853 -75 2275 -75 
Q 1991 -75 1714 67 
Q 1438 209 1238 488 
L 1238 0 
L 422 0 
z
M 1294 1731 
Q 1294 1216 1456 969 
Q 1684 619 2063 619 
Q 2353 619 2558 867 
Q 2763 1116 2763 1650 
Q 2763 2219 2556 2470 
Q 2350 2722 2028 2722 
Q 1713 2722 1503 2476 
Q 1294 2231 1294 1731 
z
" transform="scale(0.015625)"/>
      <path id="Arial-BoldMT-29" d="M 216 -1347 
Q 475 -791 581 -494 
Q 688 -197 778 190 
Q 869 578 912 926 
Q 956 1275 956 1641 
Q 956 2384 797 3048 
Q 638 3713 209 4659 
L 806 4659 
Q 1278 3988 1539 3234 
Q 1800 2481 1800 1706 
Q 1800 1053 1594 306 
Q 1359 -531 822 -1347 
L 216 -1347 
z
" transform="scale(0.015625)"/>
     </defs>
     <use xlink:href="#Arial-BoldMT-69"/>
     <use xlink:href="#Arial-BoldMT-6d" transform="translate(27.783203 0)"/>
     <use xlink:href="#Arial-BoldMT-67" transform="translate(116.699219 0)"/>
     <use xlink:href="#Arial-BoldMT-2d" transform="translate(177.783203 0)"/>
     <use xlink:href="#Arial-BoldMT-63" transform="translate(211.083984 0)"/>
     <use xlink:href="#Arial-BoldMT-6c" transform="translate(266.699219 0)"/>
     <use xlink:href="#Arial-BoldMT-61" transform="translate(294.482422 0)"/>
     <use xlink:href="#Arial-BoldMT-73" transform="translate(350.097656 0)"/>
     <use xlink:href="#Arial-BoldMT-73" transform="translate(405.712891 0)"/>
     <use xlink:href="#Arial-BoldMT-69" transform="translate(461.328125 0)"/>
     <use xlink:href="#Arial-BoldMT-66" transform="translate(489.111328 0)"/>
     <use xlink:href="#Arial-BoldMT-69" transform="translate(522.412109 0)"/>
     <use xlink:href="#Arial-BoldMT-63" transform="translate(550.195312 0)"/>
     <use xlink:href="#Arial-BoldMT-61" transform="translate(605.810547 0)"/>
     <use xlink:href="#Arial-BoldMT-74" transform="translate(661.425781 0)"/>
     <use xlink:href="#Arial-BoldMT-69" transform="translate(694.726562 0)"/>
     <use xlink:href="#Arial-BoldMT-6f" transform="translate(722.509766 0)"/>
     <use xlink:href="#Arial-BoldMT-6e" transform="translate(783.59375 0)"/>
     <use xlink:href="#Arial-BoldMT-20" transform="translate(844.677734 0)"/>
     <use xlink:href="#Arial-BoldMT-2d" transform="translate(872.460938 0)"/>
     <use xlink:href="#Arial-BoldMT-20" transform="translate(905.761719 0)"/>
     <use xlink:href="#Arial-BoldMT-63" transform="translate(933.544922 0)"/>
     <use xlink:href="#Arial-BoldMT-69" transform="translate(989.160156 0)"/>
     <use xlink:href="#Arial-BoldMT-66" transform="translate(1016.943359 0)"/>
     <use xlink:href="#Arial-BoldMT-61" transform="translate(1050.244141 0)"/>
     <use xlink:href="#Arial-BoldMT-72" transform="translate(1105.859375 0)"/>
     <use xlink:href="#Arial-BoldMT-2d" transform="translate(1144.775391 0)"/>
     <use xlink:href="#Arial-BoldMT-31" transform="translate(1178.076172 0)"/>
     <use xlink:href="#Arial-BoldMT-30" transform="translate(1233.691406 0)"/>
     <use xlink:href="#Arial-BoldMT-20" transform="translate(1289.306641 0)"/>
     <use xlink:href="#Arial-BoldMT-28" transform="translate(1317.089844 0)"/>
     <use xlink:href="#Arial-BoldMT-41" transform="translate(1350.390625 0)"/>
     <use xlink:href="#Arial-BoldMT-63" transform="translate(1422.607422 0)"/>
     <use xlink:href="#Arial-BoldMT-63" transform="translate(1478.222656 0)"/>
     <use xlink:href="#Arial-BoldMT-75" transform="translate(1533.837891 0)"/>
     <use xlink:href="#Arial-BoldMT-72" transform="translate(1594.921875 0)"/>
     <use xlink:href="#Arial-BoldMT-61" transform="translate(1633.837891 0)"/>
     <use xlink:href="#Arial-BoldMT-63" transform="translate(1689.453125 0)"/>
     <use xlink:href="#Arial-BoldMT-79" transform="translate(1745.068359 0)"/>
     <use xlink:href="#Arial-BoldMT-5f" transform="translate(1800.683594 0)"/>
     <use xlink:href="#Arial-BoldMT-6d" transform="translate(1856.298828 0)"/>
     <use xlink:href="#Arial-BoldMT-65" transform="translate(1945.214844 0)"/>
     <use xlink:href="#Arial-BoldMT-61" transform="translate(2000.830078 0)"/>
     <use xlink:href="#Arial-BoldMT-6e" transform="translate(2056.445312 0)"/>
     <use xlink:href="#Arial-BoldMT-20" transform="translate(2117.529297 0)"/>
     <use xlink:href="#Arial-BoldMT-44" transform="translate(2145.3125 0)"/>
     <use xlink:href="#Arial-BoldMT-69" transform="translate(2217.529297 0)"/>
     <use xlink:href="#Arial-BoldMT-73" transform="translate(2245.3125 0)"/>
     <use xlink:href="#Arial-BoldMT-74" transform="translate(2300.927734 0)"/>
     <use xlink:href="#Arial-BoldMT-72" transform="translate(2334.228516 0)"/>
     <use xlink:href="#Arial-BoldMT-69" transform="translate(2373.144531 0)"/>
     <use xlink:href="#Arial-BoldMT-62" transform="translate(2400.927734 0)"/>
     <use xlink:href="#Arial-BoldMT-75" transform="translate(2462.011719 0)"/>
     <use xlink:href="#Arial-BoldMT-74" transform="translate(2523.095703 0)"/>
     <use xlink:href="#Arial-BoldMT-69" transform="translate(2556.396484 0)"/>
     <use xlink:href="#Arial-BoldMT-6f" transform="translate(2584.179688 0)"/>
     <use xlink:href="#Arial-BoldMT-6e" transform="translate(2645.263672 0)"/>
     <use xlink:href="#Arial-BoldMT-29" transform="translate(2706.347656 0)"/>
    </g>
   </g>
  </g>
 </g>
 <defs>
  <clipPath id="p6208bf1a56">
   <rect x="55.00125" y="30.58125" width="933.91875" height="495.91875"/>
  </clipPath>
 </defs>
</svg>
