<?xml version="1.0" encoding="utf-8" standalone="no"?>
<!DOCTYPE svg PUBLIC "-//W3C//DTD SVG 1.1//EN"
  "http://www.w3.org/Graphics/SVG/1.1/DTD/svg11.dtd">
<svg xmlns:xlink="http://www.w3.org/1999/xlink" width="1008pt" height="576pt" viewBox="0 0 1008 576" xmlns="http://www.w3.org/2000/svg" version="1.1">
 <metadata>
  <rdf:RDF xmlns:dc="http://purl.org/dc/elements/1.1/" xmlns:cc="http://creativecommons.org/ns#" xmlns:rdf="http://www.w3.org/1999/02/22-rdf-syntax-ns#">
   <cc:Work>
    <dc:type rdf:resource="http://purl.org/dc/dcmitype/StillImage"/>
    <dc:date>2025-03-27T14:00:14.262019</dc:date>
    <dc:format>image/svg+xml</dc:format>
    <dc:creator>
     <cc:Agent>
      <dc:title>Matplotlib v3.10.1, https://matplotlib.org/</dc:title>
     </cc:Agent>
    </dc:creator>
   </cc:Work>
  </rdf:RDF>
 </metadata>
 <defs>
  <style type="text/css">*{stroke-linejoin: round; stroke-linecap: butt}</style>
 </defs>
 <g id="figure_1">
  <g id="patch_1">
   <path d="M 0 576 
L 1008 576 
L 1008 0 
L 0 0 
z
" style="fill: #ffffff"/>
  </g>
  <g id="axes_1">
   <g id="patch_2">
    <path d="M 64.53 525.06 
L 988.11 525.06 
L 988.11 30.48 
L 64.53 30.48 
z
" style="fill: #ffffff"/>
   </g>
   <g id="matplotlib.axis_1">
    <g id="xtick_1">
     <g id="line2d_1">
      <path d="M 73.674356 525.06 
L 73.674356 30.48 
" clip-path="url(#p022e7b1cc0)" style="fill: none; stroke-dasharray: 3.7,1.6; stroke-dashoffset: 0; stroke: #cccccc; stroke-opacity: 0.5"/>
     </g>
     <g id="text_1">
      <!-- 0 -->
      <g style="fill: #262626" transform="translate(70.174981 542.918281) scale(0.11 -0.11)">
       <defs>
        <path id="DejaVuSans-30" d="M 2034 4250 
Q 1547 4250 1301 3770 
Q 1056 3291 1056 2328 
Q 1056 1369 1301 889 
Q 1547 409 2034 409 
Q 2525 409 2770 889 
Q 3016 1369 3016 2328 
Q 3016 3291 2770 3770 
Q 2525 4250 2034 4250 
z
M 2034 4750 
Q 2819 4750 3233 4129 
Q 3647 3509 3647 2328 
Q 3647 1150 3233 529 
Q 2819 -91 2034 -91 
Q 1250 -91 836 529 
Q 422 1150 422 2328 
Q 422 3509 836 4129 
Q 1250 4750 2034 4750 
z
" transform="scale(0.015625)"/>
       </defs>
       <use xlink:href="#DejaVuSans-30"/>
      </g>
     </g>
    </g>
    <g id="xtick_2">
     <g id="line2d_2">
      <path d="M 256.561485 525.06 
L 256.561485 30.48 
" clip-path="url(#p022e7b1cc0)" style="fill: none; stroke-dasharray: 3.7,1.6; stroke-dashoffset: 0; stroke: #cccccc; stroke-opacity: 0.5"/>
     </g>
     <g id="text_2">
      <!-- 10 -->
      <g style="fill: #262626" transform="translate(249.562735 542.918281) scale(0.11 -0.11)">
       <defs>
        <path id="DejaVuSans-31" d="M 794 531 
L 1825 531 
L 1825 4091 
L 703 3866 
L 703 4441 
L 1819 4666 
L 2450 4666 
L 2450 531 
L 3481 531 
L 3481 0 
L 794 0 
L 794 531 
z
" transform="scale(0.015625)"/>
       </defs>
       <use xlink:href="#DejaVuSans-31"/>
       <use xlink:href="#DejaVuSans-30" transform="translate(63.623047 0)"/>
      </g>
     </g>
    </g>
    <g id="xtick_3">
     <g id="line2d_3">
      <path d="M 439.448614 525.06 
L 439.448614 30.48 
" clip-path="url(#p022e7b1cc0)" style="fill: none; stroke-dasharray: 3.7,1.6; stroke-dashoffset: 0; stroke: #cccccc; stroke-opacity: 0.5"/>
     </g>
     <g id="text_3">
      <!-- 20 -->
      <g style="fill: #262626" transform="translate(432.449864 542.918281) scale(0.11 -0.11)">
       <defs>
        <path id="DejaVuSans-32" d="M 1228 531 
L 3431 531 
L 3431 0 
L 469 0 
L 469 531 
Q 828 903 1448 1529 
Q 2069 2156 2228 2338 
Q 2531 2678 2651 2914 
Q 2772 3150 2772 3378 
Q 2772 3750 2511 3984 
Q 2250 4219 1831 4219 
Q 1534 4219 1204 4116 
Q 875 4013 500 3803 
L 500 4441 
Q 881 4594 1212 4672 
Q 1544 4750 1819 4750 
Q 2544 4750 2975 4387 
Q 3406 4025 3406 3419 
Q 3406 3131 3298 2873 
Q 3191 2616 2906 2266 
Q 2828 2175 2409 1742 
Q 1991 1309 1228 531 
z
" transform="scale(0.015625)"/>
       </defs>
       <use xlink:href="#DejaVuSans-32"/>
       <use xlink:href="#DejaVuSans-30" transform="translate(63.623047 0)"/>
      </g>
     </g>
    </g>
    <g id="xtick_4">
     <g id="line2d_4">
      <path d="M 622.335743 525.06 
L 622.335743 30.48 
" clip-path="url(#p022e7b1cc0)" style="fill: none; stroke-dasharray: 3.7,1.6; stroke-dashoffset: 0; stroke: #cccccc; stroke-opacity: 0.5"/>
     </g>
     <g id="text_4">
      <!-- 30 -->
      <g style="fill: #262626" transform="translate(615.336993 542.918281) scale(0.11 -0.11)">
       <defs>
        <path id="DejaVuSans-33" d="M 2597 2516 
Q 3050 2419 3304 2112 
Q 3559 1806 3559 1356 
Q 3559 666 3084 287 
Q 2609 -91 1734 -91 
Q 1441 -91 1130 -33 
Q 819 25 488 141 
L 488 750 
Q 750 597 1062 519 
Q 1375 441 1716 441 
Q 2309 441 2620 675 
Q 2931 909 2931 1356 
Q 2931 1769 2642 2001 
Q 2353 2234 1838 2234 
L 1294 2234 
L 1294 2753 
L 1863 2753 
Q 2328 2753 2575 2939 
Q 2822 3125 2822 3475 
Q 2822 3834 2567 4026 
Q 2313 4219 1838 4219 
Q 1578 4219 1281 4162 
Q 984 4106 628 3988 
L 628 4550 
Q 988 4650 1302 4700 
Q 1616 4750 1894 4750 
Q 2613 4750 3031 4423 
Q 3450 4097 3450 3541 
Q 3450 3153 3228 2886 
Q 3006 2619 2597 2516 
z
" transform="scale(0.015625)"/>
       </defs>
       <use xlink:href="#DejaVuSans-33"/>
       <use xlink:href="#DejaVuSans-30" transform="translate(63.623047 0)"/>
      </g>
     </g>
    </g>
    <g id="xtick_5">
     <g id="line2d_5">
      <path d="M 805.222871 525.06 
L 805.222871 30.48 
" clip-path="url(#p022e7b1cc0)" style="fill: none; stroke-dasharray: 3.7,1.6; stroke-dashoffset: 0; stroke: #cccccc; stroke-opacity: 0.5"/>
     </g>
     <g id="text_5">
      <!-- 40 -->
      <g style="fill: #262626" transform="translate(798.224121 542.918281) scale(0.11 -0.11)">
       <defs>
        <path id="DejaVuSans-34" d="M 2419 4116 
L 825 1625 
L 2419 1625 
L 2419 4116 
z
M 2253 4666 
L 3047 4666 
L 3047 1625 
L 3713 1625 
L 3713 1100 
L 3047 1100 
L 3047 0 
L 2419 0 
L 2419 1100 
L 313 1100 
L 313 1709 
L 2253 4666 
z
" transform="scale(0.015625)"/>
       </defs>
       <use xlink:href="#DejaVuSans-34"/>
       <use xlink:href="#DejaVuSans-30" transform="translate(63.623047 0)"/>
      </g>
     </g>
    </g>
    <g id="xtick_6">
     <g id="line2d_6">
      <path d="M 988.11 525.06 
L 988.11 30.48 
" clip-path="url(#p022e7b1cc0)" style="fill: none; stroke-dasharray: 3.7,1.6; stroke-dashoffset: 0; stroke: #cccccc; stroke-opacity: 0.5"/>
     </g>
     <g id="text_6">
      <!-- 50 -->
      <g style="fill: #262626" transform="translate(981.11125 542.918281) scale(0.11 -0.11)">
       <defs>
        <path id="DejaVuSans-35" d="M 691 4666 
L 3169 4666 
L 3169 4134 
L 1269 4134 
L 1269 2991 
Q 1406 3038 1543 3061 
Q 1681 3084 1819 3084 
Q 2600 3084 3056 2656 
Q 3513 2228 3513 1497 
Q 3513 744 3044 326 
Q 2575 -91 1722 -91 
Q 1428 -91 1123 -41 
Q 819 9 494 109 
L 494 744 
Q 775 591 1075 516 
Q 1375 441 1709 441 
Q 2250 441 2565 725 
Q 2881 1009 2881 1497 
Q 2881 1984 2565 2268 
Q 2250 2553 1709 2553 
Q 1456 2553 1204 2497 
Q 953 2441 691 2322 
L 691 4666 
z
" transform="scale(0.015625)"/>
       </defs>
       <use xlink:href="#DejaVuSans-35"/>
       <use xlink:href="#DejaVuSans-30" transform="translate(63.623047 0)"/>
      </g>
     </g>
    </g>
    <g id="text_7">
     <!-- Epoch -->
     <g style="fill: #262626" transform="translate(504.884688 559.84375) scale(0.14 -0.14)">
      <defs>
       <path id="DejaVuSans-45" d="M 628 4666 
L 3578 4666 
L 3578 4134 
L 1259 4134 
L 1259 2753 
L 3481 2753 
L 3481 2222 
L 1259 2222 
L 1259 531 
L 3634 531 
L 3634 0 
L 628 0 
L 628 4666 
z
" transform="scale(0.015625)"/>
       <path id="DejaVuSans-70" d="M 1159 525 
L 1159 -1331 
L 581 -1331 
L 581 3500 
L 1159 3500 
L 1159 2969 
Q 1341 3281 1617 3432 
Q 1894 3584 2278 3584 
Q 2916 3584 3314 3078 
Q 3713 2572 3713 1747 
Q 3713 922 3314 415 
Q 2916 -91 2278 -91 
Q 1894 -91 1617 61 
Q 1341 213 1159 525 
z
M 3116 1747 
Q 3116 2381 2855 2742 
Q 2594 3103 2138 3103 
Q 1681 3103 1420 2742 
Q 1159 2381 1159 1747 
Q 1159 1113 1420 752 
Q 1681 391 2138 391 
Q 2594 391 2855 752 
Q 3116 1113 3116 1747 
z
" transform="scale(0.015625)"/>
       <path id="DejaVuSans-6f" d="M 1959 3097 
Q 1497 3097 1228 2736 
Q 959 2375 959 1747 
Q 959 1119 1226 758 
Q 1494 397 1959 397 
Q 2419 397 2687 759 
Q 2956 1122 2956 1747 
Q 2956 2369 2687 2733 
Q 2419 3097 1959 3097 
z
M 1959 3584 
Q 2709 3584 3137 3096 
Q 3566 2609 3566 1747 
Q 3566 888 3137 398 
Q 2709 -91 1959 -91 
Q 1206 -91 779 398 
Q 353 888 353 1747 
Q 353 2609 779 3096 
Q 1206 3584 1959 3584 
z
" transform="scale(0.015625)"/>
       <path id="DejaVuSans-63" d="M 3122 3366 
L 3122 2828 
Q 2878 2963 2633 3030 
Q 2388 3097 2138 3097 
Q 1578 3097 1268 2742 
Q 959 2388 959 1747 
Q 959 1106 1268 751 
Q 1578 397 2138 397 
Q 2388 397 2633 464 
Q 2878 531 3122 666 
L 3122 134 
Q 2881 22 2623 -34 
Q 2366 -91 2075 -91 
Q 1284 -91 818 406 
Q 353 903 353 1747 
Q 353 2603 823 3093 
Q 1294 3584 2113 3584 
Q 2378 3584 2631 3529 
Q 2884 3475 3122 3366 
z
" transform="scale(0.015625)"/>
       <path id="DejaVuSans-68" d="M 3513 2113 
L 3513 0 
L 2938 0 
L 2938 2094 
Q 2938 2591 2744 2837 
Q 2550 3084 2163 3084 
Q 1697 3084 1428 2787 
Q 1159 2491 1159 1978 
L 1159 0 
L 581 0 
L 581 4863 
L 1159 4863 
L 1159 2956 
Q 1366 3272 1645 3428 
Q 1925 3584 2291 3584 
Q 2894 3584 3203 3211 
Q 3513 2838 3513 2113 
z
" transform="scale(0.015625)"/>
      </defs>
      <use xlink:href="#DejaVuSans-45"/>
      <use xlink:href="#DejaVuSans-70" transform="translate(63.183594 0)"/>
      <use xlink:href="#DejaVuSans-6f" transform="translate(126.660156 0)"/>
      <use xlink:href="#DejaVuSans-63" transform="translate(187.841797 0)"/>
      <use xlink:href="#DejaVuSans-68" transform="translate(242.822266 0)"/>
     </g>
    </g>
   </g>
   <g id="matplotlib.axis_2">
    <g id="ytick_1">
     <g id="line2d_7">
      <path d="M 64.53 423.170287 
L 988.11 423.170287 
" clip-path="url(#p022e7b1cc0)" style="fill: none; stroke-dasharray: 3.7,1.6; stroke-dashoffset: 0; stroke: #cccccc; stroke-opacity: 0.5"/>
     </g>
     <g id="text_8">
      <!-- 0.15 -->
      <g style="fill: #262626" transform="translate(30.537813 427.349428) scale(0.11 -0.11)">
       <defs>
        <path id="DejaVuSans-2e" d="M 684 794 
L 1344 794 
L 1344 0 
L 684 0 
L 684 794 
z
" transform="scale(0.015625)"/>
       </defs>
       <use xlink:href="#DejaVuSans-30"/>
       <use xlink:href="#DejaVuSans-2e" transform="translate(63.623047 0)"/>
       <use xlink:href="#DejaVuSans-31" transform="translate(95.410156 0)"/>
       <use xlink:href="#DejaVuSans-35" transform="translate(159.033203 0)"/>
      </g>
     </g>
    </g>
    <g id="ytick_2">
     <g id="line2d_8">
      <path d="M 64.53 317.052284 
L 988.11 317.052284 
" clip-path="url(#p022e7b1cc0)" style="fill: none; stroke-dasharray: 3.7,1.6; stroke-dashoffset: 0; stroke: #cccccc; stroke-opacity: 0.5"/>
     </g>
     <g id="text_9">
      <!-- 0.20 -->
      <g style="fill: #262626" transform="translate(30.537813 321.231424) scale(0.11 -0.11)">
       <use xlink:href="#DejaVuSans-30"/>
       <use xlink:href="#DejaVuSans-2e" transform="translate(63.623047 0)"/>
       <use xlink:href="#DejaVuSans-32" transform="translate(95.410156 0)"/>
       <use xlink:href="#DejaVuSans-30" transform="translate(159.033203 0)"/>
      </g>
     </g>
    </g>
    <g id="ytick_3">
     <g id="line2d_9">
      <path d="M 64.53 210.93428 
L 988.11 210.93428 
" clip-path="url(#p022e7b1cc0)" style="fill: none; stroke-dasharray: 3.7,1.6; stroke-dashoffset: 0; stroke: #cccccc; stroke-opacity: 0.5"/>
     </g>
     <g id="text_10">
      <!-- 0.25 -->
      <g style="fill: #262626" transform="translate(30.537813 215.113421) scale(0.11 -0.11)">
       <use xlink:href="#DejaVuSans-30"/>
       <use xlink:href="#DejaVuSans-2e" transform="translate(63.623047 0)"/>
       <use xlink:href="#DejaVuSans-32" transform="translate(95.410156 0)"/>
       <use xlink:href="#DejaVuSans-35" transform="translate(159.033203 0)"/>
      </g>
     </g>
    </g>
    <g id="ytick_4">
     <g id="line2d_10">
      <path d="M 64.53 104.816277 
L 988.11 104.816277 
" clip-path="url(#p022e7b1cc0)" style="fill: none; stroke-dasharray: 3.7,1.6; stroke-dashoffset: 0; stroke: #cccccc; stroke-opacity: 0.5"/>
     </g>
     <g id="text_11">
      <!-- 0.30 -->
      <g style="fill: #262626" transform="translate(30.537813 108.995418) scale(0.11 -0.11)">
       <use xlink:href="#DejaVuSans-30"/>
       <use xlink:href="#DejaVuSans-2e" transform="translate(63.623047 0)"/>
       <use xlink:href="#DejaVuSans-33" transform="translate(95.410156 0)"/>
       <use xlink:href="#DejaVuSans-30" transform="translate(159.033203 0)"/>
      </g>
     </g>
    </g>
    <g id="text_12">
     <!-- Iou_mean -->
     <g style="fill: #262626" transform="translate(23.236875 311.905937) rotate(-90) scale(0.14 -0.14)">
      <defs>
       <path id="DejaVuSans-49" d="M 628 4666 
L 1259 4666 
L 1259 0 
L 628 0 
L 628 4666 
z
" transform="scale(0.015625)"/>
       <path id="DejaVuSans-75" d="M 544 1381 
L 544 3500 
L 1119 3500 
L 1119 1403 
Q 1119 906 1312 657 
Q 1506 409 1894 409 
Q 2359 409 2629 706 
Q 2900 1003 2900 1516 
L 2900 3500 
L 3475 3500 
L 3475 0 
L 2900 0 
L 2900 538 
Q 2691 219 2414 64 
Q 2138 -91 1772 -91 
Q 1169 -91 856 284 
Q 544 659 544 1381 
z
M 1991 3584 
L 1991 3584 
z
" transform="scale(0.015625)"/>
       <path id="DejaVuSans-5f" d="M 3263 -1063 
L 3263 -1509 
L -63 -1509 
L -63 -1063 
L 3263 -1063 
z
" transform="scale(0.015625)"/>
       <path id="DejaVuSans-6d" d="M 3328 2828 
Q 3544 3216 3844 3400 
Q 4144 3584 4550 3584 
Q 5097 3584 5394 3201 
Q 5691 2819 5691 2113 
L 5691 0 
L 5113 0 
L 5113 2094 
Q 5113 2597 4934 2840 
Q 4756 3084 4391 3084 
Q 3944 3084 3684 2787 
Q 3425 2491 3425 1978 
L 3425 0 
L 2847 0 
L 2847 2094 
Q 2847 2600 2669 2842 
Q 2491 3084 2119 3084 
Q 1678 3084 1418 2786 
Q 1159 2488 1159 1978 
L 1159 0 
L 581 0 
L 581 3500 
L 1159 3500 
L 1159 2956 
Q 1356 3278 1631 3431 
Q 1906 3584 2284 3584 
Q 2666 3584 2933 3390 
Q 3200 3197 3328 2828 
z
" transform="scale(0.015625)"/>
       <path id="DejaVuSans-65" d="M 3597 1894 
L 3597 1613 
L 953 1613 
Q 991 1019 1311 708 
Q 1631 397 2203 397 
Q 2534 397 2845 478 
Q 3156 559 3463 722 
L 3463 178 
Q 3153 47 2828 -22 
Q 2503 -91 2169 -91 
Q 1331 -91 842 396 
Q 353 884 353 1716 
Q 353 2575 817 3079 
Q 1281 3584 2069 3584 
Q 2775 3584 3186 3129 
Q 3597 2675 3597 1894 
z
M 3022 2063 
Q 3016 2534 2758 2815 
Q 2500 3097 2075 3097 
Q 1594 3097 1305 2825 
Q 1016 2553 972 2059 
L 3022 2063 
z
" transform="scale(0.015625)"/>
       <path id="DejaVuSans-61" d="M 2194 1759 
Q 1497 1759 1228 1600 
Q 959 1441 959 1056 
Q 959 750 1161 570 
Q 1363 391 1709 391 
Q 2188 391 2477 730 
Q 2766 1069 2766 1631 
L 2766 1759 
L 2194 1759 
z
M 3341 1997 
L 3341 0 
L 2766 0 
L 2766 531 
Q 2569 213 2275 61 
Q 1981 -91 1556 -91 
Q 1019 -91 701 211 
Q 384 513 384 1019 
Q 384 1609 779 1909 
Q 1175 2209 1959 2209 
L 2766 2209 
L 2766 2266 
Q 2766 2663 2505 2880 
Q 2244 3097 1772 3097 
Q 1472 3097 1187 3025 
Q 903 2953 641 2809 
L 641 3341 
Q 956 3463 1253 3523 
Q 1550 3584 1831 3584 
Q 2591 3584 2966 3190 
Q 3341 2797 3341 1997 
z
" transform="scale(0.015625)"/>
       <path id="DejaVuSans-6e" d="M 3513 2113 
L 3513 0 
L 2938 0 
L 2938 2094 
Q 2938 2591 2744 2837 
Q 2550 3084 2163 3084 
Q 1697 3084 1428 2787 
Q 1159 2491 1159 1978 
L 1159 0 
L 581 0 
L 581 3500 
L 1159 3500 
L 1159 2956 
Q 1366 3272 1645 3428 
Q 1925 3584 2291 3584 
Q 2894 3584 3203 3211 
Q 3513 2838 3513 2113 
z
" transform="scale(0.015625)"/>
      </defs>
      <use xlink:href="#DejaVuSans-49"/>
      <use xlink:href="#DejaVuSans-6f" transform="translate(29.492188 0)"/>
      <use xlink:href="#DejaVuSans-75" transform="translate(90.673828 0)"/>
      <use xlink:href="#DejaVuSans-5f" transform="translate(154.052734 0)"/>
      <use xlink:href="#DejaVuSans-6d" transform="translate(204.052734 0)"/>
      <use xlink:href="#DejaVuSans-65" transform="translate(301.464844 0)"/>
      <use xlink:href="#DejaVuSans-61" transform="translate(362.988281 0)"/>
      <use xlink:href="#DejaVuSans-6e" transform="translate(424.267578 0)"/>
     </g>
    </g>
   </g>
   <g id="patch_3">
    <path d="M 67.273307 407.506961 
L 80.075406 407.506961 
L 80.075406 362.660982 
L 67.273307 362.660982 
L 67.273307 407.506961 
z
" clip-path="url(#p022e7b1cc0)" style="fill: #72b6a1; stroke: #595959; stroke-linejoin: miter"/>
   </g>
   <g id="line2d_11">
    <path d="M 73.674356 407.506961 
L 73.674356 428.23912 
" clip-path="url(#p022e7b1cc0)" style="fill: none; stroke: #595959"/>
   </g>
   <g id="line2d_12">
    <path d="M 73.674356 362.660982 
L 73.674356 352.121809 
" clip-path="url(#p022e7b1cc0)" style="fill: none; stroke: #595959"/>
   </g>
   <g id="line2d_13">
    <path d="M 70.473832 428.23912 
L 76.874881 428.23912 
" clip-path="url(#p022e7b1cc0)" style="fill: none; stroke: #595959; stroke-linecap: round"/>
   </g>
   <g id="line2d_14">
    <path d="M 70.473832 352.121809 
L 76.874881 352.121809 
" clip-path="url(#p022e7b1cc0)" style="fill: none; stroke: #595959; stroke-linecap: round"/>
   </g>
   <g id="line2d_15">
    <defs>
     <path id="m5a691e50ee" d="M 0 3 
C 0.795609 3 1.55874 2.683901 2.12132 2.12132 
C 2.683901 1.55874 3 0.795609 3 0 
C 3 -0.795609 2.683901 -1.55874 2.12132 -2.12132 
C 1.55874 -2.683901 0.795609 -3 0 -3 
C -0.795609 -3 -1.55874 -2.683901 -2.12132 -2.12132 
C -2.683901 -1.55874 -3 -0.795609 -3 0 
C -3 0.795609 -2.683901 1.55874 -2.12132 2.12132 
C -1.55874 2.683901 -0.795609 3 0 3 
z
" style="stroke: #595959"/>
    </defs>
    <g clip-path="url(#p022e7b1cc0)">
     <use xlink:href="#m5a691e50ee" x="73.674356" y="277.720684" style="fill-opacity: 0; stroke: #595959"/>
    </g>
   </g>
   <g id="patch_4">
    <path d="M 85.56202 392.174116 
L 98.364119 392.174116 
L 98.364119 289.112727 
L 85.56202 289.112727 
L 85.56202 392.174116 
z
" clip-path="url(#p022e7b1cc0)" style="fill: #72b6a1; stroke: #595959; stroke-linejoin: miter"/>
   </g>
   <g id="line2d_16">
    <path d="M 91.963069 392.174116 
L 91.963069 426.262505 
" clip-path="url(#p022e7b1cc0)" style="fill: none; stroke: #595959"/>
   </g>
   <g id="line2d_17">
    <path d="M 91.963069 289.112727 
L 91.963069 163.886919 
" clip-path="url(#p022e7b1cc0)" style="fill: none; stroke: #595959"/>
   </g>
   <g id="line2d_18">
    <path d="M 88.762545 426.262505 
L 95.163594 426.262505 
" clip-path="url(#p022e7b1cc0)" style="fill: none; stroke: #595959; stroke-linecap: round"/>
   </g>
   <g id="line2d_19">
    <path d="M 88.762545 163.886919 
L 95.163594 163.886919 
" clip-path="url(#p022e7b1cc0)" style="fill: none; stroke: #595959; stroke-linecap: round"/>
   </g>
   <g id="line2d_20"/>
   <g id="patch_5">
    <path d="M 103.850733 369.016779 
L 116.652832 369.016779 
L 116.652832 255.977622 
L 103.850733 255.977622 
L 103.850733 369.016779 
z
" clip-path="url(#p022e7b1cc0)" style="fill: #72b6a1; stroke: #595959; stroke-linejoin: miter"/>
   </g>
   <g id="line2d_21">
    <path d="M 110.251782 369.016779 
L 110.251782 411.069409 
" clip-path="url(#p022e7b1cc0)" style="fill: none; stroke: #595959"/>
   </g>
   <g id="line2d_22">
    <path d="M 110.251782 255.977622 
L 110.251782 162.888687 
" clip-path="url(#p022e7b1cc0)" style="fill: none; stroke: #595959"/>
   </g>
   <g id="line2d_23">
    <path d="M 107.051257 411.069409 
L 113.452307 411.069409 
" clip-path="url(#p022e7b1cc0)" style="fill: none; stroke: #595959; stroke-linecap: round"/>
   </g>
   <g id="line2d_24">
    <path d="M 107.051257 162.888687 
L 113.452307 162.888687 
" clip-path="url(#p022e7b1cc0)" style="fill: none; stroke: #595959; stroke-linecap: round"/>
   </g>
   <g id="line2d_25"/>
   <g id="patch_6">
    <path d="M 122.139446 346.989402 
L 134.941545 346.989402 
L 134.941545 231.156694 
L 122.139446 231.156694 
L 122.139446 346.989402 
z
" clip-path="url(#p022e7b1cc0)" style="fill: #72b6a1; stroke: #595959; stroke-linejoin: miter"/>
   </g>
   <g id="line2d_26">
    <path d="M 128.540495 346.989402 
L 128.540495 420.134362 
" clip-path="url(#p022e7b1cc0)" style="fill: none; stroke: #595959"/>
   </g>
   <g id="line2d_27">
    <path d="M 128.540495 231.156694 
L 128.540495 72.09024 
" clip-path="url(#p022e7b1cc0)" style="fill: none; stroke: #595959"/>
   </g>
   <g id="line2d_28">
    <path d="M 125.33997 420.134362 
L 131.74102 420.134362 
" clip-path="url(#p022e7b1cc0)" style="fill: none; stroke: #595959; stroke-linecap: round"/>
   </g>
   <g id="line2d_29">
    <path d="M 125.33997 72.09024 
L 131.74102 72.09024 
" clip-path="url(#p022e7b1cc0)" style="fill: none; stroke: #595959; stroke-linecap: round"/>
   </g>
   <g id="line2d_30"/>
   <g id="patch_7">
    <path d="M 140.428158 339.340431 
L 153.230257 339.340431 
L 153.230257 213.610219 
L 140.428158 213.610219 
L 140.428158 339.340431 
z
" clip-path="url(#p022e7b1cc0)" style="fill: #72b6a1; stroke: #595959; stroke-linejoin: miter"/>
   </g>
   <g id="line2d_31">
    <path d="M 146.829208 339.340431 
L 146.829208 378.337604 
" clip-path="url(#p022e7b1cc0)" style="fill: none; stroke: #595959"/>
   </g>
   <g id="line2d_32">
    <path d="M 146.829208 213.610219 
L 146.829208 52.960909 
" clip-path="url(#p022e7b1cc0)" style="fill: none; stroke: #595959"/>
   </g>
   <g id="line2d_33">
    <path d="M 143.628683 378.337604 
L 150.029733 378.337604 
" clip-path="url(#p022e7b1cc0)" style="fill: none; stroke: #595959; stroke-linecap: round"/>
   </g>
   <g id="line2d_34">
    <path d="M 143.628683 52.960909 
L 150.029733 52.960909 
" clip-path="url(#p022e7b1cc0)" style="fill: none; stroke: #595959; stroke-linecap: round"/>
   </g>
   <g id="line2d_35"/>
   <g id="patch_8">
    <path d="M 158.716871 416.234523 
L 171.51897 416.234523 
L 171.51897 347.513533 
L 158.716871 347.513533 
L 158.716871 416.234523 
z
" clip-path="url(#p022e7b1cc0)" style="fill: #72b6a1; stroke: #595959; stroke-linejoin: miter"/>
   </g>
   <g id="line2d_36">
    <path d="M 165.117921 416.234523 
L 165.117921 453.426087 
" clip-path="url(#p022e7b1cc0)" style="fill: none; stroke: #595959"/>
   </g>
   <g id="line2d_37">
    <path d="M 165.117921 347.513533 
L 165.117921 263.683806 
" clip-path="url(#p022e7b1cc0)" style="fill: none; stroke: #595959"/>
   </g>
   <g id="line2d_38">
    <path d="M 161.917396 453.426087 
L 168.318446 453.426087 
" clip-path="url(#p022e7b1cc0)" style="fill: none; stroke: #595959; stroke-linecap: round"/>
   </g>
   <g id="line2d_39">
    <path d="M 161.917396 263.683806 
L 168.318446 263.683806 
" clip-path="url(#p022e7b1cc0)" style="fill: none; stroke: #595959; stroke-linecap: round"/>
   </g>
   <g id="line2d_40"/>
   <g id="patch_9">
    <path d="M 177.005584 415.296892 
L 189.807683 415.296892 
L 189.807683 357.968534 
L 177.005584 357.968534 
L 177.005584 415.296892 
z
" clip-path="url(#p022e7b1cc0)" style="fill: #72b6a1; stroke: #595959; stroke-linejoin: miter"/>
   </g>
   <g id="line2d_41">
    <path d="M 183.406634 415.296892 
L 183.406634 453.110795 
" clip-path="url(#p022e7b1cc0)" style="fill: none; stroke: #595959"/>
   </g>
   <g id="line2d_42">
    <path d="M 183.406634 357.968534 
L 183.406634 333.215262 
" clip-path="url(#p022e7b1cc0)" style="fill: none; stroke: #595959"/>
   </g>
   <g id="line2d_43">
    <path d="M 180.206109 453.110795 
L 186.607158 453.110795 
" clip-path="url(#p022e7b1cc0)" style="fill: none; stroke: #595959; stroke-linecap: round"/>
   </g>
   <g id="line2d_44">
    <path d="M 180.206109 333.215262 
L 186.607158 333.215262 
" clip-path="url(#p022e7b1cc0)" style="fill: none; stroke: #595959; stroke-linecap: round"/>
   </g>
   <g id="line2d_45">
    <g clip-path="url(#p022e7b1cc0)">
     <use xlink:href="#m5a691e50ee" x="183.406634" y="204.509081" style="fill-opacity: 0; stroke: #595959"/>
    </g>
   </g>
   <g id="patch_10">
    <path d="M 195.294297 443.750202 
L 208.096396 443.750202 
L 208.096396 336.853301 
L 195.294297 336.853301 
L 195.294297 443.750202 
z
" clip-path="url(#p022e7b1cc0)" style="fill: #72b6a1; stroke: #595959; stroke-linejoin: miter"/>
   </g>
   <g id="line2d_46">
    <path d="M 201.695347 443.750202 
L 201.695347 454.388819 
" clip-path="url(#p022e7b1cc0)" style="fill: none; stroke: #595959"/>
   </g>
   <g id="line2d_47">
    <path d="M 201.695347 336.853301 
L 201.695347 236.781444 
" clip-path="url(#p022e7b1cc0)" style="fill: none; stroke: #595959"/>
   </g>
   <g id="line2d_48">
    <path d="M 198.494822 454.388819 
L 204.895871 454.388819 
" clip-path="url(#p022e7b1cc0)" style="fill: none; stroke: #595959; stroke-linecap: round"/>
   </g>
   <g id="line2d_49">
    <path d="M 198.494822 236.781444 
L 204.895871 236.781444 
" clip-path="url(#p022e7b1cc0)" style="fill: none; stroke: #595959; stroke-linecap: round"/>
   </g>
   <g id="line2d_50"/>
   <g id="patch_11">
    <path d="M 213.58301 453.050406 
L 226.385109 453.050406 
L 226.385109 334.097557 
L 213.58301 334.097557 
L 213.58301 453.050406 
z
" clip-path="url(#p022e7b1cc0)" style="fill: #72b6a1; stroke: #595959; stroke-linejoin: miter"/>
   </g>
   <g id="line2d_51">
    <path d="M 219.984059 453.050406 
L 219.984059 502.579091 
" clip-path="url(#p022e7b1cc0)" style="fill: none; stroke: #595959"/>
   </g>
   <g id="line2d_52">
    <path d="M 219.984059 334.097557 
L 219.984059 241.390046 
" clip-path="url(#p022e7b1cc0)" style="fill: none; stroke: #595959"/>
   </g>
   <g id="line2d_53">
    <path d="M 216.783535 502.579091 
L 223.184584 502.579091 
" clip-path="url(#p022e7b1cc0)" style="fill: none; stroke: #595959; stroke-linecap: round"/>
   </g>
   <g id="line2d_54">
    <path d="M 216.783535 241.390046 
L 223.184584 241.390046 
" clip-path="url(#p022e7b1cc0)" style="fill: none; stroke: #595959; stroke-linecap: round"/>
   </g>
   <g id="line2d_55"/>
   <g id="patch_12">
    <path d="M 231.871723 435.059732 
L 244.673822 435.059732 
L 244.673822 291.698241 
L 231.871723 291.698241 
L 231.871723 435.059732 
z
" clip-path="url(#p022e7b1cc0)" style="fill: #72b6a1; stroke: #595959; stroke-linejoin: miter"/>
   </g>
   <g id="line2d_56">
    <path d="M 238.272772 435.059732 
L 238.272772 454.388819 
" clip-path="url(#p022e7b1cc0)" style="fill: none; stroke: #595959"/>
   </g>
   <g id="line2d_57">
    <path d="M 238.272772 291.698241 
L 238.272772 160.97832 
" clip-path="url(#p022e7b1cc0)" style="fill: none; stroke: #595959"/>
   </g>
   <g id="line2d_58">
    <path d="M 235.072248 454.388819 
L 241.473297 454.388819 
" clip-path="url(#p022e7b1cc0)" style="fill: none; stroke: #595959; stroke-linecap: round"/>
   </g>
   <g id="line2d_59">
    <path d="M 235.072248 160.97832 
L 241.473297 160.97832 
" clip-path="url(#p022e7b1cc0)" style="fill: none; stroke: #595959; stroke-linecap: round"/>
   </g>
   <g id="line2d_60"/>
   <g id="patch_13">
    <path d="M 250.160436 433.408352 
L 262.962535 433.408352 
L 262.962535 272.065348 
L 250.160436 272.065348 
L 250.160436 433.408352 
z
" clip-path="url(#p022e7b1cc0)" style="fill: #72b6a1; stroke: #595959; stroke-linejoin: miter"/>
   </g>
   <g id="line2d_61">
    <path d="M 256.561485 433.408352 
L 256.561485 454.388819 
" clip-path="url(#p022e7b1cc0)" style="fill: none; stroke: #595959"/>
   </g>
   <g id="line2d_62">
    <path d="M 256.561485 272.065348 
L 256.561485 178.709314 
" clip-path="url(#p022e7b1cc0)" style="fill: none; stroke: #595959"/>
   </g>
   <g id="line2d_63">
    <path d="M 253.36096 454.388819 
L 259.76201 454.388819 
" clip-path="url(#p022e7b1cc0)" style="fill: none; stroke: #595959; stroke-linecap: round"/>
   </g>
   <g id="line2d_64">
    <path d="M 253.36096 178.709314 
L 259.76201 178.709314 
" clip-path="url(#p022e7b1cc0)" style="fill: none; stroke: #595959; stroke-linecap: round"/>
   </g>
   <g id="line2d_65"/>
   <g id="patch_14">
    <path d="M 268.449149 428.514824 
L 281.251248 428.514824 
L 281.251248 283.703759 
L 268.449149 283.703759 
L 268.449149 428.514824 
z
" clip-path="url(#p022e7b1cc0)" style="fill: #72b6a1; stroke: #595959; stroke-linejoin: miter"/>
   </g>
   <g id="line2d_66">
    <path d="M 274.850198 428.514824 
L 274.850198 454.388819 
" clip-path="url(#p022e7b1cc0)" style="fill: none; stroke: #595959"/>
   </g>
   <g id="line2d_67">
    <path d="M 274.850198 283.703759 
L 274.850198 176.084972 
" clip-path="url(#p022e7b1cc0)" style="fill: none; stroke: #595959"/>
   </g>
   <g id="line2d_68">
    <path d="M 271.649673 454.388819 
L 278.050723 454.388819 
" clip-path="url(#p022e7b1cc0)" style="fill: none; stroke: #595959; stroke-linecap: round"/>
   </g>
   <g id="line2d_69">
    <path d="M 271.649673 176.084972 
L 278.050723 176.084972 
" clip-path="url(#p022e7b1cc0)" style="fill: none; stroke: #595959; stroke-linecap: round"/>
   </g>
   <g id="line2d_70"/>
   <g id="patch_15">
    <path d="M 286.737861 427.582563 
L 299.53996 427.582563 
L 299.53996 271.20918 
L 286.737861 271.20918 
L 286.737861 427.582563 
z
" clip-path="url(#p022e7b1cc0)" style="fill: #72b6a1; stroke: #595959; stroke-linejoin: miter"/>
   </g>
   <g id="line2d_71">
    <path d="M 293.138911 427.582563 
L 293.138911 454.388819 
" clip-path="url(#p022e7b1cc0)" style="fill: none; stroke: #595959"/>
   </g>
   <g id="line2d_72">
    <path d="M 293.138911 271.20918 
L 293.138911 149.244268 
" clip-path="url(#p022e7b1cc0)" style="fill: none; stroke: #595959"/>
   </g>
   <g id="line2d_73">
    <path d="M 289.938386 454.388819 
L 296.339436 454.388819 
" clip-path="url(#p022e7b1cc0)" style="fill: none; stroke: #595959; stroke-linecap: round"/>
   </g>
   <g id="line2d_74">
    <path d="M 289.938386 149.244268 
L 296.339436 149.244268 
" clip-path="url(#p022e7b1cc0)" style="fill: none; stroke: #595959; stroke-linecap: round"/>
   </g>
   <g id="line2d_75"/>
   <g id="patch_16">
    <path d="M 305.026574 417.051835 
L 317.828673 417.051835 
L 317.828673 248.063627 
L 305.026574 248.063627 
L 305.026574 417.051835 
z
" clip-path="url(#p022e7b1cc0)" style="fill: #72b6a1; stroke: #595959; stroke-linejoin: miter"/>
   </g>
   <g id="line2d_76">
    <path d="M 311.427624 417.051835 
L 311.427624 454.388819 
" clip-path="url(#p022e7b1cc0)" style="fill: none; stroke: #595959"/>
   </g>
   <g id="line2d_77">
    <path d="M 311.427624 248.063627 
L 311.427624 164.804774 
" clip-path="url(#p022e7b1cc0)" style="fill: none; stroke: #595959"/>
   </g>
   <g id="line2d_78">
    <path d="M 308.227099 454.388819 
L 314.628149 454.388819 
" clip-path="url(#p022e7b1cc0)" style="fill: none; stroke: #595959; stroke-linecap: round"/>
   </g>
   <g id="line2d_79">
    <path d="M 308.227099 164.804774 
L 314.628149 164.804774 
" clip-path="url(#p022e7b1cc0)" style="fill: none; stroke: #595959; stroke-linecap: round"/>
   </g>
   <g id="line2d_80"/>
   <g id="patch_17">
    <path d="M 323.315287 434.841049 
L 336.117386 434.841049 
L 336.117386 279.81804 
L 323.315287 279.81804 
L 323.315287 434.841049 
z
" clip-path="url(#p022e7b1cc0)" style="fill: #72b6a1; stroke: #595959; stroke-linejoin: miter"/>
   </g>
   <g id="line2d_81">
    <path d="M 329.716337 434.841049 
L 329.716337 454.388819 
" clip-path="url(#p022e7b1cc0)" style="fill: none; stroke: #595959"/>
   </g>
   <g id="line2d_82">
    <path d="M 329.716337 279.81804 
L 329.716337 164.484738 
" clip-path="url(#p022e7b1cc0)" style="fill: none; stroke: #595959"/>
   </g>
   <g id="line2d_83">
    <path d="M 326.515812 454.388819 
L 332.916861 454.388819 
" clip-path="url(#p022e7b1cc0)" style="fill: none; stroke: #595959; stroke-linecap: round"/>
   </g>
   <g id="line2d_84">
    <path d="M 326.515812 164.484738 
L 332.916861 164.484738 
" clip-path="url(#p022e7b1cc0)" style="fill: none; stroke: #595959; stroke-linecap: round"/>
   </g>
   <g id="line2d_85"/>
   <g id="patch_18">
    <path d="M 341.604 432.83207 
L 354.406099 432.83207 
L 354.406099 274.596542 
L 341.604 274.596542 
L 341.604 432.83207 
z
" clip-path="url(#p022e7b1cc0)" style="fill: #72b6a1; stroke: #595959; stroke-linejoin: miter"/>
   </g>
   <g id="line2d_86">
    <path d="M 348.00505 432.83207 
L 348.00505 454.388819 
" clip-path="url(#p022e7b1cc0)" style="fill: none; stroke: #595959"/>
   </g>
   <g id="line2d_87">
    <path d="M 348.00505 274.596542 
L 348.00505 182.492988 
" clip-path="url(#p022e7b1cc0)" style="fill: none; stroke: #595959"/>
   </g>
   <g id="line2d_88">
    <path d="M 344.804525 454.388819 
L 351.205574 454.388819 
" clip-path="url(#p022e7b1cc0)" style="fill: none; stroke: #595959; stroke-linecap: round"/>
   </g>
   <g id="line2d_89">
    <path d="M 344.804525 182.492988 
L 351.205574 182.492988 
" clip-path="url(#p022e7b1cc0)" style="fill: none; stroke: #595959; stroke-linecap: round"/>
   </g>
   <g id="line2d_90"/>
   <g id="patch_19">
    <path d="M 359.892713 433.752289 
L 372.694812 433.752289 
L 372.694812 256.74521 
L 359.892713 256.74521 
L 359.892713 433.752289 
z
" clip-path="url(#p022e7b1cc0)" style="fill: #72b6a1; stroke: #595959; stroke-linejoin: miter"/>
   </g>
   <g id="line2d_91">
    <path d="M 366.293762 433.752289 
L 366.293762 454.388819 
" clip-path="url(#p022e7b1cc0)" style="fill: none; stroke: #595959"/>
   </g>
   <g id="line2d_92">
    <path d="M 366.293762 256.74521 
L 366.293762 127.996162 
" clip-path="url(#p022e7b1cc0)" style="fill: none; stroke: #595959"/>
   </g>
   <g id="line2d_93">
    <path d="M 363.093238 454.388819 
L 369.494287 454.388819 
" clip-path="url(#p022e7b1cc0)" style="fill: none; stroke: #595959; stroke-linecap: round"/>
   </g>
   <g id="line2d_94">
    <path d="M 363.093238 127.996162 
L 369.494287 127.996162 
" clip-path="url(#p022e7b1cc0)" style="fill: none; stroke: #595959; stroke-linecap: round"/>
   </g>
   <g id="line2d_95"/>
   <g id="patch_20">
    <path d="M 378.181426 427.929963 
L 390.983525 427.929963 
L 390.983525 255.376643 
L 378.181426 255.376643 
L 378.181426 427.929963 
z
" clip-path="url(#p022e7b1cc0)" style="fill: #72b6a1; stroke: #595959; stroke-linejoin: miter"/>
   </g>
   <g id="line2d_96">
    <path d="M 384.582475 427.929963 
L 384.582475 454.388819 
" clip-path="url(#p022e7b1cc0)" style="fill: none; stroke: #595959"/>
   </g>
   <g id="line2d_97">
    <path d="M 384.582475 255.376643 
L 384.582475 148.956317 
" clip-path="url(#p022e7b1cc0)" style="fill: none; stroke: #595959"/>
   </g>
   <g id="line2d_98">
    <path d="M 381.38195 454.388819 
L 387.783 454.388819 
" clip-path="url(#p022e7b1cc0)" style="fill: none; stroke: #595959; stroke-linecap: round"/>
   </g>
   <g id="line2d_99">
    <path d="M 381.38195 148.956317 
L 387.783 148.956317 
" clip-path="url(#p022e7b1cc0)" style="fill: none; stroke: #595959; stroke-linecap: round"/>
   </g>
   <g id="line2d_100"/>
   <g id="patch_21">
    <path d="M 396.470139 423.64964 
L 409.272238 423.64964 
L 409.272238 252.649901 
L 396.470139 252.649901 
L 396.470139 423.64964 
z
" clip-path="url(#p022e7b1cc0)" style="fill: #72b6a1; stroke: #595959; stroke-linejoin: miter"/>
   </g>
   <g id="line2d_101">
    <path d="M 402.871188 423.64964 
L 402.871188 454.388819 
" clip-path="url(#p022e7b1cc0)" style="fill: none; stroke: #595959"/>
   </g>
   <g id="line2d_102">
    <path d="M 402.871188 252.649901 
L 402.871188 149.419601 
" clip-path="url(#p022e7b1cc0)" style="fill: none; stroke: #595959"/>
   </g>
   <g id="line2d_103">
    <path d="M 399.670663 454.388819 
L 406.071713 454.388819 
" clip-path="url(#p022e7b1cc0)" style="fill: none; stroke: #595959; stroke-linecap: round"/>
   </g>
   <g id="line2d_104">
    <path d="M 399.670663 149.419601 
L 406.071713 149.419601 
" clip-path="url(#p022e7b1cc0)" style="fill: none; stroke: #595959; stroke-linecap: round"/>
   </g>
   <g id="line2d_105"/>
   <g id="patch_22">
    <path d="M 414.758851 426.547291 
L 427.56095 426.547291 
L 427.56095 232.862286 
L 414.758851 232.862286 
L 414.758851 426.547291 
z
" clip-path="url(#p022e7b1cc0)" style="fill: #72b6a1; stroke: #595959; stroke-linejoin: miter"/>
   </g>
   <g id="line2d_106">
    <path d="M 421.159901 426.547291 
L 421.159901 454.388819 
" clip-path="url(#p022e7b1cc0)" style="fill: none; stroke: #595959"/>
   </g>
   <g id="line2d_107">
    <path d="M 421.159901 232.862286 
L 421.159901 147.546573 
" clip-path="url(#p022e7b1cc0)" style="fill: none; stroke: #595959"/>
   </g>
   <g id="line2d_108">
    <path d="M 417.959376 454.388819 
L 424.360426 454.388819 
" clip-path="url(#p022e7b1cc0)" style="fill: none; stroke: #595959; stroke-linecap: round"/>
   </g>
   <g id="line2d_109">
    <path d="M 417.959376 147.546573 
L 424.360426 147.546573 
" clip-path="url(#p022e7b1cc0)" style="fill: none; stroke: #595959; stroke-linecap: round"/>
   </g>
   <g id="line2d_110"/>
   <g id="patch_23">
    <path d="M 433.047564 434.048945 
L 445.849663 434.048945 
L 445.849663 259.195924 
L 433.047564 259.195924 
L 433.047564 434.048945 
z
" clip-path="url(#p022e7b1cc0)" style="fill: #72b6a1; stroke: #595959; stroke-linejoin: miter"/>
   </g>
   <g id="line2d_111">
    <path d="M 439.448614 434.048945 
L 439.448614 454.388819 
" clip-path="url(#p022e7b1cc0)" style="fill: none; stroke: #595959"/>
   </g>
   <g id="line2d_112">
    <path d="M 439.448614 259.195924 
L 439.448614 144.698084 
" clip-path="url(#p022e7b1cc0)" style="fill: none; stroke: #595959"/>
   </g>
   <g id="line2d_113">
    <path d="M 436.248089 454.388819 
L 442.649139 454.388819 
" clip-path="url(#p022e7b1cc0)" style="fill: none; stroke: #595959; stroke-linecap: round"/>
   </g>
   <g id="line2d_114">
    <path d="M 436.248089 144.698084 
L 442.649139 144.698084 
" clip-path="url(#p022e7b1cc0)" style="fill: none; stroke: #595959; stroke-linecap: round"/>
   </g>
   <g id="line2d_115"/>
   <g id="patch_24">
    <path d="M 451.336277 422.9826 
L 464.138376 422.9826 
L 464.138376 255.848058 
L 451.336277 255.848058 
L 451.336277 422.9826 
z
" clip-path="url(#p022e7b1cc0)" style="fill: #72b6a1; stroke: #595959; stroke-linejoin: miter"/>
   </g>
   <g id="line2d_116">
    <path d="M 457.737327 422.9826 
L 457.737327 454.388819 
" clip-path="url(#p022e7b1cc0)" style="fill: none; stroke: #595959"/>
   </g>
   <g id="line2d_117">
    <path d="M 457.737327 255.848058 
L 457.737327 193.991561 
" clip-path="url(#p022e7b1cc0)" style="fill: none; stroke: #595959"/>
   </g>
   <g id="line2d_118">
    <path d="M 454.536802 454.388819 
L 460.937851 454.388819 
" clip-path="url(#p022e7b1cc0)" style="fill: none; stroke: #595959; stroke-linecap: round"/>
   </g>
   <g id="line2d_119">
    <path d="M 454.536802 193.991561 
L 460.937851 193.991561 
" clip-path="url(#p022e7b1cc0)" style="fill: none; stroke: #595959; stroke-linecap: round"/>
   </g>
   <g id="line2d_120"/>
   <g id="patch_25">
    <path d="M 469.62499 395.342451 
L 482.427089 395.342451 
L 482.427089 236.701622 
L 469.62499 236.701622 
L 469.62499 395.342451 
z
" clip-path="url(#p022e7b1cc0)" style="fill: #72b6a1; stroke: #595959; stroke-linejoin: miter"/>
   </g>
   <g id="line2d_121">
    <path d="M 476.02604 395.342451 
L 476.02604 454.388819 
" clip-path="url(#p022e7b1cc0)" style="fill: none; stroke: #595959"/>
   </g>
   <g id="line2d_122">
    <path d="M 476.02604 236.701622 
L 476.02604 170.206874 
" clip-path="url(#p022e7b1cc0)" style="fill: none; stroke: #595959"/>
   </g>
   <g id="line2d_123">
    <path d="M 472.825515 454.388819 
L 479.226564 454.388819 
" clip-path="url(#p022e7b1cc0)" style="fill: none; stroke: #595959; stroke-linecap: round"/>
   </g>
   <g id="line2d_124">
    <path d="M 472.825515 170.206874 
L 479.226564 170.206874 
" clip-path="url(#p022e7b1cc0)" style="fill: none; stroke: #595959; stroke-linecap: round"/>
   </g>
   <g id="line2d_125"/>
   <g id="patch_26">
    <path d="M 487.913703 410.999103 
L 500.715802 410.999103 
L 500.715802 232.738329 
L 487.913703 232.738329 
L 487.913703 410.999103 
z
" clip-path="url(#p022e7b1cc0)" style="fill: #72b6a1; stroke: #595959; stroke-linejoin: miter"/>
   </g>
   <g id="line2d_126">
    <path d="M 494.314752 410.999103 
L 494.314752 454.388819 
" clip-path="url(#p022e7b1cc0)" style="fill: none; stroke: #595959"/>
   </g>
   <g id="line2d_127">
    <path d="M 494.314752 232.738329 
L 494.314752 149.103439 
" clip-path="url(#p022e7b1cc0)" style="fill: none; stroke: #595959"/>
   </g>
   <g id="line2d_128">
    <path d="M 491.114228 454.388819 
L 497.515277 454.388819 
" clip-path="url(#p022e7b1cc0)" style="fill: none; stroke: #595959; stroke-linecap: round"/>
   </g>
   <g id="line2d_129">
    <path d="M 491.114228 149.103439 
L 497.515277 149.103439 
" clip-path="url(#p022e7b1cc0)" style="fill: none; stroke: #595959; stroke-linecap: round"/>
   </g>
   <g id="line2d_130"/>
   <g id="patch_27">
    <path d="M 506.202416 422.835422 
L 519.004515 422.835422 
L 519.004515 228.028676 
L 506.202416 228.028676 
L 506.202416 422.835422 
z
" clip-path="url(#p022e7b1cc0)" style="fill: #72b6a1; stroke: #595959; stroke-linejoin: miter"/>
   </g>
   <g id="line2d_131">
    <path d="M 512.603465 422.835422 
L 512.603465 454.388819 
" clip-path="url(#p022e7b1cc0)" style="fill: none; stroke: #595959"/>
   </g>
   <g id="line2d_132">
    <path d="M 512.603465 228.028676 
L 512.603465 151.8759 
" clip-path="url(#p022e7b1cc0)" style="fill: none; stroke: #595959"/>
   </g>
   <g id="line2d_133">
    <path d="M 509.402941 454.388819 
L 515.80399 454.388819 
" clip-path="url(#p022e7b1cc0)" style="fill: none; stroke: #595959; stroke-linecap: round"/>
   </g>
   <g id="line2d_134">
    <path d="M 509.402941 151.8759 
L 515.80399 151.8759 
" clip-path="url(#p022e7b1cc0)" style="fill: none; stroke: #595959; stroke-linecap: round"/>
   </g>
   <g id="line2d_135"/>
   <g id="patch_28">
    <path d="M 524.491129 382.75959 
L 537.293228 382.75959 
L 537.293228 200.314742 
L 524.491129 200.314742 
L 524.491129 382.75959 
z
" clip-path="url(#p022e7b1cc0)" style="fill: #72b6a1; stroke: #595959; stroke-linejoin: miter"/>
   </g>
   <g id="line2d_136">
    <path d="M 530.892178 382.75959 
L 530.892178 454.388819 
" clip-path="url(#p022e7b1cc0)" style="fill: none; stroke: #595959"/>
   </g>
   <g id="line2d_137">
    <path d="M 530.892178 200.314742 
L 530.892178 127.260123 
" clip-path="url(#p022e7b1cc0)" style="fill: none; stroke: #595959"/>
   </g>
   <g id="line2d_138">
    <path d="M 527.691653 454.388819 
L 534.092703 454.388819 
" clip-path="url(#p022e7b1cc0)" style="fill: none; stroke: #595959; stroke-linecap: round"/>
   </g>
   <g id="line2d_139">
    <path d="M 527.691653 127.260123 
L 534.092703 127.260123 
" clip-path="url(#p022e7b1cc0)" style="fill: none; stroke: #595959; stroke-linecap: round"/>
   </g>
   <g id="line2d_140"/>
   <g id="patch_29">
    <path d="M 542.779842 382.000264 
L 555.581941 382.000264 
L 555.581941 250.249943 
L 542.779842 250.249943 
L 542.779842 382.000264 
z
" clip-path="url(#p022e7b1cc0)" style="fill: #72b6a1; stroke: #595959; stroke-linejoin: miter"/>
   </g>
   <g id="line2d_141">
    <path d="M 549.180891 382.000264 
L 549.180891 454.388819 
" clip-path="url(#p022e7b1cc0)" style="fill: none; stroke: #595959"/>
   </g>
   <g id="line2d_142">
    <path d="M 549.180891 250.249943 
L 549.180891 129.915806 
" clip-path="url(#p022e7b1cc0)" style="fill: none; stroke: #595959"/>
   </g>
   <g id="line2d_143">
    <path d="M 545.980366 454.388819 
L 552.381416 454.388819 
" clip-path="url(#p022e7b1cc0)" style="fill: none; stroke: #595959; stroke-linecap: round"/>
   </g>
   <g id="line2d_144">
    <path d="M 545.980366 129.915806 
L 552.381416 129.915806 
" clip-path="url(#p022e7b1cc0)" style="fill: none; stroke: #595959; stroke-linecap: round"/>
   </g>
   <g id="line2d_145"/>
   <g id="patch_30">
    <path d="M 561.068554 419.302333 
L 573.870653 419.302333 
L 573.870653 237.757882 
L 561.068554 237.757882 
L 561.068554 419.302333 
z
" clip-path="url(#p022e7b1cc0)" style="fill: #72b6a1; stroke: #595959; stroke-linejoin: miter"/>
   </g>
   <g id="line2d_146">
    <path d="M 567.469604 419.302333 
L 567.469604 454.389072 
" clip-path="url(#p022e7b1cc0)" style="fill: none; stroke: #595959"/>
   </g>
   <g id="line2d_147">
    <path d="M 567.469604 237.757882 
L 567.469604 160.272141 
" clip-path="url(#p022e7b1cc0)" style="fill: none; stroke: #595959"/>
   </g>
   <g id="line2d_148">
    <path d="M 564.269079 454.389072 
L 570.670129 454.389072 
" clip-path="url(#p022e7b1cc0)" style="fill: none; stroke: #595959; stroke-linecap: round"/>
   </g>
   <g id="line2d_149">
    <path d="M 564.269079 160.272141 
L 570.670129 160.272141 
" clip-path="url(#p022e7b1cc0)" style="fill: none; stroke: #595959; stroke-linecap: round"/>
   </g>
   <g id="line2d_150"/>
   <g id="patch_31">
    <path d="M 579.357267 414.943966 
L 592.159366 414.943966 
L 592.159366 230.772342 
L 579.357267 230.772342 
L 579.357267 414.943966 
z
" clip-path="url(#p022e7b1cc0)" style="fill: #72b6a1; stroke: #595959; stroke-linejoin: miter"/>
   </g>
   <g id="line2d_151">
    <path d="M 585.758317 414.943966 
L 585.758317 454.371994 
" clip-path="url(#p022e7b1cc0)" style="fill: none; stroke: #595959"/>
   </g>
   <g id="line2d_152">
    <path d="M 585.758317 230.772342 
L 585.758317 164.698417 
" clip-path="url(#p022e7b1cc0)" style="fill: none; stroke: #595959"/>
   </g>
   <g id="line2d_153">
    <path d="M 582.557792 454.371994 
L 588.958842 454.371994 
" clip-path="url(#p022e7b1cc0)" style="fill: none; stroke: #595959; stroke-linecap: round"/>
   </g>
   <g id="line2d_154">
    <path d="M 582.557792 164.698417 
L 588.958842 164.698417 
" clip-path="url(#p022e7b1cc0)" style="fill: none; stroke: #595959; stroke-linecap: round"/>
   </g>
   <g id="line2d_155"/>
   <g id="patch_32">
    <path d="M 597.64598 384.19881 
L 610.448079 384.19881 
L 610.448079 231.030277 
L 597.64598 231.030277 
L 597.64598 384.19881 
z
" clip-path="url(#p022e7b1cc0)" style="fill: #72b6a1; stroke: #595959; stroke-linejoin: miter"/>
   </g>
   <g id="line2d_156">
    <path d="M 604.04703 384.19881 
L 604.04703 454.035339 
" clip-path="url(#p022e7b1cc0)" style="fill: none; stroke: #595959"/>
   </g>
   <g id="line2d_157">
    <path d="M 604.04703 231.030277 
L 604.04703 158.287048 
" clip-path="url(#p022e7b1cc0)" style="fill: none; stroke: #595959"/>
   </g>
   <g id="line2d_158">
    <path d="M 600.846505 454.035339 
L 607.247554 454.035339 
" clip-path="url(#p022e7b1cc0)" style="fill: none; stroke: #595959; stroke-linecap: round"/>
   </g>
   <g id="line2d_159">
    <path d="M 600.846505 158.287048 
L 607.247554 158.287048 
" clip-path="url(#p022e7b1cc0)" style="fill: none; stroke: #595959; stroke-linecap: round"/>
   </g>
   <g id="line2d_160"/>
   <g id="patch_33">
    <path d="M 615.934693 391.054574 
L 628.736792 391.054574 
L 628.736792 241.150312 
L 615.934693 241.150312 
L 615.934693 391.054574 
z
" clip-path="url(#p022e7b1cc0)" style="fill: #72b6a1; stroke: #595959; stroke-linejoin: miter"/>
   </g>
   <g id="line2d_161">
    <path d="M 622.335743 391.054574 
L 622.335743 454.388819 
" clip-path="url(#p022e7b1cc0)" style="fill: none; stroke: #595959"/>
   </g>
   <g id="line2d_162">
    <path d="M 622.335743 241.150312 
L 622.335743 149.172794 
" clip-path="url(#p022e7b1cc0)" style="fill: none; stroke: #595959"/>
   </g>
   <g id="line2d_163">
    <path d="M 619.135218 454.388819 
L 625.536267 454.388819 
" clip-path="url(#p022e7b1cc0)" style="fill: none; stroke: #595959; stroke-linecap: round"/>
   </g>
   <g id="line2d_164">
    <path d="M 619.135218 149.172794 
L 625.536267 149.172794 
" clip-path="url(#p022e7b1cc0)" style="fill: none; stroke: #595959; stroke-linecap: round"/>
   </g>
   <g id="line2d_165"/>
   <g id="patch_34">
    <path d="M 634.223406 414.28892 
L 647.025505 414.28892 
L 647.025505 222.632182 
L 634.223406 222.632182 
L 634.223406 414.28892 
z
" clip-path="url(#p022e7b1cc0)" style="fill: #72b6a1; stroke: #595959; stroke-linejoin: miter"/>
   </g>
   <g id="line2d_166">
    <path d="M 640.624455 414.28892 
L 640.624455 454.036604 
" clip-path="url(#p022e7b1cc0)" style="fill: none; stroke: #595959"/>
   </g>
   <g id="line2d_167">
    <path d="M 640.624455 222.632182 
L 640.624455 139.246442 
" clip-path="url(#p022e7b1cc0)" style="fill: none; stroke: #595959"/>
   </g>
   <g id="line2d_168">
    <path d="M 637.423931 454.036604 
L 643.82498 454.036604 
" clip-path="url(#p022e7b1cc0)" style="fill: none; stroke: #595959; stroke-linecap: round"/>
   </g>
   <g id="line2d_169">
    <path d="M 637.423931 139.246442 
L 643.82498 139.246442 
" clip-path="url(#p022e7b1cc0)" style="fill: none; stroke: #595959; stroke-linecap: round"/>
   </g>
   <g id="line2d_170"/>
   <g id="patch_35">
    <path d="M 652.512119 414.205531 
L 665.314218 414.205531 
L 665.314218 225.317422 
L 652.512119 225.317422 
L 652.512119 414.205531 
z
" clip-path="url(#p022e7b1cc0)" style="fill: #72b6a1; stroke: #595959; stroke-linejoin: miter"/>
   </g>
   <g id="line2d_171">
    <path d="M 658.913168 414.205531 
L 658.913168 454.239293 
" clip-path="url(#p022e7b1cc0)" style="fill: none; stroke: #595959"/>
   </g>
   <g id="line2d_172">
    <path d="M 658.913168 225.317422 
L 658.913168 146.791479 
" clip-path="url(#p022e7b1cc0)" style="fill: none; stroke: #595959"/>
   </g>
   <g id="line2d_173">
    <path d="M 655.712644 454.239293 
L 662.113693 454.239293 
" clip-path="url(#p022e7b1cc0)" style="fill: none; stroke: #595959; stroke-linecap: round"/>
   </g>
   <g id="line2d_174">
    <path d="M 655.712644 146.791479 
L 662.113693 146.791479 
" clip-path="url(#p022e7b1cc0)" style="fill: none; stroke: #595959; stroke-linecap: round"/>
   </g>
   <g id="line2d_175"/>
   <g id="patch_36">
    <path d="M 670.800832 377.223015 
L 683.602931 377.223015 
L 683.602931 216.774975 
L 670.800832 216.774975 
L 670.800832 377.223015 
z
" clip-path="url(#p022e7b1cc0)" style="fill: #72b6a1; stroke: #595959; stroke-linejoin: miter"/>
   </g>
   <g id="line2d_176">
    <path d="M 677.201881 377.223015 
L 677.201881 454.326927 
" clip-path="url(#p022e7b1cc0)" style="fill: none; stroke: #595959"/>
   </g>
   <g id="line2d_177">
    <path d="M 677.201881 216.774975 
L 677.201881 149.26435 
" clip-path="url(#p022e7b1cc0)" style="fill: none; stroke: #595959"/>
   </g>
   <g id="line2d_178">
    <path d="M 674.001356 454.326927 
L 680.402406 454.326927 
" clip-path="url(#p022e7b1cc0)" style="fill: none; stroke: #595959; stroke-linecap: round"/>
   </g>
   <g id="line2d_179">
    <path d="M 674.001356 149.26435 
L 680.402406 149.26435 
" clip-path="url(#p022e7b1cc0)" style="fill: none; stroke: #595959; stroke-linecap: round"/>
   </g>
   <g id="line2d_180"/>
   <g id="patch_37">
    <path d="M 689.089545 404.453737 
L 701.891644 404.453737 
L 701.891644 236.17201 
L 689.089545 236.17201 
L 689.089545 404.453737 
z
" clip-path="url(#p022e7b1cc0)" style="fill: #72b6a1; stroke: #595959; stroke-linejoin: miter"/>
   </g>
   <g id="line2d_181">
    <path d="M 695.490594 404.453737 
L 695.490594 453.972119 
" clip-path="url(#p022e7b1cc0)" style="fill: none; stroke: #595959"/>
   </g>
   <g id="line2d_182">
    <path d="M 695.490594 236.17201 
L 695.490594 137.274094 
" clip-path="url(#p022e7b1cc0)" style="fill: none; stroke: #595959"/>
   </g>
   <g id="line2d_183">
    <path d="M 692.290069 453.972119 
L 698.691119 453.972119 
" clip-path="url(#p022e7b1cc0)" style="fill: none; stroke: #595959; stroke-linecap: round"/>
   </g>
   <g id="line2d_184">
    <path d="M 692.290069 137.274094 
L 698.691119 137.274094 
" clip-path="url(#p022e7b1cc0)" style="fill: none; stroke: #595959; stroke-linecap: round"/>
   </g>
   <g id="line2d_185"/>
   <g id="patch_38">
    <path d="M 707.378257 363.862858 
L 720.180356 363.862858 
L 720.180356 204.887919 
L 707.378257 204.887919 
L 707.378257 363.862858 
z
" clip-path="url(#p022e7b1cc0)" style="fill: #72b6a1; stroke: #595959; stroke-linejoin: miter"/>
   </g>
   <g id="line2d_186">
    <path d="M 713.779307 363.862858 
L 713.779307 454.232493 
" clip-path="url(#p022e7b1cc0)" style="fill: none; stroke: #595959"/>
   </g>
   <g id="line2d_187">
    <path d="M 713.779307 204.887919 
L 713.779307 145.861132 
" clip-path="url(#p022e7b1cc0)" style="fill: none; stroke: #595959"/>
   </g>
   <g id="line2d_188">
    <path d="M 710.578782 454.232493 
L 716.979832 454.232493 
" clip-path="url(#p022e7b1cc0)" style="fill: none; stroke: #595959; stroke-linecap: round"/>
   </g>
   <g id="line2d_189">
    <path d="M 710.578782 145.861132 
L 716.979832 145.861132 
" clip-path="url(#p022e7b1cc0)" style="fill: none; stroke: #595959; stroke-linecap: round"/>
   </g>
   <g id="line2d_190"/>
   <g id="patch_39">
    <path d="M 725.66697 410.961991 
L 738.469069 410.961991 
L 738.469069 224.195985 
L 725.66697 224.195985 
L 725.66697 410.961991 
z
" clip-path="url(#p022e7b1cc0)" style="fill: #72b6a1; stroke: #595959; stroke-linejoin: miter"/>
   </g>
   <g id="line2d_191">
    <path d="M 732.06802 410.961991 
L 732.06802 453.689608 
" clip-path="url(#p022e7b1cc0)" style="fill: none; stroke: #595959"/>
   </g>
   <g id="line2d_192">
    <path d="M 732.06802 224.195985 
L 732.06802 131.011207 
" clip-path="url(#p022e7b1cc0)" style="fill: none; stroke: #595959"/>
   </g>
   <g id="line2d_193">
    <path d="M 728.867495 453.689608 
L 735.268545 453.689608 
" clip-path="url(#p022e7b1cc0)" style="fill: none; stroke: #595959; stroke-linecap: round"/>
   </g>
   <g id="line2d_194">
    <path d="M 728.867495 131.011207 
L 735.268545 131.011207 
" clip-path="url(#p022e7b1cc0)" style="fill: none; stroke: #595959; stroke-linecap: round"/>
   </g>
   <g id="line2d_195"/>
   <g id="patch_40">
    <path d="M 743.955683 357.499396 
L 756.757782 357.499396 
L 756.757782 219.648976 
L 743.955683 219.648976 
L 743.955683 357.499396 
z
" clip-path="url(#p022e7b1cc0)" style="fill: #72b6a1; stroke: #595959; stroke-linejoin: miter"/>
   </g>
   <g id="line2d_196">
    <path d="M 750.356733 357.499396 
L 750.356733 453.679645 
" clip-path="url(#p022e7b1cc0)" style="fill: none; stroke: #595959"/>
   </g>
   <g id="line2d_197">
    <path d="M 750.356733 219.648976 
L 750.356733 176.025784 
" clip-path="url(#p022e7b1cc0)" style="fill: none; stroke: #595959"/>
   </g>
   <g id="line2d_198">
    <path d="M 747.156208 453.679645 
L 753.557257 453.679645 
" clip-path="url(#p022e7b1cc0)" style="fill: none; stroke: #595959; stroke-linecap: round"/>
   </g>
   <g id="line2d_199">
    <path d="M 747.156208 176.025784 
L 753.557257 176.025784 
" clip-path="url(#p022e7b1cc0)" style="fill: none; stroke: #595959; stroke-linecap: round"/>
   </g>
   <g id="line2d_200"/>
   <g id="patch_41">
    <path d="M 762.244396 370.747006 
L 775.046495 370.747006 
L 775.046495 216.788712 
L 762.244396 216.788712 
L 762.244396 370.747006 
z
" clip-path="url(#p022e7b1cc0)" style="fill: #72b6a1; stroke: #595959; stroke-linejoin: miter"/>
   </g>
   <g id="line2d_201">
    <path d="M 768.645446 370.747006 
L 768.645446 453.847672 
" clip-path="url(#p022e7b1cc0)" style="fill: none; stroke: #595959"/>
   </g>
   <g id="line2d_202">
    <path d="M 768.645446 216.788712 
L 768.645446 145.763077 
" clip-path="url(#p022e7b1cc0)" style="fill: none; stroke: #595959"/>
   </g>
   <g id="line2d_203">
    <path d="M 765.444921 453.847672 
L 771.84597 453.847672 
" clip-path="url(#p022e7b1cc0)" style="fill: none; stroke: #595959; stroke-linecap: round"/>
   </g>
   <g id="line2d_204">
    <path d="M 765.444921 145.763077 
L 771.84597 145.763077 
" clip-path="url(#p022e7b1cc0)" style="fill: none; stroke: #595959; stroke-linecap: round"/>
   </g>
   <g id="line2d_205"/>
   <g id="patch_42">
    <path d="M 780.533109 389.618842 
L 793.335208 389.618842 
L 793.335208 210.332648 
L 780.533109 210.332648 
L 780.533109 389.618842 
z
" clip-path="url(#p022e7b1cc0)" style="fill: #72b6a1; stroke: #595959; stroke-linejoin: miter"/>
   </g>
   <g id="line2d_206">
    <path d="M 786.934158 389.618842 
L 786.934158 453.82933 
" clip-path="url(#p022e7b1cc0)" style="fill: none; stroke: #595959"/>
   </g>
   <g id="line2d_207">
    <path d="M 786.934158 210.332648 
L 786.934158 124.151213 
" clip-path="url(#p022e7b1cc0)" style="fill: none; stroke: #595959"/>
   </g>
   <g id="line2d_208">
    <path d="M 783.733634 453.82933 
L 790.134683 453.82933 
" clip-path="url(#p022e7b1cc0)" style="fill: none; stroke: #595959; stroke-linecap: round"/>
   </g>
   <g id="line2d_209">
    <path d="M 783.733634 124.151213 
L 790.134683 124.151213 
" clip-path="url(#p022e7b1cc0)" style="fill: none; stroke: #595959; stroke-linecap: round"/>
   </g>
   <g id="line2d_210"/>
   <g id="patch_43">
    <path d="M 798.821822 413.945331 
L 811.623921 413.945331 
L 811.623921 223.739706 
L 798.821822 223.739706 
L 798.821822 413.945331 
z
" clip-path="url(#p022e7b1cc0)" style="fill: #72b6a1; stroke: #595959; stroke-linejoin: miter"/>
   </g>
   <g id="line2d_211">
    <path d="M 805.222871 413.945331 
L 805.222871 454.00852 
" clip-path="url(#p022e7b1cc0)" style="fill: none; stroke: #595959"/>
   </g>
   <g id="line2d_212">
    <path d="M 805.222871 223.739706 
L 805.222871 136.35382 
" clip-path="url(#p022e7b1cc0)" style="fill: none; stroke: #595959"/>
   </g>
   <g id="line2d_213">
    <path d="M 802.022347 454.00852 
L 808.423396 454.00852 
" clip-path="url(#p022e7b1cc0)" style="fill: none; stroke: #595959; stroke-linecap: round"/>
   </g>
   <g id="line2d_214">
    <path d="M 802.022347 136.35382 
L 808.423396 136.35382 
" clip-path="url(#p022e7b1cc0)" style="fill: none; stroke: #595959; stroke-linecap: round"/>
   </g>
   <g id="line2d_215"/>
   <g id="patch_44">
    <path d="M 817.110535 422.88713 
L 829.912634 422.88713 
L 829.912634 210.944669 
L 817.110535 210.944669 
L 817.110535 422.88713 
z
" clip-path="url(#p022e7b1cc0)" style="fill: #72b6a1; stroke: #595959; stroke-linejoin: miter"/>
   </g>
   <g id="line2d_216">
    <path d="M 823.511584 422.88713 
L 823.511584 453.228696 
" clip-path="url(#p022e7b1cc0)" style="fill: none; stroke: #595959"/>
   </g>
   <g id="line2d_217">
    <path d="M 823.511584 210.944669 
L 823.511584 130.336949 
" clip-path="url(#p022e7b1cc0)" style="fill: none; stroke: #595959"/>
   </g>
   <g id="line2d_218">
    <path d="M 820.311059 453.228696 
L 826.712109 453.228696 
" clip-path="url(#p022e7b1cc0)" style="fill: none; stroke: #595959; stroke-linecap: round"/>
   </g>
   <g id="line2d_219">
    <path d="M 820.311059 130.336949 
L 826.712109 130.336949 
" clip-path="url(#p022e7b1cc0)" style="fill: none; stroke: #595959; stroke-linecap: round"/>
   </g>
   <g id="line2d_220"/>
   <g id="patch_45">
    <path d="M 835.399248 417.136531 
L 848.201347 417.136531 
L 848.201347 200.232597 
L 835.399248 200.232597 
L 835.399248 417.136531 
z
" clip-path="url(#p022e7b1cc0)" style="fill: #72b6a1; stroke: #595959; stroke-linejoin: miter"/>
   </g>
   <g id="line2d_221">
    <path d="M 841.800297 417.136531 
L 841.800297 453.499095 
" clip-path="url(#p022e7b1cc0)" style="fill: none; stroke: #595959"/>
   </g>
   <g id="line2d_222">
    <path d="M 841.800297 200.232597 
L 841.800297 152.360215 
" clip-path="url(#p022e7b1cc0)" style="fill: none; stroke: #595959"/>
   </g>
   <g id="line2d_223">
    <path d="M 838.599772 453.499095 
L 845.000822 453.499095 
" clip-path="url(#p022e7b1cc0)" style="fill: none; stroke: #595959; stroke-linecap: round"/>
   </g>
   <g id="line2d_224">
    <path d="M 838.599772 152.360215 
L 845.000822 152.360215 
" clip-path="url(#p022e7b1cc0)" style="fill: none; stroke: #595959; stroke-linecap: round"/>
   </g>
   <g id="line2d_225"/>
   <g id="patch_46">
    <path d="M 853.68796 424.412742 
L 866.490059 424.412742 
L 866.490059 203.195565 
L 853.68796 203.195565 
L 853.68796 424.412742 
z
" clip-path="url(#p022e7b1cc0)" style="fill: #72b6a1; stroke: #595959; stroke-linejoin: miter"/>
   </g>
   <g id="line2d_226">
    <path d="M 860.08901 424.412742 
L 860.08901 453.663738 
" clip-path="url(#p022e7b1cc0)" style="fill: none; stroke: #595959"/>
   </g>
   <g id="line2d_227">
    <path d="M 860.08901 203.195565 
L 860.08901 120.588538 
" clip-path="url(#p022e7b1cc0)" style="fill: none; stroke: #595959"/>
   </g>
   <g id="line2d_228">
    <path d="M 856.888485 453.663738 
L 863.289535 453.663738 
" clip-path="url(#p022e7b1cc0)" style="fill: none; stroke: #595959; stroke-linecap: round"/>
   </g>
   <g id="line2d_229">
    <path d="M 856.888485 120.588538 
L 863.289535 120.588538 
" clip-path="url(#p022e7b1cc0)" style="fill: none; stroke: #595959; stroke-linecap: round"/>
   </g>
   <g id="line2d_230"/>
   <g id="patch_47">
    <path d="M 871.976673 415.415931 
L 884.778772 415.415931 
L 884.778772 231.307624 
L 871.976673 231.307624 
L 871.976673 415.415931 
z
" clip-path="url(#p022e7b1cc0)" style="fill: #72b6a1; stroke: #595959; stroke-linejoin: miter"/>
   </g>
   <g id="line2d_231">
    <path d="M 878.377723 415.415931 
L 878.377723 453.821992 
" clip-path="url(#p022e7b1cc0)" style="fill: none; stroke: #595959"/>
   </g>
   <g id="line2d_232">
    <path d="M 878.377723 231.307624 
L 878.377723 124.429787 
" clip-path="url(#p022e7b1cc0)" style="fill: none; stroke: #595959"/>
   </g>
   <g id="line2d_233">
    <path d="M 875.177198 453.821992 
L 881.578248 453.821992 
" clip-path="url(#p022e7b1cc0)" style="fill: none; stroke: #595959; stroke-linecap: round"/>
   </g>
   <g id="line2d_234">
    <path d="M 875.177198 124.429787 
L 881.578248 124.429787 
" clip-path="url(#p022e7b1cc0)" style="fill: none; stroke: #595959; stroke-linecap: round"/>
   </g>
   <g id="line2d_235"/>
   <g id="patch_48">
    <path d="M 890.265386 405.95525 
L 903.067485 405.95525 
L 903.067485 210.254179 
L 890.265386 210.254179 
L 890.265386 405.95525 
z
" clip-path="url(#p022e7b1cc0)" style="fill: #72b6a1; stroke: #595959; stroke-linejoin: miter"/>
   </g>
   <g id="line2d_236">
    <path d="M 896.666436 405.95525 
L 896.666436 453.654914 
" clip-path="url(#p022e7b1cc0)" style="fill: none; stroke: #595959"/>
   </g>
   <g id="line2d_237">
    <path d="M 896.666436 210.254179 
L 896.666436 128.966436 
" clip-path="url(#p022e7b1cc0)" style="fill: none; stroke: #595959"/>
   </g>
   <g id="line2d_238">
    <path d="M 893.465911 453.654914 
L 899.86696 453.654914 
" clip-path="url(#p022e7b1cc0)" style="fill: none; stroke: #595959; stroke-linecap: round"/>
   </g>
   <g id="line2d_239">
    <path d="M 893.465911 128.966436 
L 899.86696 128.966436 
" clip-path="url(#p022e7b1cc0)" style="fill: none; stroke: #595959; stroke-linecap: round"/>
   </g>
   <g id="line2d_240"/>
   <g id="patch_49">
    <path d="M 908.554099 406.276076 
L 921.356198 406.276076 
L 921.356198 171.605051 
L 908.554099 171.605051 
L 908.554099 406.276076 
z
" clip-path="url(#p022e7b1cc0)" style="fill: #72b6a1; stroke: #595959; stroke-linejoin: miter"/>
   </g>
   <g id="line2d_241">
    <path d="M 914.955149 406.276076 
L 914.955149 452.815823 
" clip-path="url(#p022e7b1cc0)" style="fill: none; stroke: #595959"/>
   </g>
   <g id="line2d_242">
    <path d="M 914.955149 171.605051 
L 914.955149 118.120284 
" clip-path="url(#p022e7b1cc0)" style="fill: none; stroke: #595959"/>
   </g>
   <g id="line2d_243">
    <path d="M 911.754624 452.815823 
L 918.155673 452.815823 
" clip-path="url(#p022e7b1cc0)" style="fill: none; stroke: #595959; stroke-linecap: round"/>
   </g>
   <g id="line2d_244">
    <path d="M 911.754624 118.120284 
L 918.155673 118.120284 
" clip-path="url(#p022e7b1cc0)" style="fill: none; stroke: #595959; stroke-linecap: round"/>
   </g>
   <g id="line2d_245"/>
   <g id="patch_50">
    <path d="M 926.842812 407.392042 
L 939.644911 407.392042 
L 939.644911 184.507818 
L 926.842812 184.507818 
L 926.842812 407.392042 
z
" clip-path="url(#p022e7b1cc0)" style="fill: #72b6a1; stroke: #595959; stroke-linejoin: miter"/>
   </g>
   <g id="line2d_246">
    <path d="M 933.243861 407.392042 
L 933.243861 453.430024 
" clip-path="url(#p022e7b1cc0)" style="fill: none; stroke: #595959"/>
   </g>
   <g id="line2d_247">
    <path d="M 933.243861 184.507818 
L 933.243861 178.141365 
" clip-path="url(#p022e7b1cc0)" style="fill: none; stroke: #595959"/>
   </g>
   <g id="line2d_248">
    <path d="M 930.043337 453.430024 
L 936.444386 453.430024 
" clip-path="url(#p022e7b1cc0)" style="fill: none; stroke: #595959; stroke-linecap: round"/>
   </g>
   <g id="line2d_249">
    <path d="M 930.043337 178.141365 
L 936.444386 178.141365 
" clip-path="url(#p022e7b1cc0)" style="fill: none; stroke: #595959; stroke-linecap: round"/>
   </g>
   <g id="line2d_250"/>
   <g id="patch_51">
    <path d="M 945.131525 402.981018 
L 957.933624 402.981018 
L 957.933624 170.43261 
L 945.131525 170.43261 
L 945.131525 402.981018 
z
" clip-path="url(#p022e7b1cc0)" style="fill: #72b6a1; stroke: #595959; stroke-linejoin: miter"/>
   </g>
   <g id="line2d_251">
    <path d="M 951.532574 402.981018 
L 951.532574 452.756999 
" clip-path="url(#p022e7b1cc0)" style="fill: none; stroke: #595959"/>
   </g>
   <g id="line2d_252">
    <path d="M 951.532574 170.43261 
L 951.532574 119.648814 
" clip-path="url(#p022e7b1cc0)" style="fill: none; stroke: #595959"/>
   </g>
   <g id="line2d_253">
    <path d="M 948.33205 452.756999 
L 954.733099 452.756999 
" clip-path="url(#p022e7b1cc0)" style="fill: none; stroke: #595959; stroke-linecap: round"/>
   </g>
   <g id="line2d_254">
    <path d="M 948.33205 119.648814 
L 954.733099 119.648814 
" clip-path="url(#p022e7b1cc0)" style="fill: none; stroke: #595959; stroke-linecap: round"/>
   </g>
   <g id="line2d_255"/>
   <g id="patch_52">
    <path d="M 963.420238 408.51929 
L 976.222337 408.51929 
L 976.222337 171.953755 
L 963.420238 171.953755 
L 963.420238 408.51929 
z
" clip-path="url(#p022e7b1cc0)" style="fill: #72b6a1; stroke: #595959; stroke-linejoin: miter"/>
   </g>
   <g id="line2d_256">
    <path d="M 969.821287 408.51929 
L 969.821287 453.753238 
" clip-path="url(#p022e7b1cc0)" style="fill: none; stroke: #595959"/>
   </g>
   <g id="line2d_257">
    <path d="M 969.821287 171.953755 
L 969.821287 162.46658 
" clip-path="url(#p022e7b1cc0)" style="fill: none; stroke: #595959"/>
   </g>
   <g id="line2d_258">
    <path d="M 966.620762 453.753238 
L 973.021812 453.753238 
" clip-path="url(#p022e7b1cc0)" style="fill: none; stroke: #595959; stroke-linecap: round"/>
   </g>
   <g id="line2d_259">
    <path d="M 966.620762 162.46658 
L 973.021812 162.46658 
" clip-path="url(#p022e7b1cc0)" style="fill: none; stroke: #595959; stroke-linecap: round"/>
   </g>
   <g id="line2d_260"/>
   <g id="line2d_261">
    <path d="M 67.273307 378.971832 
L 80.075406 378.971832 
" clip-path="url(#p022e7b1cc0)" style="fill: none; stroke: #595959"/>
   </g>
   <g id="line2d_262">
    <path d="M 85.56202 356.495815 
L 98.364119 356.495815 
" clip-path="url(#p022e7b1cc0)" style="fill: none; stroke: #595959"/>
   </g>
   <g id="line2d_263">
    <path d="M 103.850733 342.91462 
L 116.652832 342.91462 
" clip-path="url(#p022e7b1cc0)" style="fill: none; stroke: #595959"/>
   </g>
   <g id="line2d_264">
    <path d="M 122.139446 318.998184 
L 134.941545 318.998184 
" clip-path="url(#p022e7b1cc0)" style="fill: none; stroke: #595959"/>
   </g>
   <g id="line2d_265">
    <path d="M 140.428158 308.563234 
L 153.230257 308.563234 
" clip-path="url(#p022e7b1cc0)" style="fill: none; stroke: #595959"/>
   </g>
   <g id="line2d_266">
    <path d="M 158.716871 406.546531 
L 171.51897 406.546531 
" clip-path="url(#p022e7b1cc0)" style="fill: none; stroke: #595959"/>
   </g>
   <g id="line2d_267">
    <path d="M 177.005584 399.367508 
L 189.807683 399.367508 
" clip-path="url(#p022e7b1cc0)" style="fill: none; stroke: #595959"/>
   </g>
   <g id="line2d_268">
    <path d="M 195.294297 396.744647 
L 208.096396 396.744647 
" clip-path="url(#p022e7b1cc0)" style="fill: none; stroke: #595959"/>
   </g>
   <g id="line2d_269">
    <path d="M 213.58301 392.23129 
L 226.385109 392.23129 
" clip-path="url(#p022e7b1cc0)" style="fill: none; stroke: #595959"/>
   </g>
   <g id="line2d_270">
    <path d="M 231.871723 405.446091 
L 244.673822 405.446091 
" clip-path="url(#p022e7b1cc0)" style="fill: none; stroke: #595959"/>
   </g>
   <g id="line2d_271">
    <path d="M 250.160436 381.666938 
L 262.962535 381.666938 
" clip-path="url(#p022e7b1cc0)" style="fill: none; stroke: #595959"/>
   </g>
   <g id="line2d_272">
    <path d="M 268.449149 378.208865 
L 281.251248 378.208865 
" clip-path="url(#p022e7b1cc0)" style="fill: none; stroke: #595959"/>
   </g>
   <g id="line2d_273">
    <path d="M 286.737861 392.227347 
L 299.53996 392.227347 
" clip-path="url(#p022e7b1cc0)" style="fill: none; stroke: #595959"/>
   </g>
   <g id="line2d_274">
    <path d="M 305.026574 334.486522 
L 317.828673 334.486522 
" clip-path="url(#p022e7b1cc0)" style="fill: none; stroke: #595959"/>
   </g>
   <g id="line2d_275">
    <path d="M 323.315287 368.839941 
L 336.117386 368.839941 
" clip-path="url(#p022e7b1cc0)" style="fill: none; stroke: #595959"/>
   </g>
   <g id="line2d_276">
    <path d="M 341.604 350.434774 
L 354.406099 350.434774 
" clip-path="url(#p022e7b1cc0)" style="fill: none; stroke: #595959"/>
   </g>
   <g id="line2d_277">
    <path d="M 359.892713 358.787587 
L 372.694812 358.787587 
" clip-path="url(#p022e7b1cc0)" style="fill: none; stroke: #595959"/>
   </g>
   <g id="line2d_278">
    <path d="M 378.181426 348.190904 
L 390.983525 348.190904 
" clip-path="url(#p022e7b1cc0)" style="fill: none; stroke: #595959"/>
   </g>
   <g id="line2d_279">
    <path d="M 396.470139 350.700313 
L 409.272238 350.700313 
" clip-path="url(#p022e7b1cc0)" style="fill: none; stroke: #595959"/>
   </g>
   <g id="line2d_280">
    <path d="M 414.758851 355.63778 
L 427.56095 355.63778 
" clip-path="url(#p022e7b1cc0)" style="fill: none; stroke: #595959"/>
   </g>
   <g id="line2d_281">
    <path d="M 433.047564 345.25206 
L 445.849663 345.25206 
" clip-path="url(#p022e7b1cc0)" style="fill: none; stroke: #595959"/>
   </g>
   <g id="line2d_282">
    <path d="M 451.336277 333.771124 
L 464.138376 333.771124 
" clip-path="url(#p022e7b1cc0)" style="fill: none; stroke: #595959"/>
   </g>
   <g id="line2d_283">
    <path d="M 469.62499 335.862285 
L 482.427089 335.862285 
" clip-path="url(#p022e7b1cc0)" style="fill: none; stroke: #595959"/>
   </g>
   <g id="line2d_284">
    <path d="M 487.913703 343.826725 
L 500.715802 343.826725 
" clip-path="url(#p022e7b1cc0)" style="fill: none; stroke: #595959"/>
   </g>
   <g id="line2d_285">
    <path d="M 506.202416 326.921688 
L 519.004515 326.921688 
" clip-path="url(#p022e7b1cc0)" style="fill: none; stroke: #595959"/>
   </g>
   <g id="line2d_286">
    <path d="M 524.491129 317.030951 
L 537.293228 317.030951 
" clip-path="url(#p022e7b1cc0)" style="fill: none; stroke: #595959"/>
   </g>
   <g id="line2d_287">
    <path d="M 542.779842 305.917605 
L 555.581941 305.917605 
" clip-path="url(#p022e7b1cc0)" style="fill: none; stroke: #595959"/>
   </g>
   <g id="line2d_288">
    <path d="M 561.068554 351.135998 
L 573.870653 351.135998 
" clip-path="url(#p022e7b1cc0)" style="fill: none; stroke: #595959"/>
   </g>
   <g id="line2d_289">
    <path d="M 579.357267 327.394364 
L 592.159366 327.394364 
" clip-path="url(#p022e7b1cc0)" style="fill: none; stroke: #595959"/>
   </g>
   <g id="line2d_290">
    <path d="M 597.64598 296.975616 
L 610.448079 296.975616 
" clip-path="url(#p022e7b1cc0)" style="fill: none; stroke: #595959"/>
   </g>
   <g id="line2d_291">
    <path d="M 615.934693 314.865924 
L 628.736792 314.865924 
" clip-path="url(#p022e7b1cc0)" style="fill: none; stroke: #595959"/>
   </g>
   <g id="line2d_292">
    <path d="M 634.223406 312.521474 
L 647.025505 312.521474 
" clip-path="url(#p022e7b1cc0)" style="fill: none; stroke: #595959"/>
   </g>
   <g id="line2d_293">
    <path d="M 652.512119 344.868094 
L 665.314218 344.868094 
" clip-path="url(#p022e7b1cc0)" style="fill: none; stroke: #595959"/>
   </g>
   <g id="line2d_294">
    <path d="M 670.800832 268.430465 
L 683.602931 268.430465 
" clip-path="url(#p022e7b1cc0)" style="fill: none; stroke: #595959"/>
   </g>
   <g id="line2d_295">
    <path d="M 689.089545 294.676702 
L 701.891644 294.676702 
" clip-path="url(#p022e7b1cc0)" style="fill: none; stroke: #595959"/>
   </g>
   <g id="line2d_296">
    <path d="M 707.378257 246.586485 
L 720.180356 246.586485 
" clip-path="url(#p022e7b1cc0)" style="fill: none; stroke: #595959"/>
   </g>
   <g id="line2d_297">
    <path d="M 725.66697 310.331494 
L 738.469069 310.331494 
" clip-path="url(#p022e7b1cc0)" style="fill: none; stroke: #595959"/>
   </g>
   <g id="line2d_298">
    <path d="M 743.955683 258.395479 
L 756.757782 258.395479 
" clip-path="url(#p022e7b1cc0)" style="fill: none; stroke: #595959"/>
   </g>
   <g id="line2d_299">
    <path d="M 762.244396 290.146046 
L 775.046495 290.146046 
" clip-path="url(#p022e7b1cc0)" style="fill: none; stroke: #595959"/>
   </g>
   <g id="line2d_300">
    <path d="M 780.533109 289.95315 
L 793.335208 289.95315 
" clip-path="url(#p022e7b1cc0)" style="fill: none; stroke: #595959"/>
   </g>
   <g id="line2d_301">
    <path d="M 798.821822 384.320829 
L 811.623921 384.320829 
" clip-path="url(#p022e7b1cc0)" style="fill: none; stroke: #595959"/>
   </g>
   <g id="line2d_302">
    <path d="M 817.110535 262.600375 
L 829.912634 262.600375 
" clip-path="url(#p022e7b1cc0)" style="fill: none; stroke: #595959"/>
   </g>
   <g id="line2d_303">
    <path d="M 835.399248 360.054436 
L 848.201347 360.054436 
" clip-path="url(#p022e7b1cc0)" style="fill: none; stroke: #595959"/>
   </g>
   <g id="line2d_304">
    <path d="M 853.68796 326.767687 
L 866.490059 326.767687 
" clip-path="url(#p022e7b1cc0)" style="fill: none; stroke: #595959"/>
   </g>
   <g id="line2d_305">
    <path d="M 871.976673 380.246689 
L 884.778772 380.246689 
" clip-path="url(#p022e7b1cc0)" style="fill: none; stroke: #595959"/>
   </g>
   <g id="line2d_306">
    <path d="M 890.265386 248.095249 
L 903.067485 248.095249 
" clip-path="url(#p022e7b1cc0)" style="fill: none; stroke: #595959"/>
   </g>
   <g id="line2d_307">
    <path d="M 908.554099 375.011968 
L 921.356198 375.011968 
" clip-path="url(#p022e7b1cc0)" style="fill: none; stroke: #595959"/>
   </g>
   <g id="line2d_308">
    <path d="M 926.842812 333.093097 
L 939.644911 333.093097 
" clip-path="url(#p022e7b1cc0)" style="fill: none; stroke: #595959"/>
   </g>
   <g id="line2d_309">
    <path d="M 945.131525 365.711597 
L 957.933624 365.711597 
" clip-path="url(#p022e7b1cc0)" style="fill: none; stroke: #595959"/>
   </g>
   <g id="line2d_310">
    <path d="M 963.420238 275.63608 
L 976.222337 275.63608 
" clip-path="url(#p022e7b1cc0)" style="fill: none; stroke: #595959"/>
   </g>
   <g id="patch_53">
    <path d="M 64.53 525.06 
L 64.53 30.48 
" style="fill: none; stroke: #cccccc; stroke-width: 1.25; stroke-linejoin: miter; stroke-linecap: square"/>
   </g>
   <g id="patch_54">
    <path d="M 988.11 525.06 
L 988.11 30.48 
" style="fill: none; stroke: #cccccc; stroke-width: 1.25; stroke-linejoin: miter; stroke-linecap: square"/>
   </g>
   <g id="patch_55">
    <path d="M 64.53 525.06 
L 988.11 525.06 
" style="fill: none; stroke: #cccccc; stroke-width: 1.25; stroke-linejoin: miter; stroke-linecap: square"/>
   </g>
   <g id="patch_56">
    <path d="M 64.53 30.48 
L 988.11 30.48 
" style="fill: none; stroke: #cccccc; stroke-width: 1.25; stroke-linejoin: miter; stroke-linecap: square"/>
   </g>
   <g id="text_13">
    <!-- img-segmentation - coco (Iou_mean Distribution) -->
    <g style="fill: #262626" transform="translate(304.735 24.48) scale(0.16 -0.16)">
     <defs>
      <path id="DejaVuSans-Bold-69" d="M 538 3500 
L 1656 3500 
L 1656 0 
L 538 0 
L 538 3500 
z
M 538 4863 
L 1656 4863 
L 1656 3950 
L 538 3950 
L 538 4863 
z
" transform="scale(0.015625)"/>
      <path id="DejaVuSans-Bold-6d" d="M 3781 2919 
Q 3994 3244 4286 3414 
Q 4578 3584 4928 3584 
Q 5531 3584 5847 3212 
Q 6163 2841 6163 2131 
L 6163 0 
L 5038 0 
L 5038 1825 
Q 5041 1866 5042 1909 
Q 5044 1953 5044 2034 
Q 5044 2406 4934 2573 
Q 4825 2741 4581 2741 
Q 4263 2741 4089 2478 
Q 3916 2216 3909 1719 
L 3909 0 
L 2784 0 
L 2784 1825 
Q 2784 2406 2684 2573 
Q 2584 2741 2328 2741 
Q 2006 2741 1831 2477 
Q 1656 2213 1656 1722 
L 1656 0 
L 531 0 
L 531 3500 
L 1656 3500 
L 1656 2988 
Q 1863 3284 2130 3434 
Q 2397 3584 2719 3584 
Q 3081 3584 3359 3409 
Q 3638 3234 3781 2919 
z
" transform="scale(0.015625)"/>
      <path id="DejaVuSans-Bold-67" d="M 2919 594 
Q 2688 288 2409 144 
Q 2131 0 1766 0 
Q 1125 0 706 504 
Q 288 1009 288 1791 
Q 288 2575 706 3076 
Q 1125 3578 1766 3578 
Q 2131 3578 2409 3434 
Q 2688 3291 2919 2981 
L 2919 3500 
L 4044 3500 
L 4044 353 
Q 4044 -491 3511 -936 
Q 2978 -1381 1966 -1381 
Q 1638 -1381 1331 -1331 
Q 1025 -1281 716 -1178 
L 716 -306 
Q 1009 -475 1290 -558 
Q 1572 -641 1856 -641 
Q 2406 -641 2662 -400 
Q 2919 -159 2919 353 
L 2919 594 
z
M 2181 2772 
Q 1834 2772 1640 2515 
Q 1447 2259 1447 1791 
Q 1447 1309 1634 1061 
Q 1822 813 2181 813 
Q 2531 813 2725 1069 
Q 2919 1325 2919 1791 
Q 2919 2259 2725 2515 
Q 2531 2772 2181 2772 
z
" transform="scale(0.015625)"/>
      <path id="DejaVuSans-Bold-2d" d="M 347 2297 
L 2309 2297 
L 2309 1388 
L 347 1388 
L 347 2297 
z
" transform="scale(0.015625)"/>
      <path id="DejaVuSans-Bold-73" d="M 3272 3391 
L 3272 2541 
Q 2913 2691 2578 2766 
Q 2244 2841 1947 2841 
Q 1628 2841 1473 2761 
Q 1319 2681 1319 2516 
Q 1319 2381 1436 2309 
Q 1553 2238 1856 2203 
L 2053 2175 
Q 2913 2066 3209 1816 
Q 3506 1566 3506 1031 
Q 3506 472 3093 190 
Q 2681 -91 1863 -91 
Q 1516 -91 1145 -36 
Q 775 19 384 128 
L 384 978 
Q 719 816 1070 734 
Q 1422 653 1784 653 
Q 2113 653 2278 743 
Q 2444 834 2444 1013 
Q 2444 1163 2330 1236 
Q 2216 1309 1875 1350 
L 1678 1375 
Q 931 1469 631 1722 
Q 331 1975 331 2491 
Q 331 3047 712 3315 
Q 1094 3584 1881 3584 
Q 2191 3584 2531 3537 
Q 2872 3491 3272 3391 
z
" transform="scale(0.015625)"/>
      <path id="DejaVuSans-Bold-65" d="M 4031 1759 
L 4031 1441 
L 1416 1441 
Q 1456 1047 1700 850 
Q 1944 653 2381 653 
Q 2734 653 3104 758 
Q 3475 863 3866 1075 
L 3866 213 
Q 3469 63 3072 -14 
Q 2675 -91 2278 -91 
Q 1328 -91 801 392 
Q 275 875 275 1747 
Q 275 2603 792 3093 
Q 1309 3584 2216 3584 
Q 3041 3584 3536 3087 
Q 4031 2591 4031 1759 
z
M 2881 2131 
Q 2881 2450 2695 2645 
Q 2509 2841 2209 2841 
Q 1884 2841 1681 2658 
Q 1478 2475 1428 2131 
L 2881 2131 
z
" transform="scale(0.015625)"/>
      <path id="DejaVuSans-Bold-6e" d="M 4056 2131 
L 4056 0 
L 2931 0 
L 2931 347 
L 2931 1631 
Q 2931 2084 2911 2256 
Q 2891 2428 2841 2509 
Q 2775 2619 2662 2680 
Q 2550 2741 2406 2741 
Q 2056 2741 1856 2470 
Q 1656 2200 1656 1722 
L 1656 0 
L 538 0 
L 538 3500 
L 1656 3500 
L 1656 2988 
Q 1909 3294 2193 3439 
Q 2478 3584 2822 3584 
Q 3428 3584 3742 3212 
Q 4056 2841 4056 2131 
z
" transform="scale(0.015625)"/>
      <path id="DejaVuSans-Bold-74" d="M 1759 4494 
L 1759 3500 
L 2913 3500 
L 2913 2700 
L 1759 2700 
L 1759 1216 
Q 1759 972 1856 886 
Q 1953 800 2241 800 
L 2816 800 
L 2816 0 
L 1856 0 
Q 1194 0 917 276 
Q 641 553 641 1216 
L 641 2700 
L 84 2700 
L 84 3500 
L 641 3500 
L 641 4494 
L 1759 4494 
z
" transform="scale(0.015625)"/>
      <path id="DejaVuSans-Bold-61" d="M 2106 1575 
Q 1756 1575 1579 1456 
Q 1403 1338 1403 1106 
Q 1403 894 1545 773 
Q 1688 653 1941 653 
Q 2256 653 2472 879 
Q 2688 1106 2688 1447 
L 2688 1575 
L 2106 1575 
z
M 3816 1997 
L 3816 0 
L 2688 0 
L 2688 519 
Q 2463 200 2181 54 
Q 1900 -91 1497 -91 
Q 953 -91 614 226 
Q 275 544 275 1050 
Q 275 1666 698 1953 
Q 1122 2241 2028 2241 
L 2688 2241 
L 2688 2328 
Q 2688 2594 2478 2717 
Q 2269 2841 1825 2841 
Q 1466 2841 1156 2769 
Q 847 2697 581 2553 
L 581 3406 
Q 941 3494 1303 3539 
Q 1666 3584 2028 3584 
Q 2975 3584 3395 3211 
Q 3816 2838 3816 1997 
z
" transform="scale(0.015625)"/>
      <path id="DejaVuSans-Bold-6f" d="M 2203 2784 
Q 1831 2784 1636 2517 
Q 1441 2250 1441 1747 
Q 1441 1244 1636 976 
Q 1831 709 2203 709 
Q 2569 709 2762 976 
Q 2956 1244 2956 1747 
Q 2956 2250 2762 2517 
Q 2569 2784 2203 2784 
z
M 2203 3584 
Q 3106 3584 3614 3096 
Q 4122 2609 4122 1747 
Q 4122 884 3614 396 
Q 3106 -91 2203 -91 
Q 1297 -91 786 396 
Q 275 884 275 1747 
Q 275 2609 786 3096 
Q 1297 3584 2203 3584 
z
" transform="scale(0.015625)"/>
      <path id="DejaVuSans-Bold-20" transform="scale(0.015625)"/>
      <path id="DejaVuSans-Bold-63" d="M 3366 3391 
L 3366 2478 
Q 3138 2634 2908 2709 
Q 2678 2784 2431 2784 
Q 1963 2784 1702 2511 
Q 1441 2238 1441 1747 
Q 1441 1256 1702 982 
Q 1963 709 2431 709 
Q 2694 709 2930 787 
Q 3166 866 3366 1019 
L 3366 103 
Q 3103 6 2833 -42 
Q 2563 -91 2291 -91 
Q 1344 -91 809 395 
Q 275 881 275 1747 
Q 275 2613 809 3098 
Q 1344 3584 2291 3584 
Q 2566 3584 2833 3536 
Q 3100 3488 3366 3391 
z
" transform="scale(0.015625)"/>
      <path id="DejaVuSans-Bold-28" d="M 2413 -844 
L 1484 -844 
Q 1006 -72 778 623 
Q 550 1319 550 2003 
Q 550 2688 779 3389 
Q 1009 4091 1484 4856 
L 2413 4856 
Q 2013 4116 1813 3408 
Q 1613 2700 1613 2009 
Q 1613 1319 1811 609 
Q 2009 -100 2413 -844 
z
" transform="scale(0.015625)"/>
      <path id="DejaVuSans-Bold-49" d="M 588 4666 
L 1791 4666 
L 1791 0 
L 588 0 
L 588 4666 
z
" transform="scale(0.015625)"/>
      <path id="DejaVuSans-Bold-75" d="M 500 1363 
L 500 3500 
L 1625 3500 
L 1625 3150 
Q 1625 2866 1622 2436 
Q 1619 2006 1619 1863 
Q 1619 1441 1641 1255 
Q 1663 1069 1716 984 
Q 1784 875 1895 815 
Q 2006 756 2150 756 
Q 2500 756 2700 1025 
Q 2900 1294 2900 1772 
L 2900 3500 
L 4019 3500 
L 4019 0 
L 2900 0 
L 2900 506 
Q 2647 200 2364 54 
Q 2081 -91 1741 -91 
Q 1134 -91 817 281 
Q 500 653 500 1363 
z
" transform="scale(0.015625)"/>
      <path id="DejaVuSans-Bold-5f" d="M 3200 -916 
L 3200 -1509 
L 0 -1509 
L 0 -916 
L 3200 -916 
z
" transform="scale(0.015625)"/>
      <path id="DejaVuSans-Bold-44" d="M 1791 3756 
L 1791 909 
L 2222 909 
Q 2959 909 3348 1275 
Q 3738 1641 3738 2338 
Q 3738 3031 3350 3393 
Q 2963 3756 2222 3756 
L 1791 3756 
z
M 588 4666 
L 1856 4666 
Q 2919 4666 3439 4514 
Q 3959 4363 4331 4000 
Q 4659 3684 4818 3271 
Q 4978 2859 4978 2338 
Q 4978 1809 4818 1395 
Q 4659 981 4331 666 
Q 3956 303 3431 151 
Q 2906 0 1856 0 
L 588 0 
L 588 4666 
z
" transform="scale(0.015625)"/>
      <path id="DejaVuSans-Bold-72" d="M 3138 2547 
Q 2991 2616 2845 2648 
Q 2700 2681 2553 2681 
Q 2122 2681 1889 2404 
Q 1656 2128 1656 1613 
L 1656 0 
L 538 0 
L 538 3500 
L 1656 3500 
L 1656 2925 
Q 1872 3269 2151 3426 
Q 2431 3584 2822 3584 
Q 2878 3584 2943 3579 
Q 3009 3575 3134 3559 
L 3138 2547 
z
" transform="scale(0.015625)"/>
      <path id="DejaVuSans-Bold-62" d="M 2400 722 
Q 2759 722 2948 984 
Q 3138 1247 3138 1747 
Q 3138 2247 2948 2509 
Q 2759 2772 2400 2772 
Q 2041 2772 1848 2508 
Q 1656 2244 1656 1747 
Q 1656 1250 1848 986 
Q 2041 722 2400 722 
z
M 1656 2988 
Q 1888 3294 2169 3439 
Q 2450 3584 2816 3584 
Q 3463 3584 3878 3070 
Q 4294 2556 4294 1747 
Q 4294 938 3878 423 
Q 3463 -91 2816 -91 
Q 2450 -91 2169 54 
Q 1888 200 1656 506 
L 1656 0 
L 538 0 
L 538 4863 
L 1656 4863 
L 1656 2988 
z
" transform="scale(0.015625)"/>
      <path id="DejaVuSans-Bold-29" d="M 513 -844 
Q 913 -100 1113 609 
Q 1313 1319 1313 2009 
Q 1313 2700 1113 3408 
Q 913 4116 513 4856 
L 1441 4856 
Q 1916 4091 2145 3389 
Q 2375 2688 2375 2003 
Q 2375 1319 2147 623 
Q 1919 -72 1441 -844 
L 513 -844 
z
" transform="scale(0.015625)"/>
     </defs>
     <use xlink:href="#DejaVuSans-Bold-69"/>
     <use xlink:href="#DejaVuSans-Bold-6d" transform="translate(34.277344 0)"/>
     <use xlink:href="#DejaVuSans-Bold-67" transform="translate(138.476562 0)"/>
     <use xlink:href="#DejaVuSans-Bold-2d" transform="translate(210.058594 0)"/>
     <use xlink:href="#DejaVuSans-Bold-73" transform="translate(251.5625 0)"/>
     <use xlink:href="#DejaVuSans-Bold-65" transform="translate(311.083984 0)"/>
     <use xlink:href="#DejaVuSans-Bold-67" transform="translate(378.90625 0)"/>
     <use xlink:href="#DejaVuSans-Bold-6d" transform="translate(450.488281 0)"/>
     <use xlink:href="#DejaVuSans-Bold-65" transform="translate(554.6875 0)"/>
     <use xlink:href="#DejaVuSans-Bold-6e" transform="translate(622.509766 0)"/>
     <use xlink:href="#DejaVuSans-Bold-74" transform="translate(693.701172 0)"/>
     <use xlink:href="#DejaVuSans-Bold-61" transform="translate(741.503906 0)"/>
     <use xlink:href="#DejaVuSans-Bold-74" transform="translate(808.984375 0)"/>
     <use xlink:href="#DejaVuSans-Bold-69" transform="translate(856.787109 0)"/>
     <use xlink:href="#DejaVuSans-Bold-6f" transform="translate(891.064453 0)"/>
     <use xlink:href="#DejaVuSans-Bold-6e" transform="translate(959.765625 0)"/>
     <use xlink:href="#DejaVuSans-Bold-20" transform="translate(1030.957031 0)"/>
     <use xlink:href="#DejaVuSans-Bold-2d" transform="translate(1065.771484 0)"/>
     <use xlink:href="#DejaVuSans-Bold-20" transform="translate(1107.275391 0)"/>
     <use xlink:href="#DejaVuSans-Bold-63" transform="translate(1142.089844 0)"/>
     <use xlink:href="#DejaVuSans-Bold-6f" transform="translate(1201.367188 0)"/>
     <use xlink:href="#DejaVuSans-Bold-63" transform="translate(1270.068359 0)"/>
     <use xlink:href="#DejaVuSans-Bold-6f" transform="translate(1329.345703 0)"/>
     <use xlink:href="#DejaVuSans-Bold-20" transform="translate(1398.046875 0)"/>
     <use xlink:href="#DejaVuSans-Bold-28" transform="translate(1432.861328 0)"/>
     <use xlink:href="#DejaVuSans-Bold-49" transform="translate(1478.564453 0)"/>
     <use xlink:href="#DejaVuSans-Bold-6f" transform="translate(1515.771484 0)"/>
     <use xlink:href="#DejaVuSans-Bold-75" transform="translate(1584.472656 0)"/>
     <use xlink:href="#DejaVuSans-Bold-5f" transform="translate(1655.664062 0)"/>
     <use xlink:href="#DejaVuSans-Bold-6d" transform="translate(1705.664062 0)"/>
     <use xlink:href="#DejaVuSans-Bold-65" transform="translate(1809.863281 0)"/>
     <use xlink:href="#DejaVuSans-Bold-61" transform="translate(1877.685547 0)"/>
     <use xlink:href="#DejaVuSans-Bold-6e" transform="translate(1945.166016 0)"/>
     <use xlink:href="#DejaVuSans-Bold-20" transform="translate(2016.357422 0)"/>
     <use xlink:href="#DejaVuSans-Bold-44" transform="translate(2051.171875 0)"/>
     <use xlink:href="#DejaVuSans-Bold-69" transform="translate(2134.179688 0)"/>
     <use xlink:href="#DejaVuSans-Bold-73" transform="translate(2168.457031 0)"/>
     <use xlink:href="#DejaVuSans-Bold-74" transform="translate(2227.978516 0)"/>
     <use xlink:href="#DejaVuSans-Bold-72" transform="translate(2275.78125 0)"/>
     <use xlink:href="#DejaVuSans-Bold-69" transform="translate(2325.097656 0)"/>
     <use xlink:href="#DejaVuSans-Bold-62" transform="translate(2359.375 0)"/>
     <use xlink:href="#DejaVuSans-Bold-75" transform="translate(2430.957031 0)"/>
     <use xlink:href="#DejaVuSans-Bold-74" transform="translate(2502.148438 0)"/>
     <use xlink:href="#DejaVuSans-Bold-69" transform="translate(2549.951172 0)"/>
     <use xlink:href="#DejaVuSans-Bold-6f" transform="translate(2584.228516 0)"/>
     <use xlink:href="#DejaVuSans-Bold-6e" transform="translate(2652.929688 0)"/>
     <use xlink:href="#DejaVuSans-Bold-29" transform="translate(2724.121094 0)"/>
    </g>
   </g>
  </g>
 </g>
 <defs>
  <clipPath id="p022e7b1cc0">
   <rect x="64.53" y="30.48" width="923.58" height="494.58"/>
  </clipPath>
 </defs>
</svg>
