<?xml version="1.0" encoding="utf-8" standalone="no"?>
<!DOCTYPE svg PUBLIC "-//W3C//DTD SVG 1.1//EN"
  "http://www.w3.org/Graphics/SVG/1.1/DTD/svg11.dtd">
<svg xmlns:xlink="http://www.w3.org/1999/xlink" width="1008pt" height="576pt" viewBox="0 0 1008 576" xmlns="http://www.w3.org/2000/svg" version="1.1">
 <metadata>
  <rdf:RDF xmlns:dc="http://purl.org/dc/elements/1.1/" xmlns:cc="http://creativecommons.org/ns#" xmlns:rdf="http://www.w3.org/1999/02/22-rdf-syntax-ns#">
   <cc:Work>
    <dc:type rdf:resource="http://purl.org/dc/dcmitype/StillImage"/>
    <dc:date>2025-04-13T10:41:58.387581</dc:date>
    <dc:format>image/svg+xml</dc:format>
    <dc:creator>
     <cc:Agent>
      <dc:title>Matplotlib v3.10.1, https://matplotlib.org/</dc:title>
     </cc:Agent>
    </dc:creator>
   </cc:Work>
  </rdf:RDF>
 </metadata>
 <defs>
  <style type="text/css">*{stroke-linejoin: round; stroke-linecap: butt}</style>
 </defs>
 <g id="figure_1">
  <g id="patch_1">
   <path d="M 0 576 
L 1008 576 
L 1008 0 
L 0 0 
z
" style="fill: #ffffff"/>
  </g>
  <g id="axes_1">
   <g id="patch_2">
    <path d="M 61.03125 526.5 
L 988.92 526.5 
L 988.92 30.58125 
L 61.03125 30.58125 
z
" style="fill: #ffffff"/>
   </g>
   <g id="matplotlib.axis_1">
    <g id="xtick_1">
     <g id="line2d_1">
      <path d="M 70.218267 526.5 
L 70.218267 30.58125 
" clip-path="url(#p69075b127e)" style="fill: none; stroke-dasharray: 3.7,1.6; stroke-dashoffset: 0; stroke: #cccccc; stroke-opacity: 0.5"/>
     </g>
     <g id="text_1">
      <!-- 0 -->
      <g style="fill: #262626" transform="translate(67.159752 543.873594) scale(0.11 -0.11)">
       <defs>
        <path id="ArialMT-30" d="M 266 2259 
Q 266 3072 433 3567 
Q 600 4063 929 4331 
Q 1259 4600 1759 4600 
Q 2128 4600 2406 4451 
Q 2684 4303 2865 4023 
Q 3047 3744 3150 3342 
Q 3253 2941 3253 2259 
Q 3253 1453 3087 958 
Q 2922 463 2592 192 
Q 2263 -78 1759 -78 
Q 1097 -78 719 397 
Q 266 969 266 2259 
z
M 844 2259 
Q 844 1131 1108 757 
Q 1372 384 1759 384 
Q 2147 384 2411 759 
Q 2675 1134 2675 2259 
Q 2675 3391 2411 3762 
Q 2147 4134 1753 4134 
Q 1366 4134 1134 3806 
Q 844 3388 844 2259 
z
" transform="scale(0.015625)"/>
       </defs>
       <use xlink:href="#ArialMT-30"/>
      </g>
     </g>
    </g>
    <g id="xtick_2">
     <g id="line2d_2">
      <path d="M 253.958614 526.5 
L 253.958614 30.58125 
" clip-path="url(#p69075b127e)" style="fill: none; stroke-dasharray: 3.7,1.6; stroke-dashoffset: 0; stroke: #cccccc; stroke-opacity: 0.5"/>
     </g>
     <g id="text_2">
      <!-- 10 -->
      <g style="fill: #262626" transform="translate(247.841583 543.873594) scale(0.11 -0.11)">
       <defs>
        <path id="ArialMT-31" d="M 2384 0 
L 1822 0 
L 1822 3584 
Q 1619 3391 1289 3197 
Q 959 3003 697 2906 
L 697 3450 
Q 1169 3672 1522 3987 
Q 1875 4303 2022 4600 
L 2384 4600 
L 2384 0 
z
" transform="scale(0.015625)"/>
       </defs>
       <use xlink:href="#ArialMT-31"/>
       <use xlink:href="#ArialMT-30" transform="translate(55.615234 0)"/>
      </g>
     </g>
    </g>
    <g id="xtick_3">
     <g id="line2d_3">
      <path d="M 437.69896 526.5 
L 437.69896 30.58125 
" clip-path="url(#p69075b127e)" style="fill: none; stroke-dasharray: 3.7,1.6; stroke-dashoffset: 0; stroke: #cccccc; stroke-opacity: 0.5"/>
     </g>
     <g id="text_3">
      <!-- 20 -->
      <g style="fill: #262626" transform="translate(431.581929 543.873594) scale(0.11 -0.11)">
       <defs>
        <path id="ArialMT-32" d="M 3222 541 
L 3222 0 
L 194 0 
Q 188 203 259 391 
Q 375 700 629 1000 
Q 884 1300 1366 1694 
Q 2113 2306 2375 2664 
Q 2638 3022 2638 3341 
Q 2638 3675 2398 3904 
Q 2159 4134 1775 4134 
Q 1369 4134 1125 3890 
Q 881 3647 878 3216 
L 300 3275 
Q 359 3922 746 4261 
Q 1134 4600 1788 4600 
Q 2447 4600 2831 4234 
Q 3216 3869 3216 3328 
Q 3216 3053 3103 2787 
Q 2991 2522 2730 2228 
Q 2469 1934 1863 1422 
Q 1356 997 1212 845 
Q 1069 694 975 541 
L 3222 541 
z
" transform="scale(0.015625)"/>
       </defs>
       <use xlink:href="#ArialMT-32"/>
       <use xlink:href="#ArialMT-30" transform="translate(55.615234 0)"/>
      </g>
     </g>
    </g>
    <g id="xtick_4">
     <g id="line2d_4">
      <path d="M 621.439307 526.5 
L 621.439307 30.58125 
" clip-path="url(#p69075b127e)" style="fill: none; stroke-dasharray: 3.7,1.6; stroke-dashoffset: 0; stroke: #cccccc; stroke-opacity: 0.5"/>
     </g>
     <g id="text_4">
      <!-- 30 -->
      <g style="fill: #262626" transform="translate(615.322276 543.873594) scale(0.11 -0.11)">
       <defs>
        <path id="ArialMT-33" d="M 269 1209 
L 831 1284 
Q 928 806 1161 595 
Q 1394 384 1728 384 
Q 2125 384 2398 659 
Q 2672 934 2672 1341 
Q 2672 1728 2419 1979 
Q 2166 2231 1775 2231 
Q 1616 2231 1378 2169 
L 1441 2663 
Q 1497 2656 1531 2656 
Q 1891 2656 2178 2843 
Q 2466 3031 2466 3422 
Q 2466 3731 2256 3934 
Q 2047 4138 1716 4138 
Q 1388 4138 1169 3931 
Q 950 3725 888 3313 
L 325 3413 
Q 428 3978 793 4289 
Q 1159 4600 1703 4600 
Q 2078 4600 2393 4439 
Q 2709 4278 2876 4000 
Q 3044 3722 3044 3409 
Q 3044 3113 2884 2869 
Q 2725 2625 2413 2481 
Q 2819 2388 3044 2092 
Q 3269 1797 3269 1353 
Q 3269 753 2831 336 
Q 2394 -81 1725 -81 
Q 1122 -81 723 278 
Q 325 638 269 1209 
z
" transform="scale(0.015625)"/>
       </defs>
       <use xlink:href="#ArialMT-33"/>
       <use xlink:href="#ArialMT-30" transform="translate(55.615234 0)"/>
      </g>
     </g>
    </g>
    <g id="xtick_5">
     <g id="line2d_5">
      <path d="M 805.179653 526.5 
L 805.179653 30.58125 
" clip-path="url(#p69075b127e)" style="fill: none; stroke-dasharray: 3.7,1.6; stroke-dashoffset: 0; stroke: #cccccc; stroke-opacity: 0.5"/>
     </g>
     <g id="text_5">
      <!-- 40 -->
      <g style="fill: #262626" transform="translate(799.062622 543.873594) scale(0.11 -0.11)">
       <defs>
        <path id="ArialMT-34" d="M 2069 0 
L 2069 1097 
L 81 1097 
L 81 1613 
L 2172 4581 
L 2631 4581 
L 2631 1613 
L 3250 1613 
L 3250 1097 
L 2631 1097 
L 2631 0 
L 2069 0 
z
M 2069 1613 
L 2069 3678 
L 634 1613 
L 2069 1613 
z
" transform="scale(0.015625)"/>
       </defs>
       <use xlink:href="#ArialMT-34"/>
       <use xlink:href="#ArialMT-30" transform="translate(55.615234 0)"/>
      </g>
     </g>
    </g>
    <g id="xtick_6">
     <g id="line2d_6">
      <path d="M 988.92 526.5 
L 988.92 30.58125 
" clip-path="url(#p69075b127e)" style="fill: none; stroke-dasharray: 3.7,1.6; stroke-dashoffset: 0; stroke: #cccccc; stroke-opacity: 0.5"/>
     </g>
     <g id="text_6">
      <!-- 50 -->
      <g style="fill: #262626" transform="translate(982.802969 543.873594) scale(0.11 -0.11)">
       <defs>
        <path id="ArialMT-35" d="M 266 1200 
L 856 1250 
Q 922 819 1161 601 
Q 1400 384 1738 384 
Q 2144 384 2425 690 
Q 2706 997 2706 1503 
Q 2706 1984 2436 2262 
Q 2166 2541 1728 2541 
Q 1456 2541 1237 2417 
Q 1019 2294 894 2097 
L 366 2166 
L 809 4519 
L 3088 4519 
L 3088 3981 
L 1259 3981 
L 1013 2750 
Q 1425 3038 1878 3038 
Q 2478 3038 2890 2622 
Q 3303 2206 3303 1553 
Q 3303 931 2941 478 
Q 2500 -78 1738 -78 
Q 1113 -78 717 272 
Q 322 622 266 1200 
z
" transform="scale(0.015625)"/>
       </defs>
       <use xlink:href="#ArialMT-35"/>
       <use xlink:href="#ArialMT-30" transform="translate(55.615234 0)"/>
      </g>
     </g>
    </g>
    <g id="text_7">
     <!-- Epoch -->
     <g style="fill: #262626" transform="translate(505.128438 560.080781) scale(0.14 -0.14)">
      <defs>
       <path id="ArialMT-45" d="M 506 0 
L 506 4581 
L 3819 4581 
L 3819 4041 
L 1113 4041 
L 1113 2638 
L 3647 2638 
L 3647 2100 
L 1113 2100 
L 1113 541 
L 3925 541 
L 3925 0 
L 506 0 
z
" transform="scale(0.015625)"/>
       <path id="ArialMT-70" d="M 422 -1272 
L 422 3319 
L 934 3319 
L 934 2888 
Q 1116 3141 1344 3267 
Q 1572 3394 1897 3394 
Q 2322 3394 2647 3175 
Q 2972 2956 3137 2557 
Q 3303 2159 3303 1684 
Q 3303 1175 3120 767 
Q 2938 359 2589 142 
Q 2241 -75 1856 -75 
Q 1575 -75 1351 44 
Q 1128 163 984 344 
L 984 -1272 
L 422 -1272 
z
M 931 1641 
Q 931 1000 1190 694 
Q 1450 388 1819 388 
Q 2194 388 2461 705 
Q 2728 1022 2728 1688 
Q 2728 2322 2467 2637 
Q 2206 2953 1844 2953 
Q 1484 2953 1207 2617 
Q 931 2281 931 1641 
z
" transform="scale(0.015625)"/>
       <path id="ArialMT-6f" d="M 213 1659 
Q 213 2581 725 3025 
Q 1153 3394 1769 3394 
Q 2453 3394 2887 2945 
Q 3322 2497 3322 1706 
Q 3322 1066 3130 698 
Q 2938 331 2570 128 
Q 2203 -75 1769 -75 
Q 1072 -75 642 372 
Q 213 819 213 1659 
z
M 791 1659 
Q 791 1022 1069 705 
Q 1347 388 1769 388 
Q 2188 388 2466 706 
Q 2744 1025 2744 1678 
Q 2744 2294 2464 2611 
Q 2184 2928 1769 2928 
Q 1347 2928 1069 2612 
Q 791 2297 791 1659 
z
" transform="scale(0.015625)"/>
       <path id="ArialMT-63" d="M 2588 1216 
L 3141 1144 
Q 3050 572 2676 248 
Q 2303 -75 1759 -75 
Q 1078 -75 664 370 
Q 250 816 250 1647 
Q 250 2184 428 2587 
Q 606 2991 970 3192 
Q 1334 3394 1763 3394 
Q 2303 3394 2647 3120 
Q 2991 2847 3088 2344 
L 2541 2259 
Q 2463 2594 2264 2762 
Q 2066 2931 1784 2931 
Q 1359 2931 1093 2626 
Q 828 2322 828 1663 
Q 828 994 1084 691 
Q 1341 388 1753 388 
Q 2084 388 2306 591 
Q 2528 794 2588 1216 
z
" transform="scale(0.015625)"/>
       <path id="ArialMT-68" d="M 422 0 
L 422 4581 
L 984 4581 
L 984 2938 
Q 1378 3394 1978 3394 
Q 2347 3394 2619 3248 
Q 2891 3103 3008 2847 
Q 3125 2591 3125 2103 
L 3125 0 
L 2563 0 
L 2563 2103 
Q 2563 2525 2380 2717 
Q 2197 2909 1863 2909 
Q 1613 2909 1392 2779 
Q 1172 2650 1078 2428 
Q 984 2206 984 1816 
L 984 0 
L 422 0 
z
" transform="scale(0.015625)"/>
      </defs>
      <use xlink:href="#ArialMT-45"/>
      <use xlink:href="#ArialMT-70" transform="translate(66.699219 0)"/>
      <use xlink:href="#ArialMT-6f" transform="translate(122.314453 0)"/>
      <use xlink:href="#ArialMT-63" transform="translate(177.929688 0)"/>
      <use xlink:href="#ArialMT-68" transform="translate(227.929688 0)"/>
     </g>
    </g>
   </g>
   <g id="matplotlib.axis_2">
    <g id="ytick_1">
     <g id="line2d_7">
      <path d="M 61.03125 509.663151 
L 988.92 509.663151 
" clip-path="url(#p69075b127e)" style="fill: none; stroke-dasharray: 3.7,1.6; stroke-dashoffset: 0; stroke: #cccccc; stroke-opacity: 0.5"/>
     </g>
     <g id="text_8">
      <!-- 0.00 -->
      <g style="fill: #262626" transform="translate(30.124219 513.599948) scale(0.11 -0.11)">
       <defs>
        <path id="ArialMT-2e" d="M 581 0 
L 581 641 
L 1222 641 
L 1222 0 
L 581 0 
z
" transform="scale(0.015625)"/>
       </defs>
       <use xlink:href="#ArialMT-30"/>
       <use xlink:href="#ArialMT-2e" transform="translate(55.615234 0)"/>
       <use xlink:href="#ArialMT-30" transform="translate(83.398438 0)"/>
       <use xlink:href="#ArialMT-30" transform="translate(139.013672 0)"/>
      </g>
     </g>
    </g>
    <g id="ytick_2">
     <g id="line2d_8">
      <path d="M 61.03125 447.690145 
L 988.92 447.690145 
" clip-path="url(#p69075b127e)" style="fill: none; stroke-dasharray: 3.7,1.6; stroke-dashoffset: 0; stroke: #cccccc; stroke-opacity: 0.5"/>
     </g>
     <g id="text_9">
      <!-- 0.05 -->
      <g style="fill: #262626" transform="translate(30.124219 451.626942) scale(0.11 -0.11)">
       <use xlink:href="#ArialMT-30"/>
       <use xlink:href="#ArialMT-2e" transform="translate(55.615234 0)"/>
       <use xlink:href="#ArialMT-30" transform="translate(83.398438 0)"/>
       <use xlink:href="#ArialMT-35" transform="translate(139.013672 0)"/>
      </g>
     </g>
    </g>
    <g id="ytick_3">
     <g id="line2d_9">
      <path d="M 61.03125 385.717138 
L 988.92 385.717138 
" clip-path="url(#p69075b127e)" style="fill: none; stroke-dasharray: 3.7,1.6; stroke-dashoffset: 0; stroke: #cccccc; stroke-opacity: 0.5"/>
     </g>
     <g id="text_10">
      <!-- 0.10 -->
      <g style="fill: #262626" transform="translate(30.124219 389.653935) scale(0.11 -0.11)">
       <use xlink:href="#ArialMT-30"/>
       <use xlink:href="#ArialMT-2e" transform="translate(55.615234 0)"/>
       <use xlink:href="#ArialMT-31" transform="translate(83.398438 0)"/>
       <use xlink:href="#ArialMT-30" transform="translate(139.013672 0)"/>
      </g>
     </g>
    </g>
    <g id="ytick_4">
     <g id="line2d_10">
      <path d="M 61.03125 323.744132 
L 988.92 323.744132 
" clip-path="url(#p69075b127e)" style="fill: none; stroke-dasharray: 3.7,1.6; stroke-dashoffset: 0; stroke: #cccccc; stroke-opacity: 0.5"/>
     </g>
     <g id="text_11">
      <!-- 0.15 -->
      <g style="fill: #262626" transform="translate(30.124219 327.680929) scale(0.11 -0.11)">
       <use xlink:href="#ArialMT-30"/>
       <use xlink:href="#ArialMT-2e" transform="translate(55.615234 0)"/>
       <use xlink:href="#ArialMT-31" transform="translate(83.398438 0)"/>
       <use xlink:href="#ArialMT-35" transform="translate(139.013672 0)"/>
      </g>
     </g>
    </g>
    <g id="ytick_5">
     <g id="line2d_11">
      <path d="M 61.03125 261.771126 
L 988.92 261.771126 
" clip-path="url(#p69075b127e)" style="fill: none; stroke-dasharray: 3.7,1.6; stroke-dashoffset: 0; stroke: #cccccc; stroke-opacity: 0.5"/>
     </g>
     <g id="text_12">
      <!-- 0.20 -->
      <g style="fill: #262626" transform="translate(30.124219 265.707923) scale(0.11 -0.11)">
       <use xlink:href="#ArialMT-30"/>
       <use xlink:href="#ArialMT-2e" transform="translate(55.615234 0)"/>
       <use xlink:href="#ArialMT-32" transform="translate(83.398438 0)"/>
       <use xlink:href="#ArialMT-30" transform="translate(139.013672 0)"/>
      </g>
     </g>
    </g>
    <g id="ytick_6">
     <g id="line2d_12">
      <path d="M 61.03125 199.798119 
L 988.92 199.798119 
" clip-path="url(#p69075b127e)" style="fill: none; stroke-dasharray: 3.7,1.6; stroke-dashoffset: 0; stroke: #cccccc; stroke-opacity: 0.5"/>
     </g>
     <g id="text_13">
      <!-- 0.25 -->
      <g style="fill: #262626" transform="translate(30.124219 203.734916) scale(0.11 -0.11)">
       <use xlink:href="#ArialMT-30"/>
       <use xlink:href="#ArialMT-2e" transform="translate(55.615234 0)"/>
       <use xlink:href="#ArialMT-32" transform="translate(83.398438 0)"/>
       <use xlink:href="#ArialMT-35" transform="translate(139.013672 0)"/>
      </g>
     </g>
    </g>
    <g id="ytick_7">
     <g id="line2d_13">
      <path d="M 61.03125 137.825113 
L 988.92 137.825113 
" clip-path="url(#p69075b127e)" style="fill: none; stroke-dasharray: 3.7,1.6; stroke-dashoffset: 0; stroke: #cccccc; stroke-opacity: 0.5"/>
     </g>
     <g id="text_14">
      <!-- 0.30 -->
      <g style="fill: #262626" transform="translate(30.124219 141.76191) scale(0.11 -0.11)">
       <use xlink:href="#ArialMT-30"/>
       <use xlink:href="#ArialMT-2e" transform="translate(55.615234 0)"/>
       <use xlink:href="#ArialMT-33" transform="translate(83.398438 0)"/>
       <use xlink:href="#ArialMT-30" transform="translate(139.013672 0)"/>
      </g>
     </g>
    </g>
    <g id="ytick_8">
     <g id="line2d_14">
      <path d="M 61.03125 75.852107 
L 988.92 75.852107 
" clip-path="url(#p69075b127e)" style="fill: none; stroke-dasharray: 3.7,1.6; stroke-dashoffset: 0; stroke: #cccccc; stroke-opacity: 0.5"/>
     </g>
     <g id="text_15">
      <!-- 0.35 -->
      <g style="fill: #262626" transform="translate(30.124219 79.788904) scale(0.11 -0.11)">
       <use xlink:href="#ArialMT-30"/>
       <use xlink:href="#ArialMT-2e" transform="translate(55.615234 0)"/>
       <use xlink:href="#ArialMT-33" transform="translate(83.398438 0)"/>
       <use xlink:href="#ArialMT-35" transform="translate(139.013672 0)"/>
      </g>
     </g>
    </g>
    <g id="text_16">
     <!-- Accuracy_mean -->
     <g style="fill: #262626" transform="translate(23.177656 328.727344) rotate(-90) scale(0.14 -0.14)">
      <defs>
       <path id="ArialMT-41" d="M -9 0 
L 1750 4581 
L 2403 4581 
L 4278 0 
L 3588 0 
L 3053 1388 
L 1138 1388 
L 634 0 
L -9 0 
z
M 1313 1881 
L 2866 1881 
L 2388 3150 
Q 2169 3728 2063 4100 
Q 1975 3659 1816 3225 
L 1313 1881 
z
" transform="scale(0.015625)"/>
       <path id="ArialMT-75" d="M 2597 0 
L 2597 488 
Q 2209 -75 1544 -75 
Q 1250 -75 995 37 
Q 741 150 617 320 
Q 494 491 444 738 
Q 409 903 409 1263 
L 409 3319 
L 972 3319 
L 972 1478 
Q 972 1038 1006 884 
Q 1059 663 1231 536 
Q 1403 409 1656 409 
Q 1909 409 2131 539 
Q 2353 669 2445 892 
Q 2538 1116 2538 1541 
L 2538 3319 
L 3100 3319 
L 3100 0 
L 2597 0 
z
" transform="scale(0.015625)"/>
       <path id="ArialMT-72" d="M 416 0 
L 416 3319 
L 922 3319 
L 922 2816 
Q 1116 3169 1280 3281 
Q 1444 3394 1641 3394 
Q 1925 3394 2219 3213 
L 2025 2691 
Q 1819 2813 1613 2813 
Q 1428 2813 1281 2702 
Q 1134 2591 1072 2394 
Q 978 2094 978 1738 
L 978 0 
L 416 0 
z
" transform="scale(0.015625)"/>
       <path id="ArialMT-61" d="M 2588 409 
Q 2275 144 1986 34 
Q 1697 -75 1366 -75 
Q 819 -75 525 192 
Q 231 459 231 875 
Q 231 1119 342 1320 
Q 453 1522 633 1644 
Q 813 1766 1038 1828 
Q 1203 1872 1538 1913 
Q 2219 1994 2541 2106 
Q 2544 2222 2544 2253 
Q 2544 2597 2384 2738 
Q 2169 2928 1744 2928 
Q 1347 2928 1158 2789 
Q 969 2650 878 2297 
L 328 2372 
Q 403 2725 575 2942 
Q 747 3159 1072 3276 
Q 1397 3394 1825 3394 
Q 2250 3394 2515 3294 
Q 2781 3194 2906 3042 
Q 3031 2891 3081 2659 
Q 3109 2516 3109 2141 
L 3109 1391 
Q 3109 606 3145 398 
Q 3181 191 3288 0 
L 2700 0 
Q 2613 175 2588 409 
z
M 2541 1666 
Q 2234 1541 1622 1453 
Q 1275 1403 1131 1340 
Q 988 1278 909 1158 
Q 831 1038 831 891 
Q 831 666 1001 516 
Q 1172 366 1500 366 
Q 1825 366 2078 508 
Q 2331 650 2450 897 
Q 2541 1088 2541 1459 
L 2541 1666 
z
" transform="scale(0.015625)"/>
       <path id="ArialMT-79" d="M 397 -1278 
L 334 -750 
Q 519 -800 656 -800 
Q 844 -800 956 -737 
Q 1069 -675 1141 -563 
Q 1194 -478 1313 -144 
Q 1328 -97 1363 -6 
L 103 3319 
L 709 3319 
L 1400 1397 
Q 1534 1031 1641 628 
Q 1738 1016 1872 1384 
L 2581 3319 
L 3144 3319 
L 1881 -56 
Q 1678 -603 1566 -809 
Q 1416 -1088 1222 -1217 
Q 1028 -1347 759 -1347 
Q 597 -1347 397 -1278 
z
" transform="scale(0.015625)"/>
       <path id="ArialMT-5f" d="M -97 -1272 
L -97 -866 
L 3631 -866 
L 3631 -1272 
L -97 -1272 
z
" transform="scale(0.015625)"/>
       <path id="ArialMT-6d" d="M 422 0 
L 422 3319 
L 925 3319 
L 925 2853 
Q 1081 3097 1340 3245 
Q 1600 3394 1931 3394 
Q 2300 3394 2536 3241 
Q 2772 3088 2869 2813 
Q 3263 3394 3894 3394 
Q 4388 3394 4653 3120 
Q 4919 2847 4919 2278 
L 4919 0 
L 4359 0 
L 4359 2091 
Q 4359 2428 4304 2576 
Q 4250 2725 4106 2815 
Q 3963 2906 3769 2906 
Q 3419 2906 3187 2673 
Q 2956 2441 2956 1928 
L 2956 0 
L 2394 0 
L 2394 2156 
Q 2394 2531 2256 2718 
Q 2119 2906 1806 2906 
Q 1569 2906 1367 2781 
Q 1166 2656 1075 2415 
Q 984 2175 984 1722 
L 984 0 
L 422 0 
z
" transform="scale(0.015625)"/>
       <path id="ArialMT-65" d="M 2694 1069 
L 3275 997 
Q 3138 488 2766 206 
Q 2394 -75 1816 -75 
Q 1088 -75 661 373 
Q 234 822 234 1631 
Q 234 2469 665 2931 
Q 1097 3394 1784 3394 
Q 2450 3394 2872 2941 
Q 3294 2488 3294 1666 
Q 3294 1616 3291 1516 
L 816 1516 
Q 847 969 1125 678 
Q 1403 388 1819 388 
Q 2128 388 2347 550 
Q 2566 713 2694 1069 
z
M 847 1978 
L 2700 1978 
Q 2663 2397 2488 2606 
Q 2219 2931 1791 2931 
Q 1403 2931 1139 2672 
Q 875 2413 847 1978 
z
" transform="scale(0.015625)"/>
       <path id="ArialMT-6e" d="M 422 0 
L 422 3319 
L 928 3319 
L 928 2847 
Q 1294 3394 1984 3394 
Q 2284 3394 2536 3286 
Q 2788 3178 2913 3003 
Q 3038 2828 3088 2588 
Q 3119 2431 3119 2041 
L 3119 0 
L 2556 0 
L 2556 2019 
Q 2556 2363 2490 2533 
Q 2425 2703 2258 2804 
Q 2091 2906 1866 2906 
Q 1506 2906 1245 2678 
Q 984 2450 984 1813 
L 984 0 
L 422 0 
z
" transform="scale(0.015625)"/>
      </defs>
      <use xlink:href="#ArialMT-41"/>
      <use xlink:href="#ArialMT-63" transform="translate(66.699219 0)"/>
      <use xlink:href="#ArialMT-63" transform="translate(116.699219 0)"/>
      <use xlink:href="#ArialMT-75" transform="translate(166.699219 0)"/>
      <use xlink:href="#ArialMT-72" transform="translate(222.314453 0)"/>
      <use xlink:href="#ArialMT-61" transform="translate(255.615234 0)"/>
      <use xlink:href="#ArialMT-63" transform="translate(311.230469 0)"/>
      <use xlink:href="#ArialMT-79" transform="translate(361.230469 0)"/>
      <use xlink:href="#ArialMT-5f" transform="translate(411.230469 0)"/>
      <use xlink:href="#ArialMT-6d" transform="translate(466.845703 0)"/>
      <use xlink:href="#ArialMT-65" transform="translate(550.146484 0)"/>
      <use xlink:href="#ArialMT-61" transform="translate(605.761719 0)"/>
      <use xlink:href="#ArialMT-6e" transform="translate(661.376953 0)"/>
     </g>
    </g>
   </g>
   <g id="patch_3">
    <path d="M 63.787355 444.921067 
L 76.649179 444.921067 
L 76.649179 368.937542 
L 63.787355 368.937542 
L 63.787355 444.921067 
z
" clip-path="url(#p69075b127e)" style="fill: #72b6a1; stroke: #595959; stroke-linejoin: miter"/>
   </g>
   <g id="line2d_15">
    <path d="M 70.218267 444.921067 
L 70.218267 503.958239 
" clip-path="url(#p69075b127e)" style="fill: none; stroke: #595959"/>
   </g>
   <g id="line2d_16">
    <path d="M 70.218267 368.937542 
L 70.218267 308.17677 
" clip-path="url(#p69075b127e)" style="fill: none; stroke: #595959"/>
   </g>
   <g id="line2d_17">
    <path d="M 67.002811 503.958239 
L 73.433723 503.958239 
" clip-path="url(#p69075b127e)" style="fill: none; stroke: #595959; stroke-linecap: round"/>
   </g>
   <g id="line2d_18">
    <path d="M 67.002811 308.17677 
L 73.433723 308.17677 
" clip-path="url(#p69075b127e)" style="fill: none; stroke: #595959; stroke-linecap: round"/>
   </g>
   <g id="line2d_19">
    <defs>
     <path id="m5abae8f3b9" d="M 0 3 
C 0.795609 3 1.55874 2.683901 2.12132 2.12132 
C 2.683901 1.55874 3 0.795609 3 0 
C 3 -0.795609 2.683901 -1.55874 2.12132 -2.12132 
C 1.55874 -2.683901 0.795609 -3 0 -3 
C -0.795609 -3 -1.55874 -2.683901 -2.12132 -2.12132 
C -2.683901 -1.55874 -3 -0.795609 -3 0 
C -3 0.795609 -2.683901 1.55874 -2.12132 2.12132 
C -1.55874 2.683901 -0.795609 3 0 3 
z
" style="stroke: #595959"/>
    </defs>
    <g clip-path="url(#p69075b127e)">
     <use xlink:href="#m5abae8f3b9" x="70.218267" y="185.628656" style="fill-opacity: 0; stroke: #595959"/>
    </g>
   </g>
   <g id="patch_4">
    <path d="M 82.16139 406.698435 
L 95.023214 406.698435 
L 95.023214 325.339763 
L 82.16139 325.339763 
L 82.16139 406.698435 
z
" clip-path="url(#p69075b127e)" style="fill: #72b6a1; stroke: #595959; stroke-linejoin: miter"/>
   </g>
   <g id="line2d_20">
    <path d="M 88.592302 406.698435 
L 88.592302 475.94644 
" clip-path="url(#p69075b127e)" style="fill: none; stroke: #595959"/>
   </g>
   <g id="line2d_21">
    <path d="M 88.592302 325.339763 
L 88.592302 224.089274 
" clip-path="url(#p69075b127e)" style="fill: none; stroke: #595959"/>
   </g>
   <g id="line2d_22">
    <path d="M 85.376846 475.94644 
L 91.807758 475.94644 
" clip-path="url(#p69075b127e)" style="fill: none; stroke: #595959; stroke-linecap: round"/>
   </g>
   <g id="line2d_23">
    <path d="M 85.376846 224.089274 
L 91.807758 224.089274 
" clip-path="url(#p69075b127e)" style="fill: none; stroke: #595959; stroke-linecap: round"/>
   </g>
   <g id="line2d_24">
    <g clip-path="url(#p69075b127e)">
     <use xlink:href="#m5abae8f3b9" x="88.592302" y="123.544721" style="fill-opacity: 0; stroke: #595959"/>
    </g>
   </g>
   <g id="patch_5">
    <path d="M 100.535425 395.629732 
L 113.397249 395.629732 
L 113.397249 299.064135 
L 100.535425 299.064135 
L 100.535425 395.629732 
z
" clip-path="url(#p69075b127e)" style="fill: #72b6a1; stroke: #595959; stroke-linejoin: miter"/>
   </g>
   <g id="line2d_25">
    <path d="M 106.966337 395.629732 
L 106.966337 468.03427 
" clip-path="url(#p69075b127e)" style="fill: none; stroke: #595959"/>
   </g>
   <g id="line2d_26">
    <path d="M 106.966337 299.064135 
L 106.966337 174.793851 
" clip-path="url(#p69075b127e)" style="fill: none; stroke: #595959"/>
   </g>
   <g id="line2d_27">
    <path d="M 103.750881 468.03427 
L 110.181793 468.03427 
" clip-path="url(#p69075b127e)" style="fill: none; stroke: #595959; stroke-linecap: round"/>
   </g>
   <g id="line2d_28">
    <path d="M 103.750881 174.793851 
L 110.181793 174.793851 
" clip-path="url(#p69075b127e)" style="fill: none; stroke: #595959; stroke-linecap: round"/>
   </g>
   <g id="line2d_29">
    <g clip-path="url(#p69075b127e)">
     <use xlink:href="#m5abae8f3b9" x="106.966337" y="99.465134" style="fill-opacity: 0; stroke: #595959"/>
    </g>
   </g>
   <g id="patch_6">
    <path d="M 118.909459 385.664427 
L 131.771283 385.664427 
L 131.771283 260.148791 
L 118.909459 260.148791 
L 118.909459 385.664427 
z
" clip-path="url(#p69075b127e)" style="fill: #72b6a1; stroke: #595959; stroke-linejoin: miter"/>
   </g>
   <g id="line2d_30">
    <path d="M 125.340371 385.664427 
L 125.340371 459.568587 
" clip-path="url(#p69075b127e)" style="fill: none; stroke: #595959"/>
   </g>
   <g id="line2d_31">
    <path d="M 125.340371 260.148791 
L 125.340371 77.984657 
" clip-path="url(#p69075b127e)" style="fill: none; stroke: #595959"/>
   </g>
   <g id="line2d_32">
    <path d="M 122.124915 459.568587 
L 128.555827 459.568587 
" clip-path="url(#p69075b127e)" style="fill: none; stroke: #595959; stroke-linecap: round"/>
   </g>
   <g id="line2d_33">
    <path d="M 122.124915 77.984657 
L 128.555827 77.984657 
" clip-path="url(#p69075b127e)" style="fill: none; stroke: #595959; stroke-linecap: round"/>
   </g>
   <g id="line2d_34"/>
   <g id="patch_7">
    <path d="M 137.283494 380.219291 
L 150.145318 380.219291 
L 150.145318 236.391057 
L 137.283494 236.391057 
L 137.283494 380.219291 
z
" clip-path="url(#p69075b127e)" style="fill: #72b6a1; stroke: #595959; stroke-linejoin: miter"/>
   </g>
   <g id="line2d_35">
    <path d="M 143.714406 380.219291 
L 143.714406 453.462973 
" clip-path="url(#p69075b127e)" style="fill: none; stroke: #595959"/>
   </g>
   <g id="line2d_36">
    <path d="M 143.714406 236.391057 
L 143.714406 63.423548 
" clip-path="url(#p69075b127e)" style="fill: none; stroke: #595959"/>
   </g>
   <g id="line2d_37">
    <path d="M 140.49895 453.462973 
L 146.929862 453.462973 
" clip-path="url(#p69075b127e)" style="fill: none; stroke: #595959; stroke-linecap: round"/>
   </g>
   <g id="line2d_38">
    <path d="M 140.49895 63.423548 
L 146.929862 63.423548 
" clip-path="url(#p69075b127e)" style="fill: none; stroke: #595959; stroke-linecap: round"/>
   </g>
   <g id="line2d_39"/>
   <g id="patch_8">
    <path d="M 155.657528 121.604598 
L 168.519353 121.604598 
L 168.519353 121.604598 
L 155.657528 121.604598 
L 155.657528 121.604598 
z
" clip-path="url(#p69075b127e)" style="fill: #72b6a1; stroke: #595959; stroke-linejoin: miter"/>
   </g>
   <g id="line2d_40">
    <path d="M 162.088441 121.604598 
L 162.088441 121.604598 
" clip-path="url(#p69075b127e)" style="fill: none; stroke: #595959"/>
   </g>
   <g id="line2d_41">
    <path d="M 162.088441 121.604598 
L 162.088441 121.604598 
" clip-path="url(#p69075b127e)" style="fill: none; stroke: #595959"/>
   </g>
   <g id="line2d_42">
    <path d="M 158.872985 121.604598 
L 165.303897 121.604598 
" clip-path="url(#p69075b127e)" style="fill: none; stroke: #595959; stroke-linecap: round"/>
   </g>
   <g id="line2d_43">
    <path d="M 158.872985 121.604598 
L 165.303897 121.604598 
" clip-path="url(#p69075b127e)" style="fill: none; stroke: #595959; stroke-linecap: round"/>
   </g>
   <g id="line2d_44"/>
   <g id="patch_9">
    <path d="M 174.031563 87.771299 
L 186.893387 87.771299 
L 186.893387 87.771299 
L 174.031563 87.771299 
L 174.031563 87.771299 
z
" clip-path="url(#p69075b127e)" style="fill: #72b6a1; stroke: #595959; stroke-linejoin: miter"/>
   </g>
   <g id="line2d_45">
    <path d="M 180.462475 87.771299 
L 180.462475 87.771299 
" clip-path="url(#p69075b127e)" style="fill: none; stroke: #595959"/>
   </g>
   <g id="line2d_46">
    <path d="M 180.462475 87.771299 
L 180.462475 87.771299 
" clip-path="url(#p69075b127e)" style="fill: none; stroke: #595959"/>
   </g>
   <g id="line2d_47">
    <path d="M 177.247019 87.771299 
L 183.677931 87.771299 
" clip-path="url(#p69075b127e)" style="fill: none; stroke: #595959; stroke-linecap: round"/>
   </g>
   <g id="line2d_48">
    <path d="M 177.247019 87.771299 
L 183.677931 87.771299 
" clip-path="url(#p69075b127e)" style="fill: none; stroke: #595959; stroke-linecap: round"/>
   </g>
   <g id="line2d_49"/>
   <g id="patch_10">
    <path d="M 192.405598 75.80683 
L 205.267422 75.80683 
L 205.267422 75.80683 
L 192.405598 75.80683 
L 192.405598 75.80683 
z
" clip-path="url(#p69075b127e)" style="fill: #72b6a1; stroke: #595959; stroke-linejoin: miter"/>
   </g>
   <g id="line2d_50">
    <path d="M 198.83651 75.80683 
L 198.83651 75.80683 
" clip-path="url(#p69075b127e)" style="fill: none; stroke: #595959"/>
   </g>
   <g id="line2d_51">
    <path d="M 198.83651 75.80683 
L 198.83651 75.80683 
" clip-path="url(#p69075b127e)" style="fill: none; stroke: #595959"/>
   </g>
   <g id="line2d_52">
    <path d="M 195.621054 75.80683 
L 202.051966 75.80683 
" clip-path="url(#p69075b127e)" style="fill: none; stroke: #595959; stroke-linecap: round"/>
   </g>
   <g id="line2d_53">
    <path d="M 195.621054 75.80683 
L 202.051966 75.80683 
" clip-path="url(#p69075b127e)" style="fill: none; stroke: #595959; stroke-linecap: round"/>
   </g>
   <g id="line2d_54"/>
   <g id="patch_11">
    <path d="M 210.779632 66.864606 
L 223.641457 66.864606 
L 223.641457 66.864606 
L 210.779632 66.864606 
L 210.779632 66.864606 
z
" clip-path="url(#p69075b127e)" style="fill: #72b6a1; stroke: #595959; stroke-linejoin: miter"/>
   </g>
   <g id="line2d_55">
    <path d="M 217.210545 66.864606 
L 217.210545 66.864606 
" clip-path="url(#p69075b127e)" style="fill: none; stroke: #595959"/>
   </g>
   <g id="line2d_56">
    <path d="M 217.210545 66.864606 
L 217.210545 66.864606 
" clip-path="url(#p69075b127e)" style="fill: none; stroke: #595959"/>
   </g>
   <g id="line2d_57">
    <path d="M 213.995088 66.864606 
L 220.426001 66.864606 
" clip-path="url(#p69075b127e)" style="fill: none; stroke: #595959; stroke-linecap: round"/>
   </g>
   <g id="line2d_58">
    <path d="M 213.995088 66.864606 
L 220.426001 66.864606 
" clip-path="url(#p69075b127e)" style="fill: none; stroke: #595959; stroke-linecap: round"/>
   </g>
   <g id="line2d_59"/>
   <g id="patch_12">
    <path d="M 229.153667 73.078885 
L 242.015491 73.078885 
L 242.015491 73.078885 
L 229.153667 73.078885 
L 229.153667 73.078885 
z
" clip-path="url(#p69075b127e)" style="fill: #72b6a1; stroke: #595959; stroke-linejoin: miter"/>
   </g>
   <g id="line2d_60">
    <path d="M 235.584579 73.078885 
L 235.584579 73.078885 
" clip-path="url(#p69075b127e)" style="fill: none; stroke: #595959"/>
   </g>
   <g id="line2d_61">
    <path d="M 235.584579 73.078885 
L 235.584579 73.078885 
" clip-path="url(#p69075b127e)" style="fill: none; stroke: #595959"/>
   </g>
   <g id="line2d_62">
    <path d="M 232.369123 73.078885 
L 238.800035 73.078885 
" clip-path="url(#p69075b127e)" style="fill: none; stroke: #595959; stroke-linecap: round"/>
   </g>
   <g id="line2d_63">
    <path d="M 232.369123 73.078885 
L 238.800035 73.078885 
" clip-path="url(#p69075b127e)" style="fill: none; stroke: #595959; stroke-linecap: round"/>
   </g>
   <g id="line2d_64"/>
   <g id="patch_13">
    <path d="M 247.527702 53.123011 
L 260.389526 53.123011 
L 260.389526 53.123011 
L 247.527702 53.123011 
L 247.527702 53.123011 
z
" clip-path="url(#p69075b127e)" style="fill: #72b6a1; stroke: #595959; stroke-linejoin: miter"/>
   </g>
   <g id="line2d_65">
    <path d="M 253.958614 53.123011 
L 253.958614 53.123011 
" clip-path="url(#p69075b127e)" style="fill: none; stroke: #595959"/>
   </g>
   <g id="line2d_66">
    <path d="M 253.958614 53.123011 
L 253.958614 53.123011 
" clip-path="url(#p69075b127e)" style="fill: none; stroke: #595959"/>
   </g>
   <g id="line2d_67">
    <path d="M 250.743158 53.123011 
L 257.17407 53.123011 
" clip-path="url(#p69075b127e)" style="fill: none; stroke: #595959; stroke-linecap: round"/>
   </g>
   <g id="line2d_68">
    <path d="M 250.743158 53.123011 
L 257.17407 53.123011 
" clip-path="url(#p69075b127e)" style="fill: none; stroke: #595959; stroke-linecap: round"/>
   </g>
   <g id="line2d_69"/>
   <g id="patch_14">
    <path d="M 265.901736 60.446579 
L 278.763561 60.446579 
L 278.763561 60.446579 
L 265.901736 60.446579 
L 265.901736 60.446579 
z
" clip-path="url(#p69075b127e)" style="fill: #72b6a1; stroke: #595959; stroke-linejoin: miter"/>
   </g>
   <g id="line2d_70">
    <path d="M 272.332649 60.446579 
L 272.332649 60.446579 
" clip-path="url(#p69075b127e)" style="fill: none; stroke: #595959"/>
   </g>
   <g id="line2d_71">
    <path d="M 272.332649 60.446579 
L 272.332649 60.446579 
" clip-path="url(#p69075b127e)" style="fill: none; stroke: #595959"/>
   </g>
   <g id="line2d_72">
    <path d="M 269.117192 60.446579 
L 275.548105 60.446579 
" clip-path="url(#p69075b127e)" style="fill: none; stroke: #595959; stroke-linecap: round"/>
   </g>
   <g id="line2d_73">
    <path d="M 269.117192 60.446579 
L 275.548105 60.446579 
" clip-path="url(#p69075b127e)" style="fill: none; stroke: #595959; stroke-linecap: round"/>
   </g>
   <g id="line2d_74"/>
   <g id="patch_15">
    <path d="M 284.275771 61.453994 
L 297.137595 61.453994 
L 297.137595 61.453994 
L 284.275771 61.453994 
L 284.275771 61.453994 
z
" clip-path="url(#p69075b127e)" style="fill: #72b6a1; stroke: #595959; stroke-linejoin: miter"/>
   </g>
   <g id="line2d_75">
    <path d="M 290.706683 61.453994 
L 290.706683 61.453994 
" clip-path="url(#p69075b127e)" style="fill: none; stroke: #595959"/>
   </g>
   <g id="line2d_76">
    <path d="M 290.706683 61.453994 
L 290.706683 61.453994 
" clip-path="url(#p69075b127e)" style="fill: none; stroke: #595959"/>
   </g>
   <g id="line2d_77">
    <path d="M 287.491227 61.453994 
L 293.922139 61.453994 
" clip-path="url(#p69075b127e)" style="fill: none; stroke: #595959; stroke-linecap: round"/>
   </g>
   <g id="line2d_78">
    <path d="M 287.491227 61.453994 
L 293.922139 61.453994 
" clip-path="url(#p69075b127e)" style="fill: none; stroke: #595959; stroke-linecap: round"/>
   </g>
   <g id="line2d_79"/>
   <g id="patch_16">
    <path d="M 302.649806 63.004735 
L 315.51163 63.004735 
L 315.51163 63.004735 
L 302.649806 63.004735 
L 302.649806 63.004735 
z
" clip-path="url(#p69075b127e)" style="fill: #72b6a1; stroke: #595959; stroke-linejoin: miter"/>
   </g>
   <g id="line2d_80">
    <path d="M 309.080718 63.004735 
L 309.080718 63.004735 
" clip-path="url(#p69075b127e)" style="fill: none; stroke: #595959"/>
   </g>
   <g id="line2d_81">
    <path d="M 309.080718 63.004735 
L 309.080718 63.004735 
" clip-path="url(#p69075b127e)" style="fill: none; stroke: #595959"/>
   </g>
   <g id="line2d_82">
    <path d="M 305.865262 63.004735 
L 312.296174 63.004735 
" clip-path="url(#p69075b127e)" style="fill: none; stroke: #595959; stroke-linecap: round"/>
   </g>
   <g id="line2d_83">
    <path d="M 305.865262 63.004735 
L 312.296174 63.004735 
" clip-path="url(#p69075b127e)" style="fill: none; stroke: #595959; stroke-linecap: round"/>
   </g>
   <g id="line2d_84"/>
   <g id="patch_17">
    <path d="M 321.02384 71.313079 
L 333.885665 71.313079 
L 333.885665 71.313079 
L 321.02384 71.313079 
L 321.02384 71.313079 
z
" clip-path="url(#p69075b127e)" style="fill: #72b6a1; stroke: #595959; stroke-linejoin: miter"/>
   </g>
   <g id="line2d_85">
    <path d="M 327.454752 71.313079 
L 327.454752 71.313079 
" clip-path="url(#p69075b127e)" style="fill: none; stroke: #595959"/>
   </g>
   <g id="line2d_86">
    <path d="M 327.454752 71.313079 
L 327.454752 71.313079 
" clip-path="url(#p69075b127e)" style="fill: none; stroke: #595959"/>
   </g>
   <g id="line2d_87">
    <path d="M 324.239296 71.313079 
L 330.670209 71.313079 
" clip-path="url(#p69075b127e)" style="fill: none; stroke: #595959; stroke-linecap: round"/>
   </g>
   <g id="line2d_88">
    <path d="M 324.239296 71.313079 
L 330.670209 71.313079 
" clip-path="url(#p69075b127e)" style="fill: none; stroke: #595959; stroke-linecap: round"/>
   </g>
   <g id="line2d_89"/>
   <g id="patch_18">
    <path d="M 339.397875 75.18427 
L 352.259699 75.18427 
L 352.259699 75.18427 
L 339.397875 75.18427 
L 339.397875 75.18427 
z
" clip-path="url(#p69075b127e)" style="fill: #72b6a1; stroke: #595959; stroke-linejoin: miter"/>
   </g>
   <g id="line2d_90">
    <path d="M 345.828787 75.18427 
L 345.828787 75.18427 
" clip-path="url(#p69075b127e)" style="fill: none; stroke: #595959"/>
   </g>
   <g id="line2d_91">
    <path d="M 345.828787 75.18427 
L 345.828787 75.18427 
" clip-path="url(#p69075b127e)" style="fill: none; stroke: #595959"/>
   </g>
   <g id="line2d_92">
    <path d="M 342.613331 75.18427 
L 349.044243 75.18427 
" clip-path="url(#p69075b127e)" style="fill: none; stroke: #595959; stroke-linecap: round"/>
   </g>
   <g id="line2d_93">
    <path d="M 342.613331 75.18427 
L 349.044243 75.18427 
" clip-path="url(#p69075b127e)" style="fill: none; stroke: #595959; stroke-linecap: round"/>
   </g>
   <g id="line2d_94"/>
   <g id="patch_19">
    <path d="M 357.77191 63.140566 
L 370.633734 63.140566 
L 370.633734 63.140566 
L 357.77191 63.140566 
L 357.77191 63.140566 
z
" clip-path="url(#p69075b127e)" style="fill: #72b6a1; stroke: #595959; stroke-linejoin: miter"/>
   </g>
   <g id="line2d_95">
    <path d="M 364.202822 63.140566 
L 364.202822 63.140566 
" clip-path="url(#p69075b127e)" style="fill: none; stroke: #595959"/>
   </g>
   <g id="line2d_96">
    <path d="M 364.202822 63.140566 
L 364.202822 63.140566 
" clip-path="url(#p69075b127e)" style="fill: none; stroke: #595959"/>
   </g>
   <g id="line2d_97">
    <path d="M 360.987366 63.140566 
L 367.418278 63.140566 
" clip-path="url(#p69075b127e)" style="fill: none; stroke: #595959; stroke-linecap: round"/>
   </g>
   <g id="line2d_98">
    <path d="M 360.987366 63.140566 
L 367.418278 63.140566 
" clip-path="url(#p69075b127e)" style="fill: none; stroke: #595959; stroke-linecap: round"/>
   </g>
   <g id="line2d_99"/>
   <g id="patch_20">
    <path d="M 376.145944 65.449697 
L 389.007769 65.449697 
L 389.007769 65.449697 
L 376.145944 65.449697 
L 376.145944 65.449697 
z
" clip-path="url(#p69075b127e)" style="fill: #72b6a1; stroke: #595959; stroke-linejoin: miter"/>
   </g>
   <g id="line2d_100">
    <path d="M 382.576856 65.449697 
L 382.576856 65.449697 
" clip-path="url(#p69075b127e)" style="fill: none; stroke: #595959"/>
   </g>
   <g id="line2d_101">
    <path d="M 382.576856 65.449697 
L 382.576856 65.449697 
" clip-path="url(#p69075b127e)" style="fill: none; stroke: #595959"/>
   </g>
   <g id="line2d_102">
    <path d="M 379.3614 65.449697 
L 385.792313 65.449697 
" clip-path="url(#p69075b127e)" style="fill: none; stroke: #595959; stroke-linecap: round"/>
   </g>
   <g id="line2d_103">
    <path d="M 379.3614 65.449697 
L 385.792313 65.449697 
" clip-path="url(#p69075b127e)" style="fill: none; stroke: #595959; stroke-linecap: round"/>
   </g>
   <g id="line2d_104"/>
   <g id="patch_21">
    <path d="M 394.519979 90.046472 
L 407.381803 90.046472 
L 407.381803 90.046472 
L 394.519979 90.046472 
L 394.519979 90.046472 
z
" clip-path="url(#p69075b127e)" style="fill: #72b6a1; stroke: #595959; stroke-linejoin: miter"/>
   </g>
   <g id="line2d_105">
    <path d="M 400.950891 90.046472 
L 400.950891 90.046472 
" clip-path="url(#p69075b127e)" style="fill: none; stroke: #595959"/>
   </g>
   <g id="line2d_106">
    <path d="M 400.950891 90.046472 
L 400.950891 90.046472 
" clip-path="url(#p69075b127e)" style="fill: none; stroke: #595959"/>
   </g>
   <g id="line2d_107">
    <path d="M 397.735435 90.046472 
L 404.166347 90.046472 
" clip-path="url(#p69075b127e)" style="fill: none; stroke: #595959; stroke-linecap: round"/>
   </g>
   <g id="line2d_108">
    <path d="M 397.735435 90.046472 
L 404.166347 90.046472 
" clip-path="url(#p69075b127e)" style="fill: none; stroke: #595959; stroke-linecap: round"/>
   </g>
   <g id="line2d_109"/>
   <g id="patch_22">
    <path d="M 412.894014 73.47506 
L 425.755838 73.47506 
L 425.755838 73.47506 
L 412.894014 73.47506 
L 412.894014 73.47506 
z
" clip-path="url(#p69075b127e)" style="fill: #72b6a1; stroke: #595959; stroke-linejoin: miter"/>
   </g>
   <g id="line2d_110">
    <path d="M 419.324926 73.47506 
L 419.324926 73.47506 
" clip-path="url(#p69075b127e)" style="fill: none; stroke: #595959"/>
   </g>
   <g id="line2d_111">
    <path d="M 419.324926 73.47506 
L 419.324926 73.47506 
" clip-path="url(#p69075b127e)" style="fill: none; stroke: #595959"/>
   </g>
   <g id="line2d_112">
    <path d="M 416.10947 73.47506 
L 422.540382 73.47506 
" clip-path="url(#p69075b127e)" style="fill: none; stroke: #595959; stroke-linecap: round"/>
   </g>
   <g id="line2d_113">
    <path d="M 416.10947 73.47506 
L 422.540382 73.47506 
" clip-path="url(#p69075b127e)" style="fill: none; stroke: #595959; stroke-linecap: round"/>
   </g>
   <g id="line2d_114"/>
   <g id="patch_23">
    <path d="M 431.268048 76.395432 
L 444.129873 76.395432 
L 444.129873 76.395432 
L 431.268048 76.395432 
L 431.268048 76.395432 
z
" clip-path="url(#p69075b127e)" style="fill: #72b6a1; stroke: #595959; stroke-linejoin: miter"/>
   </g>
   <g id="line2d_115">
    <path d="M 437.69896 76.395432 
L 437.69896 76.395432 
" clip-path="url(#p69075b127e)" style="fill: none; stroke: #595959"/>
   </g>
   <g id="line2d_116">
    <path d="M 437.69896 76.395432 
L 437.69896 76.395432 
" clip-path="url(#p69075b127e)" style="fill: none; stroke: #595959"/>
   </g>
   <g id="line2d_117">
    <path d="M 434.483504 76.395432 
L 440.914416 76.395432 
" clip-path="url(#p69075b127e)" style="fill: none; stroke: #595959; stroke-linecap: round"/>
   </g>
   <g id="line2d_118">
    <path d="M 434.483504 76.395432 
L 440.914416 76.395432 
" clip-path="url(#p69075b127e)" style="fill: none; stroke: #595959; stroke-linecap: round"/>
   </g>
   <g id="line2d_119"/>
   <g id="patch_24">
    <path d="M 449.642083 67.317377 
L 462.503907 67.317377 
L 462.503907 67.317377 
L 449.642083 67.317377 
L 449.642083 67.317377 
z
" clip-path="url(#p69075b127e)" style="fill: #72b6a1; stroke: #595959; stroke-linejoin: miter"/>
   </g>
   <g id="line2d_120">
    <path d="M 456.072995 67.317377 
L 456.072995 67.317377 
" clip-path="url(#p69075b127e)" style="fill: none; stroke: #595959"/>
   </g>
   <g id="line2d_121">
    <path d="M 456.072995 67.317377 
L 456.072995 67.317377 
" clip-path="url(#p69075b127e)" style="fill: none; stroke: #595959"/>
   </g>
   <g id="line2d_122">
    <path d="M 452.857539 67.317377 
L 459.288451 67.317377 
" clip-path="url(#p69075b127e)" style="fill: none; stroke: #595959; stroke-linecap: round"/>
   </g>
   <g id="line2d_123">
    <path d="M 452.857539 67.317377 
L 459.288451 67.317377 
" clip-path="url(#p69075b127e)" style="fill: none; stroke: #595959; stroke-linecap: round"/>
   </g>
   <g id="line2d_124"/>
   <g id="patch_25">
    <path d="M 468.016118 77.380208 
L 480.877942 77.380208 
L 480.877942 77.380208 
L 468.016118 77.380208 
L 468.016118 77.380208 
z
" clip-path="url(#p69075b127e)" style="fill: #72b6a1; stroke: #595959; stroke-linejoin: miter"/>
   </g>
   <g id="line2d_125">
    <path d="M 474.44703 77.380208 
L 474.44703 77.380208 
" clip-path="url(#p69075b127e)" style="fill: none; stroke: #595959"/>
   </g>
   <g id="line2d_126">
    <path d="M 474.44703 77.380208 
L 474.44703 77.380208 
" clip-path="url(#p69075b127e)" style="fill: none; stroke: #595959"/>
   </g>
   <g id="line2d_127">
    <path d="M 471.231574 77.380208 
L 477.662486 77.380208 
" clip-path="url(#p69075b127e)" style="fill: none; stroke: #595959; stroke-linecap: round"/>
   </g>
   <g id="line2d_128">
    <path d="M 471.231574 77.380208 
L 477.662486 77.380208 
" clip-path="url(#p69075b127e)" style="fill: none; stroke: #595959; stroke-linecap: round"/>
   </g>
   <g id="line2d_129"/>
   <g id="patch_26">
    <path d="M 486.390152 83.605807 
L 499.251976 83.605807 
L 499.251976 83.605807 
L 486.390152 83.605807 
L 486.390152 83.605807 
z
" clip-path="url(#p69075b127e)" style="fill: #72b6a1; stroke: #595959; stroke-linejoin: miter"/>
   </g>
   <g id="line2d_130">
    <path d="M 492.821064 83.605807 
L 492.821064 83.605807 
" clip-path="url(#p69075b127e)" style="fill: none; stroke: #595959"/>
   </g>
   <g id="line2d_131">
    <path d="M 492.821064 83.605807 
L 492.821064 83.605807 
" clip-path="url(#p69075b127e)" style="fill: none; stroke: #595959"/>
   </g>
   <g id="line2d_132">
    <path d="M 489.605608 83.605807 
L 496.03652 83.605807 
" clip-path="url(#p69075b127e)" style="fill: none; stroke: #595959; stroke-linecap: round"/>
   </g>
   <g id="line2d_133">
    <path d="M 489.605608 83.605807 
L 496.03652 83.605807 
" clip-path="url(#p69075b127e)" style="fill: none; stroke: #595959; stroke-linecap: round"/>
   </g>
   <g id="line2d_134"/>
   <g id="patch_27">
    <path d="M 504.764187 85.541402 
L 517.626011 85.541402 
L 517.626011 85.541402 
L 504.764187 85.541402 
L 504.764187 85.541402 
z
" clip-path="url(#p69075b127e)" style="fill: #72b6a1; stroke: #595959; stroke-linejoin: miter"/>
   </g>
   <g id="line2d_135">
    <path d="M 511.195099 85.541402 
L 511.195099 85.541402 
" clip-path="url(#p69075b127e)" style="fill: none; stroke: #595959"/>
   </g>
   <g id="line2d_136">
    <path d="M 511.195099 85.541402 
L 511.195099 85.541402 
" clip-path="url(#p69075b127e)" style="fill: none; stroke: #595959"/>
   </g>
   <g id="line2d_137">
    <path d="M 507.979643 85.541402 
L 514.410555 85.541402 
" clip-path="url(#p69075b127e)" style="fill: none; stroke: #595959; stroke-linecap: round"/>
   </g>
   <g id="line2d_138">
    <path d="M 507.979643 85.541402 
L 514.410555 85.541402 
" clip-path="url(#p69075b127e)" style="fill: none; stroke: #595959; stroke-linecap: round"/>
   </g>
   <g id="line2d_139"/>
   <g id="patch_28">
    <path d="M 523.138222 86.899715 
L 536.000046 86.899715 
L 536.000046 86.899715 
L 523.138222 86.899715 
L 523.138222 86.899715 
z
" clip-path="url(#p69075b127e)" style="fill: #72b6a1; stroke: #595959; stroke-linejoin: miter"/>
   </g>
   <g id="line2d_140">
    <path d="M 529.569134 86.899715 
L 529.569134 86.899715 
" clip-path="url(#p69075b127e)" style="fill: none; stroke: #595959"/>
   </g>
   <g id="line2d_141">
    <path d="M 529.569134 86.899715 
L 529.569134 86.899715 
" clip-path="url(#p69075b127e)" style="fill: none; stroke: #595959"/>
   </g>
   <g id="line2d_142">
    <path d="M 526.353678 86.899715 
L 532.78459 86.899715 
" clip-path="url(#p69075b127e)" style="fill: none; stroke: #595959; stroke-linecap: round"/>
   </g>
   <g id="line2d_143">
    <path d="M 526.353678 86.899715 
L 532.78459 86.899715 
" clip-path="url(#p69075b127e)" style="fill: none; stroke: #595959; stroke-linecap: round"/>
   </g>
   <g id="line2d_144"/>
   <g id="patch_29">
    <path d="M 541.512256 86.458263 
L 554.37408 86.458263 
L 554.37408 86.458263 
L 541.512256 86.458263 
L 541.512256 86.458263 
z
" clip-path="url(#p69075b127e)" style="fill: #72b6a1; stroke: #595959; stroke-linejoin: miter"/>
   </g>
   <g id="line2d_145">
    <path d="M 547.943168 86.458263 
L 547.943168 86.458263 
" clip-path="url(#p69075b127e)" style="fill: none; stroke: #595959"/>
   </g>
   <g id="line2d_146">
    <path d="M 547.943168 86.458263 
L 547.943168 86.458263 
" clip-path="url(#p69075b127e)" style="fill: none; stroke: #595959"/>
   </g>
   <g id="line2d_147">
    <path d="M 544.727712 86.458263 
L 551.158624 86.458263 
" clip-path="url(#p69075b127e)" style="fill: none; stroke: #595959; stroke-linecap: round"/>
   </g>
   <g id="line2d_148">
    <path d="M 544.727712 86.458263 
L 551.158624 86.458263 
" clip-path="url(#p69075b127e)" style="fill: none; stroke: #595959; stroke-linecap: round"/>
   </g>
   <g id="line2d_149"/>
   <g id="patch_30">
    <path d="M 559.886291 80.900501 
L 572.748115 80.900501 
L 572.748115 80.900501 
L 559.886291 80.900501 
L 559.886291 80.900501 
z
" clip-path="url(#p69075b127e)" style="fill: #72b6a1; stroke: #595959; stroke-linejoin: miter"/>
   </g>
   <g id="line2d_150">
    <path d="M 566.317203 80.900501 
L 566.317203 80.900501 
" clip-path="url(#p69075b127e)" style="fill: none; stroke: #595959"/>
   </g>
   <g id="line2d_151">
    <path d="M 566.317203 80.900501 
L 566.317203 80.900501 
" clip-path="url(#p69075b127e)" style="fill: none; stroke: #595959"/>
   </g>
   <g id="line2d_152">
    <path d="M 563.101747 80.900501 
L 569.532659 80.900501 
" clip-path="url(#p69075b127e)" style="fill: none; stroke: #595959; stroke-linecap: round"/>
   </g>
   <g id="line2d_153">
    <path d="M 563.101747 80.900501 
L 569.532659 80.900501 
" clip-path="url(#p69075b127e)" style="fill: none; stroke: #595959; stroke-linecap: round"/>
   </g>
   <g id="line2d_154"/>
   <g id="patch_31">
    <path d="M 578.260325 85.394252 
L 591.12215 85.394252 
L 591.12215 85.394252 
L 578.260325 85.394252 
L 578.260325 85.394252 
z
" clip-path="url(#p69075b127e)" style="fill: #72b6a1; stroke: #595959; stroke-linejoin: miter"/>
   </g>
   <g id="line2d_155">
    <path d="M 584.691238 85.394252 
L 584.691238 85.394252 
" clip-path="url(#p69075b127e)" style="fill: none; stroke: #595959"/>
   </g>
   <g id="line2d_156">
    <path d="M 584.691238 85.394252 
L 584.691238 85.394252 
" clip-path="url(#p69075b127e)" style="fill: none; stroke: #595959"/>
   </g>
   <g id="line2d_157">
    <path d="M 581.475782 85.394252 
L 587.906694 85.394252 
" clip-path="url(#p69075b127e)" style="fill: none; stroke: #595959; stroke-linecap: round"/>
   </g>
   <g id="line2d_158">
    <path d="M 581.475782 85.394252 
L 587.906694 85.394252 
" clip-path="url(#p69075b127e)" style="fill: none; stroke: #595959; stroke-linecap: round"/>
   </g>
   <g id="line2d_159"/>
   <g id="patch_32">
    <path d="M 596.63436 86.367709 
L 609.496184 86.367709 
L 609.496184 86.367709 
L 596.63436 86.367709 
L 596.63436 86.367709 
z
" clip-path="url(#p69075b127e)" style="fill: #72b6a1; stroke: #595959; stroke-linejoin: miter"/>
   </g>
   <g id="line2d_160">
    <path d="M 603.065272 86.367709 
L 603.065272 86.367709 
" clip-path="url(#p69075b127e)" style="fill: none; stroke: #595959"/>
   </g>
   <g id="line2d_161">
    <path d="M 603.065272 86.367709 
L 603.065272 86.367709 
" clip-path="url(#p69075b127e)" style="fill: none; stroke: #595959"/>
   </g>
   <g id="line2d_162">
    <path d="M 599.849816 86.367709 
L 606.280728 86.367709 
" clip-path="url(#p69075b127e)" style="fill: none; stroke: #595959; stroke-linecap: round"/>
   </g>
   <g id="line2d_163">
    <path d="M 599.849816 86.367709 
L 606.280728 86.367709 
" clip-path="url(#p69075b127e)" style="fill: none; stroke: #595959; stroke-linecap: round"/>
   </g>
   <g id="line2d_164"/>
   <g id="patch_33">
    <path d="M 615.008395 87.703383 
L 627.870219 87.703383 
L 627.870219 87.703383 
L 615.008395 87.703383 
L 615.008395 87.703383 
z
" clip-path="url(#p69075b127e)" style="fill: #72b6a1; stroke: #595959; stroke-linejoin: miter"/>
   </g>
   <g id="line2d_165">
    <path d="M 621.439307 87.703383 
L 621.439307 87.703383 
" clip-path="url(#p69075b127e)" style="fill: none; stroke: #595959"/>
   </g>
   <g id="line2d_166">
    <path d="M 621.439307 87.703383 
L 621.439307 87.703383 
" clip-path="url(#p69075b127e)" style="fill: none; stroke: #595959"/>
   </g>
   <g id="line2d_167">
    <path d="M 618.223851 87.703383 
L 624.654763 87.703383 
" clip-path="url(#p69075b127e)" style="fill: none; stroke: #595959; stroke-linecap: round"/>
   </g>
   <g id="line2d_168">
    <path d="M 618.223851 87.703383 
L 624.654763 87.703383 
" clip-path="url(#p69075b127e)" style="fill: none; stroke: #595959; stroke-linecap: round"/>
   </g>
   <g id="line2d_169"/>
   <g id="patch_34">
    <path d="M 633.382429 100.222496 
L 646.244254 100.222496 
L 646.244254 100.222496 
L 633.382429 100.222496 
L 633.382429 100.222496 
z
" clip-path="url(#p69075b127e)" style="fill: #72b6a1; stroke: #595959; stroke-linejoin: miter"/>
   </g>
   <g id="line2d_170">
    <path d="M 639.813342 100.222496 
L 639.813342 100.222496 
" clip-path="url(#p69075b127e)" style="fill: none; stroke: #595959"/>
   </g>
   <g id="line2d_171">
    <path d="M 639.813342 100.222496 
L 639.813342 100.222496 
" clip-path="url(#p69075b127e)" style="fill: none; stroke: #595959"/>
   </g>
   <g id="line2d_172">
    <path d="M 636.597886 100.222496 
L 643.028798 100.222496 
" clip-path="url(#p69075b127e)" style="fill: none; stroke: #595959; stroke-linecap: round"/>
   </g>
   <g id="line2d_173">
    <path d="M 636.597886 100.222496 
L 643.028798 100.222496 
" clip-path="url(#p69075b127e)" style="fill: none; stroke: #595959; stroke-linecap: round"/>
   </g>
   <g id="line2d_174"/>
   <g id="patch_35">
    <path d="M 651.756464 91.280272 
L 664.618288 91.280272 
L 664.618288 91.280272 
L 651.756464 91.280272 
L 651.756464 91.280272 
z
" clip-path="url(#p69075b127e)" style="fill: #72b6a1; stroke: #595959; stroke-linejoin: miter"/>
   </g>
   <g id="line2d_175">
    <path d="M 658.187376 91.280272 
L 658.187376 91.280272 
" clip-path="url(#p69075b127e)" style="fill: none; stroke: #595959"/>
   </g>
   <g id="line2d_176">
    <path d="M 658.187376 91.280272 
L 658.187376 91.280272 
" clip-path="url(#p69075b127e)" style="fill: none; stroke: #595959"/>
   </g>
   <g id="line2d_177">
    <path d="M 654.97192 91.280272 
L 661.402832 91.280272 
" clip-path="url(#p69075b127e)" style="fill: none; stroke: #595959; stroke-linecap: round"/>
   </g>
   <g id="line2d_178">
    <path d="M 654.97192 91.280272 
L 661.402832 91.280272 
" clip-path="url(#p69075b127e)" style="fill: none; stroke: #595959; stroke-linecap: round"/>
   </g>
   <g id="line2d_179"/>
   <g id="patch_36">
    <path d="M 670.130499 88.733437 
L 682.992323 88.733437 
L 682.992323 88.733437 
L 670.130499 88.733437 
L 670.130499 88.733437 
z
" clip-path="url(#p69075b127e)" style="fill: #72b6a1; stroke: #595959; stroke-linejoin: miter"/>
   </g>
   <g id="line2d_180">
    <path d="M 676.561411 88.733437 
L 676.561411 88.733437 
" clip-path="url(#p69075b127e)" style="fill: none; stroke: #595959"/>
   </g>
   <g id="line2d_181">
    <path d="M 676.561411 88.733437 
L 676.561411 88.733437 
" clip-path="url(#p69075b127e)" style="fill: none; stroke: #595959"/>
   </g>
   <g id="line2d_182">
    <path d="M 673.345955 88.733437 
L 679.776867 88.733437 
" clip-path="url(#p69075b127e)" style="fill: none; stroke: #595959; stroke-linecap: round"/>
   </g>
   <g id="line2d_183">
    <path d="M 673.345955 88.733437 
L 679.776867 88.733437 
" clip-path="url(#p69075b127e)" style="fill: none; stroke: #595959; stroke-linecap: round"/>
   </g>
   <g id="line2d_184"/>
   <g id="patch_37">
    <path d="M 688.504533 95.50236 
L 701.366358 95.50236 
L 701.366358 95.50236 
L 688.504533 95.50236 
L 688.504533 95.50236 
z
" clip-path="url(#p69075b127e)" style="fill: #72b6a1; stroke: #595959; stroke-linejoin: miter"/>
   </g>
   <g id="line2d_185">
    <path d="M 694.935446 95.50236 
L 694.935446 95.50236 
" clip-path="url(#p69075b127e)" style="fill: none; stroke: #595959"/>
   </g>
   <g id="line2d_186">
    <path d="M 694.935446 95.50236 
L 694.935446 95.50236 
" clip-path="url(#p69075b127e)" style="fill: none; stroke: #595959"/>
   </g>
   <g id="line2d_187">
    <path d="M 691.719989 95.50236 
L 698.150902 95.50236 
" clip-path="url(#p69075b127e)" style="fill: none; stroke: #595959; stroke-linecap: round"/>
   </g>
   <g id="line2d_188">
    <path d="M 691.719989 95.50236 
L 698.150902 95.50236 
" clip-path="url(#p69075b127e)" style="fill: none; stroke: #595959; stroke-linecap: round"/>
   </g>
   <g id="line2d_189"/>
   <g id="patch_38">
    <path d="M 706.878568 97.83413 
L 719.740392 97.83413 
L 719.740392 97.83413 
L 706.878568 97.83413 
L 706.878568 97.83413 
z
" clip-path="url(#p69075b127e)" style="fill: #72b6a1; stroke: #595959; stroke-linejoin: miter"/>
   </g>
   <g id="line2d_190">
    <path d="M 713.30948 97.83413 
L 713.30948 97.83413 
" clip-path="url(#p69075b127e)" style="fill: none; stroke: #595959"/>
   </g>
   <g id="line2d_191">
    <path d="M 713.30948 97.83413 
L 713.30948 97.83413 
" clip-path="url(#p69075b127e)" style="fill: none; stroke: #595959"/>
   </g>
   <g id="line2d_192">
    <path d="M 710.094024 97.83413 
L 716.524936 97.83413 
" clip-path="url(#p69075b127e)" style="fill: none; stroke: #595959; stroke-linecap: round"/>
   </g>
   <g id="line2d_193">
    <path d="M 710.094024 97.83413 
L 716.524936 97.83413 
" clip-path="url(#p69075b127e)" style="fill: none; stroke: #595959; stroke-linecap: round"/>
   </g>
   <g id="line2d_194"/>
   <g id="patch_39">
    <path d="M 725.252603 97.766214 
L 738.114427 97.766214 
L 738.114427 97.766214 
L 725.252603 97.766214 
L 725.252603 97.766214 
z
" clip-path="url(#p69075b127e)" style="fill: #72b6a1; stroke: #595959; stroke-linejoin: miter"/>
   </g>
   <g id="line2d_195">
    <path d="M 731.683515 97.766214 
L 731.683515 97.766214 
" clip-path="url(#p69075b127e)" style="fill: none; stroke: #595959"/>
   </g>
   <g id="line2d_196">
    <path d="M 731.683515 97.766214 
L 731.683515 97.766214 
" clip-path="url(#p69075b127e)" style="fill: none; stroke: #595959"/>
   </g>
   <g id="line2d_197">
    <path d="M 728.468059 97.766214 
L 734.898971 97.766214 
" clip-path="url(#p69075b127e)" style="fill: none; stroke: #595959; stroke-linecap: round"/>
   </g>
   <g id="line2d_198">
    <path d="M 728.468059 97.766214 
L 734.898971 97.766214 
" clip-path="url(#p69075b127e)" style="fill: none; stroke: #595959; stroke-linecap: round"/>
   </g>
   <g id="line2d_199"/>
   <g id="patch_40">
    <path d="M 743.626637 102.350519 
L 756.488462 102.350519 
L 756.488462 102.350519 
L 743.626637 102.350519 
L 743.626637 102.350519 
z
" clip-path="url(#p69075b127e)" style="fill: #72b6a1; stroke: #595959; stroke-linejoin: miter"/>
   </g>
   <g id="line2d_200">
    <path d="M 750.05755 102.350519 
L 750.05755 102.350519 
" clip-path="url(#p69075b127e)" style="fill: none; stroke: #595959"/>
   </g>
   <g id="line2d_201">
    <path d="M 750.05755 102.350519 
L 750.05755 102.350519 
" clip-path="url(#p69075b127e)" style="fill: none; stroke: #595959"/>
   </g>
   <g id="line2d_202">
    <path d="M 746.842093 102.350519 
L 753.273006 102.350519 
" clip-path="url(#p69075b127e)" style="fill: none; stroke: #595959; stroke-linecap: round"/>
   </g>
   <g id="line2d_203">
    <path d="M 746.842093 102.350519 
L 753.273006 102.350519 
" clip-path="url(#p69075b127e)" style="fill: none; stroke: #595959; stroke-linecap: round"/>
   </g>
   <g id="line2d_204"/>
   <g id="patch_41">
    <path d="M 762.000672 98.332178 
L 774.862496 98.332178 
L 774.862496 98.332178 
L 762.000672 98.332178 
L 762.000672 98.332178 
z
" clip-path="url(#p69075b127e)" style="fill: #72b6a1; stroke: #595959; stroke-linejoin: miter"/>
   </g>
   <g id="line2d_205">
    <path d="M 768.431584 98.332178 
L 768.431584 98.332178 
" clip-path="url(#p69075b127e)" style="fill: none; stroke: #595959"/>
   </g>
   <g id="line2d_206">
    <path d="M 768.431584 98.332178 
L 768.431584 98.332178 
" clip-path="url(#p69075b127e)" style="fill: none; stroke: #595959"/>
   </g>
   <g id="line2d_207">
    <path d="M 765.216128 98.332178 
L 771.64704 98.332178 
" clip-path="url(#p69075b127e)" style="fill: none; stroke: #595959; stroke-linecap: round"/>
   </g>
   <g id="line2d_208">
    <path d="M 765.216128 98.332178 
L 771.64704 98.332178 
" clip-path="url(#p69075b127e)" style="fill: none; stroke: #595959; stroke-linecap: round"/>
   </g>
   <g id="line2d_209"/>
   <g id="patch_42">
    <path d="M 780.374707 101.207273 
L 793.236531 101.207273 
L 793.236531 101.207273 
L 780.374707 101.207273 
L 780.374707 101.207273 
z
" clip-path="url(#p69075b127e)" style="fill: #72b6a1; stroke: #595959; stroke-linejoin: miter"/>
   </g>
   <g id="line2d_210">
    <path d="M 786.805619 101.207273 
L 786.805619 101.207273 
" clip-path="url(#p69075b127e)" style="fill: none; stroke: #595959"/>
   </g>
   <g id="line2d_211">
    <path d="M 786.805619 101.207273 
L 786.805619 101.207273 
" clip-path="url(#p69075b127e)" style="fill: none; stroke: #595959"/>
   </g>
   <g id="line2d_212">
    <path d="M 783.590163 101.207273 
L 790.021075 101.207273 
" clip-path="url(#p69075b127e)" style="fill: none; stroke: #595959; stroke-linecap: round"/>
   </g>
   <g id="line2d_213">
    <path d="M 783.590163 101.207273 
L 790.021075 101.207273 
" clip-path="url(#p69075b127e)" style="fill: none; stroke: #595959; stroke-linecap: round"/>
   </g>
   <g id="line2d_214"/>
   <g id="patch_43">
    <path d="M 798.748741 104.67097 
L 811.610566 104.67097 
L 811.610566 104.67097 
L 798.748741 104.67097 
L 798.748741 104.67097 
z
" clip-path="url(#p69075b127e)" style="fill: #72b6a1; stroke: #595959; stroke-linejoin: miter"/>
   </g>
   <g id="line2d_215">
    <path d="M 805.179653 104.67097 
L 805.179653 104.67097 
" clip-path="url(#p69075b127e)" style="fill: none; stroke: #595959"/>
   </g>
   <g id="line2d_216">
    <path d="M 805.179653 104.67097 
L 805.179653 104.67097 
" clip-path="url(#p69075b127e)" style="fill: none; stroke: #595959"/>
   </g>
   <g id="line2d_217">
    <path d="M 801.964197 104.67097 
L 808.39511 104.67097 
" clip-path="url(#p69075b127e)" style="fill: none; stroke: #595959; stroke-linecap: round"/>
   </g>
   <g id="line2d_218">
    <path d="M 801.964197 104.67097 
L 808.39511 104.67097 
" clip-path="url(#p69075b127e)" style="fill: none; stroke: #595959; stroke-linecap: round"/>
   </g>
   <g id="line2d_219"/>
   <g id="patch_44">
    <path d="M 817.122776 102.124134 
L 829.9846 102.124134 
L 829.9846 102.124134 
L 817.122776 102.124134 
L 817.122776 102.124134 
z
" clip-path="url(#p69075b127e)" style="fill: #72b6a1; stroke: #595959; stroke-linejoin: miter"/>
   </g>
   <g id="line2d_220">
    <path d="M 823.553688 102.124134 
L 823.553688 102.124134 
" clip-path="url(#p69075b127e)" style="fill: none; stroke: #595959"/>
   </g>
   <g id="line2d_221">
    <path d="M 823.553688 102.124134 
L 823.553688 102.124134 
" clip-path="url(#p69075b127e)" style="fill: none; stroke: #595959"/>
   </g>
   <g id="line2d_222">
    <path d="M 820.338232 102.124134 
L 826.769144 102.124134 
" clip-path="url(#p69075b127e)" style="fill: none; stroke: #595959; stroke-linecap: round"/>
   </g>
   <g id="line2d_223">
    <path d="M 820.338232 102.124134 
L 826.769144 102.124134 
" clip-path="url(#p69075b127e)" style="fill: none; stroke: #595959; stroke-linecap: round"/>
   </g>
   <g id="line2d_224"/>
   <g id="patch_45">
    <path d="M 835.496811 105.485957 
L 848.358635 105.485957 
L 848.358635 105.485957 
L 835.496811 105.485957 
L 835.496811 105.485957 
z
" clip-path="url(#p69075b127e)" style="fill: #72b6a1; stroke: #595959; stroke-linejoin: miter"/>
   </g>
   <g id="line2d_225">
    <path d="M 841.927723 105.485957 
L 841.927723 105.485957 
" clip-path="url(#p69075b127e)" style="fill: none; stroke: #595959"/>
   </g>
   <g id="line2d_226">
    <path d="M 841.927723 105.485957 
L 841.927723 105.485957 
" clip-path="url(#p69075b127e)" style="fill: none; stroke: #595959"/>
   </g>
   <g id="line2d_227">
    <path d="M 838.712267 105.485957 
L 845.143179 105.485957 
" clip-path="url(#p69075b127e)" style="fill: none; stroke: #595959; stroke-linecap: round"/>
   </g>
   <g id="line2d_228">
    <path d="M 838.712267 105.485957 
L 845.143179 105.485957 
" clip-path="url(#p69075b127e)" style="fill: none; stroke: #595959; stroke-linecap: round"/>
   </g>
   <g id="line2d_229"/>
   <g id="patch_46">
    <path d="M 853.870845 106.085878 
L 866.73267 106.085878 
L 866.73267 106.085878 
L 853.870845 106.085878 
L 853.870845 106.085878 
z
" clip-path="url(#p69075b127e)" style="fill: #72b6a1; stroke: #595959; stroke-linejoin: miter"/>
   </g>
   <g id="line2d_230">
    <path d="M 860.301757 106.085878 
L 860.301757 106.085878 
" clip-path="url(#p69075b127e)" style="fill: none; stroke: #595959"/>
   </g>
   <g id="line2d_231">
    <path d="M 860.301757 106.085878 
L 860.301757 106.085878 
" clip-path="url(#p69075b127e)" style="fill: none; stroke: #595959"/>
   </g>
   <g id="line2d_232">
    <path d="M 857.086301 106.085878 
L 863.517213 106.085878 
" clip-path="url(#p69075b127e)" style="fill: none; stroke: #595959; stroke-linecap: round"/>
   </g>
   <g id="line2d_233">
    <path d="M 857.086301 106.085878 
L 863.517213 106.085878 
" clip-path="url(#p69075b127e)" style="fill: none; stroke: #595959; stroke-linecap: round"/>
   </g>
   <g id="line2d_234"/>
   <g id="patch_47">
    <path d="M 872.24488 113.001953 
L 885.106704 113.001953 
L 885.106704 113.001953 
L 872.24488 113.001953 
L 872.24488 113.001953 
z
" clip-path="url(#p69075b127e)" style="fill: #72b6a1; stroke: #595959; stroke-linejoin: miter"/>
   </g>
   <g id="line2d_235">
    <path d="M 878.675792 113.001953 
L 878.675792 113.001953 
" clip-path="url(#p69075b127e)" style="fill: none; stroke: #595959"/>
   </g>
   <g id="line2d_236">
    <path d="M 878.675792 113.001953 
L 878.675792 113.001953 
" clip-path="url(#p69075b127e)" style="fill: none; stroke: #595959"/>
   </g>
   <g id="line2d_237">
    <path d="M 875.460336 113.001953 
L 881.891248 113.001953 
" clip-path="url(#p69075b127e)" style="fill: none; stroke: #595959; stroke-linecap: round"/>
   </g>
   <g id="line2d_238">
    <path d="M 875.460336 113.001953 
L 881.891248 113.001953 
" clip-path="url(#p69075b127e)" style="fill: none; stroke: #595959; stroke-linecap: round"/>
   </g>
   <g id="line2d_239"/>
   <g id="patch_48">
    <path d="M 890.618915 110.964484 
L 903.480739 110.964484 
L 903.480739 110.964484 
L 890.618915 110.964484 
L 890.618915 110.964484 
z
" clip-path="url(#p69075b127e)" style="fill: #72b6a1; stroke: #595959; stroke-linejoin: miter"/>
   </g>
   <g id="line2d_240">
    <path d="M 897.049827 110.964484 
L 897.049827 110.964484 
" clip-path="url(#p69075b127e)" style="fill: none; stroke: #595959"/>
   </g>
   <g id="line2d_241">
    <path d="M 897.049827 110.964484 
L 897.049827 110.964484 
" clip-path="url(#p69075b127e)" style="fill: none; stroke: #595959"/>
   </g>
   <g id="line2d_242">
    <path d="M 893.834371 110.964484 
L 900.265283 110.964484 
" clip-path="url(#p69075b127e)" style="fill: none; stroke: #595959; stroke-linecap: round"/>
   </g>
   <g id="line2d_243">
    <path d="M 893.834371 110.964484 
L 900.265283 110.964484 
" clip-path="url(#p69075b127e)" style="fill: none; stroke: #595959; stroke-linecap: round"/>
   </g>
   <g id="line2d_244"/>
   <g id="patch_49">
    <path d="M 908.992949 112.57182 
L 921.854774 112.57182 
L 921.854774 112.57182 
L 908.992949 112.57182 
L 908.992949 112.57182 
z
" clip-path="url(#p69075b127e)" style="fill: #72b6a1; stroke: #595959; stroke-linejoin: miter"/>
   </g>
   <g id="line2d_245">
    <path d="M 915.423861 112.57182 
L 915.423861 112.57182 
" clip-path="url(#p69075b127e)" style="fill: none; stroke: #595959"/>
   </g>
   <g id="line2d_246">
    <path d="M 915.423861 112.57182 
L 915.423861 112.57182 
" clip-path="url(#p69075b127e)" style="fill: none; stroke: #595959"/>
   </g>
   <g id="line2d_247">
    <path d="M 912.208405 112.57182 
L 918.639317 112.57182 
" clip-path="url(#p69075b127e)" style="fill: none; stroke: #595959; stroke-linecap: round"/>
   </g>
   <g id="line2d_248">
    <path d="M 912.208405 112.57182 
L 918.639317 112.57182 
" clip-path="url(#p69075b127e)" style="fill: none; stroke: #595959; stroke-linecap: round"/>
   </g>
   <g id="line2d_249"/>
   <g id="patch_50">
    <path d="M 927.366984 109.889153 
L 940.228808 109.889153 
L 940.228808 109.889153 
L 927.366984 109.889153 
L 927.366984 109.889153 
z
" clip-path="url(#p69075b127e)" style="fill: #72b6a1; stroke: #595959; stroke-linejoin: miter"/>
   </g>
   <g id="line2d_250">
    <path d="M 933.797896 109.889153 
L 933.797896 109.889153 
" clip-path="url(#p69075b127e)" style="fill: none; stroke: #595959"/>
   </g>
   <g id="line2d_251">
    <path d="M 933.797896 109.889153 
L 933.797896 109.889153 
" clip-path="url(#p69075b127e)" style="fill: none; stroke: #595959"/>
   </g>
   <g id="line2d_252">
    <path d="M 930.58244 109.889153 
L 937.013352 109.889153 
" clip-path="url(#p69075b127e)" style="fill: none; stroke: #595959; stroke-linecap: round"/>
   </g>
   <g id="line2d_253">
    <path d="M 930.58244 109.889153 
L 937.013352 109.889153 
" clip-path="url(#p69075b127e)" style="fill: none; stroke: #595959; stroke-linecap: round"/>
   </g>
   <g id="line2d_254"/>
   <g id="patch_51">
    <path d="M 945.741019 118.01639 
L 958.602843 118.01639 
L 958.602843 118.01639 
L 945.741019 118.01639 
L 945.741019 118.01639 
z
" clip-path="url(#p69075b127e)" style="fill: #72b6a1; stroke: #595959; stroke-linejoin: miter"/>
   </g>
   <g id="line2d_255">
    <path d="M 952.171931 118.01639 
L 952.171931 118.01639 
" clip-path="url(#p69075b127e)" style="fill: none; stroke: #595959"/>
   </g>
   <g id="line2d_256">
    <path d="M 952.171931 118.01639 
L 952.171931 118.01639 
" clip-path="url(#p69075b127e)" style="fill: none; stroke: #595959"/>
   </g>
   <g id="line2d_257">
    <path d="M 948.956475 118.01639 
L 955.387387 118.01639 
" clip-path="url(#p69075b127e)" style="fill: none; stroke: #595959; stroke-linecap: round"/>
   </g>
   <g id="line2d_258">
    <path d="M 948.956475 118.01639 
L 955.387387 118.01639 
" clip-path="url(#p69075b127e)" style="fill: none; stroke: #595959; stroke-linecap: round"/>
   </g>
   <g id="line2d_259"/>
   <g id="patch_52">
    <path d="M 964.115053 117.325914 
L 976.976877 117.325914 
L 976.976877 117.325914 
L 964.115053 117.325914 
L 964.115053 117.325914 
z
" clip-path="url(#p69075b127e)" style="fill: #72b6a1; stroke: #595959; stroke-linejoin: miter"/>
   </g>
   <g id="line2d_260">
    <path d="M 970.545965 117.325914 
L 970.545965 117.325914 
" clip-path="url(#p69075b127e)" style="fill: none; stroke: #595959"/>
   </g>
   <g id="line2d_261">
    <path d="M 970.545965 117.325914 
L 970.545965 117.325914 
" clip-path="url(#p69075b127e)" style="fill: none; stroke: #595959"/>
   </g>
   <g id="line2d_262">
    <path d="M 967.330509 117.325914 
L 973.761421 117.325914 
" clip-path="url(#p69075b127e)" style="fill: none; stroke: #595959; stroke-linecap: round"/>
   </g>
   <g id="line2d_263">
    <path d="M 967.330509 117.325914 
L 973.761421 117.325914 
" clip-path="url(#p69075b127e)" style="fill: none; stroke: #595959; stroke-linecap: round"/>
   </g>
   <g id="line2d_264"/>
   <g id="line2d_265">
    <path d="M 63.787355 416.606399 
L 76.649179 416.606399 
" clip-path="url(#p69075b127e)" style="fill: none; stroke: #595959"/>
   </g>
   <g id="line2d_266">
    <path d="M 82.16139 380.707281 
L 95.023214 380.707281 
" clip-path="url(#p69075b127e)" style="fill: none; stroke: #595959"/>
   </g>
   <g id="line2d_267">
    <path d="M 100.535425 360.654575 
L 113.397249 360.654575 
" clip-path="url(#p69075b127e)" style="fill: none; stroke: #595959"/>
   </g>
   <g id="line2d_268">
    <path d="M 118.909459 344.23088 
L 131.771283 344.23088 
" clip-path="url(#p69075b127e)" style="fill: none; stroke: #595959"/>
   </g>
   <g id="line2d_269">
    <path d="M 137.283494 332.320177 
L 150.145318 332.320177 
" clip-path="url(#p69075b127e)" style="fill: none; stroke: #595959"/>
   </g>
   <g id="line2d_270">
    <path d="M 155.657528 121.604598 
L 168.519353 121.604598 
" clip-path="url(#p69075b127e)" style="fill: none; stroke: #595959"/>
   </g>
   <g id="line2d_271">
    <path d="M 174.031563 87.771299 
L 186.893387 87.771299 
" clip-path="url(#p69075b127e)" style="fill: none; stroke: #595959"/>
   </g>
   <g id="line2d_272">
    <path d="M 192.405598 75.80683 
L 205.267422 75.80683 
" clip-path="url(#p69075b127e)" style="fill: none; stroke: #595959"/>
   </g>
   <g id="line2d_273">
    <path d="M 210.779632 66.864606 
L 223.641457 66.864606 
" clip-path="url(#p69075b127e)" style="fill: none; stroke: #595959"/>
   </g>
   <g id="line2d_274">
    <path d="M 229.153667 73.078885 
L 242.015491 73.078885 
" clip-path="url(#p69075b127e)" style="fill: none; stroke: #595959"/>
   </g>
   <g id="line2d_275">
    <path d="M 247.527702 53.123011 
L 260.389526 53.123011 
" clip-path="url(#p69075b127e)" style="fill: none; stroke: #595959"/>
   </g>
   <g id="line2d_276">
    <path d="M 265.901736 60.446579 
L 278.763561 60.446579 
" clip-path="url(#p69075b127e)" style="fill: none; stroke: #595959"/>
   </g>
   <g id="line2d_277">
    <path d="M 284.275771 61.453994 
L 297.137595 61.453994 
" clip-path="url(#p69075b127e)" style="fill: none; stroke: #595959"/>
   </g>
   <g id="line2d_278">
    <path d="M 302.649806 63.004735 
L 315.51163 63.004735 
" clip-path="url(#p69075b127e)" style="fill: none; stroke: #595959"/>
   </g>
   <g id="line2d_279">
    <path d="M 321.02384 71.313079 
L 333.885665 71.313079 
" clip-path="url(#p69075b127e)" style="fill: none; stroke: #595959"/>
   </g>
   <g id="line2d_280">
    <path d="M 339.397875 75.18427 
L 352.259699 75.18427 
" clip-path="url(#p69075b127e)" style="fill: none; stroke: #595959"/>
   </g>
   <g id="line2d_281">
    <path d="M 357.77191 63.140566 
L 370.633734 63.140566 
" clip-path="url(#p69075b127e)" style="fill: none; stroke: #595959"/>
   </g>
   <g id="line2d_282">
    <path d="M 376.145944 65.449697 
L 389.007769 65.449697 
" clip-path="url(#p69075b127e)" style="fill: none; stroke: #595959"/>
   </g>
   <g id="line2d_283">
    <path d="M 394.519979 90.046472 
L 407.381803 90.046472 
" clip-path="url(#p69075b127e)" style="fill: none; stroke: #595959"/>
   </g>
   <g id="line2d_284">
    <path d="M 412.894014 73.47506 
L 425.755838 73.47506 
" clip-path="url(#p69075b127e)" style="fill: none; stroke: #595959"/>
   </g>
   <g id="line2d_285">
    <path d="M 431.268048 76.395432 
L 444.129873 76.395432 
" clip-path="url(#p69075b127e)" style="fill: none; stroke: #595959"/>
   </g>
   <g id="line2d_286">
    <path d="M 449.642083 67.317377 
L 462.503907 67.317377 
" clip-path="url(#p69075b127e)" style="fill: none; stroke: #595959"/>
   </g>
   <g id="line2d_287">
    <path d="M 468.016118 77.380208 
L 480.877942 77.380208 
" clip-path="url(#p69075b127e)" style="fill: none; stroke: #595959"/>
   </g>
   <g id="line2d_288">
    <path d="M 486.390152 83.605807 
L 499.251976 83.605807 
" clip-path="url(#p69075b127e)" style="fill: none; stroke: #595959"/>
   </g>
   <g id="line2d_289">
    <path d="M 504.764187 85.541402 
L 517.626011 85.541402 
" clip-path="url(#p69075b127e)" style="fill: none; stroke: #595959"/>
   </g>
   <g id="line2d_290">
    <path d="M 523.138222 86.899715 
L 536.000046 86.899715 
" clip-path="url(#p69075b127e)" style="fill: none; stroke: #595959"/>
   </g>
   <g id="line2d_291">
    <path d="M 541.512256 86.458263 
L 554.37408 86.458263 
" clip-path="url(#p69075b127e)" style="fill: none; stroke: #595959"/>
   </g>
   <g id="line2d_292">
    <path d="M 559.886291 80.900501 
L 572.748115 80.900501 
" clip-path="url(#p69075b127e)" style="fill: none; stroke: #595959"/>
   </g>
   <g id="line2d_293">
    <path d="M 578.260325 85.394252 
L 591.12215 85.394252 
" clip-path="url(#p69075b127e)" style="fill: none; stroke: #595959"/>
   </g>
   <g id="line2d_294">
    <path d="M 596.63436 86.367709 
L 609.496184 86.367709 
" clip-path="url(#p69075b127e)" style="fill: none; stroke: #595959"/>
   </g>
   <g id="line2d_295">
    <path d="M 615.008395 87.703383 
L 627.870219 87.703383 
" clip-path="url(#p69075b127e)" style="fill: none; stroke: #595959"/>
   </g>
   <g id="line2d_296">
    <path d="M 633.382429 100.222496 
L 646.244254 100.222496 
" clip-path="url(#p69075b127e)" style="fill: none; stroke: #595959"/>
   </g>
   <g id="line2d_297">
    <path d="M 651.756464 91.280272 
L 664.618288 91.280272 
" clip-path="url(#p69075b127e)" style="fill: none; stroke: #595959"/>
   </g>
   <g id="line2d_298">
    <path d="M 670.130499 88.733437 
L 682.992323 88.733437 
" clip-path="url(#p69075b127e)" style="fill: none; stroke: #595959"/>
   </g>
   <g id="line2d_299">
    <path d="M 688.504533 95.50236 
L 701.366358 95.50236 
" clip-path="url(#p69075b127e)" style="fill: none; stroke: #595959"/>
   </g>
   <g id="line2d_300">
    <path d="M 706.878568 97.83413 
L 719.740392 97.83413 
" clip-path="url(#p69075b127e)" style="fill: none; stroke: #595959"/>
   </g>
   <g id="line2d_301">
    <path d="M 725.252603 97.766214 
L 738.114427 97.766214 
" clip-path="url(#p69075b127e)" style="fill: none; stroke: #595959"/>
   </g>
   <g id="line2d_302">
    <path d="M 743.626637 102.350519 
L 756.488462 102.350519 
" clip-path="url(#p69075b127e)" style="fill: none; stroke: #595959"/>
   </g>
   <g id="line2d_303">
    <path d="M 762.000672 98.332178 
L 774.862496 98.332178 
" clip-path="url(#p69075b127e)" style="fill: none; stroke: #595959"/>
   </g>
   <g id="line2d_304">
    <path d="M 780.374707 101.207273 
L 793.236531 101.207273 
" clip-path="url(#p69075b127e)" style="fill: none; stroke: #595959"/>
   </g>
   <g id="line2d_305">
    <path d="M 798.748741 104.67097 
L 811.610566 104.67097 
" clip-path="url(#p69075b127e)" style="fill: none; stroke: #595959"/>
   </g>
   <g id="line2d_306">
    <path d="M 817.122776 102.124134 
L 829.9846 102.124134 
" clip-path="url(#p69075b127e)" style="fill: none; stroke: #595959"/>
   </g>
   <g id="line2d_307">
    <path d="M 835.496811 105.485957 
L 848.358635 105.485957 
" clip-path="url(#p69075b127e)" style="fill: none; stroke: #595959"/>
   </g>
   <g id="line2d_308">
    <path d="M 853.870845 106.085878 
L 866.73267 106.085878 
" clip-path="url(#p69075b127e)" style="fill: none; stroke: #595959"/>
   </g>
   <g id="line2d_309">
    <path d="M 872.24488 113.001953 
L 885.106704 113.001953 
" clip-path="url(#p69075b127e)" style="fill: none; stroke: #595959"/>
   </g>
   <g id="line2d_310">
    <path d="M 890.618915 110.964484 
L 903.480739 110.964484 
" clip-path="url(#p69075b127e)" style="fill: none; stroke: #595959"/>
   </g>
   <g id="line2d_311">
    <path d="M 908.992949 112.57182 
L 921.854774 112.57182 
" clip-path="url(#p69075b127e)" style="fill: none; stroke: #595959"/>
   </g>
   <g id="line2d_312">
    <path d="M 927.366984 109.889153 
L 940.228808 109.889153 
" clip-path="url(#p69075b127e)" style="fill: none; stroke: #595959"/>
   </g>
   <g id="line2d_313">
    <path d="M 945.741019 118.01639 
L 958.602843 118.01639 
" clip-path="url(#p69075b127e)" style="fill: none; stroke: #595959"/>
   </g>
   <g id="line2d_314">
    <path d="M 964.115053 117.325914 
L 976.976877 117.325914 
" clip-path="url(#p69075b127e)" style="fill: none; stroke: #595959"/>
   </g>
   <g id="patch_53">
    <path d="M 61.03125 526.5 
L 61.03125 30.58125 
" style="fill: none; stroke: #cccccc; stroke-width: 1.25; stroke-linejoin: miter; stroke-linecap: square"/>
   </g>
   <g id="patch_54">
    <path d="M 988.92 526.5 
L 988.92 30.58125 
" style="fill: none; stroke: #cccccc; stroke-width: 1.25; stroke-linejoin: miter; stroke-linecap: square"/>
   </g>
   <g id="patch_55">
    <path d="M 61.03125 526.5 
L 988.92 526.5 
" style="fill: none; stroke: #cccccc; stroke-width: 1.25; stroke-linejoin: miter; stroke-linecap: square"/>
   </g>
   <g id="patch_56">
    <path d="M 61.03125 30.58125 
L 988.92 30.58125 
" style="fill: none; stroke: #cccccc; stroke-width: 1.25; stroke-linejoin: miter; stroke-linecap: square"/>
   </g>
   <g id="text_17">
    <!-- img-classification - places365 (Accuracy_mean Distribution) -->
    <g style="fill: #262626" transform="translate(296.028125 24.58125) scale(0.16 -0.16)">
     <defs>
      <path id="Arial-BoldMT-69" d="M 459 3769 
L 459 4581 
L 1338 4581 
L 1338 3769 
L 459 3769 
z
M 459 0 
L 459 3319 
L 1338 3319 
L 1338 0 
L 459 0 
z
" transform="scale(0.015625)"/>
      <path id="Arial-BoldMT-6d" d="M 394 3319 
L 1203 3319 
L 1203 2866 
Q 1638 3394 2238 3394 
Q 2556 3394 2790 3262 
Q 3025 3131 3175 2866 
Q 3394 3131 3647 3262 
Q 3900 3394 4188 3394 
Q 4553 3394 4806 3245 
Q 5059 3097 5184 2809 
Q 5275 2597 5275 2122 
L 5275 0 
L 4397 0 
L 4397 1897 
Q 4397 2391 4306 2534 
Q 4184 2722 3931 2722 
Q 3747 2722 3584 2609 
Q 3422 2497 3350 2280 
Q 3278 2063 3278 1594 
L 3278 0 
L 2400 0 
L 2400 1819 
Q 2400 2303 2353 2443 
Q 2306 2584 2207 2653 
Q 2109 2722 1941 2722 
Q 1738 2722 1575 2612 
Q 1413 2503 1342 2297 
Q 1272 2091 1272 1613 
L 1272 0 
L 394 0 
L 394 3319 
z
" transform="scale(0.015625)"/>
      <path id="Arial-BoldMT-67" d="M 378 -219 
L 1381 -341 
Q 1406 -516 1497 -581 
Q 1622 -675 1891 -675 
Q 2234 -675 2406 -572 
Q 2522 -503 2581 -350 
Q 2622 -241 2622 53 
L 2622 538 
Q 2228 0 1628 0 
Q 959 0 569 566 
Q 263 1013 263 1678 
Q 263 2513 664 2953 
Q 1066 3394 1663 3394 
Q 2278 3394 2678 2853 
L 2678 3319 
L 3500 3319 
L 3500 341 
Q 3500 -247 3403 -537 
Q 3306 -828 3131 -993 
Q 2956 -1159 2664 -1253 
Q 2372 -1347 1925 -1347 
Q 1081 -1347 728 -1058 
Q 375 -769 375 -325 
Q 375 -281 378 -219 
z
M 1163 1728 
Q 1163 1200 1367 954 
Q 1572 709 1872 709 
Q 2194 709 2416 961 
Q 2638 1213 2638 1706 
Q 2638 2222 2425 2472 
Q 2213 2722 1888 2722 
Q 1572 2722 1367 2476 
Q 1163 2231 1163 1728 
z
" transform="scale(0.015625)"/>
      <path id="Arial-BoldMT-2d" d="M 359 1222 
L 359 2100 
L 2084 2100 
L 2084 1222 
L 359 1222 
z
" transform="scale(0.015625)"/>
      <path id="Arial-BoldMT-63" d="M 3353 2338 
L 2488 2181 
Q 2444 2441 2289 2572 
Q 2134 2703 1888 2703 
Q 1559 2703 1364 2476 
Q 1169 2250 1169 1719 
Q 1169 1128 1367 884 
Q 1566 641 1900 641 
Q 2150 641 2309 783 
Q 2469 925 2534 1272 
L 3397 1125 
Q 3263 531 2881 228 
Q 2500 -75 1859 -75 
Q 1131 -75 698 384 
Q 266 844 266 1656 
Q 266 2478 700 2936 
Q 1134 3394 1875 3394 
Q 2481 3394 2839 3133 
Q 3197 2872 3353 2338 
z
" transform="scale(0.015625)"/>
      <path id="Arial-BoldMT-6c" d="M 459 0 
L 459 4581 
L 1338 4581 
L 1338 0 
L 459 0 
z
" transform="scale(0.015625)"/>
      <path id="Arial-BoldMT-61" d="M 1116 2306 
L 319 2450 
Q 453 2931 781 3162 
Q 1109 3394 1756 3394 
Q 2344 3394 2631 3255 
Q 2919 3116 3036 2902 
Q 3153 2688 3153 2116 
L 3144 1091 
Q 3144 653 3186 445 
Q 3228 238 3344 0 
L 2475 0 
Q 2441 88 2391 259 
Q 2369 338 2359 363 
Q 2134 144 1878 34 
Q 1622 -75 1331 -75 
Q 819 -75 523 203 
Q 228 481 228 906 
Q 228 1188 362 1408 
Q 497 1628 739 1745 
Q 981 1863 1438 1950 
Q 2053 2066 2291 2166 
L 2291 2253 
Q 2291 2506 2166 2614 
Q 2041 2722 1694 2722 
Q 1459 2722 1328 2630 
Q 1197 2538 1116 2306 
z
M 2291 1594 
Q 2122 1538 1756 1459 
Q 1391 1381 1278 1306 
Q 1106 1184 1106 997 
Q 1106 813 1243 678 
Q 1381 544 1594 544 
Q 1831 544 2047 700 
Q 2206 819 2256 991 
Q 2291 1103 2291 1419 
L 2291 1594 
z
" transform="scale(0.015625)"/>
      <path id="Arial-BoldMT-73" d="M 150 947 
L 1031 1081 
Q 1088 825 1259 692 
Q 1431 559 1741 559 
Q 2081 559 2253 684 
Q 2369 772 2369 919 
Q 2369 1019 2306 1084 
Q 2241 1147 2013 1200 
Q 950 1434 666 1628 
Q 272 1897 272 2375 
Q 272 2806 612 3100 
Q 953 3394 1669 3394 
Q 2350 3394 2681 3172 
Q 3013 2950 3138 2516 
L 2309 2363 
Q 2256 2556 2107 2659 
Q 1959 2763 1684 2763 
Q 1338 2763 1188 2666 
Q 1088 2597 1088 2488 
Q 1088 2394 1175 2328 
Q 1294 2241 1995 2081 
Q 2697 1922 2975 1691 
Q 3250 1456 3250 1038 
Q 3250 581 2869 253 
Q 2488 -75 1741 -75 
Q 1063 -75 667 200 
Q 272 475 150 947 
z
" transform="scale(0.015625)"/>
      <path id="Arial-BoldMT-66" d="M 75 3319 
L 563 3319 
L 563 3569 
Q 563 3988 652 4194 
Q 741 4400 980 4529 
Q 1219 4659 1584 4659 
Q 1959 4659 2319 4547 
L 2200 3934 
Q 1991 3984 1797 3984 
Q 1606 3984 1523 3895 
Q 1441 3806 1441 3553 
L 1441 3319 
L 2097 3319 
L 2097 2628 
L 1441 2628 
L 1441 0 
L 563 0 
L 563 2628 
L 75 2628 
L 75 3319 
z
" transform="scale(0.015625)"/>
      <path id="Arial-BoldMT-74" d="M 1981 3319 
L 1981 2619 
L 1381 2619 
L 1381 1281 
Q 1381 875 1398 808 
Q 1416 741 1477 697 
Q 1538 653 1625 653 
Q 1747 653 1978 738 
L 2053 56 
Q 1747 -75 1359 -75 
Q 1122 -75 931 4 
Q 741 84 652 211 
Q 563 338 528 553 
Q 500 706 500 1172 
L 500 2619 
L 97 2619 
L 97 3319 
L 500 3319 
L 500 3978 
L 1381 4491 
L 1381 3319 
L 1981 3319 
z
" transform="scale(0.015625)"/>
      <path id="Arial-BoldMT-6f" d="M 256 1706 
Q 256 2144 472 2553 
Q 688 2963 1083 3178 
Q 1478 3394 1966 3394 
Q 2719 3394 3200 2905 
Q 3681 2416 3681 1669 
Q 3681 916 3195 420 
Q 2709 -75 1972 -75 
Q 1516 -75 1102 131 
Q 688 338 472 736 
Q 256 1134 256 1706 
z
M 1156 1659 
Q 1156 1166 1390 903 
Q 1625 641 1969 641 
Q 2313 641 2545 903 
Q 2778 1166 2778 1666 
Q 2778 2153 2545 2415 
Q 2313 2678 1969 2678 
Q 1625 2678 1390 2415 
Q 1156 2153 1156 1659 
z
" transform="scale(0.015625)"/>
      <path id="Arial-BoldMT-6e" d="M 3478 0 
L 2600 0 
L 2600 1694 
Q 2600 2231 2544 2389 
Q 2488 2547 2361 2634 
Q 2234 2722 2056 2722 
Q 1828 2722 1647 2597 
Q 1466 2472 1398 2265 
Q 1331 2059 1331 1503 
L 1331 0 
L 453 0 
L 453 3319 
L 1269 3319 
L 1269 2831 
Q 1703 3394 2363 3394 
Q 2653 3394 2893 3289 
Q 3134 3184 3257 3021 
Q 3381 2859 3429 2653 
Q 3478 2447 3478 2063 
L 3478 0 
z
" transform="scale(0.015625)"/>
      <path id="Arial-BoldMT-20" transform="scale(0.015625)"/>
      <path id="Arial-BoldMT-70" d="M 434 3319 
L 1253 3319 
L 1253 2831 
Q 1413 3081 1684 3237 
Q 1956 3394 2288 3394 
Q 2866 3394 3269 2941 
Q 3672 2488 3672 1678 
Q 3672 847 3265 386 
Q 2859 -75 2281 -75 
Q 2006 -75 1782 34 
Q 1559 144 1313 409 
L 1313 -1263 
L 434 -1263 
L 434 3319 
z
M 1303 1716 
Q 1303 1156 1525 889 
Q 1747 622 2066 622 
Q 2372 622 2575 867 
Q 2778 1113 2778 1672 
Q 2778 2194 2568 2447 
Q 2359 2700 2050 2700 
Q 1728 2700 1515 2451 
Q 1303 2203 1303 1716 
z
" transform="scale(0.015625)"/>
      <path id="Arial-BoldMT-65" d="M 2381 1056 
L 3256 909 
Q 3088 428 2723 176 
Q 2359 -75 1813 -75 
Q 947 -75 531 491 
Q 203 944 203 1634 
Q 203 2459 634 2926 
Q 1066 3394 1725 3394 
Q 2466 3394 2894 2905 
Q 3322 2416 3303 1406 
L 1103 1406 
Q 1113 1016 1316 798 
Q 1519 581 1822 581 
Q 2028 581 2168 693 
Q 2309 806 2381 1056 
z
M 2431 1944 
Q 2422 2325 2234 2523 
Q 2047 2722 1778 2722 
Q 1491 2722 1303 2513 
Q 1116 2303 1119 1944 
L 2431 1944 
z
" transform="scale(0.015625)"/>
      <path id="Arial-BoldMT-33" d="M 241 1216 
L 1091 1319 
Q 1131 994 1309 822 
Q 1488 650 1741 650 
Q 2013 650 2198 856 
Q 2384 1063 2384 1413 
Q 2384 1744 2206 1937 
Q 2028 2131 1772 2131 
Q 1603 2131 1369 2066 
L 1466 2781 
Q 1822 2772 2009 2936 
Q 2197 3100 2197 3372 
Q 2197 3603 2059 3740 
Q 1922 3878 1694 3878 
Q 1469 3878 1309 3722 
Q 1150 3566 1116 3266 
L 306 3403 
Q 391 3819 561 4067 
Q 731 4316 1036 4458 
Q 1341 4600 1719 4600 
Q 2366 4600 2756 4188 
Q 3078 3850 3078 3425 
Q 3078 2822 2419 2463 
Q 2813 2378 3048 2084 
Q 3284 1791 3284 1375 
Q 3284 772 2843 347 
Q 2403 -78 1747 -78 
Q 1125 -78 715 280 
Q 306 638 241 1216 
z
" transform="scale(0.015625)"/>
      <path id="Arial-BoldMT-36" d="M 3247 3459 
L 2397 3366 
Q 2366 3628 2234 3753 
Q 2103 3878 1894 3878 
Q 1616 3878 1423 3628 
Q 1231 3378 1181 2588 
Q 1509 2975 1997 2975 
Q 2547 2975 2939 2556 
Q 3331 2138 3331 1475 
Q 3331 772 2918 347 
Q 2506 -78 1859 -78 
Q 1166 -78 719 461 
Q 272 1000 272 2228 
Q 272 3488 737 4044 
Q 1203 4600 1947 4600 
Q 2469 4600 2811 4308 
Q 3153 4016 3247 3459 
z
M 1256 1544 
Q 1256 1116 1453 883 
Q 1650 650 1903 650 
Q 2147 650 2309 840 
Q 2472 1031 2472 1466 
Q 2472 1913 2297 2120 
Q 2122 2328 1859 2328 
Q 1606 2328 1431 2129 
Q 1256 1931 1256 1544 
z
" transform="scale(0.015625)"/>
      <path id="Arial-BoldMT-35" d="M 284 1178 
L 1159 1269 
Q 1197 972 1381 798 
Q 1566 625 1806 625 
Q 2081 625 2272 848 
Q 2463 1072 2463 1522 
Q 2463 1944 2273 2155 
Q 2084 2366 1781 2366 
Q 1403 2366 1103 2031 
L 391 2134 
L 841 4519 
L 3163 4519 
L 3163 3697 
L 1506 3697 
L 1369 2919 
Q 1663 3066 1969 3066 
Q 2553 3066 2959 2641 
Q 3366 2216 3366 1538 
Q 3366 972 3038 528 
Q 2591 -78 1797 -78 
Q 1163 -78 763 262 
Q 363 603 284 1178 
z
" transform="scale(0.015625)"/>
      <path id="Arial-BoldMT-28" d="M 1916 -1347 
L 1313 -1347 
Q 834 -625 584 153 
Q 334 931 334 1659 
Q 334 2563 644 3369 
Q 913 4069 1325 4659 
L 1925 4659 
Q 1497 3713 1336 3048 
Q 1175 2384 1175 1641 
Q 1175 1128 1270 590 
Q 1366 53 1531 -431 
Q 1641 -750 1916 -1347 
z
" transform="scale(0.015625)"/>
      <path id="Arial-BoldMT-41" d="M 4597 0 
L 3591 0 
L 3191 1041 
L 1359 1041 
L 981 0 
L 0 0 
L 1784 4581 
L 2763 4581 
L 4597 0 
z
M 2894 1813 
L 2263 3513 
L 1644 1813 
L 2894 1813 
z
" transform="scale(0.015625)"/>
      <path id="Arial-BoldMT-75" d="M 2644 0 
L 2644 497 
Q 2463 231 2167 78 
Q 1872 -75 1544 -75 
Q 1209 -75 943 72 
Q 678 219 559 484 
Q 441 750 441 1219 
L 441 3319 
L 1319 3319 
L 1319 1794 
Q 1319 1094 1367 936 
Q 1416 778 1544 686 
Q 1672 594 1869 594 
Q 2094 594 2272 717 
Q 2450 841 2515 1023 
Q 2581 1206 2581 1919 
L 2581 3319 
L 3459 3319 
L 3459 0 
L 2644 0 
z
" transform="scale(0.015625)"/>
      <path id="Arial-BoldMT-72" d="M 1300 0 
L 422 0 
L 422 3319 
L 1238 3319 
L 1238 2847 
Q 1447 3181 1614 3287 
Q 1781 3394 1994 3394 
Q 2294 3394 2572 3228 
L 2300 2463 
Q 2078 2606 1888 2606 
Q 1703 2606 1575 2504 
Q 1447 2403 1373 2137 
Q 1300 1872 1300 1025 
L 1300 0 
z
" transform="scale(0.015625)"/>
      <path id="Arial-BoldMT-79" d="M 44 3319 
L 978 3319 
L 1772 963 
L 2547 3319 
L 3456 3319 
L 2284 125 
L 2075 -453 
Q 1959 -744 1854 -897 
Q 1750 -1050 1614 -1145 
Q 1478 -1241 1279 -1294 
Q 1081 -1347 831 -1347 
Q 578 -1347 334 -1294 
L 256 -606 
Q 463 -647 628 -647 
Q 934 -647 1081 -467 
Q 1228 -288 1306 -9 
L 44 3319 
z
" transform="scale(0.015625)"/>
      <path id="Arial-BoldMT-5f" d="M -59 -1266 
L -59 -697 
L 3591 -697 
L 3591 -1266 
L -59 -1266 
z
" transform="scale(0.015625)"/>
      <path id="Arial-BoldMT-44" d="M 463 4581 
L 2153 4581 
Q 2725 4581 3025 4494 
Q 3428 4375 3715 4072 
Q 4003 3769 4153 3330 
Q 4303 2891 4303 2247 
Q 4303 1681 4163 1272 
Q 3991 772 3672 463 
Q 3431 228 3022 97 
Q 2716 0 2203 0 
L 463 0 
L 463 4581 
z
M 1388 3806 
L 1388 772 
L 2078 772 
Q 2466 772 2638 816 
Q 2863 872 3011 1006 
Q 3159 1141 3253 1448 
Q 3347 1756 3347 2288 
Q 3347 2819 3253 3103 
Q 3159 3388 2990 3547 
Q 2822 3706 2563 3763 
Q 2369 3806 1803 3806 
L 1388 3806 
z
" transform="scale(0.015625)"/>
      <path id="Arial-BoldMT-62" d="M 422 0 
L 422 4581 
L 1300 4581 
L 1300 2931 
Q 1706 3394 2263 3394 
Q 2869 3394 3266 2955 
Q 3663 2516 3663 1694 
Q 3663 844 3258 384 
Q 2853 -75 2275 -75 
Q 1991 -75 1714 67 
Q 1438 209 1238 488 
L 1238 0 
L 422 0 
z
M 1294 1731 
Q 1294 1216 1456 969 
Q 1684 619 2063 619 
Q 2353 619 2558 867 
Q 2763 1116 2763 1650 
Q 2763 2219 2556 2470 
Q 2350 2722 2028 2722 
Q 1713 2722 1503 2476 
Q 1294 2231 1294 1731 
z
" transform="scale(0.015625)"/>
      <path id="Arial-BoldMT-29" d="M 216 -1347 
Q 475 -791 581 -494 
Q 688 -197 778 190 
Q 869 578 912 926 
Q 956 1275 956 1641 
Q 956 2384 797 3048 
Q 638 3713 209 4659 
L 806 4659 
Q 1278 3988 1539 3234 
Q 1800 2481 1800 1706 
Q 1800 1053 1594 306 
Q 1359 -531 822 -1347 
L 216 -1347 
z
" transform="scale(0.015625)"/>
     </defs>
     <use xlink:href="#Arial-BoldMT-69"/>
     <use xlink:href="#Arial-BoldMT-6d" transform="translate(27.783203 0)"/>
     <use xlink:href="#Arial-BoldMT-67" transform="translate(116.699219 0)"/>
     <use xlink:href="#Arial-BoldMT-2d" transform="translate(177.783203 0)"/>
     <use xlink:href="#Arial-BoldMT-63" transform="translate(211.083984 0)"/>
     <use xlink:href="#Arial-BoldMT-6c" transform="translate(266.699219 0)"/>
     <use xlink:href="#Arial-BoldMT-61" transform="translate(294.482422 0)"/>
     <use xlink:href="#Arial-BoldMT-73" transform="translate(350.097656 0)"/>
     <use xlink:href="#Arial-BoldMT-73" transform="translate(405.712891 0)"/>
     <use xlink:href="#Arial-BoldMT-69" transform="translate(461.328125 0)"/>
     <use xlink:href="#Arial-BoldMT-66" transform="translate(489.111328 0)"/>
     <use xlink:href="#Arial-BoldMT-69" transform="translate(522.412109 0)"/>
     <use xlink:href="#Arial-BoldMT-63" transform="translate(550.195312 0)"/>
     <use xlink:href="#Arial-BoldMT-61" transform="translate(605.810547 0)"/>
     <use xlink:href="#Arial-BoldMT-74" transform="translate(661.425781 0)"/>
     <use xlink:href="#Arial-BoldMT-69" transform="translate(694.726562 0)"/>
     <use xlink:href="#Arial-BoldMT-6f" transform="translate(722.509766 0)"/>
     <use xlink:href="#Arial-BoldMT-6e" transform="translate(783.59375 0)"/>
     <use xlink:href="#Arial-BoldMT-20" transform="translate(844.677734 0)"/>
     <use xlink:href="#Arial-BoldMT-2d" transform="translate(872.460938 0)"/>
     <use xlink:href="#Arial-BoldMT-20" transform="translate(905.761719 0)"/>
     <use xlink:href="#Arial-BoldMT-70" transform="translate(933.544922 0)"/>
     <use xlink:href="#Arial-BoldMT-6c" transform="translate(994.628906 0)"/>
     <use xlink:href="#Arial-BoldMT-61" transform="translate(1022.412109 0)"/>
     <use xlink:href="#Arial-BoldMT-63" transform="translate(1078.027344 0)"/>
     <use xlink:href="#Arial-BoldMT-65" transform="translate(1133.642578 0)"/>
     <use xlink:href="#Arial-BoldMT-73" transform="translate(1189.257812 0)"/>
     <use xlink:href="#Arial-BoldMT-33" transform="translate(1244.873047 0)"/>
     <use xlink:href="#Arial-BoldMT-36" transform="translate(1300.488281 0)"/>
     <use xlink:href="#Arial-BoldMT-35" transform="translate(1356.103516 0)"/>
     <use xlink:href="#Arial-BoldMT-20" transform="translate(1411.71875 0)"/>
     <use xlink:href="#Arial-BoldMT-28" transform="translate(1439.501953 0)"/>
     <use xlink:href="#Arial-BoldMT-41" transform="translate(1472.802734 0)"/>
     <use xlink:href="#Arial-BoldMT-63" transform="translate(1545.019531 0)"/>
     <use xlink:href="#Arial-BoldMT-63" transform="translate(1600.634766 0)"/>
     <use xlink:href="#Arial-BoldMT-75" transform="translate(1656.25 0)"/>
     <use xlink:href="#Arial-BoldMT-72" transform="translate(1717.333984 0)"/>
     <use xlink:href="#Arial-BoldMT-61" transform="translate(1756.25 0)"/>
     <use xlink:href="#Arial-BoldMT-63" transform="translate(1811.865234 0)"/>
     <use xlink:href="#Arial-BoldMT-79" transform="translate(1867.480469 0)"/>
     <use xlink:href="#Arial-BoldMT-5f" transform="translate(1923.095703 0)"/>
     <use xlink:href="#Arial-BoldMT-6d" transform="translate(1978.710938 0)"/>
     <use xlink:href="#Arial-BoldMT-65" transform="translate(2067.626953 0)"/>
     <use xlink:href="#Arial-BoldMT-61" transform="translate(2123.242188 0)"/>
     <use xlink:href="#Arial-BoldMT-6e" transform="translate(2178.857422 0)"/>
     <use xlink:href="#Arial-BoldMT-20" transform="translate(2239.941406 0)"/>
     <use xlink:href="#Arial-BoldMT-44" transform="translate(2267.724609 0)"/>
     <use xlink:href="#Arial-BoldMT-69" transform="translate(2339.941406 0)"/>
     <use xlink:href="#Arial-BoldMT-73" transform="translate(2367.724609 0)"/>
     <use xlink:href="#Arial-BoldMT-74" transform="translate(2423.339844 0)"/>
     <use xlink:href="#Arial-BoldMT-72" transform="translate(2456.640625 0)"/>
     <use xlink:href="#Arial-BoldMT-69" transform="translate(2495.556641 0)"/>
     <use xlink:href="#Arial-BoldMT-62" transform="translate(2523.339844 0)"/>
     <use xlink:href="#Arial-BoldMT-75" transform="translate(2584.423828 0)"/>
     <use xlink:href="#Arial-BoldMT-74" transform="translate(2645.507812 0)"/>
     <use xlink:href="#Arial-BoldMT-69" transform="translate(2678.808594 0)"/>
     <use xlink:href="#Arial-BoldMT-6f" transform="translate(2706.591797 0)"/>
     <use xlink:href="#Arial-BoldMT-6e" transform="translate(2767.675781 0)"/>
     <use xlink:href="#Arial-BoldMT-29" transform="translate(2828.759766 0)"/>
    </g>
   </g>
  </g>
 </g>
 <defs>
  <clipPath id="p69075b127e">
   <rect x="61.03125" y="30.58125" width="927.88875" height="495.91875"/>
  </clipPath>
 </defs>
</svg>
