<?xml version="1.0" encoding="utf-8" standalone="no"?>
<!DOCTYPE svg PUBLIC "-//W3C//DTD SVG 1.1//EN"
  "http://www.w3.org/Graphics/SVG/1.1/DTD/svg11.dtd">
<svg xmlns:xlink="http://www.w3.org/1999/xlink" width="1296pt" height="720pt" viewBox="0 0 1296 720" xmlns="http://www.w3.org/2000/svg" version="1.1">
 <metadata>
  <rdf:RDF xmlns:dc="http://purl.org/dc/elements/1.1/" xmlns:cc="http://creativecommons.org/ns#" xmlns:rdf="http://www.w3.org/1999/02/22-rdf-syntax-ns#">
   <cc:Work>
    <dc:type rdf:resource="http://purl.org/dc/dcmitype/StillImage"/>
    <dc:date>2025-02-09T09:12:51.080019</dc:date>
    <dc:format>image/svg+xml</dc:format>
    <dc:creator>
     <cc:Agent>
      <dc:title>Matplotlib v3.10.0, https://matplotlib.org/</dc:title>
     </cc:Agent>
    </dc:creator>
   </cc:Work>
  </rdf:RDF>
 </metadata>
 <defs>
  <style type="text/css">*{stroke-linejoin: round; stroke-linecap: butt}</style>
 </defs>
 <g id="figure_1">
  <g id="patch_1">
   <path d="M 0 720 
L 1296 720 
L 1296 0 
L 0 0 
z
" style="fill: #ffffff"/>
  </g>
  <g id="axes_1">
   <g id="patch_2">
    <path d="M 64.965088 609.792789 
L 1283.04 609.792789 
L 1283.04 32.64 
L 64.965088 32.64 
z
" style="fill: #ffffff"/>
   </g>
   <g id="matplotlib.axis_1">
    <g id="xtick_1">
     <g id="line2d_1">
      <path d="M 151.970439 609.792789 
L 151.970439 32.64 
" clip-path="url(#p38db49a5cb)" style="fill: none; stroke-dasharray: 3.7,1.6; stroke-dashoffset: 0; stroke: #cccccc; stroke-opacity: 0.5"/>
     </g>
     <g id="text_1">
      <!-- celeba-gender -->
      <g style="fill: #262626" transform="translate(123.714452 686.935066) rotate(-45) scale(0.12 -0.12)">
       <defs>
        <path id="DejaVuSans-63" d="M 3122 3366 
L 3122 2828 
Q 2878 2963 2633 3030 
Q 2388 3097 2138 3097 
Q 1578 3097 1268 2742 
Q 959 2388 959 1747 
Q 959 1106 1268 751 
Q 1578 397 2138 397 
Q 2388 397 2633 464 
Q 2878 531 3122 666 
L 3122 134 
Q 2881 22 2623 -34 
Q 2366 -91 2075 -91 
Q 1284 -91 818 406 
Q 353 903 353 1747 
Q 353 2603 823 3093 
Q 1294 3584 2113 3584 
Q 2378 3584 2631 3529 
Q 2884 3475 3122 3366 
z
" transform="scale(0.015625)"/>
        <path id="DejaVuSans-65" d="M 3597 1894 
L 3597 1613 
L 953 1613 
Q 991 1019 1311 708 
Q 1631 397 2203 397 
Q 2534 397 2845 478 
Q 3156 559 3463 722 
L 3463 178 
Q 3153 47 2828 -22 
Q 2503 -91 2169 -91 
Q 1331 -91 842 396 
Q 353 884 353 1716 
Q 353 2575 817 3079 
Q 1281 3584 2069 3584 
Q 2775 3584 3186 3129 
Q 3597 2675 3597 1894 
z
M 3022 2063 
Q 3016 2534 2758 2815 
Q 2500 3097 2075 3097 
Q 1594 3097 1305 2825 
Q 1016 2553 972 2059 
L 3022 2063 
z
" transform="scale(0.015625)"/>
        <path id="DejaVuSans-6c" d="M 603 4863 
L 1178 4863 
L 1178 0 
L 603 0 
L 603 4863 
z
" transform="scale(0.015625)"/>
        <path id="DejaVuSans-62" d="M 3116 1747 
Q 3116 2381 2855 2742 
Q 2594 3103 2138 3103 
Q 1681 3103 1420 2742 
Q 1159 2381 1159 1747 
Q 1159 1113 1420 752 
Q 1681 391 2138 391 
Q 2594 391 2855 752 
Q 3116 1113 3116 1747 
z
M 1159 2969 
Q 1341 3281 1617 3432 
Q 1894 3584 2278 3584 
Q 2916 3584 3314 3078 
Q 3713 2572 3713 1747 
Q 3713 922 3314 415 
Q 2916 -91 2278 -91 
Q 1894 -91 1617 61 
Q 1341 213 1159 525 
L 1159 0 
L 581 0 
L 581 4863 
L 1159 4863 
L 1159 2969 
z
" transform="scale(0.015625)"/>
        <path id="DejaVuSans-61" d="M 2194 1759 
Q 1497 1759 1228 1600 
Q 959 1441 959 1056 
Q 959 750 1161 570 
Q 1363 391 1709 391 
Q 2188 391 2477 730 
Q 2766 1069 2766 1631 
L 2766 1759 
L 2194 1759 
z
M 3341 1997 
L 3341 0 
L 2766 0 
L 2766 531 
Q 2569 213 2275 61 
Q 1981 -91 1556 -91 
Q 1019 -91 701 211 
Q 384 513 384 1019 
Q 384 1609 779 1909 
Q 1175 2209 1959 2209 
L 2766 2209 
L 2766 2266 
Q 2766 2663 2505 2880 
Q 2244 3097 1772 3097 
Q 1472 3097 1187 3025 
Q 903 2953 641 2809 
L 641 3341 
Q 956 3463 1253 3523 
Q 1550 3584 1831 3584 
Q 2591 3584 2966 3190 
Q 3341 2797 3341 1997 
z
" transform="scale(0.015625)"/>
        <path id="DejaVuSans-2d" d="M 313 2009 
L 1997 2009 
L 1997 1497 
L 313 1497 
L 313 2009 
z
" transform="scale(0.015625)"/>
        <path id="DejaVuSans-67" d="M 2906 1791 
Q 2906 2416 2648 2759 
Q 2391 3103 1925 3103 
Q 1463 3103 1205 2759 
Q 947 2416 947 1791 
Q 947 1169 1205 825 
Q 1463 481 1925 481 
Q 2391 481 2648 825 
Q 2906 1169 2906 1791 
z
M 3481 434 
Q 3481 -459 3084 -895 
Q 2688 -1331 1869 -1331 
Q 1566 -1331 1297 -1286 
Q 1028 -1241 775 -1147 
L 775 -588 
Q 1028 -725 1275 -790 
Q 1522 -856 1778 -856 
Q 2344 -856 2625 -561 
Q 2906 -266 2906 331 
L 2906 616 
Q 2728 306 2450 153 
Q 2172 0 1784 0 
Q 1141 0 747 490 
Q 353 981 353 1791 
Q 353 2603 747 3093 
Q 1141 3584 1784 3584 
Q 2172 3584 2450 3431 
Q 2728 3278 2906 2969 
L 2906 3500 
L 3481 3500 
L 3481 434 
z
" transform="scale(0.015625)"/>
        <path id="DejaVuSans-6e" d="M 3513 2113 
L 3513 0 
L 2938 0 
L 2938 2094 
Q 2938 2591 2744 2837 
Q 2550 3084 2163 3084 
Q 1697 3084 1428 2787 
Q 1159 2491 1159 1978 
L 1159 0 
L 581 0 
L 581 3500 
L 1159 3500 
L 1159 2956 
Q 1366 3272 1645 3428 
Q 1925 3584 2291 3584 
Q 2894 3584 3203 3211 
Q 3513 2838 3513 2113 
z
" transform="scale(0.015625)"/>
        <path id="DejaVuSans-64" d="M 2906 2969 
L 2906 4863 
L 3481 4863 
L 3481 0 
L 2906 0 
L 2906 525 
Q 2725 213 2448 61 
Q 2172 -91 1784 -91 
Q 1150 -91 751 415 
Q 353 922 353 1747 
Q 353 2572 751 3078 
Q 1150 3584 1784 3584 
Q 2172 3584 2448 3432 
Q 2725 3281 2906 2969 
z
M 947 1747 
Q 947 1113 1208 752 
Q 1469 391 1925 391 
Q 2381 391 2643 752 
Q 2906 1113 2906 1747 
Q 2906 2381 2643 2742 
Q 2381 3103 1925 3103 
Q 1469 3103 1208 2742 
Q 947 2381 947 1747 
z
" transform="scale(0.015625)"/>
        <path id="DejaVuSans-72" d="M 2631 2963 
Q 2534 3019 2420 3045 
Q 2306 3072 2169 3072 
Q 1681 3072 1420 2755 
Q 1159 2438 1159 1844 
L 1159 0 
L 581 0 
L 581 3500 
L 1159 3500 
L 1159 2956 
Q 1341 3275 1631 3429 
Q 1922 3584 2338 3584 
Q 2397 3584 2469 3576 
Q 2541 3569 2628 3553 
L 2631 2963 
z
" transform="scale(0.015625)"/>
       </defs>
       <use xlink:href="#DejaVuSans-63"/>
       <use xlink:href="#DejaVuSans-65" transform="translate(54.980469 0)"/>
       <use xlink:href="#DejaVuSans-6c" transform="translate(116.503906 0)"/>
       <use xlink:href="#DejaVuSans-65" transform="translate(144.287109 0)"/>
       <use xlink:href="#DejaVuSans-62" transform="translate(205.810547 0)"/>
       <use xlink:href="#DejaVuSans-61" transform="translate(269.287109 0)"/>
       <use xlink:href="#DejaVuSans-2d" transform="translate(330.566406 0)"/>
       <use xlink:href="#DejaVuSans-67" transform="translate(366.650391 0)"/>
       <use xlink:href="#DejaVuSans-65" transform="translate(430.126953 0)"/>
       <use xlink:href="#DejaVuSans-6e" transform="translate(491.650391 0)"/>
       <use xlink:href="#DejaVuSans-64" transform="translate(555.029297 0)"/>
       <use xlink:href="#DejaVuSans-65" transform="translate(618.505859 0)"/>
       <use xlink:href="#DejaVuSans-72" transform="translate(680.029297 0)"/>
      </g>
     </g>
    </g>
    <g id="xtick_2">
     <g id="line2d_2">
      <path d="M 325.981141 609.792789 
L 325.981141 32.64 
" clip-path="url(#p38db49a5cb)" style="fill: none; stroke-dasharray: 3.7,1.6; stroke-dashoffset: 0; stroke: #cccccc; stroke-opacity: 0.5"/>
     </g>
     <g id="text_2">
      <!-- cifar-10 -->
      <g style="fill: #262626" transform="translate(312.314535 657.756304) rotate(-45) scale(0.12 -0.12)">
       <defs>
        <path id="DejaVuSans-69" d="M 603 3500 
L 1178 3500 
L 1178 0 
L 603 0 
L 603 3500 
z
M 603 4863 
L 1178 4863 
L 1178 4134 
L 603 4134 
L 603 4863 
z
" transform="scale(0.015625)"/>
        <path id="DejaVuSans-66" d="M 2375 4863 
L 2375 4384 
L 1825 4384 
Q 1516 4384 1395 4259 
Q 1275 4134 1275 3809 
L 1275 3500 
L 2222 3500 
L 2222 3053 
L 1275 3053 
L 1275 0 
L 697 0 
L 697 3053 
L 147 3053 
L 147 3500 
L 697 3500 
L 697 3744 
Q 697 4328 969 4595 
Q 1241 4863 1831 4863 
L 2375 4863 
z
" transform="scale(0.015625)"/>
        <path id="DejaVuSans-31" d="M 794 531 
L 1825 531 
L 1825 4091 
L 703 3866 
L 703 4441 
L 1819 4666 
L 2450 4666 
L 2450 531 
L 3481 531 
L 3481 0 
L 794 0 
L 794 531 
z
" transform="scale(0.015625)"/>
        <path id="DejaVuSans-30" d="M 2034 4250 
Q 1547 4250 1301 3770 
Q 1056 3291 1056 2328 
Q 1056 1369 1301 889 
Q 1547 409 2034 409 
Q 2525 409 2770 889 
Q 3016 1369 3016 2328 
Q 3016 3291 2770 3770 
Q 2525 4250 2034 4250 
z
M 2034 4750 
Q 2819 4750 3233 4129 
Q 3647 3509 3647 2328 
Q 3647 1150 3233 529 
Q 2819 -91 2034 -91 
Q 1250 -91 836 529 
Q 422 1150 422 2328 
Q 422 3509 836 4129 
Q 1250 4750 2034 4750 
z
" transform="scale(0.015625)"/>
       </defs>
       <use xlink:href="#DejaVuSans-63"/>
       <use xlink:href="#DejaVuSans-69" transform="translate(54.980469 0)"/>
       <use xlink:href="#DejaVuSans-66" transform="translate(82.763672 0)"/>
       <use xlink:href="#DejaVuSans-61" transform="translate(117.96875 0)"/>
       <use xlink:href="#DejaVuSans-72" transform="translate(179.248047 0)"/>
       <use xlink:href="#DejaVuSans-2d" transform="translate(213.986328 0)"/>
       <use xlink:href="#DejaVuSans-31" transform="translate(250.070312 0)"/>
       <use xlink:href="#DejaVuSans-30" transform="translate(313.693359 0)"/>
      </g>
     </g>
    </g>
    <g id="xtick_3">
     <g id="line2d_3">
      <path d="M 499.991843 609.792789 
L 499.991843 32.64 
" clip-path="url(#p38db49a5cb)" style="fill: none; stroke-dasharray: 3.7,1.6; stroke-dashoffset: 0; stroke: #cccccc; stroke-opacity: 0.5"/>
     </g>
     <g id="text_3">
      <!-- cifar-100 -->
      <g style="fill: #262626" transform="translate(483.625856 663.155065) rotate(-45) scale(0.12 -0.12)">
       <use xlink:href="#DejaVuSans-63"/>
       <use xlink:href="#DejaVuSans-69" transform="translate(54.980469 0)"/>
       <use xlink:href="#DejaVuSans-66" transform="translate(82.763672 0)"/>
       <use xlink:href="#DejaVuSans-61" transform="translate(117.96875 0)"/>
       <use xlink:href="#DejaVuSans-72" transform="translate(179.248047 0)"/>
       <use xlink:href="#DejaVuSans-2d" transform="translate(213.986328 0)"/>
       <use xlink:href="#DejaVuSans-31" transform="translate(250.070312 0)"/>
       <use xlink:href="#DejaVuSans-30" transform="translate(313.693359 0)"/>
       <use xlink:href="#DejaVuSans-30" transform="translate(377.316406 0)"/>
      </g>
     </g>
    </g>
    <g id="xtick_4">
     <g id="line2d_4">
      <path d="M 674.002544 609.792789 
L 674.002544 32.64 
" clip-path="url(#p38db49a5cb)" style="fill: none; stroke-dasharray: 3.7,1.6; stroke-dashoffset: 0; stroke: #cccccc; stroke-opacity: 0.5"/>
     </g>
     <g id="text_4">
      <!-- imagenette -->
      <g style="fill: #262626" transform="translate(651.89242 674.64334) rotate(-45) scale(0.12 -0.12)">
       <defs>
        <path id="DejaVuSans-6d" d="M 3328 2828 
Q 3544 3216 3844 3400 
Q 4144 3584 4550 3584 
Q 5097 3584 5394 3201 
Q 5691 2819 5691 2113 
L 5691 0 
L 5113 0 
L 5113 2094 
Q 5113 2597 4934 2840 
Q 4756 3084 4391 3084 
Q 3944 3084 3684 2787 
Q 3425 2491 3425 1978 
L 3425 0 
L 2847 0 
L 2847 2094 
Q 2847 2600 2669 2842 
Q 2491 3084 2119 3084 
Q 1678 3084 1418 2786 
Q 1159 2488 1159 1978 
L 1159 0 
L 581 0 
L 581 3500 
L 1159 3500 
L 1159 2956 
Q 1356 3278 1631 3431 
Q 1906 3584 2284 3584 
Q 2666 3584 2933 3390 
Q 3200 3197 3328 2828 
z
" transform="scale(0.015625)"/>
        <path id="DejaVuSans-74" d="M 1172 4494 
L 1172 3500 
L 2356 3500 
L 2356 3053 
L 1172 3053 
L 1172 1153 
Q 1172 725 1289 603 
Q 1406 481 1766 481 
L 2356 481 
L 2356 0 
L 1766 0 
Q 1100 0 847 248 
Q 594 497 594 1153 
L 594 3053 
L 172 3053 
L 172 3500 
L 594 3500 
L 594 4494 
L 1172 4494 
z
" transform="scale(0.015625)"/>
       </defs>
       <use xlink:href="#DejaVuSans-69"/>
       <use xlink:href="#DejaVuSans-6d" transform="translate(27.783203 0)"/>
       <use xlink:href="#DejaVuSans-61" transform="translate(125.195312 0)"/>
       <use xlink:href="#DejaVuSans-67" transform="translate(186.474609 0)"/>
       <use xlink:href="#DejaVuSans-65" transform="translate(249.951172 0)"/>
       <use xlink:href="#DejaVuSans-6e" transform="translate(311.474609 0)"/>
       <use xlink:href="#DejaVuSans-65" transform="translate(374.853516 0)"/>
       <use xlink:href="#DejaVuSans-74" transform="translate(436.376953 0)"/>
       <use xlink:href="#DejaVuSans-74" transform="translate(475.585938 0)"/>
       <use xlink:href="#DejaVuSans-65" transform="translate(514.794922 0)"/>
      </g>
     </g>
    </g>
    <g id="xtick_5">
     <g id="line2d_5">
      <path d="M 848.013246 609.792789 
L 848.013246 32.64 
" clip-path="url(#p38db49a5cb)" style="fill: none; stroke-dasharray: 3.7,1.6; stroke-dashoffset: 0; stroke: #cccccc; stroke-opacity: 0.5"/>
     </g>
     <g id="text_5">
      <!-- mnist -->
      <g style="fill: #262626" transform="translate(838.481226 649.487132) rotate(-45) scale(0.12 -0.12)">
       <defs>
        <path id="DejaVuSans-73" d="M 2834 3397 
L 2834 2853 
Q 2591 2978 2328 3040 
Q 2066 3103 1784 3103 
Q 1356 3103 1142 2972 
Q 928 2841 928 2578 
Q 928 2378 1081 2264 
Q 1234 2150 1697 2047 
L 1894 2003 
Q 2506 1872 2764 1633 
Q 3022 1394 3022 966 
Q 3022 478 2636 193 
Q 2250 -91 1575 -91 
Q 1294 -91 989 -36 
Q 684 19 347 128 
L 347 722 
Q 666 556 975 473 
Q 1284 391 1588 391 
Q 1994 391 2212 530 
Q 2431 669 2431 922 
Q 2431 1156 2273 1281 
Q 2116 1406 1581 1522 
L 1381 1569 
Q 847 1681 609 1914 
Q 372 2147 372 2553 
Q 372 3047 722 3315 
Q 1072 3584 1716 3584 
Q 2034 3584 2315 3537 
Q 2597 3491 2834 3397 
z
" transform="scale(0.015625)"/>
       </defs>
       <use xlink:href="#DejaVuSans-6d"/>
       <use xlink:href="#DejaVuSans-6e" transform="translate(97.412109 0)"/>
       <use xlink:href="#DejaVuSans-69" transform="translate(160.791016 0)"/>
       <use xlink:href="#DejaVuSans-73" transform="translate(188.574219 0)"/>
       <use xlink:href="#DejaVuSans-74" transform="translate(240.673828 0)"/>
      </g>
     </g>
    </g>
    <g id="xtick_6">
     <g id="line2d_6">
      <path d="M 1022.023948 609.792789 
L 1022.023948 32.64 
" clip-path="url(#p38db49a5cb)" style="fill: none; stroke-dasharray: 3.7,1.6; stroke-dashoffset: 0; stroke: #cccccc; stroke-opacity: 0.5"/>
     </g>
     <g id="text_6">
      <!-- places365 -->
      <g style="fill: #262626" transform="translate(1002.641709 669.187569) rotate(-45) scale(0.12 -0.12)">
       <defs>
        <path id="DejaVuSans-70" d="M 1159 525 
L 1159 -1331 
L 581 -1331 
L 581 3500 
L 1159 3500 
L 1159 2969 
Q 1341 3281 1617 3432 
Q 1894 3584 2278 3584 
Q 2916 3584 3314 3078 
Q 3713 2572 3713 1747 
Q 3713 922 3314 415 
Q 2916 -91 2278 -91 
Q 1894 -91 1617 61 
Q 1341 213 1159 525 
z
M 3116 1747 
Q 3116 2381 2855 2742 
Q 2594 3103 2138 3103 
Q 1681 3103 1420 2742 
Q 1159 2381 1159 1747 
Q 1159 1113 1420 752 
Q 1681 391 2138 391 
Q 2594 391 2855 752 
Q 3116 1113 3116 1747 
z
" transform="scale(0.015625)"/>
        <path id="DejaVuSans-33" d="M 2597 2516 
Q 3050 2419 3304 2112 
Q 3559 1806 3559 1356 
Q 3559 666 3084 287 
Q 2609 -91 1734 -91 
Q 1441 -91 1130 -33 
Q 819 25 488 141 
L 488 750 
Q 750 597 1062 519 
Q 1375 441 1716 441 
Q 2309 441 2620 675 
Q 2931 909 2931 1356 
Q 2931 1769 2642 2001 
Q 2353 2234 1838 2234 
L 1294 2234 
L 1294 2753 
L 1863 2753 
Q 2328 2753 2575 2939 
Q 2822 3125 2822 3475 
Q 2822 3834 2567 4026 
Q 2313 4219 1838 4219 
Q 1578 4219 1281 4162 
Q 984 4106 628 3988 
L 628 4550 
Q 988 4650 1302 4700 
Q 1616 4750 1894 4750 
Q 2613 4750 3031 4423 
Q 3450 4097 3450 3541 
Q 3450 3153 3228 2886 
Q 3006 2619 2597 2516 
z
" transform="scale(0.015625)"/>
        <path id="DejaVuSans-36" d="M 2113 2584 
Q 1688 2584 1439 2293 
Q 1191 2003 1191 1497 
Q 1191 994 1439 701 
Q 1688 409 2113 409 
Q 2538 409 2786 701 
Q 3034 994 3034 1497 
Q 3034 2003 2786 2293 
Q 2538 2584 2113 2584 
z
M 3366 4563 
L 3366 3988 
Q 3128 4100 2886 4159 
Q 2644 4219 2406 4219 
Q 1781 4219 1451 3797 
Q 1122 3375 1075 2522 
Q 1259 2794 1537 2939 
Q 1816 3084 2150 3084 
Q 2853 3084 3261 2657 
Q 3669 2231 3669 1497 
Q 3669 778 3244 343 
Q 2819 -91 2113 -91 
Q 1303 -91 875 529 
Q 447 1150 447 2328 
Q 447 3434 972 4092 
Q 1497 4750 2381 4750 
Q 2619 4750 2861 4703 
Q 3103 4656 3366 4563 
z
" transform="scale(0.015625)"/>
        <path id="DejaVuSans-35" d="M 691 4666 
L 3169 4666 
L 3169 4134 
L 1269 4134 
L 1269 2991 
Q 1406 3038 1543 3061 
Q 1681 3084 1819 3084 
Q 2600 3084 3056 2656 
Q 3513 2228 3513 1497 
Q 3513 744 3044 326 
Q 2575 -91 1722 -91 
Q 1428 -91 1123 -41 
Q 819 9 494 109 
L 494 744 
Q 775 591 1075 516 
Q 1375 441 1709 441 
Q 2250 441 2565 725 
Q 2881 1009 2881 1497 
Q 2881 1984 2565 2268 
Q 2250 2553 1709 2553 
Q 1456 2553 1204 2497 
Q 953 2441 691 2322 
L 691 4666 
z
" transform="scale(0.015625)"/>
       </defs>
       <use xlink:href="#DejaVuSans-70"/>
       <use xlink:href="#DejaVuSans-6c" transform="translate(63.476562 0)"/>
       <use xlink:href="#DejaVuSans-61" transform="translate(91.259766 0)"/>
       <use xlink:href="#DejaVuSans-63" transform="translate(152.539062 0)"/>
       <use xlink:href="#DejaVuSans-65" transform="translate(207.519531 0)"/>
       <use xlink:href="#DejaVuSans-73" transform="translate(269.042969 0)"/>
       <use xlink:href="#DejaVuSans-33" transform="translate(321.142578 0)"/>
       <use xlink:href="#DejaVuSans-36" transform="translate(384.765625 0)"/>
       <use xlink:href="#DejaVuSans-35" transform="translate(448.388672 0)"/>
      </g>
     </g>
    </g>
    <g id="xtick_7">
     <g id="line2d_7">
      <path d="M 1196.034649 609.792789 
L 1196.034649 32.64 
" clip-path="url(#p38db49a5cb)" style="fill: none; stroke-dasharray: 3.7,1.6; stroke-dashoffset: 0; stroke: #cccccc; stroke-opacity: 0.5"/>
     </g>
     <g id="text_7">
      <!-- svhn -->
      <g style="fill: #262626" transform="translate(1188.277246 645.937898) rotate(-45) scale(0.12 -0.12)">
       <defs>
        <path id="DejaVuSans-76" d="M 191 3500 
L 800 3500 
L 1894 563 
L 2988 3500 
L 3597 3500 
L 2284 0 
L 1503 0 
L 191 3500 
z
" transform="scale(0.015625)"/>
        <path id="DejaVuSans-68" d="M 3513 2113 
L 3513 0 
L 2938 0 
L 2938 2094 
Q 2938 2591 2744 2837 
Q 2550 3084 2163 3084 
Q 1697 3084 1428 2787 
Q 1159 2491 1159 1978 
L 1159 0 
L 581 0 
L 581 4863 
L 1159 4863 
L 1159 2956 
Q 1366 3272 1645 3428 
Q 1925 3584 2291 3584 
Q 2894 3584 3203 3211 
Q 3513 2838 3513 2113 
z
" transform="scale(0.015625)"/>
       </defs>
       <use xlink:href="#DejaVuSans-73"/>
       <use xlink:href="#DejaVuSans-76" transform="translate(52.099609 0)"/>
       <use xlink:href="#DejaVuSans-68" transform="translate(111.279297 0)"/>
       <use xlink:href="#DejaVuSans-6e" transform="translate(174.658203 0)"/>
      </g>
     </g>
    </g>
    <g id="text_8">
     <!-- Dataset -->
     <g style="fill: #262626" transform="translate(646.590982 703.337552) scale(0.14 -0.14)">
      <defs>
       <path id="DejaVuSans-44" d="M 1259 4147 
L 1259 519 
L 2022 519 
Q 2988 519 3436 956 
Q 3884 1394 3884 2338 
Q 3884 3275 3436 3711 
Q 2988 4147 2022 4147 
L 1259 4147 
z
M 628 4666 
L 1925 4666 
Q 3281 4666 3915 4102 
Q 4550 3538 4550 2338 
Q 4550 1131 3912 565 
Q 3275 0 1925 0 
L 628 0 
L 628 4666 
z
" transform="scale(0.015625)"/>
      </defs>
      <use xlink:href="#DejaVuSans-44"/>
      <use xlink:href="#DejaVuSans-61" transform="translate(77.001953 0)"/>
      <use xlink:href="#DejaVuSans-74" transform="translate(138.28125 0)"/>
      <use xlink:href="#DejaVuSans-61" transform="translate(177.490234 0)"/>
      <use xlink:href="#DejaVuSans-73" transform="translate(238.769531 0)"/>
      <use xlink:href="#DejaVuSans-65" transform="translate(290.869141 0)"/>
      <use xlink:href="#DejaVuSans-74" transform="translate(352.392578 0)"/>
     </g>
    </g>
   </g>
   <g id="matplotlib.axis_2">
    <g id="ytick_1">
     <g id="line2d_8">
      <path d="M 64.965088 585.172962 
L 1283.04 585.172962 
" clip-path="url(#p38db49a5cb)" style="fill: none; stroke-dasharray: 3.7,1.6; stroke-dashoffset: 0; stroke: #cccccc; stroke-opacity: 0.5"/>
     </g>
     <g id="text_9">
      <!-- $\mathdefault{10^{8}}$ -->
      <g style="fill: #262626" transform="translate(36.105088 589.352103) scale(0.11 -0.11)">
       <defs>
        <path id="DejaVuSans-38" d="M 2034 2216 
Q 1584 2216 1326 1975 
Q 1069 1734 1069 1313 
Q 1069 891 1326 650 
Q 1584 409 2034 409 
Q 2484 409 2743 651 
Q 3003 894 3003 1313 
Q 3003 1734 2745 1975 
Q 2488 2216 2034 2216 
z
M 1403 2484 
Q 997 2584 770 2862 
Q 544 3141 544 3541 
Q 544 4100 942 4425 
Q 1341 4750 2034 4750 
Q 2731 4750 3128 4425 
Q 3525 4100 3525 3541 
Q 3525 3141 3298 2862 
Q 3072 2584 2669 2484 
Q 3125 2378 3379 2068 
Q 3634 1759 3634 1313 
Q 3634 634 3220 271 
Q 2806 -91 2034 -91 
Q 1263 -91 848 271 
Q 434 634 434 1313 
Q 434 1759 690 2068 
Q 947 2378 1403 2484 
z
M 1172 3481 
Q 1172 3119 1398 2916 
Q 1625 2713 2034 2713 
Q 2441 2713 2670 2916 
Q 2900 3119 2900 3481 
Q 2900 3844 2670 4047 
Q 2441 4250 2034 4250 
Q 1625 4250 1398 4047 
Q 1172 3844 1172 3481 
z
" transform="scale(0.015625)"/>
       </defs>
       <use xlink:href="#DejaVuSans-31" transform="translate(0 0.765625)"/>
       <use xlink:href="#DejaVuSans-30" transform="translate(63.623047 0.765625)"/>
       <use xlink:href="#DejaVuSans-38" transform="translate(128.203125 39.046875) scale(0.7)"/>
      </g>
     </g>
    </g>
    <g id="ytick_2">
     <g id="line2d_9">
      <path d="M 64.965088 462.565507 
L 1283.04 462.565507 
" clip-path="url(#p38db49a5cb)" style="fill: none; stroke-dasharray: 3.7,1.6; stroke-dashoffset: 0; stroke: #cccccc; stroke-opacity: 0.5"/>
     </g>
     <g id="text_10">
      <!-- $\mathdefault{10^{9}}$ -->
      <g style="fill: #262626" transform="translate(36.105088 466.744647) scale(0.11 -0.11)">
       <defs>
        <path id="DejaVuSans-39" d="M 703 97 
L 703 672 
Q 941 559 1184 500 
Q 1428 441 1663 441 
Q 2288 441 2617 861 
Q 2947 1281 2994 2138 
Q 2813 1869 2534 1725 
Q 2256 1581 1919 1581 
Q 1219 1581 811 2004 
Q 403 2428 403 3163 
Q 403 3881 828 4315 
Q 1253 4750 1959 4750 
Q 2769 4750 3195 4129 
Q 3622 3509 3622 2328 
Q 3622 1225 3098 567 
Q 2575 -91 1691 -91 
Q 1453 -91 1209 -44 
Q 966 3 703 97 
z
M 1959 2075 
Q 2384 2075 2632 2365 
Q 2881 2656 2881 3163 
Q 2881 3666 2632 3958 
Q 2384 4250 1959 4250 
Q 1534 4250 1286 3958 
Q 1038 3666 1038 3163 
Q 1038 2656 1286 2365 
Q 1534 2075 1959 2075 
z
" transform="scale(0.015625)"/>
       </defs>
       <use xlink:href="#DejaVuSans-31" transform="translate(0 0.765625)"/>
       <use xlink:href="#DejaVuSans-30" transform="translate(63.623047 0.765625)"/>
       <use xlink:href="#DejaVuSans-39" transform="translate(128.203125 39.046875) scale(0.7)"/>
      </g>
     </g>
    </g>
    <g id="ytick_3">
     <g id="line2d_10">
      <path d="M 64.965088 339.958052 
L 1283.04 339.958052 
" clip-path="url(#p38db49a5cb)" style="fill: none; stroke-dasharray: 3.7,1.6; stroke-dashoffset: 0; stroke: #cccccc; stroke-opacity: 0.5"/>
     </g>
     <g id="text_11">
      <!-- $\mathdefault{10^{10}}$ -->
      <g style="fill: #262626" transform="translate(31.155088 344.137192) scale(0.11 -0.11)">
       <use xlink:href="#DejaVuSans-31" transform="translate(0 0.765625)"/>
       <use xlink:href="#DejaVuSans-30" transform="translate(63.623047 0.765625)"/>
       <use xlink:href="#DejaVuSans-31" transform="translate(128.203125 39.046875) scale(0.7)"/>
       <use xlink:href="#DejaVuSans-30" transform="translate(172.739258 39.046875) scale(0.7)"/>
      </g>
     </g>
    </g>
    <g id="ytick_4">
     <g id="line2d_11">
      <path d="M 64.965088 217.350597 
L 1283.04 217.350597 
" clip-path="url(#p38db49a5cb)" style="fill: none; stroke-dasharray: 3.7,1.6; stroke-dashoffset: 0; stroke: #cccccc; stroke-opacity: 0.5"/>
     </g>
     <g id="text_12">
      <!-- $\mathdefault{10^{11}}$ -->
      <g style="fill: #262626" transform="translate(31.155088 221.529737) scale(0.11 -0.11)">
       <use xlink:href="#DejaVuSans-31" transform="translate(0 0.684375)"/>
       <use xlink:href="#DejaVuSans-30" transform="translate(63.623047 0.684375)"/>
       <use xlink:href="#DejaVuSans-31" transform="translate(128.203125 38.965625) scale(0.7)"/>
       <use xlink:href="#DejaVuSans-31" transform="translate(172.739258 38.965625) scale(0.7)"/>
      </g>
     </g>
    </g>
    <g id="ytick_5">
     <g id="line2d_12">
      <path d="M 64.965088 94.743142 
L 1283.04 94.743142 
" clip-path="url(#p38db49a5cb)" style="fill: none; stroke-dasharray: 3.7,1.6; stroke-dashoffset: 0; stroke: #cccccc; stroke-opacity: 0.5"/>
     </g>
     <g id="text_13">
      <!-- $\mathdefault{10^{12}}$ -->
      <g style="fill: #262626" transform="translate(31.155088 98.922282) scale(0.11 -0.11)">
       <defs>
        <path id="DejaVuSans-32" d="M 1228 531 
L 3431 531 
L 3431 0 
L 469 0 
L 469 531 
Q 828 903 1448 1529 
Q 2069 2156 2228 2338 
Q 2531 2678 2651 2914 
Q 2772 3150 2772 3378 
Q 2772 3750 2511 3984 
Q 2250 4219 1831 4219 
Q 1534 4219 1204 4116 
Q 875 4013 500 3803 
L 500 4441 
Q 881 4594 1212 4672 
Q 1544 4750 1819 4750 
Q 2544 4750 2975 4387 
Q 3406 4025 3406 3419 
Q 3406 3131 3298 2873 
Q 3191 2616 2906 2266 
Q 2828 2175 2409 1742 
Q 1991 1309 1228 531 
z
" transform="scale(0.015625)"/>
       </defs>
       <use xlink:href="#DejaVuSans-31" transform="translate(0 0.765625)"/>
       <use xlink:href="#DejaVuSans-30" transform="translate(63.623047 0.765625)"/>
       <use xlink:href="#DejaVuSans-31" transform="translate(128.203125 39.046875) scale(0.7)"/>
       <use xlink:href="#DejaVuSans-32" transform="translate(172.739258 39.046875) scale(0.7)"/>
      </g>
     </g>
    </g>
    <g id="ytick_6"/>
    <g id="ytick_7"/>
    <g id="ytick_8"/>
    <g id="ytick_9"/>
    <g id="ytick_10"/>
    <g id="ytick_11"/>
    <g id="ytick_12"/>
    <g id="ytick_13"/>
    <g id="ytick_14"/>
    <g id="ytick_15"/>
    <g id="ytick_16"/>
    <g id="ytick_17"/>
    <g id="ytick_18"/>
    <g id="ytick_19"/>
    <g id="ytick_20"/>
    <g id="ytick_21"/>
    <g id="ytick_22"/>
    <g id="ytick_23"/>
    <g id="ytick_24"/>
    <g id="ytick_25"/>
    <g id="ytick_26"/>
    <g id="ytick_27"/>
    <g id="ytick_28"/>
    <g id="ytick_29"/>
    <g id="ytick_30"/>
    <g id="ytick_31"/>
    <g id="ytick_32"/>
    <g id="ytick_33"/>
    <g id="ytick_34"/>
    <g id="ytick_35"/>
    <g id="ytick_36"/>
    <g id="ytick_37"/>
    <g id="ytick_38"/>
    <g id="ytick_39"/>
    <g id="ytick_40"/>
    <g id="ytick_41"/>
    <g id="ytick_42"/>
    <g id="text_14">
     <!-- Training Time (nanoseconds) -->
     <g style="fill: #262626" transform="translate(24.243526 421.928895) rotate(-90) scale(0.14 -0.14)">
      <defs>
       <path id="DejaVuSans-54" d="M -19 4666 
L 3928 4666 
L 3928 4134 
L 2272 4134 
L 2272 0 
L 1638 0 
L 1638 4134 
L -19 4134 
L -19 4666 
z
" transform="scale(0.015625)"/>
       <path id="DejaVuSans-20" transform="scale(0.015625)"/>
       <path id="DejaVuSans-28" d="M 1984 4856 
Q 1566 4138 1362 3434 
Q 1159 2731 1159 2009 
Q 1159 1288 1364 580 
Q 1569 -128 1984 -844 
L 1484 -844 
Q 1016 -109 783 600 
Q 550 1309 550 2009 
Q 550 2706 781 3412 
Q 1013 4119 1484 4856 
L 1984 4856 
z
" transform="scale(0.015625)"/>
       <path id="DejaVuSans-6f" d="M 1959 3097 
Q 1497 3097 1228 2736 
Q 959 2375 959 1747 
Q 959 1119 1226 758 
Q 1494 397 1959 397 
Q 2419 397 2687 759 
Q 2956 1122 2956 1747 
Q 2956 2369 2687 2733 
Q 2419 3097 1959 3097 
z
M 1959 3584 
Q 2709 3584 3137 3096 
Q 3566 2609 3566 1747 
Q 3566 888 3137 398 
Q 2709 -91 1959 -91 
Q 1206 -91 779 398 
Q 353 888 353 1747 
Q 353 2609 779 3096 
Q 1206 3584 1959 3584 
z
" transform="scale(0.015625)"/>
       <path id="DejaVuSans-29" d="M 513 4856 
L 1013 4856 
Q 1481 4119 1714 3412 
Q 1947 2706 1947 2009 
Q 1947 1309 1714 600 
Q 1481 -109 1013 -844 
L 513 -844 
Q 928 -128 1133 580 
Q 1338 1288 1338 2009 
Q 1338 2731 1133 3434 
Q 928 4138 513 4856 
z
" transform="scale(0.015625)"/>
      </defs>
      <use xlink:href="#DejaVuSans-54"/>
      <use xlink:href="#DejaVuSans-72" transform="translate(46.333984 0)"/>
      <use xlink:href="#DejaVuSans-61" transform="translate(87.447266 0)"/>
      <use xlink:href="#DejaVuSans-69" transform="translate(148.726562 0)"/>
      <use xlink:href="#DejaVuSans-6e" transform="translate(176.509766 0)"/>
      <use xlink:href="#DejaVuSans-69" transform="translate(239.888672 0)"/>
      <use xlink:href="#DejaVuSans-6e" transform="translate(267.671875 0)"/>
      <use xlink:href="#DejaVuSans-67" transform="translate(331.050781 0)"/>
      <use xlink:href="#DejaVuSans-20" transform="translate(394.527344 0)"/>
      <use xlink:href="#DejaVuSans-54" transform="translate(426.314453 0)"/>
      <use xlink:href="#DejaVuSans-69" transform="translate(484.273438 0)"/>
      <use xlink:href="#DejaVuSans-6d" transform="translate(512.056641 0)"/>
      <use xlink:href="#DejaVuSans-65" transform="translate(609.46875 0)"/>
      <use xlink:href="#DejaVuSans-20" transform="translate(670.992188 0)"/>
      <use xlink:href="#DejaVuSans-28" transform="translate(702.779297 0)"/>
      <use xlink:href="#DejaVuSans-6e" transform="translate(741.792969 0)"/>
      <use xlink:href="#DejaVuSans-61" transform="translate(805.171875 0)"/>
      <use xlink:href="#DejaVuSans-6e" transform="translate(866.451172 0)"/>
      <use xlink:href="#DejaVuSans-6f" transform="translate(929.830078 0)"/>
      <use xlink:href="#DejaVuSans-73" transform="translate(991.011719 0)"/>
      <use xlink:href="#DejaVuSans-65" transform="translate(1043.111328 0)"/>
      <use xlink:href="#DejaVuSans-63" transform="translate(1104.634766 0)"/>
      <use xlink:href="#DejaVuSans-6f" transform="translate(1159.615234 0)"/>
      <use xlink:href="#DejaVuSans-6e" transform="translate(1220.796875 0)"/>
      <use xlink:href="#DejaVuSans-64" transform="translate(1284.175781 0)"/>
      <use xlink:href="#DejaVuSans-73" transform="translate(1347.652344 0)"/>
      <use xlink:href="#DejaVuSans-29" transform="translate(1399.751953 0)"/>
     </g>
    </g>
   </g>
   <g id="FillBetweenPolyCollection_1">
    <path d="M 395.585422 124173.487659 
L 388.952312 124173.487659 
L 386.738534 124173.487659 
L 383.958003 124173.487659 
L 380.525952 124173.487659 
L 376.364033 124173.487659 
L 371.407175 124173.487659 
L 365.611223 124173.487659 
L 358.960844 124173.487659 
L 351.476976 124173.487659 
L 343.22301 124173.487659 
L 334.308843 124173.487659 
L 324.891992 517.476692 
L 315.17514 353.245733 
L 305.399761 317.569754 
L 295.835843 296.396923 
L 286.768153 281.28837 
L 278.479911 269.532799 
L 271.235107 259.908967 
L 265.260977 251.761145 
L 260.732231 244.696209 
L 257.758586 238.459796 
L 256.37686 232.877817 
L 256.548522 227.825875 
L 258.162987 223.211981 
L 261.046453 218.966194 
L 264.975433 215.034093 
L 269.693733 211.372499 
L 274.93127 207.946576 
L 280.42298 204.727812 
L 285.92615 201.692578 
L 291.234699 198.821068 
L 296.189341 196.09652 
L 300.683025 193.50462 
L 304.661533 191.033049 
L 308.119648 188.671129 
L 311.093651 186.409543 
L 313.651248 184.240111 
L 315.880169 182.155618 
L 317.876676 180.149662 
L 319.735132 178.216539 
L 321.539516 176.351145 
L 323.357493 174.548895 
L 325.237288 172.805652 
L 327.207271 171.117676 
L 329.277899 169.481569 
L 331.445393 167.894239 
L 333.696421 166.352861 
L 336.013051 164.85485 
L 338.377244 163.397831 
L 340.774375 161.979621 
L 343.195395 160.598206 
L 345.637544 159.251725 
L 348.103667 157.938454 
L 350.600422 156.656795 
L 353.135768 155.405262 
L 355.716183 154.18247 
L 358.344043 152.987129 
L 361.015559 151.818035 
L 363.719503 150.674058 
L 366.43688 149.554142 
L 369.141514 148.457296 
L 371.801441 147.382589 
L 374.380896 146.329144 
L 376.842635 145.296137 
L 379.15034 144.282789 
L 381.270861 143.288367 
L 383.176137 142.312176 
L 384.844656 141.35356 
L 386.262434 140.411896 
L 387.423494 139.486597 
L 388.329919 138.577103 
L 388.991523 137.682883 
L 389.425244 136.803432 
L 389.654295 135.93827 
L 389.707146 135.086942 
L 389.616357 134.24901 
L 389.417279 133.424061 
L 389.146667 132.611697 
L 388.841204 131.811541 
L 388.536002 131.023231 
L 388.263129 130.246422 
L 388.050253 129.480783 
L 387.919495 128.725996 
L 387.886576 127.98176 
L 387.960339 127.247782 
L 388.142703 126.523784 
L 388.429048 125.809499 
L 388.809011 125.104668 
L 389.267622 124.409045 
L 389.786674 123.722393 
L 390.346199 123.044483 
L 390.925931 122.375095 
L 391.506623 121.714017 
L 392.071136 121.061047 
L 392.605221 120.415987 
L 393.097984 119.778648 
L 393.542017 119.148847 
L 393.933272 118.526409 
L 394.270694 117.911162 
L 394.555717 117.302943 
L 395.585422 117.302943 
L 395.585422 117.302943 
L 395.585422 117.911162 
L 395.585422 118.526409 
L 395.585422 119.148847 
L 395.585422 119.778648 
L 395.585422 120.415987 
L 395.585422 121.061047 
L 395.585422 121.714017 
L 395.585422 122.375095 
L 395.585422 123.044483 
L 395.585422 123.722393 
L 395.585422 124.409045 
L 395.585422 125.104668 
L 395.585422 125.809499 
L 395.585422 126.523784 
L 395.585422 127.247782 
L 395.585422 127.98176 
L 395.585422 128.725996 
L 395.585422 129.480783 
L 395.585422 130.246422 
L 395.585422 131.023231 
L 395.585422 131.811541 
L 395.585422 132.611697 
L 395.585422 133.424061 
L 395.585422 134.24901 
L 395.585422 135.086942 
L 395.585422 135.93827 
L 395.585422 136.803432 
L 395.585422 137.682883 
L 395.585422 138.577103 
L 395.585422 139.486597 
L 395.585422 140.411896 
L 395.585422 141.35356 
L 395.585422 142.312176 
L 395.585422 143.288367 
L 395.585422 144.282789 
L 395.585422 145.296137 
L 395.585422 146.329144 
L 395.585422 147.382589 
L 395.585422 148.457296 
L 395.585422 149.554142 
L 395.585422 150.674058 
L 395.585422 151.818035 
L 395.585422 152.987129 
L 395.585422 154.18247 
L 395.585422 155.405262 
L 395.585422 156.656795 
L 395.585422 157.938454 
L 395.585422 159.251725 
L 395.585422 160.598206 
L 395.585422 161.979621 
L 395.585422 163.397831 
L 395.585422 164.85485 
L 395.585422 166.352861 
L 395.585422 167.894239 
L 395.585422 169.481569 
L 395.585422 171.117676 
L 395.585422 172.805652 
L 395.585422 174.548895 
L 395.585422 176.351145 
L 395.585422 178.216539 
L 395.585422 180.149662 
L 395.585422 182.155618 
L 395.585422 184.240111 
L 395.585422 186.409543 
L 395.585422 188.671129 
L 395.585422 191.033049 
L 395.585422 193.50462 
L 395.585422 196.09652 
L 395.585422 198.821068 
L 395.585422 201.692578 
L 395.585422 204.727812 
L 395.585422 207.946576 
L 395.585422 211.372499 
L 395.585422 215.034093 
L 395.585422 218.966194 
L 395.585422 223.211981 
L 395.585422 227.825875 
L 395.585422 232.877817 
L 395.585422 238.459796 
L 395.585422 244.696209 
L 395.585422 251.761145 
L 395.585422 259.908967 
L 395.585422 269.532799 
L 395.585422 281.28837 
L 395.585422 296.396923 
L 395.585422 317.569754 
L 395.585422 353.245733 
L 395.585422 517.476692 
L 395.585422 124173.487659 
L 395.585422 124173.487659 
L 395.585422 124173.487659 
L 395.585422 124173.487659 
L 395.585422 124173.487659 
L 395.585422 124173.487659 
L 395.585422 124173.487659 
L 395.585422 124173.487659 
L 395.585422 124173.487659 
L 395.585422 124173.487659 
L 395.585422 124173.487659 
z
" clip-path="url(#p38db49a5cb)" style="fill: #93c9de; stroke: #6f6f6f; stroke-width: 1.25"/>
   </g>
   <g id="FillBetweenPolyCollection_2">
    <path d="M 569.596123 124173.487659 
L 562.293958 124173.487659 
L 560.281691 124173.487659 
L 557.850028 124173.487659 
L 554.951202 124173.487659 
L 551.542534 124173.487659 
L 547.589536 124173.487659 
L 543.069153 124173.487659 
L 537.972945 124173.487659 
L 532.309926 124173.487659 
L 526.108828 124173.487659 
L 519.41949 124173.487659 
L 512.313161 124173.487659 
L 504.881544 124173.487659 
L 497.234486 374.282844 
L 489.496363 330.940685 
L 481.80127 307.367906 
L 474.287311 291.085161 
L 467.090318 278.632949 
L 460.33745 268.547889 
L 454.141136 260.07216 
L 448.593827 252.762127 
L 443.763967 246.335573 
L 439.693507 240.601789 
L 436.397129 235.425843 
L 433.863256 230.708751 
L 432.056708 226.375741 
L 430.922774 222.368948 
L 430.392331 218.642674 
L 430.387562 215.160196 
L 430.827819 211.891563 
L 431.635149 208.812024 
L 432.739095 205.900893 
L 434.080447 203.140701 
L 435.613727 200.516564 
L 437.308338 198.015699 
L 439.148391 195.62704 
L 441.131342 193.34095 
L 443.265655 191.148982 
L 445.567754 189.043691 
L 448.058556 187.018482 
L 450.759868 185.067485 
L 453.690942 183.185454 
L 456.865389 181.367678 
L 460.288662 179.609914 
L 463.95623 177.908326 
L 467.852519 176.259435 
L 471.950651 174.660074 
L 476.212963 173.107354 
L 480.592235 171.598632 
L 485.033547 170.131483 
L 489.476626 168.703677 
L 493.858548 167.313159 
L 498.116609 165.958031 
L 502.19123 164.636536 
L 506.02868 163.347046 
L 509.583503 162.088045 
L 512.820467 160.858127 
L 515.715961 159.655977 
L 518.258746 158.480369 
L 520.450052 157.330157 
L 522.30302 156.204266 
L 523.841576 155.101689 
L 525.098813 154.021481 
L 526.115022 152.962751 
L 526.935516 151.924662 
L 527.608381 150.906425 
L 528.182302 149.907294 
L 528.70457 148.926566 
L 529.219365 147.963575 
L 529.766365 147.017691 
L 530.379714 146.088317 
L 531.087334 145.174886 
L 531.910577 144.27686 
L 532.864145 143.393729 
L 533.956263 142.525006 
L 535.189026 141.670229 
L 536.5589 140.828957 
L 538.05731 140.00077 
L 539.671316 139.185267 
L 541.384322 138.382066 
L 543.176831 137.5908 
L 545.027213 136.811121 
L 546.912484 136.042693 
L 548.809081 135.285198 
L 550.693617 134.538327 
L 552.543601 133.801788 
L 554.338095 133.075297 
L 556.058294 132.358586 
L 557.688005 131.651393 
L 559.214003 130.95347 
L 560.626256 130.264576 
L 561.918013 129.584481 
L 563.085751 128.912963 
L 564.129003 128.249809 
L 565.050069 127.594811 
L 565.853644 126.947773 
L 566.546386 126.308504 
L 567.136454 125.676818 
L 567.633037 125.052538 
L 568.045912 124.435492 
L 569.596123 124.435492 
L 569.596123 124.435492 
L 569.596123 125.052538 
L 569.596123 125.676818 
L 569.596123 126.308504 
L 569.596123 126.947773 
L 569.596123 127.594811 
L 569.596123 128.249809 
L 569.596123 128.912963 
L 569.596123 129.584481 
L 569.596123 130.264576 
L 569.596123 130.95347 
L 569.596123 131.651393 
L 569.596123 132.358586 
L 569.596123 133.075297 
L 569.596123 133.801788 
L 569.596123 134.538327 
L 569.596123 135.285198 
L 569.596123 136.042693 
L 569.596123 136.811121 
L 569.596123 137.5908 
L 569.596123 138.382066 
L 569.596123 139.185267 
L 569.596123 140.00077 
L 569.596123 140.828957 
L 569.596123 141.670229 
L 569.596123 142.525006 
L 569.596123 143.393729 
L 569.596123 144.27686 
L 569.596123 145.174886 
L 569.596123 146.088317 
L 569.596123 147.017691 
L 569.596123 147.963575 
L 569.596123 148.926566 
L 569.596123 149.907294 
L 569.596123 150.906425 
L 569.596123 151.924662 
L 569.596123 152.962751 
L 569.596123 154.021481 
L 569.596123 155.101689 
L 569.596123 156.204266 
L 569.596123 157.330157 
L 569.596123 158.480369 
L 569.596123 159.655977 
L 569.596123 160.858127 
L 569.596123 162.088045 
L 569.596123 163.347046 
L 569.596123 164.636536 
L 569.596123 165.958031 
L 569.596123 167.313159 
L 569.596123 168.703677 
L 569.596123 170.131483 
L 569.596123 171.598632 
L 569.596123 173.107354 
L 569.596123 174.660074 
L 569.596123 176.259435 
L 569.596123 177.908326 
L 569.596123 179.609914 
L 569.596123 181.367678 
L 569.596123 183.185454 
L 569.596123 185.067485 
L 569.596123 187.018482 
L 569.596123 189.043691 
L 569.596123 191.148982 
L 569.596123 193.34095 
L 569.596123 195.62704 
L 569.596123 198.015699 
L 569.596123 200.516564 
L 569.596123 203.140701 
L 569.596123 205.900893 
L 569.596123 208.812024 
L 569.596123 211.891563 
L 569.596123 215.160196 
L 569.596123 218.642674 
L 569.596123 222.368948 
L 569.596123 226.375741 
L 569.596123 230.708751 
L 569.596123 235.425843 
L 569.596123 240.601789 
L 569.596123 246.335573 
L 569.596123 252.762127 
L 569.596123 260.07216 
L 569.596123 268.547889 
L 569.596123 278.632949 
L 569.596123 291.085161 
L 569.596123 307.367906 
L 569.596123 330.940685 
L 569.596123 374.282844 
L 569.596123 124173.487659 
L 569.596123 124173.487659 
L 569.596123 124173.487659 
L 569.596123 124173.487659 
L 569.596123 124173.487659 
L 569.596123 124173.487659 
L 569.596123 124173.487659 
L 569.596123 124173.487659 
L 569.596123 124173.487659 
L 569.596123 124173.487659 
L 569.596123 124173.487659 
L 569.596123 124173.487659 
L 569.596123 124173.487659 
z
" clip-path="url(#p38db49a5cb)" style="fill: #93c9de; stroke: #6f6f6f; stroke-width: 1.25"/>
   </g>
   <g id="FillBetweenPolyCollection_3">
    <path d="M 743.606825 124173.487659 
L 735.806851 124173.487659 
L 733.418129 124173.487659 
L 730.476268 124173.487659 
L 726.911219 124173.487659 
L 722.661237 124173.487659 
L 717.678585 124173.487659 
L 711.935619 124173.487659 
L 705.430769 124173.487659 
L 698.193897 124173.487659 
L 690.290384 583.558571 
L 681.823375 402.986699 
L 672.933633 366.982219 
L 663.796633 345.696909 
L 654.616753 330.53154 
L 645.61867 318.741693 
L 637.036379 309.094932 
L 629.100554 300.930693 
L 622.025168 293.853425 
L 615.994487 287.607406 
L 611.151563 282.017736 
L 607.58929 276.959494 
L 605.344874 272.340348 
L 604.398264 268.090114 
L 604.674723 264.1542 
L 606.051308 260.489298 
L 608.366647 257.060481 
L 611.433107 253.839163 
L 615.050222 250.801658 
L 619.018185 247.928115 
L 623.150256 245.201737 
L 627.28311 242.608181 
L 631.284421 240.135104 
L 635.057298 237.771809 
L 638.541524 235.508962 
L 641.711867 233.33837 
L 644.573965 231.252806 
L 647.15847 229.245859 
L 649.514197 227.311815 
L 651.701022 225.445563 
L 653.783148 223.642512 
L 655.823247 221.898521 
L 657.877797 220.209843 
L 659.993747 218.573076 
L 662.206509 216.985125 
L 664.539144 215.443162 
L 667.002543 213.944597 
L 669.596377 212.487055 
L 672.31057 211.06835 
L 675.127118 209.686465 
L 678.022085 208.339537 
L 680.96765 207.025841 
L 683.934137 205.743777 
L 686.89193 204.491858 
L 689.813229 203.268698 
L 692.673556 202.073005 
L 695.452944 200.903574 
L 698.136733 199.759275 
L 700.715902 198.63905 
L 703.186909 197.541908 
L 705.551046 196.466916 
L 707.813347 195.413198 
L 709.981183 194.379928 
L 712.062663 193.366327 
L 714.065052 192.371661 
L 715.993364 191.395235 
L 717.84933 190.436392 
L 719.630842 189.494511 
L 721.331973 188.569001 
L 722.943565 187.659302 
L 724.454309 186.764885 
L 725.852209 185.885244 
L 727.12623 185.019898 
L 728.267948 184.168391 
L 729.272986 183.330286 
L 730.142075 182.505169 
L 730.881608 181.692643 
L 731.503616 180.892329 
L 732.025176 180.103866 
L 732.467309 179.326908 
L 732.853495 178.561125 
L 733.207961 177.806198 
L 733.553925 177.061825 
L 733.911966 176.327714 
L 734.298684 175.603587 
L 734.725755 174.889176 
L 735.199454 174.184223 
L 735.720658 173.488481 
L 736.285286 172.801713 
L 736.885116 172.123689 
L 737.508841 171.454191 
L 738.143271 170.793006 
L 738.774538 170.139931 
L 739.389208 169.494768 
L 739.975201 168.857329 
L 740.522483 168.22743 
L 741.023485 167.604896 
L 741.473271 166.989557 
L 741.869478 166.381247 
L 742.212069 165.779808 
L 742.502967 165.185086 
L 743.606825 165.185086 
L 743.606825 165.185086 
L 743.606825 165.779808 
L 743.606825 166.381247 
L 743.606825 166.989557 
L 743.606825 167.604896 
L 743.606825 168.22743 
L 743.606825 168.857329 
L 743.606825 169.494768 
L 743.606825 170.139931 
L 743.606825 170.793006 
L 743.606825 171.454191 
L 743.606825 172.123689 
L 743.606825 172.801713 
L 743.606825 173.488481 
L 743.606825 174.184223 
L 743.606825 174.889176 
L 743.606825 175.603587 
L 743.606825 176.327714 
L 743.606825 177.061825 
L 743.606825 177.806198 
L 743.606825 178.561125 
L 743.606825 179.326908 
L 743.606825 180.103866 
L 743.606825 180.892329 
L 743.606825 181.692643 
L 743.606825 182.505169 
L 743.606825 183.330286 
L 743.606825 184.168391 
L 743.606825 185.019898 
L 743.606825 185.885244 
L 743.606825 186.764885 
L 743.606825 187.659302 
L 743.606825 188.569001 
L 743.606825 189.494511 
L 743.606825 190.436392 
L 743.606825 191.395235 
L 743.606825 192.371661 
L 743.606825 193.366327 
L 743.606825 194.379928 
L 743.606825 195.413198 
L 743.606825 196.466916 
L 743.606825 197.541908 
L 743.606825 198.63905 
L 743.606825 199.759275 
L 743.606825 200.903574 
L 743.606825 202.073005 
L 743.606825 203.268698 
L 743.606825 204.491858 
L 743.606825 205.743777 
L 743.606825 207.025841 
L 743.606825 208.339537 
L 743.606825 209.686465 
L 743.606825 211.06835 
L 743.606825 212.487055 
L 743.606825 213.944597 
L 743.606825 215.443162 
L 743.606825 216.985125 
L 743.606825 218.573076 
L 743.606825 220.209843 
L 743.606825 221.898521 
L 743.606825 223.642512 
L 743.606825 225.445563 
L 743.606825 227.311815 
L 743.606825 229.245859 
L 743.606825 231.252806 
L 743.606825 233.33837 
L 743.606825 235.508962 
L 743.606825 237.771809 
L 743.606825 240.135104 
L 743.606825 242.608181 
L 743.606825 245.201737 
L 743.606825 247.928115 
L 743.606825 250.801658 
L 743.606825 253.839163 
L 743.606825 257.060481 
L 743.606825 260.489298 
L 743.606825 264.1542 
L 743.606825 268.090114 
L 743.606825 272.340348 
L 743.606825 276.959494 
L 743.606825 282.017736 
L 743.606825 287.607406 
L 743.606825 293.853425 
L 743.606825 300.930693 
L 743.606825 309.094932 
L 743.606825 318.741693 
L 743.606825 330.53154 
L 743.606825 345.696909 
L 743.606825 366.982219 
L 743.606825 402.986699 
L 743.606825 583.558571 
L 743.606825 124173.487659 
L 743.606825 124173.487659 
L 743.606825 124173.487659 
L 743.606825 124173.487659 
L 743.606825 124173.487659 
L 743.606825 124173.487659 
L 743.606825 124173.487659 
L 743.606825 124173.487659 
L 743.606825 124173.487659 
z
" clip-path="url(#p38db49a5cb)" style="fill: #93c9de; stroke: #6f6f6f; stroke-width: 1.25"/>
   </g>
   <g id="FillBetweenPolyCollection_4">
    <path d="M 917.617527 124173.487659 
L 914.607801 124173.487659 
L 913.769328 124173.487659 
L 912.744286 124173.487659 
L 911.504667 124173.487659 
L 910.021687 124173.487659 
L 908.266639 124173.487659 
L 906.211905 124173.487659 
L 903.832097 124173.487659 
L 901.105293 124173.487659 
L 898.014295 124173.487659 
L 894.54786 124173.487659 
L 890.701816 124173.487659 
L 886.479988 124173.487659 
L 881.894871 124173.487659 
L 876.967968 124173.487659 
L 871.729758 124173.487659 
L 866.219268 124173.487659 
L 860.483238 124173.487659 
L 854.574923 371.423592 
L 848.552567 328.60792 
L 842.477653 305.185936 
L 836.413025 288.974677 
L 830.420999 276.564183 
L 824.561584 266.506462 
L 818.89095 258.050034 
L 813.460222 250.754356 
L 808.314694 244.338895 
L 803.493494 238.61394 
L 799.029705 233.44519 
L 794.950893 228.734073 
L 791.279962 224.406106 
L 788.036201 220.403625 
L 785.236398 216.681079 
L 782.895828 213.201858 
L 781.02901 209.936095 
L 779.650055 206.859103 
L 778.772558 203.950248 
L 778.408965 201.192102 
L 778.56947 198.569816 
L 779.260493 196.07063 
L 780.482901 193.683504 
L 782.230158 191.398818 
L 784.486581 189.20814 
L 787.225952 187.10404 
L 790.410632 185.079933 
L 793.99136 183.129958 
L 797.907787 181.248878 
L 802.089791 179.43199 
L 806.45949 177.675056 
L 810.933849 175.974246 
L 815.427686 174.326085 
L 819.856869 172.727411 
L 824.141488 171.175339 
L 828.208772 169.667228 
L 831.995582 168.200658 
L 835.450335 166.773399 
L 838.534303 165.383401 
L 841.222238 164.028766 
L 843.502401 162.707741 
L 845.376049 161.418697 
L 846.856504 160.160122 
L 847.967936 158.93061 
L 848.743966 157.728848 
L 849.226208 156.553612 
L 849.462809 155.403755 
L 849.507044 154.278205 
L 849.415961 153.175954 
L 849.24907 152.096059 
L 849.067038 151.037631 
L 848.93035 149.999831 
L 848.897902 148.981873 
L 849.025523 147.98301 
L 849.364417 147.002541 
L 849.95958 146.039799 
L 850.848251 145.094155 
L 852.058485 144.165013 
L 853.607961 143.251806 
L 855.503109 142.353997 
L 857.738668 141.471076 
L 860.297737 140.602556 
L 863.152349 139.747975 
L 866.264577 138.906893 
L 869.588119 138.07889 
L 873.070281 137.263566 
L 876.654243 136.460538 
L 880.281473 135.66944 
L 883.894135 134.889924 
L 887.43735 134.121656 
L 890.861191 133.364314 
L 894.122289 132.617594 
L 897.185003 131.8812 
L 900.022105 131.154851 
L 902.614991 130.438278 
L 904.953447 129.731219 
L 907.03505 129.033427 
L 908.864255 128.344661 
L 910.451295 127.66469 
L 911.810957 126.993293 
L 912.96134 126.330257 
L 913.922656 125.675375 
L 917.617527 125.675375 
L 917.617527 125.675375 
L 917.617527 126.330257 
L 917.617527 126.993293 
L 917.617527 127.66469 
L 917.617527 128.344661 
L 917.617527 129.033427 
L 917.617527 129.731219 
L 917.617527 130.438278 
L 917.617527 131.154851 
L 917.617527 131.8812 
L 917.617527 132.617594 
L 917.617527 133.364314 
L 917.617527 134.121656 
L 917.617527 134.889924 
L 917.617527 135.66944 
L 917.617527 136.460538 
L 917.617527 137.263566 
L 917.617527 138.07889 
L 917.617527 138.906893 
L 917.617527 139.747975 
L 917.617527 140.602556 
L 917.617527 141.471076 
L 917.617527 142.353997 
L 917.617527 143.251806 
L 917.617527 144.165013 
L 917.617527 145.094155 
L 917.617527 146.039799 
L 917.617527 147.002541 
L 917.617527 147.98301 
L 917.617527 148.981873 
L 917.617527 149.999831 
L 917.617527 151.037631 
L 917.617527 152.096059 
L 917.617527 153.175954 
L 917.617527 154.278205 
L 917.617527 155.403755 
L 917.617527 156.553612 
L 917.617527 157.728848 
L 917.617527 158.93061 
L 917.617527 160.160122 
L 917.617527 161.418697 
L 917.617527 162.707741 
L 917.617527 164.028766 
L 917.617527 165.383401 
L 917.617527 166.773399 
L 917.617527 168.200658 
L 917.617527 169.667228 
L 917.617527 171.175339 
L 917.617527 172.727411 
L 917.617527 174.326085 
L 917.617527 175.974246 
L 917.617527 177.675056 
L 917.617527 179.43199 
L 917.617527 181.248878 
L 917.617527 183.129958 
L 917.617527 185.079933 
L 917.617527 187.10404 
L 917.617527 189.20814 
L 917.617527 191.398818 
L 917.617527 193.683504 
L 917.617527 196.07063 
L 917.617527 198.569816 
L 917.617527 201.192102 
L 917.617527 203.950248 
L 917.617527 206.859103 
L 917.617527 209.936095 
L 917.617527 213.201858 
L 917.617527 216.681079 
L 917.617527 220.403625 
L 917.617527 224.406106 
L 917.617527 228.734073 
L 917.617527 233.44519 
L 917.617527 238.61394 
L 917.617527 244.338895 
L 917.617527 250.754356 
L 917.617527 258.050034 
L 917.617527 266.506462 
L 917.617527 276.564183 
L 917.617527 288.974677 
L 917.617527 305.185936 
L 917.617527 328.60792 
L 917.617527 371.423592 
L 917.617527 124173.487659 
L 917.617527 124173.487659 
L 917.617527 124173.487659 
L 917.617527 124173.487659 
L 917.617527 124173.487659 
L 917.617527 124173.487659 
L 917.617527 124173.487659 
L 917.617527 124173.487659 
L 917.617527 124173.487659 
L 917.617527 124173.487659 
L 917.617527 124173.487659 
L 917.617527 124173.487659 
L 917.617527 124173.487659 
L 917.617527 124173.487659 
L 917.617527 124173.487659 
L 917.617527 124173.487659 
L 917.617527 124173.487659 
L 917.617527 124173.487659 
z
" clip-path="url(#p38db49a5cb)" style="fill: #93c9de; stroke: #6f6f6f; stroke-width: 1.25"/>
   </g>
   <g id="FillBetweenPolyCollection_5">
    <path d="M 1265.63893 124173.487659 
L 1255.327426 124173.487659 
L 1253.86062 124173.487659 
L 1252.238804 124173.487659 
L 1250.454137 124173.487659 
L 1248.499647 124173.487659 
L 1246.369424 124173.487659 
L 1244.058822 124173.487659 
L 1241.564642 124173.487659 
L 1238.885317 124173.487659 
L 1236.021069 124173.487659 
L 1232.974047 124173.487659 
L 1229.748444 124173.487659 
L 1226.350569 514.099987 
L 1222.788893 417.361606 
L 1219.074052 384.966856 
L 1215.218808 364.970575 
L 1211.237967 350.467319 
L 1207.148251 339.080586 
L 1202.968138 329.705056 
L 1198.71765 321.735789 
L 1194.418111 314.805431 
L 1190.091882 308.674084 
L 1185.762054 303.176409 
L 1181.452141 298.193607 
L 1177.185749 293.637446 
L 1172.986245 289.440591 
L 1168.876436 285.550492 
L 1164.878249 281.925344 
L 1161.012439 278.531345 
L 1157.298318 275.340777 
L 1153.753515 272.330626 
L 1150.393775 269.481575 
L 1147.232797 266.777254 
L 1144.282109 264.203665 
L 1141.551003 261.748751 
L 1139.046494 259.402046 
L 1136.773346 257.154413 
L 1134.734123 254.997825 
L 1132.929294 252.925191 
L 1131.357368 250.93022 
L 1130.015069 249.0073 
L 1128.897536 247.151409 
L 1127.998552 245.35803 
L 1127.310788 243.62309 
L 1126.826064 241.942898 
L 1126.535617 240.314106 
L 1126.430369 238.733662 
L 1126.50119 237.198778 
L 1126.739155 235.706901 
L 1127.135775 234.255685 
L 1127.683209 232.842975 
L 1128.374453 231.466778 
L 1129.203482 230.125255 
L 1130.165364 228.816701 
L 1131.256333 227.539535 
L 1132.473803 226.292286 
L 1133.816355 225.073584 
L 1135.283664 223.882153 
L 1136.876388 222.716798 
L 1138.59601 221.576401 
L 1140.444644 220.459918 
L 1142.424812 219.366364 
L 1144.53919 218.294818 
L 1146.790338 217.24441 
L 1149.180423 216.214324 
L 1151.710943 215.203787 
L 1154.382457 214.212071 
L 1157.194339 213.238488 
L 1160.144564 212.282388 
L 1163.229522 211.343152 
L 1166.443885 210.420197 
L 1169.78052 209.512967 
L 1173.230455 208.620936 
L 1176.782901 207.743603 
L 1180.425333 206.880491 
L 1184.143616 206.031147 
L 1187.922188 205.195138 
L 1191.744284 204.372053 
L 1195.592194 203.561496 
L 1199.447553 202.763094 
L 1203.29165 201.976486 
L 1207.10574 201.201329 
L 1210.871367 200.437296 
L 1214.570666 199.68407 
L 1218.186657 198.94135 
L 1221.703507 198.208848 
L 1225.106757 197.486286 
L 1228.383522 196.773398 
L 1231.522638 196.069928 
L 1234.514771 195.375631 
L 1237.352483 194.690271 
L 1240.03025 194.013619 
L 1242.544442 193.345459 
L 1244.893267 192.685579 
L 1247.076672 192.033777 
L 1249.096227 191.389857 
L 1250.954978 190.753631 
L 1252.657282 190.124917 
L 1254.208634 189.50354 
L 1255.615483 188.88933 
L 1265.63893 188.88933 
L 1265.63893 188.88933 
L 1265.63893 189.50354 
L 1265.63893 190.124917 
L 1265.63893 190.753631 
L 1265.63893 191.389857 
L 1265.63893 192.033777 
L 1265.63893 192.685579 
L 1265.63893 193.345459 
L 1265.63893 194.013619 
L 1265.63893 194.690271 
L 1265.63893 195.375631 
L 1265.63893 196.069928 
L 1265.63893 196.773398 
L 1265.63893 197.486286 
L 1265.63893 198.208848 
L 1265.63893 198.94135 
L 1265.63893 199.68407 
L 1265.63893 200.437296 
L 1265.63893 201.201329 
L 1265.63893 201.976486 
L 1265.63893 202.763094 
L 1265.63893 203.561496 
L 1265.63893 204.372053 
L 1265.63893 205.195138 
L 1265.63893 206.031147 
L 1265.63893 206.880491 
L 1265.63893 207.743603 
L 1265.63893 208.620936 
L 1265.63893 209.512967 
L 1265.63893 210.420197 
L 1265.63893 211.343152 
L 1265.63893 212.282388 
L 1265.63893 213.238488 
L 1265.63893 214.212071 
L 1265.63893 215.203787 
L 1265.63893 216.214324 
L 1265.63893 217.24441 
L 1265.63893 218.294818 
L 1265.63893 219.366364 
L 1265.63893 220.459918 
L 1265.63893 221.576401 
L 1265.63893 222.716798 
L 1265.63893 223.882153 
L 1265.63893 225.073584 
L 1265.63893 226.292286 
L 1265.63893 227.539535 
L 1265.63893 228.816701 
L 1265.63893 230.125255 
L 1265.63893 231.466778 
L 1265.63893 232.842975 
L 1265.63893 234.255685 
L 1265.63893 235.706901 
L 1265.63893 237.198778 
L 1265.63893 238.733662 
L 1265.63893 240.314106 
L 1265.63893 241.942898 
L 1265.63893 243.62309 
L 1265.63893 245.35803 
L 1265.63893 247.151409 
L 1265.63893 249.0073 
L 1265.63893 250.93022 
L 1265.63893 252.925191 
L 1265.63893 254.997825 
L 1265.63893 257.154413 
L 1265.63893 259.402046 
L 1265.63893 261.748751 
L 1265.63893 264.203665 
L 1265.63893 266.777254 
L 1265.63893 269.481575 
L 1265.63893 272.330626 
L 1265.63893 275.340777 
L 1265.63893 278.531345 
L 1265.63893 281.925344 
L 1265.63893 285.550492 
L 1265.63893 289.440591 
L 1265.63893 293.637446 
L 1265.63893 298.193607 
L 1265.63893 303.176409 
L 1265.63893 308.674084 
L 1265.63893 314.805431 
L 1265.63893 321.735789 
L 1265.63893 329.705056 
L 1265.63893 339.080586 
L 1265.63893 350.467319 
L 1265.63893 364.970575 
L 1265.63893 384.966856 
L 1265.63893 417.361606 
L 1265.63893 514.099987 
L 1265.63893 124173.487659 
L 1265.63893 124173.487659 
L 1265.63893 124173.487659 
L 1265.63893 124173.487659 
L 1265.63893 124173.487659 
L 1265.63893 124173.487659 
L 1265.63893 124173.487659 
L 1265.63893 124173.487659 
L 1265.63893 124173.487659 
L 1265.63893 124173.487659 
L 1265.63893 124173.487659 
L 1265.63893 124173.487659 
z
" clip-path="url(#p38db49a5cb)" style="fill: #93c9de; stroke: #6f6f6f; stroke-width: 1.25"/>
   </g>
   <g id="line2d_13">
    <path d="M 82.366159 189.614128 
L 221.57472 189.614128 
" clip-path="url(#p38db49a5cb)" style="fill: none; stroke: #6f6f6f; stroke-width: 1.25; stroke-linecap: round"/>
   </g>
   <g id="line2d_14">
    <path d="M 257.831725 238.604741 
L 395.585422 238.604741 
" clip-path="url(#p38db49a5cb)" style="fill: none; stroke-dasharray: 1.5625,0.9375; stroke-dashoffset: 0; stroke: #6f6f6f; stroke-width: 1.25"/>
   </g>
   <g id="line2d_15">
    <path d="M 262.369237 217.609681 
L 395.585422 217.609681 
" clip-path="url(#p38db49a5cb)" style="fill: none; stroke-dasharray: 3.125,1.25; stroke-dashoffset: 0; stroke: #6f6f6f; stroke-width: 1.25"/>
   </g>
   <g id="line2d_16">
    <path d="M 322.846564 175.049271 
L 395.585422 175.049271 
" clip-path="url(#p38db49a5cb)" style="fill: none; stroke-dasharray: 1.5625,0.9375; stroke-dashoffset: 0; stroke: #6f6f6f; stroke-width: 1.25"/>
   </g>
   <g id="line2d_17">
    <path d="M 438.485765 238.646515 
L 569.596123 238.646515 
" clip-path="url(#p38db49a5cb)" style="fill: none; stroke-dasharray: 1.5625,0.9375; stroke-dashoffset: 0; stroke: #6f6f6f; stroke-width: 1.25"/>
   </g>
   <g id="line2d_18">
    <path d="M 439.839691 194.818867 
L 569.596123 194.818867 
" clip-path="url(#p38db49a5cb)" style="fill: none; stroke-dasharray: 3.125,1.25; stroke-dashoffset: 0; stroke: #6f6f6f; stroke-width: 1.25"/>
   </g>
   <g id="line2d_19">
    <path d="M 476.343118 173.061892 
L 569.596123 173.061892 
" clip-path="url(#p38db49a5cb)" style="fill: none; stroke-dasharray: 1.5625,0.9375; stroke-dashoffset: 0; stroke: #6f6f6f; stroke-width: 1.25"/>
   </g>
   <g id="line2d_20">
    <path d="M 605.837111 273.319656 
L 743.606825 273.319656 
" clip-path="url(#p38db49a5cb)" style="fill: none; stroke-dasharray: 1.5625,0.9375; stroke-dashoffset: 0; stroke: #6f6f6f; stroke-width: 1.25"/>
   </g>
   <g id="line2d_21">
    <path d="M 618.721432 248.137736 
L 743.606825 248.137736 
" clip-path="url(#p38db49a5cb)" style="fill: none; stroke-dasharray: 3.125,1.25; stroke-dashoffset: 0; stroke: #6f6f6f; stroke-width: 1.25"/>
   </g>
   <g id="line2d_22">
    <path d="M 659.39818 219.028705 
L 743.606825 219.028705 
" clip-path="url(#p38db49a5cb)" style="fill: none; stroke-dasharray: 1.5625,0.9375; stroke-dashoffset: 0; stroke: #6f6f6f; stroke-width: 1.25"/>
   </g>
   <g id="line2d_23">
    <path d="M 787.385229 219.5146 
L 917.617527 219.5146 
" clip-path="url(#p38db49a5cb)" style="fill: none; stroke-dasharray: 1.5625,0.9375; stroke-dashoffset: 0; stroke: #6f6f6f; stroke-width: 1.25"/>
   </g>
   <g id="line2d_24">
    <path d="M 787.902959 186.667264 
L 917.617527 186.667264 
" clip-path="url(#p38db49a5cb)" style="fill: none; stroke-dasharray: 3.125,1.25; stroke-dashoffset: 0; stroke: #6f6f6f; stroke-width: 1.25"/>
   </g>
   <g id="line2d_25">
    <path d="M 847.175647 159.804158 
L 917.617527 159.804158 
" clip-path="url(#p38db49a5cb)" style="fill: none; stroke-dasharray: 1.5625,0.9375; stroke-dashoffset: 0; stroke: #6f6f6f; stroke-width: 1.25"/>
   </g>
   <g id="line2d_26">
    <path d="M 952.419667 58.874218 
L 1091.628228 58.874218 
" clip-path="url(#p38db49a5cb)" style="fill: none; stroke: #6f6f6f; stroke-width: 1.25; stroke-linecap: round"/>
   </g>
   <g id="line2d_27">
    <path d="M 1131.196812 250.696524 
L 1265.63893 250.696524 
" clip-path="url(#p38db49a5cb)" style="fill: none; stroke-dasharray: 1.5625,0.9375; stroke-dashoffset: 0; stroke: #6f6f6f; stroke-width: 1.25"/>
   </g>
   <g id="line2d_28">
    <path d="M 1126.672644 236.119688 
L 1265.63893 236.119688 
" clip-path="url(#p38db49a5cb)" style="fill: none; stroke-dasharray: 3.125,1.25; stroke-dashoffset: 0; stroke: #6f6f6f; stroke-width: 1.25"/>
   </g>
   <g id="line2d_29">
    <path d="M 1137.049877 222.600631 
L 1265.63893 222.600631 
" clip-path="url(#p38db49a5cb)" style="fill: none; stroke-dasharray: 1.5625,0.9375; stroke-dashoffset: 0; stroke: #6f6f6f; stroke-width: 1.25"/>
   </g>
   <g id="patch_3">
    <path d="M 64.965088 609.792789 
L 64.965088 32.64 
" style="fill: none; stroke: #cccccc; stroke-width: 1.25; stroke-linejoin: miter; stroke-linecap: square"/>
   </g>
   <g id="patch_4">
    <path d="M 1283.04 609.792789 
L 1283.04 32.64 
" style="fill: none; stroke: #cccccc; stroke-width: 1.25; stroke-linejoin: miter; stroke-linecap: square"/>
   </g>
   <g id="patch_5">
    <path d="M 64.965088 609.792789 
L 1283.04 609.792789 
" style="fill: none; stroke: #cccccc; stroke-width: 1.25; stroke-linejoin: miter; stroke-linecap: square"/>
   </g>
   <g id="patch_6">
    <path d="M 64.965088 32.64 
L 1283.04 32.64 
" style="fill: none; stroke: #cccccc; stroke-width: 1.25; stroke-linejoin: miter; stroke-linecap: square"/>
   </g>
   <g id="PathCollection_1">
    <defs>
     <path id="meaf073da87" d="M 0 3 
C 0.795609 3 1.55874 2.683901 2.12132 2.12132 
C 2.683901 1.55874 3 0.795609 3 0 
C 3 -0.795609 2.683901 -1.55874 2.12132 -2.12132 
C 1.55874 -2.683901 0.795609 -3 0 -3 
C -0.795609 -3 -1.55874 -2.683901 -2.12132 -2.12132 
C -2.683901 -1.55874 -3 -0.795609 -3 0 
C -3 0.795609 -2.683901 1.55874 -2.12132 2.12132 
C -1.55874 2.683901 -0.795609 3 0 3 
z
"/>
    </defs>
    <g clip-path="url(#p38db49a5cb)">
     <use xlink:href="#meaf073da87" x="151.970439" y="189.614128" style="fill: #ffa500; fill-opacity: 0.8"/>
    </g>
   </g>
   <g id="PathCollection_2">
    <g clip-path="url(#p38db49a5cb)">
     <use xlink:href="#meaf073da87" x="323.471922" y="259.10445" style="fill: #ffa500; fill-opacity: 0.8"/>
     <use xlink:href="#meaf073da87" x="323.866763" y="238.485188" style="fill: #ffa500; fill-opacity: 0.8"/>
     <use xlink:href="#meaf073da87" x="325.981141" y="218.578635" style="fill: #ffa500; fill-opacity: 0.8"/>
     <use xlink:href="#meaf073da87" x="341.671005" y="234.622286" style="fill: #ffa500; fill-opacity: 0.8"/>
     <use xlink:href="#meaf073da87" x="316.133244" y="238.96502" style="fill: #ffa500; fill-opacity: 0.8"/>
     <use xlink:href="#meaf073da87" x="319.685253" y="243.920443" style="fill: #ffa500; fill-opacity: 0.8"/>
     <use xlink:href="#meaf073da87" x="325.981141" y="264.608011" style="fill: #ffa500; fill-opacity: 0.8"/>
     <use xlink:href="#meaf073da87" x="325.981141" y="253.244715" style="fill: #ffa500; fill-opacity: 0.8"/>
     <use xlink:href="#meaf073da87" x="330.297162" y="154.723553" style="fill: #ffa500; fill-opacity: 0.8"/>
     <use xlink:href="#meaf073da87" x="325.981141" y="149.888146" style="fill: #ffa500; fill-opacity: 0.8"/>
     <use xlink:href="#meaf073da87" x="330.246357" y="181.036142" style="fill: #ffa500; fill-opacity: 0.8"/>
     <use xlink:href="#meaf073da87" x="320.01262" y="216.658045" style="fill: #ffa500; fill-opacity: 0.8"/>
     <use xlink:href="#meaf073da87" x="324.502341" y="178.571648" style="fill: #ffa500; fill-opacity: 0.8"/>
     <use xlink:href="#meaf073da87" x="325.981141" y="159.094344" style="fill: #ffa500; fill-opacity: 0.8"/>
     <use xlink:href="#meaf073da87" x="325.981141" y="200.5022" style="fill: #ffa500; fill-opacity: 0.8"/>
     <use xlink:href="#meaf073da87" x="329.32332" y="213.492542" style="fill: #ffa500; fill-opacity: 0.8"/>
     <use xlink:href="#meaf073da87" x="336.68701" y="238.292327" style="fill: #ffa500; fill-opacity: 0.8"/>
     <use xlink:href="#meaf073da87" x="331.524547" y="175.16093" style="fill: #ffa500; fill-opacity: 0.8"/>
     <use xlink:href="#meaf073da87" x="319.675582" y="174.715694" style="fill: #ffa500; fill-opacity: 0.8"/>
     <use xlink:href="#meaf073da87" x="321.161109" y="167.860092" style="fill: #ffa500; fill-opacity: 0.8"/>
     <use xlink:href="#meaf073da87" x="325.981141" y="127.873837" style="fill: #ffa500; fill-opacity: 0.8"/>
     <use xlink:href="#meaf073da87" x="325.981141" y="244.137182" style="fill: #ffa500; fill-opacity: 0.8"/>
     <use xlink:href="#meaf073da87" x="332.239362" y="229.355455" style="fill: #ffa500; fill-opacity: 0.8"/>
     <use xlink:href="#meaf073da87" x="320.145623" y="227.784179" style="fill: #ffa500; fill-opacity: 0.8"/>
     <use xlink:href="#meaf073da87" x="325.981141" y="271.097478" style="fill: #ffa500; fill-opacity: 0.8"/>
     <use xlink:href="#meaf073da87" x="325.981141" y="230.045303" style="fill: #ffa500; fill-opacity: 0.8"/>
     <use xlink:href="#meaf073da87" x="310.962854" y="235.536837" style="fill: #ffa500; fill-opacity: 0.8"/>
     <use xlink:href="#meaf073da87" x="330.701062" y="240.163077" style="fill: #ffa500; fill-opacity: 0.8"/>
     <use xlink:href="#meaf073da87" x="325.981141" y="185.451939" style="fill: #ffa500; fill-opacity: 0.8"/>
     <use xlink:href="#meaf073da87" x="319.727028" y="184.729088" style="fill: #ffa500; fill-opacity: 0.8"/>
     <use xlink:href="#meaf073da87" x="325.981141" y="171.723671" style="fill: #ffa500; fill-opacity: 0.8"/>
     <use xlink:href="#meaf073da87" x="320.649782" y="155.897604" style="fill: #ffa500; fill-opacity: 0.8"/>
    </g>
   </g>
   <g id="PathCollection_3">
    <g clip-path="url(#p38db49a5cb)">
     <use xlink:href="#meaf073da87" x="492.300157" y="259.142925" style="fill: #ffa500; fill-opacity: 0.8"/>
     <use xlink:href="#meaf073da87" x="496.698627" y="263.438518" style="fill: #ffa500; fill-opacity: 0.8"/>
     <use xlink:href="#meaf073da87" x="493.695642" y="244.604936" style="fill: #ffa500; fill-opacity: 0.8"/>
     <use xlink:href="#meaf073da87" x="491.706136" y="238.530106" style="fill: #ffa500; fill-opacity: 0.8"/>
     <use xlink:href="#meaf073da87" x="503.477892" y="194.818867" style="fill: #ffa500; fill-opacity: 0.8"/>
     <use xlink:href="#meaf073da87" x="493.694026" y="204.597582" style="fill: #ffa500; fill-opacity: 0.8"/>
     <use xlink:href="#meaf073da87" x="493.887533" y="218.36894" style="fill: #ffa500; fill-opacity: 0.8"/>
     <use xlink:href="#meaf073da87" x="499.991843" y="189.848798" style="fill: #ffa500; fill-opacity: 0.8"/>
     <use xlink:href="#meaf073da87" x="499.991843" y="181.136865" style="fill: #ffa500; fill-opacity: 0.8"/>
     <use xlink:href="#meaf073da87" x="493.710537" y="151.570083" style="fill: #ffa500; fill-opacity: 0.8"/>
     <use xlink:href="#meaf073da87" x="499.991843" y="170.508233" style="fill: #ffa500; fill-opacity: 0.8"/>
     <use xlink:href="#meaf073da87" x="505.753694" y="178.71043" style="fill: #ffa500; fill-opacity: 0.8"/>
     <use xlink:href="#meaf073da87" x="498.821179" y="198.860041" style="fill: #ffa500; fill-opacity: 0.8"/>
     <use xlink:href="#meaf073da87" x="499.991843" y="144.78274" style="fill: #ffa500; fill-opacity: 0.8"/>
     <use xlink:href="#meaf073da87" x="493.872083" y="188.42387" style="fill: #ffa500; fill-opacity: 0.8"/>
     <use xlink:href="#meaf073da87" x="504.262926" y="238.763178" style="fill: #ffa500; fill-opacity: 0.8"/>
     <use xlink:href="#meaf073da87" x="499.991843" y="219.852761" style="fill: #ffa500; fill-opacity: 0.8"/>
     <use xlink:href="#meaf073da87" x="493.802103" y="169.390607" style="fill: #ffa500; fill-opacity: 0.8"/>
     <use xlink:href="#meaf073da87" x="489.679777" y="175.744216" style="fill: #ffa500; fill-opacity: 0.8"/>
     <use xlink:href="#meaf073da87" x="499.991843" y="152.031962" style="fill: #ffa500; fill-opacity: 0.8"/>
     <use xlink:href="#meaf073da87" x="505.975309" y="187.970862" style="fill: #ffa500; fill-opacity: 0.8"/>
     <use xlink:href="#meaf073da87" x="499.991843" y="233.436325" style="fill: #ffa500; fill-opacity: 0.8"/>
     <use xlink:href="#meaf073da87" x="499.991843" y="204.755544" style="fill: #ffa500; fill-opacity: 0.8"/>
     <use xlink:href="#meaf073da87" x="497.974656" y="239.129158" style="fill: #ffa500; fill-opacity: 0.8"/>
     <use xlink:href="#meaf073da87" x="499.991843" y="268.553499" style="fill: #ffa500; fill-opacity: 0.8"/>
     <use xlink:href="#meaf073da87" x="502.974143" y="262.910048" style="fill: #ffa500; fill-opacity: 0.8"/>
     <use xlink:href="#meaf073da87" x="499.991843" y="244.813282" style="fill: #ffa500; fill-opacity: 0.8"/>
     <use xlink:href="#meaf073da87" x="494.327307" y="142.156683" style="fill: #ffa500; fill-opacity: 0.8"/>
     <use xlink:href="#meaf073da87" x="499.991843" y="136.810648" style="fill: #ffa500; fill-opacity: 0.8"/>
     <use xlink:href="#meaf073da87" x="504.260849" y="166.095759" style="fill: #ffa500; fill-opacity: 0.8"/>
     <use xlink:href="#meaf073da87" x="493.749933" y="180.323954" style="fill: #ffa500; fill-opacity: 0.8"/>
    </g>
   </g>
   <g id="PathCollection_4">
    <g clip-path="url(#p38db49a5cb)">
     <use xlink:href="#meaf073da87" x="672.783131" y="278.137507" style="fill: #ffa500; fill-opacity: 0.8"/>
     <use xlink:href="#meaf073da87" x="678.479101" y="275.573862" style="fill: #ffa500; fill-opacity: 0.8"/>
     <use xlink:href="#meaf073da87" x="674.002544" y="284.02404" style="fill: #ffa500; fill-opacity: 0.8"/>
     <use xlink:href="#meaf073da87" x="678.850275" y="292.514732" style="fill: #ffa500; fill-opacity: 0.8"/>
     <use xlink:href="#meaf073da87" x="658.045397" y="270.242709" style="fill: #ffa500; fill-opacity: 0.8"/>
     <use xlink:href="#meaf073da87" x="667.95085" y="294.678858" style="fill: #ffa500; fill-opacity: 0.8"/>
     <use xlink:href="#meaf073da87" x="674.002544" y="296.346749" style="fill: #ffa500; fill-opacity: 0.8"/>
     <use xlink:href="#meaf073da87" x="674.002544" y="192.946723" style="fill: #ffa500; fill-opacity: 0.8"/>
     <use xlink:href="#meaf073da87" x="663.365704" y="206.170723" style="fill: #ffa500; fill-opacity: 0.8"/>
     <use xlink:href="#meaf073da87" x="668.260547" y="190.477968" style="fill: #ffa500; fill-opacity: 0.8"/>
     <use xlink:href="#meaf073da87" x="678.085868" y="234.886984" style="fill: #ffa500; fill-opacity: 0.8"/>
     <use xlink:href="#meaf073da87" x="667.92541" y="282.442275" style="fill: #ffa500; fill-opacity: 0.8"/>
     <use xlink:href="#meaf073da87" x="679.785205" y="258.515976" style="fill: #ffa500; fill-opacity: 0.8"/>
     <use xlink:href="#meaf073da87" x="667.70256" y="224.817599" style="fill: #ffa500; fill-opacity: 0.8"/>
     <use xlink:href="#meaf073da87" x="664.152789" y="271.714981" style="fill: #ffa500; fill-opacity: 0.8"/>
     <use xlink:href="#meaf073da87" x="674.002544" y="224.831008" style="fill: #ffa500; fill-opacity: 0.8"/>
     <use xlink:href="#meaf073da87" x="674.002544" y="260.897088" style="fill: #ffa500; fill-opacity: 0.8"/>
     <use xlink:href="#meaf073da87" x="674.002544" y="210.986575" style="fill: #ffa500; fill-opacity: 0.8"/>
     <use xlink:href="#meaf073da87" x="680.069113" y="223.212874" style="fill: #ffa500; fill-opacity: 0.8"/>
     <use xlink:href="#meaf073da87" x="689.694816" y="270.745611" style="fill: #ffa500; fill-opacity: 0.8"/>
     <use xlink:href="#meaf073da87" x="674.002544" y="176.060409" style="fill: #ffa500; fill-opacity: 0.8"/>
     <use xlink:href="#meaf073da87" x="661.975182" y="222.318232" style="fill: #ffa500; fill-opacity: 0.8"/>
     <use xlink:href="#meaf073da87" x="668.022288" y="259.009899" style="fill: #ffa500; fill-opacity: 0.8"/>
     <use xlink:href="#meaf073da87" x="670.385593" y="272.588973" style="fill: #ffa500; fill-opacity: 0.8"/>
     <use xlink:href="#meaf073da87" x="674.002544" y="239.456078" style="fill: #ffa500; fill-opacity: 0.8"/>
     <use xlink:href="#meaf073da87" x="680.200644" y="209.911793" style="fill: #ffa500; fill-opacity: 0.8"/>
     <use xlink:href="#meaf073da87" x="683.531813" y="271.990062" style="fill: #ffa500; fill-opacity: 0.8"/>
     <use xlink:href="#meaf073da87" x="679.852601" y="281.797253" style="fill: #ffa500; fill-opacity: 0.8"/>
     <use xlink:href="#meaf073da87" x="686.239927" y="222.00404" style="fill: #ffa500; fill-opacity: 0.8"/>
     <use xlink:href="#meaf073da87" x="667.722931" y="210.504273" style="fill: #ffa500; fill-opacity: 0.8"/>
     <use xlink:href="#meaf073da87" x="674.002544" y="200.544337" style="fill: #ffa500; fill-opacity: 0.8"/>
     <use xlink:href="#meaf073da87" x="668.522902" y="236.495487" style="fill: #ffa500; fill-opacity: 0.8"/>
    </g>
   </g>
   <g id="PathCollection_5">
    <g clip-path="url(#p38db49a5cb)">
     <use xlink:href="#meaf073da87" x="853.317375" y="218.443477" style="fill: #ffa500; fill-opacity: 0.8"/>
     <use xlink:href="#meaf073da87" x="848.013246" y="214.428713" style="fill: #ffa500; fill-opacity: 0.8"/>
     <use xlink:href="#meaf073da87" x="848.013246" y="221.681043" style="fill: #ffa500; fill-opacity: 0.8"/>
     <use xlink:href="#meaf073da87" x="853.192159" y="186.667264" style="fill: #ffa500; fill-opacity: 0.8"/>
     <use xlink:href="#meaf073da87" x="841.755555" y="260.441636" style="fill: #ffa500; fill-opacity: 0.8"/>
     <use xlink:href="#meaf073da87" x="848.013246" y="335.055125" style="fill: #ffa500; fill-opacity: 0.8"/>
     <use xlink:href="#meaf073da87" x="848.013246" y="230.859823" style="fill: #ffa500; fill-opacity: 0.8"/>
     <use xlink:href="#meaf073da87" x="839.822997" y="140.593935" style="fill: #ffa500; fill-opacity: 0.8"/>
     <use xlink:href="#meaf073da87" x="849.996946" y="143.651979" style="fill: #ffa500; fill-opacity: 0.8"/>
     <use xlink:href="#meaf073da87" x="848.013246" y="261.135836" style="fill: #ffa500; fill-opacity: 0.8"/>
     <use xlink:href="#meaf073da87" x="839.647591" y="183.45656" style="fill: #ffa500; fill-opacity: 0.8"/>
     <use xlink:href="#meaf073da87" x="848.013246" y="196.693885" style="fill: #ffa500; fill-opacity: 0.8"/>
     <use xlink:href="#meaf073da87" x="861.82415" y="139.573284" style="fill: #ffa500; fill-opacity: 0.8"/>
     <use xlink:href="#meaf073da87" x="851.058268" y="179.659171" style="fill: #ffa500; fill-opacity: 0.8"/>
     <use xlink:href="#meaf073da87" x="859.478364" y="186.270412" style="fill: #ffa500; fill-opacity: 0.8"/>
     <use xlink:href="#meaf073da87" x="848.013246" y="272.101955" style="fill: #ffa500; fill-opacity: 0.8"/>
     <use xlink:href="#meaf073da87" x="848.013246" y="164.632285" style="fill: #ffa500; fill-opacity: 0.8"/>
     <use xlink:href="#meaf073da87" x="843.90115" y="145.167215" style="fill: #ffa500; fill-opacity: 0.8"/>
     <use xlink:href="#meaf073da87" x="841.814869" y="220.607712" style="fill: #ffa500; fill-opacity: 0.8"/>
     <use xlink:href="#meaf073da87" x="856.035218" y="141.940535" style="fill: #ffa500; fill-opacity: 0.8"/>
     <use xlink:href="#meaf073da87" x="848.013246" y="206.456351" style="fill: #ffa500; fill-opacity: 0.8"/>
     <use xlink:href="#meaf073da87" x="841.799241" y="189.095781" style="fill: #ffa500; fill-opacity: 0.8"/>
     <use xlink:href="#meaf073da87" x="848.013246" y="190.083758" style="fill: #ffa500; fill-opacity: 0.8"/>
     <use xlink:href="#meaf073da87" x="848.013246" y="239.504222" style="fill: #ffa500; fill-opacity: 0.8"/>
     <use xlink:href="#meaf073da87" x="843.868592" y="178.922531" style="fill: #ffa500; fill-opacity: 0.8"/>
     <use xlink:href="#meaf073da87" x="841.888991" y="163.224981" style="fill: #ffa500; fill-opacity: 0.8"/>
     <use xlink:href="#meaf073da87" x="846.91158" y="184.176206" style="fill: #ffa500; fill-opacity: 0.8"/>
     <use xlink:href="#meaf073da87" x="848.013246" y="149.712843" style="fill: #ffa500; fill-opacity: 0.8"/>
     <use xlink:href="#meaf073da87" x="841.733141" y="196.217421" style="fill: #ffa500; fill-opacity: 0.8"/>
     <use xlink:href="#meaf073da87" x="842.698516" y="153.368139" style="fill: #ffa500; fill-opacity: 0.8"/>
     <use xlink:href="#meaf073da87" x="848.013246" y="156.589896" style="fill: #ffa500; fill-opacity: 0.8"/>
    </g>
   </g>
   <g id="PathCollection_6">
    <g clip-path="url(#p38db49a5cb)">
     <use xlink:href="#meaf073da87" x="1022.023948" y="58.874218" style="fill: #ffa500; fill-opacity: 0.8"/>
    </g>
   </g>
   <g id="PathCollection_7">
    <g clip-path="url(#p38db49a5cb)">
     <use xlink:href="#meaf073da87" x="1196.034649" y="211.828288" style="fill: #ffa500; fill-opacity: 0.8"/>
     <use xlink:href="#meaf073da87" x="1196.034649" y="236.119688" style="fill: #ffa500; fill-opacity: 0.8"/>
     <use xlink:href="#meaf073da87" x="1196.034649" y="270.83374" style="fill: #ffa500; fill-opacity: 0.8"/>
    </g>
   </g>
   <g id="text_15">
    <g id="patch_7">
     <path d="M 89.326587 96.450904 
L 302.829087 96.450904 
Q 306.429087 96.450904 306.429087 92.850904 
L 306.429087 67.799779 
Q 306.429087 64.199779 302.829087 64.199779 
L 89.326587 64.199779 
Q 85.726587 64.199779 85.726587 67.799779 
L 85.726587 92.850904 
Q 85.726587 96.450904 89.326587 96.450904 
z
" style="fill: #ffffff; opacity: 0.7; stroke: #808080; stroke-linejoin: miter"/>
    </g>
    <!-- Yellow dots: Individual models -->
    <g transform="translate(89.326587 76.917904) scale(0.12 -0.12)">
     <defs>
      <path id="DejaVuSans-59" d="M -13 4666 
L 666 4666 
L 1959 2747 
L 3244 4666 
L 3922 4666 
L 2272 2222 
L 2272 0 
L 1638 0 
L 1638 2222 
L -13 4666 
z
" transform="scale(0.015625)"/>
      <path id="DejaVuSans-77" d="M 269 3500 
L 844 3500 
L 1563 769 
L 2278 3500 
L 2956 3500 
L 3675 769 
L 4391 3500 
L 4966 3500 
L 4050 0 
L 3372 0 
L 2619 2869 
L 1863 0 
L 1184 0 
L 269 3500 
z
" transform="scale(0.015625)"/>
      <path id="DejaVuSans-3a" d="M 750 794 
L 1409 794 
L 1409 0 
L 750 0 
L 750 794 
z
M 750 3309 
L 1409 3309 
L 1409 2516 
L 750 2516 
L 750 3309 
z
" transform="scale(0.015625)"/>
      <path id="DejaVuSans-49" d="M 628 4666 
L 1259 4666 
L 1259 0 
L 628 0 
L 628 4666 
z
" transform="scale(0.015625)"/>
      <path id="DejaVuSans-75" d="M 544 1381 
L 544 3500 
L 1119 3500 
L 1119 1403 
Q 1119 906 1312 657 
Q 1506 409 1894 409 
Q 2359 409 2629 706 
Q 2900 1003 2900 1516 
L 2900 3500 
L 3475 3500 
L 3475 0 
L 2900 0 
L 2900 538 
Q 2691 219 2414 64 
Q 2138 -91 1772 -91 
Q 1169 -91 856 284 
Q 544 659 544 1381 
z
M 1991 3584 
L 1991 3584 
z
" transform="scale(0.015625)"/>
     </defs>
     <use xlink:href="#DejaVuSans-59"/>
     <use xlink:href="#DejaVuSans-65" transform="translate(47.833984 0)"/>
     <use xlink:href="#DejaVuSans-6c" transform="translate(109.357422 0)"/>
     <use xlink:href="#DejaVuSans-6c" transform="translate(137.140625 0)"/>
     <use xlink:href="#DejaVuSans-6f" transform="translate(164.923828 0)"/>
     <use xlink:href="#DejaVuSans-77" transform="translate(226.105469 0)"/>
     <use xlink:href="#DejaVuSans-20" transform="translate(307.892578 0)"/>
     <use xlink:href="#DejaVuSans-64" transform="translate(339.679688 0)"/>
     <use xlink:href="#DejaVuSans-6f" transform="translate(403.15625 0)"/>
     <use xlink:href="#DejaVuSans-74" transform="translate(464.337891 0)"/>
     <use xlink:href="#DejaVuSans-73" transform="translate(503.546875 0)"/>
     <use xlink:href="#DejaVuSans-3a" transform="translate(555.646484 0)"/>
     <use xlink:href="#DejaVuSans-20" transform="translate(589.337891 0)"/>
     <use xlink:href="#DejaVuSans-49" transform="translate(621.125 0)"/>
     <use xlink:href="#DejaVuSans-6e" transform="translate(650.617188 0)"/>
     <use xlink:href="#DejaVuSans-64" transform="translate(713.996094 0)"/>
     <use xlink:href="#DejaVuSans-69" transform="translate(777.472656 0)"/>
     <use xlink:href="#DejaVuSans-76" transform="translate(805.255859 0)"/>
     <use xlink:href="#DejaVuSans-69" transform="translate(864.435547 0)"/>
     <use xlink:href="#DejaVuSans-64" transform="translate(892.21875 0)"/>
     <use xlink:href="#DejaVuSans-75" transform="translate(955.695312 0)"/>
     <use xlink:href="#DejaVuSans-61" transform="translate(1019.074219 0)"/>
     <use xlink:href="#DejaVuSans-6c" transform="translate(1080.353516 0)"/>
     <use xlink:href="#DejaVuSans-20" transform="translate(1108.136719 0)"/>
     <use xlink:href="#DejaVuSans-6d" transform="translate(1139.923828 0)"/>
     <use xlink:href="#DejaVuSans-6f" transform="translate(1237.335938 0)"/>
     <use xlink:href="#DejaVuSans-64" transform="translate(1298.517578 0)"/>
     <use xlink:href="#DejaVuSans-65" transform="translate(1361.994141 0)"/>
     <use xlink:href="#DejaVuSans-6c" transform="translate(1423.517578 0)"/>
     <use xlink:href="#DejaVuSans-73" transform="translate(1451.300781 0)"/>
    </g>
    <!-- Violin plot: Distribution of durations -->
    <g transform="translate(89.326587 90.355279) scale(0.12 -0.12)">
     <defs>
      <path id="DejaVuSans-56" d="M 1831 0 
L 50 4666 
L 709 4666 
L 2188 738 
L 3669 4666 
L 4325 4666 
L 2547 0 
L 1831 0 
z
" transform="scale(0.015625)"/>
     </defs>
     <use xlink:href="#DejaVuSans-56"/>
     <use xlink:href="#DejaVuSans-69" transform="translate(66.158203 0)"/>
     <use xlink:href="#DejaVuSans-6f" transform="translate(93.941406 0)"/>
     <use xlink:href="#DejaVuSans-6c" transform="translate(155.123047 0)"/>
     <use xlink:href="#DejaVuSans-69" transform="translate(182.90625 0)"/>
     <use xlink:href="#DejaVuSans-6e" transform="translate(210.689453 0)"/>
     <use xlink:href="#DejaVuSans-20" transform="translate(274.068359 0)"/>
     <use xlink:href="#DejaVuSans-70" transform="translate(305.855469 0)"/>
     <use xlink:href="#DejaVuSans-6c" transform="translate(369.332031 0)"/>
     <use xlink:href="#DejaVuSans-6f" transform="translate(397.115234 0)"/>
     <use xlink:href="#DejaVuSans-74" transform="translate(458.296875 0)"/>
     <use xlink:href="#DejaVuSans-3a" transform="translate(497.505859 0)"/>
     <use xlink:href="#DejaVuSans-20" transform="translate(531.197266 0)"/>
     <use xlink:href="#DejaVuSans-44" transform="translate(562.984375 0)"/>
     <use xlink:href="#DejaVuSans-69" transform="translate(639.986328 0)"/>
     <use xlink:href="#DejaVuSans-73" transform="translate(667.769531 0)"/>
     <use xlink:href="#DejaVuSans-74" transform="translate(719.869141 0)"/>
     <use xlink:href="#DejaVuSans-72" transform="translate(759.078125 0)"/>
     <use xlink:href="#DejaVuSans-69" transform="translate(800.191406 0)"/>
     <use xlink:href="#DejaVuSans-62" transform="translate(827.974609 0)"/>
     <use xlink:href="#DejaVuSans-75" transform="translate(891.451172 0)"/>
     <use xlink:href="#DejaVuSans-74" transform="translate(954.830078 0)"/>
     <use xlink:href="#DejaVuSans-69" transform="translate(994.039062 0)"/>
     <use xlink:href="#DejaVuSans-6f" transform="translate(1021.822266 0)"/>
     <use xlink:href="#DejaVuSans-6e" transform="translate(1083.003906 0)"/>
     <use xlink:href="#DejaVuSans-20" transform="translate(1146.382812 0)"/>
     <use xlink:href="#DejaVuSans-6f" transform="translate(1178.169922 0)"/>
     <use xlink:href="#DejaVuSans-66" transform="translate(1239.351562 0)"/>
     <use xlink:href="#DejaVuSans-20" transform="translate(1274.556641 0)"/>
     <use xlink:href="#DejaVuSans-64" transform="translate(1306.34375 0)"/>
     <use xlink:href="#DejaVuSans-75" transform="translate(1369.820312 0)"/>
     <use xlink:href="#DejaVuSans-72" transform="translate(1433.199219 0)"/>
     <use xlink:href="#DejaVuSans-61" transform="translate(1474.3125 0)"/>
     <use xlink:href="#DejaVuSans-74" transform="translate(1535.591797 0)"/>
     <use xlink:href="#DejaVuSans-69" transform="translate(1574.800781 0)"/>
     <use xlink:href="#DejaVuSans-6f" transform="translate(1602.583984 0)"/>
     <use xlink:href="#DejaVuSans-6e" transform="translate(1663.765625 0)"/>
     <use xlink:href="#DejaVuSans-73" transform="translate(1727.144531 0)"/>
    </g>
   </g>
   <g id="text_16">
    <!-- Model Duration Distribution (img-classification) -->
    <g style="fill: #262626" transform="translate(431.354107 26.64) scale(0.18 -0.18)">
     <defs>
      <path id="DejaVuSans-Bold-4d" d="M 588 4666 
L 2119 4666 
L 3181 2169 
L 4250 4666 
L 5778 4666 
L 5778 0 
L 4641 0 
L 4641 3413 
L 3566 897 
L 2803 897 
L 1728 3413 
L 1728 0 
L 588 0 
L 588 4666 
z
" transform="scale(0.015625)"/>
      <path id="DejaVuSans-Bold-6f" d="M 2203 2784 
Q 1831 2784 1636 2517 
Q 1441 2250 1441 1747 
Q 1441 1244 1636 976 
Q 1831 709 2203 709 
Q 2569 709 2762 976 
Q 2956 1244 2956 1747 
Q 2956 2250 2762 2517 
Q 2569 2784 2203 2784 
z
M 2203 3584 
Q 3106 3584 3614 3096 
Q 4122 2609 4122 1747 
Q 4122 884 3614 396 
Q 3106 -91 2203 -91 
Q 1297 -91 786 396 
Q 275 884 275 1747 
Q 275 2609 786 3096 
Q 1297 3584 2203 3584 
z
" transform="scale(0.015625)"/>
      <path id="DejaVuSans-Bold-64" d="M 2919 2988 
L 2919 4863 
L 4044 4863 
L 4044 0 
L 2919 0 
L 2919 506 
Q 2688 197 2409 53 
Q 2131 -91 1766 -91 
Q 1119 -91 703 423 
Q 288 938 288 1747 
Q 288 2556 703 3070 
Q 1119 3584 1766 3584 
Q 2128 3584 2408 3439 
Q 2688 3294 2919 2988 
z
M 2181 722 
Q 2541 722 2730 984 
Q 2919 1247 2919 1747 
Q 2919 2247 2730 2509 
Q 2541 2772 2181 2772 
Q 1825 2772 1636 2509 
Q 1447 2247 1447 1747 
Q 1447 1247 1636 984 
Q 1825 722 2181 722 
z
" transform="scale(0.015625)"/>
      <path id="DejaVuSans-Bold-65" d="M 4031 1759 
L 4031 1441 
L 1416 1441 
Q 1456 1047 1700 850 
Q 1944 653 2381 653 
Q 2734 653 3104 758 
Q 3475 863 3866 1075 
L 3866 213 
Q 3469 63 3072 -14 
Q 2675 -91 2278 -91 
Q 1328 -91 801 392 
Q 275 875 275 1747 
Q 275 2603 792 3093 
Q 1309 3584 2216 3584 
Q 3041 3584 3536 3087 
Q 4031 2591 4031 1759 
z
M 2881 2131 
Q 2881 2450 2695 2645 
Q 2509 2841 2209 2841 
Q 1884 2841 1681 2658 
Q 1478 2475 1428 2131 
L 2881 2131 
z
" transform="scale(0.015625)"/>
      <path id="DejaVuSans-Bold-6c" d="M 538 4863 
L 1656 4863 
L 1656 0 
L 538 0 
L 538 4863 
z
" transform="scale(0.015625)"/>
      <path id="DejaVuSans-Bold-20" transform="scale(0.015625)"/>
      <path id="DejaVuSans-Bold-44" d="M 1791 3756 
L 1791 909 
L 2222 909 
Q 2959 909 3348 1275 
Q 3738 1641 3738 2338 
Q 3738 3031 3350 3393 
Q 2963 3756 2222 3756 
L 1791 3756 
z
M 588 4666 
L 1856 4666 
Q 2919 4666 3439 4514 
Q 3959 4363 4331 4000 
Q 4659 3684 4818 3271 
Q 4978 2859 4978 2338 
Q 4978 1809 4818 1395 
Q 4659 981 4331 666 
Q 3956 303 3431 151 
Q 2906 0 1856 0 
L 588 0 
L 588 4666 
z
" transform="scale(0.015625)"/>
      <path id="DejaVuSans-Bold-75" d="M 500 1363 
L 500 3500 
L 1625 3500 
L 1625 3150 
Q 1625 2866 1622 2436 
Q 1619 2006 1619 1863 
Q 1619 1441 1641 1255 
Q 1663 1069 1716 984 
Q 1784 875 1895 815 
Q 2006 756 2150 756 
Q 2500 756 2700 1025 
Q 2900 1294 2900 1772 
L 2900 3500 
L 4019 3500 
L 4019 0 
L 2900 0 
L 2900 506 
Q 2647 200 2364 54 
Q 2081 -91 1741 -91 
Q 1134 -91 817 281 
Q 500 653 500 1363 
z
" transform="scale(0.015625)"/>
      <path id="DejaVuSans-Bold-72" d="M 3138 2547 
Q 2991 2616 2845 2648 
Q 2700 2681 2553 2681 
Q 2122 2681 1889 2404 
Q 1656 2128 1656 1613 
L 1656 0 
L 538 0 
L 538 3500 
L 1656 3500 
L 1656 2925 
Q 1872 3269 2151 3426 
Q 2431 3584 2822 3584 
Q 2878 3584 2943 3579 
Q 3009 3575 3134 3559 
L 3138 2547 
z
" transform="scale(0.015625)"/>
      <path id="DejaVuSans-Bold-61" d="M 2106 1575 
Q 1756 1575 1579 1456 
Q 1403 1338 1403 1106 
Q 1403 894 1545 773 
Q 1688 653 1941 653 
Q 2256 653 2472 879 
Q 2688 1106 2688 1447 
L 2688 1575 
L 2106 1575 
z
M 3816 1997 
L 3816 0 
L 2688 0 
L 2688 519 
Q 2463 200 2181 54 
Q 1900 -91 1497 -91 
Q 953 -91 614 226 
Q 275 544 275 1050 
Q 275 1666 698 1953 
Q 1122 2241 2028 2241 
L 2688 2241 
L 2688 2328 
Q 2688 2594 2478 2717 
Q 2269 2841 1825 2841 
Q 1466 2841 1156 2769 
Q 847 2697 581 2553 
L 581 3406 
Q 941 3494 1303 3539 
Q 1666 3584 2028 3584 
Q 2975 3584 3395 3211 
Q 3816 2838 3816 1997 
z
" transform="scale(0.015625)"/>
      <path id="DejaVuSans-Bold-74" d="M 1759 4494 
L 1759 3500 
L 2913 3500 
L 2913 2700 
L 1759 2700 
L 1759 1216 
Q 1759 972 1856 886 
Q 1953 800 2241 800 
L 2816 800 
L 2816 0 
L 1856 0 
Q 1194 0 917 276 
Q 641 553 641 1216 
L 641 2700 
L 84 2700 
L 84 3500 
L 641 3500 
L 641 4494 
L 1759 4494 
z
" transform="scale(0.015625)"/>
      <path id="DejaVuSans-Bold-69" d="M 538 3500 
L 1656 3500 
L 1656 0 
L 538 0 
L 538 3500 
z
M 538 4863 
L 1656 4863 
L 1656 3950 
L 538 3950 
L 538 4863 
z
" transform="scale(0.015625)"/>
      <path id="DejaVuSans-Bold-6e" d="M 4056 2131 
L 4056 0 
L 2931 0 
L 2931 347 
L 2931 1631 
Q 2931 2084 2911 2256 
Q 2891 2428 2841 2509 
Q 2775 2619 2662 2680 
Q 2550 2741 2406 2741 
Q 2056 2741 1856 2470 
Q 1656 2200 1656 1722 
L 1656 0 
L 538 0 
L 538 3500 
L 1656 3500 
L 1656 2988 
Q 1909 3294 2193 3439 
Q 2478 3584 2822 3584 
Q 3428 3584 3742 3212 
Q 4056 2841 4056 2131 
z
" transform="scale(0.015625)"/>
      <path id="DejaVuSans-Bold-73" d="M 3272 3391 
L 3272 2541 
Q 2913 2691 2578 2766 
Q 2244 2841 1947 2841 
Q 1628 2841 1473 2761 
Q 1319 2681 1319 2516 
Q 1319 2381 1436 2309 
Q 1553 2238 1856 2203 
L 2053 2175 
Q 2913 2066 3209 1816 
Q 3506 1566 3506 1031 
Q 3506 472 3093 190 
Q 2681 -91 1863 -91 
Q 1516 -91 1145 -36 
Q 775 19 384 128 
L 384 978 
Q 719 816 1070 734 
Q 1422 653 1784 653 
Q 2113 653 2278 743 
Q 2444 834 2444 1013 
Q 2444 1163 2330 1236 
Q 2216 1309 1875 1350 
L 1678 1375 
Q 931 1469 631 1722 
Q 331 1975 331 2491 
Q 331 3047 712 3315 
Q 1094 3584 1881 3584 
Q 2191 3584 2531 3537 
Q 2872 3491 3272 3391 
z
" transform="scale(0.015625)"/>
      <path id="DejaVuSans-Bold-62" d="M 2400 722 
Q 2759 722 2948 984 
Q 3138 1247 3138 1747 
Q 3138 2247 2948 2509 
Q 2759 2772 2400 2772 
Q 2041 2772 1848 2508 
Q 1656 2244 1656 1747 
Q 1656 1250 1848 986 
Q 2041 722 2400 722 
z
M 1656 2988 
Q 1888 3294 2169 3439 
Q 2450 3584 2816 3584 
Q 3463 3584 3878 3070 
Q 4294 2556 4294 1747 
Q 4294 938 3878 423 
Q 3463 -91 2816 -91 
Q 2450 -91 2169 54 
Q 1888 200 1656 506 
L 1656 0 
L 538 0 
L 538 4863 
L 1656 4863 
L 1656 2988 
z
" transform="scale(0.015625)"/>
      <path id="DejaVuSans-Bold-28" d="M 2413 -844 
L 1484 -844 
Q 1006 -72 778 623 
Q 550 1319 550 2003 
Q 550 2688 779 3389 
Q 1009 4091 1484 4856 
L 2413 4856 
Q 2013 4116 1813 3408 
Q 1613 2700 1613 2009 
Q 1613 1319 1811 609 
Q 2009 -100 2413 -844 
z
" transform="scale(0.015625)"/>
      <path id="DejaVuSans-Bold-6d" d="M 3781 2919 
Q 3994 3244 4286 3414 
Q 4578 3584 4928 3584 
Q 5531 3584 5847 3212 
Q 6163 2841 6163 2131 
L 6163 0 
L 5038 0 
L 5038 1825 
Q 5041 1866 5042 1909 
Q 5044 1953 5044 2034 
Q 5044 2406 4934 2573 
Q 4825 2741 4581 2741 
Q 4263 2741 4089 2478 
Q 3916 2216 3909 1719 
L 3909 0 
L 2784 0 
L 2784 1825 
Q 2784 2406 2684 2573 
Q 2584 2741 2328 2741 
Q 2006 2741 1831 2477 
Q 1656 2213 1656 1722 
L 1656 0 
L 531 0 
L 531 3500 
L 1656 3500 
L 1656 2988 
Q 1863 3284 2130 3434 
Q 2397 3584 2719 3584 
Q 3081 3584 3359 3409 
Q 3638 3234 3781 2919 
z
" transform="scale(0.015625)"/>
      <path id="DejaVuSans-Bold-67" d="M 2919 594 
Q 2688 288 2409 144 
Q 2131 0 1766 0 
Q 1125 0 706 504 
Q 288 1009 288 1791 
Q 288 2575 706 3076 
Q 1125 3578 1766 3578 
Q 2131 3578 2409 3434 
Q 2688 3291 2919 2981 
L 2919 3500 
L 4044 3500 
L 4044 353 
Q 4044 -491 3511 -936 
Q 2978 -1381 1966 -1381 
Q 1638 -1381 1331 -1331 
Q 1025 -1281 716 -1178 
L 716 -306 
Q 1009 -475 1290 -558 
Q 1572 -641 1856 -641 
Q 2406 -641 2662 -400 
Q 2919 -159 2919 353 
L 2919 594 
z
M 2181 2772 
Q 1834 2772 1640 2515 
Q 1447 2259 1447 1791 
Q 1447 1309 1634 1061 
Q 1822 813 2181 813 
Q 2531 813 2725 1069 
Q 2919 1325 2919 1791 
Q 2919 2259 2725 2515 
Q 2531 2772 2181 2772 
z
" transform="scale(0.015625)"/>
      <path id="DejaVuSans-Bold-2d" d="M 347 2297 
L 2309 2297 
L 2309 1388 
L 347 1388 
L 347 2297 
z
" transform="scale(0.015625)"/>
      <path id="DejaVuSans-Bold-63" d="M 3366 3391 
L 3366 2478 
Q 3138 2634 2908 2709 
Q 2678 2784 2431 2784 
Q 1963 2784 1702 2511 
Q 1441 2238 1441 1747 
Q 1441 1256 1702 982 
Q 1963 709 2431 709 
Q 2694 709 2930 787 
Q 3166 866 3366 1019 
L 3366 103 
Q 3103 6 2833 -42 
Q 2563 -91 2291 -91 
Q 1344 -91 809 395 
Q 275 881 275 1747 
Q 275 2613 809 3098 
Q 1344 3584 2291 3584 
Q 2566 3584 2833 3536 
Q 3100 3488 3366 3391 
z
" transform="scale(0.015625)"/>
      <path id="DejaVuSans-Bold-66" d="M 2841 4863 
L 2841 4128 
L 2222 4128 
Q 1984 4128 1890 4042 
Q 1797 3956 1797 3744 
L 1797 3500 
L 2753 3500 
L 2753 2700 
L 1797 2700 
L 1797 0 
L 678 0 
L 678 2700 
L 122 2700 
L 122 3500 
L 678 3500 
L 678 3744 
Q 678 4316 997 4589 
Q 1316 4863 1984 4863 
L 2841 4863 
z
" transform="scale(0.015625)"/>
      <path id="DejaVuSans-Bold-29" d="M 513 -844 
Q 913 -100 1113 609 
Q 1313 1319 1313 2009 
Q 1313 2700 1113 3408 
Q 913 4116 513 4856 
L 1441 4856 
Q 1916 4091 2145 3389 
Q 2375 2688 2375 2003 
Q 2375 1319 2147 623 
Q 1919 -72 1441 -844 
L 513 -844 
z
" transform="scale(0.015625)"/>
     </defs>
     <use xlink:href="#DejaVuSans-Bold-4d"/>
     <use xlink:href="#DejaVuSans-Bold-6f" transform="translate(99.511719 0)"/>
     <use xlink:href="#DejaVuSans-Bold-64" transform="translate(168.212891 0)"/>
     <use xlink:href="#DejaVuSans-Bold-65" transform="translate(239.794922 0)"/>
     <use xlink:href="#DejaVuSans-Bold-6c" transform="translate(307.617188 0)"/>
     <use xlink:href="#DejaVuSans-Bold-20" transform="translate(341.894531 0)"/>
     <use xlink:href="#DejaVuSans-Bold-44" transform="translate(376.708984 0)"/>
     <use xlink:href="#DejaVuSans-Bold-75" transform="translate(459.716797 0)"/>
     <use xlink:href="#DejaVuSans-Bold-72" transform="translate(530.908203 0)"/>
     <use xlink:href="#DejaVuSans-Bold-61" transform="translate(580.224609 0)"/>
     <use xlink:href="#DejaVuSans-Bold-74" transform="translate(647.705078 0)"/>
     <use xlink:href="#DejaVuSans-Bold-69" transform="translate(695.507812 0)"/>
     <use xlink:href="#DejaVuSans-Bold-6f" transform="translate(729.785156 0)"/>
     <use xlink:href="#DejaVuSans-Bold-6e" transform="translate(798.486328 0)"/>
     <use xlink:href="#DejaVuSans-Bold-20" transform="translate(869.677734 0)"/>
     <use xlink:href="#DejaVuSans-Bold-44" transform="translate(904.492188 0)"/>
     <use xlink:href="#DejaVuSans-Bold-69" transform="translate(987.5 0)"/>
     <use xlink:href="#DejaVuSans-Bold-73" transform="translate(1021.777344 0)"/>
     <use xlink:href="#DejaVuSans-Bold-74" transform="translate(1081.298828 0)"/>
     <use xlink:href="#DejaVuSans-Bold-72" transform="translate(1129.101562 0)"/>
     <use xlink:href="#DejaVuSans-Bold-69" transform="translate(1178.417969 0)"/>
     <use xlink:href="#DejaVuSans-Bold-62" transform="translate(1212.695312 0)"/>
     <use xlink:href="#DejaVuSans-Bold-75" transform="translate(1284.277344 0)"/>
     <use xlink:href="#DejaVuSans-Bold-74" transform="translate(1355.46875 0)"/>
     <use xlink:href="#DejaVuSans-Bold-69" transform="translate(1403.271484 0)"/>
     <use xlink:href="#DejaVuSans-Bold-6f" transform="translate(1437.548828 0)"/>
     <use xlink:href="#DejaVuSans-Bold-6e" transform="translate(1506.25 0)"/>
     <use xlink:href="#DejaVuSans-Bold-20" transform="translate(1577.441406 0)"/>
     <use xlink:href="#DejaVuSans-Bold-28" transform="translate(1612.255859 0)"/>
     <use xlink:href="#DejaVuSans-Bold-69" transform="translate(1657.958984 0)"/>
     <use xlink:href="#DejaVuSans-Bold-6d" transform="translate(1692.236328 0)"/>
     <use xlink:href="#DejaVuSans-Bold-67" transform="translate(1796.435547 0)"/>
     <use xlink:href="#DejaVuSans-Bold-2d" transform="translate(1868.017578 0)"/>
     <use xlink:href="#DejaVuSans-Bold-63" transform="translate(1909.521484 0)"/>
     <use xlink:href="#DejaVuSans-Bold-6c" transform="translate(1968.798828 0)"/>
     <use xlink:href="#DejaVuSans-Bold-61" transform="translate(2003.076172 0)"/>
     <use xlink:href="#DejaVuSans-Bold-73" transform="translate(2070.556641 0)"/>
     <use xlink:href="#DejaVuSans-Bold-73" transform="translate(2130.078125 0)"/>
     <use xlink:href="#DejaVuSans-Bold-69" transform="translate(2189.599609 0)"/>
     <use xlink:href="#DejaVuSans-Bold-66" transform="translate(2223.876953 0)"/>
     <use xlink:href="#DejaVuSans-Bold-69" transform="translate(2267.382812 0)"/>
     <use xlink:href="#DejaVuSans-Bold-63" transform="translate(2301.660156 0)"/>
     <use xlink:href="#DejaVuSans-Bold-61" transform="translate(2360.9375 0)"/>
     <use xlink:href="#DejaVuSans-Bold-74" transform="translate(2428.417969 0)"/>
     <use xlink:href="#DejaVuSans-Bold-69" transform="translate(2476.220703 0)"/>
     <use xlink:href="#DejaVuSans-Bold-6f" transform="translate(2510.498047 0)"/>
     <use xlink:href="#DejaVuSans-Bold-6e" transform="translate(2579.199219 0)"/>
     <use xlink:href="#DejaVuSans-Bold-29" transform="translate(2650.390625 0)"/>
    </g>
   </g>
  </g>
 </g>
 <defs>
  <clipPath id="p38db49a5cb">
   <rect x="64.965088" y="32.64" width="1218.074912" height="577.152789"/>
  </clipPath>
 </defs>
</svg>
