<?xml version="1.0" encoding="utf-8" standalone="no"?>
<!DOCTYPE svg PUBLIC "-//W3C//DTD SVG 1.1//EN"
  "http://www.w3.org/Graphics/SVG/1.1/DTD/svg11.dtd">
<svg xmlns:xlink="http://www.w3.org/1999/xlink" width="1296pt" height="720pt" viewBox="0 0 1296 720" xmlns="http://www.w3.org/2000/svg" version="1.1">
 <metadata>
  <rdf:RDF xmlns:dc="http://purl.org/dc/elements/1.1/" xmlns:cc="http://creativecommons.org/ns#" xmlns:rdf="http://www.w3.org/1999/02/22-rdf-syntax-ns#">
   <cc:Work>
    <dc:type rdf:resource="http://purl.org/dc/dcmitype/StillImage"/>
    <dc:date>2025-01-27T01:14:46.172572</dc:date>
    <dc:format>image/svg+xml</dc:format>
    <dc:creator>
     <cc:Agent>
      <dc:title>Matplotlib v3.10.0, https://matplotlib.org/</dc:title>
     </cc:Agent>
    </dc:creator>
   </cc:Work>
  </rdf:RDF>
 </metadata>
 <defs>
  <style type="text/css">*{stroke-linejoin: round; stroke-linecap: butt}</style>
 </defs>
 <g id="figure_1">
  <g id="patch_1">
   <path d="M 0 720 
L 1296 720 
L 1296 0 
L 0 0 
z
" style="fill: #ffffff"/>
  </g>
  <g id="axes_1">
   <g id="patch_2">
    <path d="M 61.4656 618.785938 
L 1283.04 618.785938 
L 1283.04 31.92 
L 61.4656 31.92 
z
" style="fill: #ffffff"/>
   </g>
   <g id="matplotlib.axis_1">
    <g id="xtick_1">
     <g id="line2d_1">
      <path d="M 148.720914 618.785938 
L 148.720914 31.92 
" clip-path="url(#p0ec3247202)" style="fill: none; stroke-dasharray: 3.7,1.6; stroke-dashoffset: 0; stroke: #cccccc; stroke-opacity: 0.5"/>
     </g>
     <g id="text_1">
      <!-- celeba-gender -->
      <g style="fill: #262626" transform="translate(123.741705 688.605682) rotate(-45) scale(0.12 -0.12)">
       <defs>
        <path id="ArialMT-63" d="M 2588 1216 
L 3141 1144 
Q 3050 572 2676 248 
Q 2303 -75 1759 -75 
Q 1078 -75 664 370 
Q 250 816 250 1647 
Q 250 2184 428 2587 
Q 606 2991 970 3192 
Q 1334 3394 1763 3394 
Q 2303 3394 2647 3120 
Q 2991 2847 3088 2344 
L 2541 2259 
Q 2463 2594 2264 2762 
Q 2066 2931 1784 2931 
Q 1359 2931 1093 2626 
Q 828 2322 828 1663 
Q 828 994 1084 691 
Q 1341 388 1753 388 
Q 2084 388 2306 591 
Q 2528 794 2588 1216 
z
" transform="scale(0.015625)"/>
        <path id="ArialMT-65" d="M 2694 1069 
L 3275 997 
Q 3138 488 2766 206 
Q 2394 -75 1816 -75 
Q 1088 -75 661 373 
Q 234 822 234 1631 
Q 234 2469 665 2931 
Q 1097 3394 1784 3394 
Q 2450 3394 2872 2941 
Q 3294 2488 3294 1666 
Q 3294 1616 3291 1516 
L 816 1516 
Q 847 969 1125 678 
Q 1403 388 1819 388 
Q 2128 388 2347 550 
Q 2566 713 2694 1069 
z
M 847 1978 
L 2700 1978 
Q 2663 2397 2488 2606 
Q 2219 2931 1791 2931 
Q 1403 2931 1139 2672 
Q 875 2413 847 1978 
z
" transform="scale(0.015625)"/>
        <path id="ArialMT-6c" d="M 409 0 
L 409 4581 
L 972 4581 
L 972 0 
L 409 0 
z
" transform="scale(0.015625)"/>
        <path id="ArialMT-62" d="M 941 0 
L 419 0 
L 419 4581 
L 981 4581 
L 981 2947 
Q 1338 3394 1891 3394 
Q 2197 3394 2470 3270 
Q 2744 3147 2920 2923 
Q 3097 2700 3197 2384 
Q 3297 2069 3297 1709 
Q 3297 856 2875 390 
Q 2453 -75 1863 -75 
Q 1275 -75 941 416 
L 941 0 
z
M 934 1684 
Q 934 1088 1097 822 
Q 1363 388 1816 388 
Q 2184 388 2453 708 
Q 2722 1028 2722 1663 
Q 2722 2313 2464 2622 
Q 2206 2931 1841 2931 
Q 1472 2931 1203 2611 
Q 934 2291 934 1684 
z
" transform="scale(0.015625)"/>
        <path id="ArialMT-61" d="M 2588 409 
Q 2275 144 1986 34 
Q 1697 -75 1366 -75 
Q 819 -75 525 192 
Q 231 459 231 875 
Q 231 1119 342 1320 
Q 453 1522 633 1644 
Q 813 1766 1038 1828 
Q 1203 1872 1538 1913 
Q 2219 1994 2541 2106 
Q 2544 2222 2544 2253 
Q 2544 2597 2384 2738 
Q 2169 2928 1744 2928 
Q 1347 2928 1158 2789 
Q 969 2650 878 2297 
L 328 2372 
Q 403 2725 575 2942 
Q 747 3159 1072 3276 
Q 1397 3394 1825 3394 
Q 2250 3394 2515 3294 
Q 2781 3194 2906 3042 
Q 3031 2891 3081 2659 
Q 3109 2516 3109 2141 
L 3109 1391 
Q 3109 606 3145 398 
Q 3181 191 3288 0 
L 2700 0 
Q 2613 175 2588 409 
z
M 2541 1666 
Q 2234 1541 1622 1453 
Q 1275 1403 1131 1340 
Q 988 1278 909 1158 
Q 831 1038 831 891 
Q 831 666 1001 516 
Q 1172 366 1500 366 
Q 1825 366 2078 508 
Q 2331 650 2450 897 
Q 2541 1088 2541 1459 
L 2541 1666 
z
" transform="scale(0.015625)"/>
        <path id="ArialMT-2d" d="M 203 1375 
L 203 1941 
L 1931 1941 
L 1931 1375 
L 203 1375 
z
" transform="scale(0.015625)"/>
        <path id="ArialMT-67" d="M 319 -275 
L 866 -356 
Q 900 -609 1056 -725 
Q 1266 -881 1628 -881 
Q 2019 -881 2231 -725 
Q 2444 -569 2519 -288 
Q 2563 -116 2559 434 
Q 2191 0 1641 0 
Q 956 0 581 494 
Q 206 988 206 1678 
Q 206 2153 378 2554 
Q 550 2956 876 3175 
Q 1203 3394 1644 3394 
Q 2231 3394 2613 2919 
L 2613 3319 
L 3131 3319 
L 3131 450 
Q 3131 -325 2973 -648 
Q 2816 -972 2473 -1159 
Q 2131 -1347 1631 -1347 
Q 1038 -1347 672 -1080 
Q 306 -813 319 -275 
z
M 784 1719 
Q 784 1066 1043 766 
Q 1303 466 1694 466 
Q 2081 466 2343 764 
Q 2606 1063 2606 1700 
Q 2606 2309 2336 2618 
Q 2066 2928 1684 2928 
Q 1309 2928 1046 2623 
Q 784 2319 784 1719 
z
" transform="scale(0.015625)"/>
        <path id="ArialMT-6e" d="M 422 0 
L 422 3319 
L 928 3319 
L 928 2847 
Q 1294 3394 1984 3394 
Q 2284 3394 2536 3286 
Q 2788 3178 2913 3003 
Q 3038 2828 3088 2588 
Q 3119 2431 3119 2041 
L 3119 0 
L 2556 0 
L 2556 2019 
Q 2556 2363 2490 2533 
Q 2425 2703 2258 2804 
Q 2091 2906 1866 2906 
Q 1506 2906 1245 2678 
Q 984 2450 984 1813 
L 984 0 
L 422 0 
z
" transform="scale(0.015625)"/>
        <path id="ArialMT-64" d="M 2575 0 
L 2575 419 
Q 2259 -75 1647 -75 
Q 1250 -75 917 144 
Q 584 363 401 755 
Q 219 1147 219 1656 
Q 219 2153 384 2558 
Q 550 2963 881 3178 
Q 1213 3394 1622 3394 
Q 1922 3394 2156 3267 
Q 2391 3141 2538 2938 
L 2538 4581 
L 3097 4581 
L 3097 0 
L 2575 0 
z
M 797 1656 
Q 797 1019 1065 703 
Q 1334 388 1700 388 
Q 2069 388 2326 689 
Q 2584 991 2584 1609 
Q 2584 2291 2321 2609 
Q 2059 2928 1675 2928 
Q 1300 2928 1048 2622 
Q 797 2316 797 1656 
z
" transform="scale(0.015625)"/>
        <path id="ArialMT-72" d="M 416 0 
L 416 3319 
L 922 3319 
L 922 2816 
Q 1116 3169 1280 3281 
Q 1444 3394 1641 3394 
Q 1925 3394 2219 3213 
L 2025 2691 
Q 1819 2813 1613 2813 
Q 1428 2813 1281 2702 
Q 1134 2591 1072 2394 
Q 978 2094 978 1738 
L 978 0 
L 416 0 
z
" transform="scale(0.015625)"/>
       </defs>
       <use xlink:href="#ArialMT-63"/>
       <use xlink:href="#ArialMT-65" transform="translate(50 0)"/>
       <use xlink:href="#ArialMT-6c" transform="translate(105.615234 0)"/>
       <use xlink:href="#ArialMT-65" transform="translate(127.832031 0)"/>
       <use xlink:href="#ArialMT-62" transform="translate(183.447266 0)"/>
       <use xlink:href="#ArialMT-61" transform="translate(239.0625 0)"/>
       <use xlink:href="#ArialMT-2d" transform="translate(294.677734 0)"/>
       <use xlink:href="#ArialMT-67" transform="translate(327.978516 0)"/>
       <use xlink:href="#ArialMT-65" transform="translate(383.59375 0)"/>
       <use xlink:href="#ArialMT-6e" transform="translate(439.208984 0)"/>
       <use xlink:href="#ArialMT-64" transform="translate(494.824219 0)"/>
       <use xlink:href="#ArialMT-65" transform="translate(550.439453 0)"/>
       <use xlink:href="#ArialMT-72" transform="translate(606.054688 0)"/>
      </g>
     </g>
    </g>
    <g id="xtick_2">
     <g id="line2d_2">
      <path d="M 323.231543 618.785938 
L 323.231543 31.92 
" clip-path="url(#p0ec3247202)" style="fill: none; stroke-dasharray: 3.7,1.6; stroke-dashoffset: 0; stroke: #cccccc; stroke-opacity: 0.5"/>
     </g>
     <g id="text_2">
      <!-- cifar-10 -->
      <g style="fill: #262626" transform="translate(311.279229 662.651328) rotate(-45) scale(0.12 -0.12)">
       <defs>
        <path id="ArialMT-69" d="M 425 3934 
L 425 4581 
L 988 4581 
L 988 3934 
L 425 3934 
z
M 425 0 
L 425 3319 
L 988 3319 
L 988 0 
L 425 0 
z
" transform="scale(0.015625)"/>
        <path id="ArialMT-66" d="M 556 0 
L 556 2881 
L 59 2881 
L 59 3319 
L 556 3319 
L 556 3672 
Q 556 4006 616 4169 
Q 697 4388 901 4523 
Q 1106 4659 1475 4659 
Q 1713 4659 2000 4603 
L 1916 4113 
Q 1741 4144 1584 4144 
Q 1328 4144 1222 4034 
Q 1116 3925 1116 3625 
L 1116 3319 
L 1763 3319 
L 1763 2881 
L 1116 2881 
L 1116 0 
L 556 0 
z
" transform="scale(0.015625)"/>
        <path id="ArialMT-31" d="M 2384 0 
L 1822 0 
L 1822 3584 
Q 1619 3391 1289 3197 
Q 959 3003 697 2906 
L 697 3450 
Q 1169 3672 1522 3987 
Q 1875 4303 2022 4600 
L 2384 4600 
L 2384 0 
z
" transform="scale(0.015625)"/>
        <path id="ArialMT-30" d="M 266 2259 
Q 266 3072 433 3567 
Q 600 4063 929 4331 
Q 1259 4600 1759 4600 
Q 2128 4600 2406 4451 
Q 2684 4303 2865 4023 
Q 3047 3744 3150 3342 
Q 3253 2941 3253 2259 
Q 3253 1453 3087 958 
Q 2922 463 2592 192 
Q 2263 -78 1759 -78 
Q 1097 -78 719 397 
Q 266 969 266 2259 
z
M 844 2259 
Q 844 1131 1108 757 
Q 1372 384 1759 384 
Q 2147 384 2411 759 
Q 2675 1134 2675 2259 
Q 2675 3391 2411 3762 
Q 2147 4134 1753 4134 
Q 1366 4134 1134 3806 
Q 844 3388 844 2259 
z
" transform="scale(0.015625)"/>
       </defs>
       <use xlink:href="#ArialMT-63"/>
       <use xlink:href="#ArialMT-69" transform="translate(50 0)"/>
       <use xlink:href="#ArialMT-66" transform="translate(72.216797 0)"/>
       <use xlink:href="#ArialMT-61" transform="translate(100 0)"/>
       <use xlink:href="#ArialMT-72" transform="translate(155.615234 0)"/>
       <use xlink:href="#ArialMT-2d" transform="translate(188.916016 0)"/>
       <use xlink:href="#ArialMT-31" transform="translate(222.216797 0)"/>
       <use xlink:href="#ArialMT-30" transform="translate(277.832031 0)"/>
      </g>
     </g>
    </g>
    <g id="xtick_3">
     <g id="line2d_3">
      <path d="M 497.742172 618.785938 
L 497.742172 31.92 
" clip-path="url(#p0ec3247202)" style="fill: none; stroke-dasharray: 3.7,1.6; stroke-dashoffset: 0; stroke: #cccccc; stroke-opacity: 0.5"/>
     </g>
     <g id="text_3">
      <!-- cifar-100 -->
      <g style="fill: #262626" transform="translate(483.430551 667.36994) rotate(-45) scale(0.12 -0.12)">
       <use xlink:href="#ArialMT-63"/>
       <use xlink:href="#ArialMT-69" transform="translate(50 0)"/>
       <use xlink:href="#ArialMT-66" transform="translate(72.216797 0)"/>
       <use xlink:href="#ArialMT-61" transform="translate(100 0)"/>
       <use xlink:href="#ArialMT-72" transform="translate(155.615234 0)"/>
       <use xlink:href="#ArialMT-2d" transform="translate(188.916016 0)"/>
       <use xlink:href="#ArialMT-31" transform="translate(222.216797 0)"/>
       <use xlink:href="#ArialMT-30" transform="translate(277.832031 0)"/>
       <use xlink:href="#ArialMT-30" transform="translate(333.447266 0)"/>
      </g>
     </g>
    </g>
    <g id="xtick_4">
     <g id="line2d_4">
      <path d="M 672.2528 618.785938 
L 672.2528 31.92 
" clip-path="url(#p0ec3247202)" style="fill: none; stroke-dasharray: 3.7,1.6; stroke-dashoffset: 0; stroke: #cccccc; stroke-opacity: 0.5"/>
     </g>
     <g id="text_4">
      <!-- imagenette -->
      <g style="fill: #262626" transform="translate(653.406858 676.339147) rotate(-45) scale(0.12 -0.12)">
       <defs>
        <path id="ArialMT-6d" d="M 422 0 
L 422 3319 
L 925 3319 
L 925 2853 
Q 1081 3097 1340 3245 
Q 1600 3394 1931 3394 
Q 2300 3394 2536 3241 
Q 2772 3088 2869 2813 
Q 3263 3394 3894 3394 
Q 4388 3394 4653 3120 
Q 4919 2847 4919 2278 
L 4919 0 
L 4359 0 
L 4359 2091 
Q 4359 2428 4304 2576 
Q 4250 2725 4106 2815 
Q 3963 2906 3769 2906 
Q 3419 2906 3187 2673 
Q 2956 2441 2956 1928 
L 2956 0 
L 2394 0 
L 2394 2156 
Q 2394 2531 2256 2718 
Q 2119 2906 1806 2906 
Q 1569 2906 1367 2781 
Q 1166 2656 1075 2415 
Q 984 2175 984 1722 
L 984 0 
L 422 0 
z
" transform="scale(0.015625)"/>
        <path id="ArialMT-74" d="M 1650 503 
L 1731 6 
Q 1494 -44 1306 -44 
Q 1000 -44 831 53 
Q 663 150 594 308 
Q 525 466 525 972 
L 525 2881 
L 113 2881 
L 113 3319 
L 525 3319 
L 525 4141 
L 1084 4478 
L 1084 3319 
L 1650 3319 
L 1650 2881 
L 1084 2881 
L 1084 941 
Q 1084 700 1114 631 
Q 1144 563 1211 522 
Q 1278 481 1403 481 
Q 1497 481 1650 503 
z
" transform="scale(0.015625)"/>
       </defs>
       <use xlink:href="#ArialMT-69"/>
       <use xlink:href="#ArialMT-6d" transform="translate(22.216797 0)"/>
       <use xlink:href="#ArialMT-61" transform="translate(105.517578 0)"/>
       <use xlink:href="#ArialMT-67" transform="translate(161.132812 0)"/>
       <use xlink:href="#ArialMT-65" transform="translate(216.748047 0)"/>
       <use xlink:href="#ArialMT-6e" transform="translate(272.363281 0)"/>
       <use xlink:href="#ArialMT-65" transform="translate(327.978516 0)"/>
       <use xlink:href="#ArialMT-74" transform="translate(383.59375 0)"/>
       <use xlink:href="#ArialMT-74" transform="translate(411.376953 0)"/>
       <use xlink:href="#ArialMT-65" transform="translate(439.160156 0)"/>
      </g>
     </g>
    </g>
    <g id="xtick_5">
     <g id="line2d_5">
      <path d="M 846.763429 618.785938 
L 846.763429 31.92 
" clip-path="url(#p0ec3247202)" style="fill: none; stroke-dasharray: 3.7,1.6; stroke-dashoffset: 0; stroke: #cccccc; stroke-opacity: 0.5"/>
     </g>
     <g id="text_5">
      <!-- mnist -->
      <g style="fill: #262626" transform="translate(838.821073 654.631411) rotate(-45) scale(0.12 -0.12)">
       <defs>
        <path id="ArialMT-73" d="M 197 991 
L 753 1078 
Q 800 744 1014 566 
Q 1228 388 1613 388 
Q 2000 388 2187 545 
Q 2375 703 2375 916 
Q 2375 1106 2209 1216 
Q 2094 1291 1634 1406 
Q 1016 1563 777 1677 
Q 538 1791 414 1992 
Q 291 2194 291 2438 
Q 291 2659 392 2848 
Q 494 3038 669 3163 
Q 800 3259 1026 3326 
Q 1253 3394 1513 3394 
Q 1903 3394 2198 3281 
Q 2494 3169 2634 2976 
Q 2775 2784 2828 2463 
L 2278 2388 
Q 2241 2644 2061 2787 
Q 1881 2931 1553 2931 
Q 1166 2931 1000 2803 
Q 834 2675 834 2503 
Q 834 2394 903 2306 
Q 972 2216 1119 2156 
Q 1203 2125 1616 2013 
Q 2213 1853 2448 1751 
Q 2684 1650 2818 1456 
Q 2953 1263 2953 975 
Q 2953 694 2789 445 
Q 2625 197 2315 61 
Q 2006 -75 1616 -75 
Q 969 -75 630 194 
Q 291 463 197 991 
z
" transform="scale(0.015625)"/>
       </defs>
       <use xlink:href="#ArialMT-6d"/>
       <use xlink:href="#ArialMT-6e" transform="translate(83.300781 0)"/>
       <use xlink:href="#ArialMT-69" transform="translate(138.916016 0)"/>
       <use xlink:href="#ArialMT-73" transform="translate(161.132812 0)"/>
       <use xlink:href="#ArialMT-74" transform="translate(211.132812 0)"/>
      </g>
     </g>
    </g>
    <g id="xtick_6">
     <g id="line2d_6">
      <path d="M 1021.274057 618.785938 
L 1021.274057 31.92 
" clip-path="url(#p0ec3247202)" style="fill: none; stroke-dasharray: 3.7,1.6; stroke-dashoffset: 0; stroke: #cccccc; stroke-opacity: 0.5"/>
     </g>
     <g id="text_6">
      <!-- places365 -->
      <g style="fill: #262626" transform="translate(1004.139092 673.067011) rotate(-45) scale(0.12 -0.12)">
       <defs>
        <path id="ArialMT-70" d="M 422 -1272 
L 422 3319 
L 934 3319 
L 934 2888 
Q 1116 3141 1344 3267 
Q 1572 3394 1897 3394 
Q 2322 3394 2647 3175 
Q 2972 2956 3137 2557 
Q 3303 2159 3303 1684 
Q 3303 1175 3120 767 
Q 2938 359 2589 142 
Q 2241 -75 1856 -75 
Q 1575 -75 1351 44 
Q 1128 163 984 344 
L 984 -1272 
L 422 -1272 
z
M 931 1641 
Q 931 1000 1190 694 
Q 1450 388 1819 388 
Q 2194 388 2461 705 
Q 2728 1022 2728 1688 
Q 2728 2322 2467 2637 
Q 2206 2953 1844 2953 
Q 1484 2953 1207 2617 
Q 931 2281 931 1641 
z
" transform="scale(0.015625)"/>
        <path id="ArialMT-33" d="M 269 1209 
L 831 1284 
Q 928 806 1161 595 
Q 1394 384 1728 384 
Q 2125 384 2398 659 
Q 2672 934 2672 1341 
Q 2672 1728 2419 1979 
Q 2166 2231 1775 2231 
Q 1616 2231 1378 2169 
L 1441 2663 
Q 1497 2656 1531 2656 
Q 1891 2656 2178 2843 
Q 2466 3031 2466 3422 
Q 2466 3731 2256 3934 
Q 2047 4138 1716 4138 
Q 1388 4138 1169 3931 
Q 950 3725 888 3313 
L 325 3413 
Q 428 3978 793 4289 
Q 1159 4600 1703 4600 
Q 2078 4600 2393 4439 
Q 2709 4278 2876 4000 
Q 3044 3722 3044 3409 
Q 3044 3113 2884 2869 
Q 2725 2625 2413 2481 
Q 2819 2388 3044 2092 
Q 3269 1797 3269 1353 
Q 3269 753 2831 336 
Q 2394 -81 1725 -81 
Q 1122 -81 723 278 
Q 325 638 269 1209 
z
" transform="scale(0.015625)"/>
        <path id="ArialMT-36" d="M 3184 3459 
L 2625 3416 
Q 2550 3747 2413 3897 
Q 2184 4138 1850 4138 
Q 1581 4138 1378 3988 
Q 1113 3794 959 3422 
Q 806 3050 800 2363 
Q 1003 2672 1297 2822 
Q 1591 2972 1913 2972 
Q 2475 2972 2870 2558 
Q 3266 2144 3266 1488 
Q 3266 1056 3080 686 
Q 2894 316 2569 119 
Q 2244 -78 1831 -78 
Q 1128 -78 684 439 
Q 241 956 241 2144 
Q 241 3472 731 4075 
Q 1159 4600 1884 4600 
Q 2425 4600 2770 4297 
Q 3116 3994 3184 3459 
z
M 888 1484 
Q 888 1194 1011 928 
Q 1134 663 1356 523 
Q 1578 384 1822 384 
Q 2178 384 2434 671 
Q 2691 959 2691 1453 
Q 2691 1928 2437 2201 
Q 2184 2475 1800 2475 
Q 1419 2475 1153 2201 
Q 888 1928 888 1484 
z
" transform="scale(0.015625)"/>
        <path id="ArialMT-35" d="M 266 1200 
L 856 1250 
Q 922 819 1161 601 
Q 1400 384 1738 384 
Q 2144 384 2425 690 
Q 2706 997 2706 1503 
Q 2706 1984 2436 2262 
Q 2166 2541 1728 2541 
Q 1456 2541 1237 2417 
Q 1019 2294 894 2097 
L 366 2166 
L 809 4519 
L 3088 4519 
L 3088 3981 
L 1259 3981 
L 1013 2750 
Q 1425 3038 1878 3038 
Q 2478 3038 2890 2622 
Q 3303 2206 3303 1553 
Q 3303 931 2941 478 
Q 2500 -78 1738 -78 
Q 1113 -78 717 272 
Q 322 622 266 1200 
z
" transform="scale(0.015625)"/>
       </defs>
       <use xlink:href="#ArialMT-70"/>
       <use xlink:href="#ArialMT-6c" transform="translate(55.615234 0)"/>
       <use xlink:href="#ArialMT-61" transform="translate(77.832031 0)"/>
       <use xlink:href="#ArialMT-63" transform="translate(133.447266 0)"/>
       <use xlink:href="#ArialMT-65" transform="translate(183.447266 0)"/>
       <use xlink:href="#ArialMT-73" transform="translate(239.0625 0)"/>
       <use xlink:href="#ArialMT-33" transform="translate(289.0625 0)"/>
       <use xlink:href="#ArialMT-36" transform="translate(344.677734 0)"/>
       <use xlink:href="#ArialMT-35" transform="translate(400.292969 0)"/>
      </g>
     </g>
    </g>
    <g id="xtick_7">
     <g id="line2d_7">
      <path d="M 1195.784686 618.785938 
L 1195.784686 31.92 
" clip-path="url(#p0ec3247202)" style="fill: none; stroke-dasharray: 3.7,1.6; stroke-dashoffset: 0; stroke: #cccccc; stroke-opacity: 0.5"/>
     </g>
     <g id="text_7">
      <!-- svhn -->
      <g style="fill: #262626" transform="translate(1189.017011 652.282049) rotate(-45) scale(0.12 -0.12)">
       <defs>
        <path id="ArialMT-76" d="M 1344 0 
L 81 3319 
L 675 3319 
L 1388 1331 
Q 1503 1009 1600 663 
Q 1675 925 1809 1294 
L 2547 3319 
L 3125 3319 
L 1869 0 
L 1344 0 
z
" transform="scale(0.015625)"/>
        <path id="ArialMT-68" d="M 422 0 
L 422 4581 
L 984 4581 
L 984 2938 
Q 1378 3394 1978 3394 
Q 2347 3394 2619 3248 
Q 2891 3103 3008 2847 
Q 3125 2591 3125 2103 
L 3125 0 
L 2563 0 
L 2563 2103 
Q 2563 2525 2380 2717 
Q 2197 2909 1863 2909 
Q 1613 2909 1392 2779 
Q 1172 2650 1078 2428 
Q 984 2206 984 1816 
L 984 0 
L 422 0 
z
" transform="scale(0.015625)"/>
       </defs>
       <use xlink:href="#ArialMT-73"/>
       <use xlink:href="#ArialMT-76" transform="translate(50 0)"/>
       <use xlink:href="#ArialMT-68" transform="translate(100 0)"/>
       <use xlink:href="#ArialMT-6e" transform="translate(155.615234 0)"/>
      </g>
     </g>
    </g>
    <g id="text_8">
     <!-- Dataset -->
     <g style="fill: #262626" transform="translate(648.130144 704.412506) scale(0.14 -0.14)">
      <defs>
       <path id="ArialMT-44" d="M 494 0 
L 494 4581 
L 2072 4581 
Q 2606 4581 2888 4516 
Q 3281 4425 3559 4188 
Q 3922 3881 4101 3404 
Q 4281 2928 4281 2316 
Q 4281 1794 4159 1391 
Q 4038 988 3847 723 
Q 3656 459 3429 307 
Q 3203 156 2883 78 
Q 2563 0 2147 0 
L 494 0 
z
M 1100 541 
L 2078 541 
Q 2531 541 2789 625 
Q 3047 709 3200 863 
Q 3416 1078 3536 1442 
Q 3656 1806 3656 2325 
Q 3656 3044 3420 3430 
Q 3184 3816 2847 3947 
Q 2603 4041 2063 4041 
L 1100 4041 
L 1100 541 
z
" transform="scale(0.015625)"/>
      </defs>
      <use xlink:href="#ArialMT-44"/>
      <use xlink:href="#ArialMT-61" transform="translate(72.216797 0)"/>
      <use xlink:href="#ArialMT-74" transform="translate(127.832031 0)"/>
      <use xlink:href="#ArialMT-61" transform="translate(155.615234 0)"/>
      <use xlink:href="#ArialMT-73" transform="translate(211.230469 0)"/>
      <use xlink:href="#ArialMT-65" transform="translate(261.230469 0)"/>
      <use xlink:href="#ArialMT-74" transform="translate(316.845703 0)"/>
     </g>
    </g>
   </g>
   <g id="matplotlib.axis_2">
    <g id="ytick_1">
     <g id="line2d_8">
      <path d="M 61.4656 590.988216 
L 1283.04 590.988216 
" clip-path="url(#p0ec3247202)" style="fill: none; stroke-dasharray: 3.7,1.6; stroke-dashoffset: 0; stroke: #cccccc; stroke-opacity: 0.5"/>
     </g>
     <g id="text_9">
      <!-- $\mathdefault{10^{9}}$ -->
      <g style="fill: #262626" transform="translate(34.6956 596.660091) scale(0.11 -0.11)">
       <defs>
        <path id="ArialMT-39" d="M 350 1059 
L 891 1109 
Q 959 728 1153 556 
Q 1347 384 1650 384 
Q 1909 384 2104 503 
Q 2300 622 2425 820 
Q 2550 1019 2634 1356 
Q 2719 1694 2719 2044 
Q 2719 2081 2716 2156 
Q 2547 1888 2255 1720 
Q 1963 1553 1622 1553 
Q 1053 1553 659 1965 
Q 266 2378 266 3053 
Q 266 3750 677 4175 
Q 1088 4600 1706 4600 
Q 2153 4600 2523 4359 
Q 2894 4119 3086 3673 
Q 3278 3228 3278 2384 
Q 3278 1506 3087 986 
Q 2897 466 2520 194 
Q 2144 -78 1638 -78 
Q 1100 -78 759 220 
Q 419 519 350 1059 
z
M 2653 3081 
Q 2653 3566 2395 3850 
Q 2138 4134 1775 4134 
Q 1400 4134 1122 3828 
Q 844 3522 844 3034 
Q 844 2597 1108 2323 
Q 1372 2050 1759 2050 
Q 2150 2050 2401 2323 
Q 2653 2597 2653 3081 
z
" transform="scale(0.015625)"/>
       </defs>
       <use xlink:href="#ArialMT-31" transform="translate(0 0.99375)"/>
       <use xlink:href="#ArialMT-30" transform="translate(55.615234 0.99375)"/>
       <use xlink:href="#ArialMT-39" transform="translate(112.972813 70.6875) scale(0.7)"/>
      </g>
     </g>
    </g>
    <g id="ytick_2">
     <g id="line2d_9">
      <path d="M 61.4656 429.667715 
L 1283.04 429.667715 
" clip-path="url(#p0ec3247202)" style="fill: none; stroke-dasharray: 3.7,1.6; stroke-dashoffset: 0; stroke: #cccccc; stroke-opacity: 0.5"/>
     </g>
     <g id="text_10">
      <!-- $\mathdefault{10^{10}}$ -->
      <g style="fill: #262626" transform="translate(30.4056 435.33959) scale(0.11 -0.11)">
       <use xlink:href="#ArialMT-31" transform="translate(0 0.99375)"/>
       <use xlink:href="#ArialMT-30" transform="translate(55.615234 0.99375)"/>
       <use xlink:href="#ArialMT-31" transform="translate(112.972813 70.6875) scale(0.7)"/>
       <use xlink:href="#ArialMT-30" transform="translate(151.903477 70.6875) scale(0.7)"/>
      </g>
     </g>
    </g>
    <g id="ytick_3">
     <g id="line2d_10">
      <path d="M 61.4656 268.347214 
L 1283.04 268.347214 
" clip-path="url(#p0ec3247202)" style="fill: none; stroke-dasharray: 3.7,1.6; stroke-dashoffset: 0; stroke: #cccccc; stroke-opacity: 0.5"/>
     </g>
     <g id="text_11">
      <!-- $\mathdefault{10^{11}}$ -->
      <g style="fill: #262626" transform="translate(30.4056 274.019089) scale(0.11 -0.11)">
       <use xlink:href="#ArialMT-31" transform="translate(0 0.99375)"/>
       <use xlink:href="#ArialMT-30" transform="translate(55.615234 0.99375)"/>
       <use xlink:href="#ArialMT-31" transform="translate(112.972813 70.6875) scale(0.7)"/>
       <use xlink:href="#ArialMT-31" transform="translate(151.903477 70.6875) scale(0.7)"/>
      </g>
     </g>
    </g>
    <g id="ytick_4">
     <g id="line2d_11">
      <path d="M 61.4656 107.026713 
L 1283.04 107.026713 
" clip-path="url(#p0ec3247202)" style="fill: none; stroke-dasharray: 3.7,1.6; stroke-dashoffset: 0; stroke: #cccccc; stroke-opacity: 0.5"/>
     </g>
     <g id="text_12">
      <!-- $\mathdefault{10^{12}}$ -->
      <g style="fill: #262626" transform="translate(30.4056 112.698588) scale(0.11 -0.11)">
       <defs>
        <path id="ArialMT-32" d="M 3222 541 
L 3222 0 
L 194 0 
Q 188 203 259 391 
Q 375 700 629 1000 
Q 884 1300 1366 1694 
Q 2113 2306 2375 2664 
Q 2638 3022 2638 3341 
Q 2638 3675 2398 3904 
Q 2159 4134 1775 4134 
Q 1369 4134 1125 3890 
Q 881 3647 878 3216 
L 300 3275 
Q 359 3922 746 4261 
Q 1134 4600 1788 4600 
Q 2447 4600 2831 4234 
Q 3216 3869 3216 3328 
Q 3216 3053 3103 2787 
Q 2991 2522 2730 2228 
Q 2469 1934 1863 1422 
Q 1356 997 1212 845 
Q 1069 694 975 541 
L 3222 541 
z
" transform="scale(0.015625)"/>
       </defs>
       <use xlink:href="#ArialMT-31" transform="translate(0 0.99375)"/>
       <use xlink:href="#ArialMT-30" transform="translate(55.615234 0.99375)"/>
       <use xlink:href="#ArialMT-31" transform="translate(112.972813 70.6875) scale(0.7)"/>
       <use xlink:href="#ArialMT-32" transform="translate(151.903477 70.6875) scale(0.7)"/>
      </g>
     </g>
    </g>
    <g id="ytick_5"/>
    <g id="ytick_6"/>
    <g id="ytick_7"/>
    <g id="ytick_8"/>
    <g id="ytick_9"/>
    <g id="ytick_10"/>
    <g id="ytick_11"/>
    <g id="ytick_12"/>
    <g id="ytick_13"/>
    <g id="ytick_14"/>
    <g id="ytick_15"/>
    <g id="ytick_16"/>
    <g id="ytick_17"/>
    <g id="ytick_18"/>
    <g id="ytick_19"/>
    <g id="ytick_20"/>
    <g id="ytick_21"/>
    <g id="ytick_22"/>
    <g id="ytick_23"/>
    <g id="ytick_24"/>
    <g id="ytick_25"/>
    <g id="ytick_26"/>
    <g id="ytick_27"/>
    <g id="ytick_28"/>
    <g id="ytick_29"/>
    <g id="ytick_30"/>
    <g id="ytick_31"/>
    <g id="ytick_32"/>
    <g id="text_13">
     <!-- Training Time (nanoseconds) -->
     <g style="fill: #262626" transform="translate(23.459038 415.739375) rotate(-90) scale(0.14 -0.14)">
      <defs>
       <path id="ArialMT-54" d="M 1659 0 
L 1659 4041 
L 150 4041 
L 150 4581 
L 3781 4581 
L 3781 4041 
L 2266 4041 
L 2266 0 
L 1659 0 
z
" transform="scale(0.015625)"/>
       <path id="ArialMT-20" transform="scale(0.015625)"/>
       <path id="ArialMT-28" d="M 1497 -1347 
Q 1031 -759 709 28 
Q 388 816 388 1659 
Q 388 2403 628 3084 
Q 909 3875 1497 4659 
L 1900 4659 
Q 1522 4009 1400 3731 
Q 1209 3300 1100 2831 
Q 966 2247 966 1656 
Q 966 153 1900 -1347 
L 1497 -1347 
z
" transform="scale(0.015625)"/>
       <path id="ArialMT-6f" d="M 213 1659 
Q 213 2581 725 3025 
Q 1153 3394 1769 3394 
Q 2453 3394 2887 2945 
Q 3322 2497 3322 1706 
Q 3322 1066 3130 698 
Q 2938 331 2570 128 
Q 2203 -75 1769 -75 
Q 1072 -75 642 372 
Q 213 819 213 1659 
z
M 791 1659 
Q 791 1022 1069 705 
Q 1347 388 1769 388 
Q 2188 388 2466 706 
Q 2744 1025 2744 1678 
Q 2744 2294 2464 2611 
Q 2184 2928 1769 2928 
Q 1347 2928 1069 2612 
Q 791 2297 791 1659 
z
" transform="scale(0.015625)"/>
       <path id="ArialMT-29" d="M 791 -1347 
L 388 -1347 
Q 1322 153 1322 1656 
Q 1322 2244 1188 2822 
Q 1081 3291 891 3722 
Q 769 4003 388 4659 
L 791 4659 
Q 1378 3875 1659 3084 
Q 1900 2403 1900 1659 
Q 1900 816 1576 28 
Q 1253 -759 791 -1347 
z
" transform="scale(0.015625)"/>
      </defs>
      <use xlink:href="#ArialMT-54"/>
      <use xlink:href="#ArialMT-72" transform="translate(57.333984 0)"/>
      <use xlink:href="#ArialMT-61" transform="translate(90.634766 0)"/>
      <use xlink:href="#ArialMT-69" transform="translate(146.25 0)"/>
      <use xlink:href="#ArialMT-6e" transform="translate(168.466797 0)"/>
      <use xlink:href="#ArialMT-69" transform="translate(224.082031 0)"/>
      <use xlink:href="#ArialMT-6e" transform="translate(246.298828 0)"/>
      <use xlink:href="#ArialMT-67" transform="translate(301.914062 0)"/>
      <use xlink:href="#ArialMT-20" transform="translate(357.529297 0)"/>
      <use xlink:href="#ArialMT-54" transform="translate(383.5625 0)"/>
      <use xlink:href="#ArialMT-69" transform="translate(440.896484 0)"/>
      <use xlink:href="#ArialMT-6d" transform="translate(463.113281 0)"/>
      <use xlink:href="#ArialMT-65" transform="translate(546.414062 0)"/>
      <use xlink:href="#ArialMT-20" transform="translate(602.029297 0)"/>
      <use xlink:href="#ArialMT-28" transform="translate(629.8125 0)"/>
      <use xlink:href="#ArialMT-6e" transform="translate(663.113281 0)"/>
      <use xlink:href="#ArialMT-61" transform="translate(718.728516 0)"/>
      <use xlink:href="#ArialMT-6e" transform="translate(774.34375 0)"/>
      <use xlink:href="#ArialMT-6f" transform="translate(829.958984 0)"/>
      <use xlink:href="#ArialMT-73" transform="translate(885.574219 0)"/>
      <use xlink:href="#ArialMT-65" transform="translate(935.574219 0)"/>
      <use xlink:href="#ArialMT-63" transform="translate(991.189453 0)"/>
      <use xlink:href="#ArialMT-6f" transform="translate(1041.189453 0)"/>
      <use xlink:href="#ArialMT-6e" transform="translate(1096.804688 0)"/>
      <use xlink:href="#ArialMT-64" transform="translate(1152.419922 0)"/>
      <use xlink:href="#ArialMT-73" transform="translate(1208.035156 0)"/>
      <use xlink:href="#ArialMT-29" transform="translate(1258.035156 0)"/>
     </g>
    </g>
   </g>
   <g id="FillBetweenPolyCollection_1">
    <path d="M 393.035794 163363.373796 
L 386.26972 163363.373796 
L 384.013118 163363.373796 
L 381.181436 163363.373796 
L 377.690096 163363.373796 
L 373.461592 163363.373796 
L 368.432434 163363.373796 
L 362.560828 163363.373796 
L 355.834524 163363.373796 
L 348.278123 163363.373796 
L 339.959016 163363.373796 
L 330.991108 163363.373796 
L 321.535549 504.942615 
L 311.79788 423.728161 
L 302.021286 387.120421 
L 292.476037 363.198888 
L 283.445591 345.399011 
L 275.210266 331.21759 
L 268.029731 319.429128 
L 262.125806 309.341456 
L 257.667145 300.525121 
L 254.757288 292.695244 
L 253.427292 285.653121 
L 253.633736 279.254633 
L 255.262383 273.391916 
L 258.137185 267.982136 
L 262.033844 262.9603 
L 266.696622 258.274471 
L 271.856879 253.882492 
L 277.251627 249.749671 
L 282.640516 245.847122 
L 287.819856 242.150533 
L 292.632678 238.639249 
L 296.974276 235.295577 
L 300.793143 232.10424 
L 304.087663 229.05196 
L 306.899285 226.127124 
L 309.303165 223.319515 
L 311.397367 220.620095 
L 313.291737 218.020837 
L 315.097424 215.514572 
L 316.917849 213.094875 
L 318.841634 210.755965 
L 320.937775 208.492621 
L 323.253059 206.300114 
L 325.811546 204.174143 
L 328.615784 202.110789 
L 331.649322 200.106468 
L 334.88012 198.157896 
L 338.26442 196.262056 
L 341.750766 194.416168 
L 345.28388 192.617668 
L 348.808223 190.864184 
L 352.271101 189.153517 
L 355.625226 187.483625 
L 358.830686 185.85261 
L 361.856276 184.258704 
L 364.680179 182.700254 
L 367.289982 181.175717 
L 369.682071 179.68365 
L 371.860456 178.222698 
L 373.835143 176.791589 
L 375.620195 175.389128 
L 377.231675 174.014192 
L 378.685659 172.66572 
L 379.996524 171.342714 
L 381.175667 170.044228 
L 382.230786 168.769371 
L 383.165762 167.517298 
L 383.981146 166.287208 
L 384.675154 165.078344 
L 385.245032 163.889985 
L 385.68862 162.721447 
L 386.005917 161.57208 
L 386.20044 160.441264 
L 386.280232 159.328411 
L 386.258383 158.232959 
L 386.152985 157.154371 
L 385.986539 156.092137 
L 385.784833 155.045768 
L 385.575434 154.014797 
L 385.38591 152.998777 
L 385.241985 151.997282 
L 385.165796 151.009901 
L 385.174437 150.036242 
L 385.278908 149.075929 
L 385.483595 148.128601 
L 385.78628 147.193912 
L 386.178693 146.271529 
L 386.647505 145.361132 
L 387.175653 144.462413 
L 387.743849 143.575077 
L 388.332117 142.698839 
L 388.921218 141.833425 
L 389.493843 140.97857 
L 390.035495 140.13402 
L 390.53503 139.29953 
L 390.984849 138.474862 
L 391.38079 137.659789 
L 391.721776 136.854089 
L 392.009302 136.05755 
L 393.035794 136.05755 
L 393.035794 136.05755 
L 393.035794 136.854089 
L 393.035794 137.659789 
L 393.035794 138.474862 
L 393.035794 139.29953 
L 393.035794 140.13402 
L 393.035794 140.97857 
L 393.035794 141.833425 
L 393.035794 142.698839 
L 393.035794 143.575077 
L 393.035794 144.462413 
L 393.035794 145.361132 
L 393.035794 146.271529 
L 393.035794 147.193912 
L 393.035794 148.128601 
L 393.035794 149.075929 
L 393.035794 150.036242 
L 393.035794 151.009901 
L 393.035794 151.997282 
L 393.035794 152.998777 
L 393.035794 154.014797 
L 393.035794 155.045768 
L 393.035794 156.092137 
L 393.035794 157.154371 
L 393.035794 158.232959 
L 393.035794 159.328411 
L 393.035794 160.441264 
L 393.035794 161.57208 
L 393.035794 162.721447 
L 393.035794 163.889985 
L 393.035794 165.078344 
L 393.035794 166.287208 
L 393.035794 167.517298 
L 393.035794 168.769371 
L 393.035794 170.044228 
L 393.035794 171.342714 
L 393.035794 172.66572 
L 393.035794 174.014192 
L 393.035794 175.389128 
L 393.035794 176.791589 
L 393.035794 178.222698 
L 393.035794 179.68365 
L 393.035794 181.175717 
L 393.035794 182.700254 
L 393.035794 184.258704 
L 393.035794 185.85261 
L 393.035794 187.483625 
L 393.035794 189.153517 
L 393.035794 190.864184 
L 393.035794 192.617668 
L 393.035794 194.416168 
L 393.035794 196.262056 
L 393.035794 198.157896 
L 393.035794 200.106468 
L 393.035794 202.110789 
L 393.035794 204.174143 
L 393.035794 206.300114 
L 393.035794 208.492621 
L 393.035794 210.755965 
L 393.035794 213.094875 
L 393.035794 215.514572 
L 393.035794 218.020837 
L 393.035794 220.620095 
L 393.035794 223.319515 
L 393.035794 226.127124 
L 393.035794 229.05196 
L 393.035794 232.10424 
L 393.035794 235.295577 
L 393.035794 238.639249 
L 393.035794 242.150533 
L 393.035794 245.847122 
L 393.035794 249.749671 
L 393.035794 253.882492 
L 393.035794 258.274471 
L 393.035794 262.9603 
L 393.035794 267.982136 
L 393.035794 273.391916 
L 393.035794 279.254633 
L 393.035794 285.653121 
L 393.035794 292.695244 
L 393.035794 300.525121 
L 393.035794 309.341456 
L 393.035794 319.429128 
L 393.035794 331.21759 
L 393.035794 345.399011 
L 393.035794 363.198888 
L 393.035794 387.120421 
L 393.035794 423.728161 
L 393.035794 504.942615 
L 393.035794 163363.373796 
L 393.035794 163363.373796 
L 393.035794 163363.373796 
L 393.035794 163363.373796 
L 393.035794 163363.373796 
L 393.035794 163363.373796 
L 393.035794 163363.373796 
L 393.035794 163363.373796 
L 393.035794 163363.373796 
L 393.035794 163363.373796 
L 393.035794 163363.373796 
z
" clip-path="url(#p0ec3247202)" style="fill: #94c9de; stroke: #6f6f6f; stroke-width: 1.25"/>
   </g>
   <g id="FillBetweenPolyCollection_2">
    <defs>
     <path id="m12fe56dc6f" d="M 567.546423 -352.174284 
L 556.80795 -352.174284 
L 555.259029 -353.839064 
L 553.541674 -355.465201 
L 551.646476 -357.054449 
L 549.564854 -358.608445 
L 547.289291 -360.128719 
L 544.813563 -361.616704 
L 542.132986 -363.073741 
L 539.244643 -364.501094 
L 536.147617 -365.899946 
L 532.843191 -367.271415 
L 529.335035 -368.616551 
L 525.629364 -369.936346 
L 521.735055 -371.231739 
L 517.663724 -372.503614 
L 513.429761 -373.752811 
L 509.050308 -374.980124 
L 504.545183 -376.186307 
L 499.936755 -377.372074 
L 495.249751 -378.538107 
L 490.511013 -379.68505 
L 485.749201 -380.813519 
L 480.994441 -381.924099 
L 476.277933 -383.017349 
L 471.631512 -384.093801 
L 467.087188 -385.153964 
L 462.67666 -386.198324 
L 458.430814 -387.227344 
L 454.37923 -388.241468 
L 450.549693 -389.241123 
L 446.967727 -390.226715 
L 443.65617 -391.198633 
L 440.634784 -392.157253 
L 437.919929 -393.102933 
L 435.524298 -394.036018 
L 433.456724 -394.95684 
L 431.722066 -395.865715 
L 430.321181 -396.762951 
L 429.250981 -397.648842 
L 428.50457 -398.52367 
L 428.071468 -399.387709 
L 427.93792 -400.241222 
L 428.087265 -401.084462 
L 428.500377 -401.917674 
L 429.156157 -402.741093 
L 430.03206 -403.554946 
L 431.104654 -404.359454 
L 432.350188 -405.154828 
L 433.745154 -405.941274 
L 435.266828 -406.71899 
L 436.893781 -407.488168 
L 438.606333 -408.248993 
L 440.386956 -409.001644 
L 442.220587 -409.746295 
L 444.094875 -410.483115 
L 446.000327 -411.212266 
L 447.930371 -411.933907 
L 449.881317 -412.64819 
L 451.852236 -413.355265 
L 453.844747 -414.055275 
L 455.862733 -414.748359 
L 457.911982 -415.434655 
L 459.999784 -416.114293 
L 462.134482 -416.787401 
L 464.325003 -417.454104 
L 466.580375 -418.114522 
L 468.90926 -418.768773 
L 471.319508 -419.416971 
L 473.817745 -420.059226 
L 476.409017 -420.695648 
L 479.096492 -421.32634 
L 481.881237 -421.951405 
L 484.762057 -422.570943 
L 487.73543 -423.18505 
L 490.795502 -423.793821 
L 493.93417 -424.397348 
L 497.141227 -424.995721 
L 500.404571 -425.589026 
L 503.710467 -426.177349 
L 507.043857 -426.760772 
L 510.388689 -427.339378 
L 513.728275 -427.913243 
L 517.045653 -428.482447 
L 520.323943 -429.047063 
L 523.54669 -429.607166 
L 526.69818 -430.162826 
L 529.763723 -430.714114 
L 532.729902 -431.261097 
L 535.584773 -431.803844 
L 538.318016 -432.342418 
L 540.921049 -432.876883 
L 543.387082 -433.407302 
L 545.711133 -433.933736 
L 547.890002 -434.456243 
L 549.922203 -434.974883 
L 551.80787 -435.489711 
L 553.548625 -436.000784 
L 555.147438 -436.508155 
L 556.608462 -437.011879 
L 557.936862 -437.512007 
L 567.546423 -437.512007 
L 567.546423 -437.512007 
L 567.546423 -437.011879 
L 567.546423 -436.508155 
L 567.546423 -436.000784 
L 567.546423 -435.489711 
L 567.546423 -434.974883 
L 567.546423 -434.456243 
L 567.546423 -433.933736 
L 567.546423 -433.407302 
L 567.546423 -432.876883 
L 567.546423 -432.342418 
L 567.546423 -431.803844 
L 567.546423 -431.261097 
L 567.546423 -430.714114 
L 567.546423 -430.162826 
L 567.546423 -429.607166 
L 567.546423 -429.047063 
L 567.546423 -428.482447 
L 567.546423 -427.913243 
L 567.546423 -427.339378 
L 567.546423 -426.760772 
L 567.546423 -426.177349 
L 567.546423 -425.589026 
L 567.546423 -424.995721 
L 567.546423 -424.397348 
L 567.546423 -423.793821 
L 567.546423 -423.18505 
L 567.546423 -422.570943 
L 567.546423 -421.951405 
L 567.546423 -421.32634 
L 567.546423 -420.695648 
L 567.546423 -420.059226 
L 567.546423 -419.416971 
L 567.546423 -418.768773 
L 567.546423 -418.114522 
L 567.546423 -417.454104 
L 567.546423 -416.787401 
L 567.546423 -416.114293 
L 567.546423 -415.434655 
L 567.546423 -414.748359 
L 567.546423 -414.055275 
L 567.546423 -413.355265 
L 567.546423 -412.64819 
L 567.546423 -411.933907 
L 567.546423 -411.212266 
L 567.546423 -410.483115 
L 567.546423 -409.746295 
L 567.546423 -409.001644 
L 567.546423 -408.248993 
L 567.546423 -407.488168 
L 567.546423 -406.71899 
L 567.546423 -405.941274 
L 567.546423 -405.154828 
L 567.546423 -404.359454 
L 567.546423 -403.554946 
L 567.546423 -402.741093 
L 567.546423 -401.917674 
L 567.546423 -401.084462 
L 567.546423 -400.241222 
L 567.546423 -399.387709 
L 567.546423 -398.52367 
L 567.546423 -397.648842 
L 567.546423 -396.762951 
L 567.546423 -395.865715 
L 567.546423 -394.95684 
L 567.546423 -394.036018 
L 567.546423 -393.102933 
L 567.546423 -392.157253 
L 567.546423 -391.198633 
L 567.546423 -390.226715 
L 567.546423 -389.241123 
L 567.546423 -388.241468 
L 567.546423 -387.227344 
L 567.546423 -386.198324 
L 567.546423 -385.153964 
L 567.546423 -384.093801 
L 567.546423 -383.017349 
L 567.546423 -381.924099 
L 567.546423 -380.813519 
L 567.546423 -379.68505 
L 567.546423 -378.538107 
L 567.546423 -377.372074 
L 567.546423 -376.186307 
L 567.546423 -374.980124 
L 567.546423 -373.752811 
L 567.546423 -372.503614 
L 567.546423 -371.231739 
L 567.546423 -369.936346 
L 567.546423 -368.616551 
L 567.546423 -367.271415 
L 567.546423 -365.899946 
L 567.546423 -364.501094 
L 567.546423 -363.073741 
L 567.546423 -361.616704 
L 567.546423 -360.128719 
L 567.546423 -358.608445 
L 567.546423 -357.054449 
L 567.546423 -355.465201 
L 567.546423 -353.839064 
L 567.546423 -352.174284 
z
" style="stroke: #6f6f6f; stroke-width: 1.25"/>
    </defs>
    <g clip-path="url(#p0ec3247202)">
     <use xlink:href="#m12fe56dc6f" x="0" y="720" style="fill: #94c9de; stroke: #6f6f6f; stroke-width: 1.25"/>
    </g>
   </g>
   <g id="FillBetweenPolyCollection_3">
    <defs>
     <path id="m773c2622bc" d="M 742.057052 -342.221752 
L 732.917636 -342.221752 
L 731.684368 -342.857605 
L 730.331986 -343.487739 
L 728.856403 -344.112257 
L 727.254517 -344.731256 
L 725.524369 -345.344834 
L 723.665284 -345.953086 
L 721.678009 -346.556102 
L 719.564825 -347.153972 
L 717.329628 -347.746783 
L 714.977991 -348.33462 
L 712.51718 -348.917566 
L 709.956136 -349.495702 
L 707.305408 -350.069105 
L 704.577045 -350.637854 
L 701.784438 -351.202024 
L 698.942116 -351.761686 
L 696.065496 -352.316913 
L 693.170595 -352.867774 
L 690.273705 -353.414338 
L 687.391034 -353.956671 
L 684.538341 -354.494838 
L 681.730544 -355.028903 
L 678.981343 -355.558927 
L 676.302851 -356.084972 
L 673.705247 -356.607096 
L 671.196478 -357.125358 
L 668.782001 -357.639815 
L 666.464594 -358.150521 
L 664.244231 -358.657531 
L 662.118047 -359.160899 
L 660.080382 -359.660676 
L 658.122911 -360.156913 
L 656.234875 -360.649659 
L 654.403388 -361.138965 
L 652.613833 -361.624876 
L 650.850331 -362.107441 
L 649.096268 -362.586705 
L 647.334878 -363.062713 
L 645.549858 -363.535508 
L 643.725988 -364.005134 
L 641.849765 -364.471633 
L 639.909999 -364.935046 
L 637.898372 -365.395415 
L 635.809936 -365.852777 
L 633.643534 -366.307174 
L 631.402117 -366.758642 
L 629.092965 -367.20722 
L 626.727785 -367.652944 
L 624.322682 -368.09585 
L 621.898012 -368.535974 
L 619.478101 -368.97335 
L 617.090846 -369.408013 
L 614.767209 -369.839996 
L 612.540605 -370.269331 
L 610.446209 -370.696051 
L 608.520202 -371.120188 
L 606.798964 -371.541773 
L 605.318252 -371.960836 
L 604.112373 -372.377408 
L 603.213383 -372.791517 
L 602.650328 -373.203193 
L 602.448549 -373.612464 
L 602.629076 -374.019358 
L 603.208121 -374.423902 
L 604.196673 -374.826125 
L 605.600234 -375.226051 
L 607.418667 -375.623707 
L 609.646176 -376.019118 
L 612.271425 -376.412311 
L 615.277764 -376.803309 
L 618.643578 -377.192138 
L 622.342733 -377.57882 
L 626.345117 -377.96338 
L 630.617235 -378.34584 
L 635.122879 -378.726224 
L 639.823814 -379.104554 
L 644.680493 -379.480852 
L 649.65276 -379.855139 
L 654.700544 -380.227438 
L 659.784506 -380.597768 
L 664.86665 -380.966152 
L 669.910862 -381.332608 
L 674.883387 -381.697158 
L 679.753224 -382.059821 
L 684.492443 -382.420616 
L 689.076419 -382.779562 
L 693.48398 -383.136679 
L 697.697484 -383.491985 
L 701.702811 -383.845498 
L 705.489294 -384.197236 
L 709.04959 -384.547217 
L 712.37949 -384.895459 
L 715.477699 -385.241978 
L 718.345571 -385.586791 
L 720.986826 -385.929916 
L 723.407249 -386.271369 
L 725.614388 -386.611165 
L 727.617242 -386.949322 
L 729.425964 -387.285854 
L 742.057052 -387.285854 
L 742.057052 -387.285854 
L 742.057052 -386.949322 
L 742.057052 -386.611165 
L 742.057052 -386.271369 
L 742.057052 -385.929916 
L 742.057052 -385.586791 
L 742.057052 -385.241978 
L 742.057052 -384.895459 
L 742.057052 -384.547217 
L 742.057052 -384.197236 
L 742.057052 -383.845498 
L 742.057052 -383.491985 
L 742.057052 -383.136679 
L 742.057052 -382.779562 
L 742.057052 -382.420616 
L 742.057052 -382.059821 
L 742.057052 -381.697158 
L 742.057052 -381.332608 
L 742.057052 -380.966152 
L 742.057052 -380.597768 
L 742.057052 -380.227438 
L 742.057052 -379.855139 
L 742.057052 -379.480852 
L 742.057052 -379.104554 
L 742.057052 -378.726224 
L 742.057052 -378.34584 
L 742.057052 -377.96338 
L 742.057052 -377.57882 
L 742.057052 -377.192138 
L 742.057052 -376.803309 
L 742.057052 -376.412311 
L 742.057052 -376.019118 
L 742.057052 -375.623707 
L 742.057052 -375.226051 
L 742.057052 -374.826125 
L 742.057052 -374.423902 
L 742.057052 -374.019358 
L 742.057052 -373.612464 
L 742.057052 -373.203193 
L 742.057052 -372.791517 
L 742.057052 -372.377408 
L 742.057052 -371.960836 
L 742.057052 -371.541773 
L 742.057052 -371.120188 
L 742.057052 -370.696051 
L 742.057052 -370.269331 
L 742.057052 -369.839996 
L 742.057052 -369.408013 
L 742.057052 -368.97335 
L 742.057052 -368.535974 
L 742.057052 -368.09585 
L 742.057052 -367.652944 
L 742.057052 -367.20722 
L 742.057052 -366.758642 
L 742.057052 -366.307174 
L 742.057052 -365.852777 
L 742.057052 -365.395415 
L 742.057052 -364.935046 
L 742.057052 -364.471633 
L 742.057052 -364.005134 
L 742.057052 -363.535508 
L 742.057052 -363.062713 
L 742.057052 -362.586705 
L 742.057052 -362.107441 
L 742.057052 -361.624876 
L 742.057052 -361.138965 
L 742.057052 -360.649659 
L 742.057052 -360.156913 
L 742.057052 -359.660676 
L 742.057052 -359.160899 
L 742.057052 -358.657531 
L 742.057052 -358.150521 
L 742.057052 -357.639815 
L 742.057052 -357.125358 
L 742.057052 -356.607096 
L 742.057052 -356.084972 
L 742.057052 -355.558927 
L 742.057052 -355.028903 
L 742.057052 -354.494838 
L 742.057052 -353.956671 
L 742.057052 -353.414338 
L 742.057052 -352.867774 
L 742.057052 -352.316913 
L 742.057052 -351.761686 
L 742.057052 -351.202024 
L 742.057052 -350.637854 
L 742.057052 -350.069105 
L 742.057052 -349.495702 
L 742.057052 -348.917566 
L 742.057052 -348.33462 
L 742.057052 -347.746783 
L 742.057052 -347.153972 
L 742.057052 -346.556102 
L 742.057052 -345.953086 
L 742.057052 -345.344834 
L 742.057052 -344.731256 
L 742.057052 -344.112257 
L 742.057052 -343.487739 
L 742.057052 -342.857605 
L 742.057052 -342.221752 
z
" style="stroke: #6f6f6f; stroke-width: 1.25"/>
    </defs>
    <g clip-path="url(#p0ec3247202)">
     <use xlink:href="#m773c2622bc" x="0" y="720" style="fill: #94c9de; stroke: #6f6f6f; stroke-width: 1.25"/>
    </g>
   </g>
   <g id="FillBetweenPolyCollection_4">
    <defs>
     <path id="m30d70cdf0e" d="M 916.56768 -453.333848 
L 903.290735 -453.333848 
L 901.702319 -453.368279 
L 899.975932 -453.402693 
L 898.106813 -453.437091 
L 896.091 -453.471472 
L 893.925454 -453.505835 
L 891.608181 -453.540182 
L 889.138344 -453.574512 
L 886.516373 -453.608825 
L 883.744049 -453.643122 
L 880.824585 -453.677402 
L 877.76268 -453.711664 
L 874.564557 -453.745911 
L 871.23797 -453.78014 
L 867.792191 -453.814353 
L 864.237971 -453.848549 
L 860.587466 -453.882728 
L 856.854139 -453.916891 
L 853.052638 -453.951037 
L 849.198641 -453.985166 
L 845.308686 -454.019279 
L 841.399966 -454.053375 
L 837.490126 -454.087455 
L 833.597027 -454.121518 
L 829.738521 -454.155564 
L 825.932208 -454.189594 
L 822.195204 -454.223607 
L 818.543919 -454.257604 
L 814.99384 -454.291585 
L 811.559349 -454.325549 
L 808.253549 -454.359496 
L 805.088134 -454.393427 
L 802.073285 -454.427342 
L 799.217602 -454.46124 
L 796.528076 -454.495122 
L 794.010102 -454.528987 
L 791.667524 -454.562836 
L 789.502724 -454.596669 
L 787.516737 -454.630485 
L 785.709406 -454.664285 
L 784.079551 -454.698069 
L 782.625169 -454.731837 
L 781.343638 -454.765588 
L 780.231933 -454.799323 
L 779.286838 -454.833041 
L 778.505154 -454.866744 
L 777.883889 -454.90043 
L 777.420428 -454.9341 
L 777.112678 -454.967754 
L 776.959177 -455.001392 
L 776.959177 -455.035014 
L 777.112678 -455.068619 
L 777.420428 -455.102209 
L 777.883889 -455.135782 
L 778.505154 -455.169339 
L 779.286838 -455.20288 
L 780.231933 -455.236406 
L 781.343638 -455.269915 
L 782.625169 -455.303408 
L 784.079551 -455.336885 
L 785.709406 -455.370346 
L 787.516737 -455.403791 
L 789.502724 -455.43722 
L 791.667524 -455.470633 
L 794.010102 -455.50403 
L 796.528076 -455.537412 
L 799.217602 -455.570777 
L 802.073285 -455.604127 
L 805.088134 -455.637461 
L 808.253549 -455.670778 
L 811.559349 -455.70408 
L 814.99384 -455.737367 
L 818.543919 -455.770637 
L 822.195204 -455.803892 
L 825.932208 -455.83713 
L 829.738521 -455.870353 
L 833.597027 -455.903561 
L 837.490126 -455.936752 
L 841.399966 -455.969928 
L 845.308686 -456.003088 
L 849.198641 -456.036233 
L 853.052638 -456.069362 
L 856.854139 -456.102475 
L 860.587466 -456.135572 
L 864.237971 -456.168654 
L 867.792191 -456.20172 
L 871.23797 -456.234771 
L 874.564557 -456.267806 
L 877.76268 -456.300826 
L 880.824585 -456.333829 
L 883.744049 -456.366818 
L 886.516373 -456.399791 
L 889.138344 -456.432748 
L 891.608181 -456.46569 
L 893.925454 -456.498616 
L 896.091 -456.531527 
L 898.106813 -456.564423 
L 899.975932 -456.597303 
L 901.702319 -456.630167 
L 903.290735 -456.663017 
L 916.56768 -456.663017 
L 916.56768 -456.663017 
L 916.56768 -456.630167 
L 916.56768 -456.597303 
L 916.56768 -456.564423 
L 916.56768 -456.531527 
L 916.56768 -456.498616 
L 916.56768 -456.46569 
L 916.56768 -456.432748 
L 916.56768 -456.399791 
L 916.56768 -456.366818 
L 916.56768 -456.333829 
L 916.56768 -456.300826 
L 916.56768 -456.267806 
L 916.56768 -456.234771 
L 916.56768 -456.20172 
L 916.56768 -456.168654 
L 916.56768 -456.135572 
L 916.56768 -456.102475 
L 916.56768 -456.069362 
L 916.56768 -456.036233 
L 916.56768 -456.003088 
L 916.56768 -455.969928 
L 916.56768 -455.936752 
L 916.56768 -455.903561 
L 916.56768 -455.870353 
L 916.56768 -455.83713 
L 916.56768 -455.803892 
L 916.56768 -455.770637 
L 916.56768 -455.737367 
L 916.56768 -455.70408 
L 916.56768 -455.670778 
L 916.56768 -455.637461 
L 916.56768 -455.604127 
L 916.56768 -455.570777 
L 916.56768 -455.537412 
L 916.56768 -455.50403 
L 916.56768 -455.470633 
L 916.56768 -455.43722 
L 916.56768 -455.403791 
L 916.56768 -455.370346 
L 916.56768 -455.336885 
L 916.56768 -455.303408 
L 916.56768 -455.269915 
L 916.56768 -455.236406 
L 916.56768 -455.20288 
L 916.56768 -455.169339 
L 916.56768 -455.135782 
L 916.56768 -455.102209 
L 916.56768 -455.068619 
L 916.56768 -455.035014 
L 916.56768 -455.001392 
L 916.56768 -454.967754 
L 916.56768 -454.9341 
L 916.56768 -454.90043 
L 916.56768 -454.866744 
L 916.56768 -454.833041 
L 916.56768 -454.799323 
L 916.56768 -454.765588 
L 916.56768 -454.731837 
L 916.56768 -454.698069 
L 916.56768 -454.664285 
L 916.56768 -454.630485 
L 916.56768 -454.596669 
L 916.56768 -454.562836 
L 916.56768 -454.528987 
L 916.56768 -454.495122 
L 916.56768 -454.46124 
L 916.56768 -454.427342 
L 916.56768 -454.393427 
L 916.56768 -454.359496 
L 916.56768 -454.325549 
L 916.56768 -454.291585 
L 916.56768 -454.257604 
L 916.56768 -454.223607 
L 916.56768 -454.189594 
L 916.56768 -454.155564 
L 916.56768 -454.121518 
L 916.56768 -454.087455 
L 916.56768 -454.053375 
L 916.56768 -454.019279 
L 916.56768 -453.985166 
L 916.56768 -453.951037 
L 916.56768 -453.916891 
L 916.56768 -453.882728 
L 916.56768 -453.848549 
L 916.56768 -453.814353 
L 916.56768 -453.78014 
L 916.56768 -453.745911 
L 916.56768 -453.711664 
L 916.56768 -453.677402 
L 916.56768 -453.643122 
L 916.56768 -453.608825 
L 916.56768 -453.574512 
L 916.56768 -453.540182 
L 916.56768 -453.505835 
L 916.56768 -453.471472 
L 916.56768 -453.437091 
L 916.56768 -453.402693 
L 916.56768 -453.368279 
L 916.56768 -453.333848 
z
" style="stroke: #6f6f6f; stroke-width: 1.25"/>
    </defs>
    <g clip-path="url(#p0ec3247202)">
     <use xlink:href="#m30d70cdf0e" x="0" y="720" style="fill: #94c9de; stroke: #6f6f6f; stroke-width: 1.25"/>
    </g>
   </g>
   <g id="FillBetweenPolyCollection_5">
    <path d="M 1265.588937 163363.373796 
L 1255.639594 163363.373796 
L 1254.248215 163363.373796 
L 1252.714966 163363.373796 
L 1251.033734 163363.373796 
L 1249.199382 163363.373796 
L 1247.207928 163363.373796 
L 1245.056721 163363.373796 
L 1242.744595 163363.373796 
L 1240.27201 163363.373796 
L 1237.641167 163363.373796 
L 1234.856091 163363.373796 
L 1231.92268 163363.373796 
L 1228.848715 163363.373796 
L 1225.643825 163363.373796 
L 1222.319409 592.110214 
L 1218.888512 512.358009 
L 1215.365659 476.025726 
L 1211.766643 452.220621 
L 1208.108277 434.485012 
L 1204.408115 420.344336 
L 1200.684147 408.584012 
L 1196.95448 398.51694 
L 1193.237004 389.716337 
L 1189.549073 381.898867 
L 1185.907188 374.86678 
L 1182.326712 368.476577 
L 1178.821611 362.620815 
L 1175.404246 357.216958 
L 1172.085204 352.200226 
L 1168.873192 347.51884 
L 1165.774992 343.130764 
L 1162.795467 339.001401 
L 1159.937642 335.101934 
L 1157.202835 331.40811 
L 1154.590839 327.899322 
L 1152.100165 324.557912 
L 1149.728307 321.368636 
L 1147.472049 318.318242 
L 1145.327784 315.395138 
L 1143.291844 312.589124 
L 1141.360821 309.89118 
L 1139.531877 307.293289 
L 1137.803025 304.788295 
L 1136.173376 302.369783 
L 1134.643341 300.03198 
L 1133.214787 297.769674 
L 1131.89113 295.578139 
L 1130.677381 293.453083 
L 1129.580125 291.390591 
L 1128.607449 289.387083 
L 1127.768808 287.439279 
L 1127.074852 285.544167 
L 1126.537192 283.698969 
L 1126.168145 281.901124 
L 1125.980434 280.148262 
L 1125.986877 278.438187 
L 1126.20005 276.76886 
L 1126.631952 275.138384 
L 1127.293676 273.544992 
L 1128.195076 271.987033 
L 1129.344471 270.462967 
L 1130.748363 268.971351 
L 1132.411185 267.51083 
L 1134.3351 266.080136 
L 1136.519828 264.678074 
L 1138.962527 263.30352 
L 1141.657722 261.955417 
L 1144.597284 260.632764 
L 1147.77046 259.33462 
L 1151.163955 258.060092 
L 1154.762067 256.808336 
L 1158.54686 255.578553 
L 1162.498391 254.369985 
L 1166.59497 253.181911 
L 1170.813453 252.01365 
L 1175.129564 250.86455 
L 1179.518236 249.733993 
L 1183.953965 248.621391 
L 1188.411168 247.526182 
L 1192.864538 246.44783 
L 1197.289391 245.385824 
L 1201.661988 244.339677 
L 1205.959841 243.308921 
L 1210.16198 242.29311 
L 1214.249192 241.291818 
L 1218.204211 240.304634 
L 1222.011877 239.331167 
L 1225.659235 238.371041 
L 1229.135605 237.423895 
L 1232.432598 236.489383 
L 1235.544094 235.567172 
L 1238.466176 234.656942 
L 1241.197037 233.758387 
L 1243.736847 232.87121 
L 1246.087598 231.995128 
L 1248.252933 231.129865 
L 1250.23795 230.275158 
L 1252.049004 229.430753 
L 1253.693502 228.596404 
L 1255.179699 227.771874 
L 1265.588937 227.771874 
L 1265.588937 227.771874 
L 1265.588937 228.596404 
L 1265.588937 229.430753 
L 1265.588937 230.275158 
L 1265.588937 231.129865 
L 1265.588937 231.995128 
L 1265.588937 232.87121 
L 1265.588937 233.758387 
L 1265.588937 234.656942 
L 1265.588937 235.567172 
L 1265.588937 236.489383 
L 1265.588937 237.423895 
L 1265.588937 238.371041 
L 1265.588937 239.331167 
L 1265.588937 240.304634 
L 1265.588937 241.291818 
L 1265.588937 242.29311 
L 1265.588937 243.308921 
L 1265.588937 244.339677 
L 1265.588937 245.385824 
L 1265.588937 246.44783 
L 1265.588937 247.526182 
L 1265.588937 248.621391 
L 1265.588937 249.733993 
L 1265.588937 250.86455 
L 1265.588937 252.01365 
L 1265.588937 253.181911 
L 1265.588937 254.369985 
L 1265.588937 255.578553 
L 1265.588937 256.808336 
L 1265.588937 258.060092 
L 1265.588937 259.33462 
L 1265.588937 260.632764 
L 1265.588937 261.955417 
L 1265.588937 263.30352 
L 1265.588937 264.678074 
L 1265.588937 266.080136 
L 1265.588937 267.51083 
L 1265.588937 268.971351 
L 1265.588937 270.462967 
L 1265.588937 271.987033 
L 1265.588937 273.544992 
L 1265.588937 275.138384 
L 1265.588937 276.76886 
L 1265.588937 278.438187 
L 1265.588937 280.148262 
L 1265.588937 281.901124 
L 1265.588937 283.698969 
L 1265.588937 285.544167 
L 1265.588937 287.439279 
L 1265.588937 289.387083 
L 1265.588937 291.390591 
L 1265.588937 293.453083 
L 1265.588937 295.578139 
L 1265.588937 297.769674 
L 1265.588937 300.03198 
L 1265.588937 302.369783 
L 1265.588937 304.788295 
L 1265.588937 307.293289 
L 1265.588937 309.89118 
L 1265.588937 312.589124 
L 1265.588937 315.395138 
L 1265.588937 318.318242 
L 1265.588937 321.368636 
L 1265.588937 324.557912 
L 1265.588937 327.899322 
L 1265.588937 331.40811 
L 1265.588937 335.101934 
L 1265.588937 339.001401 
L 1265.588937 343.130764 
L 1265.588937 347.51884 
L 1265.588937 352.200226 
L 1265.588937 357.216958 
L 1265.588937 362.620815 
L 1265.588937 368.476577 
L 1265.588937 374.86678 
L 1265.588937 381.898867 
L 1265.588937 389.716337 
L 1265.588937 398.51694 
L 1265.588937 408.584012 
L 1265.588937 420.344336 
L 1265.588937 434.485012 
L 1265.588937 452.220621 
L 1265.588937 476.025726 
L 1265.588937 512.358009 
L 1265.588937 592.110214 
L 1265.588937 163363.373796 
L 1265.588937 163363.373796 
L 1265.588937 163363.373796 
L 1265.588937 163363.373796 
L 1265.588937 163363.373796 
L 1265.588937 163363.373796 
L 1265.588937 163363.373796 
L 1265.588937 163363.373796 
L 1265.588937 163363.373796 
L 1265.588937 163363.373796 
L 1265.588937 163363.373796 
L 1265.588937 163363.373796 
L 1265.588937 163363.373796 
L 1265.588937 163363.373796 
z
" clip-path="url(#p0ec3247202)" style="fill: #94c9de; stroke: #6f6f6f; stroke-width: 1.25"/>
   </g>
   <g id="line2d_12">
    <path d="M 78.916663 214.594056 
L 218.525166 214.594056 
" clip-path="url(#p0ec3247202)" style="fill: none; stroke: #6f6f6f; stroke-width: 1.25; stroke-linecap: round"/>
   </g>
   <g id="line2d_13">
    <path d="M 255.503911 294.622334 
L 393.035794 294.622334 
" clip-path="url(#p0ec3247202)" style="fill: none; stroke-dasharray: 1.5625,0.9375; stroke-dashoffset: 0; stroke: #6f6f6f; stroke-width: 1.25"/>
   </g>
   <g id="line2d_14">
    <path d="M 256.760478 270.520761 
L 393.035794 270.520761 
" clip-path="url(#p0ec3247202)" style="fill: none; stroke-dasharray: 3.125,1.25; stroke-dashoffset: 0; stroke: #6f6f6f; stroke-width: 1.25"/>
   </g>
   <g id="line2d_15">
    <path d="M 316.406175 213.766588 
L 393.035794 213.766588 
" clip-path="url(#p0ec3247202)" style="fill: none; stroke-dasharray: 1.5625,0.9375; stroke-dashoffset: 0; stroke: #6f6f6f; stroke-width: 1.25"/>
   </g>
   <g id="line2d_16">
    <path d="M 430.152756 323.096885 
L 567.546423 323.096885 
" clip-path="url(#p0ec3247202)" style="fill: none; stroke-dasharray: 1.5625,0.9375; stroke-dashoffset: 0; stroke: #6f6f6f; stroke-width: 1.25"/>
   </g>
   <g id="line2d_17">
    <path d="M 428.911097 317.565481 
L 567.546423 317.565481 
" clip-path="url(#p0ec3247202)" style="fill: none; stroke-dasharray: 3.125,1.25; stroke-dashoffset: 0; stroke: #6f6f6f; stroke-width: 1.25"/>
   </g>
   <g id="line2d_18">
    <path d="M 447.870405 308.088403 
L 567.546423 308.088403 
" clip-path="url(#p0ec3247202)" style="fill: none; stroke-dasharray: 1.5625,0.9375; stroke-dashoffset: 0; stroke: #6f6f6f; stroke-width: 1.25"/>
   </g>
   <g id="line2d_19">
    <path d="M 631.046879 353.172162 
L 742.057052 353.172162 
" clip-path="url(#p0ec3247202)" style="fill: none; stroke-dasharray: 1.5625,0.9375; stroke-dashoffset: 0; stroke: #6f6f6f; stroke-width: 1.25"/>
   </g>
   <g id="line2d_20">
    <path d="M 602.634919 346.765469 
L 742.057052 346.765469 
" clip-path="url(#p0ec3247202)" style="fill: none; stroke-dasharray: 3.125,1.25; stroke-dashoffset: 0; stroke: #6f6f6f; stroke-width: 1.25"/>
   </g>
   <g id="line2d_21">
    <path d="M 603.625808 345.405867 
L 742.057052 345.405867 
" clip-path="url(#p0ec3247202)" style="fill: none; stroke-dasharray: 1.5625,0.9375; stroke-dashoffset: 0; stroke: #6f6f6f; stroke-width: 1.25"/>
   </g>
   <g id="line2d_22">
    <path d="M 780.952818 265.222551 
L 916.56768 265.222551 
" clip-path="url(#p0ec3247202)" style="fill: none; stroke-dasharray: 1.5625,0.9375; stroke-dashoffset: 0; stroke: #6f6f6f; stroke-width: 1.25"/>
   </g>
   <g id="line2d_23">
    <path d="M 776.959177 264.981795 
L 916.56768 264.981795 
" clip-path="url(#p0ec3247202)" style="fill: none; stroke-dasharray: 3.125,1.25; stroke-dashoffset: 0; stroke: #6f6f6f; stroke-width: 1.25"/>
   </g>
   <g id="line2d_24">
    <path d="M 780.952818 264.741864 
L 916.56768 264.741864 
" clip-path="url(#p0ec3247202)" style="fill: none; stroke-dasharray: 1.5625,0.9375; stroke-dashoffset: 0; stroke: #6f6f6f; stroke-width: 1.25"/>
   </g>
   <g id="line2d_25">
    <path d="M 951.469806 58.595724 
L 1091.078309 58.595724 
" clip-path="url(#p0ec3247202)" style="fill: none; stroke: #6f6f6f; stroke-width: 1.25; stroke-linecap: round"/>
   </g>
   <g id="line2d_26">
    <path d="M 1138.834449 306.271959 
L 1265.588937 306.271959 
" clip-path="url(#p0ec3247202)" style="fill: none; stroke-dasharray: 1.5625,0.9375; stroke-dashoffset: 0; stroke: #6f6f6f; stroke-width: 1.25"/>
   </g>
   <g id="line2d_27">
    <path d="M 1126.439802 283.220028 
L 1265.588937 283.220028 
" clip-path="url(#p0ec3247202)" style="fill: none; stroke-dasharray: 3.125,1.25; stroke-dashoffset: 0; stroke: #6f6f6f; stroke-width: 1.25"/>
   </g>
   <g id="line2d_28">
    <path d="M 1129.85056 269.921587 
L 1265.588937 269.921587 
" clip-path="url(#p0ec3247202)" style="fill: none; stroke-dasharray: 1.5625,0.9375; stroke-dashoffset: 0; stroke: #6f6f6f; stroke-width: 1.25"/>
   </g>
   <g id="patch_3">
    <path d="M 61.4656 618.785938 
L 61.4656 31.92 
" style="fill: none; stroke: #cccccc; stroke-width: 1.25; stroke-linejoin: miter; stroke-linecap: square"/>
   </g>
   <g id="patch_4">
    <path d="M 1283.04 618.785938 
L 1283.04 31.92 
" style="fill: none; stroke: #cccccc; stroke-width: 1.25; stroke-linejoin: miter; stroke-linecap: square"/>
   </g>
   <g id="patch_5">
    <path d="M 61.4656 618.785938 
L 1283.04 618.785938 
" style="fill: none; stroke: #cccccc; stroke-width: 1.25; stroke-linejoin: miter; stroke-linecap: square"/>
   </g>
   <g id="patch_6">
    <path d="M 61.4656 31.92 
L 1283.04 31.92 
" style="fill: none; stroke: #cccccc; stroke-width: 1.25; stroke-linejoin: miter; stroke-linecap: square"/>
   </g>
   <g id="PathCollection_1">
    <defs>
     <path id="mfdeb2033b1" d="M 0 3 
C 0.795609 3 1.55874 2.683901 2.12132 2.12132 
C 2.683901 1.55874 3 0.795609 3 0 
C 3 -0.795609 2.683901 -1.55874 2.12132 -2.12132 
C 1.55874 -2.683901 0.795609 -3 0 -3 
C -0.795609 -3 -1.55874 -2.683901 -2.12132 -2.12132 
C -2.683901 -1.55874 -3 -0.795609 -3 0 
C -3 0.795609 -2.683901 1.55874 -2.12132 2.12132 
C -1.55874 2.683901 -0.795609 3 0 3 
z
"/>
    </defs>
    <g clip-path="url(#p0ec3247202)">
     <use xlink:href="#mfdeb2033b1" x="148.720914" y="214.594056" style="fill: #ffa500; fill-opacity: 0.8"/>
    </g>
   </g>
   <g id="PathCollection_2">
    <g clip-path="url(#p0ec3247202)">
     <use xlink:href="#mfdeb2033b1" x="323.231543" y="328.463001" style="fill: #ffa500; fill-opacity: 0.8"/>
     <use xlink:href="#mfdeb2033b1" x="312.024621" y="294.201164" style="fill: #ffa500; fill-opacity: 0.8"/>
     <use xlink:href="#mfdeb2033b1" x="327.345824" y="268.883673" style="fill: #ffa500; fill-opacity: 0.8"/>
     <use xlink:href="#mfdeb2033b1" x="328.792501" y="288.344129" style="fill: #ffa500; fill-opacity: 0.8"/>
     <use xlink:href="#mfdeb2033b1" x="323.231543" y="291.163843" style="fill: #ffa500; fill-opacity: 0.8"/>
     <use xlink:href="#mfdeb2033b1" x="323.231543" y="311.158586" style="fill: #ffa500; fill-opacity: 0.8"/>
     <use xlink:href="#mfdeb2033b1" x="321.323498" y="322.744798" style="fill: #ffa500; fill-opacity: 0.8"/>
     <use xlink:href="#mfdeb2033b1" x="326.914762" y="319.979979" style="fill: #ffa500; fill-opacity: 0.8"/>
     <use xlink:href="#mfdeb2033b1" x="323.231543" y="188.280615" style="fill: #ffa500; fill-opacity: 0.8"/>
     <use xlink:href="#mfdeb2033b1" x="323.231543" y="172.87303" style="fill: #ffa500; fill-opacity: 0.8"/>
     <use xlink:href="#mfdeb2033b1" x="326.829674" y="213.812022" style="fill: #ffa500; fill-opacity: 0.8"/>
     <use xlink:href="#mfdeb2033b1" x="323.231543" y="273.427508" style="fill: #ffa500; fill-opacity: 0.8"/>
     <use xlink:href="#mfdeb2033b1" x="323.231543" y="230.799667" style="fill: #ffa500; fill-opacity: 0.8"/>
     <use xlink:href="#mfdeb2033b1" x="323.231543" y="194.997033" style="fill: #ffa500; fill-opacity: 0.8"/>
     <use xlink:href="#mfdeb2033b1" x="323.231543" y="248.932097" style="fill: #ffa500; fill-opacity: 0.8"/>
     <use xlink:href="#mfdeb2033b1" x="323.231543" y="260.049137" style="fill: #ffa500; fill-opacity: 0.8"/>
     <use xlink:href="#mfdeb2033b1" x="328.619983" y="295.901251" style="fill: #ffa500; fill-opacity: 0.8"/>
     <use xlink:href="#mfdeb2033b1" x="313.646517" y="211.130239" style="fill: #ffa500; fill-opacity: 0.8"/>
     <use xlink:href="#mfdeb2033b1" x="333.126789" y="213.630463" style="fill: #ffa500; fill-opacity: 0.8"/>
     <use xlink:href="#mfdeb2033b1" x="323.231543" y="201.680447" style="fill: #ffa500; fill-opacity: 0.8"/>
     <use xlink:href="#mfdeb2033b1" x="323.231543" y="149.733594" style="fill: #ffa500; fill-opacity: 0.8"/>
     <use xlink:href="#mfdeb2033b1" x="323.231543" y="299.009972" style="fill: #ffa500; fill-opacity: 0.8"/>
     <use xlink:href="#mfdeb2033b1" x="326.435357" y="279.109553" style="fill: #ffa500; fill-opacity: 0.8"/>
     <use xlink:href="#mfdeb2033b1" x="317.06545" y="272.197019" style="fill: #ffa500; fill-opacity: 0.8"/>
     <use xlink:href="#mfdeb2033b1" x="323.231543" y="335.365047" style="fill: #ffa500; fill-opacity: 0.8"/>
     <use xlink:href="#mfdeb2033b1" x="317.322846" y="282.194154" style="fill: #ffa500; fill-opacity: 0.8"/>
     <use xlink:href="#mfdeb2033b1" x="323.231543" y="284.275777" style="fill: #ffa500; fill-opacity: 0.8"/>
     <use xlink:href="#mfdeb2033b1" x="317.05926" y="297.807961" style="fill: #ffa500; fill-opacity: 0.8"/>
     <use xlink:href="#mfdeb2033b1" x="317.57073" y="228.16634" style="fill: #ffa500; fill-opacity: 0.8"/>
     <use xlink:href="#mfdeb2033b1" x="323.231543" y="218.737172" style="fill: #ffa500; fill-opacity: 0.8"/>
     <use xlink:href="#mfdeb2033b1" x="319.00175" y="214.290578" style="fill: #ffa500; fill-opacity: 0.8"/>
     <use xlink:href="#mfdeb2033b1" x="317.95139" y="198.407528" style="fill: #ffa500; fill-opacity: 0.8"/>
    </g>
   </g>
   <g id="PathCollection_3">
    <g clip-path="url(#p0ec3247202)">
     <use xlink:href="#mfdeb2033b1" x="497.742172" y="317.565481" style="fill: #ffa500; fill-opacity: 0.8"/>
     <use xlink:href="#mfdeb2033b1" x="497.742172" y="329.102727" style="fill: #ffa500; fill-opacity: 0.8"/>
     <use xlink:href="#mfdeb2033b1" x="497.742172" y="299.741874" style="fill: #ffa500; fill-opacity: 0.8"/>
    </g>
   </g>
   <g id="PathCollection_4">
    <g clip-path="url(#p0ec3247202)">
     <use xlink:href="#mfdeb2033b1" x="672.2528" y="346.765469" style="fill: #ffa500; fill-opacity: 0.8"/>
     <use xlink:href="#mfdeb2033b1" x="666.623192" y="344.072148" style="fill: #ffa500; fill-opacity: 0.8"/>
     <use xlink:href="#mfdeb2033b1" x="672.2528" y="360.224225" style="fill: #ffa500; fill-opacity: 0.8"/>
    </g>
   </g>
   <g id="PathCollection_5">
    <g clip-path="url(#p0ec3247202)">
     <use xlink:href="#mfdeb2033b1" x="846.763429" y="265.464137" style="fill: #ffa500; fill-opacity: 0.8"/>
     <use xlink:href="#mfdeb2033b1" x="840.544827" y="264.502751" style="fill: #ffa500; fill-opacity: 0.8"/>
    </g>
   </g>
   <g id="PathCollection_6">
    <g clip-path="url(#p0ec3247202)">
     <use xlink:href="#mfdeb2033b1" x="1021.274057" y="58.595724" style="fill: #ffa500; fill-opacity: 0.8"/>
    </g>
   </g>
   <g id="PathCollection_7">
    <g clip-path="url(#p0ec3247202)">
     <use xlink:href="#mfdeb2033b1" x="1195.784686" y="258.749175" style="fill: #ffa500; fill-opacity: 0.8"/>
     <use xlink:href="#mfdeb2033b1" x="1195.784686" y="283.220028" style="fill: #ffa500; fill-opacity: 0.8"/>
     <use xlink:href="#mfdeb2033b1" x="1195.784686" y="340.858725" style="fill: #ffa500; fill-opacity: 0.8"/>
    </g>
   </g>
   <g id="text_14">
    <g id="patch_7">
     <path d="M 85.897088 96.591594 
L 270.440213 96.591594 
Q 274.040213 96.591594 274.040213 92.991594 
L 274.040213 69.149469 
Q 274.040213 65.549469 270.440213 65.549469 
L 85.897088 65.549469 
Q 82.297088 65.549469 82.297088 69.149469 
L 82.297088 92.991594 
Q 82.297088 96.591594 85.897088 96.591594 
z
" style="fill: #ffffff; opacity: 0.7; stroke: #808080; stroke-linejoin: miter"/>
    </g>
    <!-- Yellow dots: Individual models -->
    <g transform="translate(85.897088 77.738844) scale(0.12 -0.12)">
     <defs>
      <path id="ArialMT-59" d="M 1784 0 
L 1784 1941 
L 19 4581 
L 756 4581 
L 1659 3200 
Q 1909 2813 2125 2425 
Q 2331 2784 2625 3234 
L 3513 4581 
L 4219 4581 
L 2391 1941 
L 2391 0 
L 1784 0 
z
" transform="scale(0.015625)"/>
      <path id="ArialMT-77" d="M 1034 0 
L 19 3319 
L 600 3319 
L 1128 1403 
L 1325 691 
Q 1338 744 1497 1375 
L 2025 3319 
L 2603 3319 
L 3100 1394 
L 3266 759 
L 3456 1400 
L 4025 3319 
L 4572 3319 
L 3534 0 
L 2950 0 
L 2422 1988 
L 2294 2553 
L 1622 0 
L 1034 0 
z
" transform="scale(0.015625)"/>
      <path id="ArialMT-3a" d="M 578 2678 
L 578 3319 
L 1219 3319 
L 1219 2678 
L 578 2678 
z
M 578 0 
L 578 641 
L 1219 641 
L 1219 0 
L 578 0 
z
" transform="scale(0.015625)"/>
      <path id="ArialMT-49" d="M 597 0 
L 597 4581 
L 1203 4581 
L 1203 0 
L 597 0 
z
" transform="scale(0.015625)"/>
      <path id="ArialMT-75" d="M 2597 0 
L 2597 488 
Q 2209 -75 1544 -75 
Q 1250 -75 995 37 
Q 741 150 617 320 
Q 494 491 444 738 
Q 409 903 409 1263 
L 409 3319 
L 972 3319 
L 972 1478 
Q 972 1038 1006 884 
Q 1059 663 1231 536 
Q 1403 409 1656 409 
Q 1909 409 2131 539 
Q 2353 669 2445 892 
Q 2538 1116 2538 1541 
L 2538 3319 
L 3100 3319 
L 3100 0 
L 2597 0 
z
" transform="scale(0.015625)"/>
     </defs>
     <use xlink:href="#ArialMT-59"/>
     <use xlink:href="#ArialMT-65" transform="translate(57.574219 0)"/>
     <use xlink:href="#ArialMT-6c" transform="translate(113.189453 0)"/>
     <use xlink:href="#ArialMT-6c" transform="translate(135.40625 0)"/>
     <use xlink:href="#ArialMT-6f" transform="translate(157.623047 0)"/>
     <use xlink:href="#ArialMT-77" transform="translate(213.238281 0)"/>
     <use xlink:href="#ArialMT-20" transform="translate(285.455078 0)"/>
     <use xlink:href="#ArialMT-64" transform="translate(313.238281 0)"/>
     <use xlink:href="#ArialMT-6f" transform="translate(368.853516 0)"/>
     <use xlink:href="#ArialMT-74" transform="translate(424.46875 0)"/>
     <use xlink:href="#ArialMT-73" transform="translate(452.251953 0)"/>
     <use xlink:href="#ArialMT-3a" transform="translate(502.251953 0)"/>
     <use xlink:href="#ArialMT-20" transform="translate(530.035156 0)"/>
     <use xlink:href="#ArialMT-49" transform="translate(557.818359 0)"/>
     <use xlink:href="#ArialMT-6e" transform="translate(585.601562 0)"/>
     <use xlink:href="#ArialMT-64" transform="translate(641.216797 0)"/>
     <use xlink:href="#ArialMT-69" transform="translate(696.832031 0)"/>
     <use xlink:href="#ArialMT-76" transform="translate(719.048828 0)"/>
     <use xlink:href="#ArialMT-69" transform="translate(769.048828 0)"/>
     <use xlink:href="#ArialMT-64" transform="translate(791.265625 0)"/>
     <use xlink:href="#ArialMT-75" transform="translate(846.880859 0)"/>
     <use xlink:href="#ArialMT-61" transform="translate(902.496094 0)"/>
     <use xlink:href="#ArialMT-6c" transform="translate(958.111328 0)"/>
     <use xlink:href="#ArialMT-20" transform="translate(980.328125 0)"/>
     <use xlink:href="#ArialMT-6d" transform="translate(1008.111328 0)"/>
     <use xlink:href="#ArialMT-6f" transform="translate(1091.412109 0)"/>
     <use xlink:href="#ArialMT-64" transform="translate(1147.027344 0)"/>
     <use xlink:href="#ArialMT-65" transform="translate(1202.642578 0)"/>
     <use xlink:href="#ArialMT-6c" transform="translate(1258.257812 0)"/>
     <use xlink:href="#ArialMT-73" transform="translate(1280.474609 0)"/>
    </g>
    <!-- Violin plot: Distribution of durations -->
    <g transform="translate(85.897088 90.606594) scale(0.12 -0.12)">
     <defs>
      <path id="ArialMT-56" d="M 1803 0 
L 28 4581 
L 684 4581 
L 1875 1253 
Q 2019 853 2116 503 
Q 2222 878 2363 1253 
L 3600 4581 
L 4219 4581 
L 2425 0 
L 1803 0 
z
" transform="scale(0.015625)"/>
     </defs>
     <use xlink:href="#ArialMT-56"/>
     <use xlink:href="#ArialMT-69" transform="translate(64.949219 0)"/>
     <use xlink:href="#ArialMT-6f" transform="translate(87.166016 0)"/>
     <use xlink:href="#ArialMT-6c" transform="translate(142.78125 0)"/>
     <use xlink:href="#ArialMT-69" transform="translate(164.998047 0)"/>
     <use xlink:href="#ArialMT-6e" transform="translate(187.214844 0)"/>
     <use xlink:href="#ArialMT-20" transform="translate(242.830078 0)"/>
     <use xlink:href="#ArialMT-70" transform="translate(270.613281 0)"/>
     <use xlink:href="#ArialMT-6c" transform="translate(326.228516 0)"/>
     <use xlink:href="#ArialMT-6f" transform="translate(348.445312 0)"/>
     <use xlink:href="#ArialMT-74" transform="translate(404.060547 0)"/>
     <use xlink:href="#ArialMT-3a" transform="translate(431.84375 0)"/>
     <use xlink:href="#ArialMT-20" transform="translate(459.626953 0)"/>
     <use xlink:href="#ArialMT-44" transform="translate(487.410156 0)"/>
     <use xlink:href="#ArialMT-69" transform="translate(559.626953 0)"/>
     <use xlink:href="#ArialMT-73" transform="translate(581.84375 0)"/>
     <use xlink:href="#ArialMT-74" transform="translate(631.84375 0)"/>
     <use xlink:href="#ArialMT-72" transform="translate(659.626953 0)"/>
     <use xlink:href="#ArialMT-69" transform="translate(692.927734 0)"/>
     <use xlink:href="#ArialMT-62" transform="translate(715.144531 0)"/>
     <use xlink:href="#ArialMT-75" transform="translate(770.759766 0)"/>
     <use xlink:href="#ArialMT-74" transform="translate(826.375 0)"/>
     <use xlink:href="#ArialMT-69" transform="translate(854.158203 0)"/>
     <use xlink:href="#ArialMT-6f" transform="translate(876.375 0)"/>
     <use xlink:href="#ArialMT-6e" transform="translate(931.990234 0)"/>
     <use xlink:href="#ArialMT-20" transform="translate(987.605469 0)"/>
     <use xlink:href="#ArialMT-6f" transform="translate(1015.388672 0)"/>
     <use xlink:href="#ArialMT-66" transform="translate(1071.003906 0)"/>
     <use xlink:href="#ArialMT-20" transform="translate(1098.787109 0)"/>
     <use xlink:href="#ArialMT-64" transform="translate(1126.570312 0)"/>
     <use xlink:href="#ArialMT-75" transform="translate(1182.185547 0)"/>
     <use xlink:href="#ArialMT-72" transform="translate(1237.800781 0)"/>
     <use xlink:href="#ArialMT-61" transform="translate(1271.101562 0)"/>
     <use xlink:href="#ArialMT-74" transform="translate(1326.716797 0)"/>
     <use xlink:href="#ArialMT-69" transform="translate(1354.5 0)"/>
     <use xlink:href="#ArialMT-6f" transform="translate(1376.716797 0)"/>
     <use xlink:href="#ArialMT-6e" transform="translate(1432.332031 0)"/>
     <use xlink:href="#ArialMT-73" transform="translate(1487.947266 0)"/>
    </g>
   </g>
   <g id="text_15">
    <!-- Model Duration Distribution (img-classification) -->
    <g style="fill: #262626" transform="translate(469.262019 25.92) scale(0.18 -0.18)">
     <defs>
      <path id="Arial-BoldMT-4d" d="M 453 0 
L 453 4581 
L 1838 4581 
L 2669 1456 
L 3491 4581 
L 4878 4581 
L 4878 0 
L 4019 0 
L 4019 3606 
L 3109 0 
L 2219 0 
L 1313 3606 
L 1313 0 
L 453 0 
z
" transform="scale(0.015625)"/>
      <path id="Arial-BoldMT-6f" d="M 256 1706 
Q 256 2144 472 2553 
Q 688 2963 1083 3178 
Q 1478 3394 1966 3394 
Q 2719 3394 3200 2905 
Q 3681 2416 3681 1669 
Q 3681 916 3195 420 
Q 2709 -75 1972 -75 
Q 1516 -75 1102 131 
Q 688 338 472 736 
Q 256 1134 256 1706 
z
M 1156 1659 
Q 1156 1166 1390 903 
Q 1625 641 1969 641 
Q 2313 641 2545 903 
Q 2778 1166 2778 1666 
Q 2778 2153 2545 2415 
Q 2313 2678 1969 2678 
Q 1625 2678 1390 2415 
Q 1156 2153 1156 1659 
z
" transform="scale(0.015625)"/>
      <path id="Arial-BoldMT-64" d="M 3503 0 
L 2688 0 
L 2688 488 
Q 2484 203 2207 64 
Q 1931 -75 1650 -75 
Q 1078 -75 670 386 
Q 263 847 263 1672 
Q 263 2516 659 2955 
Q 1056 3394 1663 3394 
Q 2219 3394 2625 2931 
L 2625 4581 
L 3503 4581 
L 3503 0 
z
M 1159 1731 
Q 1159 1200 1306 963 
Q 1519 619 1900 619 
Q 2203 619 2415 876 
Q 2628 1134 2628 1647 
Q 2628 2219 2422 2470 
Q 2216 2722 1894 2722 
Q 1581 2722 1370 2473 
Q 1159 2225 1159 1731 
z
" transform="scale(0.015625)"/>
      <path id="Arial-BoldMT-65" d="M 2381 1056 
L 3256 909 
Q 3088 428 2723 176 
Q 2359 -75 1813 -75 
Q 947 -75 531 491 
Q 203 944 203 1634 
Q 203 2459 634 2926 
Q 1066 3394 1725 3394 
Q 2466 3394 2894 2905 
Q 3322 2416 3303 1406 
L 1103 1406 
Q 1113 1016 1316 798 
Q 1519 581 1822 581 
Q 2028 581 2168 693 
Q 2309 806 2381 1056 
z
M 2431 1944 
Q 2422 2325 2234 2523 
Q 2047 2722 1778 2722 
Q 1491 2722 1303 2513 
Q 1116 2303 1119 1944 
L 2431 1944 
z
" transform="scale(0.015625)"/>
      <path id="Arial-BoldMT-6c" d="M 459 0 
L 459 4581 
L 1338 4581 
L 1338 0 
L 459 0 
z
" transform="scale(0.015625)"/>
      <path id="Arial-BoldMT-20" transform="scale(0.015625)"/>
      <path id="Arial-BoldMT-44" d="M 463 4581 
L 2153 4581 
Q 2725 4581 3025 4494 
Q 3428 4375 3715 4072 
Q 4003 3769 4153 3330 
Q 4303 2891 4303 2247 
Q 4303 1681 4163 1272 
Q 3991 772 3672 463 
Q 3431 228 3022 97 
Q 2716 0 2203 0 
L 463 0 
L 463 4581 
z
M 1388 3806 
L 1388 772 
L 2078 772 
Q 2466 772 2638 816 
Q 2863 872 3011 1006 
Q 3159 1141 3253 1448 
Q 3347 1756 3347 2288 
Q 3347 2819 3253 3103 
Q 3159 3388 2990 3547 
Q 2822 3706 2563 3763 
Q 2369 3806 1803 3806 
L 1388 3806 
z
" transform="scale(0.015625)"/>
      <path id="Arial-BoldMT-75" d="M 2644 0 
L 2644 497 
Q 2463 231 2167 78 
Q 1872 -75 1544 -75 
Q 1209 -75 943 72 
Q 678 219 559 484 
Q 441 750 441 1219 
L 441 3319 
L 1319 3319 
L 1319 1794 
Q 1319 1094 1367 936 
Q 1416 778 1544 686 
Q 1672 594 1869 594 
Q 2094 594 2272 717 
Q 2450 841 2515 1023 
Q 2581 1206 2581 1919 
L 2581 3319 
L 3459 3319 
L 3459 0 
L 2644 0 
z
" transform="scale(0.015625)"/>
      <path id="Arial-BoldMT-72" d="M 1300 0 
L 422 0 
L 422 3319 
L 1238 3319 
L 1238 2847 
Q 1447 3181 1614 3287 
Q 1781 3394 1994 3394 
Q 2294 3394 2572 3228 
L 2300 2463 
Q 2078 2606 1888 2606 
Q 1703 2606 1575 2504 
Q 1447 2403 1373 2137 
Q 1300 1872 1300 1025 
L 1300 0 
z
" transform="scale(0.015625)"/>
      <path id="Arial-BoldMT-61" d="M 1116 2306 
L 319 2450 
Q 453 2931 781 3162 
Q 1109 3394 1756 3394 
Q 2344 3394 2631 3255 
Q 2919 3116 3036 2902 
Q 3153 2688 3153 2116 
L 3144 1091 
Q 3144 653 3186 445 
Q 3228 238 3344 0 
L 2475 0 
Q 2441 88 2391 259 
Q 2369 338 2359 363 
Q 2134 144 1878 34 
Q 1622 -75 1331 -75 
Q 819 -75 523 203 
Q 228 481 228 906 
Q 228 1188 362 1408 
Q 497 1628 739 1745 
Q 981 1863 1438 1950 
Q 2053 2066 2291 2166 
L 2291 2253 
Q 2291 2506 2166 2614 
Q 2041 2722 1694 2722 
Q 1459 2722 1328 2630 
Q 1197 2538 1116 2306 
z
M 2291 1594 
Q 2122 1538 1756 1459 
Q 1391 1381 1278 1306 
Q 1106 1184 1106 997 
Q 1106 813 1243 678 
Q 1381 544 1594 544 
Q 1831 544 2047 700 
Q 2206 819 2256 991 
Q 2291 1103 2291 1419 
L 2291 1594 
z
" transform="scale(0.015625)"/>
      <path id="Arial-BoldMT-74" d="M 1981 3319 
L 1981 2619 
L 1381 2619 
L 1381 1281 
Q 1381 875 1398 808 
Q 1416 741 1477 697 
Q 1538 653 1625 653 
Q 1747 653 1978 738 
L 2053 56 
Q 1747 -75 1359 -75 
Q 1122 -75 931 4 
Q 741 84 652 211 
Q 563 338 528 553 
Q 500 706 500 1172 
L 500 2619 
L 97 2619 
L 97 3319 
L 500 3319 
L 500 3978 
L 1381 4491 
L 1381 3319 
L 1981 3319 
z
" transform="scale(0.015625)"/>
      <path id="Arial-BoldMT-69" d="M 459 3769 
L 459 4581 
L 1338 4581 
L 1338 3769 
L 459 3769 
z
M 459 0 
L 459 3319 
L 1338 3319 
L 1338 0 
L 459 0 
z
" transform="scale(0.015625)"/>
      <path id="Arial-BoldMT-6e" d="M 3478 0 
L 2600 0 
L 2600 1694 
Q 2600 2231 2544 2389 
Q 2488 2547 2361 2634 
Q 2234 2722 2056 2722 
Q 1828 2722 1647 2597 
Q 1466 2472 1398 2265 
Q 1331 2059 1331 1503 
L 1331 0 
L 453 0 
L 453 3319 
L 1269 3319 
L 1269 2831 
Q 1703 3394 2363 3394 
Q 2653 3394 2893 3289 
Q 3134 3184 3257 3021 
Q 3381 2859 3429 2653 
Q 3478 2447 3478 2063 
L 3478 0 
z
" transform="scale(0.015625)"/>
      <path id="Arial-BoldMT-73" d="M 150 947 
L 1031 1081 
Q 1088 825 1259 692 
Q 1431 559 1741 559 
Q 2081 559 2253 684 
Q 2369 772 2369 919 
Q 2369 1019 2306 1084 
Q 2241 1147 2013 1200 
Q 950 1434 666 1628 
Q 272 1897 272 2375 
Q 272 2806 612 3100 
Q 953 3394 1669 3394 
Q 2350 3394 2681 3172 
Q 3013 2950 3138 2516 
L 2309 2363 
Q 2256 2556 2107 2659 
Q 1959 2763 1684 2763 
Q 1338 2763 1188 2666 
Q 1088 2597 1088 2488 
Q 1088 2394 1175 2328 
Q 1294 2241 1995 2081 
Q 2697 1922 2975 1691 
Q 3250 1456 3250 1038 
Q 3250 581 2869 253 
Q 2488 -75 1741 -75 
Q 1063 -75 667 200 
Q 272 475 150 947 
z
" transform="scale(0.015625)"/>
      <path id="Arial-BoldMT-62" d="M 422 0 
L 422 4581 
L 1300 4581 
L 1300 2931 
Q 1706 3394 2263 3394 
Q 2869 3394 3266 2955 
Q 3663 2516 3663 1694 
Q 3663 844 3258 384 
Q 2853 -75 2275 -75 
Q 1991 -75 1714 67 
Q 1438 209 1238 488 
L 1238 0 
L 422 0 
z
M 1294 1731 
Q 1294 1216 1456 969 
Q 1684 619 2063 619 
Q 2353 619 2558 867 
Q 2763 1116 2763 1650 
Q 2763 2219 2556 2470 
Q 2350 2722 2028 2722 
Q 1713 2722 1503 2476 
Q 1294 2231 1294 1731 
z
" transform="scale(0.015625)"/>
      <path id="Arial-BoldMT-28" d="M 1916 -1347 
L 1313 -1347 
Q 834 -625 584 153 
Q 334 931 334 1659 
Q 334 2563 644 3369 
Q 913 4069 1325 4659 
L 1925 4659 
Q 1497 3713 1336 3048 
Q 1175 2384 1175 1641 
Q 1175 1128 1270 590 
Q 1366 53 1531 -431 
Q 1641 -750 1916 -1347 
z
" transform="scale(0.015625)"/>
      <path id="Arial-BoldMT-6d" d="M 394 3319 
L 1203 3319 
L 1203 2866 
Q 1638 3394 2238 3394 
Q 2556 3394 2790 3262 
Q 3025 3131 3175 2866 
Q 3394 3131 3647 3262 
Q 3900 3394 4188 3394 
Q 4553 3394 4806 3245 
Q 5059 3097 5184 2809 
Q 5275 2597 5275 2122 
L 5275 0 
L 4397 0 
L 4397 1897 
Q 4397 2391 4306 2534 
Q 4184 2722 3931 2722 
Q 3747 2722 3584 2609 
Q 3422 2497 3350 2280 
Q 3278 2063 3278 1594 
L 3278 0 
L 2400 0 
L 2400 1819 
Q 2400 2303 2353 2443 
Q 2306 2584 2207 2653 
Q 2109 2722 1941 2722 
Q 1738 2722 1575 2612 
Q 1413 2503 1342 2297 
Q 1272 2091 1272 1613 
L 1272 0 
L 394 0 
L 394 3319 
z
" transform="scale(0.015625)"/>
      <path id="Arial-BoldMT-67" d="M 378 -219 
L 1381 -341 
Q 1406 -516 1497 -581 
Q 1622 -675 1891 -675 
Q 2234 -675 2406 -572 
Q 2522 -503 2581 -350 
Q 2622 -241 2622 53 
L 2622 538 
Q 2228 0 1628 0 
Q 959 0 569 566 
Q 263 1013 263 1678 
Q 263 2513 664 2953 
Q 1066 3394 1663 3394 
Q 2278 3394 2678 2853 
L 2678 3319 
L 3500 3319 
L 3500 341 
Q 3500 -247 3403 -537 
Q 3306 -828 3131 -993 
Q 2956 -1159 2664 -1253 
Q 2372 -1347 1925 -1347 
Q 1081 -1347 728 -1058 
Q 375 -769 375 -325 
Q 375 -281 378 -219 
z
M 1163 1728 
Q 1163 1200 1367 954 
Q 1572 709 1872 709 
Q 2194 709 2416 961 
Q 2638 1213 2638 1706 
Q 2638 2222 2425 2472 
Q 2213 2722 1888 2722 
Q 1572 2722 1367 2476 
Q 1163 2231 1163 1728 
z
" transform="scale(0.015625)"/>
      <path id="Arial-BoldMT-2d" d="M 359 1222 
L 359 2100 
L 2084 2100 
L 2084 1222 
L 359 1222 
z
" transform="scale(0.015625)"/>
      <path id="Arial-BoldMT-63" d="M 3353 2338 
L 2488 2181 
Q 2444 2441 2289 2572 
Q 2134 2703 1888 2703 
Q 1559 2703 1364 2476 
Q 1169 2250 1169 1719 
Q 1169 1128 1367 884 
Q 1566 641 1900 641 
Q 2150 641 2309 783 
Q 2469 925 2534 1272 
L 3397 1125 
Q 3263 531 2881 228 
Q 2500 -75 1859 -75 
Q 1131 -75 698 384 
Q 266 844 266 1656 
Q 266 2478 700 2936 
Q 1134 3394 1875 3394 
Q 2481 3394 2839 3133 
Q 3197 2872 3353 2338 
z
" transform="scale(0.015625)"/>
      <path id="Arial-BoldMT-66" d="M 75 3319 
L 563 3319 
L 563 3569 
Q 563 3988 652 4194 
Q 741 4400 980 4529 
Q 1219 4659 1584 4659 
Q 1959 4659 2319 4547 
L 2200 3934 
Q 1991 3984 1797 3984 
Q 1606 3984 1523 3895 
Q 1441 3806 1441 3553 
L 1441 3319 
L 2097 3319 
L 2097 2628 
L 1441 2628 
L 1441 0 
L 563 0 
L 563 2628 
L 75 2628 
L 75 3319 
z
" transform="scale(0.015625)"/>
      <path id="Arial-BoldMT-29" d="M 216 -1347 
Q 475 -791 581 -494 
Q 688 -197 778 190 
Q 869 578 912 926 
Q 956 1275 956 1641 
Q 956 2384 797 3048 
Q 638 3713 209 4659 
L 806 4659 
Q 1278 3988 1539 3234 
Q 1800 2481 1800 1706 
Q 1800 1053 1594 306 
Q 1359 -531 822 -1347 
L 216 -1347 
z
" transform="scale(0.015625)"/>
     </defs>
     <use xlink:href="#Arial-BoldMT-4d"/>
     <use xlink:href="#Arial-BoldMT-6f" transform="translate(83.300781 0)"/>
     <use xlink:href="#Arial-BoldMT-64" transform="translate(144.384766 0)"/>
     <use xlink:href="#Arial-BoldMT-65" transform="translate(205.46875 0)"/>
     <use xlink:href="#Arial-BoldMT-6c" transform="translate(261.083984 0)"/>
     <use xlink:href="#Arial-BoldMT-20" transform="translate(288.867188 0)"/>
     <use xlink:href="#Arial-BoldMT-44" transform="translate(316.650391 0)"/>
     <use xlink:href="#Arial-BoldMT-75" transform="translate(388.867188 0)"/>
     <use xlink:href="#Arial-BoldMT-72" transform="translate(449.951172 0)"/>
     <use xlink:href="#Arial-BoldMT-61" transform="translate(488.867188 0)"/>
     <use xlink:href="#Arial-BoldMT-74" transform="translate(544.482422 0)"/>
     <use xlink:href="#Arial-BoldMT-69" transform="translate(577.783203 0)"/>
     <use xlink:href="#Arial-BoldMT-6f" transform="translate(605.566406 0)"/>
     <use xlink:href="#Arial-BoldMT-6e" transform="translate(666.650391 0)"/>
     <use xlink:href="#Arial-BoldMT-20" transform="translate(727.734375 0)"/>
     <use xlink:href="#Arial-BoldMT-44" transform="translate(755.517578 0)"/>
     <use xlink:href="#Arial-BoldMT-69" transform="translate(827.734375 0)"/>
     <use xlink:href="#Arial-BoldMT-73" transform="translate(855.517578 0)"/>
     <use xlink:href="#Arial-BoldMT-74" transform="translate(911.132812 0)"/>
     <use xlink:href="#Arial-BoldMT-72" transform="translate(944.433594 0)"/>
     <use xlink:href="#Arial-BoldMT-69" transform="translate(983.349609 0)"/>
     <use xlink:href="#Arial-BoldMT-62" transform="translate(1011.132812 0)"/>
     <use xlink:href="#Arial-BoldMT-75" transform="translate(1072.216797 0)"/>
     <use xlink:href="#Arial-BoldMT-74" transform="translate(1133.300781 0)"/>
     <use xlink:href="#Arial-BoldMT-69" transform="translate(1166.601562 0)"/>
     <use xlink:href="#Arial-BoldMT-6f" transform="translate(1194.384766 0)"/>
     <use xlink:href="#Arial-BoldMT-6e" transform="translate(1255.46875 0)"/>
     <use xlink:href="#Arial-BoldMT-20" transform="translate(1316.552734 0)"/>
     <use xlink:href="#Arial-BoldMT-28" transform="translate(1344.335938 0)"/>
     <use xlink:href="#Arial-BoldMT-69" transform="translate(1377.636719 0)"/>
     <use xlink:href="#Arial-BoldMT-6d" transform="translate(1405.419922 0)"/>
     <use xlink:href="#Arial-BoldMT-67" transform="translate(1494.335938 0)"/>
     <use xlink:href="#Arial-BoldMT-2d" transform="translate(1555.419922 0)"/>
     <use xlink:href="#Arial-BoldMT-63" transform="translate(1588.720703 0)"/>
     <use xlink:href="#Arial-BoldMT-6c" transform="translate(1644.335938 0)"/>
     <use xlink:href="#Arial-BoldMT-61" transform="translate(1672.119141 0)"/>
     <use xlink:href="#Arial-BoldMT-73" transform="translate(1727.734375 0)"/>
     <use xlink:href="#Arial-BoldMT-73" transform="translate(1783.349609 0)"/>
     <use xlink:href="#Arial-BoldMT-69" transform="translate(1838.964844 0)"/>
     <use xlink:href="#Arial-BoldMT-66" transform="translate(1866.748047 0)"/>
     <use xlink:href="#Arial-BoldMT-69" transform="translate(1900.048828 0)"/>
     <use xlink:href="#Arial-BoldMT-63" transform="translate(1927.832031 0)"/>
     <use xlink:href="#Arial-BoldMT-61" transform="translate(1983.447266 0)"/>
     <use xlink:href="#Arial-BoldMT-74" transform="translate(2039.0625 0)"/>
     <use xlink:href="#Arial-BoldMT-69" transform="translate(2072.363281 0)"/>
     <use xlink:href="#Arial-BoldMT-6f" transform="translate(2100.146484 0)"/>
     <use xlink:href="#Arial-BoldMT-6e" transform="translate(2161.230469 0)"/>
     <use xlink:href="#Arial-BoldMT-29" transform="translate(2222.314453 0)"/>
    </g>
   </g>
  </g>
 </g>
 <defs>
  <clipPath id="p0ec3247202">
   <rect x="61.4656" y="31.92" width="1221.5744" height="586.865938"/>
  </clipPath>
 </defs>
</svg>
