<?xml version="1.0" encoding="utf-8" standalone="no"?>
<!DOCTYPE svg PUBLIC "-//W3C//DTD SVG 1.1//EN"
  "http://www.w3.org/Graphics/SVG/1.1/DTD/svg11.dtd">
<svg xmlns:xlink="http://www.w3.org/1999/xlink" width="1008pt" height="576pt" viewBox="0 0 1008 576" xmlns="http://www.w3.org/2000/svg" version="1.1">
 <metadata>
  <rdf:RDF xmlns:dc="http://purl.org/dc/elements/1.1/" xmlns:cc="http://creativecommons.org/ns#" xmlns:rdf="http://www.w3.org/1999/02/22-rdf-syntax-ns#">
   <cc:Work>
    <dc:type rdf:resource="http://purl.org/dc/dcmitype/StillImage"/>
    <dc:date>2025-02-09T11:24:51.518310</dc:date>
    <dc:format>image/svg+xml</dc:format>
    <dc:creator>
     <cc:Agent>
      <dc:title>Matplotlib v3.10.0, https://matplotlib.org/</dc:title>
     </cc:Agent>
    </dc:creator>
   </cc:Work>
  </rdf:RDF>
 </metadata>
 <defs>
  <style type="text/css">*{stroke-linejoin: round; stroke-linecap: butt}</style>
 </defs>
 <g id="figure_1">
  <g id="patch_1">
   <path d="M 0 576 
L 1008 576 
L 1008 0 
L 0 0 
z
" style="fill: #ffffff"/>
  </g>
  <g id="axes_1">
   <g id="patch_2">
    <path d="M 57.6 525.06 
L 988.11 525.06 
L 988.11 30.48 
L 57.6 30.48 
z
" style="fill: #ffffff"/>
   </g>
   <g id="matplotlib.axis_1">
    <g id="xtick_1">
     <g id="line2d_1">
      <path d="M 66.81297 525.06 
L 66.81297 30.48 
" clip-path="url(#pdeb4c02379)" style="fill: none; stroke-dasharray: 3.7,1.6; stroke-dashoffset: 0; stroke: #cccccc; stroke-opacity: 0.5"/>
     </g>
     <g id="text_1">
      <!-- 0 -->
      <g style="fill: #262626" transform="translate(63.313595 542.918281) scale(0.11 -0.11)">
       <defs>
        <path id="DejaVuSans-30" d="M 2034 4250 
Q 1547 4250 1301 3770 
Q 1056 3291 1056 2328 
Q 1056 1369 1301 889 
Q 1547 409 2034 409 
Q 2525 409 2770 889 
Q 3016 1369 3016 2328 
Q 3016 3291 2770 3770 
Q 2525 4250 2034 4250 
z
M 2034 4750 
Q 2819 4750 3233 4129 
Q 3647 3509 3647 2328 
Q 3647 1150 3233 529 
Q 2819 -91 2034 -91 
Q 1250 -91 836 529 
Q 422 1150 422 2328 
Q 422 3509 836 4129 
Q 1250 4750 2034 4750 
z
" transform="scale(0.015625)"/>
       </defs>
       <use xlink:href="#DejaVuSans-30"/>
      </g>
     </g>
    </g>
    <g id="xtick_2">
     <g id="line2d_2">
      <path d="M 251.072376 525.06 
L 251.072376 30.48 
" clip-path="url(#pdeb4c02379)" style="fill: none; stroke-dasharray: 3.7,1.6; stroke-dashoffset: 0; stroke: #cccccc; stroke-opacity: 0.5"/>
     </g>
     <g id="text_2">
      <!-- 10 -->
      <g style="fill: #262626" transform="translate(244.073626 542.918281) scale(0.11 -0.11)">
       <defs>
        <path id="DejaVuSans-31" d="M 794 531 
L 1825 531 
L 1825 4091 
L 703 3866 
L 703 4441 
L 1819 4666 
L 2450 4666 
L 2450 531 
L 3481 531 
L 3481 0 
L 794 0 
L 794 531 
z
" transform="scale(0.015625)"/>
       </defs>
       <use xlink:href="#DejaVuSans-31"/>
       <use xlink:href="#DejaVuSans-30" transform="translate(63.623047 0)"/>
      </g>
     </g>
    </g>
    <g id="xtick_3">
     <g id="line2d_3">
      <path d="M 435.331782 525.06 
L 435.331782 30.48 
" clip-path="url(#pdeb4c02379)" style="fill: none; stroke-dasharray: 3.7,1.6; stroke-dashoffset: 0; stroke: #cccccc; stroke-opacity: 0.5"/>
     </g>
     <g id="text_3">
      <!-- 20 -->
      <g style="fill: #262626" transform="translate(428.333032 542.918281) scale(0.11 -0.11)">
       <defs>
        <path id="DejaVuSans-32" d="M 1228 531 
L 3431 531 
L 3431 0 
L 469 0 
L 469 531 
Q 828 903 1448 1529 
Q 2069 2156 2228 2338 
Q 2531 2678 2651 2914 
Q 2772 3150 2772 3378 
Q 2772 3750 2511 3984 
Q 2250 4219 1831 4219 
Q 1534 4219 1204 4116 
Q 875 4013 500 3803 
L 500 4441 
Q 881 4594 1212 4672 
Q 1544 4750 1819 4750 
Q 2544 4750 2975 4387 
Q 3406 4025 3406 3419 
Q 3406 3131 3298 2873 
Q 3191 2616 2906 2266 
Q 2828 2175 2409 1742 
Q 1991 1309 1228 531 
z
" transform="scale(0.015625)"/>
       </defs>
       <use xlink:href="#DejaVuSans-32"/>
       <use xlink:href="#DejaVuSans-30" transform="translate(63.623047 0)"/>
      </g>
     </g>
    </g>
    <g id="xtick_4">
     <g id="line2d_4">
      <path d="M 619.591188 525.06 
L 619.591188 30.48 
" clip-path="url(#pdeb4c02379)" style="fill: none; stroke-dasharray: 3.7,1.6; stroke-dashoffset: 0; stroke: #cccccc; stroke-opacity: 0.5"/>
     </g>
     <g id="text_4">
      <!-- 30 -->
      <g style="fill: #262626" transform="translate(612.592438 542.918281) scale(0.11 -0.11)">
       <defs>
        <path id="DejaVuSans-33" d="M 2597 2516 
Q 3050 2419 3304 2112 
Q 3559 1806 3559 1356 
Q 3559 666 3084 287 
Q 2609 -91 1734 -91 
Q 1441 -91 1130 -33 
Q 819 25 488 141 
L 488 750 
Q 750 597 1062 519 
Q 1375 441 1716 441 
Q 2309 441 2620 675 
Q 2931 909 2931 1356 
Q 2931 1769 2642 2001 
Q 2353 2234 1838 2234 
L 1294 2234 
L 1294 2753 
L 1863 2753 
Q 2328 2753 2575 2939 
Q 2822 3125 2822 3475 
Q 2822 3834 2567 4026 
Q 2313 4219 1838 4219 
Q 1578 4219 1281 4162 
Q 984 4106 628 3988 
L 628 4550 
Q 988 4650 1302 4700 
Q 1616 4750 1894 4750 
Q 2613 4750 3031 4423 
Q 3450 4097 3450 3541 
Q 3450 3153 3228 2886 
Q 3006 2619 2597 2516 
z
" transform="scale(0.015625)"/>
       </defs>
       <use xlink:href="#DejaVuSans-33"/>
       <use xlink:href="#DejaVuSans-30" transform="translate(63.623047 0)"/>
      </g>
     </g>
    </g>
    <g id="xtick_5">
     <g id="line2d_5">
      <path d="M 803.850594 525.06 
L 803.850594 30.48 
" clip-path="url(#pdeb4c02379)" style="fill: none; stroke-dasharray: 3.7,1.6; stroke-dashoffset: 0; stroke: #cccccc; stroke-opacity: 0.5"/>
     </g>
     <g id="text_5">
      <!-- 40 -->
      <g style="fill: #262626" transform="translate(796.851844 542.918281) scale(0.11 -0.11)">
       <defs>
        <path id="DejaVuSans-34" d="M 2419 4116 
L 825 1625 
L 2419 1625 
L 2419 4116 
z
M 2253 4666 
L 3047 4666 
L 3047 1625 
L 3713 1625 
L 3713 1100 
L 3047 1100 
L 3047 0 
L 2419 0 
L 2419 1100 
L 313 1100 
L 313 1709 
L 2253 4666 
z
" transform="scale(0.015625)"/>
       </defs>
       <use xlink:href="#DejaVuSans-34"/>
       <use xlink:href="#DejaVuSans-30" transform="translate(63.623047 0)"/>
      </g>
     </g>
    </g>
    <g id="xtick_6">
     <g id="line2d_6">
      <path d="M 988.11 525.06 
L 988.11 30.48 
" clip-path="url(#pdeb4c02379)" style="fill: none; stroke-dasharray: 3.7,1.6; stroke-dashoffset: 0; stroke: #cccccc; stroke-opacity: 0.5"/>
     </g>
     <g id="text_6">
      <!-- 50 -->
      <g style="fill: #262626" transform="translate(981.11125 542.918281) scale(0.11 -0.11)">
       <defs>
        <path id="DejaVuSans-35" d="M 691 4666 
L 3169 4666 
L 3169 4134 
L 1269 4134 
L 1269 2991 
Q 1406 3038 1543 3061 
Q 1681 3084 1819 3084 
Q 2600 3084 3056 2656 
Q 3513 2228 3513 1497 
Q 3513 744 3044 326 
Q 2575 -91 1722 -91 
Q 1428 -91 1123 -41 
Q 819 9 494 109 
L 494 744 
Q 775 591 1075 516 
Q 1375 441 1709 441 
Q 2250 441 2565 725 
Q 2881 1009 2881 1497 
Q 2881 1984 2565 2268 
Q 2250 2553 1709 2553 
Q 1456 2553 1204 2497 
Q 953 2441 691 2322 
L 691 4666 
z
" transform="scale(0.015625)"/>
       </defs>
       <use xlink:href="#DejaVuSans-35"/>
       <use xlink:href="#DejaVuSans-30" transform="translate(63.623047 0)"/>
      </g>
     </g>
    </g>
    <g id="text_7">
     <!-- Epoch -->
     <g style="fill: #262626" transform="translate(501.419688 559.84375) scale(0.14 -0.14)">
      <defs>
       <path id="DejaVuSans-45" d="M 628 4666 
L 3578 4666 
L 3578 4134 
L 1259 4134 
L 1259 2753 
L 3481 2753 
L 3481 2222 
L 1259 2222 
L 1259 531 
L 3634 531 
L 3634 0 
L 628 0 
L 628 4666 
z
" transform="scale(0.015625)"/>
       <path id="DejaVuSans-70" d="M 1159 525 
L 1159 -1331 
L 581 -1331 
L 581 3500 
L 1159 3500 
L 1159 2969 
Q 1341 3281 1617 3432 
Q 1894 3584 2278 3584 
Q 2916 3584 3314 3078 
Q 3713 2572 3713 1747 
Q 3713 922 3314 415 
Q 2916 -91 2278 -91 
Q 1894 -91 1617 61 
Q 1341 213 1159 525 
z
M 3116 1747 
Q 3116 2381 2855 2742 
Q 2594 3103 2138 3103 
Q 1681 3103 1420 2742 
Q 1159 2381 1159 1747 
Q 1159 1113 1420 752 
Q 1681 391 2138 391 
Q 2594 391 2855 752 
Q 3116 1113 3116 1747 
z
" transform="scale(0.015625)"/>
       <path id="DejaVuSans-6f" d="M 1959 3097 
Q 1497 3097 1228 2736 
Q 959 2375 959 1747 
Q 959 1119 1226 758 
Q 1494 397 1959 397 
Q 2419 397 2687 759 
Q 2956 1122 2956 1747 
Q 2956 2369 2687 2733 
Q 2419 3097 1959 3097 
z
M 1959 3584 
Q 2709 3584 3137 3096 
Q 3566 2609 3566 1747 
Q 3566 888 3137 398 
Q 2709 -91 1959 -91 
Q 1206 -91 779 398 
Q 353 888 353 1747 
Q 353 2609 779 3096 
Q 1206 3584 1959 3584 
z
" transform="scale(0.015625)"/>
       <path id="DejaVuSans-63" d="M 3122 3366 
L 3122 2828 
Q 2878 2963 2633 3030 
Q 2388 3097 2138 3097 
Q 1578 3097 1268 2742 
Q 959 2388 959 1747 
Q 959 1106 1268 751 
Q 1578 397 2138 397 
Q 2388 397 2633 464 
Q 2878 531 3122 666 
L 3122 134 
Q 2881 22 2623 -34 
Q 2366 -91 2075 -91 
Q 1284 -91 818 406 
Q 353 903 353 1747 
Q 353 2603 823 3093 
Q 1294 3584 2113 3584 
Q 2378 3584 2631 3529 
Q 2884 3475 3122 3366 
z
" transform="scale(0.015625)"/>
       <path id="DejaVuSans-68" d="M 3513 2113 
L 3513 0 
L 2938 0 
L 2938 2094 
Q 2938 2591 2744 2837 
Q 2550 3084 2163 3084 
Q 1697 3084 1428 2787 
Q 1159 2491 1159 1978 
L 1159 0 
L 581 0 
L 581 4863 
L 1159 4863 
L 1159 2956 
Q 1366 3272 1645 3428 
Q 1925 3584 2291 3584 
Q 2894 3584 3203 3211 
Q 3513 2838 3513 2113 
z
" transform="scale(0.015625)"/>
      </defs>
      <use xlink:href="#DejaVuSans-45"/>
      <use xlink:href="#DejaVuSans-70" transform="translate(63.183594 0)"/>
      <use xlink:href="#DejaVuSans-6f" transform="translate(126.660156 0)"/>
      <use xlink:href="#DejaVuSans-63" transform="translate(187.841797 0)"/>
      <use xlink:href="#DejaVuSans-68" transform="translate(242.822266 0)"/>
     </g>
    </g>
   </g>
   <g id="matplotlib.axis_2">
    <g id="ytick_1">
     <g id="line2d_7">
      <path d="M 57.6 496.492421 
L 988.11 496.492421 
" clip-path="url(#pdeb4c02379)" style="fill: none; stroke-dasharray: 3.7,1.6; stroke-dashoffset: 0; stroke: #cccccc; stroke-opacity: 0.5"/>
     </g>
     <g id="text_8">
      <!-- 0.2 -->
      <g style="fill: #262626" transform="translate(30.606563 500.671561) scale(0.11 -0.11)">
       <defs>
        <path id="DejaVuSans-2e" d="M 684 794 
L 1344 794 
L 1344 0 
L 684 0 
L 684 794 
z
" transform="scale(0.015625)"/>
       </defs>
       <use xlink:href="#DejaVuSans-30"/>
       <use xlink:href="#DejaVuSans-2e" transform="translate(63.623047 0)"/>
       <use xlink:href="#DejaVuSans-32" transform="translate(95.410156 0)"/>
      </g>
     </g>
    </g>
    <g id="ytick_2">
     <g id="line2d_8">
      <path d="M 57.6 427.325713 
L 988.11 427.325713 
" clip-path="url(#pdeb4c02379)" style="fill: none; stroke-dasharray: 3.7,1.6; stroke-dashoffset: 0; stroke: #cccccc; stroke-opacity: 0.5"/>
     </g>
     <g id="text_9">
      <!-- 0.3 -->
      <g style="fill: #262626" transform="translate(30.606563 431.504854) scale(0.11 -0.11)">
       <use xlink:href="#DejaVuSans-30"/>
       <use xlink:href="#DejaVuSans-2e" transform="translate(63.623047 0)"/>
       <use xlink:href="#DejaVuSans-33" transform="translate(95.410156 0)"/>
      </g>
     </g>
    </g>
    <g id="ytick_3">
     <g id="line2d_9">
      <path d="M 57.6 358.159006 
L 988.11 358.159006 
" clip-path="url(#pdeb4c02379)" style="fill: none; stroke-dasharray: 3.7,1.6; stroke-dashoffset: 0; stroke: #cccccc; stroke-opacity: 0.5"/>
     </g>
     <g id="text_10">
      <!-- 0.4 -->
      <g style="fill: #262626" transform="translate(30.606563 362.338146) scale(0.11 -0.11)">
       <use xlink:href="#DejaVuSans-30"/>
       <use xlink:href="#DejaVuSans-2e" transform="translate(63.623047 0)"/>
       <use xlink:href="#DejaVuSans-34" transform="translate(95.410156 0)"/>
      </g>
     </g>
    </g>
    <g id="ytick_4">
     <g id="line2d_10">
      <path d="M 57.6 288.992298 
L 988.11 288.992298 
" clip-path="url(#pdeb4c02379)" style="fill: none; stroke-dasharray: 3.7,1.6; stroke-dashoffset: 0; stroke: #cccccc; stroke-opacity: 0.5"/>
     </g>
     <g id="text_11">
      <!-- 0.5 -->
      <g style="fill: #262626" transform="translate(30.606563 293.171439) scale(0.11 -0.11)">
       <use xlink:href="#DejaVuSans-30"/>
       <use xlink:href="#DejaVuSans-2e" transform="translate(63.623047 0)"/>
       <use xlink:href="#DejaVuSans-35" transform="translate(95.410156 0)"/>
      </g>
     </g>
    </g>
    <g id="ytick_5">
     <g id="line2d_11">
      <path d="M 57.6 219.825591 
L 988.11 219.825591 
" clip-path="url(#pdeb4c02379)" style="fill: none; stroke-dasharray: 3.7,1.6; stroke-dashoffset: 0; stroke: #cccccc; stroke-opacity: 0.5"/>
     </g>
     <g id="text_12">
      <!-- 0.6 -->
      <g style="fill: #262626" transform="translate(30.606563 224.004731) scale(0.11 -0.11)">
       <defs>
        <path id="DejaVuSans-36" d="M 2113 2584 
Q 1688 2584 1439 2293 
Q 1191 2003 1191 1497 
Q 1191 994 1439 701 
Q 1688 409 2113 409 
Q 2538 409 2786 701 
Q 3034 994 3034 1497 
Q 3034 2003 2786 2293 
Q 2538 2584 2113 2584 
z
M 3366 4563 
L 3366 3988 
Q 3128 4100 2886 4159 
Q 2644 4219 2406 4219 
Q 1781 4219 1451 3797 
Q 1122 3375 1075 2522 
Q 1259 2794 1537 2939 
Q 1816 3084 2150 3084 
Q 2853 3084 3261 2657 
Q 3669 2231 3669 1497 
Q 3669 778 3244 343 
Q 2819 -91 2113 -91 
Q 1303 -91 875 529 
Q 447 1150 447 2328 
Q 447 3434 972 4092 
Q 1497 4750 2381 4750 
Q 2619 4750 2861 4703 
Q 3103 4656 3366 4563 
z
" transform="scale(0.015625)"/>
       </defs>
       <use xlink:href="#DejaVuSans-30"/>
       <use xlink:href="#DejaVuSans-2e" transform="translate(63.623047 0)"/>
       <use xlink:href="#DejaVuSans-36" transform="translate(95.410156 0)"/>
      </g>
     </g>
    </g>
    <g id="ytick_6">
     <g id="line2d_12">
      <path d="M 57.6 150.658883 
L 988.11 150.658883 
" clip-path="url(#pdeb4c02379)" style="fill: none; stroke-dasharray: 3.7,1.6; stroke-dashoffset: 0; stroke: #cccccc; stroke-opacity: 0.5"/>
     </g>
     <g id="text_13">
      <!-- 0.7 -->
      <g style="fill: #262626" transform="translate(30.606563 154.838024) scale(0.11 -0.11)">
       <defs>
        <path id="DejaVuSans-37" d="M 525 4666 
L 3525 4666 
L 3525 4397 
L 1831 0 
L 1172 0 
L 2766 4134 
L 525 4134 
L 525 4666 
z
" transform="scale(0.015625)"/>
       </defs>
       <use xlink:href="#DejaVuSans-30"/>
       <use xlink:href="#DejaVuSans-2e" transform="translate(63.623047 0)"/>
       <use xlink:href="#DejaVuSans-37" transform="translate(95.410156 0)"/>
      </g>
     </g>
    </g>
    <g id="ytick_7">
     <g id="line2d_13">
      <path d="M 57.6 81.492176 
L 988.11 81.492176 
" clip-path="url(#pdeb4c02379)" style="fill: none; stroke-dasharray: 3.7,1.6; stroke-dashoffset: 0; stroke: #cccccc; stroke-opacity: 0.5"/>
     </g>
     <g id="text_14">
      <!-- 0.8 -->
      <g style="fill: #262626" transform="translate(30.606563 85.671317) scale(0.11 -0.11)">
       <defs>
        <path id="DejaVuSans-38" d="M 2034 2216 
Q 1584 2216 1326 1975 
Q 1069 1734 1069 1313 
Q 1069 891 1326 650 
Q 1584 409 2034 409 
Q 2484 409 2743 651 
Q 3003 894 3003 1313 
Q 3003 1734 2745 1975 
Q 2488 2216 2034 2216 
z
M 1403 2484 
Q 997 2584 770 2862 
Q 544 3141 544 3541 
Q 544 4100 942 4425 
Q 1341 4750 2034 4750 
Q 2731 4750 3128 4425 
Q 3525 4100 3525 3541 
Q 3525 3141 3298 2862 
Q 3072 2584 2669 2484 
Q 3125 2378 3379 2068 
Q 3634 1759 3634 1313 
Q 3634 634 3220 271 
Q 2806 -91 2034 -91 
Q 1263 -91 848 271 
Q 434 634 434 1313 
Q 434 1759 690 2068 
Q 947 2378 1403 2484 
z
M 1172 3481 
Q 1172 3119 1398 2916 
Q 1625 2713 2034 2713 
Q 2441 2713 2670 2916 
Q 2900 3119 2900 3481 
Q 2900 3844 2670 4047 
Q 2441 4250 2034 4250 
Q 1625 4250 1398 4047 
Q 1172 3844 1172 3481 
z
" transform="scale(0.015625)"/>
       </defs>
       <use xlink:href="#DejaVuSans-30"/>
       <use xlink:href="#DejaVuSans-2e" transform="translate(63.623047 0)"/>
       <use xlink:href="#DejaVuSans-38" transform="translate(95.410156 0)"/>
      </g>
     </g>
    </g>
    <g id="text_15">
     <!-- Accuracy_mean -->
     <g style="fill: #262626" transform="translate(23.305625 333.080938) rotate(-90) scale(0.14 -0.14)">
      <defs>
       <path id="DejaVuSans-41" d="M 2188 4044 
L 1331 1722 
L 3047 1722 
L 2188 4044 
z
M 1831 4666 
L 2547 4666 
L 4325 0 
L 3669 0 
L 3244 1197 
L 1141 1197 
L 716 0 
L 50 0 
L 1831 4666 
z
" transform="scale(0.015625)"/>
       <path id="DejaVuSans-75" d="M 544 1381 
L 544 3500 
L 1119 3500 
L 1119 1403 
Q 1119 906 1312 657 
Q 1506 409 1894 409 
Q 2359 409 2629 706 
Q 2900 1003 2900 1516 
L 2900 3500 
L 3475 3500 
L 3475 0 
L 2900 0 
L 2900 538 
Q 2691 219 2414 64 
Q 2138 -91 1772 -91 
Q 1169 -91 856 284 
Q 544 659 544 1381 
z
M 1991 3584 
L 1991 3584 
z
" transform="scale(0.015625)"/>
       <path id="DejaVuSans-72" d="M 2631 2963 
Q 2534 3019 2420 3045 
Q 2306 3072 2169 3072 
Q 1681 3072 1420 2755 
Q 1159 2438 1159 1844 
L 1159 0 
L 581 0 
L 581 3500 
L 1159 3500 
L 1159 2956 
Q 1341 3275 1631 3429 
Q 1922 3584 2338 3584 
Q 2397 3584 2469 3576 
Q 2541 3569 2628 3553 
L 2631 2963 
z
" transform="scale(0.015625)"/>
       <path id="DejaVuSans-61" d="M 2194 1759 
Q 1497 1759 1228 1600 
Q 959 1441 959 1056 
Q 959 750 1161 570 
Q 1363 391 1709 391 
Q 2188 391 2477 730 
Q 2766 1069 2766 1631 
L 2766 1759 
L 2194 1759 
z
M 3341 1997 
L 3341 0 
L 2766 0 
L 2766 531 
Q 2569 213 2275 61 
Q 1981 -91 1556 -91 
Q 1019 -91 701 211 
Q 384 513 384 1019 
Q 384 1609 779 1909 
Q 1175 2209 1959 2209 
L 2766 2209 
L 2766 2266 
Q 2766 2663 2505 2880 
Q 2244 3097 1772 3097 
Q 1472 3097 1187 3025 
Q 903 2953 641 2809 
L 641 3341 
Q 956 3463 1253 3523 
Q 1550 3584 1831 3584 
Q 2591 3584 2966 3190 
Q 3341 2797 3341 1997 
z
" transform="scale(0.015625)"/>
       <path id="DejaVuSans-79" d="M 2059 -325 
Q 1816 -950 1584 -1140 
Q 1353 -1331 966 -1331 
L 506 -1331 
L 506 -850 
L 844 -850 
Q 1081 -850 1212 -737 
Q 1344 -625 1503 -206 
L 1606 56 
L 191 3500 
L 800 3500 
L 1894 763 
L 2988 3500 
L 3597 3500 
L 2059 -325 
z
" transform="scale(0.015625)"/>
       <path id="DejaVuSans-5f" d="M 3263 -1063 
L 3263 -1509 
L -63 -1509 
L -63 -1063 
L 3263 -1063 
z
" transform="scale(0.015625)"/>
       <path id="DejaVuSans-6d" d="M 3328 2828 
Q 3544 3216 3844 3400 
Q 4144 3584 4550 3584 
Q 5097 3584 5394 3201 
Q 5691 2819 5691 2113 
L 5691 0 
L 5113 0 
L 5113 2094 
Q 5113 2597 4934 2840 
Q 4756 3084 4391 3084 
Q 3944 3084 3684 2787 
Q 3425 2491 3425 1978 
L 3425 0 
L 2847 0 
L 2847 2094 
Q 2847 2600 2669 2842 
Q 2491 3084 2119 3084 
Q 1678 3084 1418 2786 
Q 1159 2488 1159 1978 
L 1159 0 
L 581 0 
L 581 3500 
L 1159 3500 
L 1159 2956 
Q 1356 3278 1631 3431 
Q 1906 3584 2284 3584 
Q 2666 3584 2933 3390 
Q 3200 3197 3328 2828 
z
" transform="scale(0.015625)"/>
       <path id="DejaVuSans-65" d="M 3597 1894 
L 3597 1613 
L 953 1613 
Q 991 1019 1311 708 
Q 1631 397 2203 397 
Q 2534 397 2845 478 
Q 3156 559 3463 722 
L 3463 178 
Q 3153 47 2828 -22 
Q 2503 -91 2169 -91 
Q 1331 -91 842 396 
Q 353 884 353 1716 
Q 353 2575 817 3079 
Q 1281 3584 2069 3584 
Q 2775 3584 3186 3129 
Q 3597 2675 3597 1894 
z
M 3022 2063 
Q 3016 2534 2758 2815 
Q 2500 3097 2075 3097 
Q 1594 3097 1305 2825 
Q 1016 2553 972 2059 
L 3022 2063 
z
" transform="scale(0.015625)"/>
       <path id="DejaVuSans-6e" d="M 3513 2113 
L 3513 0 
L 2938 0 
L 2938 2094 
Q 2938 2591 2744 2837 
Q 2550 3084 2163 3084 
Q 1697 3084 1428 2787 
Q 1159 2491 1159 1978 
L 1159 0 
L 581 0 
L 581 3500 
L 1159 3500 
L 1159 2956 
Q 1366 3272 1645 3428 
Q 1925 3584 2291 3584 
Q 2894 3584 3203 3211 
Q 3513 2838 3513 2113 
z
" transform="scale(0.015625)"/>
      </defs>
      <use xlink:href="#DejaVuSans-41"/>
      <use xlink:href="#DejaVuSans-63" transform="translate(66.658203 0)"/>
      <use xlink:href="#DejaVuSans-63" transform="translate(121.638672 0)"/>
      <use xlink:href="#DejaVuSans-75" transform="translate(176.619141 0)"/>
      <use xlink:href="#DejaVuSans-72" transform="translate(239.998047 0)"/>
      <use xlink:href="#DejaVuSans-61" transform="translate(281.111328 0)"/>
      <use xlink:href="#DejaVuSans-63" transform="translate(342.390625 0)"/>
      <use xlink:href="#DejaVuSans-79" transform="translate(397.371094 0)"/>
      <use xlink:href="#DejaVuSans-5f" transform="translate(456.550781 0)"/>
      <use xlink:href="#DejaVuSans-6d" transform="translate(506.550781 0)"/>
      <use xlink:href="#DejaVuSans-65" transform="translate(603.962891 0)"/>
      <use xlink:href="#DejaVuSans-61" transform="translate(665.486328 0)"/>
      <use xlink:href="#DejaVuSans-6e" transform="translate(726.765625 0)"/>
     </g>
    </g>
   </g>
   <g id="patch_3">
    <path d="M 60.363891 438.753582 
L 73.26205 438.753582 
L 73.26205 350.958698 
L 60.363891 350.958698 
L 60.363891 438.753582 
z
" clip-path="url(#pdeb4c02379)" style="fill: #72b6a1; stroke: #595959; stroke-linejoin: miter"/>
   </g>
   <g id="line2d_14">
    <path d="M 66.81297 438.753582 
L 66.81297 493.890321 
" clip-path="url(#pdeb4c02379)" style="fill: none; stroke: #595959"/>
   </g>
   <g id="line2d_15">
    <path d="M 66.81297 350.958698 
L 66.81297 272.261712 
" clip-path="url(#pdeb4c02379)" style="fill: none; stroke: #595959"/>
   </g>
   <g id="line2d_16">
    <path d="M 63.588431 493.890321 
L 70.03751 493.890321 
" clip-path="url(#pdeb4c02379)" style="fill: none; stroke: #595959; stroke-linecap: round"/>
   </g>
   <g id="line2d_17">
    <path d="M 63.588431 272.261712 
L 70.03751 272.261712 
" clip-path="url(#pdeb4c02379)" style="fill: none; stroke: #595959; stroke-linecap: round"/>
   </g>
   <g id="line2d_18"/>
   <g id="patch_4">
    <path d="M 78.789832 397.342844 
L 91.68799 397.342844 
L 91.68799 235.080998 
L 78.789832 235.080998 
L 78.789832 397.342844 
z
" clip-path="url(#pdeb4c02379)" style="fill: #72b6a1; stroke: #595959; stroke-linejoin: miter"/>
   </g>
   <g id="line2d_19">
    <path d="M 85.238911 397.342844 
L 85.238911 463.452017 
" clip-path="url(#pdeb4c02379)" style="fill: none; stroke: #595959"/>
   </g>
   <g id="line2d_20">
    <path d="M 85.238911 235.080998 
L 85.238911 176.410033 
" clip-path="url(#pdeb4c02379)" style="fill: none; stroke: #595959"/>
   </g>
   <g id="line2d_21">
    <path d="M 82.014371 463.452017 
L 88.46345 463.452017 
" clip-path="url(#pdeb4c02379)" style="fill: none; stroke: #595959; stroke-linecap: round"/>
   </g>
   <g id="line2d_22">
    <path d="M 82.014371 176.410033 
L 88.46345 176.410033 
" clip-path="url(#pdeb4c02379)" style="fill: none; stroke: #595959; stroke-linecap: round"/>
   </g>
   <g id="line2d_23"/>
   <g id="patch_5">
    <path d="M 97.215772 382.516822 
L 110.113931 382.516822 
L 110.113931 284.510296 
L 97.215772 284.510296 
L 97.215772 382.516822 
z
" clip-path="url(#pdeb4c02379)" style="fill: #72b6a1; stroke: #595959; stroke-linejoin: miter"/>
   </g>
   <g id="line2d_24">
    <path d="M 103.664851 382.516822 
L 103.664851 436.580219 
" clip-path="url(#pdeb4c02379)" style="fill: none; stroke: #595959"/>
   </g>
   <g id="line2d_25">
    <path d="M 103.664851 284.510296 
L 103.664851 166.402955 
" clip-path="url(#pdeb4c02379)" style="fill: none; stroke: #595959"/>
   </g>
   <g id="line2d_26">
    <path d="M 100.440312 436.580219 
L 106.889391 436.580219 
" clip-path="url(#pdeb4c02379)" style="fill: none; stroke: #595959; stroke-linecap: round"/>
   </g>
   <g id="line2d_27">
    <path d="M 100.440312 166.402955 
L 106.889391 166.402955 
" clip-path="url(#pdeb4c02379)" style="fill: none; stroke: #595959; stroke-linecap: round"/>
   </g>
   <g id="line2d_28"/>
   <g id="patch_6">
    <path d="M 115.641713 370.568142 
L 128.539871 370.568142 
L 128.539871 262.964619 
L 115.641713 262.964619 
L 115.641713 370.568142 
z
" clip-path="url(#pdeb4c02379)" style="fill: #72b6a1; stroke: #595959; stroke-linejoin: miter"/>
   </g>
   <g id="line2d_29">
    <path d="M 122.090792 370.568142 
L 122.090792 448.940309 
" clip-path="url(#pdeb4c02379)" style="fill: none; stroke: #595959"/>
   </g>
   <g id="line2d_30">
    <path d="M 122.090792 262.964619 
L 122.090792 144.174505 
" clip-path="url(#pdeb4c02379)" style="fill: none; stroke: #595959"/>
   </g>
   <g id="line2d_31">
    <path d="M 118.866252 448.940309 
L 125.315332 448.940309 
" clip-path="url(#pdeb4c02379)" style="fill: none; stroke: #595959; stroke-linecap: round"/>
   </g>
   <g id="line2d_32">
    <path d="M 118.866252 144.174505 
L 125.315332 144.174505 
" clip-path="url(#pdeb4c02379)" style="fill: none; stroke: #595959; stroke-linecap: round"/>
   </g>
   <g id="line2d_33"/>
   <g id="patch_7">
    <path d="M 134.067653 342.502939 
L 146.965812 342.502939 
L 146.965812 184.590447 
L 134.067653 184.590447 
L 134.067653 342.502939 
z
" clip-path="url(#pdeb4c02379)" style="fill: #72b6a1; stroke: #595959; stroke-linejoin: miter"/>
   </g>
   <g id="line2d_34">
    <path d="M 140.516733 342.502939 
L 140.516733 400.966281 
" clip-path="url(#pdeb4c02379)" style="fill: none; stroke: #595959"/>
   </g>
   <g id="line2d_35">
    <path d="M 140.516733 184.590447 
L 140.516733 78.401834 
" clip-path="url(#pdeb4c02379)" style="fill: none; stroke: #595959"/>
   </g>
   <g id="line2d_36">
    <path d="M 137.292193 400.966281 
L 143.741272 400.966281 
" clip-path="url(#pdeb4c02379)" style="fill: none; stroke: #595959; stroke-linecap: round"/>
   </g>
   <g id="line2d_37">
    <path d="M 137.292193 78.401834 
L 143.741272 78.401834 
" clip-path="url(#pdeb4c02379)" style="fill: none; stroke: #595959; stroke-linecap: round"/>
   </g>
   <g id="line2d_38"/>
   <g id="patch_8">
    <path d="M 152.493594 366.104531 
L 165.391752 366.104531 
L 165.391752 229.880701 
L 152.493594 229.880701 
L 152.493594 366.104531 
z
" clip-path="url(#pdeb4c02379)" style="fill: #72b6a1; stroke: #595959; stroke-linejoin: miter"/>
   </g>
   <g id="line2d_39">
    <path d="M 158.942673 366.104531 
L 158.942673 502.53298 
" clip-path="url(#pdeb4c02379)" style="fill: none; stroke: #595959"/>
   </g>
   <g id="line2d_40">
    <path d="M 158.942673 229.880701 
L 158.942673 159.961806 
" clip-path="url(#pdeb4c02379)" style="fill: none; stroke: #595959"/>
   </g>
   <g id="line2d_41">
    <path d="M 155.718134 502.53298 
L 162.167213 502.53298 
" clip-path="url(#pdeb4c02379)" style="fill: none; stroke: #595959; stroke-linecap: round"/>
   </g>
   <g id="line2d_42">
    <path d="M 155.718134 159.961806 
L 162.167213 159.961806 
" clip-path="url(#pdeb4c02379)" style="fill: none; stroke: #595959; stroke-linecap: round"/>
   </g>
   <g id="line2d_43"/>
   <g id="patch_9">
    <path d="M 170.919535 358.798798 
L 183.817693 358.798798 
L 183.817693 202.23131 
L 170.919535 202.23131 
L 170.919535 358.798798 
z
" clip-path="url(#pdeb4c02379)" style="fill: #72b6a1; stroke: #595959; stroke-linejoin: miter"/>
   </g>
   <g id="line2d_44">
    <path d="M 177.368614 358.798798 
L 177.368614 502.579091 
" clip-path="url(#pdeb4c02379)" style="fill: none; stroke: #595959"/>
   </g>
   <g id="line2d_45">
    <path d="M 177.368614 202.23131 
L 177.368614 144.560685 
" clip-path="url(#pdeb4c02379)" style="fill: none; stroke: #595959"/>
   </g>
   <g id="line2d_46">
    <path d="M 174.144074 502.579091 
L 180.593153 502.579091 
" clip-path="url(#pdeb4c02379)" style="fill: none; stroke: #595959; stroke-linecap: round"/>
   </g>
   <g id="line2d_47">
    <path d="M 174.144074 144.560685 
L 180.593153 144.560685 
" clip-path="url(#pdeb4c02379)" style="fill: none; stroke: #595959; stroke-linecap: round"/>
   </g>
   <g id="line2d_48"/>
   <g id="patch_10">
    <path d="M 189.345475 354.424004 
L 202.243634 354.424004 
L 202.243634 211.759024 
L 189.345475 211.759024 
L 189.345475 354.424004 
z
" clip-path="url(#pdeb4c02379)" style="fill: #72b6a1; stroke: #595959; stroke-linejoin: miter"/>
   </g>
   <g id="line2d_49">
    <path d="M 195.794554 354.424004 
L 195.794554 491.558529 
" clip-path="url(#pdeb4c02379)" style="fill: none; stroke: #595959"/>
   </g>
   <g id="line2d_50">
    <path d="M 195.794554 211.759024 
L 195.794554 132.502623 
" clip-path="url(#pdeb4c02379)" style="fill: none; stroke: #595959"/>
   </g>
   <g id="line2d_51">
    <path d="M 192.570015 491.558529 
L 199.019094 491.558529 
" clip-path="url(#pdeb4c02379)" style="fill: none; stroke: #595959; stroke-linecap: round"/>
   </g>
   <g id="line2d_52">
    <path d="M 192.570015 132.502623 
L 199.019094 132.502623 
" clip-path="url(#pdeb4c02379)" style="fill: none; stroke: #595959; stroke-linecap: round"/>
   </g>
   <g id="line2d_53"/>
   <g id="patch_11">
    <path d="M 207.771416 345.964051 
L 220.669574 345.964051 
L 220.669574 184.256612 
L 207.771416 184.256612 
L 207.771416 345.964051 
z
" clip-path="url(#pdeb4c02379)" style="fill: #72b6a1; stroke: #595959; stroke-linejoin: miter"/>
   </g>
   <g id="line2d_54">
    <path d="M 214.220495 345.964051 
L 214.220495 489.737139 
" clip-path="url(#pdeb4c02379)" style="fill: none; stroke: #595959"/>
   </g>
   <g id="line2d_55">
    <path d="M 214.220495 184.256612 
L 214.220495 123.280395 
" clip-path="url(#pdeb4c02379)" style="fill: none; stroke: #595959"/>
   </g>
   <g id="line2d_56">
    <path d="M 210.995955 489.737139 
L 217.445035 489.737139 
" clip-path="url(#pdeb4c02379)" style="fill: none; stroke: #595959; stroke-linecap: round"/>
   </g>
   <g id="line2d_57">
    <path d="M 210.995955 123.280395 
L 217.445035 123.280395 
" clip-path="url(#pdeb4c02379)" style="fill: none; stroke: #595959; stroke-linecap: round"/>
   </g>
   <g id="line2d_58"/>
   <g id="patch_12">
    <path d="M 226.197356 340.435037 
L 239.095515 340.435037 
L 239.095515 190.334636 
L 226.197356 190.334636 
L 226.197356 340.435037 
z
" clip-path="url(#pdeb4c02379)" style="fill: #72b6a1; stroke: #595959; stroke-linejoin: miter"/>
   </g>
   <g id="line2d_59">
    <path d="M 232.646436 340.435037 
L 232.646436 466.37032 
" clip-path="url(#pdeb4c02379)" style="fill: none; stroke: #595959"/>
   </g>
   <g id="line2d_60">
    <path d="M 232.646436 190.334636 
L 232.646436 126.810203 
" clip-path="url(#pdeb4c02379)" style="fill: none; stroke: #595959"/>
   </g>
   <g id="line2d_61">
    <path d="M 229.421896 466.37032 
L 235.870975 466.37032 
" clip-path="url(#pdeb4c02379)" style="fill: none; stroke: #595959; stroke-linecap: round"/>
   </g>
   <g id="line2d_62">
    <path d="M 229.421896 126.810203 
L 235.870975 126.810203 
" clip-path="url(#pdeb4c02379)" style="fill: none; stroke: #595959; stroke-linecap: round"/>
   </g>
   <g id="line2d_63"/>
   <g id="patch_13">
    <path d="M 244.623297 342.86884 
L 257.521455 342.86884 
L 257.521455 172.057333 
L 244.623297 172.057333 
L 244.623297 342.86884 
z
" clip-path="url(#pdeb4c02379)" style="fill: #72b6a1; stroke: #595959; stroke-linejoin: miter"/>
   </g>
   <g id="line2d_64">
    <path d="M 251.072376 342.86884 
L 251.072376 482.08269 
" clip-path="url(#pdeb4c02379)" style="fill: none; stroke: #595959"/>
   </g>
   <g id="line2d_65">
    <path d="M 251.072376 172.057333 
L 251.072376 105.631357 
" clip-path="url(#pdeb4c02379)" style="fill: none; stroke: #595959"/>
   </g>
   <g id="line2d_66">
    <path d="M 247.847837 482.08269 
L 254.296916 482.08269 
" clip-path="url(#pdeb4c02379)" style="fill: none; stroke: #595959; stroke-linecap: round"/>
   </g>
   <g id="line2d_67">
    <path d="M 247.847837 105.631357 
L 254.296916 105.631357 
" clip-path="url(#pdeb4c02379)" style="fill: none; stroke: #595959; stroke-linecap: round"/>
   </g>
   <g id="line2d_68"/>
   <g id="patch_14">
    <path d="M 263.049238 335.636597 
L 275.947396 335.636597 
L 275.947396 167.622018 
L 263.049238 167.622018 
L 263.049238 335.636597 
z
" clip-path="url(#pdeb4c02379)" style="fill: #72b6a1; stroke: #595959; stroke-linejoin: miter"/>
   </g>
   <g id="line2d_69">
    <path d="M 269.498317 335.636597 
L 269.498317 460.525733 
" clip-path="url(#pdeb4c02379)" style="fill: none; stroke: #595959"/>
   </g>
   <g id="line2d_70">
    <path d="M 269.498317 167.622018 
L 269.498317 128.214287 
" clip-path="url(#pdeb4c02379)" style="fill: none; stroke: #595959"/>
   </g>
   <g id="line2d_71">
    <path d="M 266.273777 460.525733 
L 272.722856 460.525733 
" clip-path="url(#pdeb4c02379)" style="fill: none; stroke: #595959; stroke-linecap: round"/>
   </g>
   <g id="line2d_72">
    <path d="M 266.273777 128.214287 
L 272.722856 128.214287 
" clip-path="url(#pdeb4c02379)" style="fill: none; stroke: #595959; stroke-linecap: round"/>
   </g>
   <g id="line2d_73"/>
   <g id="patch_15">
    <path d="M 281.475178 328.183884 
L 294.373337 328.183884 
L 294.373337 163.178057 
L 281.475178 163.178057 
L 281.475178 328.183884 
z
" clip-path="url(#pdeb4c02379)" style="fill: #72b6a1; stroke: #595959; stroke-linejoin: miter"/>
   </g>
   <g id="line2d_74">
    <path d="M 287.924257 328.183884 
L 287.924257 458.796565 
" clip-path="url(#pdeb4c02379)" style="fill: none; stroke: #595959"/>
   </g>
   <g id="line2d_75">
    <path d="M 287.924257 163.178057 
L 287.924257 83.152177 
" clip-path="url(#pdeb4c02379)" style="fill: none; stroke: #595959"/>
   </g>
   <g id="line2d_76">
    <path d="M 284.699718 458.796565 
L 291.148797 458.796565 
" clip-path="url(#pdeb4c02379)" style="fill: none; stroke: #595959; stroke-linecap: round"/>
   </g>
   <g id="line2d_77">
    <path d="M 284.699718 83.152177 
L 291.148797 83.152177 
" clip-path="url(#pdeb4c02379)" style="fill: none; stroke: #595959; stroke-linecap: round"/>
   </g>
   <g id="line2d_78"/>
   <g id="patch_16">
    <path d="M 299.901119 329.420239 
L 312.799277 329.420239 
L 312.799277 170.129312 
L 299.901119 170.129312 
L 299.901119 329.420239 
z
" clip-path="url(#pdeb4c02379)" style="fill: #72b6a1; stroke: #595959; stroke-linejoin: miter"/>
   </g>
   <g id="line2d_79">
    <path d="M 306.350198 329.420239 
L 306.350198 454.266146 
" clip-path="url(#pdeb4c02379)" style="fill: none; stroke: #595959"/>
   </g>
   <g id="line2d_80">
    <path d="M 306.350198 170.129312 
L 306.350198 120.969074 
" clip-path="url(#pdeb4c02379)" style="fill: none; stroke: #595959"/>
   </g>
   <g id="line2d_81">
    <path d="M 303.125658 454.266146 
L 309.574738 454.266146 
" clip-path="url(#pdeb4c02379)" style="fill: none; stroke: #595959; stroke-linecap: round"/>
   </g>
   <g id="line2d_82">
    <path d="M 303.125658 120.969074 
L 309.574738 120.969074 
" clip-path="url(#pdeb4c02379)" style="fill: none; stroke: #595959; stroke-linecap: round"/>
   </g>
   <g id="line2d_83"/>
   <g id="patch_17">
    <path d="M 318.327059 327.601731 
L 331.225218 327.601731 
L 331.225218 152.777114 
L 318.327059 152.777114 
L 318.327059 327.601731 
z
" clip-path="url(#pdeb4c02379)" style="fill: #72b6a1; stroke: #595959; stroke-linejoin: miter"/>
   </g>
   <g id="line2d_84">
    <path d="M 324.776139 327.601731 
L 324.776139 454.669618 
" clip-path="url(#pdeb4c02379)" style="fill: none; stroke: #595959"/>
   </g>
   <g id="line2d_85">
    <path d="M 324.776139 152.777114 
L 324.776139 109.764068 
" clip-path="url(#pdeb4c02379)" style="fill: none; stroke: #595959"/>
   </g>
   <g id="line2d_86">
    <path d="M 321.551599 454.669618 
L 328.000678 454.669618 
" clip-path="url(#pdeb4c02379)" style="fill: none; stroke: #595959; stroke-linecap: round"/>
   </g>
   <g id="line2d_87">
    <path d="M 321.551599 109.764068 
L 328.000678 109.764068 
" clip-path="url(#pdeb4c02379)" style="fill: none; stroke: #595959; stroke-linecap: round"/>
   </g>
   <g id="line2d_88"/>
   <g id="patch_18">
    <path d="M 336.753 326.251539 
L 349.651158 326.251539 
L 349.651158 150.096904 
L 336.753 150.096904 
L 336.753 326.251539 
z
" clip-path="url(#pdeb4c02379)" style="fill: #72b6a1; stroke: #595959; stroke-linejoin: miter"/>
   </g>
   <g id="line2d_89">
    <path d="M 343.202079 326.251539 
L 343.202079 449.87406 
" clip-path="url(#pdeb4c02379)" style="fill: none; stroke: #595959"/>
   </g>
   <g id="line2d_90">
    <path d="M 343.202079 150.096904 
L 343.202079 109.003234 
" clip-path="url(#pdeb4c02379)" style="fill: none; stroke: #595959"/>
   </g>
   <g id="line2d_91">
    <path d="M 339.97754 449.87406 
L 346.426619 449.87406 
" clip-path="url(#pdeb4c02379)" style="fill: none; stroke: #595959; stroke-linecap: round"/>
   </g>
   <g id="line2d_92">
    <path d="M 339.97754 109.003234 
L 346.426619 109.003234 
" clip-path="url(#pdeb4c02379)" style="fill: none; stroke: #595959; stroke-linecap: round"/>
   </g>
   <g id="line2d_93"/>
   <g id="patch_19">
    <path d="M 355.178941 319.697993 
L 368.077099 319.697993 
L 368.077099 164.85535 
L 355.178941 164.85535 
L 355.178941 319.697993 
z
" clip-path="url(#pdeb4c02379)" style="fill: #72b6a1; stroke: #595959; stroke-linejoin: miter"/>
   </g>
   <g id="line2d_94">
    <path d="M 361.62802 319.697993 
L 361.62802 443.78739 
" clip-path="url(#pdeb4c02379)" style="fill: none; stroke: #595959"/>
   </g>
   <g id="line2d_95">
    <path d="M 361.62802 164.85535 
L 361.62802 104.853231 
" clip-path="url(#pdeb4c02379)" style="fill: none; stroke: #595959"/>
   </g>
   <g id="line2d_96">
    <path d="M 358.40348 443.78739 
L 364.852559 443.78739 
" clip-path="url(#pdeb4c02379)" style="fill: none; stroke: #595959; stroke-linecap: round"/>
   </g>
   <g id="line2d_97">
    <path d="M 358.40348 104.853231 
L 364.852559 104.853231 
" clip-path="url(#pdeb4c02379)" style="fill: none; stroke: #595959; stroke-linecap: round"/>
   </g>
   <g id="line2d_98"/>
   <g id="patch_20">
    <path d="M 373.604881 318.228201 
L 386.50304 318.228201 
L 386.50304 155.477497 
L 373.604881 155.477497 
L 373.604881 318.228201 
z
" clip-path="url(#pdeb4c02379)" style="fill: #72b6a1; stroke: #595959; stroke-linejoin: miter"/>
   </g>
   <g id="line2d_99">
    <path d="M 380.05396 318.228201 
L 380.05396 441.228221 
" clip-path="url(#pdeb4c02379)" style="fill: none; stroke: #595959"/>
   </g>
   <g id="line2d_100">
    <path d="M 380.05396 155.477497 
L 380.05396 100.962604 
" clip-path="url(#pdeb4c02379)" style="fill: none; stroke: #595959"/>
   </g>
   <g id="line2d_101">
    <path d="M 376.829421 441.228221 
L 383.2785 441.228221 
" clip-path="url(#pdeb4c02379)" style="fill: none; stroke: #595959; stroke-linecap: round"/>
   </g>
   <g id="line2d_102">
    <path d="M 376.829421 100.962604 
L 383.2785 100.962604 
" clip-path="url(#pdeb4c02379)" style="fill: none; stroke: #595959; stroke-linecap: round"/>
   </g>
   <g id="line2d_103"/>
   <g id="patch_21">
    <path d="M 392.030822 313.745334 
L 404.92898 313.745334 
L 404.92898 148.947007 
L 392.030822 148.947007 
L 392.030822 313.745334 
z
" clip-path="url(#pdeb4c02379)" style="fill: #72b6a1; stroke: #595959; stroke-linejoin: miter"/>
   </g>
   <g id="line2d_104">
    <path d="M 398.479901 313.745334 
L 398.479901 438.461553 
" clip-path="url(#pdeb4c02379)" style="fill: none; stroke: #595959"/>
   </g>
   <g id="line2d_105">
    <path d="M 398.479901 148.947007 
L 398.479901 98.645519 
" clip-path="url(#pdeb4c02379)" style="fill: none; stroke: #595959"/>
   </g>
   <g id="line2d_106">
    <path d="M 395.255361 438.461553 
L 401.704441 438.461553 
" clip-path="url(#pdeb4c02379)" style="fill: none; stroke: #595959; stroke-linecap: round"/>
   </g>
   <g id="line2d_107">
    <path d="M 395.255361 98.645519 
L 401.704441 98.645519 
" clip-path="url(#pdeb4c02379)" style="fill: none; stroke: #595959; stroke-linecap: round"/>
   </g>
   <g id="line2d_108"/>
   <g id="patch_22">
    <path d="M 410.456762 311.373492 
L 423.354921 311.373492 
L 423.354921 143.523185 
L 410.456762 143.523185 
L 410.456762 311.373492 
z
" clip-path="url(#pdeb4c02379)" style="fill: #72b6a1; stroke: #595959; stroke-linejoin: miter"/>
   </g>
   <g id="line2d_109">
    <path d="M 416.905842 311.373492 
L 416.905842 434.034884 
" clip-path="url(#pdeb4c02379)" style="fill: none; stroke: #595959"/>
   </g>
   <g id="line2d_110">
    <path d="M 416.905842 143.523185 
L 416.905842 95.861559 
" clip-path="url(#pdeb4c02379)" style="fill: none; stroke: #595959"/>
   </g>
   <g id="line2d_111">
    <path d="M 413.681302 434.034884 
L 420.130381 434.034884 
" clip-path="url(#pdeb4c02379)" style="fill: none; stroke: #595959; stroke-linecap: round"/>
   </g>
   <g id="line2d_112">
    <path d="M 413.681302 95.861559 
L 420.130381 95.861559 
" clip-path="url(#pdeb4c02379)" style="fill: none; stroke: #595959; stroke-linecap: round"/>
   </g>
   <g id="line2d_113"/>
   <g id="patch_23">
    <path d="M 428.882703 310.140019 
L 441.780861 310.140019 
L 441.780861 137.177139 
L 428.882703 137.177139 
L 428.882703 310.140019 
z
" clip-path="url(#pdeb4c02379)" style="fill: #72b6a1; stroke: #595959; stroke-linejoin: miter"/>
   </g>
   <g id="line2d_114">
    <path d="M 435.331782 310.140019 
L 435.331782 433.931134 
" clip-path="url(#pdeb4c02379)" style="fill: none; stroke: #595959"/>
   </g>
   <g id="line2d_115">
    <path d="M 435.331782 137.177139 
L 435.331782 90.950723 
" clip-path="url(#pdeb4c02379)" style="fill: none; stroke: #595959"/>
   </g>
   <g id="line2d_116">
    <path d="M 432.107243 433.931134 
L 438.556322 433.931134 
" clip-path="url(#pdeb4c02379)" style="fill: none; stroke: #595959; stroke-linecap: round"/>
   </g>
   <g id="line2d_117">
    <path d="M 432.107243 90.950723 
L 438.556322 90.950723 
" clip-path="url(#pdeb4c02379)" style="fill: none; stroke: #595959; stroke-linecap: round"/>
   </g>
   <g id="line2d_118"/>
   <g id="patch_24">
    <path d="M 447.308644 308.154358 
L 460.206802 308.154358 
L 460.206802 140.370336 
L 447.308644 140.370336 
L 447.308644 308.154358 
z
" clip-path="url(#pdeb4c02379)" style="fill: #72b6a1; stroke: #595959; stroke-linejoin: miter"/>
   </g>
   <g id="line2d_119">
    <path d="M 453.757723 308.154358 
L 453.757723 427.29113 
" clip-path="url(#pdeb4c02379)" style="fill: none; stroke: #595959"/>
   </g>
   <g id="line2d_120">
    <path d="M 453.757723 140.370336 
L 453.757723 88.702805 
" clip-path="url(#pdeb4c02379)" style="fill: none; stroke: #595959"/>
   </g>
   <g id="line2d_121">
    <path d="M 450.533183 427.29113 
L 456.982262 427.29113 
" clip-path="url(#pdeb4c02379)" style="fill: none; stroke: #595959; stroke-linecap: round"/>
   </g>
   <g id="line2d_122">
    <path d="M 450.533183 88.702805 
L 456.982262 88.702805 
" clip-path="url(#pdeb4c02379)" style="fill: none; stroke: #595959; stroke-linecap: round"/>
   </g>
   <g id="line2d_123"/>
   <g id="patch_25">
    <path d="M 465.734584 306.234982 
L 478.632743 306.234982 
L 478.632743 143.724921 
L 465.734584 143.724921 
L 465.734584 306.234982 
z
" clip-path="url(#pdeb4c02379)" style="fill: #72b6a1; stroke: #595959; stroke-linejoin: miter"/>
   </g>
   <g id="line2d_124">
    <path d="M 472.183663 306.234982 
L 472.183663 436.271274 
" clip-path="url(#pdeb4c02379)" style="fill: none; stroke: #595959"/>
   </g>
   <g id="line2d_125">
    <path d="M 472.183663 143.724921 
L 472.183663 84.967803 
" clip-path="url(#pdeb4c02379)" style="fill: none; stroke: #595959"/>
   </g>
   <g id="line2d_126">
    <path d="M 468.959124 436.271274 
L 475.408203 436.271274 
" clip-path="url(#pdeb4c02379)" style="fill: none; stroke: #595959; stroke-linecap: round"/>
   </g>
   <g id="line2d_127">
    <path d="M 468.959124 84.967803 
L 475.408203 84.967803 
" clip-path="url(#pdeb4c02379)" style="fill: none; stroke: #595959; stroke-linecap: round"/>
   </g>
   <g id="line2d_128"/>
   <g id="patch_26">
    <path d="M 484.160525 306.332968 
L 497.058683 306.332968 
L 497.058683 140.292523 
L 484.160525 140.292523 
L 484.160525 306.332968 
z
" clip-path="url(#pdeb4c02379)" style="fill: #72b6a1; stroke: #595959; stroke-linejoin: miter"/>
   </g>
   <g id="line2d_129">
    <path d="M 490.609604 306.332968 
L 490.609604 456.191286 
" clip-path="url(#pdeb4c02379)" style="fill: none; stroke: #595959"/>
   </g>
   <g id="line2d_130">
    <path d="M 490.609604 140.292523 
L 490.609604 82.823635 
" clip-path="url(#pdeb4c02379)" style="fill: none; stroke: #595959"/>
   </g>
   <g id="line2d_131">
    <path d="M 487.385064 456.191286 
L 493.834144 456.191286 
" clip-path="url(#pdeb4c02379)" style="fill: none; stroke: #595959; stroke-linecap: round"/>
   </g>
   <g id="line2d_132">
    <path d="M 487.385064 82.823635 
L 493.834144 82.823635 
" clip-path="url(#pdeb4c02379)" style="fill: none; stroke: #595959; stroke-linecap: round"/>
   </g>
   <g id="line2d_133"/>
   <g id="patch_27">
    <path d="M 502.586465 307.75665 
L 515.484624 307.75665 
L 515.484624 141.508704 
L 502.586465 141.508704 
L 502.586465 307.75665 
z
" clip-path="url(#pdeb4c02379)" style="fill: #72b6a1; stroke: #595959; stroke-linejoin: miter"/>
   </g>
   <g id="line2d_134">
    <path d="M 509.035545 307.75665 
L 509.035545 419.509875 
" clip-path="url(#pdeb4c02379)" style="fill: none; stroke: #595959"/>
   </g>
   <g id="line2d_135">
    <path d="M 509.035545 141.508704 
L 509.035545 84.276136 
" clip-path="url(#pdeb4c02379)" style="fill: none; stroke: #595959"/>
   </g>
   <g id="line2d_136">
    <path d="M 505.811005 419.509875 
L 512.260084 419.509875 
" clip-path="url(#pdeb4c02379)" style="fill: none; stroke: #595959; stroke-linecap: round"/>
   </g>
   <g id="line2d_137">
    <path d="M 505.811005 84.276136 
L 512.260084 84.276136 
" clip-path="url(#pdeb4c02379)" style="fill: none; stroke: #595959; stroke-linecap: round"/>
   </g>
   <g id="line2d_138"/>
   <g id="patch_28">
    <path d="M 521.012406 304.621092 
L 533.910564 304.621092 
L 533.910564 138.056133 
L 521.012406 138.056133 
L 521.012406 304.621092 
z
" clip-path="url(#pdeb4c02379)" style="fill: #72b6a1; stroke: #595959; stroke-linejoin: miter"/>
   </g>
   <g id="line2d_139">
    <path d="M 527.461485 304.621092 
L 527.461485 420.478209 
" clip-path="url(#pdeb4c02379)" style="fill: none; stroke: #595959"/>
   </g>
   <g id="line2d_140">
    <path d="M 527.461485 138.056133 
L 527.461485 82.944677 
" clip-path="url(#pdeb4c02379)" style="fill: none; stroke: #595959"/>
   </g>
   <g id="line2d_141">
    <path d="M 524.236946 420.478209 
L 530.686025 420.478209 
" clip-path="url(#pdeb4c02379)" style="fill: none; stroke: #595959; stroke-linecap: round"/>
   </g>
   <g id="line2d_142">
    <path d="M 524.236946 82.944677 
L 530.686025 82.944677 
" clip-path="url(#pdeb4c02379)" style="fill: none; stroke: #595959; stroke-linecap: round"/>
   </g>
   <g id="line2d_143"/>
   <g id="patch_29">
    <path d="M 539.438347 301.128173 
L 552.336505 301.128173 
L 552.336505 140.422211 
L 539.438347 140.422211 
L 539.438347 301.128173 
z
" clip-path="url(#pdeb4c02379)" style="fill: #72b6a1; stroke: #595959; stroke-linejoin: miter"/>
   </g>
   <g id="line2d_144">
    <path d="M 545.887426 301.128173 
L 545.887426 409.999453 
" clip-path="url(#pdeb4c02379)" style="fill: none; stroke: #595959"/>
   </g>
   <g id="line2d_145">
    <path d="M 545.887426 140.422211 
L 545.887426 75.128839 
" clip-path="url(#pdeb4c02379)" style="fill: none; stroke: #595959"/>
   </g>
   <g id="line2d_146">
    <path d="M 542.662886 409.999453 
L 549.111965 409.999453 
" clip-path="url(#pdeb4c02379)" style="fill: none; stroke: #595959; stroke-linecap: round"/>
   </g>
   <g id="line2d_147">
    <path d="M 542.662886 75.128839 
L 549.111965 75.128839 
" clip-path="url(#pdeb4c02379)" style="fill: none; stroke: #595959; stroke-linecap: round"/>
   </g>
   <g id="line2d_148"/>
   <g id="patch_30">
    <path d="M 557.864287 302.076334 
L 570.762446 302.076334 
L 570.762446 139.387592 
L 557.864287 139.387592 
L 557.864287 302.076334 
z
" clip-path="url(#pdeb4c02379)" style="fill: #72b6a1; stroke: #595959; stroke-linejoin: miter"/>
   </g>
   <g id="line2d_149">
    <path d="M 564.313366 302.076334 
L 564.313366 419.48682 
" clip-path="url(#pdeb4c02379)" style="fill: none; stroke: #595959"/>
   </g>
   <g id="line2d_150">
    <path d="M 564.313366 139.387592 
L 564.313366 79.002174 
" clip-path="url(#pdeb4c02379)" style="fill: none; stroke: #595959"/>
   </g>
   <g id="line2d_151">
    <path d="M 561.088827 419.48682 
L 567.537906 419.48682 
" clip-path="url(#pdeb4c02379)" style="fill: none; stroke: #595959; stroke-linecap: round"/>
   </g>
   <g id="line2d_152">
    <path d="M 561.088827 79.002174 
L 567.537906 79.002174 
" clip-path="url(#pdeb4c02379)" style="fill: none; stroke: #595959; stroke-linecap: round"/>
   </g>
   <g id="line2d_153"/>
   <g id="patch_31">
    <path d="M 576.290228 300.309701 
L 589.188386 300.309701 
L 589.188386 138.952418 
L 576.290228 138.952418 
L 576.290228 300.309701 
z
" clip-path="url(#pdeb4c02379)" style="fill: #72b6a1; stroke: #595959; stroke-linejoin: miter"/>
   </g>
   <g id="line2d_154">
    <path d="M 582.739307 300.309701 
L 582.739307 409.411536 
" clip-path="url(#pdeb4c02379)" style="fill: none; stroke: #595959"/>
   </g>
   <g id="line2d_155">
    <path d="M 582.739307 138.952418 
L 582.739307 74.713839 
" clip-path="url(#pdeb4c02379)" style="fill: none; stroke: #595959"/>
   </g>
   <g id="line2d_156">
    <path d="M 579.514767 409.411536 
L 585.963847 409.411536 
" clip-path="url(#pdeb4c02379)" style="fill: none; stroke: #595959; stroke-linecap: round"/>
   </g>
   <g id="line2d_157">
    <path d="M 579.514767 74.713839 
L 585.963847 74.713839 
" clip-path="url(#pdeb4c02379)" style="fill: none; stroke: #595959; stroke-linecap: round"/>
   </g>
   <g id="line2d_158"/>
   <g id="patch_32">
    <path d="M 594.716168 300.522965 
L 607.614327 300.522965 
L 607.614327 139.350127 
L 594.716168 139.350127 
L 594.716168 300.522965 
z
" clip-path="url(#pdeb4c02379)" style="fill: #72b6a1; stroke: #595959; stroke-linejoin: miter"/>
   </g>
   <g id="line2d_159">
    <path d="M 601.165248 300.522965 
L 601.165248 413.538483 
" clip-path="url(#pdeb4c02379)" style="fill: none; stroke: #595959"/>
   </g>
   <g id="line2d_160">
    <path d="M 601.165248 139.350127 
L 601.165248 72.811754 
" clip-path="url(#pdeb4c02379)" style="fill: none; stroke: #595959"/>
   </g>
   <g id="line2d_161">
    <path d="M 597.940708 413.538483 
L 604.389787 413.538483 
" clip-path="url(#pdeb4c02379)" style="fill: none; stroke: #595959; stroke-linecap: round"/>
   </g>
   <g id="line2d_162">
    <path d="M 597.940708 72.811754 
L 604.389787 72.811754 
" clip-path="url(#pdeb4c02379)" style="fill: none; stroke: #595959; stroke-linecap: round"/>
   </g>
   <g id="line2d_163"/>
   <g id="patch_33">
    <path d="M 613.142109 294.491052 
L 626.040267 294.491052 
L 626.040267 136.747729 
L 613.142109 136.747729 
L 613.142109 294.491052 
z
" clip-path="url(#pdeb4c02379)" style="fill: #72b6a1; stroke: #595959; stroke-linejoin: miter"/>
   </g>
   <g id="line2d_164">
    <path d="M 619.591188 294.491052 
L 619.591188 415.959318 
" clip-path="url(#pdeb4c02379)" style="fill: none; stroke: #595959"/>
   </g>
   <g id="line2d_165">
    <path d="M 619.591188 136.747729 
L 619.591188 71.134461 
" clip-path="url(#pdeb4c02379)" style="fill: none; stroke: #595959"/>
   </g>
   <g id="line2d_166">
    <path d="M 616.366649 415.959318 
L 622.815728 415.959318 
" clip-path="url(#pdeb4c02379)" style="fill: none; stroke: #595959; stroke-linecap: round"/>
   </g>
   <g id="line2d_167">
    <path d="M 616.366649 71.134461 
L 622.815728 71.134461 
" clip-path="url(#pdeb4c02379)" style="fill: none; stroke: #595959; stroke-linecap: round"/>
   </g>
   <g id="line2d_168"/>
   <g id="patch_34">
    <path d="M 631.56805 294.949281 
L 644.466208 294.949281 
L 644.466208 139.231967 
L 631.56805 139.231967 
L 631.56805 294.949281 
z
" clip-path="url(#pdeb4c02379)" style="fill: #72b6a1; stroke: #595959; stroke-linejoin: miter"/>
   </g>
   <g id="line2d_169">
    <path d="M 638.017129 294.949281 
L 638.017129 419.394597 
" clip-path="url(#pdeb4c02379)" style="fill: none; stroke: #595959"/>
   </g>
   <g id="line2d_170">
    <path d="M 638.017129 139.231967 
L 638.017129 68.679043 
" clip-path="url(#pdeb4c02379)" style="fill: none; stroke: #595959"/>
   </g>
   <g id="line2d_171">
    <path d="M 634.792589 419.394597 
L 641.241668 419.394597 
" clip-path="url(#pdeb4c02379)" style="fill: none; stroke: #595959; stroke-linecap: round"/>
   </g>
   <g id="line2d_172">
    <path d="M 634.792589 68.679043 
L 641.241668 68.679043 
" clip-path="url(#pdeb4c02379)" style="fill: none; stroke: #595959; stroke-linecap: round"/>
   </g>
   <g id="line2d_173"/>
   <g id="patch_35">
    <path d="M 649.99399 295.295115 
L 662.892149 295.295115 
L 662.892149 136.315437 
L 649.99399 136.315437 
L 649.99399 295.295115 
z
" clip-path="url(#pdeb4c02379)" style="fill: #72b6a1; stroke: #595959; stroke-linejoin: miter"/>
   </g>
   <g id="line2d_174">
    <path d="M 656.443069 295.295115 
L 656.443069 412.270427 
" clip-path="url(#pdeb4c02379)" style="fill: none; stroke: #595959"/>
   </g>
   <g id="line2d_175">
    <path d="M 656.443069 136.315437 
L 656.443069 68.350501 
" clip-path="url(#pdeb4c02379)" style="fill: none; stroke: #595959"/>
   </g>
   <g id="line2d_176">
    <path d="M 653.21853 412.270427 
L 659.667609 412.270427 
" clip-path="url(#pdeb4c02379)" style="fill: none; stroke: #595959; stroke-linecap: round"/>
   </g>
   <g id="line2d_177">
    <path d="M 653.21853 68.350501 
L 659.667609 68.350501 
" clip-path="url(#pdeb4c02379)" style="fill: none; stroke: #595959; stroke-linecap: round"/>
   </g>
   <g id="line2d_178"/>
   <g id="patch_36">
    <path d="M 668.419931 292.865634 
L 681.318089 292.865634 
L 681.318089 135.373041 
L 668.419931 135.373041 
L 668.419931 292.865634 
z
" clip-path="url(#pdeb4c02379)" style="fill: #72b6a1; stroke: #595959; stroke-linejoin: miter"/>
   </g>
   <g id="line2d_179">
    <path d="M 674.86901 292.865634 
L 674.86901 403.002088 
" clip-path="url(#pdeb4c02379)" style="fill: none; stroke: #595959"/>
   </g>
   <g id="line2d_180">
    <path d="M 674.86901 135.373041 
L 674.86901 66.811542 
" clip-path="url(#pdeb4c02379)" style="fill: none; stroke: #595959"/>
   </g>
   <g id="line2d_181">
    <path d="M 671.64447 403.002088 
L 678.09355 403.002088 
" clip-path="url(#pdeb4c02379)" style="fill: none; stroke: #595959; stroke-linecap: round"/>
   </g>
   <g id="line2d_182">
    <path d="M 671.64447 66.811542 
L 678.09355 66.811542 
" clip-path="url(#pdeb4c02379)" style="fill: none; stroke: #595959; stroke-linecap: round"/>
   </g>
   <g id="line2d_183"/>
   <g id="patch_37">
    <path d="M 686.845871 295.822511 
L 699.74403 295.822511 
L 699.74403 138.572001 
L 686.845871 138.572001 
L 686.845871 295.822511 
z
" clip-path="url(#pdeb4c02379)" style="fill: #72b6a1; stroke: #595959; stroke-linejoin: miter"/>
   </g>
   <g id="line2d_184">
    <path d="M 693.29495 295.822511 
L 693.29495 397.192084 
" clip-path="url(#pdeb4c02379)" style="fill: none; stroke: #595959"/>
   </g>
   <g id="line2d_185">
    <path d="M 693.29495 138.572001 
L 693.29495 66.742376 
" clip-path="url(#pdeb4c02379)" style="fill: none; stroke: #595959"/>
   </g>
   <g id="line2d_186">
    <path d="M 690.070411 397.192084 
L 696.51949 397.192084 
" clip-path="url(#pdeb4c02379)" style="fill: none; stroke: #595959; stroke-linecap: round"/>
   </g>
   <g id="line2d_187">
    <path d="M 690.070411 66.742376 
L 696.51949 66.742376 
" clip-path="url(#pdeb4c02379)" style="fill: none; stroke: #595959; stroke-linecap: round"/>
   </g>
   <g id="line2d_188"/>
   <g id="patch_38">
    <path d="M 705.271812 295.563135 
L 718.16997 295.563135 
L 718.16997 134.55745 
L 705.271812 134.55745 
L 705.271812 295.563135 
z
" clip-path="url(#pdeb4c02379)" style="fill: #72b6a1; stroke: #595959; stroke-linejoin: miter"/>
   </g>
   <g id="line2d_189">
    <path d="M 711.720891 295.563135 
L 711.720891 404.431533 
" clip-path="url(#pdeb4c02379)" style="fill: none; stroke: #595959"/>
   </g>
   <g id="line2d_190">
    <path d="M 711.720891 134.55745 
L 711.720891 65.324458 
" clip-path="url(#pdeb4c02379)" style="fill: none; stroke: #595959"/>
   </g>
   <g id="line2d_191">
    <path d="M 708.496351 404.431533 
L 714.945431 404.431533 
" clip-path="url(#pdeb4c02379)" style="fill: none; stroke: #595959; stroke-linecap: round"/>
   </g>
   <g id="line2d_192">
    <path d="M 708.496351 65.324458 
L 714.945431 65.324458 
" clip-path="url(#pdeb4c02379)" style="fill: none; stroke: #595959; stroke-linecap: round"/>
   </g>
   <g id="line2d_193"/>
   <g id="patch_39">
    <path d="M 723.697752 292.7273 
L 736.595911 292.7273 
L 736.595911 131.603455 
L 723.697752 131.603455 
L 723.697752 292.7273 
z
" clip-path="url(#pdeb4c02379)" style="fill: #72b6a1; stroke: #595959; stroke-linejoin: miter"/>
   </g>
   <g id="line2d_194">
    <path d="M 730.146832 292.7273 
L 730.146832 396.823195 
" clip-path="url(#pdeb4c02379)" style="fill: none; stroke: #595959"/>
   </g>
   <g id="line2d_195">
    <path d="M 730.146832 131.603455 
L 730.146832 63.439665 
" clip-path="url(#pdeb4c02379)" style="fill: none; stroke: #595959"/>
   </g>
   <g id="line2d_196">
    <path d="M 726.922292 396.823195 
L 733.371371 396.823195 
" clip-path="url(#pdeb4c02379)" style="fill: none; stroke: #595959; stroke-linecap: round"/>
   </g>
   <g id="line2d_197">
    <path d="M 726.922292 63.439665 
L 733.371371 63.439665 
" clip-path="url(#pdeb4c02379)" style="fill: none; stroke: #595959; stroke-linecap: round"/>
   </g>
   <g id="line2d_198"/>
   <g id="patch_40">
    <path d="M 742.123693 293.583238 
L 755.021851 293.583238 
L 755.021851 134.871582 
L 742.123693 134.871582 
L 742.123693 293.583238 
z
" clip-path="url(#pdeb4c02379)" style="fill: #72b6a1; stroke: #595959; stroke-linejoin: miter"/>
   </g>
   <g id="line2d_199">
    <path d="M 748.572772 293.583238 
L 748.572772 399.428475 
" clip-path="url(#pdeb4c02379)" style="fill: none; stroke: #595959"/>
   </g>
   <g id="line2d_200">
    <path d="M 748.572772 134.871582 
L 748.572772 61.779664 
" clip-path="url(#pdeb4c02379)" style="fill: none; stroke: #595959"/>
   </g>
   <g id="line2d_201">
    <path d="M 745.348233 399.428475 
L 751.797312 399.428475 
" clip-path="url(#pdeb4c02379)" style="fill: none; stroke: #595959; stroke-linecap: round"/>
   </g>
   <g id="line2d_202">
    <path d="M 745.348233 61.779664 
L 751.797312 61.779664 
" clip-path="url(#pdeb4c02379)" style="fill: none; stroke: #595959; stroke-linecap: round"/>
   </g>
   <g id="line2d_203"/>
   <g id="patch_41">
    <path d="M 760.549634 290.980841 
L 773.447792 290.980841 
L 773.447792 132.240366 
L 760.549634 132.240366 
L 760.549634 290.980841 
z
" clip-path="url(#pdeb4c02379)" style="fill: #72b6a1; stroke: #595959; stroke-linejoin: miter"/>
   </g>
   <g id="line2d_204">
    <path d="M 766.998713 290.980841 
L 766.998713 399.612919 
" clip-path="url(#pdeb4c02379)" style="fill: none; stroke: #595959"/>
   </g>
   <g id="line2d_205">
    <path d="M 766.998713 132.240366 
L 766.998713 60.050497 
" clip-path="url(#pdeb4c02379)" style="fill: none; stroke: #595959"/>
   </g>
   <g id="line2d_206">
    <path d="M 763.774173 399.612919 
L 770.223252 399.612919 
" clip-path="url(#pdeb4c02379)" style="fill: none; stroke: #595959; stroke-linecap: round"/>
   </g>
   <g id="line2d_207">
    <path d="M 763.774173 60.050497 
L 770.223252 60.050497 
" clip-path="url(#pdeb4c02379)" style="fill: none; stroke: #595959; stroke-linecap: round"/>
   </g>
   <g id="line2d_208"/>
   <g id="patch_42">
    <path d="M 778.975574 292.459279 
L 791.873733 292.459279 
L 791.873733 128.637933 
L 778.975574 128.637933 
L 778.975574 292.459279 
z
" clip-path="url(#pdeb4c02379)" style="fill: #72b6a1; stroke: #595959; stroke-linejoin: miter"/>
   </g>
   <g id="line2d_209">
    <path d="M 785.424653 292.459279 
L 785.424653 406.206812 
" clip-path="url(#pdeb4c02379)" style="fill: none; stroke: #595959"/>
   </g>
   <g id="line2d_210">
    <path d="M 785.424653 128.637933 
L 785.424653 59.583621 
" clip-path="url(#pdeb4c02379)" style="fill: none; stroke: #595959"/>
   </g>
   <g id="line2d_211">
    <path d="M 782.200114 406.206812 
L 788.649193 406.206812 
" clip-path="url(#pdeb4c02379)" style="fill: none; stroke: #595959; stroke-linecap: round"/>
   </g>
   <g id="line2d_212">
    <path d="M 782.200114 59.583621 
L 788.649193 59.583621 
" clip-path="url(#pdeb4c02379)" style="fill: none; stroke: #595959; stroke-linecap: round"/>
   </g>
   <g id="line2d_213"/>
   <g id="patch_43">
    <path d="M 797.401515 289.709903 
L 810.299673 289.709903 
L 810.299673 131.534289 
L 797.401515 131.534289 
L 797.401515 289.709903 
z
" clip-path="url(#pdeb4c02379)" style="fill: #72b6a1; stroke: #595959; stroke-linejoin: miter"/>
   </g>
   <g id="line2d_214">
    <path d="M 803.850594 289.709903 
L 803.850594 391.75097 
" clip-path="url(#pdeb4c02379)" style="fill: none; stroke: #595959"/>
   </g>
   <g id="line2d_215">
    <path d="M 803.850594 131.534289 
L 803.850594 58.234871 
" clip-path="url(#pdeb4c02379)" style="fill: none; stroke: #595959"/>
   </g>
   <g id="line2d_216">
    <path d="M 800.626054 391.75097 
L 807.075134 391.75097 
" clip-path="url(#pdeb4c02379)" style="fill: none; stroke: #595959; stroke-linecap: round"/>
   </g>
   <g id="line2d_217">
    <path d="M 800.626054 58.234871 
L 807.075134 58.234871 
" clip-path="url(#pdeb4c02379)" style="fill: none; stroke: #595959; stroke-linecap: round"/>
   </g>
   <g id="line2d_218"/>
   <g id="patch_44">
    <path d="M 815.827455 289.606153 
L 828.725614 289.606153 
L 828.725614 129.710017 
L 815.827455 129.710017 
L 815.827455 289.606153 
z
" clip-path="url(#pdeb4c02379)" style="fill: #72b6a1; stroke: #595959; stroke-linejoin: miter"/>
   </g>
   <g id="line2d_219">
    <path d="M 822.276535 289.606153 
L 822.276535 410.518203 
" clip-path="url(#pdeb4c02379)" style="fill: none; stroke: #595959"/>
   </g>
   <g id="line2d_220">
    <path d="M 822.276535 129.710017 
L 822.276535 58.615287 
" clip-path="url(#pdeb4c02379)" style="fill: none; stroke: #595959"/>
   </g>
   <g id="line2d_221">
    <path d="M 819.051995 410.518203 
L 825.501074 410.518203 
" clip-path="url(#pdeb4c02379)" style="fill: none; stroke: #595959; stroke-linecap: round"/>
   </g>
   <g id="line2d_222">
    <path d="M 819.051995 58.615287 
L 825.501074 58.615287 
" clip-path="url(#pdeb4c02379)" style="fill: none; stroke: #595959; stroke-linecap: round"/>
   </g>
   <g id="line2d_223"/>
   <g id="patch_45">
    <path d="M 834.253396 289.744486 
L 847.151554 289.744486 
L 847.151554 128.975121 
L 834.253396 128.975121 
L 834.253396 289.744486 
z
" clip-path="url(#pdeb4c02379)" style="fill: #72b6a1; stroke: #595959; stroke-linejoin: miter"/>
   </g>
   <g id="line2d_224">
    <path d="M 840.702475 289.744486 
L 840.702475 392.235137 
" clip-path="url(#pdeb4c02379)" style="fill: none; stroke: #595959"/>
   </g>
   <g id="line2d_225">
    <path d="M 840.702475 128.975121 
L 840.702475 55.641119 
" clip-path="url(#pdeb4c02379)" style="fill: none; stroke: #595959"/>
   </g>
   <g id="line2d_226">
    <path d="M 837.477936 392.235137 
L 843.927015 392.235137 
" clip-path="url(#pdeb4c02379)" style="fill: none; stroke: #595959; stroke-linecap: round"/>
   </g>
   <g id="line2d_227">
    <path d="M 837.477936 55.641119 
L 843.927015 55.641119 
" clip-path="url(#pdeb4c02379)" style="fill: none; stroke: #595959; stroke-linecap: round"/>
   </g>
   <g id="line2d_228"/>
   <g id="patch_46">
    <path d="M 852.679337 290.842508 
L 865.577495 290.842508 
L 865.577495 131.525643 
L 852.679337 131.525643 
L 852.679337 290.842508 
z
" clip-path="url(#pdeb4c02379)" style="fill: #72b6a1; stroke: #595959; stroke-linejoin: miter"/>
   </g>
   <g id="line2d_229">
    <path d="M 859.128416 290.842508 
L 859.128416 392.788471 
" clip-path="url(#pdeb4c02379)" style="fill: none; stroke: #595959"/>
   </g>
   <g id="line2d_230">
    <path d="M 859.128416 131.525643 
L 859.128416 60.102372 
" clip-path="url(#pdeb4c02379)" style="fill: none; stroke: #595959"/>
   </g>
   <g id="line2d_231">
    <path d="M 855.903876 392.788471 
L 862.352955 392.788471 
" clip-path="url(#pdeb4c02379)" style="fill: none; stroke: #595959; stroke-linecap: round"/>
   </g>
   <g id="line2d_232">
    <path d="M 855.903876 60.102372 
L 862.352955 60.102372 
" clip-path="url(#pdeb4c02379)" style="fill: none; stroke: #595959; stroke-linecap: round"/>
   </g>
   <g id="line2d_233"/>
   <g id="patch_47">
    <path d="M 871.105277 289.294903 
L 884.003436 289.294903 
L 884.003436 131.516997 
L 871.105277 131.516997 
L 871.105277 289.294903 
z
" clip-path="url(#pdeb4c02379)" style="fill: #72b6a1; stroke: #595959; stroke-linejoin: miter"/>
   </g>
   <g id="line2d_234">
    <path d="M 877.554356 289.294903 
L 877.554356 391.382081 
" clip-path="url(#pdeb4c02379)" style="fill: none; stroke: #595959"/>
   </g>
   <g id="line2d_235">
    <path d="M 877.554356 131.516997 
L 877.554356 56.263619 
" clip-path="url(#pdeb4c02379)" style="fill: none; stroke: #595959"/>
   </g>
   <g id="line2d_236">
    <path d="M 874.329817 391.382081 
L 880.778896 391.382081 
" clip-path="url(#pdeb4c02379)" style="fill: none; stroke: #595959; stroke-linecap: round"/>
   </g>
   <g id="line2d_237">
    <path d="M 874.329817 56.263619 
L 880.778896 56.263619 
" clip-path="url(#pdeb4c02379)" style="fill: none; stroke: #595959; stroke-linecap: round"/>
   </g>
   <g id="line2d_238"/>
   <g id="patch_48">
    <path d="M 889.531218 288.049902 
L 902.429376 288.049902 
L 902.429376 130.972309 
L 889.531218 130.972309 
L 889.531218 288.049902 
z
" clip-path="url(#pdeb4c02379)" style="fill: #72b6a1; stroke: #595959; stroke-linejoin: miter"/>
   </g>
   <g id="line2d_239">
    <path d="M 895.980297 288.049902 
L 895.980297 393.849027 
" clip-path="url(#pdeb4c02379)" style="fill: none; stroke: #595959"/>
   </g>
   <g id="line2d_240">
    <path d="M 895.980297 130.972309 
L 895.980297 57.059037 
" clip-path="url(#pdeb4c02379)" style="fill: none; stroke: #595959"/>
   </g>
   <g id="line2d_241">
    <path d="M 892.755757 393.849027 
L 899.204837 393.849027 
" clip-path="url(#pdeb4c02379)" style="fill: none; stroke: #595959; stroke-linecap: round"/>
   </g>
   <g id="line2d_242">
    <path d="M 892.755757 57.059037 
L 899.204837 57.059037 
" clip-path="url(#pdeb4c02379)" style="fill: none; stroke: #595959; stroke-linecap: round"/>
   </g>
   <g id="line2d_243"/>
   <g id="patch_49">
    <path d="M 907.957158 286.242922 
L 920.855317 286.242922 
L 920.855317 128.594704 
L 907.957158 128.594704 
L 907.957158 286.242922 
z
" clip-path="url(#pdeb4c02379)" style="fill: #72b6a1; stroke: #595959; stroke-linejoin: miter"/>
   </g>
   <g id="line2d_244">
    <path d="M 914.406238 286.242922 
L 914.406238 397.999029 
" clip-path="url(#pdeb4c02379)" style="fill: none; stroke: #595959"/>
   </g>
   <g id="line2d_245">
    <path d="M 914.406238 128.594704 
L 914.406238 54.240493 
" clip-path="url(#pdeb4c02379)" style="fill: none; stroke: #595959"/>
   </g>
   <g id="line2d_246">
    <path d="M 911.181698 397.999029 
L 917.630777 397.999029 
" clip-path="url(#pdeb4c02379)" style="fill: none; stroke: #595959; stroke-linecap: round"/>
   </g>
   <g id="line2d_247">
    <path d="M 911.181698 54.240493 
L 917.630777 54.240493 
" clip-path="url(#pdeb4c02379)" style="fill: none; stroke: #595959; stroke-linecap: round"/>
   </g>
   <g id="line2d_248"/>
   <g id="patch_50">
    <path d="M 926.383099 287.998027 
L 939.281257 287.998027 
L 939.281257 128.058662 
L 926.383099 128.058662 
L 926.383099 287.998027 
z
" clip-path="url(#pdeb4c02379)" style="fill: #72b6a1; stroke: #595959; stroke-linejoin: miter"/>
   </g>
   <g id="line2d_249">
    <path d="M 932.832178 287.998027 
L 932.832178 404.754311 
" clip-path="url(#pdeb4c02379)" style="fill: none; stroke: #595959"/>
   </g>
   <g id="line2d_250">
    <path d="M 932.832178 128.058662 
L 932.832178 54.776535 
" clip-path="url(#pdeb4c02379)" style="fill: none; stroke: #595959"/>
   </g>
   <g id="line2d_251">
    <path d="M 929.607639 404.754311 
L 936.056718 404.754311 
" clip-path="url(#pdeb4c02379)" style="fill: none; stroke: #595959; stroke-linecap: round"/>
   </g>
   <g id="line2d_252">
    <path d="M 929.607639 54.776535 
L 936.056718 54.776535 
" clip-path="url(#pdeb4c02379)" style="fill: none; stroke: #595959; stroke-linecap: round"/>
   </g>
   <g id="line2d_253"/>
   <g id="patch_51">
    <path d="M 944.80904 284.254379 
L 957.707198 284.254379 
L 957.707198 124.773243 
L 944.80904 124.773243 
L 944.80904 284.254379 
z
" clip-path="url(#pdeb4c02379)" style="fill: #72b6a1; stroke: #595959; stroke-linejoin: miter"/>
   </g>
   <g id="line2d_254">
    <path d="M 951.258119 284.254379 
L 951.258119 391.289859 
" clip-path="url(#pdeb4c02379)" style="fill: none; stroke: #595959"/>
   </g>
   <g id="line2d_255">
    <path d="M 951.258119 124.773243 
L 951.258119 52.960909 
" clip-path="url(#pdeb4c02379)" style="fill: none; stroke: #595959"/>
   </g>
   <g id="line2d_256">
    <path d="M 948.033579 391.289859 
L 954.482658 391.289859 
" clip-path="url(#pdeb4c02379)" style="fill: none; stroke: #595959; stroke-linecap: round"/>
   </g>
   <g id="line2d_257">
    <path d="M 948.033579 52.960909 
L 954.482658 52.960909 
" clip-path="url(#pdeb4c02379)" style="fill: none; stroke: #595959; stroke-linecap: round"/>
   </g>
   <g id="line2d_258"/>
   <g id="patch_52">
    <path d="M 963.23498 282.335003 
L 976.133139 282.335003 
L 976.133139 127.392932 
L 963.23498 127.392932 
L 963.23498 282.335003 
z
" clip-path="url(#pdeb4c02379)" style="fill: #72b6a1; stroke: #595959; stroke-linejoin: miter"/>
   </g>
   <g id="line2d_259">
    <path d="M 969.684059 282.335003 
L 969.684059 395.278472 
" clip-path="url(#pdeb4c02379)" style="fill: none; stroke: #595959"/>
   </g>
   <g id="line2d_260">
    <path d="M 969.684059 127.392932 
L 969.684059 54.741952 
" clip-path="url(#pdeb4c02379)" style="fill: none; stroke: #595959"/>
   </g>
   <g id="line2d_261">
    <path d="M 966.45952 395.278472 
L 972.908599 395.278472 
" clip-path="url(#pdeb4c02379)" style="fill: none; stroke: #595959; stroke-linecap: round"/>
   </g>
   <g id="line2d_262">
    <path d="M 966.45952 54.741952 
L 972.908599 54.741952 
" clip-path="url(#pdeb4c02379)" style="fill: none; stroke: #595959; stroke-linecap: round"/>
   </g>
   <g id="line2d_263"/>
   <g id="line2d_264">
    <path d="M 60.363891 409.985841 
L 73.26205 409.985841 
" clip-path="url(#pdeb4c02379)" style="fill: none; stroke: #595959"/>
   </g>
   <g id="line2d_265">
    <path d="M 78.789832 356.147237 
L 91.68799 356.147237 
" clip-path="url(#pdeb4c02379)" style="fill: none; stroke: #595959"/>
   </g>
   <g id="line2d_266">
    <path d="M 97.215772 324.683839 
L 110.113931 324.683839 
" clip-path="url(#pdeb4c02379)" style="fill: none; stroke: #595959"/>
   </g>
   <g id="line2d_267">
    <path d="M 115.641713 314.638737 
L 128.539871 314.638737 
" clip-path="url(#pdeb4c02379)" style="fill: none; stroke: #595959"/>
   </g>
   <g id="line2d_268">
    <path d="M 134.067653 281.180071 
L 146.965812 281.180071 
" clip-path="url(#pdeb4c02379)" style="fill: none; stroke: #595959"/>
   </g>
   <g id="line2d_269">
    <path d="M 152.493594 303.142654 
L 165.391752 303.142654 
" clip-path="url(#pdeb4c02379)" style="fill: none; stroke: #595959"/>
   </g>
   <g id="line2d_270">
    <path d="M 170.919535 290.202716 
L 183.817693 290.202716 
" clip-path="url(#pdeb4c02379)" style="fill: none; stroke: #595959"/>
   </g>
   <g id="line2d_271">
    <path d="M 189.345475 292.877162 
L 202.243634 292.877162 
" clip-path="url(#pdeb4c02379)" style="fill: none; stroke: #595959"/>
   </g>
   <g id="line2d_272">
    <path d="M 207.771416 266.167285 
L 220.669574 266.167285 
" clip-path="url(#pdeb4c02379)" style="fill: none; stroke: #595959"/>
   </g>
   <g id="line2d_273">
    <path d="M 226.197356 265.881972 
L 239.095515 265.881972 
" clip-path="url(#pdeb4c02379)" style="fill: none; stroke: #595959"/>
   </g>
   <g id="line2d_274">
    <path d="M 244.623297 258.425554 
L 257.521455 258.425554 
" clip-path="url(#pdeb4c02379)" style="fill: none; stroke: #595959"/>
   </g>
   <g id="line2d_275">
    <path d="M 263.049238 256.086237 
L 275.947396 256.086237 
" clip-path="url(#pdeb4c02379)" style="fill: none; stroke: #595959"/>
   </g>
   <g id="line2d_276">
    <path d="M 281.475178 243.126125 
L 294.373337 243.126125 
" clip-path="url(#pdeb4c02379)" style="fill: none; stroke: #595959"/>
   </g>
   <g id="line2d_277">
    <path d="M 299.901119 245.432094 
L 312.799277 245.432094 
" clip-path="url(#pdeb4c02379)" style="fill: none; stroke: #595959"/>
   </g>
   <g id="line2d_278">
    <path d="M 318.327059 257.538738 
L 331.225218 257.538738 
" clip-path="url(#pdeb4c02379)" style="fill: none; stroke: #595959"/>
   </g>
   <g id="line2d_279">
    <path d="M 336.753 235.249767 
L 349.651158 235.249767 
" clip-path="url(#pdeb4c02379)" style="fill: none; stroke: #595959"/>
   </g>
   <g id="line2d_280">
    <path d="M 355.178941 244.614445 
L 368.077099 244.614445 
" clip-path="url(#pdeb4c02379)" style="fill: none; stroke: #595959"/>
   </g>
   <g id="line2d_281">
    <path d="M 373.604881 244.189564 
L 386.50304 244.189564 
" clip-path="url(#pdeb4c02379)" style="fill: none; stroke: #595959"/>
   </g>
   <g id="line2d_282">
    <path d="M 392.030822 234.846294 
L 404.92898 234.846294 
" clip-path="url(#pdeb4c02379)" style="fill: none; stroke: #595959"/>
   </g>
   <g id="line2d_283">
    <path d="M 410.456762 237.682953 
L 423.354921 237.682953 
" clip-path="url(#pdeb4c02379)" style="fill: none; stroke: #595959"/>
   </g>
   <g id="line2d_284">
    <path d="M 428.882703 233.678694 
L 441.780861 233.678694 
" clip-path="url(#pdeb4c02379)" style="fill: none; stroke: #595959"/>
   </g>
   <g id="line2d_285">
    <path d="M 447.308644 228.224405 
L 460.206802 228.224405 
" clip-path="url(#pdeb4c02379)" style="fill: none; stroke: #595959"/>
   </g>
   <g id="line2d_286">
    <path d="M 465.734584 231.19528 
L 478.632743 231.19528 
" clip-path="url(#pdeb4c02379)" style="fill: none; stroke: #595959"/>
   </g>
   <g id="line2d_287">
    <path d="M 484.160525 226.552053 
L 497.058683 226.552053 
" clip-path="url(#pdeb4c02379)" style="fill: none; stroke: #595959"/>
   </g>
   <g id="line2d_288">
    <path d="M 502.586465 220.40198 
L 515.484624 220.40198 
" clip-path="url(#pdeb4c02379)" style="fill: none; stroke: #595959"/>
   </g>
   <g id="line2d_289">
    <path d="M 521.012406 227.866221 
L 533.910564 227.866221 
" clip-path="url(#pdeb4c02379)" style="fill: none; stroke: #595959"/>
   </g>
   <g id="line2d_290">
    <path d="M 539.438347 222.834343 
L 552.336505 222.834343 
" clip-path="url(#pdeb4c02379)" style="fill: none; stroke: #595959"/>
   </g>
   <g id="line2d_291">
    <path d="M 557.864287 210.390099 
L 570.762446 210.390099 
" clip-path="url(#pdeb4c02379)" style="fill: none; stroke: #595959"/>
   </g>
   <g id="line2d_292">
    <path d="M 576.290228 213.617879 
L 589.188386 213.617879 
" clip-path="url(#pdeb4c02379)" style="fill: none; stroke: #595959"/>
   </g>
   <g id="line2d_293">
    <path d="M 594.716168 212.39017 
L 607.614327 212.39017 
" clip-path="url(#pdeb4c02379)" style="fill: none; stroke: #595959"/>
   </g>
   <g id="line2d_294">
    <path d="M 613.142109 210.609127 
L 626.040267 210.609127 
" clip-path="url(#pdeb4c02379)" style="fill: none; stroke: #595959"/>
   </g>
   <g id="line2d_295">
    <path d="M 631.56805 208.499542 
L 644.466208 208.499542 
" clip-path="url(#pdeb4c02379)" style="fill: none; stroke: #595959"/>
   </g>
   <g id="line2d_296">
    <path d="M 649.99399 206.499472 
L 662.892149 206.499472 
" clip-path="url(#pdeb4c02379)" style="fill: none; stroke: #595959"/>
   </g>
   <g id="line2d_297">
    <path d="M 668.419931 208.349681 
L 681.318089 208.349681 
" clip-path="url(#pdeb4c02379)" style="fill: none; stroke: #595959"/>
   </g>
   <g id="line2d_298">
    <path d="M 686.845871 211.449503 
L 699.74403 211.449503 
" clip-path="url(#pdeb4c02379)" style="fill: none; stroke: #595959"/>
   </g>
   <g id="line2d_299">
    <path d="M 705.271812 210.08346 
L 718.16997 210.08346 
" clip-path="url(#pdeb4c02379)" style="fill: none; stroke: #595959"/>
   </g>
   <g id="line2d_300">
    <path d="M 723.697752 204.326484 
L 736.595911 204.326484 
" clip-path="url(#pdeb4c02379)" style="fill: none; stroke: #595959"/>
   </g>
   <g id="line2d_301">
    <path d="M 742.123693 205.715583 
L 755.021851 205.715583 
" clip-path="url(#pdeb4c02379)" style="fill: none; stroke: #595959"/>
   </g>
   <g id="line2d_302">
    <path d="M 760.549634 204.269998 
L 773.447792 204.269998 
" clip-path="url(#pdeb4c02379)" style="fill: none; stroke: #595959"/>
   </g>
   <g id="line2d_303">
    <path d="M 778.975574 204.103998 
L 791.873733 204.103998 
" clip-path="url(#pdeb4c02379)" style="fill: none; stroke: #595959"/>
   </g>
   <g id="line2d_304">
    <path d="M 797.401515 196.084118 
L 810.299673 196.084118 
" clip-path="url(#pdeb4c02379)" style="fill: none; stroke: #595959"/>
   </g>
   <g id="line2d_305">
    <path d="M 815.827455 206.144416 
L 828.725614 206.144416 
" clip-path="url(#pdeb4c02379)" style="fill: none; stroke: #595959"/>
   </g>
   <g id="line2d_306">
    <path d="M 834.253396 201.335024 
L 847.151554 201.335024 
" clip-path="url(#pdeb4c02379)" style="fill: none; stroke: #595959"/>
   </g>
   <g id="line2d_307">
    <path d="M 852.679337 201.281997 
L 865.577495 201.281997 
" clip-path="url(#pdeb4c02379)" style="fill: none; stroke: #595959"/>
   </g>
   <g id="line2d_308">
    <path d="M 871.105277 202.838247 
L 884.003436 202.838247 
" clip-path="url(#pdeb4c02379)" style="fill: none; stroke: #595959"/>
   </g>
   <g id="line2d_309">
    <path d="M 889.531218 197.934328 
L 902.429376 197.934328 
" clip-path="url(#pdeb4c02379)" style="fill: none; stroke: #595959"/>
   </g>
   <g id="line2d_310">
    <path d="M 907.957158 195.323285 
L 920.855317 195.323285 
" clip-path="url(#pdeb4c02379)" style="fill: none; stroke: #595959"/>
   </g>
   <g id="line2d_311">
    <path d="M 926.383099 198.383912 
L 939.281257 198.383912 
" clip-path="url(#pdeb4c02379)" style="fill: none; stroke: #595959"/>
   </g>
   <g id="line2d_312">
    <path d="M 944.80904 193.548006 
L 957.707198 193.548006 
" clip-path="url(#pdeb4c02379)" style="fill: none; stroke: #595959"/>
   </g>
   <g id="line2d_313">
    <path d="M 963.23498 189.547865 
L 976.133139 189.547865 
" clip-path="url(#pdeb4c02379)" style="fill: none; stroke: #595959"/>
   </g>
   <g id="patch_53">
    <path d="M 57.6 525.06 
L 57.6 30.48 
" style="fill: none; stroke: #cccccc; stroke-width: 1.25; stroke-linejoin: miter; stroke-linecap: square"/>
   </g>
   <g id="patch_54">
    <path d="M 988.11 525.06 
L 988.11 30.48 
" style="fill: none; stroke: #cccccc; stroke-width: 1.25; stroke-linejoin: miter; stroke-linecap: square"/>
   </g>
   <g id="patch_55">
    <path d="M 57.6 525.06 
L 988.11 525.06 
" style="fill: none; stroke: #cccccc; stroke-width: 1.25; stroke-linejoin: miter; stroke-linecap: square"/>
   </g>
   <g id="patch_56">
    <path d="M 57.6 30.48 
L 988.11 30.48 
" style="fill: none; stroke: #cccccc; stroke-width: 1.25; stroke-linejoin: miter; stroke-linecap: square"/>
   </g>
   <g id="text_16">
    <!-- img-classification - cifar-10 (Accuracy_mean Distribution) -->
    <g style="fill: #262626" transform="translate(263.5625 24.48) scale(0.16 -0.16)">
     <defs>
      <path id="DejaVuSans-Bold-69" d="M 538 3500 
L 1656 3500 
L 1656 0 
L 538 0 
L 538 3500 
z
M 538 4863 
L 1656 4863 
L 1656 3950 
L 538 3950 
L 538 4863 
z
" transform="scale(0.015625)"/>
      <path id="DejaVuSans-Bold-6d" d="M 3781 2919 
Q 3994 3244 4286 3414 
Q 4578 3584 4928 3584 
Q 5531 3584 5847 3212 
Q 6163 2841 6163 2131 
L 6163 0 
L 5038 0 
L 5038 1825 
Q 5041 1866 5042 1909 
Q 5044 1953 5044 2034 
Q 5044 2406 4934 2573 
Q 4825 2741 4581 2741 
Q 4263 2741 4089 2478 
Q 3916 2216 3909 1719 
L 3909 0 
L 2784 0 
L 2784 1825 
Q 2784 2406 2684 2573 
Q 2584 2741 2328 2741 
Q 2006 2741 1831 2477 
Q 1656 2213 1656 1722 
L 1656 0 
L 531 0 
L 531 3500 
L 1656 3500 
L 1656 2988 
Q 1863 3284 2130 3434 
Q 2397 3584 2719 3584 
Q 3081 3584 3359 3409 
Q 3638 3234 3781 2919 
z
" transform="scale(0.015625)"/>
      <path id="DejaVuSans-Bold-67" d="M 2919 594 
Q 2688 288 2409 144 
Q 2131 0 1766 0 
Q 1125 0 706 504 
Q 288 1009 288 1791 
Q 288 2575 706 3076 
Q 1125 3578 1766 3578 
Q 2131 3578 2409 3434 
Q 2688 3291 2919 2981 
L 2919 3500 
L 4044 3500 
L 4044 353 
Q 4044 -491 3511 -936 
Q 2978 -1381 1966 -1381 
Q 1638 -1381 1331 -1331 
Q 1025 -1281 716 -1178 
L 716 -306 
Q 1009 -475 1290 -558 
Q 1572 -641 1856 -641 
Q 2406 -641 2662 -400 
Q 2919 -159 2919 353 
L 2919 594 
z
M 2181 2772 
Q 1834 2772 1640 2515 
Q 1447 2259 1447 1791 
Q 1447 1309 1634 1061 
Q 1822 813 2181 813 
Q 2531 813 2725 1069 
Q 2919 1325 2919 1791 
Q 2919 2259 2725 2515 
Q 2531 2772 2181 2772 
z
" transform="scale(0.015625)"/>
      <path id="DejaVuSans-Bold-2d" d="M 347 2297 
L 2309 2297 
L 2309 1388 
L 347 1388 
L 347 2297 
z
" transform="scale(0.015625)"/>
      <path id="DejaVuSans-Bold-63" d="M 3366 3391 
L 3366 2478 
Q 3138 2634 2908 2709 
Q 2678 2784 2431 2784 
Q 1963 2784 1702 2511 
Q 1441 2238 1441 1747 
Q 1441 1256 1702 982 
Q 1963 709 2431 709 
Q 2694 709 2930 787 
Q 3166 866 3366 1019 
L 3366 103 
Q 3103 6 2833 -42 
Q 2563 -91 2291 -91 
Q 1344 -91 809 395 
Q 275 881 275 1747 
Q 275 2613 809 3098 
Q 1344 3584 2291 3584 
Q 2566 3584 2833 3536 
Q 3100 3488 3366 3391 
z
" transform="scale(0.015625)"/>
      <path id="DejaVuSans-Bold-6c" d="M 538 4863 
L 1656 4863 
L 1656 0 
L 538 0 
L 538 4863 
z
" transform="scale(0.015625)"/>
      <path id="DejaVuSans-Bold-61" d="M 2106 1575 
Q 1756 1575 1579 1456 
Q 1403 1338 1403 1106 
Q 1403 894 1545 773 
Q 1688 653 1941 653 
Q 2256 653 2472 879 
Q 2688 1106 2688 1447 
L 2688 1575 
L 2106 1575 
z
M 3816 1997 
L 3816 0 
L 2688 0 
L 2688 519 
Q 2463 200 2181 54 
Q 1900 -91 1497 -91 
Q 953 -91 614 226 
Q 275 544 275 1050 
Q 275 1666 698 1953 
Q 1122 2241 2028 2241 
L 2688 2241 
L 2688 2328 
Q 2688 2594 2478 2717 
Q 2269 2841 1825 2841 
Q 1466 2841 1156 2769 
Q 847 2697 581 2553 
L 581 3406 
Q 941 3494 1303 3539 
Q 1666 3584 2028 3584 
Q 2975 3584 3395 3211 
Q 3816 2838 3816 1997 
z
" transform="scale(0.015625)"/>
      <path id="DejaVuSans-Bold-73" d="M 3272 3391 
L 3272 2541 
Q 2913 2691 2578 2766 
Q 2244 2841 1947 2841 
Q 1628 2841 1473 2761 
Q 1319 2681 1319 2516 
Q 1319 2381 1436 2309 
Q 1553 2238 1856 2203 
L 2053 2175 
Q 2913 2066 3209 1816 
Q 3506 1566 3506 1031 
Q 3506 472 3093 190 
Q 2681 -91 1863 -91 
Q 1516 -91 1145 -36 
Q 775 19 384 128 
L 384 978 
Q 719 816 1070 734 
Q 1422 653 1784 653 
Q 2113 653 2278 743 
Q 2444 834 2444 1013 
Q 2444 1163 2330 1236 
Q 2216 1309 1875 1350 
L 1678 1375 
Q 931 1469 631 1722 
Q 331 1975 331 2491 
Q 331 3047 712 3315 
Q 1094 3584 1881 3584 
Q 2191 3584 2531 3537 
Q 2872 3491 3272 3391 
z
" transform="scale(0.015625)"/>
      <path id="DejaVuSans-Bold-66" d="M 2841 4863 
L 2841 4128 
L 2222 4128 
Q 1984 4128 1890 4042 
Q 1797 3956 1797 3744 
L 1797 3500 
L 2753 3500 
L 2753 2700 
L 1797 2700 
L 1797 0 
L 678 0 
L 678 2700 
L 122 2700 
L 122 3500 
L 678 3500 
L 678 3744 
Q 678 4316 997 4589 
Q 1316 4863 1984 4863 
L 2841 4863 
z
" transform="scale(0.015625)"/>
      <path id="DejaVuSans-Bold-74" d="M 1759 4494 
L 1759 3500 
L 2913 3500 
L 2913 2700 
L 1759 2700 
L 1759 1216 
Q 1759 972 1856 886 
Q 1953 800 2241 800 
L 2816 800 
L 2816 0 
L 1856 0 
Q 1194 0 917 276 
Q 641 553 641 1216 
L 641 2700 
L 84 2700 
L 84 3500 
L 641 3500 
L 641 4494 
L 1759 4494 
z
" transform="scale(0.015625)"/>
      <path id="DejaVuSans-Bold-6f" d="M 2203 2784 
Q 1831 2784 1636 2517 
Q 1441 2250 1441 1747 
Q 1441 1244 1636 976 
Q 1831 709 2203 709 
Q 2569 709 2762 976 
Q 2956 1244 2956 1747 
Q 2956 2250 2762 2517 
Q 2569 2784 2203 2784 
z
M 2203 3584 
Q 3106 3584 3614 3096 
Q 4122 2609 4122 1747 
Q 4122 884 3614 396 
Q 3106 -91 2203 -91 
Q 1297 -91 786 396 
Q 275 884 275 1747 
Q 275 2609 786 3096 
Q 1297 3584 2203 3584 
z
" transform="scale(0.015625)"/>
      <path id="DejaVuSans-Bold-6e" d="M 4056 2131 
L 4056 0 
L 2931 0 
L 2931 347 
L 2931 1631 
Q 2931 2084 2911 2256 
Q 2891 2428 2841 2509 
Q 2775 2619 2662 2680 
Q 2550 2741 2406 2741 
Q 2056 2741 1856 2470 
Q 1656 2200 1656 1722 
L 1656 0 
L 538 0 
L 538 3500 
L 1656 3500 
L 1656 2988 
Q 1909 3294 2193 3439 
Q 2478 3584 2822 3584 
Q 3428 3584 3742 3212 
Q 4056 2841 4056 2131 
z
" transform="scale(0.015625)"/>
      <path id="DejaVuSans-Bold-20" transform="scale(0.015625)"/>
      <path id="DejaVuSans-Bold-72" d="M 3138 2547 
Q 2991 2616 2845 2648 
Q 2700 2681 2553 2681 
Q 2122 2681 1889 2404 
Q 1656 2128 1656 1613 
L 1656 0 
L 538 0 
L 538 3500 
L 1656 3500 
L 1656 2925 
Q 1872 3269 2151 3426 
Q 2431 3584 2822 3584 
Q 2878 3584 2943 3579 
Q 3009 3575 3134 3559 
L 3138 2547 
z
" transform="scale(0.015625)"/>
      <path id="DejaVuSans-Bold-31" d="M 750 831 
L 1813 831 
L 1813 3847 
L 722 3622 
L 722 4441 
L 1806 4666 
L 2950 4666 
L 2950 831 
L 4013 831 
L 4013 0 
L 750 0 
L 750 831 
z
" transform="scale(0.015625)"/>
      <path id="DejaVuSans-Bold-30" d="M 2944 2338 
Q 2944 3213 2780 3570 
Q 2616 3928 2228 3928 
Q 1841 3928 1675 3570 
Q 1509 3213 1509 2338 
Q 1509 1453 1675 1090 
Q 1841 728 2228 728 
Q 2613 728 2778 1090 
Q 2944 1453 2944 2338 
z
M 4147 2328 
Q 4147 1169 3647 539 
Q 3147 -91 2228 -91 
Q 1306 -91 806 539 
Q 306 1169 306 2328 
Q 306 3491 806 4120 
Q 1306 4750 2228 4750 
Q 3147 4750 3647 4120 
Q 4147 3491 4147 2328 
z
" transform="scale(0.015625)"/>
      <path id="DejaVuSans-Bold-28" d="M 2413 -844 
L 1484 -844 
Q 1006 -72 778 623 
Q 550 1319 550 2003 
Q 550 2688 779 3389 
Q 1009 4091 1484 4856 
L 2413 4856 
Q 2013 4116 1813 3408 
Q 1613 2700 1613 2009 
Q 1613 1319 1811 609 
Q 2009 -100 2413 -844 
z
" transform="scale(0.015625)"/>
      <path id="DejaVuSans-Bold-41" d="M 3419 850 
L 1538 850 
L 1241 0 
L 31 0 
L 1759 4666 
L 3194 4666 
L 4922 0 
L 3713 0 
L 3419 850 
z
M 1838 1716 
L 3116 1716 
L 2478 3572 
L 1838 1716 
z
" transform="scale(0.015625)"/>
      <path id="DejaVuSans-Bold-75" d="M 500 1363 
L 500 3500 
L 1625 3500 
L 1625 3150 
Q 1625 2866 1622 2436 
Q 1619 2006 1619 1863 
Q 1619 1441 1641 1255 
Q 1663 1069 1716 984 
Q 1784 875 1895 815 
Q 2006 756 2150 756 
Q 2500 756 2700 1025 
Q 2900 1294 2900 1772 
L 2900 3500 
L 4019 3500 
L 4019 0 
L 2900 0 
L 2900 506 
Q 2647 200 2364 54 
Q 2081 -91 1741 -91 
Q 1134 -91 817 281 
Q 500 653 500 1363 
z
" transform="scale(0.015625)"/>
      <path id="DejaVuSans-Bold-79" d="M 78 3500 
L 1197 3500 
L 2138 1125 
L 2938 3500 
L 4056 3500 
L 2584 -331 
Q 2363 -916 2067 -1148 
Q 1772 -1381 1288 -1381 
L 641 -1381 
L 641 -647 
L 991 -647 
Q 1275 -647 1404 -556 
Q 1534 -466 1606 -231 
L 1638 -134 
L 78 3500 
z
" transform="scale(0.015625)"/>
      <path id="DejaVuSans-Bold-5f" d="M 3200 -916 
L 3200 -1509 
L 0 -1509 
L 0 -916 
L 3200 -916 
z
" transform="scale(0.015625)"/>
      <path id="DejaVuSans-Bold-65" d="M 4031 1759 
L 4031 1441 
L 1416 1441 
Q 1456 1047 1700 850 
Q 1944 653 2381 653 
Q 2734 653 3104 758 
Q 3475 863 3866 1075 
L 3866 213 
Q 3469 63 3072 -14 
Q 2675 -91 2278 -91 
Q 1328 -91 801 392 
Q 275 875 275 1747 
Q 275 2603 792 3093 
Q 1309 3584 2216 3584 
Q 3041 3584 3536 3087 
Q 4031 2591 4031 1759 
z
M 2881 2131 
Q 2881 2450 2695 2645 
Q 2509 2841 2209 2841 
Q 1884 2841 1681 2658 
Q 1478 2475 1428 2131 
L 2881 2131 
z
" transform="scale(0.015625)"/>
      <path id="DejaVuSans-Bold-44" d="M 1791 3756 
L 1791 909 
L 2222 909 
Q 2959 909 3348 1275 
Q 3738 1641 3738 2338 
Q 3738 3031 3350 3393 
Q 2963 3756 2222 3756 
L 1791 3756 
z
M 588 4666 
L 1856 4666 
Q 2919 4666 3439 4514 
Q 3959 4363 4331 4000 
Q 4659 3684 4818 3271 
Q 4978 2859 4978 2338 
Q 4978 1809 4818 1395 
Q 4659 981 4331 666 
Q 3956 303 3431 151 
Q 2906 0 1856 0 
L 588 0 
L 588 4666 
z
" transform="scale(0.015625)"/>
      <path id="DejaVuSans-Bold-62" d="M 2400 722 
Q 2759 722 2948 984 
Q 3138 1247 3138 1747 
Q 3138 2247 2948 2509 
Q 2759 2772 2400 2772 
Q 2041 2772 1848 2508 
Q 1656 2244 1656 1747 
Q 1656 1250 1848 986 
Q 2041 722 2400 722 
z
M 1656 2988 
Q 1888 3294 2169 3439 
Q 2450 3584 2816 3584 
Q 3463 3584 3878 3070 
Q 4294 2556 4294 1747 
Q 4294 938 3878 423 
Q 3463 -91 2816 -91 
Q 2450 -91 2169 54 
Q 1888 200 1656 506 
L 1656 0 
L 538 0 
L 538 4863 
L 1656 4863 
L 1656 2988 
z
" transform="scale(0.015625)"/>
      <path id="DejaVuSans-Bold-29" d="M 513 -844 
Q 913 -100 1113 609 
Q 1313 1319 1313 2009 
Q 1313 2700 1113 3408 
Q 913 4116 513 4856 
L 1441 4856 
Q 1916 4091 2145 3389 
Q 2375 2688 2375 2003 
Q 2375 1319 2147 623 
Q 1919 -72 1441 -844 
L 513 -844 
z
" transform="scale(0.015625)"/>
     </defs>
     <use xlink:href="#DejaVuSans-Bold-69"/>
     <use xlink:href="#DejaVuSans-Bold-6d" transform="translate(34.277344 0)"/>
     <use xlink:href="#DejaVuSans-Bold-67" transform="translate(138.476562 0)"/>
     <use xlink:href="#DejaVuSans-Bold-2d" transform="translate(210.058594 0)"/>
     <use xlink:href="#DejaVuSans-Bold-63" transform="translate(251.5625 0)"/>
     <use xlink:href="#DejaVuSans-Bold-6c" transform="translate(310.839844 0)"/>
     <use xlink:href="#DejaVuSans-Bold-61" transform="translate(345.117188 0)"/>
     <use xlink:href="#DejaVuSans-Bold-73" transform="translate(412.597656 0)"/>
     <use xlink:href="#DejaVuSans-Bold-73" transform="translate(472.119141 0)"/>
     <use xlink:href="#DejaVuSans-Bold-69" transform="translate(531.640625 0)"/>
     <use xlink:href="#DejaVuSans-Bold-66" transform="translate(565.917969 0)"/>
     <use xlink:href="#DejaVuSans-Bold-69" transform="translate(609.423828 0)"/>
     <use xlink:href="#DejaVuSans-Bold-63" transform="translate(643.701172 0)"/>
     <use xlink:href="#DejaVuSans-Bold-61" transform="translate(702.978516 0)"/>
     <use xlink:href="#DejaVuSans-Bold-74" transform="translate(770.458984 0)"/>
     <use xlink:href="#DejaVuSans-Bold-69" transform="translate(818.261719 0)"/>
     <use xlink:href="#DejaVuSans-Bold-6f" transform="translate(852.539062 0)"/>
     <use xlink:href="#DejaVuSans-Bold-6e" transform="translate(921.240234 0)"/>
     <use xlink:href="#DejaVuSans-Bold-20" transform="translate(992.431641 0)"/>
     <use xlink:href="#DejaVuSans-Bold-2d" transform="translate(1027.246094 0)"/>
     <use xlink:href="#DejaVuSans-Bold-20" transform="translate(1068.75 0)"/>
     <use xlink:href="#DejaVuSans-Bold-63" transform="translate(1103.564453 0)"/>
     <use xlink:href="#DejaVuSans-Bold-69" transform="translate(1162.841797 0)"/>
     <use xlink:href="#DejaVuSans-Bold-66" transform="translate(1197.119141 0)"/>
     <use xlink:href="#DejaVuSans-Bold-61" transform="translate(1240.625 0)"/>
     <use xlink:href="#DejaVuSans-Bold-72" transform="translate(1308.105469 0)"/>
     <use xlink:href="#DejaVuSans-Bold-2d" transform="translate(1357.421875 0)"/>
     <use xlink:href="#DejaVuSans-Bold-31" transform="translate(1398.925781 0)"/>
     <use xlink:href="#DejaVuSans-Bold-30" transform="translate(1468.505859 0)"/>
     <use xlink:href="#DejaVuSans-Bold-20" transform="translate(1538.085938 0)"/>
     <use xlink:href="#DejaVuSans-Bold-28" transform="translate(1572.900391 0)"/>
     <use xlink:href="#DejaVuSans-Bold-41" transform="translate(1618.603516 0)"/>
     <use xlink:href="#DejaVuSans-Bold-63" transform="translate(1695.996094 0)"/>
     <use xlink:href="#DejaVuSans-Bold-63" transform="translate(1755.273438 0)"/>
     <use xlink:href="#DejaVuSans-Bold-75" transform="translate(1814.550781 0)"/>
     <use xlink:href="#DejaVuSans-Bold-72" transform="translate(1885.742188 0)"/>
     <use xlink:href="#DejaVuSans-Bold-61" transform="translate(1935.058594 0)"/>
     <use xlink:href="#DejaVuSans-Bold-63" transform="translate(2002.539062 0)"/>
     <use xlink:href="#DejaVuSans-Bold-79" transform="translate(2061.816406 0)"/>
     <use xlink:href="#DejaVuSans-Bold-5f" transform="translate(2127.001953 0)"/>
     <use xlink:href="#DejaVuSans-Bold-6d" transform="translate(2177.001953 0)"/>
     <use xlink:href="#DejaVuSans-Bold-65" transform="translate(2281.201172 0)"/>
     <use xlink:href="#DejaVuSans-Bold-61" transform="translate(2349.023438 0)"/>
     <use xlink:href="#DejaVuSans-Bold-6e" transform="translate(2416.503906 0)"/>
     <use xlink:href="#DejaVuSans-Bold-20" transform="translate(2487.695312 0)"/>
     <use xlink:href="#DejaVuSans-Bold-44" transform="translate(2522.509766 0)"/>
     <use xlink:href="#DejaVuSans-Bold-69" transform="translate(2605.517578 0)"/>
     <use xlink:href="#DejaVuSans-Bold-73" transform="translate(2639.794922 0)"/>
     <use xlink:href="#DejaVuSans-Bold-74" transform="translate(2699.316406 0)"/>
     <use xlink:href="#DejaVuSans-Bold-72" transform="translate(2747.119141 0)"/>
     <use xlink:href="#DejaVuSans-Bold-69" transform="translate(2796.435547 0)"/>
     <use xlink:href="#DejaVuSans-Bold-62" transform="translate(2830.712891 0)"/>
     <use xlink:href="#DejaVuSans-Bold-75" transform="translate(2902.294922 0)"/>
     <use xlink:href="#DejaVuSans-Bold-74" transform="translate(2973.486328 0)"/>
     <use xlink:href="#DejaVuSans-Bold-69" transform="translate(3021.289062 0)"/>
     <use xlink:href="#DejaVuSans-Bold-6f" transform="translate(3055.566406 0)"/>
     <use xlink:href="#DejaVuSans-Bold-6e" transform="translate(3124.267578 0)"/>
     <use xlink:href="#DejaVuSans-Bold-29" transform="translate(3195.458984 0)"/>
    </g>
   </g>
  </g>
 </g>
 <defs>
  <clipPath id="pdeb4c02379">
   <rect x="57.6" y="30.48" width="930.51" height="494.58"/>
  </clipPath>
 </defs>
</svg>
