<?xml version="1.0" encoding="utf-8" standalone="no"?>
<!DOCTYPE svg PUBLIC "-//W3C//DTD SVG 1.1//EN"
  "http://www.w3.org/Graphics/SVG/1.1/DTD/svg11.dtd">
<svg xmlns:xlink="http://www.w3.org/1999/xlink" width="1008pt" height="576pt" viewBox="0 0 1008 576" xmlns="http://www.w3.org/2000/svg" version="1.1">
 <metadata>
  <rdf:RDF xmlns:dc="http://purl.org/dc/elements/1.1/" xmlns:cc="http://creativecommons.org/ns#" xmlns:rdf="http://www.w3.org/1999/02/22-rdf-syntax-ns#">
   <cc:Work>
    <dc:type rdf:resource="http://purl.org/dc/dcmitype/StillImage"/>
    <dc:date>2025-01-26T23:30:55.783855</dc:date>
    <dc:format>image/svg+xml</dc:format>
    <dc:creator>
     <cc:Agent>
      <dc:title>Matplotlib v3.10.0, https://matplotlib.org/</dc:title>
     </cc:Agent>
    </dc:creator>
   </cc:Work>
  </rdf:RDF>
 </metadata>
 <defs>
  <style type="text/css">*{stroke-linejoin: round; stroke-linecap: butt}</style>
 </defs>
 <g id="figure_1">
  <g id="patch_1">
   <path d="M 0 576 
L 1008 576 
L 1008 0 
L 0 0 
z
" style="fill: #ffffff"/>
  </g>
  <g id="axes_1">
   <g id="patch_2">
    <path d="M 54.81 526.5 
L 960.98 526.5 
L 960.98 30.58125 
L 54.81 30.58125 
z
" style="fill: #ffffff"/>
   </g>
   <g id="matplotlib.axis_1">
    <g id="xtick_1">
     <g id="line2d_1">
      <path d="M 79.187486 526.5 
L 79.187486 30.58125 
" clip-path="url(#pbba5c10c22)" style="fill: none; stroke-dasharray: 3.7,1.6; stroke-dashoffset: 0; stroke: #cccccc; stroke-opacity: 0.5"/>
     </g>
     <g id="text_1">
      <!-- 0 -->
      <g style="fill: #262626" transform="translate(76.12897 543.873594) scale(0.11 -0.11)">
       <defs>
        <path id="ArialMT-30" d="M 266 2259 
Q 266 3072 433 3567 
Q 600 4063 929 4331 
Q 1259 4600 1759 4600 
Q 2128 4600 2406 4451 
Q 2684 4303 2865 4023 
Q 3047 3744 3150 3342 
Q 3253 2941 3253 2259 
Q 3253 1453 3087 958 
Q 2922 463 2592 192 
Q 2263 -78 1759 -78 
Q 1097 -78 719 397 
Q 266 969 266 2259 
z
M 844 2259 
Q 844 1131 1108 757 
Q 1372 384 1759 384 
Q 2147 384 2411 759 
Q 2675 1134 2675 2259 
Q 2675 3391 2411 3762 
Q 2147 4134 1753 4134 
Q 1366 4134 1134 3806 
Q 844 3388 844 2259 
z
" transform="scale(0.015625)"/>
       </defs>
       <use xlink:href="#ArialMT-30"/>
      </g>
     </g>
    </g>
    <g id="xtick_2">
     <g id="line2d_2">
      <path d="M 247.30808 526.5 
L 247.30808 30.58125 
" clip-path="url(#pbba5c10c22)" style="fill: none; stroke-dasharray: 3.7,1.6; stroke-dashoffset: 0; stroke: #cccccc; stroke-opacity: 0.5"/>
     </g>
     <g id="text_2">
      <!-- 10 -->
      <g style="fill: #262626" transform="translate(241.191049 543.873594) scale(0.11 -0.11)">
       <defs>
        <path id="ArialMT-31" d="M 2384 0 
L 1822 0 
L 1822 3584 
Q 1619 3391 1289 3197 
Q 959 3003 697 2906 
L 697 3450 
Q 1169 3672 1522 3987 
Q 1875 4303 2022 4600 
L 2384 4600 
L 2384 0 
z
" transform="scale(0.015625)"/>
       </defs>
       <use xlink:href="#ArialMT-31"/>
       <use xlink:href="#ArialMT-30" transform="translate(55.615234 0)"/>
      </g>
     </g>
    </g>
    <g id="xtick_3">
     <g id="line2d_3">
      <path d="M 415.428673 526.5 
L 415.428673 30.58125 
" clip-path="url(#pbba5c10c22)" style="fill: none; stroke-dasharray: 3.7,1.6; stroke-dashoffset: 0; stroke: #cccccc; stroke-opacity: 0.5"/>
     </g>
     <g id="text_3">
      <!-- 20 -->
      <g style="fill: #262626" transform="translate(409.311642 543.873594) scale(0.11 -0.11)">
       <defs>
        <path id="ArialMT-32" d="M 3222 541 
L 3222 0 
L 194 0 
Q 188 203 259 391 
Q 375 700 629 1000 
Q 884 1300 1366 1694 
Q 2113 2306 2375 2664 
Q 2638 3022 2638 3341 
Q 2638 3675 2398 3904 
Q 2159 4134 1775 4134 
Q 1369 4134 1125 3890 
Q 881 3647 878 3216 
L 300 3275 
Q 359 3922 746 4261 
Q 1134 4600 1788 4600 
Q 2447 4600 2831 4234 
Q 3216 3869 3216 3328 
Q 3216 3053 3103 2787 
Q 2991 2522 2730 2228 
Q 2469 1934 1863 1422 
Q 1356 997 1212 845 
Q 1069 694 975 541 
L 3222 541 
z
" transform="scale(0.015625)"/>
       </defs>
       <use xlink:href="#ArialMT-32"/>
       <use xlink:href="#ArialMT-30" transform="translate(55.615234 0)"/>
      </g>
     </g>
    </g>
    <g id="xtick_4">
     <g id="line2d_4">
      <path d="M 583.549267 526.5 
L 583.549267 30.58125 
" clip-path="url(#pbba5c10c22)" style="fill: none; stroke-dasharray: 3.7,1.6; stroke-dashoffset: 0; stroke: #cccccc; stroke-opacity: 0.5"/>
     </g>
     <g id="text_4">
      <!-- 30 -->
      <g style="fill: #262626" transform="translate(577.432236 543.873594) scale(0.11 -0.11)">
       <defs>
        <path id="ArialMT-33" d="M 269 1209 
L 831 1284 
Q 928 806 1161 595 
Q 1394 384 1728 384 
Q 2125 384 2398 659 
Q 2672 934 2672 1341 
Q 2672 1728 2419 1979 
Q 2166 2231 1775 2231 
Q 1616 2231 1378 2169 
L 1441 2663 
Q 1497 2656 1531 2656 
Q 1891 2656 2178 2843 
Q 2466 3031 2466 3422 
Q 2466 3731 2256 3934 
Q 2047 4138 1716 4138 
Q 1388 4138 1169 3931 
Q 950 3725 888 3313 
L 325 3413 
Q 428 3978 793 4289 
Q 1159 4600 1703 4600 
Q 2078 4600 2393 4439 
Q 2709 4278 2876 4000 
Q 3044 3722 3044 3409 
Q 3044 3113 2884 2869 
Q 2725 2625 2413 2481 
Q 2819 2388 3044 2092 
Q 3269 1797 3269 1353 
Q 3269 753 2831 336 
Q 2394 -81 1725 -81 
Q 1122 -81 723 278 
Q 325 638 269 1209 
z
" transform="scale(0.015625)"/>
       </defs>
       <use xlink:href="#ArialMT-33"/>
       <use xlink:href="#ArialMT-30" transform="translate(55.615234 0)"/>
      </g>
     </g>
    </g>
    <g id="xtick_5">
     <g id="line2d_5">
      <path d="M 751.669861 526.5 
L 751.669861 30.58125 
" clip-path="url(#pbba5c10c22)" style="fill: none; stroke-dasharray: 3.7,1.6; stroke-dashoffset: 0; stroke: #cccccc; stroke-opacity: 0.5"/>
     </g>
     <g id="text_5">
      <!-- 40 -->
      <g style="fill: #262626" transform="translate(745.55283 543.873594) scale(0.11 -0.11)">
       <defs>
        <path id="ArialMT-34" d="M 2069 0 
L 2069 1097 
L 81 1097 
L 81 1613 
L 2172 4581 
L 2631 4581 
L 2631 1613 
L 3250 1613 
L 3250 1097 
L 2631 1097 
L 2631 0 
L 2069 0 
z
M 2069 1613 
L 2069 3678 
L 634 1613 
L 2069 1613 
z
" transform="scale(0.015625)"/>
       </defs>
       <use xlink:href="#ArialMT-34"/>
       <use xlink:href="#ArialMT-30" transform="translate(55.615234 0)"/>
      </g>
     </g>
    </g>
    <g id="xtick_6">
     <g id="line2d_6">
      <path d="M 919.790455 526.5 
L 919.790455 30.58125 
" clip-path="url(#pbba5c10c22)" style="fill: none; stroke-dasharray: 3.7,1.6; stroke-dashoffset: 0; stroke: #cccccc; stroke-opacity: 0.5"/>
     </g>
     <g id="text_6">
      <!-- 50 -->
      <g style="fill: #262626" transform="translate(913.673423 543.873594) scale(0.11 -0.11)">
       <defs>
        <path id="ArialMT-35" d="M 266 1200 
L 856 1250 
Q 922 819 1161 601 
Q 1400 384 1738 384 
Q 2144 384 2425 690 
Q 2706 997 2706 1503 
Q 2706 1984 2436 2262 
Q 2166 2541 1728 2541 
Q 1456 2541 1237 2417 
Q 1019 2294 894 2097 
L 366 2166 
L 809 4519 
L 3088 4519 
L 3088 3981 
L 1259 3981 
L 1013 2750 
Q 1425 3038 1878 3038 
Q 2478 3038 2890 2622 
Q 3303 2206 3303 1553 
Q 3303 931 2941 478 
Q 2500 -78 1738 -78 
Q 1113 -78 717 272 
Q 322 622 266 1200 
z
" transform="scale(0.015625)"/>
       </defs>
       <use xlink:href="#ArialMT-35"/>
       <use xlink:href="#ArialMT-30" transform="translate(55.615234 0)"/>
      </g>
     </g>
    </g>
    <g id="text_7">
     <!-- Epoch -->
     <g style="fill: #262626" transform="translate(488.047812 560.080781) scale(0.14 -0.14)">
      <defs>
       <path id="ArialMT-45" d="M 506 0 
L 506 4581 
L 3819 4581 
L 3819 4041 
L 1113 4041 
L 1113 2638 
L 3647 2638 
L 3647 2100 
L 1113 2100 
L 1113 541 
L 3925 541 
L 3925 0 
L 506 0 
z
" transform="scale(0.015625)"/>
       <path id="ArialMT-70" d="M 422 -1272 
L 422 3319 
L 934 3319 
L 934 2888 
Q 1116 3141 1344 3267 
Q 1572 3394 1897 3394 
Q 2322 3394 2647 3175 
Q 2972 2956 3137 2557 
Q 3303 2159 3303 1684 
Q 3303 1175 3120 767 
Q 2938 359 2589 142 
Q 2241 -75 1856 -75 
Q 1575 -75 1351 44 
Q 1128 163 984 344 
L 984 -1272 
L 422 -1272 
z
M 931 1641 
Q 931 1000 1190 694 
Q 1450 388 1819 388 
Q 2194 388 2461 705 
Q 2728 1022 2728 1688 
Q 2728 2322 2467 2637 
Q 2206 2953 1844 2953 
Q 1484 2953 1207 2617 
Q 931 2281 931 1641 
z
" transform="scale(0.015625)"/>
       <path id="ArialMT-6f" d="M 213 1659 
Q 213 2581 725 3025 
Q 1153 3394 1769 3394 
Q 2453 3394 2887 2945 
Q 3322 2497 3322 1706 
Q 3322 1066 3130 698 
Q 2938 331 2570 128 
Q 2203 -75 1769 -75 
Q 1072 -75 642 372 
Q 213 819 213 1659 
z
M 791 1659 
Q 791 1022 1069 705 
Q 1347 388 1769 388 
Q 2188 388 2466 706 
Q 2744 1025 2744 1678 
Q 2744 2294 2464 2611 
Q 2184 2928 1769 2928 
Q 1347 2928 1069 2612 
Q 791 2297 791 1659 
z
" transform="scale(0.015625)"/>
       <path id="ArialMT-63" d="M 2588 1216 
L 3141 1144 
Q 3050 572 2676 248 
Q 2303 -75 1759 -75 
Q 1078 -75 664 370 
Q 250 816 250 1647 
Q 250 2184 428 2587 
Q 606 2991 970 3192 
Q 1334 3394 1763 3394 
Q 2303 3394 2647 3120 
Q 2991 2847 3088 2344 
L 2541 2259 
Q 2463 2594 2264 2762 
Q 2066 2931 1784 2931 
Q 1359 2931 1093 2626 
Q 828 2322 828 1663 
Q 828 994 1084 691 
Q 1341 388 1753 388 
Q 2084 388 2306 591 
Q 2528 794 2588 1216 
z
" transform="scale(0.015625)"/>
       <path id="ArialMT-68" d="M 422 0 
L 422 4581 
L 984 4581 
L 984 2938 
Q 1378 3394 1978 3394 
Q 2347 3394 2619 3248 
Q 2891 3103 3008 2847 
Q 3125 2591 3125 2103 
L 3125 0 
L 2563 0 
L 2563 2103 
Q 2563 2525 2380 2717 
Q 2197 2909 1863 2909 
Q 1613 2909 1392 2779 
Q 1172 2650 1078 2428 
Q 984 2206 984 1816 
L 984 0 
L 422 0 
z
" transform="scale(0.015625)"/>
      </defs>
      <use xlink:href="#ArialMT-45"/>
      <use xlink:href="#ArialMT-70" transform="translate(66.699219 0)"/>
      <use xlink:href="#ArialMT-6f" transform="translate(122.314453 0)"/>
      <use xlink:href="#ArialMT-63" transform="translate(177.929688 0)"/>
      <use xlink:href="#ArialMT-68" transform="translate(227.929688 0)"/>
     </g>
    </g>
   </g>
   <g id="matplotlib.axis_2">
    <g id="ytick_1">
     <g id="line2d_7">
      <path d="M 54.81 507.918054 
L 960.98 507.918054 
" clip-path="url(#pbba5c10c22)" style="fill: none; stroke-dasharray: 3.7,1.6; stroke-dashoffset: 0; stroke: #cccccc; stroke-opacity: 0.5"/>
     </g>
     <g id="text_8">
      <!-- 0.4 -->
      <g style="fill: #262626" transform="translate(30.02 511.854851) scale(0.11 -0.11)">
       <defs>
        <path id="ArialMT-2e" d="M 581 0 
L 581 641 
L 1222 641 
L 1222 0 
L 581 0 
z
" transform="scale(0.015625)"/>
       </defs>
       <use xlink:href="#ArialMT-30"/>
       <use xlink:href="#ArialMT-2e" transform="translate(55.615234 0)"/>
       <use xlink:href="#ArialMT-34" transform="translate(83.398438 0)"/>
      </g>
     </g>
    </g>
    <g id="ytick_2">
     <g id="line2d_8">
      <path d="M 54.81 444.224803 
L 960.98 444.224803 
" clip-path="url(#pbba5c10c22)" style="fill: none; stroke-dasharray: 3.7,1.6; stroke-dashoffset: 0; stroke: #cccccc; stroke-opacity: 0.5"/>
     </g>
     <g id="text_9">
      <!-- 0.5 -->
      <g style="fill: #262626" transform="translate(30.02 448.1616) scale(0.11 -0.11)">
       <use xlink:href="#ArialMT-30"/>
       <use xlink:href="#ArialMT-2e" transform="translate(55.615234 0)"/>
       <use xlink:href="#ArialMT-35" transform="translate(83.398438 0)"/>
      </g>
     </g>
    </g>
    <g id="ytick_3">
     <g id="line2d_9">
      <path d="M 54.81 380.531552 
L 960.98 380.531552 
" clip-path="url(#pbba5c10c22)" style="fill: none; stroke-dasharray: 3.7,1.6; stroke-dashoffset: 0; stroke: #cccccc; stroke-opacity: 0.5"/>
     </g>
     <g id="text_10">
      <!-- 0.6 -->
      <g style="fill: #262626" transform="translate(30.02 384.468349) scale(0.11 -0.11)">
       <defs>
        <path id="ArialMT-36" d="M 3184 3459 
L 2625 3416 
Q 2550 3747 2413 3897 
Q 2184 4138 1850 4138 
Q 1581 4138 1378 3988 
Q 1113 3794 959 3422 
Q 806 3050 800 2363 
Q 1003 2672 1297 2822 
Q 1591 2972 1913 2972 
Q 2475 2972 2870 2558 
Q 3266 2144 3266 1488 
Q 3266 1056 3080 686 
Q 2894 316 2569 119 
Q 2244 -78 1831 -78 
Q 1128 -78 684 439 
Q 241 956 241 2144 
Q 241 3472 731 4075 
Q 1159 4600 1884 4600 
Q 2425 4600 2770 4297 
Q 3116 3994 3184 3459 
z
M 888 1484 
Q 888 1194 1011 928 
Q 1134 663 1356 523 
Q 1578 384 1822 384 
Q 2178 384 2434 671 
Q 2691 959 2691 1453 
Q 2691 1928 2437 2201 
Q 2184 2475 1800 2475 
Q 1419 2475 1153 2201 
Q 888 1928 888 1484 
z
" transform="scale(0.015625)"/>
       </defs>
       <use xlink:href="#ArialMT-30"/>
       <use xlink:href="#ArialMT-2e" transform="translate(55.615234 0)"/>
       <use xlink:href="#ArialMT-36" transform="translate(83.398438 0)"/>
      </g>
     </g>
    </g>
    <g id="ytick_4">
     <g id="line2d_10">
      <path d="M 54.81 316.838301 
L 960.98 316.838301 
" clip-path="url(#pbba5c10c22)" style="fill: none; stroke-dasharray: 3.7,1.6; stroke-dashoffset: 0; stroke: #cccccc; stroke-opacity: 0.5"/>
     </g>
     <g id="text_11">
      <!-- 0.7 -->
      <g style="fill: #262626" transform="translate(30.02 320.775098) scale(0.11 -0.11)">
       <defs>
        <path id="ArialMT-37" d="M 303 3981 
L 303 4522 
L 3269 4522 
L 3269 4084 
Q 2831 3619 2401 2847 
Q 1972 2075 1738 1259 
Q 1569 684 1522 0 
L 944 0 
Q 953 541 1156 1306 
Q 1359 2072 1739 2783 
Q 2119 3494 2547 3981 
L 303 3981 
z
" transform="scale(0.015625)"/>
       </defs>
       <use xlink:href="#ArialMT-30"/>
       <use xlink:href="#ArialMT-2e" transform="translate(55.615234 0)"/>
       <use xlink:href="#ArialMT-37" transform="translate(83.398438 0)"/>
      </g>
     </g>
    </g>
    <g id="ytick_5">
     <g id="line2d_11">
      <path d="M 54.81 253.14505 
L 960.98 253.14505 
" clip-path="url(#pbba5c10c22)" style="fill: none; stroke-dasharray: 3.7,1.6; stroke-dashoffset: 0; stroke: #cccccc; stroke-opacity: 0.5"/>
     </g>
     <g id="text_12">
      <!-- 0.8 -->
      <g style="fill: #262626" transform="translate(30.02 257.081847) scale(0.11 -0.11)">
       <defs>
        <path id="ArialMT-38" d="M 1131 2484 
Q 781 2613 612 2850 
Q 444 3088 444 3419 
Q 444 3919 803 4259 
Q 1163 4600 1759 4600 
Q 2359 4600 2725 4251 
Q 3091 3903 3091 3403 
Q 3091 3084 2923 2848 
Q 2756 2613 2416 2484 
Q 2838 2347 3058 2040 
Q 3278 1734 3278 1309 
Q 3278 722 2862 322 
Q 2447 -78 1769 -78 
Q 1091 -78 675 323 
Q 259 725 259 1325 
Q 259 1772 486 2073 
Q 713 2375 1131 2484 
z
M 1019 3438 
Q 1019 3113 1228 2906 
Q 1438 2700 1772 2700 
Q 2097 2700 2305 2904 
Q 2513 3109 2513 3406 
Q 2513 3716 2298 3927 
Q 2084 4138 1766 4138 
Q 1444 4138 1231 3931 
Q 1019 3725 1019 3438 
z
M 838 1322 
Q 838 1081 952 856 
Q 1066 631 1291 507 
Q 1516 384 1775 384 
Q 2178 384 2440 643 
Q 2703 903 2703 1303 
Q 2703 1709 2433 1975 
Q 2163 2241 1756 2241 
Q 1359 2241 1098 1978 
Q 838 1716 838 1322 
z
" transform="scale(0.015625)"/>
       </defs>
       <use xlink:href="#ArialMT-30"/>
       <use xlink:href="#ArialMT-2e" transform="translate(55.615234 0)"/>
       <use xlink:href="#ArialMT-38" transform="translate(83.398438 0)"/>
      </g>
     </g>
    </g>
    <g id="ytick_6">
     <g id="line2d_12">
      <path d="M 54.81 189.451799 
L 960.98 189.451799 
" clip-path="url(#pbba5c10c22)" style="fill: none; stroke-dasharray: 3.7,1.6; stroke-dashoffset: 0; stroke: #cccccc; stroke-opacity: 0.5"/>
     </g>
     <g id="text_13">
      <!-- 0.9 -->
      <g style="fill: #262626" transform="translate(30.02 193.388596) scale(0.11 -0.11)">
       <defs>
        <path id="ArialMT-39" d="M 350 1059 
L 891 1109 
Q 959 728 1153 556 
Q 1347 384 1650 384 
Q 1909 384 2104 503 
Q 2300 622 2425 820 
Q 2550 1019 2634 1356 
Q 2719 1694 2719 2044 
Q 2719 2081 2716 2156 
Q 2547 1888 2255 1720 
Q 1963 1553 1622 1553 
Q 1053 1553 659 1965 
Q 266 2378 266 3053 
Q 266 3750 677 4175 
Q 1088 4600 1706 4600 
Q 2153 4600 2523 4359 
Q 2894 4119 3086 3673 
Q 3278 3228 3278 2384 
Q 3278 1506 3087 986 
Q 2897 466 2520 194 
Q 2144 -78 1638 -78 
Q 1100 -78 759 220 
Q 419 519 350 1059 
z
M 2653 3081 
Q 2653 3566 2395 3850 
Q 2138 4134 1775 4134 
Q 1400 4134 1122 3828 
Q 844 3522 844 3034 
Q 844 2597 1108 2323 
Q 1372 2050 1759 2050 
Q 2150 2050 2401 2323 
Q 2653 2597 2653 3081 
z
" transform="scale(0.015625)"/>
       </defs>
       <use xlink:href="#ArialMT-30"/>
       <use xlink:href="#ArialMT-2e" transform="translate(55.615234 0)"/>
       <use xlink:href="#ArialMT-39" transform="translate(83.398438 0)"/>
      </g>
     </g>
    </g>
    <g id="ytick_7">
     <g id="line2d_13">
      <path d="M 54.81 125.758548 
L 960.98 125.758548 
" clip-path="url(#pbba5c10c22)" style="fill: none; stroke-dasharray: 3.7,1.6; stroke-dashoffset: 0; stroke: #cccccc; stroke-opacity: 0.5"/>
     </g>
     <g id="text_14">
      <!-- 1.0 -->
      <g style="fill: #262626" transform="translate(30.02 129.695345) scale(0.11 -0.11)">
       <use xlink:href="#ArialMT-31"/>
       <use xlink:href="#ArialMT-2e" transform="translate(55.615234 0)"/>
       <use xlink:href="#ArialMT-30" transform="translate(83.398438 0)"/>
      </g>
     </g>
    </g>
    <g id="ytick_8">
     <g id="line2d_14">
      <path d="M 54.81 62.065297 
L 960.98 62.065297 
" clip-path="url(#pbba5c10c22)" style="fill: none; stroke-dasharray: 3.7,1.6; stroke-dashoffset: 0; stroke: #cccccc; stroke-opacity: 0.5"/>
     </g>
     <g id="text_15">
      <!-- 1.1 -->
      <g style="fill: #262626" transform="translate(30.02 66.002094) scale(0.11 -0.11)">
       <use xlink:href="#ArialMT-31"/>
       <use xlink:href="#ArialMT-2e" transform="translate(55.615234 0)"/>
       <use xlink:href="#ArialMT-31" transform="translate(83.398438 0)"/>
      </g>
     </g>
    </g>
    <g id="text_16">
     <!-- Accuracy -->
     <g style="fill: #262626" transform="translate(23.073438 307.325938) rotate(-90) scale(0.14 -0.14)">
      <defs>
       <path id="ArialMT-41" d="M -9 0 
L 1750 4581 
L 2403 4581 
L 4278 0 
L 3588 0 
L 3053 1388 
L 1138 1388 
L 634 0 
L -9 0 
z
M 1313 1881 
L 2866 1881 
L 2388 3150 
Q 2169 3728 2063 4100 
Q 1975 3659 1816 3225 
L 1313 1881 
z
" transform="scale(0.015625)"/>
       <path id="ArialMT-75" d="M 2597 0 
L 2597 488 
Q 2209 -75 1544 -75 
Q 1250 -75 995 37 
Q 741 150 617 320 
Q 494 491 444 738 
Q 409 903 409 1263 
L 409 3319 
L 972 3319 
L 972 1478 
Q 972 1038 1006 884 
Q 1059 663 1231 536 
Q 1403 409 1656 409 
Q 1909 409 2131 539 
Q 2353 669 2445 892 
Q 2538 1116 2538 1541 
L 2538 3319 
L 3100 3319 
L 3100 0 
L 2597 0 
z
" transform="scale(0.015625)"/>
       <path id="ArialMT-72" d="M 416 0 
L 416 3319 
L 922 3319 
L 922 2816 
Q 1116 3169 1280 3281 
Q 1444 3394 1641 3394 
Q 1925 3394 2219 3213 
L 2025 2691 
Q 1819 2813 1613 2813 
Q 1428 2813 1281 2702 
Q 1134 2591 1072 2394 
Q 978 2094 978 1738 
L 978 0 
L 416 0 
z
" transform="scale(0.015625)"/>
       <path id="ArialMT-61" d="M 2588 409 
Q 2275 144 1986 34 
Q 1697 -75 1366 -75 
Q 819 -75 525 192 
Q 231 459 231 875 
Q 231 1119 342 1320 
Q 453 1522 633 1644 
Q 813 1766 1038 1828 
Q 1203 1872 1538 1913 
Q 2219 1994 2541 2106 
Q 2544 2222 2544 2253 
Q 2544 2597 2384 2738 
Q 2169 2928 1744 2928 
Q 1347 2928 1158 2789 
Q 969 2650 878 2297 
L 328 2372 
Q 403 2725 575 2942 
Q 747 3159 1072 3276 
Q 1397 3394 1825 3394 
Q 2250 3394 2515 3294 
Q 2781 3194 2906 3042 
Q 3031 2891 3081 2659 
Q 3109 2516 3109 2141 
L 3109 1391 
Q 3109 606 3145 398 
Q 3181 191 3288 0 
L 2700 0 
Q 2613 175 2588 409 
z
M 2541 1666 
Q 2234 1541 1622 1453 
Q 1275 1403 1131 1340 
Q 988 1278 909 1158 
Q 831 1038 831 891 
Q 831 666 1001 516 
Q 1172 366 1500 366 
Q 1825 366 2078 508 
Q 2331 650 2450 897 
Q 2541 1088 2541 1459 
L 2541 1666 
z
" transform="scale(0.015625)"/>
       <path id="ArialMT-79" d="M 397 -1278 
L 334 -750 
Q 519 -800 656 -800 
Q 844 -800 956 -737 
Q 1069 -675 1141 -563 
Q 1194 -478 1313 -144 
Q 1328 -97 1363 -6 
L 103 3319 
L 709 3319 
L 1400 1397 
Q 1534 1031 1641 628 
Q 1738 1016 1872 1384 
L 2581 3319 
L 3144 3319 
L 1881 -56 
Q 1678 -603 1566 -809 
Q 1416 -1088 1222 -1217 
Q 1028 -1347 759 -1347 
Q 597 -1347 397 -1278 
z
" transform="scale(0.015625)"/>
      </defs>
      <use xlink:href="#ArialMT-41"/>
      <use xlink:href="#ArialMT-63" transform="translate(66.699219 0)"/>
      <use xlink:href="#ArialMT-63" transform="translate(116.699219 0)"/>
      <use xlink:href="#ArialMT-75" transform="translate(166.699219 0)"/>
      <use xlink:href="#ArialMT-72" transform="translate(222.314453 0)"/>
      <use xlink:href="#ArialMT-61" transform="translate(255.615234 0)"/>
      <use xlink:href="#ArialMT-63" transform="translate(311.230469 0)"/>
      <use xlink:href="#ArialMT-79" transform="translate(361.230469 0)"/>
     </g>
    </g>
   </g>
   <g id="FillBetweenPolyCollection_1">
    <defs>
     <path id="mff773a6b29" d="M 95.999545 -444.258439 
L 95.999545 -72.041761 
L 112.811605 -174.788861 
L 129.623664 -177.757026 
L 146.435724 -208.584287 
L 163.247783 -245.319053 
L 180.059842 -102.418764 
L 196.871902 -148.237432 
L 213.683961 -181.387867 
L 230.49602 -208.71053 
L 247.30808 -229.939332 
L 264.120139 -243.152547 
L 280.932199 -256.066889 
L 297.744258 -265.383112 
L 314.556317 -274.916797 
L 331.368377 -283.78264 
L 348.180436 -288.679132 
L 364.992495 -296.81344 
L 381.804555 -303.142093 
L 398.616614 -308.706427 
L 415.428673 -313.895003 
L 432.240733 -320.14037 
L 449.052792 -324.366757 
L 465.864852 -329.054452 
L 482.676911 -330.231839 
L 499.48897 -337.689641 
L 516.30103 -340.420175 
L 533.113089 -343.445055 
L 549.925148 -349.389285 
L 566.737208 -351.875973 
L 583.549267 -354.439546 
L 600.361327 -357.130506 
L 617.173386 -360.331011 
L 633.985445 -362.945086 
L 650.797505 -363.50966 
L 667.609564 -367.072733 
L 684.421623 -369.660425 
L 701.233683 -369.212309 
L 718.045742 -372.314074 
L 734.857801 -372.531536 
L 751.669861 -375.07099 
L 768.48192 -376.810688 
L 785.29398 -378.478029 
L 802.106039 -378.785568 
L 818.918098 -380.33645 
L 835.730158 -382.910951 
L 852.542217 -383.475525 
L 869.354276 -384.94726 
L 886.166336 -384.923141 
L 902.978395 -386.678294 
L 919.790455 -387.831563 
L 919.790455 -456.919747 
L 919.790455 -456.919747 
L 902.978395 -457.117616 
L 886.166336 -457.344132 
L 869.354276 -457.638479 
L 852.542217 -457.517882 
L 835.730158 -457.76399 
L 818.918098 -457.981841 
L 802.106039 -458.322551 
L 785.29398 -458.375317 
L 768.48192 -458.959872 
L 751.669861 -458.661387 
L 734.857801 -459.544816 
L 718.045742 -459.507506 
L 701.233683 -460.188927 
L 684.421623 -460.186664 
L 667.609564 -460.481399 
L 650.797505 -461.241968 
L 633.985445 -461.488076 
L 617.173386 -461.936581 
L 600.361327 -461.88873 
L 583.549267 -462.350426 
L 566.737208 -462.939508 
L 549.925148 -463.515399 
L 533.113089 -464.236782 
L 516.30103 -464.905012 
L 499.48897 -465.597362 
L 482.676911 -466.876918 
L 465.864852 -466.780441 
L 449.052792 -467.136994 
L 432.240733 -467.4144 
L 415.428673 -469.456012 
L 398.616614 -470.122367 
L 381.804555 -471.674026 
L 364.992495 -472.461366 
L 348.180436 -473.334644 
L 331.368377 -474.473234 
L 314.556317 -475.695887 
L 297.744258 -477.331609 
L 280.932199 -479.004642 
L 264.120139 -480.772665 
L 247.30808 -483.4128 
L 230.49602 -486.234253 
L 213.683961 -491.519051 
L 196.871902 -497.281388 
L 180.059842 -504.247173 
L 163.247783 -469.667873 
L 146.435724 -467.228023 
L 129.623664 -465.669715 
L 112.811605 -468.275319 
L 95.999545 -444.258439 
z
" style="stroke: #1f77b4; stroke-opacity: 0.3"/>
    </defs>
    <g clip-path="url(#pbba5c10c22)">
     <use xlink:href="#mff773a6b29" x="0" y="576" style="fill: #1f77b4; fill-opacity: 0.3; stroke: #1f77b4; stroke-opacity: 0.3"/>
    </g>
   </g>
   <g id="FillBetweenPolyCollection_2">
    <defs>
     <path id="mf285cfe647" d="M 95.999545 -522.876989 
L 95.999545 -124.089791 
L 112.811605 -408.601907 
L 129.623664 -426.502861 
L 146.435724 -430.007117 
L 163.247783 -431.747584 
L 180.059842 -440.210314 
L 196.871902 -441.951888 
L 213.683961 -438.215454 
L 230.49602 -440.275882 
L 247.30808 -441.341338 
L 264.120139 -440.943724 
L 280.932199 -440.796356 
L 297.744258 -440.761309 
L 314.556317 -442.083801 
L 331.368377 -442.243972 
L 348.180436 -441.604776 
L 364.992495 -440.750381 
L 381.804555 -440.86005 
L 398.616614 -443.577392 
L 415.428673 -441.631158 
L 432.240733 -443.032798 
L 449.052792 -443.961814 
L 465.864852 -441.976007 
L 482.676911 -442.349502 
L 499.48897 -441.989199 
L 516.30103 -441.951888 
L 533.113089 -442.105657 
L 549.925148 -442.7799 
L 566.737208 -443.463196 
L 583.549267 -443.373121 
L 600.361327 -442.670231 
L 617.173386 -443.770735 
L 633.985445 -442.066083 
L 650.797505 -440.682161 
L 667.609564 -443.333547 
L 684.421623 -444.023244 
L 701.233683 -442.707542 
L 718.045742 -444.027771 
L 734.857801 -442.219852 
L 751.669861 -442.474625 
L 768.48192 -444.53958 
L 785.29398 -443.603774 
L 802.106039 -442.705279 
L 818.918098 -443.680659 
L 835.730158 -442.692088 
L 852.542217 -444.590082 
L 869.354276 -443.540081 
L 886.166336 -444.025508 
L 902.978395 -443.52689 
L 919.790455 -442.885431 
L 919.790455 -446.578541 
L 919.790455 -446.578541 
L 902.978395 -446.319241 
L 886.166336 -446.457556 
L 869.354276 -446.242357 
L 852.542217 -446.211448 
L 835.730158 -446.835577 
L 818.918098 -446.292859 
L 802.106039 -446.758693 
L 785.29398 -446.30605 
L 768.48192 -446.07087 
L 751.669861 -446.798266 
L 734.857801 -446.543493 
L 718.045742 -446.00944 
L 701.233683 -446.310577 
L 684.421623 -446.905672 
L 667.609564 -446.576278 
L 650.797505 -446.80732 
L 633.985445 -446.569876 
L 617.173386 -446.202783 
L 600.361327 -446.093114 
L 583.549267 -446.345624 
L 566.737208 -446.255548 
L 549.925148 -447.193617 
L 533.113089 -446.339222 
L 516.30103 -446.365605 
L 499.48897 -446.583067 
L 482.676911 -446.222764 
L 465.864852 -446.659952 
L 449.052792 -446.393863 
L 432.240733 -445.284695 
L 415.428673 -446.495255 
L 398.616614 -446.459819 
L 381.804555 -447.075284 
L 364.992495 -445.974781 
L 348.180436 -446.649024 
L 331.368377 -446.83784 
L 314.556317 -445.596759 
L 297.744258 -446.346012 
L 280.932199 -447.011591 
L 264.120139 -445.717744 
L 247.30808 -445.574903 
L 230.49602 -446.130813 
L 213.683961 -445.961978 
L 196.871902 -446.365605 
L 180.059842 -443.903424 
L 163.247783 -448.417172 
L 146.435724 -446.590818 
L 129.623664 -447.08026 
L 112.811605 -448.84559 
L 95.999545 -522.876989 
z
" style="stroke: #aec7e8; stroke-opacity: 0.3"/>
    </defs>
    <g clip-path="url(#pbba5c10c22)">
     <use xlink:href="#mf285cfe647" x="0" y="576" style="fill: #aec7e8; fill-opacity: 0.3; stroke: #aec7e8; stroke-opacity: 0.3"/>
    </g>
   </g>
   <g id="line2d_15">
    <path d="M 95.999545 317.8499 
L 112.811605 254.46791 
L 129.623664 254.286629 
L 146.435724 238.093845 
L 163.247783 218.506537 
L 180.059842 272.667032 
L 196.871902 253.24059 
L 213.683961 239.546541 
L 230.49602 228.527609 
L 247.30808 219.323934 
L 264.120139 214.037394 
L 280.932199 208.464235 
L 297.744258 204.642639 
L 314.556317 200.693658 
L 331.368377 196.872063 
L 348.180436 194.993112 
L 364.992495 191.362597 
L 381.804555 188.59194 
L 398.616614 186.585603 
L 415.428673 184.324492 
L 432.240733 182.222615 
L 449.052792 180.248124 
L 465.864852 178.082554 
L 482.676911 177.445621 
L 499.48897 174.356499 
L 516.30103 173.337407 
L 533.113089 172.159081 
L 549.925148 169.547658 
L 566.737208 168.592259 
L 583.549267 167.605014 
L 600.361327 166.490382 
L 617.173386 164.866204 
L 633.985445 163.783419 
L 650.797505 163.624186 
L 667.609564 162.222934 
L 684.421623 161.076456 
L 701.233683 161.299382 
L 718.045742 160.08921 
L 734.857801 159.961824 
L 751.669861 159.133812 
L 768.48192 158.11472 
L 785.29398 157.573327 
L 802.106039 157.44594 
L 818.918098 156.840855 
L 835.730158 155.662529 
L 852.542217 155.503296 
L 869.354276 154.707131 
L 886.166336 154.866364 
L 902.978395 154.102045 
L 919.790455 153.624345 
" clip-path="url(#pbba5c10c22)" style="fill: none; stroke: #1f77b4; stroke-width: 2; stroke-linecap: round"/>
    <defs>
     <path id="me55200b506" d="M 0 3 
C 0.795609 3 1.55874 2.683901 2.12132 2.12132 
C 2.683901 1.55874 3 0.795609 3 0 
C 3 -0.795609 2.683901 -1.55874 2.12132 -2.12132 
C 1.55874 -2.683901 0.795609 -3 0 -3 
C -0.795609 -3 -1.55874 -2.683901 -2.12132 -2.12132 
C -2.683901 -1.55874 -3 -0.795609 -3 0 
C -3 0.795609 -2.683901 1.55874 -2.12132 2.12132 
C -1.55874 2.683901 -0.795609 3 0 3 
z
" style="stroke: #1f77b4"/>
    </defs>
    <g clip-path="url(#pbba5c10c22)">
     <use xlink:href="#me55200b506" x="95.999545" y="317.8499" style="fill: #1f77b4; stroke: #1f77b4"/>
     <use xlink:href="#me55200b506" x="112.811605" y="254.46791" style="fill: #1f77b4; stroke: #1f77b4"/>
     <use xlink:href="#me55200b506" x="129.623664" y="254.286629" style="fill: #1f77b4; stroke: #1f77b4"/>
     <use xlink:href="#me55200b506" x="146.435724" y="238.093845" style="fill: #1f77b4; stroke: #1f77b4"/>
     <use xlink:href="#me55200b506" x="163.247783" y="218.506537" style="fill: #1f77b4; stroke: #1f77b4"/>
     <use xlink:href="#me55200b506" x="180.059842" y="272.667032" style="fill: #1f77b4; stroke: #1f77b4"/>
     <use xlink:href="#me55200b506" x="196.871902" y="253.24059" style="fill: #1f77b4; stroke: #1f77b4"/>
     <use xlink:href="#me55200b506" x="213.683961" y="239.546541" style="fill: #1f77b4; stroke: #1f77b4"/>
     <use xlink:href="#me55200b506" x="230.49602" y="228.527609" style="fill: #1f77b4; stroke: #1f77b4"/>
     <use xlink:href="#me55200b506" x="247.30808" y="219.323934" style="fill: #1f77b4; stroke: #1f77b4"/>
     <use xlink:href="#me55200b506" x="264.120139" y="214.037394" style="fill: #1f77b4; stroke: #1f77b4"/>
     <use xlink:href="#me55200b506" x="280.932199" y="208.464235" style="fill: #1f77b4; stroke: #1f77b4"/>
     <use xlink:href="#me55200b506" x="297.744258" y="204.642639" style="fill: #1f77b4; stroke: #1f77b4"/>
     <use xlink:href="#me55200b506" x="314.556317" y="200.693658" style="fill: #1f77b4; stroke: #1f77b4"/>
     <use xlink:href="#me55200b506" x="331.368377" y="196.872063" style="fill: #1f77b4; stroke: #1f77b4"/>
     <use xlink:href="#me55200b506" x="348.180436" y="194.993112" style="fill: #1f77b4; stroke: #1f77b4"/>
     <use xlink:href="#me55200b506" x="364.992495" y="191.362597" style="fill: #1f77b4; stroke: #1f77b4"/>
     <use xlink:href="#me55200b506" x="381.804555" y="188.59194" style="fill: #1f77b4; stroke: #1f77b4"/>
     <use xlink:href="#me55200b506" x="398.616614" y="186.585603" style="fill: #1f77b4; stroke: #1f77b4"/>
     <use xlink:href="#me55200b506" x="415.428673" y="184.324492" style="fill: #1f77b4; stroke: #1f77b4"/>
     <use xlink:href="#me55200b506" x="432.240733" y="182.222615" style="fill: #1f77b4; stroke: #1f77b4"/>
     <use xlink:href="#me55200b506" x="449.052792" y="180.248124" style="fill: #1f77b4; stroke: #1f77b4"/>
     <use xlink:href="#me55200b506" x="465.864852" y="178.082554" style="fill: #1f77b4; stroke: #1f77b4"/>
     <use xlink:href="#me55200b506" x="482.676911" y="177.445621" style="fill: #1f77b4; stroke: #1f77b4"/>
     <use xlink:href="#me55200b506" x="499.48897" y="174.356499" style="fill: #1f77b4; stroke: #1f77b4"/>
     <use xlink:href="#me55200b506" x="516.30103" y="173.337407" style="fill: #1f77b4; stroke: #1f77b4"/>
     <use xlink:href="#me55200b506" x="533.113089" y="172.159081" style="fill: #1f77b4; stroke: #1f77b4"/>
     <use xlink:href="#me55200b506" x="549.925148" y="169.547658" style="fill: #1f77b4; stroke: #1f77b4"/>
     <use xlink:href="#me55200b506" x="566.737208" y="168.592259" style="fill: #1f77b4; stroke: #1f77b4"/>
     <use xlink:href="#me55200b506" x="583.549267" y="167.605014" style="fill: #1f77b4; stroke: #1f77b4"/>
     <use xlink:href="#me55200b506" x="600.361327" y="166.490382" style="fill: #1f77b4; stroke: #1f77b4"/>
     <use xlink:href="#me55200b506" x="617.173386" y="164.866204" style="fill: #1f77b4; stroke: #1f77b4"/>
     <use xlink:href="#me55200b506" x="633.985445" y="163.783419" style="fill: #1f77b4; stroke: #1f77b4"/>
     <use xlink:href="#me55200b506" x="650.797505" y="163.624186" style="fill: #1f77b4; stroke: #1f77b4"/>
     <use xlink:href="#me55200b506" x="667.609564" y="162.222934" style="fill: #1f77b4; stroke: #1f77b4"/>
     <use xlink:href="#me55200b506" x="684.421623" y="161.076456" style="fill: #1f77b4; stroke: #1f77b4"/>
     <use xlink:href="#me55200b506" x="701.233683" y="161.299382" style="fill: #1f77b4; stroke: #1f77b4"/>
     <use xlink:href="#me55200b506" x="718.045742" y="160.08921" style="fill: #1f77b4; stroke: #1f77b4"/>
     <use xlink:href="#me55200b506" x="734.857801" y="159.961824" style="fill: #1f77b4; stroke: #1f77b4"/>
     <use xlink:href="#me55200b506" x="751.669861" y="159.133812" style="fill: #1f77b4; stroke: #1f77b4"/>
     <use xlink:href="#me55200b506" x="768.48192" y="158.11472" style="fill: #1f77b4; stroke: #1f77b4"/>
     <use xlink:href="#me55200b506" x="785.29398" y="157.573327" style="fill: #1f77b4; stroke: #1f77b4"/>
     <use xlink:href="#me55200b506" x="802.106039" y="157.44594" style="fill: #1f77b4; stroke: #1f77b4"/>
     <use xlink:href="#me55200b506" x="818.918098" y="156.840855" style="fill: #1f77b4; stroke: #1f77b4"/>
     <use xlink:href="#me55200b506" x="835.730158" y="155.662529" style="fill: #1f77b4; stroke: #1f77b4"/>
     <use xlink:href="#me55200b506" x="852.542217" y="155.503296" style="fill: #1f77b4; stroke: #1f77b4"/>
     <use xlink:href="#me55200b506" x="869.354276" y="154.707131" style="fill: #1f77b4; stroke: #1f77b4"/>
     <use xlink:href="#me55200b506" x="886.166336" y="154.866364" style="fill: #1f77b4; stroke: #1f77b4"/>
     <use xlink:href="#me55200b506" x="902.978395" y="154.102045" style="fill: #1f77b4; stroke: #1f77b4"/>
     <use xlink:href="#me55200b506" x="919.790455" y="153.624345" style="fill: #1f77b4; stroke: #1f77b4"/>
    </g>
   </g>
   <g id="line2d_16">
    <path d="M 95.999545 252.51661 
L 112.811605 147.276251 
L 129.623664 139.20844 
L 146.435724 137.701033 
L 163.247783 135.917622 
L 180.059842 133.943131 
L 196.871902 131.841254 
L 213.683961 133.911284 
L 230.49602 132.796652 
L 247.30808 132.541879 
L 264.120139 132.669266 
L 280.932199 132.096027 
L 297.744258 132.446339 
L 314.556317 132.15972 
L 331.368377 131.459094 
L 348.180436 131.8731 
L 364.992495 132.637419 
L 381.804555 132.032333 
L 398.616614 130.981395 
L 415.428673 131.936793 
L 432.240733 131.841254 
L 449.052792 130.822162 
L 465.864852 131.68202 
L 482.676911 131.713867 
L 499.48897 131.713867 
L 516.30103 131.841254 
L 533.113089 131.77756 
L 549.925148 131.013241 
L 566.737208 131.140628 
L 583.549267 131.140628 
L 600.361327 131.618327 
L 617.173386 131.013241 
L 633.985445 131.68202 
L 650.797505 132.25526 
L 667.609564 131.045088 
L 684.421623 130.535542 
L 701.233683 131.490941 
L 718.045742 130.981395 
L 734.857801 131.618327 
L 751.669861 131.363554 
L 768.48192 130.694775 
L 785.29398 131.045088 
L 802.106039 131.268014 
L 818.918098 131.013241 
L 835.730158 131.236168 
L 852.542217 130.599235 
L 869.354276 131.108781 
L 886.166336 130.758468 
L 902.978395 131.076935 
L 919.790455 131.268014 
" clip-path="url(#pbba5c10c22)" style="fill: none; stroke: #aec7e8; stroke-width: 2; stroke-linecap: round"/>
    <defs>
     <path id="md595142eca" d="M 0 3 
C 0.795609 3 1.55874 2.683901 2.12132 2.12132 
C 2.683901 1.55874 3 0.795609 3 0 
C 3 -0.795609 2.683901 -1.55874 2.12132 -2.12132 
C 1.55874 -2.683901 0.795609 -3 0 -3 
C -0.795609 -3 -1.55874 -2.683901 -2.12132 -2.12132 
C -2.683901 -1.55874 -3 -0.795609 -3 0 
C -3 0.795609 -2.683901 1.55874 -2.12132 2.12132 
C -1.55874 2.683901 -0.795609 3 0 3 
z
" style="stroke: #aec7e8"/>
    </defs>
    <g clip-path="url(#pbba5c10c22)">
     <use xlink:href="#md595142eca" x="95.999545" y="252.51661" style="fill: #aec7e8; stroke: #aec7e8"/>
     <use xlink:href="#md595142eca" x="112.811605" y="147.276251" style="fill: #aec7e8; stroke: #aec7e8"/>
     <use xlink:href="#md595142eca" x="129.623664" y="139.20844" style="fill: #aec7e8; stroke: #aec7e8"/>
     <use xlink:href="#md595142eca" x="146.435724" y="137.701033" style="fill: #aec7e8; stroke: #aec7e8"/>
     <use xlink:href="#md595142eca" x="163.247783" y="135.917622" style="fill: #aec7e8; stroke: #aec7e8"/>
     <use xlink:href="#md595142eca" x="180.059842" y="133.943131" style="fill: #aec7e8; stroke: #aec7e8"/>
     <use xlink:href="#md595142eca" x="196.871902" y="131.841254" style="fill: #aec7e8; stroke: #aec7e8"/>
     <use xlink:href="#md595142eca" x="213.683961" y="133.911284" style="fill: #aec7e8; stroke: #aec7e8"/>
     <use xlink:href="#md595142eca" x="230.49602" y="132.796652" style="fill: #aec7e8; stroke: #aec7e8"/>
     <use xlink:href="#md595142eca" x="247.30808" y="132.541879" style="fill: #aec7e8; stroke: #aec7e8"/>
     <use xlink:href="#md595142eca" x="264.120139" y="132.669266" style="fill: #aec7e8; stroke: #aec7e8"/>
     <use xlink:href="#md595142eca" x="280.932199" y="132.096027" style="fill: #aec7e8; stroke: #aec7e8"/>
     <use xlink:href="#md595142eca" x="297.744258" y="132.446339" style="fill: #aec7e8; stroke: #aec7e8"/>
     <use xlink:href="#md595142eca" x="314.556317" y="132.15972" style="fill: #aec7e8; stroke: #aec7e8"/>
     <use xlink:href="#md595142eca" x="331.368377" y="131.459094" style="fill: #aec7e8; stroke: #aec7e8"/>
     <use xlink:href="#md595142eca" x="348.180436" y="131.8731" style="fill: #aec7e8; stroke: #aec7e8"/>
     <use xlink:href="#md595142eca" x="364.992495" y="132.637419" style="fill: #aec7e8; stroke: #aec7e8"/>
     <use xlink:href="#md595142eca" x="381.804555" y="132.032333" style="fill: #aec7e8; stroke: #aec7e8"/>
     <use xlink:href="#md595142eca" x="398.616614" y="130.981395" style="fill: #aec7e8; stroke: #aec7e8"/>
     <use xlink:href="#md595142eca" x="415.428673" y="131.936793" style="fill: #aec7e8; stroke: #aec7e8"/>
     <use xlink:href="#md595142eca" x="432.240733" y="131.841254" style="fill: #aec7e8; stroke: #aec7e8"/>
     <use xlink:href="#md595142eca" x="449.052792" y="130.822162" style="fill: #aec7e8; stroke: #aec7e8"/>
     <use xlink:href="#md595142eca" x="465.864852" y="131.68202" style="fill: #aec7e8; stroke: #aec7e8"/>
     <use xlink:href="#md595142eca" x="482.676911" y="131.713867" style="fill: #aec7e8; stroke: #aec7e8"/>
     <use xlink:href="#md595142eca" x="499.48897" y="131.713867" style="fill: #aec7e8; stroke: #aec7e8"/>
     <use xlink:href="#md595142eca" x="516.30103" y="131.841254" style="fill: #aec7e8; stroke: #aec7e8"/>
     <use xlink:href="#md595142eca" x="533.113089" y="131.77756" style="fill: #aec7e8; stroke: #aec7e8"/>
     <use xlink:href="#md595142eca" x="549.925148" y="131.013241" style="fill: #aec7e8; stroke: #aec7e8"/>
     <use xlink:href="#md595142eca" x="566.737208" y="131.140628" style="fill: #aec7e8; stroke: #aec7e8"/>
     <use xlink:href="#md595142eca" x="583.549267" y="131.140628" style="fill: #aec7e8; stroke: #aec7e8"/>
     <use xlink:href="#md595142eca" x="600.361327" y="131.618327" style="fill: #aec7e8; stroke: #aec7e8"/>
     <use xlink:href="#md595142eca" x="617.173386" y="131.013241" style="fill: #aec7e8; stroke: #aec7e8"/>
     <use xlink:href="#md595142eca" x="633.985445" y="131.68202" style="fill: #aec7e8; stroke: #aec7e8"/>
     <use xlink:href="#md595142eca" x="650.797505" y="132.25526" style="fill: #aec7e8; stroke: #aec7e8"/>
     <use xlink:href="#md595142eca" x="667.609564" y="131.045088" style="fill: #aec7e8; stroke: #aec7e8"/>
     <use xlink:href="#md595142eca" x="684.421623" y="130.535542" style="fill: #aec7e8; stroke: #aec7e8"/>
     <use xlink:href="#md595142eca" x="701.233683" y="131.490941" style="fill: #aec7e8; stroke: #aec7e8"/>
     <use xlink:href="#md595142eca" x="718.045742" y="130.981395" style="fill: #aec7e8; stroke: #aec7e8"/>
     <use xlink:href="#md595142eca" x="734.857801" y="131.618327" style="fill: #aec7e8; stroke: #aec7e8"/>
     <use xlink:href="#md595142eca" x="751.669861" y="131.363554" style="fill: #aec7e8; stroke: #aec7e8"/>
     <use xlink:href="#md595142eca" x="768.48192" y="130.694775" style="fill: #aec7e8; stroke: #aec7e8"/>
     <use xlink:href="#md595142eca" x="785.29398" y="131.045088" style="fill: #aec7e8; stroke: #aec7e8"/>
     <use xlink:href="#md595142eca" x="802.106039" y="131.268014" style="fill: #aec7e8; stroke: #aec7e8"/>
     <use xlink:href="#md595142eca" x="818.918098" y="131.013241" style="fill: #aec7e8; stroke: #aec7e8"/>
     <use xlink:href="#md595142eca" x="835.730158" y="131.236168" style="fill: #aec7e8; stroke: #aec7e8"/>
     <use xlink:href="#md595142eca" x="852.542217" y="130.599235" style="fill: #aec7e8; stroke: #aec7e8"/>
     <use xlink:href="#md595142eca" x="869.354276" y="131.108781" style="fill: #aec7e8; stroke: #aec7e8"/>
     <use xlink:href="#md595142eca" x="886.166336" y="130.758468" style="fill: #aec7e8; stroke: #aec7e8"/>
     <use xlink:href="#md595142eca" x="902.978395" y="131.076935" style="fill: #aec7e8; stroke: #aec7e8"/>
     <use xlink:href="#md595142eca" x="919.790455" y="131.268014" style="fill: #aec7e8; stroke: #aec7e8"/>
    </g>
   </g>
   <g id="patch_3">
    <path d="M 54.81 526.5 
L 54.81 30.58125 
" style="fill: none; stroke: #cccccc; stroke-width: 1.25; stroke-linejoin: miter; stroke-linecap: square"/>
   </g>
   <g id="patch_4">
    <path d="M 960.98 526.5 
L 960.98 30.58125 
" style="fill: none; stroke: #cccccc; stroke-width: 1.25; stroke-linejoin: miter; stroke-linecap: square"/>
   </g>
   <g id="patch_5">
    <path d="M 54.81 526.5 
L 960.98 526.5 
" style="fill: none; stroke: #cccccc; stroke-width: 1.25; stroke-linejoin: miter; stroke-linecap: square"/>
   </g>
   <g id="patch_6">
    <path d="M 54.81 30.58125 
L 960.98 30.58125 
" style="fill: none; stroke: #cccccc; stroke-width: 1.25; stroke-linejoin: miter; stroke-linecap: square"/>
   </g>
   <g id="text_17">
    <!-- img-classification - mnist (Accuracy) -->
    <g style="fill: #262626" transform="translate(368.31125 24.58125) scale(0.16 -0.16)">
     <defs>
      <path id="Arial-BoldMT-69" d="M 459 3769 
L 459 4581 
L 1338 4581 
L 1338 3769 
L 459 3769 
z
M 459 0 
L 459 3319 
L 1338 3319 
L 1338 0 
L 459 0 
z
" transform="scale(0.015625)"/>
      <path id="Arial-BoldMT-6d" d="M 394 3319 
L 1203 3319 
L 1203 2866 
Q 1638 3394 2238 3394 
Q 2556 3394 2790 3262 
Q 3025 3131 3175 2866 
Q 3394 3131 3647 3262 
Q 3900 3394 4188 3394 
Q 4553 3394 4806 3245 
Q 5059 3097 5184 2809 
Q 5275 2597 5275 2122 
L 5275 0 
L 4397 0 
L 4397 1897 
Q 4397 2391 4306 2534 
Q 4184 2722 3931 2722 
Q 3747 2722 3584 2609 
Q 3422 2497 3350 2280 
Q 3278 2063 3278 1594 
L 3278 0 
L 2400 0 
L 2400 1819 
Q 2400 2303 2353 2443 
Q 2306 2584 2207 2653 
Q 2109 2722 1941 2722 
Q 1738 2722 1575 2612 
Q 1413 2503 1342 2297 
Q 1272 2091 1272 1613 
L 1272 0 
L 394 0 
L 394 3319 
z
" transform="scale(0.015625)"/>
      <path id="Arial-BoldMT-67" d="M 378 -219 
L 1381 -341 
Q 1406 -516 1497 -581 
Q 1622 -675 1891 -675 
Q 2234 -675 2406 -572 
Q 2522 -503 2581 -350 
Q 2622 -241 2622 53 
L 2622 538 
Q 2228 0 1628 0 
Q 959 0 569 566 
Q 263 1013 263 1678 
Q 263 2513 664 2953 
Q 1066 3394 1663 3394 
Q 2278 3394 2678 2853 
L 2678 3319 
L 3500 3319 
L 3500 341 
Q 3500 -247 3403 -537 
Q 3306 -828 3131 -993 
Q 2956 -1159 2664 -1253 
Q 2372 -1347 1925 -1347 
Q 1081 -1347 728 -1058 
Q 375 -769 375 -325 
Q 375 -281 378 -219 
z
M 1163 1728 
Q 1163 1200 1367 954 
Q 1572 709 1872 709 
Q 2194 709 2416 961 
Q 2638 1213 2638 1706 
Q 2638 2222 2425 2472 
Q 2213 2722 1888 2722 
Q 1572 2722 1367 2476 
Q 1163 2231 1163 1728 
z
" transform="scale(0.015625)"/>
      <path id="Arial-BoldMT-2d" d="M 359 1222 
L 359 2100 
L 2084 2100 
L 2084 1222 
L 359 1222 
z
" transform="scale(0.015625)"/>
      <path id="Arial-BoldMT-63" d="M 3353 2338 
L 2488 2181 
Q 2444 2441 2289 2572 
Q 2134 2703 1888 2703 
Q 1559 2703 1364 2476 
Q 1169 2250 1169 1719 
Q 1169 1128 1367 884 
Q 1566 641 1900 641 
Q 2150 641 2309 783 
Q 2469 925 2534 1272 
L 3397 1125 
Q 3263 531 2881 228 
Q 2500 -75 1859 -75 
Q 1131 -75 698 384 
Q 266 844 266 1656 
Q 266 2478 700 2936 
Q 1134 3394 1875 3394 
Q 2481 3394 2839 3133 
Q 3197 2872 3353 2338 
z
" transform="scale(0.015625)"/>
      <path id="Arial-BoldMT-6c" d="M 459 0 
L 459 4581 
L 1338 4581 
L 1338 0 
L 459 0 
z
" transform="scale(0.015625)"/>
      <path id="Arial-BoldMT-61" d="M 1116 2306 
L 319 2450 
Q 453 2931 781 3162 
Q 1109 3394 1756 3394 
Q 2344 3394 2631 3255 
Q 2919 3116 3036 2902 
Q 3153 2688 3153 2116 
L 3144 1091 
Q 3144 653 3186 445 
Q 3228 238 3344 0 
L 2475 0 
Q 2441 88 2391 259 
Q 2369 338 2359 363 
Q 2134 144 1878 34 
Q 1622 -75 1331 -75 
Q 819 -75 523 203 
Q 228 481 228 906 
Q 228 1188 362 1408 
Q 497 1628 739 1745 
Q 981 1863 1438 1950 
Q 2053 2066 2291 2166 
L 2291 2253 
Q 2291 2506 2166 2614 
Q 2041 2722 1694 2722 
Q 1459 2722 1328 2630 
Q 1197 2538 1116 2306 
z
M 2291 1594 
Q 2122 1538 1756 1459 
Q 1391 1381 1278 1306 
Q 1106 1184 1106 997 
Q 1106 813 1243 678 
Q 1381 544 1594 544 
Q 1831 544 2047 700 
Q 2206 819 2256 991 
Q 2291 1103 2291 1419 
L 2291 1594 
z
" transform="scale(0.015625)"/>
      <path id="Arial-BoldMT-73" d="M 150 947 
L 1031 1081 
Q 1088 825 1259 692 
Q 1431 559 1741 559 
Q 2081 559 2253 684 
Q 2369 772 2369 919 
Q 2369 1019 2306 1084 
Q 2241 1147 2013 1200 
Q 950 1434 666 1628 
Q 272 1897 272 2375 
Q 272 2806 612 3100 
Q 953 3394 1669 3394 
Q 2350 3394 2681 3172 
Q 3013 2950 3138 2516 
L 2309 2363 
Q 2256 2556 2107 2659 
Q 1959 2763 1684 2763 
Q 1338 2763 1188 2666 
Q 1088 2597 1088 2488 
Q 1088 2394 1175 2328 
Q 1294 2241 1995 2081 
Q 2697 1922 2975 1691 
Q 3250 1456 3250 1038 
Q 3250 581 2869 253 
Q 2488 -75 1741 -75 
Q 1063 -75 667 200 
Q 272 475 150 947 
z
" transform="scale(0.015625)"/>
      <path id="Arial-BoldMT-66" d="M 75 3319 
L 563 3319 
L 563 3569 
Q 563 3988 652 4194 
Q 741 4400 980 4529 
Q 1219 4659 1584 4659 
Q 1959 4659 2319 4547 
L 2200 3934 
Q 1991 3984 1797 3984 
Q 1606 3984 1523 3895 
Q 1441 3806 1441 3553 
L 1441 3319 
L 2097 3319 
L 2097 2628 
L 1441 2628 
L 1441 0 
L 563 0 
L 563 2628 
L 75 2628 
L 75 3319 
z
" transform="scale(0.015625)"/>
      <path id="Arial-BoldMT-74" d="M 1981 3319 
L 1981 2619 
L 1381 2619 
L 1381 1281 
Q 1381 875 1398 808 
Q 1416 741 1477 697 
Q 1538 653 1625 653 
Q 1747 653 1978 738 
L 2053 56 
Q 1747 -75 1359 -75 
Q 1122 -75 931 4 
Q 741 84 652 211 
Q 563 338 528 553 
Q 500 706 500 1172 
L 500 2619 
L 97 2619 
L 97 3319 
L 500 3319 
L 500 3978 
L 1381 4491 
L 1381 3319 
L 1981 3319 
z
" transform="scale(0.015625)"/>
      <path id="Arial-BoldMT-6f" d="M 256 1706 
Q 256 2144 472 2553 
Q 688 2963 1083 3178 
Q 1478 3394 1966 3394 
Q 2719 3394 3200 2905 
Q 3681 2416 3681 1669 
Q 3681 916 3195 420 
Q 2709 -75 1972 -75 
Q 1516 -75 1102 131 
Q 688 338 472 736 
Q 256 1134 256 1706 
z
M 1156 1659 
Q 1156 1166 1390 903 
Q 1625 641 1969 641 
Q 2313 641 2545 903 
Q 2778 1166 2778 1666 
Q 2778 2153 2545 2415 
Q 2313 2678 1969 2678 
Q 1625 2678 1390 2415 
Q 1156 2153 1156 1659 
z
" transform="scale(0.015625)"/>
      <path id="Arial-BoldMT-6e" d="M 3478 0 
L 2600 0 
L 2600 1694 
Q 2600 2231 2544 2389 
Q 2488 2547 2361 2634 
Q 2234 2722 2056 2722 
Q 1828 2722 1647 2597 
Q 1466 2472 1398 2265 
Q 1331 2059 1331 1503 
L 1331 0 
L 453 0 
L 453 3319 
L 1269 3319 
L 1269 2831 
Q 1703 3394 2363 3394 
Q 2653 3394 2893 3289 
Q 3134 3184 3257 3021 
Q 3381 2859 3429 2653 
Q 3478 2447 3478 2063 
L 3478 0 
z
" transform="scale(0.015625)"/>
      <path id="Arial-BoldMT-20" transform="scale(0.015625)"/>
      <path id="Arial-BoldMT-28" d="M 1916 -1347 
L 1313 -1347 
Q 834 -625 584 153 
Q 334 931 334 1659 
Q 334 2563 644 3369 
Q 913 4069 1325 4659 
L 1925 4659 
Q 1497 3713 1336 3048 
Q 1175 2384 1175 1641 
Q 1175 1128 1270 590 
Q 1366 53 1531 -431 
Q 1641 -750 1916 -1347 
z
" transform="scale(0.015625)"/>
      <path id="Arial-BoldMT-41" d="M 4597 0 
L 3591 0 
L 3191 1041 
L 1359 1041 
L 981 0 
L 0 0 
L 1784 4581 
L 2763 4581 
L 4597 0 
z
M 2894 1813 
L 2263 3513 
L 1644 1813 
L 2894 1813 
z
" transform="scale(0.015625)"/>
      <path id="Arial-BoldMT-75" d="M 2644 0 
L 2644 497 
Q 2463 231 2167 78 
Q 1872 -75 1544 -75 
Q 1209 -75 943 72 
Q 678 219 559 484 
Q 441 750 441 1219 
L 441 3319 
L 1319 3319 
L 1319 1794 
Q 1319 1094 1367 936 
Q 1416 778 1544 686 
Q 1672 594 1869 594 
Q 2094 594 2272 717 
Q 2450 841 2515 1023 
Q 2581 1206 2581 1919 
L 2581 3319 
L 3459 3319 
L 3459 0 
L 2644 0 
z
" transform="scale(0.015625)"/>
      <path id="Arial-BoldMT-72" d="M 1300 0 
L 422 0 
L 422 3319 
L 1238 3319 
L 1238 2847 
Q 1447 3181 1614 3287 
Q 1781 3394 1994 3394 
Q 2294 3394 2572 3228 
L 2300 2463 
Q 2078 2606 1888 2606 
Q 1703 2606 1575 2504 
Q 1447 2403 1373 2137 
Q 1300 1872 1300 1025 
L 1300 0 
z
" transform="scale(0.015625)"/>
      <path id="Arial-BoldMT-79" d="M 44 3319 
L 978 3319 
L 1772 963 
L 2547 3319 
L 3456 3319 
L 2284 125 
L 2075 -453 
Q 1959 -744 1854 -897 
Q 1750 -1050 1614 -1145 
Q 1478 -1241 1279 -1294 
Q 1081 -1347 831 -1347 
Q 578 -1347 334 -1294 
L 256 -606 
Q 463 -647 628 -647 
Q 934 -647 1081 -467 
Q 1228 -288 1306 -9 
L 44 3319 
z
" transform="scale(0.015625)"/>
      <path id="Arial-BoldMT-29" d="M 216 -1347 
Q 475 -791 581 -494 
Q 688 -197 778 190 
Q 869 578 912 926 
Q 956 1275 956 1641 
Q 956 2384 797 3048 
Q 638 3713 209 4659 
L 806 4659 
Q 1278 3988 1539 3234 
Q 1800 2481 1800 1706 
Q 1800 1053 1594 306 
Q 1359 -531 822 -1347 
L 216 -1347 
z
" transform="scale(0.015625)"/>
     </defs>
     <use xlink:href="#Arial-BoldMT-69"/>
     <use xlink:href="#Arial-BoldMT-6d" transform="translate(27.783203 0)"/>
     <use xlink:href="#Arial-BoldMT-67" transform="translate(116.699219 0)"/>
     <use xlink:href="#Arial-BoldMT-2d" transform="translate(177.783203 0)"/>
     <use xlink:href="#Arial-BoldMT-63" transform="translate(211.083984 0)"/>
     <use xlink:href="#Arial-BoldMT-6c" transform="translate(266.699219 0)"/>
     <use xlink:href="#Arial-BoldMT-61" transform="translate(294.482422 0)"/>
     <use xlink:href="#Arial-BoldMT-73" transform="translate(350.097656 0)"/>
     <use xlink:href="#Arial-BoldMT-73" transform="translate(405.712891 0)"/>
     <use xlink:href="#Arial-BoldMT-69" transform="translate(461.328125 0)"/>
     <use xlink:href="#Arial-BoldMT-66" transform="translate(489.111328 0)"/>
     <use xlink:href="#Arial-BoldMT-69" transform="translate(522.412109 0)"/>
     <use xlink:href="#Arial-BoldMT-63" transform="translate(550.195312 0)"/>
     <use xlink:href="#Arial-BoldMT-61" transform="translate(605.810547 0)"/>
     <use xlink:href="#Arial-BoldMT-74" transform="translate(661.425781 0)"/>
     <use xlink:href="#Arial-BoldMT-69" transform="translate(694.726562 0)"/>
     <use xlink:href="#Arial-BoldMT-6f" transform="translate(722.509766 0)"/>
     <use xlink:href="#Arial-BoldMT-6e" transform="translate(783.59375 0)"/>
     <use xlink:href="#Arial-BoldMT-20" transform="translate(844.677734 0)"/>
     <use xlink:href="#Arial-BoldMT-2d" transform="translate(872.460938 0)"/>
     <use xlink:href="#Arial-BoldMT-20" transform="translate(905.761719 0)"/>
     <use xlink:href="#Arial-BoldMT-6d" transform="translate(933.544922 0)"/>
     <use xlink:href="#Arial-BoldMT-6e" transform="translate(1022.460938 0)"/>
     <use xlink:href="#Arial-BoldMT-69" transform="translate(1083.544922 0)"/>
     <use xlink:href="#Arial-BoldMT-73" transform="translate(1111.328125 0)"/>
     <use xlink:href="#Arial-BoldMT-74" transform="translate(1166.943359 0)"/>
     <use xlink:href="#Arial-BoldMT-20" transform="translate(1200.244141 0)"/>
     <use xlink:href="#Arial-BoldMT-28" transform="translate(1228.027344 0)"/>
     <use xlink:href="#Arial-BoldMT-41" transform="translate(1261.328125 0)"/>
     <use xlink:href="#Arial-BoldMT-63" transform="translate(1333.544922 0)"/>
     <use xlink:href="#Arial-BoldMT-63" transform="translate(1389.160156 0)"/>
     <use xlink:href="#Arial-BoldMT-75" transform="translate(1444.775391 0)"/>
     <use xlink:href="#Arial-BoldMT-72" transform="translate(1505.859375 0)"/>
     <use xlink:href="#Arial-BoldMT-61" transform="translate(1544.775391 0)"/>
     <use xlink:href="#Arial-BoldMT-63" transform="translate(1600.390625 0)"/>
     <use xlink:href="#Arial-BoldMT-79" transform="translate(1656.005859 0)"/>
     <use xlink:href="#Arial-BoldMT-29" transform="translate(1711.621094 0)"/>
    </g>
   </g>
   <g id="legend_1">
    <g id="patch_7">
     <path d="M 898.376 66.871875 
L 999.2885 66.871875 
Q 1001.2885 66.871875 1001.2885 64.871875 
L 1001.2885 37.58125 
Q 1001.2885 35.58125 999.2885 35.58125 
L 898.376 35.58125 
Q 896.376 35.58125 896.376 37.58125 
L 896.376 64.871875 
Q 896.376 66.871875 898.376 66.871875 
z
" style="fill: #ffffff; opacity: 0.8; stroke: #cccccc; stroke-linejoin: miter"/>
    </g>
    <g id="line2d_17">
     <path d="M 900.376 43.239062 
L 910.376 43.239062 
L 920.376 43.239062 
" style="fill: none; stroke: #1f77b4; stroke-width: 2; stroke-linecap: round"/>
     <g>
      <use xlink:href="#me55200b506" x="910.376" y="43.239062" style="fill: #1f77b4; stroke: #1f77b4"/>
     </g>
    </g>
    <g id="text_18">
     <!-- AirNet - Mean -->
     <g style="fill: #262626" transform="translate(928.376 46.739062) scale(0.1 -0.1)">
      <defs>
       <path id="ArialMT-69" d="M 425 3934 
L 425 4581 
L 988 4581 
L 988 3934 
L 425 3934 
z
M 425 0 
L 425 3319 
L 988 3319 
L 988 0 
L 425 0 
z
" transform="scale(0.015625)"/>
       <path id="ArialMT-4e" d="M 488 0 
L 488 4581 
L 1109 4581 
L 3516 984 
L 3516 4581 
L 4097 4581 
L 4097 0 
L 3475 0 
L 1069 3600 
L 1069 0 
L 488 0 
z
" transform="scale(0.015625)"/>
       <path id="ArialMT-65" d="M 2694 1069 
L 3275 997 
Q 3138 488 2766 206 
Q 2394 -75 1816 -75 
Q 1088 -75 661 373 
Q 234 822 234 1631 
Q 234 2469 665 2931 
Q 1097 3394 1784 3394 
Q 2450 3394 2872 2941 
Q 3294 2488 3294 1666 
Q 3294 1616 3291 1516 
L 816 1516 
Q 847 969 1125 678 
Q 1403 388 1819 388 
Q 2128 388 2347 550 
Q 2566 713 2694 1069 
z
M 847 1978 
L 2700 1978 
Q 2663 2397 2488 2606 
Q 2219 2931 1791 2931 
Q 1403 2931 1139 2672 
Q 875 2413 847 1978 
z
" transform="scale(0.015625)"/>
       <path id="ArialMT-74" d="M 1650 503 
L 1731 6 
Q 1494 -44 1306 -44 
Q 1000 -44 831 53 
Q 663 150 594 308 
Q 525 466 525 972 
L 525 2881 
L 113 2881 
L 113 3319 
L 525 3319 
L 525 4141 
L 1084 4478 
L 1084 3319 
L 1650 3319 
L 1650 2881 
L 1084 2881 
L 1084 941 
Q 1084 700 1114 631 
Q 1144 563 1211 522 
Q 1278 481 1403 481 
Q 1497 481 1650 503 
z
" transform="scale(0.015625)"/>
       <path id="ArialMT-20" transform="scale(0.015625)"/>
       <path id="ArialMT-2d" d="M 203 1375 
L 203 1941 
L 1931 1941 
L 1931 1375 
L 203 1375 
z
" transform="scale(0.015625)"/>
       <path id="ArialMT-4d" d="M 475 0 
L 475 4581 
L 1388 4581 
L 2472 1338 
Q 2622 884 2691 659 
Q 2769 909 2934 1394 
L 4031 4581 
L 4847 4581 
L 4847 0 
L 4263 0 
L 4263 3834 
L 2931 0 
L 2384 0 
L 1059 3900 
L 1059 0 
L 475 0 
z
" transform="scale(0.015625)"/>
       <path id="ArialMT-6e" d="M 422 0 
L 422 3319 
L 928 3319 
L 928 2847 
Q 1294 3394 1984 3394 
Q 2284 3394 2536 3286 
Q 2788 3178 2913 3003 
Q 3038 2828 3088 2588 
Q 3119 2431 3119 2041 
L 3119 0 
L 2556 0 
L 2556 2019 
Q 2556 2363 2490 2533 
Q 2425 2703 2258 2804 
Q 2091 2906 1866 2906 
Q 1506 2906 1245 2678 
Q 984 2450 984 1813 
L 984 0 
L 422 0 
z
" transform="scale(0.015625)"/>
      </defs>
      <use xlink:href="#ArialMT-41"/>
      <use xlink:href="#ArialMT-69" transform="translate(66.699219 0)"/>
      <use xlink:href="#ArialMT-72" transform="translate(88.916016 0)"/>
      <use xlink:href="#ArialMT-4e" transform="translate(122.216797 0)"/>
      <use xlink:href="#ArialMT-65" transform="translate(194.433594 0)"/>
      <use xlink:href="#ArialMT-74" transform="translate(250.048828 0)"/>
      <use xlink:href="#ArialMT-20" transform="translate(277.832031 0)"/>
      <use xlink:href="#ArialMT-2d" transform="translate(305.615234 0)"/>
      <use xlink:href="#ArialMT-20" transform="translate(338.916016 0)"/>
      <use xlink:href="#ArialMT-4d" transform="translate(366.699219 0)"/>
      <use xlink:href="#ArialMT-65" transform="translate(450 0)"/>
      <use xlink:href="#ArialMT-61" transform="translate(505.615234 0)"/>
      <use xlink:href="#ArialMT-6e" transform="translate(561.230469 0)"/>
     </g>
    </g>
    <g id="line2d_18">
     <path d="M 900.376 57.384375 
L 910.376 57.384375 
L 920.376 57.384375 
" style="fill: none; stroke: #aec7e8; stroke-width: 2; stroke-linecap: round"/>
     <g>
      <use xlink:href="#md595142eca" x="910.376" y="57.384375" style="fill: #aec7e8; stroke: #aec7e8"/>
     </g>
    </g>
    <g id="text_19">
     <!-- AlexNet - Mean -->
     <g style="fill: #262626" transform="translate(928.376 60.884375) scale(0.1 -0.1)">
      <defs>
       <path id="ArialMT-6c" d="M 409 0 
L 409 4581 
L 972 4581 
L 972 0 
L 409 0 
z
" transform="scale(0.015625)"/>
       <path id="ArialMT-78" d="M 47 0 
L 1259 1725 
L 138 3319 
L 841 3319 
L 1350 2541 
Q 1494 2319 1581 2169 
Q 1719 2375 1834 2534 
L 2394 3319 
L 3066 3319 
L 1919 1756 
L 3153 0 
L 2463 0 
L 1781 1031 
L 1600 1309 
L 728 0 
L 47 0 
z
" transform="scale(0.015625)"/>
      </defs>
      <use xlink:href="#ArialMT-41"/>
      <use xlink:href="#ArialMT-6c" transform="translate(66.699219 0)"/>
      <use xlink:href="#ArialMT-65" transform="translate(88.916016 0)"/>
      <use xlink:href="#ArialMT-78" transform="translate(144.53125 0)"/>
      <use xlink:href="#ArialMT-4e" transform="translate(194.53125 0)"/>
      <use xlink:href="#ArialMT-65" transform="translate(266.748047 0)"/>
      <use xlink:href="#ArialMT-74" transform="translate(322.363281 0)"/>
      <use xlink:href="#ArialMT-20" transform="translate(350.146484 0)"/>
      <use xlink:href="#ArialMT-2d" transform="translate(377.929688 0)"/>
      <use xlink:href="#ArialMT-20" transform="translate(411.230469 0)"/>
      <use xlink:href="#ArialMT-4d" transform="translate(439.013672 0)"/>
      <use xlink:href="#ArialMT-65" transform="translate(522.314453 0)"/>
      <use xlink:href="#ArialMT-61" transform="translate(577.929688 0)"/>
      <use xlink:href="#ArialMT-6e" transform="translate(633.544922 0)"/>
     </g>
    </g>
   </g>
  </g>
 </g>
 <defs>
  <clipPath id="pbba5c10c22">
   <rect x="54.81" y="30.58125" width="906.17" height="495.91875"/>
  </clipPath>
 </defs>
</svg>
