<?xml version="1.0" encoding="utf-8" standalone="no"?>
<!DOCTYPE svg PUBLIC "-//W3C//DTD SVG 1.1//EN"
  "http://www.w3.org/Graphics/SVG/1.1/DTD/svg11.dtd">
<svg xmlns:xlink="http://www.w3.org/1999/xlink" width="1008pt" height="576pt" viewBox="0 0 1008 576" xmlns="http://www.w3.org/2000/svg" version="1.1">
 <metadata>
  <rdf:RDF xmlns:dc="http://purl.org/dc/elements/1.1/" xmlns:cc="http://creativecommons.org/ns#" xmlns:rdf="http://www.w3.org/1999/02/22-rdf-syntax-ns#">
   <cc:Work>
    <dc:type rdf:resource="http://purl.org/dc/dcmitype/StillImage"/>
    <dc:date>2025-01-26T23:30:47.112405</dc:date>
    <dc:format>image/svg+xml</dc:format>
    <dc:creator>
     <cc:Agent>
      <dc:title>Matplotlib v3.10.0, https://matplotlib.org/</dc:title>
     </cc:Agent>
    </dc:creator>
   </cc:Work>
  </rdf:RDF>
 </metadata>
 <defs>
  <style type="text/css">*{stroke-linejoin: round; stroke-linecap: butt}</style>
 </defs>
 <g id="figure_1">
  <g id="patch_1">
   <path d="M 0 576 
L 1008 576 
L 1008 0 
L 0 0 
z
" style="fill: #ffffff"/>
  </g>
  <g id="axes_1">
   <g id="patch_2">
    <path d="M 54.81 526.5 
L 845.95 526.5 
L 845.95 30.58125 
L 54.81 30.58125 
z
" style="fill: #ffffff"/>
   </g>
   <g id="matplotlib.axis_1">
    <g id="xtick_1">
     <g id="line2d_1">
      <path d="M 76.092987 526.5 
L 76.092987 30.58125 
" clip-path="url(#pd4efac0f93)" style="fill: none; stroke-dasharray: 3.7,1.6; stroke-dashoffset: 0; stroke: #cccccc; stroke-opacity: 0.5"/>
     </g>
     <g id="text_1">
      <!-- 0 -->
      <g style="fill: #262626" transform="translate(73.034471 543.873594) scale(0.11 -0.11)">
       <defs>
        <path id="ArialMT-30" d="M 266 2259 
Q 266 3072 433 3567 
Q 600 4063 929 4331 
Q 1259 4600 1759 4600 
Q 2128 4600 2406 4451 
Q 2684 4303 2865 4023 
Q 3047 3744 3150 3342 
Q 3253 2941 3253 2259 
Q 3253 1453 3087 958 
Q 2922 463 2592 192 
Q 2263 -78 1759 -78 
Q 1097 -78 719 397 
Q 266 969 266 2259 
z
M 844 2259 
Q 844 1131 1108 757 
Q 1372 384 1759 384 
Q 2147 384 2411 759 
Q 2675 1134 2675 2259 
Q 2675 3391 2411 3762 
Q 2147 4134 1753 4134 
Q 1366 4134 1134 3806 
Q 844 3388 844 2259 
z
" transform="scale(0.015625)"/>
       </defs>
       <use xlink:href="#ArialMT-30"/>
      </g>
     </g>
    </g>
    <g id="xtick_2">
     <g id="line2d_2">
      <path d="M 222.872208 526.5 
L 222.872208 30.58125 
" clip-path="url(#pd4efac0f93)" style="fill: none; stroke-dasharray: 3.7,1.6; stroke-dashoffset: 0; stroke: #cccccc; stroke-opacity: 0.5"/>
     </g>
     <g id="text_2">
      <!-- 10 -->
      <g style="fill: #262626" transform="translate(216.755177 543.873594) scale(0.11 -0.11)">
       <defs>
        <path id="ArialMT-31" d="M 2384 0 
L 1822 0 
L 1822 3584 
Q 1619 3391 1289 3197 
Q 959 3003 697 2906 
L 697 3450 
Q 1169 3672 1522 3987 
Q 1875 4303 2022 4600 
L 2384 4600 
L 2384 0 
z
" transform="scale(0.015625)"/>
       </defs>
       <use xlink:href="#ArialMT-31"/>
       <use xlink:href="#ArialMT-30" transform="translate(55.615234 0)"/>
      </g>
     </g>
    </g>
    <g id="xtick_3">
     <g id="line2d_3">
      <path d="M 369.651429 526.5 
L 369.651429 30.58125 
" clip-path="url(#pd4efac0f93)" style="fill: none; stroke-dasharray: 3.7,1.6; stroke-dashoffset: 0; stroke: #cccccc; stroke-opacity: 0.5"/>
     </g>
     <g id="text_3">
      <!-- 20 -->
      <g style="fill: #262626" transform="translate(363.534397 543.873594) scale(0.11 -0.11)">
       <defs>
        <path id="ArialMT-32" d="M 3222 541 
L 3222 0 
L 194 0 
Q 188 203 259 391 
Q 375 700 629 1000 
Q 884 1300 1366 1694 
Q 2113 2306 2375 2664 
Q 2638 3022 2638 3341 
Q 2638 3675 2398 3904 
Q 2159 4134 1775 4134 
Q 1369 4134 1125 3890 
Q 881 3647 878 3216 
L 300 3275 
Q 359 3922 746 4261 
Q 1134 4600 1788 4600 
Q 2447 4600 2831 4234 
Q 3216 3869 3216 3328 
Q 3216 3053 3103 2787 
Q 2991 2522 2730 2228 
Q 2469 1934 1863 1422 
Q 1356 997 1212 845 
Q 1069 694 975 541 
L 3222 541 
z
" transform="scale(0.015625)"/>
       </defs>
       <use xlink:href="#ArialMT-32"/>
       <use xlink:href="#ArialMT-30" transform="translate(55.615234 0)"/>
      </g>
     </g>
    </g>
    <g id="xtick_4">
     <g id="line2d_4">
      <path d="M 516.430649 526.5 
L 516.430649 30.58125 
" clip-path="url(#pd4efac0f93)" style="fill: none; stroke-dasharray: 3.7,1.6; stroke-dashoffset: 0; stroke: #cccccc; stroke-opacity: 0.5"/>
     </g>
     <g id="text_4">
      <!-- 30 -->
      <g style="fill: #262626" transform="translate(510.313618 543.873594) scale(0.11 -0.11)">
       <defs>
        <path id="ArialMT-33" d="M 269 1209 
L 831 1284 
Q 928 806 1161 595 
Q 1394 384 1728 384 
Q 2125 384 2398 659 
Q 2672 934 2672 1341 
Q 2672 1728 2419 1979 
Q 2166 2231 1775 2231 
Q 1616 2231 1378 2169 
L 1441 2663 
Q 1497 2656 1531 2656 
Q 1891 2656 2178 2843 
Q 2466 3031 2466 3422 
Q 2466 3731 2256 3934 
Q 2047 4138 1716 4138 
Q 1388 4138 1169 3931 
Q 950 3725 888 3313 
L 325 3413 
Q 428 3978 793 4289 
Q 1159 4600 1703 4600 
Q 2078 4600 2393 4439 
Q 2709 4278 2876 4000 
Q 3044 3722 3044 3409 
Q 3044 3113 2884 2869 
Q 2725 2625 2413 2481 
Q 2819 2388 3044 2092 
Q 3269 1797 3269 1353 
Q 3269 753 2831 336 
Q 2394 -81 1725 -81 
Q 1122 -81 723 278 
Q 325 638 269 1209 
z
" transform="scale(0.015625)"/>
       </defs>
       <use xlink:href="#ArialMT-33"/>
       <use xlink:href="#ArialMT-30" transform="translate(55.615234 0)"/>
      </g>
     </g>
    </g>
    <g id="xtick_5">
     <g id="line2d_5">
      <path d="M 663.20987 526.5 
L 663.20987 30.58125 
" clip-path="url(#pd4efac0f93)" style="fill: none; stroke-dasharray: 3.7,1.6; stroke-dashoffset: 0; stroke: #cccccc; stroke-opacity: 0.5"/>
     </g>
     <g id="text_5">
      <!-- 40 -->
      <g style="fill: #262626" transform="translate(657.092839 543.873594) scale(0.11 -0.11)">
       <defs>
        <path id="ArialMT-34" d="M 2069 0 
L 2069 1097 
L 81 1097 
L 81 1613 
L 2172 4581 
L 2631 4581 
L 2631 1613 
L 3250 1613 
L 3250 1097 
L 2631 1097 
L 2631 0 
L 2069 0 
z
M 2069 1613 
L 2069 3678 
L 634 1613 
L 2069 1613 
z
" transform="scale(0.015625)"/>
       </defs>
       <use xlink:href="#ArialMT-34"/>
       <use xlink:href="#ArialMT-30" transform="translate(55.615234 0)"/>
      </g>
     </g>
    </g>
    <g id="xtick_6">
     <g id="line2d_6">
      <path d="M 809.989091 526.5 
L 809.989091 30.58125 
" clip-path="url(#pd4efac0f93)" style="fill: none; stroke-dasharray: 3.7,1.6; stroke-dashoffset: 0; stroke: #cccccc; stroke-opacity: 0.5"/>
     </g>
     <g id="text_6">
      <!-- 50 -->
      <g style="fill: #262626" transform="translate(803.87206 543.873594) scale(0.11 -0.11)">
       <defs>
        <path id="ArialMT-35" d="M 266 1200 
L 856 1250 
Q 922 819 1161 601 
Q 1400 384 1738 384 
Q 2144 384 2425 690 
Q 2706 997 2706 1503 
Q 2706 1984 2436 2262 
Q 2166 2541 1728 2541 
Q 1456 2541 1237 2417 
Q 1019 2294 894 2097 
L 366 2166 
L 809 4519 
L 3088 4519 
L 3088 3981 
L 1259 3981 
L 1013 2750 
Q 1425 3038 1878 3038 
Q 2478 3038 2890 2622 
Q 3303 2206 3303 1553 
Q 3303 931 2941 478 
Q 2500 -78 1738 -78 
Q 1113 -78 717 272 
Q 322 622 266 1200 
z
" transform="scale(0.015625)"/>
       </defs>
       <use xlink:href="#ArialMT-35"/>
       <use xlink:href="#ArialMT-30" transform="translate(55.615234 0)"/>
      </g>
     </g>
    </g>
    <g id="text_7">
     <!-- Epoch -->
     <g style="fill: #262626" transform="translate(430.532813 560.080781) scale(0.14 -0.14)">
      <defs>
       <path id="ArialMT-45" d="M 506 0 
L 506 4581 
L 3819 4581 
L 3819 4041 
L 1113 4041 
L 1113 2638 
L 3647 2638 
L 3647 2100 
L 1113 2100 
L 1113 541 
L 3925 541 
L 3925 0 
L 506 0 
z
" transform="scale(0.015625)"/>
       <path id="ArialMT-70" d="M 422 -1272 
L 422 3319 
L 934 3319 
L 934 2888 
Q 1116 3141 1344 3267 
Q 1572 3394 1897 3394 
Q 2322 3394 2647 3175 
Q 2972 2956 3137 2557 
Q 3303 2159 3303 1684 
Q 3303 1175 3120 767 
Q 2938 359 2589 142 
Q 2241 -75 1856 -75 
Q 1575 -75 1351 44 
Q 1128 163 984 344 
L 984 -1272 
L 422 -1272 
z
M 931 1641 
Q 931 1000 1190 694 
Q 1450 388 1819 388 
Q 2194 388 2461 705 
Q 2728 1022 2728 1688 
Q 2728 2322 2467 2637 
Q 2206 2953 1844 2953 
Q 1484 2953 1207 2617 
Q 931 2281 931 1641 
z
" transform="scale(0.015625)"/>
       <path id="ArialMT-6f" d="M 213 1659 
Q 213 2581 725 3025 
Q 1153 3394 1769 3394 
Q 2453 3394 2887 2945 
Q 3322 2497 3322 1706 
Q 3322 1066 3130 698 
Q 2938 331 2570 128 
Q 2203 -75 1769 -75 
Q 1072 -75 642 372 
Q 213 819 213 1659 
z
M 791 1659 
Q 791 1022 1069 705 
Q 1347 388 1769 388 
Q 2188 388 2466 706 
Q 2744 1025 2744 1678 
Q 2744 2294 2464 2611 
Q 2184 2928 1769 2928 
Q 1347 2928 1069 2612 
Q 791 2297 791 1659 
z
" transform="scale(0.015625)"/>
       <path id="ArialMT-63" d="M 2588 1216 
L 3141 1144 
Q 3050 572 2676 248 
Q 2303 -75 1759 -75 
Q 1078 -75 664 370 
Q 250 816 250 1647 
Q 250 2184 428 2587 
Q 606 2991 970 3192 
Q 1334 3394 1763 3394 
Q 2303 3394 2647 3120 
Q 2991 2847 3088 2344 
L 2541 2259 
Q 2463 2594 2264 2762 
Q 2066 2931 1784 2931 
Q 1359 2931 1093 2626 
Q 828 2322 828 1663 
Q 828 994 1084 691 
Q 1341 388 1753 388 
Q 2084 388 2306 591 
Q 2528 794 2588 1216 
z
" transform="scale(0.015625)"/>
       <path id="ArialMT-68" d="M 422 0 
L 422 4581 
L 984 4581 
L 984 2938 
Q 1378 3394 1978 3394 
Q 2347 3394 2619 3248 
Q 2891 3103 3008 2847 
Q 3125 2591 3125 2103 
L 3125 0 
L 2563 0 
L 2563 2103 
Q 2563 2525 2380 2717 
Q 2197 2909 1863 2909 
Q 1613 2909 1392 2779 
Q 1172 2650 1078 2428 
Q 984 2206 984 1816 
L 984 0 
L 422 0 
z
" transform="scale(0.015625)"/>
      </defs>
      <use xlink:href="#ArialMT-45"/>
      <use xlink:href="#ArialMT-70" transform="translate(66.699219 0)"/>
      <use xlink:href="#ArialMT-6f" transform="translate(122.314453 0)"/>
      <use xlink:href="#ArialMT-63" transform="translate(177.929688 0)"/>
      <use xlink:href="#ArialMT-68" transform="translate(227.929688 0)"/>
     </g>
    </g>
   </g>
   <g id="matplotlib.axis_2">
    <g id="ytick_1">
     <g id="line2d_7">
      <path d="M 54.81 469.848665 
L 845.95 469.848665 
" clip-path="url(#pd4efac0f93)" style="fill: none; stroke-dasharray: 3.7,1.6; stroke-dashoffset: 0; stroke: #cccccc; stroke-opacity: 0.5"/>
     </g>
     <g id="text_8">
      <!-- 0.0 -->
      <g style="fill: #262626" transform="translate(30.02 473.785462) scale(0.11 -0.11)">
       <defs>
        <path id="ArialMT-2e" d="M 581 0 
L 581 641 
L 1222 641 
L 1222 0 
L 581 0 
z
" transform="scale(0.015625)"/>
       </defs>
       <use xlink:href="#ArialMT-30"/>
       <use xlink:href="#ArialMT-2e" transform="translate(55.615234 0)"/>
       <use xlink:href="#ArialMT-30" transform="translate(83.398438 0)"/>
      </g>
     </g>
    </g>
    <g id="ytick_2">
     <g id="line2d_8">
      <path d="M 54.81 404.30245 
L 845.95 404.30245 
" clip-path="url(#pd4efac0f93)" style="fill: none; stroke-dasharray: 3.7,1.6; stroke-dashoffset: 0; stroke: #cccccc; stroke-opacity: 0.5"/>
     </g>
     <g id="text_9">
      <!-- 0.1 -->
      <g style="fill: #262626" transform="translate(30.02 408.239247) scale(0.11 -0.11)">
       <use xlink:href="#ArialMT-30"/>
       <use xlink:href="#ArialMT-2e" transform="translate(55.615234 0)"/>
       <use xlink:href="#ArialMT-31" transform="translate(83.398438 0)"/>
      </g>
     </g>
    </g>
    <g id="ytick_3">
     <g id="line2d_9">
      <path d="M 54.81 338.756235 
L 845.95 338.756235 
" clip-path="url(#pd4efac0f93)" style="fill: none; stroke-dasharray: 3.7,1.6; stroke-dashoffset: 0; stroke: #cccccc; stroke-opacity: 0.5"/>
     </g>
     <g id="text_10">
      <!-- 0.2 -->
      <g style="fill: #262626" transform="translate(30.02 342.693032) scale(0.11 -0.11)">
       <use xlink:href="#ArialMT-30"/>
       <use xlink:href="#ArialMT-2e" transform="translate(55.615234 0)"/>
       <use xlink:href="#ArialMT-32" transform="translate(83.398438 0)"/>
      </g>
     </g>
    </g>
    <g id="ytick_4">
     <g id="line2d_10">
      <path d="M 54.81 273.21002 
L 845.95 273.21002 
" clip-path="url(#pd4efac0f93)" style="fill: none; stroke-dasharray: 3.7,1.6; stroke-dashoffset: 0; stroke: #cccccc; stroke-opacity: 0.5"/>
     </g>
     <g id="text_11">
      <!-- 0.3 -->
      <g style="fill: #262626" transform="translate(30.02 277.146817) scale(0.11 -0.11)">
       <use xlink:href="#ArialMT-30"/>
       <use xlink:href="#ArialMT-2e" transform="translate(55.615234 0)"/>
       <use xlink:href="#ArialMT-33" transform="translate(83.398438 0)"/>
      </g>
     </g>
    </g>
    <g id="ytick_5">
     <g id="line2d_11">
      <path d="M 54.81 207.663805 
L 845.95 207.663805 
" clip-path="url(#pd4efac0f93)" style="fill: none; stroke-dasharray: 3.7,1.6; stroke-dashoffset: 0; stroke: #cccccc; stroke-opacity: 0.5"/>
     </g>
     <g id="text_12">
      <!-- 0.4 -->
      <g style="fill: #262626" transform="translate(30.02 211.600602) scale(0.11 -0.11)">
       <use xlink:href="#ArialMT-30"/>
       <use xlink:href="#ArialMT-2e" transform="translate(55.615234 0)"/>
       <use xlink:href="#ArialMT-34" transform="translate(83.398438 0)"/>
      </g>
     </g>
    </g>
    <g id="ytick_6">
     <g id="line2d_12">
      <path d="M 54.81 142.11759 
L 845.95 142.11759 
" clip-path="url(#pd4efac0f93)" style="fill: none; stroke-dasharray: 3.7,1.6; stroke-dashoffset: 0; stroke: #cccccc; stroke-opacity: 0.5"/>
     </g>
     <g id="text_13">
      <!-- 0.5 -->
      <g style="fill: #262626" transform="translate(30.02 146.054387) scale(0.11 -0.11)">
       <use xlink:href="#ArialMT-30"/>
       <use xlink:href="#ArialMT-2e" transform="translate(55.615234 0)"/>
       <use xlink:href="#ArialMT-35" transform="translate(83.398438 0)"/>
      </g>
     </g>
    </g>
    <g id="ytick_7">
     <g id="line2d_13">
      <path d="M 54.81 76.571375 
L 845.95 76.571375 
" clip-path="url(#pd4efac0f93)" style="fill: none; stroke-dasharray: 3.7,1.6; stroke-dashoffset: 0; stroke: #cccccc; stroke-opacity: 0.5"/>
     </g>
     <g id="text_14">
      <!-- 0.6 -->
      <g style="fill: #262626" transform="translate(30.02 80.508172) scale(0.11 -0.11)">
       <defs>
        <path id="ArialMT-36" d="M 3184 3459 
L 2625 3416 
Q 2550 3747 2413 3897 
Q 2184 4138 1850 4138 
Q 1581 4138 1378 3988 
Q 1113 3794 959 3422 
Q 806 3050 800 2363 
Q 1003 2672 1297 2822 
Q 1591 2972 1913 2972 
Q 2475 2972 2870 2558 
Q 3266 2144 3266 1488 
Q 3266 1056 3080 686 
Q 2894 316 2569 119 
Q 2244 -78 1831 -78 
Q 1128 -78 684 439 
Q 241 956 241 2144 
Q 241 3472 731 4075 
Q 1159 4600 1884 4600 
Q 2425 4600 2770 4297 
Q 3116 3994 3184 3459 
z
M 888 1484 
Q 888 1194 1011 928 
Q 1134 663 1356 523 
Q 1578 384 1822 384 
Q 2178 384 2434 671 
Q 2691 959 2691 1453 
Q 2691 1928 2437 2201 
Q 2184 2475 1800 2475 
Q 1419 2475 1153 2201 
Q 888 1928 888 1484 
z
" transform="scale(0.015625)"/>
       </defs>
       <use xlink:href="#ArialMT-30"/>
       <use xlink:href="#ArialMT-2e" transform="translate(55.615234 0)"/>
       <use xlink:href="#ArialMT-36" transform="translate(83.398438 0)"/>
      </g>
     </g>
    </g>
    <g id="text_15">
     <!-- Accuracy -->
     <g style="fill: #262626" transform="translate(23.073438 307.325938) rotate(-90) scale(0.14 -0.14)">
      <defs>
       <path id="ArialMT-41" d="M -9 0 
L 1750 4581 
L 2403 4581 
L 4278 0 
L 3588 0 
L 3053 1388 
L 1138 1388 
L 634 0 
L -9 0 
z
M 1313 1881 
L 2866 1881 
L 2388 3150 
Q 2169 3728 2063 4100 
Q 1975 3659 1816 3225 
L 1313 1881 
z
" transform="scale(0.015625)"/>
       <path id="ArialMT-75" d="M 2597 0 
L 2597 488 
Q 2209 -75 1544 -75 
Q 1250 -75 995 37 
Q 741 150 617 320 
Q 494 491 444 738 
Q 409 903 409 1263 
L 409 3319 
L 972 3319 
L 972 1478 
Q 972 1038 1006 884 
Q 1059 663 1231 536 
Q 1403 409 1656 409 
Q 1909 409 2131 539 
Q 2353 669 2445 892 
Q 2538 1116 2538 1541 
L 2538 3319 
L 3100 3319 
L 3100 0 
L 2597 0 
z
" transform="scale(0.015625)"/>
       <path id="ArialMT-72" d="M 416 0 
L 416 3319 
L 922 3319 
L 922 2816 
Q 1116 3169 1280 3281 
Q 1444 3394 1641 3394 
Q 1925 3394 2219 3213 
L 2025 2691 
Q 1819 2813 1613 2813 
Q 1428 2813 1281 2702 
Q 1134 2591 1072 2394 
Q 978 2094 978 1738 
L 978 0 
L 416 0 
z
" transform="scale(0.015625)"/>
       <path id="ArialMT-61" d="M 2588 409 
Q 2275 144 1986 34 
Q 1697 -75 1366 -75 
Q 819 -75 525 192 
Q 231 459 231 875 
Q 231 1119 342 1320 
Q 453 1522 633 1644 
Q 813 1766 1038 1828 
Q 1203 1872 1538 1913 
Q 2219 1994 2541 2106 
Q 2544 2222 2544 2253 
Q 2544 2597 2384 2738 
Q 2169 2928 1744 2928 
Q 1347 2928 1158 2789 
Q 969 2650 878 2297 
L 328 2372 
Q 403 2725 575 2942 
Q 747 3159 1072 3276 
Q 1397 3394 1825 3394 
Q 2250 3394 2515 3294 
Q 2781 3194 2906 3042 
Q 3031 2891 3081 2659 
Q 3109 2516 3109 2141 
L 3109 1391 
Q 3109 606 3145 398 
Q 3181 191 3288 0 
L 2700 0 
Q 2613 175 2588 409 
z
M 2541 1666 
Q 2234 1541 1622 1453 
Q 1275 1403 1131 1340 
Q 988 1278 909 1158 
Q 831 1038 831 891 
Q 831 666 1001 516 
Q 1172 366 1500 366 
Q 1825 366 2078 508 
Q 2331 650 2450 897 
Q 2541 1088 2541 1459 
L 2541 1666 
z
" transform="scale(0.015625)"/>
       <path id="ArialMT-79" d="M 397 -1278 
L 334 -750 
Q 519 -800 656 -800 
Q 844 -800 956 -737 
Q 1069 -675 1141 -563 
Q 1194 -478 1313 -144 
Q 1328 -97 1363 -6 
L 103 3319 
L 709 3319 
L 1400 1397 
Q 1534 1031 1641 628 
Q 1738 1016 1872 1384 
L 2581 3319 
L 3144 3319 
L 1881 -56 
Q 1678 -603 1566 -809 
Q 1416 -1088 1222 -1217 
Q 1028 -1347 759 -1347 
Q 597 -1347 397 -1278 
z
" transform="scale(0.015625)"/>
      </defs>
      <use xlink:href="#ArialMT-41"/>
      <use xlink:href="#ArialMT-63" transform="translate(66.699219 0)"/>
      <use xlink:href="#ArialMT-63" transform="translate(116.699219 0)"/>
      <use xlink:href="#ArialMT-75" transform="translate(166.699219 0)"/>
      <use xlink:href="#ArialMT-72" transform="translate(222.314453 0)"/>
      <use xlink:href="#ArialMT-61" transform="translate(255.615234 0)"/>
      <use xlink:href="#ArialMT-63" transform="translate(311.230469 0)"/>
      <use xlink:href="#ArialMT-79" transform="translate(361.230469 0)"/>
     </g>
    </g>
   </g>
   <g id="FillBetweenPolyCollection_1">
    <defs>
     <path id="mb2b62deda8" d="M 90.770909 -202.081863 
L 90.770909 -112.647693 
L 105.448831 -126.184141 
L 120.126753 -141.891888 
L 134.804675 -148.044723 
L 149.482597 -155.42776 
L 164.160519 -75.061283 
L 178.838442 -72.041761 
L 193.516364 -73.320078 
L 208.194286 -74.16985 
L 222.872208 -75.088627 
L 237.55013 -78.850781 
L 252.228052 -80.402198 
L 266.905974 -80.986656 
L 281.583896 -82.542731 
L 296.261818 -84.823673 
L 310.93974 -87.69726 
L 325.617662 -90.28384 
L 340.295584 -89.577537 
L 354.973506 -91.931812 
L 369.651429 -90.571577 
L 384.329351 -93.201612 
L 399.007273 -92.866494 
L 413.685195 -94.478399 
L 428.363117 -95.949895 
L 443.041039 -96.134888 
L 457.718961 -95.348333 
L 472.396883 -98.592705 
L 487.074805 -97.529591 
L 501.752727 -97.687834 
L 516.430649 -98.725727 
L 531.108571 -97.759968 
L 545.786494 -99.335806 
L 560.464416 -101.700527 
L 575.142338 -100.545916 
L 589.82026 -100.067661 
L 604.498182 -101.996051 
L 619.176104 -102.018942 
L 633.854026 -102.63135 
L 648.531948 -102.893934 
L 663.20987 -103.420234 
L 677.887792 -103.343441 
L 692.565714 -104.06445 
L 707.243636 -104.03537 
L 721.921558 -105.4704 
L 736.599481 -105.133352 
L 751.277403 -105.547192 
L 765.955325 -106.745657 
L 780.633247 -107.068729 
L 795.311169 -106.713848 
L 809.989091 -106.299609 
L 809.989091 -522.876989 
L 809.989091 -522.876989 
L 795.311169 -519.119892 
L 780.633247 -519.289381 
L 765.955325 -518.039345 
L 751.277403 -520.548734 
L 736.599481 -521.618035 
L 721.921558 -520.101156 
L 707.243636 -517.275682 
L 692.565714 -519.344081 
L 677.887792 -518.623072 
L 663.20987 -519.07065 
L 648.531948 -516.319638 
L 633.854026 -518.745248 
L 619.176104 -517.391269 
L 604.498182 -519.315001 
L 589.82026 -520.260198 
L 575.142338 -511.654212 
L 560.464416 -515.218928 
L 545.786494 -516.469364 
L 531.108571 -518.045202 
L 516.430649 -514.654233 
L 501.752727 -516.675319 
L 487.074805 -516.702469 
L 472.396883 -512.296498 
L 457.718961 -515.54087 
L 443.041039 -516.327425 
L 428.363117 -513.825023 
L 413.685195 -513.002402 
L 399.007273 -513.893298 
L 384.329351 -510.149777 
L 369.651429 -516.97477 
L 354.973506 -505.913694 
L 340.295584 -512.921751 
L 325.617662 -506.11965 
L 310.93974 -509.558331 
L 296.261818 -512.431918 
L 281.583896 -512.746474 
L 266.905974 -518.235321 
L 252.228052 -511.347511 
L 237.55013 -515.914053 
L 222.872208 -519.938392 
L 208.194286 -511.418515 
L 193.516364 -510.105261 
L 178.838442 -502.3382 
L 164.160519 -475.787588 
L 149.482597 -324.08498 
L 134.804675 -306.54701 
L 120.126753 -283.294804 
L 105.448831 -250.058977 
L 90.770909 -202.081863 
z
" style="stroke: #1f77b4; stroke-opacity: 0.3"/>
    </defs>
    <g clip-path="url(#pd4efac0f93)">
     <use xlink:href="#mb2b62deda8" x="0" y="576" style="fill: #1f77b4; fill-opacity: 0.3; stroke: #1f77b4; stroke-opacity: 0.3"/>
    </g>
   </g>
   <g id="FillBetweenPolyCollection_2">
    <defs>
     <path id="m2c325759fa" d="M 90.770909 -230.018169 
L 90.770909 -155.938274 
L 105.448831 -181.344651 
L 120.126753 -202.454274 
L 134.804675 -219.948172 
L 149.482597 -228.214381 
L 149.482597 -317.217989 
L 149.482597 -317.217989 
L 134.804675 -309.240654 
L 120.126753 -291.280009 
L 105.448831 -271.195821 
L 90.770909 -230.018169 
z
" style="stroke: #aec7e8; stroke-opacity: 0.3"/>
    </defs>
    <g clip-path="url(#pd4efac0f93)">
     <use xlink:href="#m2c325759fa" x="0" y="576" style="fill: #aec7e8; fill-opacity: 0.3; stroke: #aec7e8; stroke-opacity: 0.3"/>
    </g>
   </g>
   <g id="FillBetweenPolyCollection_3">
    <defs>
     <path id="m2580e42a59" d="M 90.770909 -150.661002 
L 90.770909 -115.90385 
L 105.448831 -132.837033 
L 120.126753 -146.95466 
L 134.804675 -154.287124 
L 149.482597 -164.388021 
L 149.482597 -271.069718 
L 149.482597 -271.069718 
L 134.804675 -243.53517 
L 120.126753 -215.150905 
L 105.448831 -187.473882 
L 90.770909 -150.661002 
z
" style="stroke: #ff7f0e; stroke-opacity: 0.3"/>
    </defs>
    <g clip-path="url(#pd4efac0f93)">
     <use xlink:href="#m2580e42a59" x="0" y="576" style="fill: #ff7f0e; fill-opacity: 0.3; stroke: #ff7f0e; stroke-opacity: 0.3"/>
    </g>
   </g>
   <g id="line2d_14">
    <path d="M 90.770909 418.635222 
L 105.448831 387.878441 
L 120.126753 363.406654 
L 134.804675 348.704134 
L 149.482597 336.24363 
L 164.160519 300.575565 
L 178.838442 288.810019 
L 193.516364 284.28733 
L 208.194286 283.205818 
L 222.872208 278.48649 
L 237.55013 278.617583 
L 252.228052 280.125146 
L 266.905974 276.389011 
L 281.583896 278.355398 
L 296.261818 277.372205 
L 310.93974 277.372205 
L 325.617662 277.798255 
L 340.295584 274.750356 
L 354.973506 277.077247 
L 369.651429 272.226827 
L 384.329351 274.324306 
L 399.007273 272.620104 
L 413.685195 272.2596 
L 428.363117 271.112541 
L 443.041039 269.768844 
L 457.718961 270.555398 
L 472.396883 270.555398 
L 487.074805 268.88397 
L 501.752727 268.818424 
L 516.430649 269.31002 
L 531.108571 268.097415 
L 545.786494 268.097415 
L 560.464416 267.540272 
L 575.142338 269.899936 
L 589.82026 265.836071 
L 604.498182 265.344474 
L 619.176104 266.294894 
L 633.854026 265.311701 
L 648.531948 266.393214 
L 663.20987 264.754558 
L 677.887792 265.016743 
L 692.565714 264.295735 
L 707.243636 265.344474 
L 721.921558 263.214222 
L 736.599481 262.624306 
L 751.277403 262.952037 
L 765.955325 263.607499 
L 780.633247 262.820945 
L 795.311169 263.08313 
L 809.989091 261.411701 
" clip-path="url(#pd4efac0f93)" style="fill: none; stroke: #1f77b4; stroke-width: 2; stroke-linecap: round"/>
    <defs>
     <path id="ma0d5c39165" d="M 0 3 
C 0.795609 3 1.55874 2.683901 2.12132 2.12132 
C 2.683901 1.55874 3 0.795609 3 0 
C 3 -0.795609 2.683901 -1.55874 2.12132 -2.12132 
C 1.55874 -2.683901 0.795609 -3 0 -3 
C -0.795609 -3 -1.55874 -2.683901 -2.12132 -2.12132 
C -2.683901 -1.55874 -3 -0.795609 -3 0 
C -3 0.795609 -2.683901 1.55874 -2.12132 2.12132 
C -1.55874 2.683901 -0.795609 3 0 3 
z
" style="stroke: #1f77b4"/>
    </defs>
    <g clip-path="url(#pd4efac0f93)">
     <use xlink:href="#ma0d5c39165" x="90.770909" y="418.635222" style="fill: #1f77b4; stroke: #1f77b4"/>
     <use xlink:href="#ma0d5c39165" x="105.448831" y="387.878441" style="fill: #1f77b4; stroke: #1f77b4"/>
     <use xlink:href="#ma0d5c39165" x="120.126753" y="363.406654" style="fill: #1f77b4; stroke: #1f77b4"/>
     <use xlink:href="#ma0d5c39165" x="134.804675" y="348.704134" style="fill: #1f77b4; stroke: #1f77b4"/>
     <use xlink:href="#ma0d5c39165" x="149.482597" y="336.24363" style="fill: #1f77b4; stroke: #1f77b4"/>
     <use xlink:href="#ma0d5c39165" x="164.160519" y="300.575565" style="fill: #1f77b4; stroke: #1f77b4"/>
     <use xlink:href="#ma0d5c39165" x="178.838442" y="288.810019" style="fill: #1f77b4; stroke: #1f77b4"/>
     <use xlink:href="#ma0d5c39165" x="193.516364" y="284.28733" style="fill: #1f77b4; stroke: #1f77b4"/>
     <use xlink:href="#ma0d5c39165" x="208.194286" y="283.205818" style="fill: #1f77b4; stroke: #1f77b4"/>
     <use xlink:href="#ma0d5c39165" x="222.872208" y="278.48649" style="fill: #1f77b4; stroke: #1f77b4"/>
     <use xlink:href="#ma0d5c39165" x="237.55013" y="278.617583" style="fill: #1f77b4; stroke: #1f77b4"/>
     <use xlink:href="#ma0d5c39165" x="252.228052" y="280.125146" style="fill: #1f77b4; stroke: #1f77b4"/>
     <use xlink:href="#ma0d5c39165" x="266.905974" y="276.389011" style="fill: #1f77b4; stroke: #1f77b4"/>
     <use xlink:href="#ma0d5c39165" x="281.583896" y="278.355398" style="fill: #1f77b4; stroke: #1f77b4"/>
     <use xlink:href="#ma0d5c39165" x="296.261818" y="277.372205" style="fill: #1f77b4; stroke: #1f77b4"/>
     <use xlink:href="#ma0d5c39165" x="310.93974" y="277.372205" style="fill: #1f77b4; stroke: #1f77b4"/>
     <use xlink:href="#ma0d5c39165" x="325.617662" y="277.798255" style="fill: #1f77b4; stroke: #1f77b4"/>
     <use xlink:href="#ma0d5c39165" x="340.295584" y="274.750356" style="fill: #1f77b4; stroke: #1f77b4"/>
     <use xlink:href="#ma0d5c39165" x="354.973506" y="277.077247" style="fill: #1f77b4; stroke: #1f77b4"/>
     <use xlink:href="#ma0d5c39165" x="369.651429" y="272.226827" style="fill: #1f77b4; stroke: #1f77b4"/>
     <use xlink:href="#ma0d5c39165" x="384.329351" y="274.324306" style="fill: #1f77b4; stroke: #1f77b4"/>
     <use xlink:href="#ma0d5c39165" x="399.007273" y="272.620104" style="fill: #1f77b4; stroke: #1f77b4"/>
     <use xlink:href="#ma0d5c39165" x="413.685195" y="272.2596" style="fill: #1f77b4; stroke: #1f77b4"/>
     <use xlink:href="#ma0d5c39165" x="428.363117" y="271.112541" style="fill: #1f77b4; stroke: #1f77b4"/>
     <use xlink:href="#ma0d5c39165" x="443.041039" y="269.768844" style="fill: #1f77b4; stroke: #1f77b4"/>
     <use xlink:href="#ma0d5c39165" x="457.718961" y="270.555398" style="fill: #1f77b4; stroke: #1f77b4"/>
     <use xlink:href="#ma0d5c39165" x="472.396883" y="270.555398" style="fill: #1f77b4; stroke: #1f77b4"/>
     <use xlink:href="#ma0d5c39165" x="487.074805" y="268.88397" style="fill: #1f77b4; stroke: #1f77b4"/>
     <use xlink:href="#ma0d5c39165" x="501.752727" y="268.818424" style="fill: #1f77b4; stroke: #1f77b4"/>
     <use xlink:href="#ma0d5c39165" x="516.430649" y="269.31002" style="fill: #1f77b4; stroke: #1f77b4"/>
     <use xlink:href="#ma0d5c39165" x="531.108571" y="268.097415" style="fill: #1f77b4; stroke: #1f77b4"/>
     <use xlink:href="#ma0d5c39165" x="545.786494" y="268.097415" style="fill: #1f77b4; stroke: #1f77b4"/>
     <use xlink:href="#ma0d5c39165" x="560.464416" y="267.540272" style="fill: #1f77b4; stroke: #1f77b4"/>
     <use xlink:href="#ma0d5c39165" x="575.142338" y="269.899936" style="fill: #1f77b4; stroke: #1f77b4"/>
     <use xlink:href="#ma0d5c39165" x="589.82026" y="265.836071" style="fill: #1f77b4; stroke: #1f77b4"/>
     <use xlink:href="#ma0d5c39165" x="604.498182" y="265.344474" style="fill: #1f77b4; stroke: #1f77b4"/>
     <use xlink:href="#ma0d5c39165" x="619.176104" y="266.294894" style="fill: #1f77b4; stroke: #1f77b4"/>
     <use xlink:href="#ma0d5c39165" x="633.854026" y="265.311701" style="fill: #1f77b4; stroke: #1f77b4"/>
     <use xlink:href="#ma0d5c39165" x="648.531948" y="266.393214" style="fill: #1f77b4; stroke: #1f77b4"/>
     <use xlink:href="#ma0d5c39165" x="663.20987" y="264.754558" style="fill: #1f77b4; stroke: #1f77b4"/>
     <use xlink:href="#ma0d5c39165" x="677.887792" y="265.016743" style="fill: #1f77b4; stroke: #1f77b4"/>
     <use xlink:href="#ma0d5c39165" x="692.565714" y="264.295735" style="fill: #1f77b4; stroke: #1f77b4"/>
     <use xlink:href="#ma0d5c39165" x="707.243636" y="265.344474" style="fill: #1f77b4; stroke: #1f77b4"/>
     <use xlink:href="#ma0d5c39165" x="721.921558" y="263.214222" style="fill: #1f77b4; stroke: #1f77b4"/>
     <use xlink:href="#ma0d5c39165" x="736.599481" y="262.624306" style="fill: #1f77b4; stroke: #1f77b4"/>
     <use xlink:href="#ma0d5c39165" x="751.277403" y="262.952037" style="fill: #1f77b4; stroke: #1f77b4"/>
     <use xlink:href="#ma0d5c39165" x="765.955325" y="263.607499" style="fill: #1f77b4; stroke: #1f77b4"/>
     <use xlink:href="#ma0d5c39165" x="780.633247" y="262.820945" style="fill: #1f77b4; stroke: #1f77b4"/>
     <use xlink:href="#ma0d5c39165" x="795.311169" y="263.08313" style="fill: #1f77b4; stroke: #1f77b4"/>
     <use xlink:href="#ma0d5c39165" x="809.989091" y="261.411701" style="fill: #1f77b4; stroke: #1f77b4"/>
    </g>
   </g>
   <g id="line2d_15">
    <path d="M 90.770909 383.021779 
L 105.448831 349.729764 
L 120.126753 329.132859 
L 134.804675 311.405587 
L 149.482597 303.283815 
L 164.160519 372.774721 
L 178.838442 368.186485 
L 193.516364 363.59825 
L 208.194286 361.69741 
L 222.872208 355.273881 
L 237.55013 352.783125 
L 252.228052 349.964638 
L 266.905974 347.080604 
L 281.583896 349.767999 
L 296.261818 350.489007 
L 310.93974 343.410016 
L 325.617662 342.099092 
L 340.295584 343.737747 
L 354.973506 339.346151 
L 369.651429 339.477243 
L 384.329351 338.559596 
L 399.007273 339.870521 
L 413.685195 338.559596 
L 428.363117 338.821781 
L 443.041039 337.379764 
L 457.718961 337.773042 
L 472.396883 337.11758 
L 487.074805 336.789848 
L 501.752727 335.937748 
L 516.430649 336.920941 
L 531.108571 337.183126 
L 545.786494 336.134386 
L 560.464416 336.986487 
L 575.142338 336.199933 
L 589.82026 335.872201 
L 604.498182 336.986487 
L 619.176104 336.396571 
L 633.854026 335.413378 
L 648.531948 336.06884 
L 663.20987 335.282286 
L 677.887792 336.331025 
L 692.565714 335.347832 
L 707.243636 335.020101 
L 721.921558 335.937748 
L 736.599481 335.937748 
L 751.277403 335.413378 
L 765.955325 336.134386 
L 780.633247 335.413378 
L 795.311169 336.134386 
L 809.989091 335.610017 
" clip-path="url(#pd4efac0f93)" style="fill: none; stroke: #aec7e8; stroke-width: 2; stroke-linecap: round"/>
    <defs>
     <path id="m8003d8b1bc" d="M 0 3 
C 0.795609 3 1.55874 2.683901 2.12132 2.12132 
C 2.683901 1.55874 3 0.795609 3 0 
C 3 -0.795609 2.683901 -1.55874 2.12132 -2.12132 
C 1.55874 -2.683901 0.795609 -3 0 -3 
C -0.795609 -3 -1.55874 -2.683901 -2.12132 -2.12132 
C -2.683901 -1.55874 -3 -0.795609 -3 0 
C -3 0.795609 -2.683901 1.55874 -2.12132 2.12132 
C -1.55874 2.683901 -0.795609 3 0 3 
z
" style="stroke: #aec7e8"/>
    </defs>
    <g clip-path="url(#pd4efac0f93)">
     <use xlink:href="#m8003d8b1bc" x="90.770909" y="383.021779" style="fill: #aec7e8; stroke: #aec7e8"/>
     <use xlink:href="#m8003d8b1bc" x="105.448831" y="349.729764" style="fill: #aec7e8; stroke: #aec7e8"/>
     <use xlink:href="#m8003d8b1bc" x="120.126753" y="329.132859" style="fill: #aec7e8; stroke: #aec7e8"/>
     <use xlink:href="#m8003d8b1bc" x="134.804675" y="311.405587" style="fill: #aec7e8; stroke: #aec7e8"/>
     <use xlink:href="#m8003d8b1bc" x="149.482597" y="303.283815" style="fill: #aec7e8; stroke: #aec7e8"/>
     <use xlink:href="#m8003d8b1bc" x="164.160519" y="372.774721" style="fill: #aec7e8; stroke: #aec7e8"/>
     <use xlink:href="#m8003d8b1bc" x="178.838442" y="368.186485" style="fill: #aec7e8; stroke: #aec7e8"/>
     <use xlink:href="#m8003d8b1bc" x="193.516364" y="363.59825" style="fill: #aec7e8; stroke: #aec7e8"/>
     <use xlink:href="#m8003d8b1bc" x="208.194286" y="361.69741" style="fill: #aec7e8; stroke: #aec7e8"/>
     <use xlink:href="#m8003d8b1bc" x="222.872208" y="355.273881" style="fill: #aec7e8; stroke: #aec7e8"/>
     <use xlink:href="#m8003d8b1bc" x="237.55013" y="352.783125" style="fill: #aec7e8; stroke: #aec7e8"/>
     <use xlink:href="#m8003d8b1bc" x="252.228052" y="349.964638" style="fill: #aec7e8; stroke: #aec7e8"/>
     <use xlink:href="#m8003d8b1bc" x="266.905974" y="347.080604" style="fill: #aec7e8; stroke: #aec7e8"/>
     <use xlink:href="#m8003d8b1bc" x="281.583896" y="349.767999" style="fill: #aec7e8; stroke: #aec7e8"/>
     <use xlink:href="#m8003d8b1bc" x="296.261818" y="350.489007" style="fill: #aec7e8; stroke: #aec7e8"/>
     <use xlink:href="#m8003d8b1bc" x="310.93974" y="343.410016" style="fill: #aec7e8; stroke: #aec7e8"/>
     <use xlink:href="#m8003d8b1bc" x="325.617662" y="342.099092" style="fill: #aec7e8; stroke: #aec7e8"/>
     <use xlink:href="#m8003d8b1bc" x="340.295584" y="343.737747" style="fill: #aec7e8; stroke: #aec7e8"/>
     <use xlink:href="#m8003d8b1bc" x="354.973506" y="339.346151" style="fill: #aec7e8; stroke: #aec7e8"/>
     <use xlink:href="#m8003d8b1bc" x="369.651429" y="339.477243" style="fill: #aec7e8; stroke: #aec7e8"/>
     <use xlink:href="#m8003d8b1bc" x="384.329351" y="338.559596" style="fill: #aec7e8; stroke: #aec7e8"/>
     <use xlink:href="#m8003d8b1bc" x="399.007273" y="339.870521" style="fill: #aec7e8; stroke: #aec7e8"/>
     <use xlink:href="#m8003d8b1bc" x="413.685195" y="338.559596" style="fill: #aec7e8; stroke: #aec7e8"/>
     <use xlink:href="#m8003d8b1bc" x="428.363117" y="338.821781" style="fill: #aec7e8; stroke: #aec7e8"/>
     <use xlink:href="#m8003d8b1bc" x="443.041039" y="337.379764" style="fill: #aec7e8; stroke: #aec7e8"/>
     <use xlink:href="#m8003d8b1bc" x="457.718961" y="337.773042" style="fill: #aec7e8; stroke: #aec7e8"/>
     <use xlink:href="#m8003d8b1bc" x="472.396883" y="337.11758" style="fill: #aec7e8; stroke: #aec7e8"/>
     <use xlink:href="#m8003d8b1bc" x="487.074805" y="336.789848" style="fill: #aec7e8; stroke: #aec7e8"/>
     <use xlink:href="#m8003d8b1bc" x="501.752727" y="335.937748" style="fill: #aec7e8; stroke: #aec7e8"/>
     <use xlink:href="#m8003d8b1bc" x="516.430649" y="336.920941" style="fill: #aec7e8; stroke: #aec7e8"/>
     <use xlink:href="#m8003d8b1bc" x="531.108571" y="337.183126" style="fill: #aec7e8; stroke: #aec7e8"/>
     <use xlink:href="#m8003d8b1bc" x="545.786494" y="336.134386" style="fill: #aec7e8; stroke: #aec7e8"/>
     <use xlink:href="#m8003d8b1bc" x="560.464416" y="336.986487" style="fill: #aec7e8; stroke: #aec7e8"/>
     <use xlink:href="#m8003d8b1bc" x="575.142338" y="336.199933" style="fill: #aec7e8; stroke: #aec7e8"/>
     <use xlink:href="#m8003d8b1bc" x="589.82026" y="335.872201" style="fill: #aec7e8; stroke: #aec7e8"/>
     <use xlink:href="#m8003d8b1bc" x="604.498182" y="336.986487" style="fill: #aec7e8; stroke: #aec7e8"/>
     <use xlink:href="#m8003d8b1bc" x="619.176104" y="336.396571" style="fill: #aec7e8; stroke: #aec7e8"/>
     <use xlink:href="#m8003d8b1bc" x="633.854026" y="335.413378" style="fill: #aec7e8; stroke: #aec7e8"/>
     <use xlink:href="#m8003d8b1bc" x="648.531948" y="336.06884" style="fill: #aec7e8; stroke: #aec7e8"/>
     <use xlink:href="#m8003d8b1bc" x="663.20987" y="335.282286" style="fill: #aec7e8; stroke: #aec7e8"/>
     <use xlink:href="#m8003d8b1bc" x="677.887792" y="336.331025" style="fill: #aec7e8; stroke: #aec7e8"/>
     <use xlink:href="#m8003d8b1bc" x="692.565714" y="335.347832" style="fill: #aec7e8; stroke: #aec7e8"/>
     <use xlink:href="#m8003d8b1bc" x="707.243636" y="335.020101" style="fill: #aec7e8; stroke: #aec7e8"/>
     <use xlink:href="#m8003d8b1bc" x="721.921558" y="335.937748" style="fill: #aec7e8; stroke: #aec7e8"/>
     <use xlink:href="#m8003d8b1bc" x="736.599481" y="335.937748" style="fill: #aec7e8; stroke: #aec7e8"/>
     <use xlink:href="#m8003d8b1bc" x="751.277403" y="335.413378" style="fill: #aec7e8; stroke: #aec7e8"/>
     <use xlink:href="#m8003d8b1bc" x="765.955325" y="336.134386" style="fill: #aec7e8; stroke: #aec7e8"/>
     <use xlink:href="#m8003d8b1bc" x="780.633247" y="335.413378" style="fill: #aec7e8; stroke: #aec7e8"/>
     <use xlink:href="#m8003d8b1bc" x="795.311169" y="336.134386" style="fill: #aec7e8; stroke: #aec7e8"/>
     <use xlink:href="#m8003d8b1bc" x="809.989091" y="335.610017" style="fill: #aec7e8; stroke: #aec7e8"/>
    </g>
   </g>
   <g id="line2d_16">
    <path d="M 90.770909 442.717574 
L 105.448831 415.844543 
L 120.126753 394.947217 
L 134.804675 377.088853 
L 149.482597 358.271131 
L 164.160519 293.725985 
L 178.838442 281.141112 
L 193.516364 256.561281 
L 208.194286 253.087332 
L 222.872208 234.603299 
L 237.55013 233.685652 
L 252.228052 218.675569 
L 266.905974 219.920947 
L 281.583896 214.021788 
L 296.261818 216.315905 
L 310.93974 225.361283 
L 325.617662 227.655401 
L 340.295584 217.889015 
L 354.973506 220.90414 
L 369.651429 224.771367 
L 384.329351 222.346157 
L 399.007273 221.362964 
L 413.685195 215.398258 
L 428.363117 221.887334 
L 443.041039 218.47893 
L 457.718961 220.05204 
L 472.396883 213.497418 
L 487.074805 217.168006 
L 501.752727 215.398258 
L 516.430649 217.430191 
L 531.108571 213.694057 
L 545.786494 211.989855 
L 560.464416 217.430191 
L 575.142338 219.462124 
L 589.82026 214.546158 
L 604.498182 216.709183 
L 619.176104 217.823468 
L 633.854026 215.267166 
L 648.531948 211.203301 
L 663.20987 214.218426 
L 677.887792 214.939435 
L 692.565714 215.463805 
L 707.243636 214.283973 
L 721.921558 220.90414 
L 736.599481 218.413384 
L 751.277403 211.596578 
L 765.955325 210.023469 
L 780.633247 217.561283 
L 795.311169 214.15288 
L 809.989091 217.954561 
" clip-path="url(#pd4efac0f93)" style="fill: none; stroke: #ff7f0e; stroke-width: 2; stroke-linecap: round"/>
    <defs>
     <path id="mca0ea540c7" d="M 0 3 
C 0.795609 3 1.55874 2.683901 2.12132 2.12132 
C 2.683901 1.55874 3 0.795609 3 0 
C 3 -0.795609 2.683901 -1.55874 2.12132 -2.12132 
C 1.55874 -2.683901 0.795609 -3 0 -3 
C -0.795609 -3 -1.55874 -2.683901 -2.12132 -2.12132 
C -2.683901 -1.55874 -3 -0.795609 -3 0 
C -3 0.795609 -2.683901 1.55874 -2.12132 2.12132 
C -1.55874 2.683901 -0.795609 3 0 3 
z
" style="stroke: #ff7f0e"/>
    </defs>
    <g clip-path="url(#pd4efac0f93)">
     <use xlink:href="#mca0ea540c7" x="90.770909" y="442.717574" style="fill: #ff7f0e; stroke: #ff7f0e"/>
     <use xlink:href="#mca0ea540c7" x="105.448831" y="415.844543" style="fill: #ff7f0e; stroke: #ff7f0e"/>
     <use xlink:href="#mca0ea540c7" x="120.126753" y="394.947217" style="fill: #ff7f0e; stroke: #ff7f0e"/>
     <use xlink:href="#mca0ea540c7" x="134.804675" y="377.088853" style="fill: #ff7f0e; stroke: #ff7f0e"/>
     <use xlink:href="#mca0ea540c7" x="149.482597" y="358.271131" style="fill: #ff7f0e; stroke: #ff7f0e"/>
     <use xlink:href="#mca0ea540c7" x="164.160519" y="293.725985" style="fill: #ff7f0e; stroke: #ff7f0e"/>
     <use xlink:href="#mca0ea540c7" x="178.838442" y="281.141112" style="fill: #ff7f0e; stroke: #ff7f0e"/>
     <use xlink:href="#mca0ea540c7" x="193.516364" y="256.561281" style="fill: #ff7f0e; stroke: #ff7f0e"/>
     <use xlink:href="#mca0ea540c7" x="208.194286" y="253.087332" style="fill: #ff7f0e; stroke: #ff7f0e"/>
     <use xlink:href="#mca0ea540c7" x="222.872208" y="234.603299" style="fill: #ff7f0e; stroke: #ff7f0e"/>
     <use xlink:href="#mca0ea540c7" x="237.55013" y="233.685652" style="fill: #ff7f0e; stroke: #ff7f0e"/>
     <use xlink:href="#mca0ea540c7" x="252.228052" y="218.675569" style="fill: #ff7f0e; stroke: #ff7f0e"/>
     <use xlink:href="#mca0ea540c7" x="266.905974" y="219.920947" style="fill: #ff7f0e; stroke: #ff7f0e"/>
     <use xlink:href="#mca0ea540c7" x="281.583896" y="214.021788" style="fill: #ff7f0e; stroke: #ff7f0e"/>
     <use xlink:href="#mca0ea540c7" x="296.261818" y="216.315905" style="fill: #ff7f0e; stroke: #ff7f0e"/>
     <use xlink:href="#mca0ea540c7" x="310.93974" y="225.361283" style="fill: #ff7f0e; stroke: #ff7f0e"/>
     <use xlink:href="#mca0ea540c7" x="325.617662" y="227.655401" style="fill: #ff7f0e; stroke: #ff7f0e"/>
     <use xlink:href="#mca0ea540c7" x="340.295584" y="217.889015" style="fill: #ff7f0e; stroke: #ff7f0e"/>
     <use xlink:href="#mca0ea540c7" x="354.973506" y="220.90414" style="fill: #ff7f0e; stroke: #ff7f0e"/>
     <use xlink:href="#mca0ea540c7" x="369.651429" y="224.771367" style="fill: #ff7f0e; stroke: #ff7f0e"/>
     <use xlink:href="#mca0ea540c7" x="384.329351" y="222.346157" style="fill: #ff7f0e; stroke: #ff7f0e"/>
     <use xlink:href="#mca0ea540c7" x="399.007273" y="221.362964" style="fill: #ff7f0e; stroke: #ff7f0e"/>
     <use xlink:href="#mca0ea540c7" x="413.685195" y="215.398258" style="fill: #ff7f0e; stroke: #ff7f0e"/>
     <use xlink:href="#mca0ea540c7" x="428.363117" y="221.887334" style="fill: #ff7f0e; stroke: #ff7f0e"/>
     <use xlink:href="#mca0ea540c7" x="443.041039" y="218.47893" style="fill: #ff7f0e; stroke: #ff7f0e"/>
     <use xlink:href="#mca0ea540c7" x="457.718961" y="220.05204" style="fill: #ff7f0e; stroke: #ff7f0e"/>
     <use xlink:href="#mca0ea540c7" x="472.396883" y="213.497418" style="fill: #ff7f0e; stroke: #ff7f0e"/>
     <use xlink:href="#mca0ea540c7" x="487.074805" y="217.168006" style="fill: #ff7f0e; stroke: #ff7f0e"/>
     <use xlink:href="#mca0ea540c7" x="501.752727" y="215.398258" style="fill: #ff7f0e; stroke: #ff7f0e"/>
     <use xlink:href="#mca0ea540c7" x="516.430649" y="217.430191" style="fill: #ff7f0e; stroke: #ff7f0e"/>
     <use xlink:href="#mca0ea540c7" x="531.108571" y="213.694057" style="fill: #ff7f0e; stroke: #ff7f0e"/>
     <use xlink:href="#mca0ea540c7" x="545.786494" y="211.989855" style="fill: #ff7f0e; stroke: #ff7f0e"/>
     <use xlink:href="#mca0ea540c7" x="560.464416" y="217.430191" style="fill: #ff7f0e; stroke: #ff7f0e"/>
     <use xlink:href="#mca0ea540c7" x="575.142338" y="219.462124" style="fill: #ff7f0e; stroke: #ff7f0e"/>
     <use xlink:href="#mca0ea540c7" x="589.82026" y="214.546158" style="fill: #ff7f0e; stroke: #ff7f0e"/>
     <use xlink:href="#mca0ea540c7" x="604.498182" y="216.709183" style="fill: #ff7f0e; stroke: #ff7f0e"/>
     <use xlink:href="#mca0ea540c7" x="619.176104" y="217.823468" style="fill: #ff7f0e; stroke: #ff7f0e"/>
     <use xlink:href="#mca0ea540c7" x="633.854026" y="215.267166" style="fill: #ff7f0e; stroke: #ff7f0e"/>
     <use xlink:href="#mca0ea540c7" x="648.531948" y="211.203301" style="fill: #ff7f0e; stroke: #ff7f0e"/>
     <use xlink:href="#mca0ea540c7" x="663.20987" y="214.218426" style="fill: #ff7f0e; stroke: #ff7f0e"/>
     <use xlink:href="#mca0ea540c7" x="677.887792" y="214.939435" style="fill: #ff7f0e; stroke: #ff7f0e"/>
     <use xlink:href="#mca0ea540c7" x="692.565714" y="215.463805" style="fill: #ff7f0e; stroke: #ff7f0e"/>
     <use xlink:href="#mca0ea540c7" x="707.243636" y="214.283973" style="fill: #ff7f0e; stroke: #ff7f0e"/>
     <use xlink:href="#mca0ea540c7" x="721.921558" y="220.90414" style="fill: #ff7f0e; stroke: #ff7f0e"/>
     <use xlink:href="#mca0ea540c7" x="736.599481" y="218.413384" style="fill: #ff7f0e; stroke: #ff7f0e"/>
     <use xlink:href="#mca0ea540c7" x="751.277403" y="211.596578" style="fill: #ff7f0e; stroke: #ff7f0e"/>
     <use xlink:href="#mca0ea540c7" x="765.955325" y="210.023469" style="fill: #ff7f0e; stroke: #ff7f0e"/>
     <use xlink:href="#mca0ea540c7" x="780.633247" y="217.561283" style="fill: #ff7f0e; stroke: #ff7f0e"/>
     <use xlink:href="#mca0ea540c7" x="795.311169" y="214.15288" style="fill: #ff7f0e; stroke: #ff7f0e"/>
     <use xlink:href="#mca0ea540c7" x="809.989091" y="217.954561" style="fill: #ff7f0e; stroke: #ff7f0e"/>
    </g>
   </g>
   <g id="patch_3">
    <path d="M 54.81 526.5 
L 54.81 30.58125 
" style="fill: none; stroke: #cccccc; stroke-width: 1.25; stroke-linejoin: miter; stroke-linecap: square"/>
   </g>
   <g id="patch_4">
    <path d="M 845.95 526.5 
L 845.95 30.58125 
" style="fill: none; stroke: #cccccc; stroke-width: 1.25; stroke-linejoin: miter; stroke-linecap: square"/>
   </g>
   <g id="patch_5">
    <path d="M 54.81 526.5 
L 845.95 526.5 
" style="fill: none; stroke: #cccccc; stroke-width: 1.25; stroke-linejoin: miter; stroke-linecap: square"/>
   </g>
   <g id="patch_6">
    <path d="M 54.81 30.58125 
L 845.95 30.58125 
" style="fill: none; stroke: #cccccc; stroke-width: 1.25; stroke-linejoin: miter; stroke-linecap: square"/>
   </g>
   <g id="text_16">
    <!-- img-classification - cifar-100 (Accuracy) -->
    <g style="fill: #262626" transform="translate(299.22375 24.58125) scale(0.16 -0.16)">
     <defs>
      <path id="Arial-BoldMT-69" d="M 459 3769 
L 459 4581 
L 1338 4581 
L 1338 3769 
L 459 3769 
z
M 459 0 
L 459 3319 
L 1338 3319 
L 1338 0 
L 459 0 
z
" transform="scale(0.015625)"/>
      <path id="Arial-BoldMT-6d" d="M 394 3319 
L 1203 3319 
L 1203 2866 
Q 1638 3394 2238 3394 
Q 2556 3394 2790 3262 
Q 3025 3131 3175 2866 
Q 3394 3131 3647 3262 
Q 3900 3394 4188 3394 
Q 4553 3394 4806 3245 
Q 5059 3097 5184 2809 
Q 5275 2597 5275 2122 
L 5275 0 
L 4397 0 
L 4397 1897 
Q 4397 2391 4306 2534 
Q 4184 2722 3931 2722 
Q 3747 2722 3584 2609 
Q 3422 2497 3350 2280 
Q 3278 2063 3278 1594 
L 3278 0 
L 2400 0 
L 2400 1819 
Q 2400 2303 2353 2443 
Q 2306 2584 2207 2653 
Q 2109 2722 1941 2722 
Q 1738 2722 1575 2612 
Q 1413 2503 1342 2297 
Q 1272 2091 1272 1613 
L 1272 0 
L 394 0 
L 394 3319 
z
" transform="scale(0.015625)"/>
      <path id="Arial-BoldMT-67" d="M 378 -219 
L 1381 -341 
Q 1406 -516 1497 -581 
Q 1622 -675 1891 -675 
Q 2234 -675 2406 -572 
Q 2522 -503 2581 -350 
Q 2622 -241 2622 53 
L 2622 538 
Q 2228 0 1628 0 
Q 959 0 569 566 
Q 263 1013 263 1678 
Q 263 2513 664 2953 
Q 1066 3394 1663 3394 
Q 2278 3394 2678 2853 
L 2678 3319 
L 3500 3319 
L 3500 341 
Q 3500 -247 3403 -537 
Q 3306 -828 3131 -993 
Q 2956 -1159 2664 -1253 
Q 2372 -1347 1925 -1347 
Q 1081 -1347 728 -1058 
Q 375 -769 375 -325 
Q 375 -281 378 -219 
z
M 1163 1728 
Q 1163 1200 1367 954 
Q 1572 709 1872 709 
Q 2194 709 2416 961 
Q 2638 1213 2638 1706 
Q 2638 2222 2425 2472 
Q 2213 2722 1888 2722 
Q 1572 2722 1367 2476 
Q 1163 2231 1163 1728 
z
" transform="scale(0.015625)"/>
      <path id="Arial-BoldMT-2d" d="M 359 1222 
L 359 2100 
L 2084 2100 
L 2084 1222 
L 359 1222 
z
" transform="scale(0.015625)"/>
      <path id="Arial-BoldMT-63" d="M 3353 2338 
L 2488 2181 
Q 2444 2441 2289 2572 
Q 2134 2703 1888 2703 
Q 1559 2703 1364 2476 
Q 1169 2250 1169 1719 
Q 1169 1128 1367 884 
Q 1566 641 1900 641 
Q 2150 641 2309 783 
Q 2469 925 2534 1272 
L 3397 1125 
Q 3263 531 2881 228 
Q 2500 -75 1859 -75 
Q 1131 -75 698 384 
Q 266 844 266 1656 
Q 266 2478 700 2936 
Q 1134 3394 1875 3394 
Q 2481 3394 2839 3133 
Q 3197 2872 3353 2338 
z
" transform="scale(0.015625)"/>
      <path id="Arial-BoldMT-6c" d="M 459 0 
L 459 4581 
L 1338 4581 
L 1338 0 
L 459 0 
z
" transform="scale(0.015625)"/>
      <path id="Arial-BoldMT-61" d="M 1116 2306 
L 319 2450 
Q 453 2931 781 3162 
Q 1109 3394 1756 3394 
Q 2344 3394 2631 3255 
Q 2919 3116 3036 2902 
Q 3153 2688 3153 2116 
L 3144 1091 
Q 3144 653 3186 445 
Q 3228 238 3344 0 
L 2475 0 
Q 2441 88 2391 259 
Q 2369 338 2359 363 
Q 2134 144 1878 34 
Q 1622 -75 1331 -75 
Q 819 -75 523 203 
Q 228 481 228 906 
Q 228 1188 362 1408 
Q 497 1628 739 1745 
Q 981 1863 1438 1950 
Q 2053 2066 2291 2166 
L 2291 2253 
Q 2291 2506 2166 2614 
Q 2041 2722 1694 2722 
Q 1459 2722 1328 2630 
Q 1197 2538 1116 2306 
z
M 2291 1594 
Q 2122 1538 1756 1459 
Q 1391 1381 1278 1306 
Q 1106 1184 1106 997 
Q 1106 813 1243 678 
Q 1381 544 1594 544 
Q 1831 544 2047 700 
Q 2206 819 2256 991 
Q 2291 1103 2291 1419 
L 2291 1594 
z
" transform="scale(0.015625)"/>
      <path id="Arial-BoldMT-73" d="M 150 947 
L 1031 1081 
Q 1088 825 1259 692 
Q 1431 559 1741 559 
Q 2081 559 2253 684 
Q 2369 772 2369 919 
Q 2369 1019 2306 1084 
Q 2241 1147 2013 1200 
Q 950 1434 666 1628 
Q 272 1897 272 2375 
Q 272 2806 612 3100 
Q 953 3394 1669 3394 
Q 2350 3394 2681 3172 
Q 3013 2950 3138 2516 
L 2309 2363 
Q 2256 2556 2107 2659 
Q 1959 2763 1684 2763 
Q 1338 2763 1188 2666 
Q 1088 2597 1088 2488 
Q 1088 2394 1175 2328 
Q 1294 2241 1995 2081 
Q 2697 1922 2975 1691 
Q 3250 1456 3250 1038 
Q 3250 581 2869 253 
Q 2488 -75 1741 -75 
Q 1063 -75 667 200 
Q 272 475 150 947 
z
" transform="scale(0.015625)"/>
      <path id="Arial-BoldMT-66" d="M 75 3319 
L 563 3319 
L 563 3569 
Q 563 3988 652 4194 
Q 741 4400 980 4529 
Q 1219 4659 1584 4659 
Q 1959 4659 2319 4547 
L 2200 3934 
Q 1991 3984 1797 3984 
Q 1606 3984 1523 3895 
Q 1441 3806 1441 3553 
L 1441 3319 
L 2097 3319 
L 2097 2628 
L 1441 2628 
L 1441 0 
L 563 0 
L 563 2628 
L 75 2628 
L 75 3319 
z
" transform="scale(0.015625)"/>
      <path id="Arial-BoldMT-74" d="M 1981 3319 
L 1981 2619 
L 1381 2619 
L 1381 1281 
Q 1381 875 1398 808 
Q 1416 741 1477 697 
Q 1538 653 1625 653 
Q 1747 653 1978 738 
L 2053 56 
Q 1747 -75 1359 -75 
Q 1122 -75 931 4 
Q 741 84 652 211 
Q 563 338 528 553 
Q 500 706 500 1172 
L 500 2619 
L 97 2619 
L 97 3319 
L 500 3319 
L 500 3978 
L 1381 4491 
L 1381 3319 
L 1981 3319 
z
" transform="scale(0.015625)"/>
      <path id="Arial-BoldMT-6f" d="M 256 1706 
Q 256 2144 472 2553 
Q 688 2963 1083 3178 
Q 1478 3394 1966 3394 
Q 2719 3394 3200 2905 
Q 3681 2416 3681 1669 
Q 3681 916 3195 420 
Q 2709 -75 1972 -75 
Q 1516 -75 1102 131 
Q 688 338 472 736 
Q 256 1134 256 1706 
z
M 1156 1659 
Q 1156 1166 1390 903 
Q 1625 641 1969 641 
Q 2313 641 2545 903 
Q 2778 1166 2778 1666 
Q 2778 2153 2545 2415 
Q 2313 2678 1969 2678 
Q 1625 2678 1390 2415 
Q 1156 2153 1156 1659 
z
" transform="scale(0.015625)"/>
      <path id="Arial-BoldMT-6e" d="M 3478 0 
L 2600 0 
L 2600 1694 
Q 2600 2231 2544 2389 
Q 2488 2547 2361 2634 
Q 2234 2722 2056 2722 
Q 1828 2722 1647 2597 
Q 1466 2472 1398 2265 
Q 1331 2059 1331 1503 
L 1331 0 
L 453 0 
L 453 3319 
L 1269 3319 
L 1269 2831 
Q 1703 3394 2363 3394 
Q 2653 3394 2893 3289 
Q 3134 3184 3257 3021 
Q 3381 2859 3429 2653 
Q 3478 2447 3478 2063 
L 3478 0 
z
" transform="scale(0.015625)"/>
      <path id="Arial-BoldMT-20" transform="scale(0.015625)"/>
      <path id="Arial-BoldMT-72" d="M 1300 0 
L 422 0 
L 422 3319 
L 1238 3319 
L 1238 2847 
Q 1447 3181 1614 3287 
Q 1781 3394 1994 3394 
Q 2294 3394 2572 3228 
L 2300 2463 
Q 2078 2606 1888 2606 
Q 1703 2606 1575 2504 
Q 1447 2403 1373 2137 
Q 1300 1872 1300 1025 
L 1300 0 
z
" transform="scale(0.015625)"/>
      <path id="Arial-BoldMT-31" d="M 2519 0 
L 1641 0 
L 1641 3309 
Q 1159 2859 506 2644 
L 506 3441 
Q 850 3553 1253 3867 
Q 1656 4181 1806 4600 
L 2519 4600 
L 2519 0 
z
" transform="scale(0.015625)"/>
      <path id="Arial-BoldMT-30" d="M 1756 4600 
Q 2422 4600 2797 4125 
Q 3244 3563 3244 2259 
Q 3244 959 2794 391 
Q 2422 -78 1756 -78 
Q 1088 -78 678 436 
Q 269 950 269 2269 
Q 269 3563 719 4131 
Q 1091 4600 1756 4600 
z
M 1756 3872 
Q 1597 3872 1472 3770 
Q 1347 3669 1278 3406 
Q 1188 3066 1188 2259 
Q 1188 1453 1269 1151 
Q 1350 850 1473 750 
Q 1597 650 1756 650 
Q 1916 650 2041 751 
Q 2166 853 2234 1116 
Q 2325 1453 2325 2259 
Q 2325 3066 2244 3367 
Q 2163 3669 2039 3770 
Q 1916 3872 1756 3872 
z
" transform="scale(0.015625)"/>
      <path id="Arial-BoldMT-28" d="M 1916 -1347 
L 1313 -1347 
Q 834 -625 584 153 
Q 334 931 334 1659 
Q 334 2563 644 3369 
Q 913 4069 1325 4659 
L 1925 4659 
Q 1497 3713 1336 3048 
Q 1175 2384 1175 1641 
Q 1175 1128 1270 590 
Q 1366 53 1531 -431 
Q 1641 -750 1916 -1347 
z
" transform="scale(0.015625)"/>
      <path id="Arial-BoldMT-41" d="M 4597 0 
L 3591 0 
L 3191 1041 
L 1359 1041 
L 981 0 
L 0 0 
L 1784 4581 
L 2763 4581 
L 4597 0 
z
M 2894 1813 
L 2263 3513 
L 1644 1813 
L 2894 1813 
z
" transform="scale(0.015625)"/>
      <path id="Arial-BoldMT-75" d="M 2644 0 
L 2644 497 
Q 2463 231 2167 78 
Q 1872 -75 1544 -75 
Q 1209 -75 943 72 
Q 678 219 559 484 
Q 441 750 441 1219 
L 441 3319 
L 1319 3319 
L 1319 1794 
Q 1319 1094 1367 936 
Q 1416 778 1544 686 
Q 1672 594 1869 594 
Q 2094 594 2272 717 
Q 2450 841 2515 1023 
Q 2581 1206 2581 1919 
L 2581 3319 
L 3459 3319 
L 3459 0 
L 2644 0 
z
" transform="scale(0.015625)"/>
      <path id="Arial-BoldMT-79" d="M 44 3319 
L 978 3319 
L 1772 963 
L 2547 3319 
L 3456 3319 
L 2284 125 
L 2075 -453 
Q 1959 -744 1854 -897 
Q 1750 -1050 1614 -1145 
Q 1478 -1241 1279 -1294 
Q 1081 -1347 831 -1347 
Q 578 -1347 334 -1294 
L 256 -606 
Q 463 -647 628 -647 
Q 934 -647 1081 -467 
Q 1228 -288 1306 -9 
L 44 3319 
z
" transform="scale(0.015625)"/>
      <path id="Arial-BoldMT-29" d="M 216 -1347 
Q 475 -791 581 -494 
Q 688 -197 778 190 
Q 869 578 912 926 
Q 956 1275 956 1641 
Q 956 2384 797 3048 
Q 638 3713 209 4659 
L 806 4659 
Q 1278 3988 1539 3234 
Q 1800 2481 1800 1706 
Q 1800 1053 1594 306 
Q 1359 -531 822 -1347 
L 216 -1347 
z
" transform="scale(0.015625)"/>
     </defs>
     <use xlink:href="#Arial-BoldMT-69"/>
     <use xlink:href="#Arial-BoldMT-6d" transform="translate(27.783203 0)"/>
     <use xlink:href="#Arial-BoldMT-67" transform="translate(116.699219 0)"/>
     <use xlink:href="#Arial-BoldMT-2d" transform="translate(177.783203 0)"/>
     <use xlink:href="#Arial-BoldMT-63" transform="translate(211.083984 0)"/>
     <use xlink:href="#Arial-BoldMT-6c" transform="translate(266.699219 0)"/>
     <use xlink:href="#Arial-BoldMT-61" transform="translate(294.482422 0)"/>
     <use xlink:href="#Arial-BoldMT-73" transform="translate(350.097656 0)"/>
     <use xlink:href="#Arial-BoldMT-73" transform="translate(405.712891 0)"/>
     <use xlink:href="#Arial-BoldMT-69" transform="translate(461.328125 0)"/>
     <use xlink:href="#Arial-BoldMT-66" transform="translate(489.111328 0)"/>
     <use xlink:href="#Arial-BoldMT-69" transform="translate(522.412109 0)"/>
     <use xlink:href="#Arial-BoldMT-63" transform="translate(550.195312 0)"/>
     <use xlink:href="#Arial-BoldMT-61" transform="translate(605.810547 0)"/>
     <use xlink:href="#Arial-BoldMT-74" transform="translate(661.425781 0)"/>
     <use xlink:href="#Arial-BoldMT-69" transform="translate(694.726562 0)"/>
     <use xlink:href="#Arial-BoldMT-6f" transform="translate(722.509766 0)"/>
     <use xlink:href="#Arial-BoldMT-6e" transform="translate(783.59375 0)"/>
     <use xlink:href="#Arial-BoldMT-20" transform="translate(844.677734 0)"/>
     <use xlink:href="#Arial-BoldMT-2d" transform="translate(872.460938 0)"/>
     <use xlink:href="#Arial-BoldMT-20" transform="translate(905.761719 0)"/>
     <use xlink:href="#Arial-BoldMT-63" transform="translate(933.544922 0)"/>
     <use xlink:href="#Arial-BoldMT-69" transform="translate(989.160156 0)"/>
     <use xlink:href="#Arial-BoldMT-66" transform="translate(1016.943359 0)"/>
     <use xlink:href="#Arial-BoldMT-61" transform="translate(1050.244141 0)"/>
     <use xlink:href="#Arial-BoldMT-72" transform="translate(1105.859375 0)"/>
     <use xlink:href="#Arial-BoldMT-2d" transform="translate(1144.775391 0)"/>
     <use xlink:href="#Arial-BoldMT-31" transform="translate(1178.076172 0)"/>
     <use xlink:href="#Arial-BoldMT-30" transform="translate(1233.691406 0)"/>
     <use xlink:href="#Arial-BoldMT-30" transform="translate(1289.306641 0)"/>
     <use xlink:href="#Arial-BoldMT-20" transform="translate(1344.921875 0)"/>
     <use xlink:href="#Arial-BoldMT-28" transform="translate(1372.705078 0)"/>
     <use xlink:href="#Arial-BoldMT-41" transform="translate(1406.005859 0)"/>
     <use xlink:href="#Arial-BoldMT-63" transform="translate(1478.222656 0)"/>
     <use xlink:href="#Arial-BoldMT-63" transform="translate(1533.837891 0)"/>
     <use xlink:href="#Arial-BoldMT-75" transform="translate(1589.453125 0)"/>
     <use xlink:href="#Arial-BoldMT-72" transform="translate(1650.537109 0)"/>
     <use xlink:href="#Arial-BoldMT-61" transform="translate(1689.453125 0)"/>
     <use xlink:href="#Arial-BoldMT-63" transform="translate(1745.068359 0)"/>
     <use xlink:href="#Arial-BoldMT-79" transform="translate(1800.683594 0)"/>
     <use xlink:href="#Arial-BoldMT-29" transform="translate(1856.298828 0)"/>
    </g>
   </g>
   <g id="legend_1">
    <g id="patch_7">
     <path d="M 892.507 81.017187 
L 993.4195 81.017187 
Q 995.4195 81.017187 995.4195 79.017187 
L 995.4195 37.58125 
Q 995.4195 35.58125 993.4195 35.58125 
L 892.507 35.58125 
Q 890.507 35.58125 890.507 37.58125 
L 890.507 79.017187 
Q 890.507 81.017187 892.507 81.017187 
z
" style="fill: #ffffff; opacity: 0.8; stroke: #cccccc; stroke-linejoin: miter"/>
    </g>
    <g id="line2d_17">
     <path d="M 894.507 43.239062 
L 904.507 43.239062 
L 914.507 43.239062 
" style="fill: none; stroke: #1f77b4; stroke-width: 2; stroke-linecap: round"/>
     <g>
      <use xlink:href="#ma0d5c39165" x="904.507" y="43.239062" style="fill: #1f77b4; stroke: #1f77b4"/>
     </g>
    </g>
    <g id="text_17">
     <!-- AirNet - Mean -->
     <g style="fill: #262626" transform="translate(922.507 46.739062) scale(0.1 -0.1)">
      <defs>
       <path id="ArialMT-69" d="M 425 3934 
L 425 4581 
L 988 4581 
L 988 3934 
L 425 3934 
z
M 425 0 
L 425 3319 
L 988 3319 
L 988 0 
L 425 0 
z
" transform="scale(0.015625)"/>
       <path id="ArialMT-4e" d="M 488 0 
L 488 4581 
L 1109 4581 
L 3516 984 
L 3516 4581 
L 4097 4581 
L 4097 0 
L 3475 0 
L 1069 3600 
L 1069 0 
L 488 0 
z
" transform="scale(0.015625)"/>
       <path id="ArialMT-65" d="M 2694 1069 
L 3275 997 
Q 3138 488 2766 206 
Q 2394 -75 1816 -75 
Q 1088 -75 661 373 
Q 234 822 234 1631 
Q 234 2469 665 2931 
Q 1097 3394 1784 3394 
Q 2450 3394 2872 2941 
Q 3294 2488 3294 1666 
Q 3294 1616 3291 1516 
L 816 1516 
Q 847 969 1125 678 
Q 1403 388 1819 388 
Q 2128 388 2347 550 
Q 2566 713 2694 1069 
z
M 847 1978 
L 2700 1978 
Q 2663 2397 2488 2606 
Q 2219 2931 1791 2931 
Q 1403 2931 1139 2672 
Q 875 2413 847 1978 
z
" transform="scale(0.015625)"/>
       <path id="ArialMT-74" d="M 1650 503 
L 1731 6 
Q 1494 -44 1306 -44 
Q 1000 -44 831 53 
Q 663 150 594 308 
Q 525 466 525 972 
L 525 2881 
L 113 2881 
L 113 3319 
L 525 3319 
L 525 4141 
L 1084 4478 
L 1084 3319 
L 1650 3319 
L 1650 2881 
L 1084 2881 
L 1084 941 
Q 1084 700 1114 631 
Q 1144 563 1211 522 
Q 1278 481 1403 481 
Q 1497 481 1650 503 
z
" transform="scale(0.015625)"/>
       <path id="ArialMT-20" transform="scale(0.015625)"/>
       <path id="ArialMT-2d" d="M 203 1375 
L 203 1941 
L 1931 1941 
L 1931 1375 
L 203 1375 
z
" transform="scale(0.015625)"/>
       <path id="ArialMT-4d" d="M 475 0 
L 475 4581 
L 1388 4581 
L 2472 1338 
Q 2622 884 2691 659 
Q 2769 909 2934 1394 
L 4031 4581 
L 4847 4581 
L 4847 0 
L 4263 0 
L 4263 3834 
L 2931 0 
L 2384 0 
L 1059 3900 
L 1059 0 
L 475 0 
z
" transform="scale(0.015625)"/>
       <path id="ArialMT-6e" d="M 422 0 
L 422 3319 
L 928 3319 
L 928 2847 
Q 1294 3394 1984 3394 
Q 2284 3394 2536 3286 
Q 2788 3178 2913 3003 
Q 3038 2828 3088 2588 
Q 3119 2431 3119 2041 
L 3119 0 
L 2556 0 
L 2556 2019 
Q 2556 2363 2490 2533 
Q 2425 2703 2258 2804 
Q 2091 2906 1866 2906 
Q 1506 2906 1245 2678 
Q 984 2450 984 1813 
L 984 0 
L 422 0 
z
" transform="scale(0.015625)"/>
      </defs>
      <use xlink:href="#ArialMT-41"/>
      <use xlink:href="#ArialMT-69" transform="translate(66.699219 0)"/>
      <use xlink:href="#ArialMT-72" transform="translate(88.916016 0)"/>
      <use xlink:href="#ArialMT-4e" transform="translate(122.216797 0)"/>
      <use xlink:href="#ArialMT-65" transform="translate(194.433594 0)"/>
      <use xlink:href="#ArialMT-74" transform="translate(250.048828 0)"/>
      <use xlink:href="#ArialMT-20" transform="translate(277.832031 0)"/>
      <use xlink:href="#ArialMT-2d" transform="translate(305.615234 0)"/>
      <use xlink:href="#ArialMT-20" transform="translate(338.916016 0)"/>
      <use xlink:href="#ArialMT-4d" transform="translate(366.699219 0)"/>
      <use xlink:href="#ArialMT-65" transform="translate(450 0)"/>
      <use xlink:href="#ArialMT-61" transform="translate(505.615234 0)"/>
      <use xlink:href="#ArialMT-6e" transform="translate(561.230469 0)"/>
     </g>
    </g>
    <g id="line2d_18">
     <path d="M 894.507 57.384375 
L 904.507 57.384375 
L 914.507 57.384375 
" style="fill: none; stroke: #aec7e8; stroke-width: 2; stroke-linecap: round"/>
     <g>
      <use xlink:href="#m8003d8b1bc" x="904.507" y="57.384375" style="fill: #aec7e8; stroke: #aec7e8"/>
     </g>
    </g>
    <g id="text_18">
     <!-- AirNext - Mean -->
     <g style="fill: #262626" transform="translate(922.507 60.884375) scale(0.1 -0.1)">
      <defs>
       <path id="ArialMT-78" d="M 47 0 
L 1259 1725 
L 138 3319 
L 841 3319 
L 1350 2541 
Q 1494 2319 1581 2169 
Q 1719 2375 1834 2534 
L 2394 3319 
L 3066 3319 
L 1919 1756 
L 3153 0 
L 2463 0 
L 1781 1031 
L 1600 1309 
L 728 0 
L 47 0 
z
" transform="scale(0.015625)"/>
      </defs>
      <use xlink:href="#ArialMT-41"/>
      <use xlink:href="#ArialMT-69" transform="translate(66.699219 0)"/>
      <use xlink:href="#ArialMT-72" transform="translate(88.916016 0)"/>
      <use xlink:href="#ArialMT-4e" transform="translate(122.216797 0)"/>
      <use xlink:href="#ArialMT-65" transform="translate(194.433594 0)"/>
      <use xlink:href="#ArialMT-78" transform="translate(250.048828 0)"/>
      <use xlink:href="#ArialMT-74" transform="translate(300.048828 0)"/>
      <use xlink:href="#ArialMT-20" transform="translate(327.832031 0)"/>
      <use xlink:href="#ArialMT-2d" transform="translate(355.615234 0)"/>
      <use xlink:href="#ArialMT-20" transform="translate(388.916016 0)"/>
      <use xlink:href="#ArialMT-4d" transform="translate(416.699219 0)"/>
      <use xlink:href="#ArialMT-65" transform="translate(500 0)"/>
      <use xlink:href="#ArialMT-61" transform="translate(555.615234 0)"/>
      <use xlink:href="#ArialMT-6e" transform="translate(611.230469 0)"/>
     </g>
    </g>
    <g id="line2d_19">
     <path d="M 894.507 71.529687 
L 904.507 71.529687 
L 914.507 71.529687 
" style="fill: none; stroke: #ff7f0e; stroke-width: 2; stroke-linecap: round"/>
     <g>
      <use xlink:href="#mca0ea540c7" x="904.507" y="71.529687" style="fill: #ff7f0e; stroke: #ff7f0e"/>
     </g>
    </g>
    <g id="text_19">
     <!-- AlexNet - Mean -->
     <g style="fill: #262626" transform="translate(922.507 75.029687) scale(0.1 -0.1)">
      <defs>
       <path id="ArialMT-6c" d="M 409 0 
L 409 4581 
L 972 4581 
L 972 0 
L 409 0 
z
" transform="scale(0.015625)"/>
      </defs>
      <use xlink:href="#ArialMT-41"/>
      <use xlink:href="#ArialMT-6c" transform="translate(66.699219 0)"/>
      <use xlink:href="#ArialMT-65" transform="translate(88.916016 0)"/>
      <use xlink:href="#ArialMT-78" transform="translate(144.53125 0)"/>
      <use xlink:href="#ArialMT-4e" transform="translate(194.53125 0)"/>
      <use xlink:href="#ArialMT-65" transform="translate(266.748047 0)"/>
      <use xlink:href="#ArialMT-74" transform="translate(322.363281 0)"/>
      <use xlink:href="#ArialMT-20" transform="translate(350.146484 0)"/>
      <use xlink:href="#ArialMT-2d" transform="translate(377.929688 0)"/>
      <use xlink:href="#ArialMT-20" transform="translate(411.230469 0)"/>
      <use xlink:href="#ArialMT-4d" transform="translate(439.013672 0)"/>
      <use xlink:href="#ArialMT-65" transform="translate(522.314453 0)"/>
      <use xlink:href="#ArialMT-61" transform="translate(577.929688 0)"/>
      <use xlink:href="#ArialMT-6e" transform="translate(633.544922 0)"/>
     </g>
    </g>
   </g>
  </g>
 </g>
 <defs>
  <clipPath id="pd4efac0f93">
   <rect x="54.81" y="30.58125" width="791.14" height="495.91875"/>
  </clipPath>
 </defs>
</svg>
