<?xml version="1.0" encoding="utf-8" standalone="no"?>
<!DOCTYPE svg PUBLIC "-//W3C//DTD SVG 1.1//EN"
  "http://www.w3.org/Graphics/SVG/1.1/DTD/svg11.dtd">
<svg xmlns:xlink="http://www.w3.org/1999/xlink" width="1008pt" height="576pt" viewBox="0 0 1008 576" xmlns="http://www.w3.org/2000/svg" version="1.1">
 <metadata>
  <rdf:RDF xmlns:dc="http://purl.org/dc/elements/1.1/" xmlns:cc="http://creativecommons.org/ns#" xmlns:rdf="http://www.w3.org/1999/02/22-rdf-syntax-ns#">
   <cc:Work>
    <dc:type rdf:resource="http://purl.org/dc/dcmitype/StillImage"/>
    <dc:date>2025-01-27T01:14:31.020561</dc:date>
    <dc:format>image/svg+xml</dc:format>
    <dc:creator>
     <cc:Agent>
      <dc:title>Matplotlib v3.10.0, https://matplotlib.org/</dc:title>
     </cc:Agent>
    </dc:creator>
   </cc:Work>
  </rdf:RDF>
 </metadata>
 <defs>
  <style type="text/css">*{stroke-linejoin: round; stroke-linecap: butt}</style>
 </defs>
 <g id="figure_1">
  <g id="patch_1">
   <path d="M 0 576 
L 1008 576 
L 1008 0 
L 0 0 
z
" style="fill: #ffffff"/>
  </g>
  <g id="axes_1">
   <g id="patch_2">
    <path d="M 54.81 526.5 
L 845.95 526.5 
L 845.95 30.58125 
L 54.81 30.58125 
z
" style="fill: #ffffff"/>
   </g>
   <g id="matplotlib.axis_1">
    <g id="xtick_1">
     <g id="line2d_1">
      <path d="M 76.092987 526.5 
L 76.092987 30.58125 
" clip-path="url(#pa924a892cc)" style="fill: none; stroke-dasharray: 3.7,1.6; stroke-dashoffset: 0; stroke: #cccccc; stroke-opacity: 0.5"/>
     </g>
     <g id="text_1">
      <!-- 0 -->
      <g style="fill: #262626" transform="translate(73.034471 543.873594) scale(0.11 -0.11)">
       <defs>
        <path id="ArialMT-30" d="M 266 2259 
Q 266 3072 433 3567 
Q 600 4063 929 4331 
Q 1259 4600 1759 4600 
Q 2128 4600 2406 4451 
Q 2684 4303 2865 4023 
Q 3047 3744 3150 3342 
Q 3253 2941 3253 2259 
Q 3253 1453 3087 958 
Q 2922 463 2592 192 
Q 2263 -78 1759 -78 
Q 1097 -78 719 397 
Q 266 969 266 2259 
z
M 844 2259 
Q 844 1131 1108 757 
Q 1372 384 1759 384 
Q 2147 384 2411 759 
Q 2675 1134 2675 2259 
Q 2675 3391 2411 3762 
Q 2147 4134 1753 4134 
Q 1366 4134 1134 3806 
Q 844 3388 844 2259 
z
" transform="scale(0.015625)"/>
       </defs>
       <use xlink:href="#ArialMT-30"/>
      </g>
     </g>
    </g>
    <g id="xtick_2">
     <g id="line2d_2">
      <path d="M 222.872208 526.5 
L 222.872208 30.58125 
" clip-path="url(#pa924a892cc)" style="fill: none; stroke-dasharray: 3.7,1.6; stroke-dashoffset: 0; stroke: #cccccc; stroke-opacity: 0.5"/>
     </g>
     <g id="text_2">
      <!-- 10 -->
      <g style="fill: #262626" transform="translate(216.755177 543.873594) scale(0.11 -0.11)">
       <defs>
        <path id="ArialMT-31" d="M 2384 0 
L 1822 0 
L 1822 3584 
Q 1619 3391 1289 3197 
Q 959 3003 697 2906 
L 697 3450 
Q 1169 3672 1522 3987 
Q 1875 4303 2022 4600 
L 2384 4600 
L 2384 0 
z
" transform="scale(0.015625)"/>
       </defs>
       <use xlink:href="#ArialMT-31"/>
       <use xlink:href="#ArialMT-30" transform="translate(55.615234 0)"/>
      </g>
     </g>
    </g>
    <g id="xtick_3">
     <g id="line2d_3">
      <path d="M 369.651429 526.5 
L 369.651429 30.58125 
" clip-path="url(#pa924a892cc)" style="fill: none; stroke-dasharray: 3.7,1.6; stroke-dashoffset: 0; stroke: #cccccc; stroke-opacity: 0.5"/>
     </g>
     <g id="text_3">
      <!-- 20 -->
      <g style="fill: #262626" transform="translate(363.534397 543.873594) scale(0.11 -0.11)">
       <defs>
        <path id="ArialMT-32" d="M 3222 541 
L 3222 0 
L 194 0 
Q 188 203 259 391 
Q 375 700 629 1000 
Q 884 1300 1366 1694 
Q 2113 2306 2375 2664 
Q 2638 3022 2638 3341 
Q 2638 3675 2398 3904 
Q 2159 4134 1775 4134 
Q 1369 4134 1125 3890 
Q 881 3647 878 3216 
L 300 3275 
Q 359 3922 746 4261 
Q 1134 4600 1788 4600 
Q 2447 4600 2831 4234 
Q 3216 3869 3216 3328 
Q 3216 3053 3103 2787 
Q 2991 2522 2730 2228 
Q 2469 1934 1863 1422 
Q 1356 997 1212 845 
Q 1069 694 975 541 
L 3222 541 
z
" transform="scale(0.015625)"/>
       </defs>
       <use xlink:href="#ArialMT-32"/>
       <use xlink:href="#ArialMT-30" transform="translate(55.615234 0)"/>
      </g>
     </g>
    </g>
    <g id="xtick_4">
     <g id="line2d_4">
      <path d="M 516.430649 526.5 
L 516.430649 30.58125 
" clip-path="url(#pa924a892cc)" style="fill: none; stroke-dasharray: 3.7,1.6; stroke-dashoffset: 0; stroke: #cccccc; stroke-opacity: 0.5"/>
     </g>
     <g id="text_4">
      <!-- 30 -->
      <g style="fill: #262626" transform="translate(510.313618 543.873594) scale(0.11 -0.11)">
       <defs>
        <path id="ArialMT-33" d="M 269 1209 
L 831 1284 
Q 928 806 1161 595 
Q 1394 384 1728 384 
Q 2125 384 2398 659 
Q 2672 934 2672 1341 
Q 2672 1728 2419 1979 
Q 2166 2231 1775 2231 
Q 1616 2231 1378 2169 
L 1441 2663 
Q 1497 2656 1531 2656 
Q 1891 2656 2178 2843 
Q 2466 3031 2466 3422 
Q 2466 3731 2256 3934 
Q 2047 4138 1716 4138 
Q 1388 4138 1169 3931 
Q 950 3725 888 3313 
L 325 3413 
Q 428 3978 793 4289 
Q 1159 4600 1703 4600 
Q 2078 4600 2393 4439 
Q 2709 4278 2876 4000 
Q 3044 3722 3044 3409 
Q 3044 3113 2884 2869 
Q 2725 2625 2413 2481 
Q 2819 2388 3044 2092 
Q 3269 1797 3269 1353 
Q 3269 753 2831 336 
Q 2394 -81 1725 -81 
Q 1122 -81 723 278 
Q 325 638 269 1209 
z
" transform="scale(0.015625)"/>
       </defs>
       <use xlink:href="#ArialMT-33"/>
       <use xlink:href="#ArialMT-30" transform="translate(55.615234 0)"/>
      </g>
     </g>
    </g>
    <g id="xtick_5">
     <g id="line2d_5">
      <path d="M 663.20987 526.5 
L 663.20987 30.58125 
" clip-path="url(#pa924a892cc)" style="fill: none; stroke-dasharray: 3.7,1.6; stroke-dashoffset: 0; stroke: #cccccc; stroke-opacity: 0.5"/>
     </g>
     <g id="text_5">
      <!-- 40 -->
      <g style="fill: #262626" transform="translate(657.092839 543.873594) scale(0.11 -0.11)">
       <defs>
        <path id="ArialMT-34" d="M 2069 0 
L 2069 1097 
L 81 1097 
L 81 1613 
L 2172 4581 
L 2631 4581 
L 2631 1613 
L 3250 1613 
L 3250 1097 
L 2631 1097 
L 2631 0 
L 2069 0 
z
M 2069 1613 
L 2069 3678 
L 634 1613 
L 2069 1613 
z
" transform="scale(0.015625)"/>
       </defs>
       <use xlink:href="#ArialMT-34"/>
       <use xlink:href="#ArialMT-30" transform="translate(55.615234 0)"/>
      </g>
     </g>
    </g>
    <g id="xtick_6">
     <g id="line2d_6">
      <path d="M 809.989091 526.5 
L 809.989091 30.58125 
" clip-path="url(#pa924a892cc)" style="fill: none; stroke-dasharray: 3.7,1.6; stroke-dashoffset: 0; stroke: #cccccc; stroke-opacity: 0.5"/>
     </g>
     <g id="text_6">
      <!-- 50 -->
      <g style="fill: #262626" transform="translate(803.87206 543.873594) scale(0.11 -0.11)">
       <defs>
        <path id="ArialMT-35" d="M 266 1200 
L 856 1250 
Q 922 819 1161 601 
Q 1400 384 1738 384 
Q 2144 384 2425 690 
Q 2706 997 2706 1503 
Q 2706 1984 2436 2262 
Q 2166 2541 1728 2541 
Q 1456 2541 1237 2417 
Q 1019 2294 894 2097 
L 366 2166 
L 809 4519 
L 3088 4519 
L 3088 3981 
L 1259 3981 
L 1013 2750 
Q 1425 3038 1878 3038 
Q 2478 3038 2890 2622 
Q 3303 2206 3303 1553 
Q 3303 931 2941 478 
Q 2500 -78 1738 -78 
Q 1113 -78 717 272 
Q 322 622 266 1200 
z
" transform="scale(0.015625)"/>
       </defs>
       <use xlink:href="#ArialMT-35"/>
       <use xlink:href="#ArialMT-30" transform="translate(55.615234 0)"/>
      </g>
     </g>
    </g>
    <g id="text_7">
     <!-- Epoch -->
     <g style="fill: #262626" transform="translate(430.532813 560.080781) scale(0.14 -0.14)">
      <defs>
       <path id="ArialMT-45" d="M 506 0 
L 506 4581 
L 3819 4581 
L 3819 4041 
L 1113 4041 
L 1113 2638 
L 3647 2638 
L 3647 2100 
L 1113 2100 
L 1113 541 
L 3925 541 
L 3925 0 
L 506 0 
z
" transform="scale(0.015625)"/>
       <path id="ArialMT-70" d="M 422 -1272 
L 422 3319 
L 934 3319 
L 934 2888 
Q 1116 3141 1344 3267 
Q 1572 3394 1897 3394 
Q 2322 3394 2647 3175 
Q 2972 2956 3137 2557 
Q 3303 2159 3303 1684 
Q 3303 1175 3120 767 
Q 2938 359 2589 142 
Q 2241 -75 1856 -75 
Q 1575 -75 1351 44 
Q 1128 163 984 344 
L 984 -1272 
L 422 -1272 
z
M 931 1641 
Q 931 1000 1190 694 
Q 1450 388 1819 388 
Q 2194 388 2461 705 
Q 2728 1022 2728 1688 
Q 2728 2322 2467 2637 
Q 2206 2953 1844 2953 
Q 1484 2953 1207 2617 
Q 931 2281 931 1641 
z
" transform="scale(0.015625)"/>
       <path id="ArialMT-6f" d="M 213 1659 
Q 213 2581 725 3025 
Q 1153 3394 1769 3394 
Q 2453 3394 2887 2945 
Q 3322 2497 3322 1706 
Q 3322 1066 3130 698 
Q 2938 331 2570 128 
Q 2203 -75 1769 -75 
Q 1072 -75 642 372 
Q 213 819 213 1659 
z
M 791 1659 
Q 791 1022 1069 705 
Q 1347 388 1769 388 
Q 2188 388 2466 706 
Q 2744 1025 2744 1678 
Q 2744 2294 2464 2611 
Q 2184 2928 1769 2928 
Q 1347 2928 1069 2612 
Q 791 2297 791 1659 
z
" transform="scale(0.015625)"/>
       <path id="ArialMT-63" d="M 2588 1216 
L 3141 1144 
Q 3050 572 2676 248 
Q 2303 -75 1759 -75 
Q 1078 -75 664 370 
Q 250 816 250 1647 
Q 250 2184 428 2587 
Q 606 2991 970 3192 
Q 1334 3394 1763 3394 
Q 2303 3394 2647 3120 
Q 2991 2847 3088 2344 
L 2541 2259 
Q 2463 2594 2264 2762 
Q 2066 2931 1784 2931 
Q 1359 2931 1093 2626 
Q 828 2322 828 1663 
Q 828 994 1084 691 
Q 1341 388 1753 388 
Q 2084 388 2306 591 
Q 2528 794 2588 1216 
z
" transform="scale(0.015625)"/>
       <path id="ArialMT-68" d="M 422 0 
L 422 4581 
L 984 4581 
L 984 2938 
Q 1378 3394 1978 3394 
Q 2347 3394 2619 3248 
Q 2891 3103 3008 2847 
Q 3125 2591 3125 2103 
L 3125 0 
L 2563 0 
L 2563 2103 
Q 2563 2525 2380 2717 
Q 2197 2909 1863 2909 
Q 1613 2909 1392 2779 
Q 1172 2650 1078 2428 
Q 984 2206 984 1816 
L 984 0 
L 422 0 
z
" transform="scale(0.015625)"/>
      </defs>
      <use xlink:href="#ArialMT-45"/>
      <use xlink:href="#ArialMT-70" transform="translate(66.699219 0)"/>
      <use xlink:href="#ArialMT-6f" transform="translate(122.314453 0)"/>
      <use xlink:href="#ArialMT-63" transform="translate(177.929688 0)"/>
      <use xlink:href="#ArialMT-68" transform="translate(227.929688 0)"/>
     </g>
    </g>
   </g>
   <g id="matplotlib.axis_2">
    <g id="ytick_1">
     <g id="line2d_7">
      <path d="M 54.81 435.954311 
L 845.95 435.954311 
" clip-path="url(#pa924a892cc)" style="fill: none; stroke-dasharray: 3.7,1.6; stroke-dashoffset: 0; stroke: #cccccc; stroke-opacity: 0.5"/>
     </g>
     <g id="text_8">
      <!-- 0.2 -->
      <g style="fill: #262626" transform="translate(30.02 439.891108) scale(0.11 -0.11)">
       <defs>
        <path id="ArialMT-2e" d="M 581 0 
L 581 641 
L 1222 641 
L 1222 0 
L 581 0 
z
" transform="scale(0.015625)"/>
       </defs>
       <use xlink:href="#ArialMT-30"/>
       <use xlink:href="#ArialMT-2e" transform="translate(55.615234 0)"/>
       <use xlink:href="#ArialMT-32" transform="translate(83.398438 0)"/>
      </g>
     </g>
    </g>
    <g id="ytick_2">
     <g id="line2d_8">
      <path d="M 54.81 336.315626 
L 845.95 336.315626 
" clip-path="url(#pa924a892cc)" style="fill: none; stroke-dasharray: 3.7,1.6; stroke-dashoffset: 0; stroke: #cccccc; stroke-opacity: 0.5"/>
     </g>
     <g id="text_9">
      <!-- 0.4 -->
      <g style="fill: #262626" transform="translate(30.02 340.252423) scale(0.11 -0.11)">
       <use xlink:href="#ArialMT-30"/>
       <use xlink:href="#ArialMT-2e" transform="translate(55.615234 0)"/>
       <use xlink:href="#ArialMT-34" transform="translate(83.398438 0)"/>
      </g>
     </g>
    </g>
    <g id="ytick_3">
     <g id="line2d_9">
      <path d="M 54.81 236.676941 
L 845.95 236.676941 
" clip-path="url(#pa924a892cc)" style="fill: none; stroke-dasharray: 3.7,1.6; stroke-dashoffset: 0; stroke: #cccccc; stroke-opacity: 0.5"/>
     </g>
     <g id="text_10">
      <!-- 0.6 -->
      <g style="fill: #262626" transform="translate(30.02 240.613738) scale(0.11 -0.11)">
       <defs>
        <path id="ArialMT-36" d="M 3184 3459 
L 2625 3416 
Q 2550 3747 2413 3897 
Q 2184 4138 1850 4138 
Q 1581 4138 1378 3988 
Q 1113 3794 959 3422 
Q 806 3050 800 2363 
Q 1003 2672 1297 2822 
Q 1591 2972 1913 2972 
Q 2475 2972 2870 2558 
Q 3266 2144 3266 1488 
Q 3266 1056 3080 686 
Q 2894 316 2569 119 
Q 2244 -78 1831 -78 
Q 1128 -78 684 439 
Q 241 956 241 2144 
Q 241 3472 731 4075 
Q 1159 4600 1884 4600 
Q 2425 4600 2770 4297 
Q 3116 3994 3184 3459 
z
M 888 1484 
Q 888 1194 1011 928 
Q 1134 663 1356 523 
Q 1578 384 1822 384 
Q 2178 384 2434 671 
Q 2691 959 2691 1453 
Q 2691 1928 2437 2201 
Q 2184 2475 1800 2475 
Q 1419 2475 1153 2201 
Q 888 1928 888 1484 
z
" transform="scale(0.015625)"/>
       </defs>
       <use xlink:href="#ArialMT-30"/>
       <use xlink:href="#ArialMT-2e" transform="translate(55.615234 0)"/>
       <use xlink:href="#ArialMT-36" transform="translate(83.398438 0)"/>
      </g>
     </g>
    </g>
    <g id="ytick_4">
     <g id="line2d_10">
      <path d="M 54.81 137.038255 
L 845.95 137.038255 
" clip-path="url(#pa924a892cc)" style="fill: none; stroke-dasharray: 3.7,1.6; stroke-dashoffset: 0; stroke: #cccccc; stroke-opacity: 0.5"/>
     </g>
     <g id="text_11">
      <!-- 0.8 -->
      <g style="fill: #262626" transform="translate(30.02 140.975052) scale(0.11 -0.11)">
       <defs>
        <path id="ArialMT-38" d="M 1131 2484 
Q 781 2613 612 2850 
Q 444 3088 444 3419 
Q 444 3919 803 4259 
Q 1163 4600 1759 4600 
Q 2359 4600 2725 4251 
Q 3091 3903 3091 3403 
Q 3091 3084 2923 2848 
Q 2756 2613 2416 2484 
Q 2838 2347 3058 2040 
Q 3278 1734 3278 1309 
Q 3278 722 2862 322 
Q 2447 -78 1769 -78 
Q 1091 -78 675 323 
Q 259 725 259 1325 
Q 259 1772 486 2073 
Q 713 2375 1131 2484 
z
M 1019 3438 
Q 1019 3113 1228 2906 
Q 1438 2700 1772 2700 
Q 2097 2700 2305 2904 
Q 2513 3109 2513 3406 
Q 2513 3716 2298 3927 
Q 2084 4138 1766 4138 
Q 1444 4138 1231 3931 
Q 1019 3725 1019 3438 
z
M 838 1322 
Q 838 1081 952 856 
Q 1066 631 1291 507 
Q 1516 384 1775 384 
Q 2178 384 2440 643 
Q 2703 903 2703 1303 
Q 2703 1709 2433 1975 
Q 2163 2241 1756 2241 
Q 1359 2241 1098 1978 
Q 838 1716 838 1322 
z
" transform="scale(0.015625)"/>
       </defs>
       <use xlink:href="#ArialMT-30"/>
       <use xlink:href="#ArialMT-2e" transform="translate(55.615234 0)"/>
       <use xlink:href="#ArialMT-38" transform="translate(83.398438 0)"/>
      </g>
     </g>
    </g>
    <g id="ytick_5">
     <g id="line2d_11">
      <path d="M 54.81 37.39957 
L 845.95 37.39957 
" clip-path="url(#pa924a892cc)" style="fill: none; stroke-dasharray: 3.7,1.6; stroke-dashoffset: 0; stroke: #cccccc; stroke-opacity: 0.5"/>
     </g>
     <g id="text_12">
      <!-- 1.0 -->
      <g style="fill: #262626" transform="translate(30.02 41.336367) scale(0.11 -0.11)">
       <use xlink:href="#ArialMT-31"/>
       <use xlink:href="#ArialMT-2e" transform="translate(55.615234 0)"/>
       <use xlink:href="#ArialMT-30" transform="translate(83.398438 0)"/>
      </g>
     </g>
    </g>
    <g id="text_13">
     <!-- Accuracy -->
     <g style="fill: #262626" transform="translate(23.073438 307.325938) rotate(-90) scale(0.14 -0.14)">
      <defs>
       <path id="ArialMT-41" d="M -9 0 
L 1750 4581 
L 2403 4581 
L 4278 0 
L 3588 0 
L 3053 1388 
L 1138 1388 
L 634 0 
L -9 0 
z
M 1313 1881 
L 2866 1881 
L 2388 3150 
Q 2169 3728 2063 4100 
Q 1975 3659 1816 3225 
L 1313 1881 
z
" transform="scale(0.015625)"/>
       <path id="ArialMT-75" d="M 2597 0 
L 2597 488 
Q 2209 -75 1544 -75 
Q 1250 -75 995 37 
Q 741 150 617 320 
Q 494 491 444 738 
Q 409 903 409 1263 
L 409 3319 
L 972 3319 
L 972 1478 
Q 972 1038 1006 884 
Q 1059 663 1231 536 
Q 1403 409 1656 409 
Q 1909 409 2131 539 
Q 2353 669 2445 892 
Q 2538 1116 2538 1541 
L 2538 3319 
L 3100 3319 
L 3100 0 
L 2597 0 
z
" transform="scale(0.015625)"/>
       <path id="ArialMT-72" d="M 416 0 
L 416 3319 
L 922 3319 
L 922 2816 
Q 1116 3169 1280 3281 
Q 1444 3394 1641 3394 
Q 1925 3394 2219 3213 
L 2025 2691 
Q 1819 2813 1613 2813 
Q 1428 2813 1281 2702 
Q 1134 2591 1072 2394 
Q 978 2094 978 1738 
L 978 0 
L 416 0 
z
" transform="scale(0.015625)"/>
       <path id="ArialMT-61" d="M 2588 409 
Q 2275 144 1986 34 
Q 1697 -75 1366 -75 
Q 819 -75 525 192 
Q 231 459 231 875 
Q 231 1119 342 1320 
Q 453 1522 633 1644 
Q 813 1766 1038 1828 
Q 1203 1872 1538 1913 
Q 2219 1994 2541 2106 
Q 2544 2222 2544 2253 
Q 2544 2597 2384 2738 
Q 2169 2928 1744 2928 
Q 1347 2928 1158 2789 
Q 969 2650 878 2297 
L 328 2372 
Q 403 2725 575 2942 
Q 747 3159 1072 3276 
Q 1397 3394 1825 3394 
Q 2250 3394 2515 3294 
Q 2781 3194 2906 3042 
Q 3031 2891 3081 2659 
Q 3109 2516 3109 2141 
L 3109 1391 
Q 3109 606 3145 398 
Q 3181 191 3288 0 
L 2700 0 
Q 2613 175 2588 409 
z
M 2541 1666 
Q 2234 1541 1622 1453 
Q 1275 1403 1131 1340 
Q 988 1278 909 1158 
Q 831 1038 831 891 
Q 831 666 1001 516 
Q 1172 366 1500 366 
Q 1825 366 2078 508 
Q 2331 650 2450 897 
Q 2541 1088 2541 1459 
L 2541 1666 
z
" transform="scale(0.015625)"/>
       <path id="ArialMT-79" d="M 397 -1278 
L 334 -750 
Q 519 -800 656 -800 
Q 844 -800 956 -737 
Q 1069 -675 1141 -563 
Q 1194 -478 1313 -144 
Q 1328 -97 1363 -6 
L 103 3319 
L 709 3319 
L 1400 1397 
Q 1534 1031 1641 628 
Q 1738 1016 1872 1384 
L 2581 3319 
L 3144 3319 
L 1881 -56 
Q 1678 -603 1566 -809 
Q 1416 -1088 1222 -1217 
Q 1028 -1347 759 -1347 
Q 597 -1347 397 -1278 
z
" transform="scale(0.015625)"/>
      </defs>
      <use xlink:href="#ArialMT-41"/>
      <use xlink:href="#ArialMT-63" transform="translate(66.699219 0)"/>
      <use xlink:href="#ArialMT-63" transform="translate(116.699219 0)"/>
      <use xlink:href="#ArialMT-75" transform="translate(166.699219 0)"/>
      <use xlink:href="#ArialMT-72" transform="translate(222.314453 0)"/>
      <use xlink:href="#ArialMT-61" transform="translate(255.615234 0)"/>
      <use xlink:href="#ArialMT-63" transform="translate(311.230469 0)"/>
      <use xlink:href="#ArialMT-79" transform="translate(361.230469 0)"/>
     </g>
    </g>
   </g>
   <g id="FillBetweenPolyCollection_1">
    <defs>
     <path id="m895ad5ec2a" d="M 90.770909 -423.460364 
L 90.770909 -156.799527 
L 105.448831 -195.927848 
L 120.126753 -211.227924 
L 134.804675 -218.538806 
L 149.482597 -232.206581 
L 164.160519 -181.920209 
L 178.838442 -173.199094 
L 193.516364 -214.122215 
L 208.194286 -239.661122 
L 222.872208 -205.412543 
L 237.55013 -265.563647 
L 252.228052 -246.711618 
L 266.905974 -251.696735 
L 281.583896 -262.796893 
L 296.261818 -243.066938 
L 310.93974 -297.957943 
L 325.617662 -248.052036 
L 340.295584 -305.120702 
L 354.973506 -300.002417 
L 369.651429 -307.150001 
L 384.329351 -338.943704 
L 399.007273 -350.714829 
L 413.685195 -319.287346 
L 428.363117 -336.84953 
L 443.041039 -313.798294 
L 457.718961 -376.907956 
L 472.396883 -352.669831 
L 487.074805 -347.469555 
L 501.752727 -380.190089 
L 516.430649 -371.59194 
L 531.108571 -386.870827 
L 545.786494 -375.494251 
L 560.464416 -371.94833 
L 575.142338 -403.721302 
L 589.82026 -395.448575 
L 604.498182 -372.968964 
L 619.176104 -392.461008 
L 633.854026 -336.792117 
L 648.531948 -342.328615 
L 663.20987 -395.919401 
L 677.887792 -379.566411 
L 692.565714 -362.172386 
L 707.243636 -415.500237 
L 721.921558 -385.124183 
L 736.599481 -397.09745 
L 751.277403 -409.512457 
L 765.955325 -393.472355 
L 780.633247 -380.476978 
L 795.311169 -406.14952 
L 809.989091 -378.175787 
L 809.989091 -495.610125 
L 809.989091 -495.610125 
L 795.311169 -490.42943 
L 780.633247 -493.17497 
L 765.955325 -491.528268 
L 751.277403 -489.516123 
L 736.599481 -489.740395 
L 721.921558 -493.139958 
L 707.243636 -484.542643 
L 692.565714 -494.925424 
L 677.887792 -491.425392 
L 663.20987 -489.157773 
L 648.531948 -496.760589 
L 633.854026 -498.450403 
L 619.176104 -488.405864 
L 604.498182 -490.673951 
L 589.82026 -481.839542 
L 575.142338 -486.025478 
L 560.464416 -487.867038 
L 545.786494 -490.330365 
L 531.108571 -491.584691 
L 516.430649 -492.1658 
L 501.752727 -478.381326 
L 487.074805 -496.461496 
L 472.396883 -496.600647 
L 457.718961 -490.715606 
L 443.041039 -503.225106 
L 428.363117 -498.507817 
L 413.685195 -501.027744 
L 399.007273 -496.756702 
L 384.329351 -498.978099 
L 369.651429 -502.639337 
L 354.973506 -504.179566 
L 340.295584 -505.319319 
L 325.617662 -514.50538 
L 310.93974 -506.817309 
L 296.261818 -509.845061 
L 281.583896 -509.980072 
L 266.905974 -509.597591 
L 252.228052 -509.511209 
L 237.55013 -501.433723 
L 222.872208 -511.597072 
L 208.194286 -501.729963 
L 193.516364 -502.38982 
L 178.838442 -506.204879 
L 164.160519 -495.493439 
L 149.482597 -522.876989 
L 134.804675 -514.842576 
L 120.126753 -500.782241 
L 105.448831 -481.609634 
L 90.770909 -423.460364 
z
" style="stroke: #1f77b4; stroke-opacity: 0.3"/>
    </defs>
    <g clip-path="url(#pa924a892cc)">
     <use xlink:href="#m895ad5ec2a" x="0" y="576" style="fill: #1f77b4; fill-opacity: 0.3; stroke: #1f77b4; stroke-opacity: 0.3"/>
    </g>
   </g>
   <g id="FillBetweenPolyCollection_2">
    <defs>
     <path id="mde458abd50" d="M 90.770909 -423.790579 
L 90.770909 -114.58919 
L 105.448831 -129.105215 
L 120.126753 -128.824201 
L 134.804675 -128.856011 
L 149.482597 -128.683909 
L 149.482597 -484.733166 
L 149.482597 -484.733166 
L 134.804675 -479.210154 
L 120.126753 -478.886002 
L 105.448831 -466.5597 
L 90.770909 -423.790579 
z
" style="stroke: #aec7e8; stroke-opacity: 0.3"/>
    </defs>
    <g clip-path="url(#pa924a892cc)">
     <use xlink:href="#mde458abd50" x="0" y="576" style="fill: #aec7e8; fill-opacity: 0.3; stroke: #aec7e8; stroke-opacity: 0.3"/>
    </g>
   </g>
   <g id="FillBetweenPolyCollection_3">
    <defs>
     <path id="m8edbf03033" d="M 90.770909 -270.138746 
L 90.770909 -86.187932 
L 105.448831 -72.041761 
L 120.126753 -89.551183 
L 134.804675 -92.882082 
L 149.482597 -91.989544 
L 164.160519 -137.990296 
L 178.838442 -129.714395 
L 193.516364 -119.508244 
L 208.194286 -119.658859 
L 222.872208 -117.835624 
L 237.55013 -110.098767 
L 252.228052 -101.299677 
L 266.905974 -149.170604 
L 281.583896 -135.420479 
L 296.261818 -174.406781 
L 310.93974 -172.57591 
L 325.617662 -172.64939 
L 340.295584 -151.539029 
L 354.973506 -190.759201 
L 369.651429 -190.062509 
L 384.329351 -187.881138 
L 399.007273 -158.799299 
L 413.685195 -171.916749 
L 428.363117 -205.980498 
L 443.041039 -209.66629 
L 457.718961 -192.666891 
L 472.396883 -216.857083 
L 487.074805 -209.173876 
L 501.752727 -222.261211 
L 516.430649 -205.746822 
L 531.108571 -191.795085 
L 545.786494 -180.336088 
L 560.464416 -226.452684 
L 575.142338 -234.557718 
L 589.82026 -226.102531 
L 604.498182 -219.139757 
L 619.176104 -238.396475 
L 633.854026 -237.599938 
L 648.531948 -246.517617 
L 663.20987 -244.471317 
L 677.887792 -248.659236 
L 692.565714 -249.997071 
L 707.243636 -252.051375 
L 721.921558 -257.007621 
L 736.599481 -261.358513 
L 751.277403 -240.535044 
L 765.955325 -262.740937 
L 780.633247 -267.119184 
L 795.311169 -261.034025 
L 809.989091 -259.546839 
L 809.989091 -515.201312 
L 809.989091 -515.201312 
L 795.311169 -518.555972 
L 780.633247 -515.62854 
L 765.955325 -513.442545 
L 751.277403 -519.113437 
L 736.599481 -506.863672 
L 721.921558 -516.018135 
L 707.243636 -517.070283 
L 692.565714 -514.79946 
L 677.887792 -514.625414 
L 663.20987 -519.693669 
L 648.531948 -513.647583 
L 633.854026 -519.101333 
L 619.176104 -519.816676 
L 604.498182 -519.667734 
L 589.82026 -518.159214 
L 575.142338 -515.923789 
L 560.464416 -515.857012 
L 545.786494 -518.186479 
L 531.108571 -497.790161 
L 516.430649 -513.961214 
L 501.752727 -504.872264 
L 487.074805 -507.969704 
L 472.396883 -508.534858 
L 457.718961 -507.214455 
L 443.041039 -498.827035 
L 428.363117 -500.445952 
L 413.685195 -505.707414 
L 399.007273 -507.150848 
L 384.329351 -493.551435 
L 369.651429 -493.513489 
L 354.973506 -486.577897 
L 340.295584 -485.302629 
L 325.617662 -461.187644 
L 310.93974 -458.218225 
L 296.261818 -436.177909 
L 281.583896 -428.965728 
L 266.905974 -402.795215 
L 252.228052 -351.838896 
L 237.55013 -300.554042 
L 222.872208 -255.460333 
L 208.194286 -244.833742 
L 193.516364 -245.71159 
L 178.838442 -186.22578 
L 164.160519 -137.990296 
L 149.482597 -400.518533 
L 134.804675 -370.327354 
L 120.126753 -340.817906 
L 105.448831 -305.030217 
L 90.770909 -270.138746 
z
" style="stroke: #ff7f0e; stroke-opacity: 0.3"/>
    </defs>
    <g clip-path="url(#pa924a892cc)">
     <use xlink:href="#m8edbf03033" x="0" y="576" style="fill: #ff7f0e; fill-opacity: 0.3; stroke: #ff7f0e; stroke-opacity: 0.3"/>
    </g>
   </g>
   <g id="line2d_12">
    <path d="M 90.770909 285.870054 
L 105.448831 237.231259 
L 120.126753 219.994918 
L 134.804675 209.309309 
L 149.482597 198.458215 
L 164.160519 237.293176 
L 178.838442 236.298014 
L 193.516364 217.743983 
L 208.194286 205.304457 
L 222.872208 217.495192 
L 237.55013 192.501315 
L 252.228052 197.888586 
L 266.905974 195.352837 
L 281.583896 189.611518 
L 296.261818 199.544 
L 310.93974 173.612374 
L 325.617662 194.721292 
L 340.295584 170.77999 
L 354.973506 173.909009 
L 369.651429 171.105331 
L 384.329351 157.039098 
L 399.007273 152.264234 
L 413.685195 165.842455 
L 428.363117 158.321326 
L 443.041039 167.4883 
L 457.718961 142.188219 
L 472.396883 151.364761 
L 487.074805 154.034475 
L 501.752727 146.714292 
L 516.430649 144.12113 
L 531.108571 136.772241 
L 545.786494 143.087692 
L 560.464416 146.092316 
L 575.142338 131.12661 
L 589.82026 137.355942 
L 604.498182 144.178543 
L 619.176104 135.566564 
L 633.854026 158.37874 
L 648.531948 156.455398 
L 663.20987 133.461413 
L 677.887792 140.504098 
L 692.565714 147.451095 
L 707.243636 125.97856 
L 721.921558 136.867929 
L 736.599481 132.581078 
L 751.277403 126.48571 
L 765.955325 133.499689 
L 780.633247 139.174026 
L 795.311169 127.710525 
L 809.989091 139.107044 
" clip-path="url(#pa924a892cc)" style="fill: none; stroke: #1f77b4; stroke-width: 2; stroke-linecap: round"/>
    <defs>
     <path id="mda7f3bf3ef" d="M 0 3 
C 0.795609 3 1.55874 2.683901 2.12132 2.12132 
C 2.683901 1.55874 3 0.795609 3 0 
C 3 -0.795609 2.683901 -1.55874 2.12132 -2.12132 
C 1.55874 -2.683901 0.795609 -3 0 -3 
C -0.795609 -3 -1.55874 -2.683901 -2.12132 -2.12132 
C -2.683901 -1.55874 -3 -0.795609 -3 0 
C -3 0.795609 -2.683901 1.55874 -2.12132 2.12132 
C -1.55874 2.683901 -0.795609 3 0 3 
z
" style="stroke: #1f77b4"/>
    </defs>
    <g clip-path="url(#pa924a892cc)">
     <use xlink:href="#mda7f3bf3ef" x="90.770909" y="285.870054" style="fill: #1f77b4; stroke: #1f77b4"/>
     <use xlink:href="#mda7f3bf3ef" x="105.448831" y="237.231259" style="fill: #1f77b4; stroke: #1f77b4"/>
     <use xlink:href="#mda7f3bf3ef" x="120.126753" y="219.994918" style="fill: #1f77b4; stroke: #1f77b4"/>
     <use xlink:href="#mda7f3bf3ef" x="134.804675" y="209.309309" style="fill: #1f77b4; stroke: #1f77b4"/>
     <use xlink:href="#mda7f3bf3ef" x="149.482597" y="198.458215" style="fill: #1f77b4; stroke: #1f77b4"/>
     <use xlink:href="#mda7f3bf3ef" x="164.160519" y="237.293176" style="fill: #1f77b4; stroke: #1f77b4"/>
     <use xlink:href="#mda7f3bf3ef" x="178.838442" y="236.298014" style="fill: #1f77b4; stroke: #1f77b4"/>
     <use xlink:href="#mda7f3bf3ef" x="193.516364" y="217.743983" style="fill: #1f77b4; stroke: #1f77b4"/>
     <use xlink:href="#mda7f3bf3ef" x="208.194286" y="205.304457" style="fill: #1f77b4; stroke: #1f77b4"/>
     <use xlink:href="#mda7f3bf3ef" x="222.872208" y="217.495192" style="fill: #1f77b4; stroke: #1f77b4"/>
     <use xlink:href="#mda7f3bf3ef" x="237.55013" y="192.501315" style="fill: #1f77b4; stroke: #1f77b4"/>
     <use xlink:href="#mda7f3bf3ef" x="252.228052" y="197.888586" style="fill: #1f77b4; stroke: #1f77b4"/>
     <use xlink:href="#mda7f3bf3ef" x="266.905974" y="195.352837" style="fill: #1f77b4; stroke: #1f77b4"/>
     <use xlink:href="#mda7f3bf3ef" x="281.583896" y="189.611518" style="fill: #1f77b4; stroke: #1f77b4"/>
     <use xlink:href="#mda7f3bf3ef" x="296.261818" y="199.544" style="fill: #1f77b4; stroke: #1f77b4"/>
     <use xlink:href="#mda7f3bf3ef" x="310.93974" y="173.612374" style="fill: #1f77b4; stroke: #1f77b4"/>
     <use xlink:href="#mda7f3bf3ef" x="325.617662" y="194.721292" style="fill: #1f77b4; stroke: #1f77b4"/>
     <use xlink:href="#mda7f3bf3ef" x="340.295584" y="170.77999" style="fill: #1f77b4; stroke: #1f77b4"/>
     <use xlink:href="#mda7f3bf3ef" x="354.973506" y="173.909009" style="fill: #1f77b4; stroke: #1f77b4"/>
     <use xlink:href="#mda7f3bf3ef" x="369.651429" y="171.105331" style="fill: #1f77b4; stroke: #1f77b4"/>
     <use xlink:href="#mda7f3bf3ef" x="384.329351" y="157.039098" style="fill: #1f77b4; stroke: #1f77b4"/>
     <use xlink:href="#mda7f3bf3ef" x="399.007273" y="152.264234" style="fill: #1f77b4; stroke: #1f77b4"/>
     <use xlink:href="#mda7f3bf3ef" x="413.685195" y="165.842455" style="fill: #1f77b4; stroke: #1f77b4"/>
     <use xlink:href="#mda7f3bf3ef" x="428.363117" y="158.321326" style="fill: #1f77b4; stroke: #1f77b4"/>
     <use xlink:href="#mda7f3bf3ef" x="443.041039" y="167.4883" style="fill: #1f77b4; stroke: #1f77b4"/>
     <use xlink:href="#mda7f3bf3ef" x="457.718961" y="142.188219" style="fill: #1f77b4; stroke: #1f77b4"/>
     <use xlink:href="#mda7f3bf3ef" x="472.396883" y="151.364761" style="fill: #1f77b4; stroke: #1f77b4"/>
     <use xlink:href="#mda7f3bf3ef" x="487.074805" y="154.034475" style="fill: #1f77b4; stroke: #1f77b4"/>
     <use xlink:href="#mda7f3bf3ef" x="501.752727" y="146.714292" style="fill: #1f77b4; stroke: #1f77b4"/>
     <use xlink:href="#mda7f3bf3ef" x="516.430649" y="144.12113" style="fill: #1f77b4; stroke: #1f77b4"/>
     <use xlink:href="#mda7f3bf3ef" x="531.108571" y="136.772241" style="fill: #1f77b4; stroke: #1f77b4"/>
     <use xlink:href="#mda7f3bf3ef" x="545.786494" y="143.087692" style="fill: #1f77b4; stroke: #1f77b4"/>
     <use xlink:href="#mda7f3bf3ef" x="560.464416" y="146.092316" style="fill: #1f77b4; stroke: #1f77b4"/>
     <use xlink:href="#mda7f3bf3ef" x="575.142338" y="131.12661" style="fill: #1f77b4; stroke: #1f77b4"/>
     <use xlink:href="#mda7f3bf3ef" x="589.82026" y="137.355942" style="fill: #1f77b4; stroke: #1f77b4"/>
     <use xlink:href="#mda7f3bf3ef" x="604.498182" y="144.178543" style="fill: #1f77b4; stroke: #1f77b4"/>
     <use xlink:href="#mda7f3bf3ef" x="619.176104" y="135.566564" style="fill: #1f77b4; stroke: #1f77b4"/>
     <use xlink:href="#mda7f3bf3ef" x="633.854026" y="158.37874" style="fill: #1f77b4; stroke: #1f77b4"/>
     <use xlink:href="#mda7f3bf3ef" x="648.531948" y="156.455398" style="fill: #1f77b4; stroke: #1f77b4"/>
     <use xlink:href="#mda7f3bf3ef" x="663.20987" y="133.461413" style="fill: #1f77b4; stroke: #1f77b4"/>
     <use xlink:href="#mda7f3bf3ef" x="677.887792" y="140.504098" style="fill: #1f77b4; stroke: #1f77b4"/>
     <use xlink:href="#mda7f3bf3ef" x="692.565714" y="147.451095" style="fill: #1f77b4; stroke: #1f77b4"/>
     <use xlink:href="#mda7f3bf3ef" x="707.243636" y="125.97856" style="fill: #1f77b4; stroke: #1f77b4"/>
     <use xlink:href="#mda7f3bf3ef" x="721.921558" y="136.867929" style="fill: #1f77b4; stroke: #1f77b4"/>
     <use xlink:href="#mda7f3bf3ef" x="736.599481" y="132.581078" style="fill: #1f77b4; stroke: #1f77b4"/>
     <use xlink:href="#mda7f3bf3ef" x="751.277403" y="126.48571" style="fill: #1f77b4; stroke: #1f77b4"/>
     <use xlink:href="#mda7f3bf3ef" x="765.955325" y="133.499689" style="fill: #1f77b4; stroke: #1f77b4"/>
     <use xlink:href="#mda7f3bf3ef" x="780.633247" y="139.174026" style="fill: #1f77b4; stroke: #1f77b4"/>
     <use xlink:href="#mda7f3bf3ef" x="795.311169" y="127.710525" style="fill: #1f77b4; stroke: #1f77b4"/>
     <use xlink:href="#mda7f3bf3ef" x="809.989091" y="139.107044" style="fill: #1f77b4; stroke: #1f77b4"/>
    </g>
   </g>
   <g id="line2d_13">
    <path d="M 90.770909 306.810115 
L 105.448831 278.167543 
L 120.126753 272.144898 
L 134.804675 271.966918 
L 149.482597 269.291463 
" clip-path="url(#pa924a892cc)" style="fill: none; stroke: #aec7e8; stroke-width: 2; stroke-linecap: round"/>
    <defs>
     <path id="m019c73e462" d="M 0 3 
C 0.795609 3 1.55874 2.683901 2.12132 2.12132 
C 2.683901 1.55874 3 0.795609 3 0 
C 3 -0.795609 2.683901 -1.55874 2.12132 -2.12132 
C 1.55874 -2.683901 0.795609 -3 0 -3 
C -0.795609 -3 -1.55874 -2.683901 -2.12132 -2.12132 
C -2.683901 -1.55874 -3 -0.795609 -3 0 
C -3 0.795609 -2.683901 1.55874 -2.12132 2.12132 
C -1.55874 2.683901 -0.795609 3 0 3 
z
" style="stroke: #aec7e8"/>
    </defs>
    <g clip-path="url(#pa924a892cc)">
     <use xlink:href="#m019c73e462" x="90.770909" y="306.810115" style="fill: #aec7e8; stroke: #aec7e8"/>
     <use xlink:href="#m019c73e462" x="105.448831" y="278.167543" style="fill: #aec7e8; stroke: #aec7e8"/>
     <use xlink:href="#m019c73e462" x="120.126753" y="272.144898" style="fill: #aec7e8; stroke: #aec7e8"/>
     <use xlink:href="#m019c73e462" x="134.804675" y="271.966918" style="fill: #aec7e8; stroke: #aec7e8"/>
     <use xlink:href="#m019c73e462" x="149.482597" y="269.291463" style="fill: #aec7e8; stroke: #aec7e8"/>
    </g>
   </g>
   <g id="line2d_14">
    <path d="M 90.770909 397.836661 
L 105.448831 387.464011 
L 120.126753 360.815456 
L 134.804675 344.395282 
L 149.482597 329.745962 
L 164.160519 438.009704 
L 178.838442 418.029912 
L 193.516364 393.390083 
L 208.194286 393.7537 
L 222.872208 389.352021 
L 237.55013 370.673595 
L 252.228052 349.430713 
L 266.905974 300.017091 
L 281.583896 293.806897 
L 296.261818 270.707655 
L 310.93974 260.602933 
L 325.617662 259.081483 
L 340.295584 257.579171 
L 354.973506 237.331451 
L 369.651429 234.212001 
L 384.329351 235.283714 
L 399.007273 243.024926 
L 413.685195 237.187918 
L 428.363117 222.786775 
L 443.041039 221.753338 
L 457.718961 226.059327 
L 472.396883 213.304029 
L 487.074805 217.42821 
L 501.752727 212.433262 
L 516.430649 216.145982 
L 531.108571 231.207377 
L 545.786494 226.738717 
L 560.464416 204.845152 
L 575.142338 200.759246 
L 589.82026 203.869128 
L 604.498182 206.596254 
L 619.176104 196.893424 
L 633.854026 197.649365 
L 648.531948 195.9174 
L 663.20987 193.917507 
L 677.887792 194.357675 
L 692.565714 193.601735 
L 707.243636 191.439171 
L 721.921558 189.487122 
L 736.599481 191.888908 
L 751.277403 196.175759 
L 765.955325 187.908259 
L 780.633247 184.626138 
L 795.311169 186.205001 
L 809.989091 188.625924 
" clip-path="url(#pa924a892cc)" style="fill: none; stroke: #ff7f0e; stroke-width: 2; stroke-linecap: round"/>
    <defs>
     <path id="mdf4b0bd3fb" d="M 0 3 
C 0.795609 3 1.55874 2.683901 2.12132 2.12132 
C 2.683901 1.55874 3 0.795609 3 0 
C 3 -0.795609 2.683901 -1.55874 2.12132 -2.12132 
C 1.55874 -2.683901 0.795609 -3 0 -3 
C -0.795609 -3 -1.55874 -2.683901 -2.12132 -2.12132 
C -2.683901 -1.55874 -3 -0.795609 -3 0 
C -3 0.795609 -2.683901 1.55874 -2.12132 2.12132 
C -1.55874 2.683901 -0.795609 3 0 3 
z
" style="stroke: #ff7f0e"/>
    </defs>
    <g clip-path="url(#pa924a892cc)">
     <use xlink:href="#mdf4b0bd3fb" x="90.770909" y="397.836661" style="fill: #ff7f0e; stroke: #ff7f0e"/>
     <use xlink:href="#mdf4b0bd3fb" x="105.448831" y="387.464011" style="fill: #ff7f0e; stroke: #ff7f0e"/>
     <use xlink:href="#mdf4b0bd3fb" x="120.126753" y="360.815456" style="fill: #ff7f0e; stroke: #ff7f0e"/>
     <use xlink:href="#mdf4b0bd3fb" x="134.804675" y="344.395282" style="fill: #ff7f0e; stroke: #ff7f0e"/>
     <use xlink:href="#mdf4b0bd3fb" x="149.482597" y="329.745962" style="fill: #ff7f0e; stroke: #ff7f0e"/>
     <use xlink:href="#mdf4b0bd3fb" x="164.160519" y="438.009704" style="fill: #ff7f0e; stroke: #ff7f0e"/>
     <use xlink:href="#mdf4b0bd3fb" x="178.838442" y="418.029912" style="fill: #ff7f0e; stroke: #ff7f0e"/>
     <use xlink:href="#mdf4b0bd3fb" x="193.516364" y="393.390083" style="fill: #ff7f0e; stroke: #ff7f0e"/>
     <use xlink:href="#mdf4b0bd3fb" x="208.194286" y="393.7537" style="fill: #ff7f0e; stroke: #ff7f0e"/>
     <use xlink:href="#mdf4b0bd3fb" x="222.872208" y="389.352021" style="fill: #ff7f0e; stroke: #ff7f0e"/>
     <use xlink:href="#mdf4b0bd3fb" x="237.55013" y="370.673595" style="fill: #ff7f0e; stroke: #ff7f0e"/>
     <use xlink:href="#mdf4b0bd3fb" x="252.228052" y="349.430713" style="fill: #ff7f0e; stroke: #ff7f0e"/>
     <use xlink:href="#mdf4b0bd3fb" x="266.905974" y="300.017091" style="fill: #ff7f0e; stroke: #ff7f0e"/>
     <use xlink:href="#mdf4b0bd3fb" x="281.583896" y="293.806897" style="fill: #ff7f0e; stroke: #ff7f0e"/>
     <use xlink:href="#mdf4b0bd3fb" x="296.261818" y="270.707655" style="fill: #ff7f0e; stroke: #ff7f0e"/>
     <use xlink:href="#mdf4b0bd3fb" x="310.93974" y="260.602933" style="fill: #ff7f0e; stroke: #ff7f0e"/>
     <use xlink:href="#mdf4b0bd3fb" x="325.617662" y="259.081483" style="fill: #ff7f0e; stroke: #ff7f0e"/>
     <use xlink:href="#mdf4b0bd3fb" x="340.295584" y="257.579171" style="fill: #ff7f0e; stroke: #ff7f0e"/>
     <use xlink:href="#mdf4b0bd3fb" x="354.973506" y="237.331451" style="fill: #ff7f0e; stroke: #ff7f0e"/>
     <use xlink:href="#mdf4b0bd3fb" x="369.651429" y="234.212001" style="fill: #ff7f0e; stroke: #ff7f0e"/>
     <use xlink:href="#mdf4b0bd3fb" x="384.329351" y="235.283714" style="fill: #ff7f0e; stroke: #ff7f0e"/>
     <use xlink:href="#mdf4b0bd3fb" x="399.007273" y="243.024926" style="fill: #ff7f0e; stroke: #ff7f0e"/>
     <use xlink:href="#mdf4b0bd3fb" x="413.685195" y="237.187918" style="fill: #ff7f0e; stroke: #ff7f0e"/>
     <use xlink:href="#mdf4b0bd3fb" x="428.363117" y="222.786775" style="fill: #ff7f0e; stroke: #ff7f0e"/>
     <use xlink:href="#mdf4b0bd3fb" x="443.041039" y="221.753338" style="fill: #ff7f0e; stroke: #ff7f0e"/>
     <use xlink:href="#mdf4b0bd3fb" x="457.718961" y="226.059327" style="fill: #ff7f0e; stroke: #ff7f0e"/>
     <use xlink:href="#mdf4b0bd3fb" x="472.396883" y="213.304029" style="fill: #ff7f0e; stroke: #ff7f0e"/>
     <use xlink:href="#mdf4b0bd3fb" x="487.074805" y="217.42821" style="fill: #ff7f0e; stroke: #ff7f0e"/>
     <use xlink:href="#mdf4b0bd3fb" x="501.752727" y="212.433262" style="fill: #ff7f0e; stroke: #ff7f0e"/>
     <use xlink:href="#mdf4b0bd3fb" x="516.430649" y="216.145982" style="fill: #ff7f0e; stroke: #ff7f0e"/>
     <use xlink:href="#mdf4b0bd3fb" x="531.108571" y="231.207377" style="fill: #ff7f0e; stroke: #ff7f0e"/>
     <use xlink:href="#mdf4b0bd3fb" x="545.786494" y="226.738717" style="fill: #ff7f0e; stroke: #ff7f0e"/>
     <use xlink:href="#mdf4b0bd3fb" x="560.464416" y="204.845152" style="fill: #ff7f0e; stroke: #ff7f0e"/>
     <use xlink:href="#mdf4b0bd3fb" x="575.142338" y="200.759246" style="fill: #ff7f0e; stroke: #ff7f0e"/>
     <use xlink:href="#mdf4b0bd3fb" x="589.82026" y="203.869128" style="fill: #ff7f0e; stroke: #ff7f0e"/>
     <use xlink:href="#mdf4b0bd3fb" x="604.498182" y="206.596254" style="fill: #ff7f0e; stroke: #ff7f0e"/>
     <use xlink:href="#mdf4b0bd3fb" x="619.176104" y="196.893424" style="fill: #ff7f0e; stroke: #ff7f0e"/>
     <use xlink:href="#mdf4b0bd3fb" x="633.854026" y="197.649365" style="fill: #ff7f0e; stroke: #ff7f0e"/>
     <use xlink:href="#mdf4b0bd3fb" x="648.531948" y="195.9174" style="fill: #ff7f0e; stroke: #ff7f0e"/>
     <use xlink:href="#mdf4b0bd3fb" x="663.20987" y="193.917507" style="fill: #ff7f0e; stroke: #ff7f0e"/>
     <use xlink:href="#mdf4b0bd3fb" x="677.887792" y="194.357675" style="fill: #ff7f0e; stroke: #ff7f0e"/>
     <use xlink:href="#mdf4b0bd3fb" x="692.565714" y="193.601735" style="fill: #ff7f0e; stroke: #ff7f0e"/>
     <use xlink:href="#mdf4b0bd3fb" x="707.243636" y="191.439171" style="fill: #ff7f0e; stroke: #ff7f0e"/>
     <use xlink:href="#mdf4b0bd3fb" x="721.921558" y="189.487122" style="fill: #ff7f0e; stroke: #ff7f0e"/>
     <use xlink:href="#mdf4b0bd3fb" x="736.599481" y="191.888908" style="fill: #ff7f0e; stroke: #ff7f0e"/>
     <use xlink:href="#mdf4b0bd3fb" x="751.277403" y="196.175759" style="fill: #ff7f0e; stroke: #ff7f0e"/>
     <use xlink:href="#mdf4b0bd3fb" x="765.955325" y="187.908259" style="fill: #ff7f0e; stroke: #ff7f0e"/>
     <use xlink:href="#mdf4b0bd3fb" x="780.633247" y="184.626138" style="fill: #ff7f0e; stroke: #ff7f0e"/>
     <use xlink:href="#mdf4b0bd3fb" x="795.311169" y="186.205001" style="fill: #ff7f0e; stroke: #ff7f0e"/>
     <use xlink:href="#mdf4b0bd3fb" x="809.989091" y="188.625924" style="fill: #ff7f0e; stroke: #ff7f0e"/>
    </g>
   </g>
   <g id="patch_3">
    <path d="M 54.81 526.5 
L 54.81 30.58125 
" style="fill: none; stroke: #cccccc; stroke-width: 1.25; stroke-linejoin: miter; stroke-linecap: square"/>
   </g>
   <g id="patch_4">
    <path d="M 845.95 526.5 
L 845.95 30.58125 
" style="fill: none; stroke: #cccccc; stroke-width: 1.25; stroke-linejoin: miter; stroke-linecap: square"/>
   </g>
   <g id="patch_5">
    <path d="M 54.81 526.5 
L 845.95 526.5 
" style="fill: none; stroke: #cccccc; stroke-width: 1.25; stroke-linejoin: miter; stroke-linecap: square"/>
   </g>
   <g id="patch_6">
    <path d="M 54.81 30.58125 
L 845.95 30.58125 
" style="fill: none; stroke: #cccccc; stroke-width: 1.25; stroke-linejoin: miter; stroke-linecap: square"/>
   </g>
   <g id="text_14">
    <!-- img-classification - svhn (Accuracy) -->
    <g style="fill: #262626" transform="translate(313.46125 24.58125) scale(0.16 -0.16)">
     <defs>
      <path id="Arial-BoldMT-69" d="M 459 3769 
L 459 4581 
L 1338 4581 
L 1338 3769 
L 459 3769 
z
M 459 0 
L 459 3319 
L 1338 3319 
L 1338 0 
L 459 0 
z
" transform="scale(0.015625)"/>
      <path id="Arial-BoldMT-6d" d="M 394 3319 
L 1203 3319 
L 1203 2866 
Q 1638 3394 2238 3394 
Q 2556 3394 2790 3262 
Q 3025 3131 3175 2866 
Q 3394 3131 3647 3262 
Q 3900 3394 4188 3394 
Q 4553 3394 4806 3245 
Q 5059 3097 5184 2809 
Q 5275 2597 5275 2122 
L 5275 0 
L 4397 0 
L 4397 1897 
Q 4397 2391 4306 2534 
Q 4184 2722 3931 2722 
Q 3747 2722 3584 2609 
Q 3422 2497 3350 2280 
Q 3278 2063 3278 1594 
L 3278 0 
L 2400 0 
L 2400 1819 
Q 2400 2303 2353 2443 
Q 2306 2584 2207 2653 
Q 2109 2722 1941 2722 
Q 1738 2722 1575 2612 
Q 1413 2503 1342 2297 
Q 1272 2091 1272 1613 
L 1272 0 
L 394 0 
L 394 3319 
z
" transform="scale(0.015625)"/>
      <path id="Arial-BoldMT-67" d="M 378 -219 
L 1381 -341 
Q 1406 -516 1497 -581 
Q 1622 -675 1891 -675 
Q 2234 -675 2406 -572 
Q 2522 -503 2581 -350 
Q 2622 -241 2622 53 
L 2622 538 
Q 2228 0 1628 0 
Q 959 0 569 566 
Q 263 1013 263 1678 
Q 263 2513 664 2953 
Q 1066 3394 1663 3394 
Q 2278 3394 2678 2853 
L 2678 3319 
L 3500 3319 
L 3500 341 
Q 3500 -247 3403 -537 
Q 3306 -828 3131 -993 
Q 2956 -1159 2664 -1253 
Q 2372 -1347 1925 -1347 
Q 1081 -1347 728 -1058 
Q 375 -769 375 -325 
Q 375 -281 378 -219 
z
M 1163 1728 
Q 1163 1200 1367 954 
Q 1572 709 1872 709 
Q 2194 709 2416 961 
Q 2638 1213 2638 1706 
Q 2638 2222 2425 2472 
Q 2213 2722 1888 2722 
Q 1572 2722 1367 2476 
Q 1163 2231 1163 1728 
z
" transform="scale(0.015625)"/>
      <path id="Arial-BoldMT-2d" d="M 359 1222 
L 359 2100 
L 2084 2100 
L 2084 1222 
L 359 1222 
z
" transform="scale(0.015625)"/>
      <path id="Arial-BoldMT-63" d="M 3353 2338 
L 2488 2181 
Q 2444 2441 2289 2572 
Q 2134 2703 1888 2703 
Q 1559 2703 1364 2476 
Q 1169 2250 1169 1719 
Q 1169 1128 1367 884 
Q 1566 641 1900 641 
Q 2150 641 2309 783 
Q 2469 925 2534 1272 
L 3397 1125 
Q 3263 531 2881 228 
Q 2500 -75 1859 -75 
Q 1131 -75 698 384 
Q 266 844 266 1656 
Q 266 2478 700 2936 
Q 1134 3394 1875 3394 
Q 2481 3394 2839 3133 
Q 3197 2872 3353 2338 
z
" transform="scale(0.015625)"/>
      <path id="Arial-BoldMT-6c" d="M 459 0 
L 459 4581 
L 1338 4581 
L 1338 0 
L 459 0 
z
" transform="scale(0.015625)"/>
      <path id="Arial-BoldMT-61" d="M 1116 2306 
L 319 2450 
Q 453 2931 781 3162 
Q 1109 3394 1756 3394 
Q 2344 3394 2631 3255 
Q 2919 3116 3036 2902 
Q 3153 2688 3153 2116 
L 3144 1091 
Q 3144 653 3186 445 
Q 3228 238 3344 0 
L 2475 0 
Q 2441 88 2391 259 
Q 2369 338 2359 363 
Q 2134 144 1878 34 
Q 1622 -75 1331 -75 
Q 819 -75 523 203 
Q 228 481 228 906 
Q 228 1188 362 1408 
Q 497 1628 739 1745 
Q 981 1863 1438 1950 
Q 2053 2066 2291 2166 
L 2291 2253 
Q 2291 2506 2166 2614 
Q 2041 2722 1694 2722 
Q 1459 2722 1328 2630 
Q 1197 2538 1116 2306 
z
M 2291 1594 
Q 2122 1538 1756 1459 
Q 1391 1381 1278 1306 
Q 1106 1184 1106 997 
Q 1106 813 1243 678 
Q 1381 544 1594 544 
Q 1831 544 2047 700 
Q 2206 819 2256 991 
Q 2291 1103 2291 1419 
L 2291 1594 
z
" transform="scale(0.015625)"/>
      <path id="Arial-BoldMT-73" d="M 150 947 
L 1031 1081 
Q 1088 825 1259 692 
Q 1431 559 1741 559 
Q 2081 559 2253 684 
Q 2369 772 2369 919 
Q 2369 1019 2306 1084 
Q 2241 1147 2013 1200 
Q 950 1434 666 1628 
Q 272 1897 272 2375 
Q 272 2806 612 3100 
Q 953 3394 1669 3394 
Q 2350 3394 2681 3172 
Q 3013 2950 3138 2516 
L 2309 2363 
Q 2256 2556 2107 2659 
Q 1959 2763 1684 2763 
Q 1338 2763 1188 2666 
Q 1088 2597 1088 2488 
Q 1088 2394 1175 2328 
Q 1294 2241 1995 2081 
Q 2697 1922 2975 1691 
Q 3250 1456 3250 1038 
Q 3250 581 2869 253 
Q 2488 -75 1741 -75 
Q 1063 -75 667 200 
Q 272 475 150 947 
z
" transform="scale(0.015625)"/>
      <path id="Arial-BoldMT-66" d="M 75 3319 
L 563 3319 
L 563 3569 
Q 563 3988 652 4194 
Q 741 4400 980 4529 
Q 1219 4659 1584 4659 
Q 1959 4659 2319 4547 
L 2200 3934 
Q 1991 3984 1797 3984 
Q 1606 3984 1523 3895 
Q 1441 3806 1441 3553 
L 1441 3319 
L 2097 3319 
L 2097 2628 
L 1441 2628 
L 1441 0 
L 563 0 
L 563 2628 
L 75 2628 
L 75 3319 
z
" transform="scale(0.015625)"/>
      <path id="Arial-BoldMT-74" d="M 1981 3319 
L 1981 2619 
L 1381 2619 
L 1381 1281 
Q 1381 875 1398 808 
Q 1416 741 1477 697 
Q 1538 653 1625 653 
Q 1747 653 1978 738 
L 2053 56 
Q 1747 -75 1359 -75 
Q 1122 -75 931 4 
Q 741 84 652 211 
Q 563 338 528 553 
Q 500 706 500 1172 
L 500 2619 
L 97 2619 
L 97 3319 
L 500 3319 
L 500 3978 
L 1381 4491 
L 1381 3319 
L 1981 3319 
z
" transform="scale(0.015625)"/>
      <path id="Arial-BoldMT-6f" d="M 256 1706 
Q 256 2144 472 2553 
Q 688 2963 1083 3178 
Q 1478 3394 1966 3394 
Q 2719 3394 3200 2905 
Q 3681 2416 3681 1669 
Q 3681 916 3195 420 
Q 2709 -75 1972 -75 
Q 1516 -75 1102 131 
Q 688 338 472 736 
Q 256 1134 256 1706 
z
M 1156 1659 
Q 1156 1166 1390 903 
Q 1625 641 1969 641 
Q 2313 641 2545 903 
Q 2778 1166 2778 1666 
Q 2778 2153 2545 2415 
Q 2313 2678 1969 2678 
Q 1625 2678 1390 2415 
Q 1156 2153 1156 1659 
z
" transform="scale(0.015625)"/>
      <path id="Arial-BoldMT-6e" d="M 3478 0 
L 2600 0 
L 2600 1694 
Q 2600 2231 2544 2389 
Q 2488 2547 2361 2634 
Q 2234 2722 2056 2722 
Q 1828 2722 1647 2597 
Q 1466 2472 1398 2265 
Q 1331 2059 1331 1503 
L 1331 0 
L 453 0 
L 453 3319 
L 1269 3319 
L 1269 2831 
Q 1703 3394 2363 3394 
Q 2653 3394 2893 3289 
Q 3134 3184 3257 3021 
Q 3381 2859 3429 2653 
Q 3478 2447 3478 2063 
L 3478 0 
z
" transform="scale(0.015625)"/>
      <path id="Arial-BoldMT-20" transform="scale(0.015625)"/>
      <path id="Arial-BoldMT-76" d="M 1372 0 
L 34 3319 
L 956 3319 
L 1581 1625 
L 1763 1059 
Q 1834 1275 1853 1344 
Q 1897 1484 1947 1625 
L 2578 3319 
L 3481 3319 
L 2163 0 
L 1372 0 
z
" transform="scale(0.015625)"/>
      <path id="Arial-BoldMT-68" d="M 1334 4581 
L 1334 2897 
Q 1759 3394 2350 3394 
Q 2653 3394 2897 3281 
Q 3141 3169 3264 2994 
Q 3388 2819 3433 2606 
Q 3478 2394 3478 1947 
L 3478 0 
L 2600 0 
L 2600 1753 
Q 2600 2275 2550 2415 
Q 2500 2556 2373 2639 
Q 2247 2722 2056 2722 
Q 1838 2722 1666 2615 
Q 1494 2509 1414 2295 
Q 1334 2081 1334 1663 
L 1334 0 
L 456 0 
L 456 4581 
L 1334 4581 
z
" transform="scale(0.015625)"/>
      <path id="Arial-BoldMT-28" d="M 1916 -1347 
L 1313 -1347 
Q 834 -625 584 153 
Q 334 931 334 1659 
Q 334 2563 644 3369 
Q 913 4069 1325 4659 
L 1925 4659 
Q 1497 3713 1336 3048 
Q 1175 2384 1175 1641 
Q 1175 1128 1270 590 
Q 1366 53 1531 -431 
Q 1641 -750 1916 -1347 
z
" transform="scale(0.015625)"/>
      <path id="Arial-BoldMT-41" d="M 4597 0 
L 3591 0 
L 3191 1041 
L 1359 1041 
L 981 0 
L 0 0 
L 1784 4581 
L 2763 4581 
L 4597 0 
z
M 2894 1813 
L 2263 3513 
L 1644 1813 
L 2894 1813 
z
" transform="scale(0.015625)"/>
      <path id="Arial-BoldMT-75" d="M 2644 0 
L 2644 497 
Q 2463 231 2167 78 
Q 1872 -75 1544 -75 
Q 1209 -75 943 72 
Q 678 219 559 484 
Q 441 750 441 1219 
L 441 3319 
L 1319 3319 
L 1319 1794 
Q 1319 1094 1367 936 
Q 1416 778 1544 686 
Q 1672 594 1869 594 
Q 2094 594 2272 717 
Q 2450 841 2515 1023 
Q 2581 1206 2581 1919 
L 2581 3319 
L 3459 3319 
L 3459 0 
L 2644 0 
z
" transform="scale(0.015625)"/>
      <path id="Arial-BoldMT-72" d="M 1300 0 
L 422 0 
L 422 3319 
L 1238 3319 
L 1238 2847 
Q 1447 3181 1614 3287 
Q 1781 3394 1994 3394 
Q 2294 3394 2572 3228 
L 2300 2463 
Q 2078 2606 1888 2606 
Q 1703 2606 1575 2504 
Q 1447 2403 1373 2137 
Q 1300 1872 1300 1025 
L 1300 0 
z
" transform="scale(0.015625)"/>
      <path id="Arial-BoldMT-79" d="M 44 3319 
L 978 3319 
L 1772 963 
L 2547 3319 
L 3456 3319 
L 2284 125 
L 2075 -453 
Q 1959 -744 1854 -897 
Q 1750 -1050 1614 -1145 
Q 1478 -1241 1279 -1294 
Q 1081 -1347 831 -1347 
Q 578 -1347 334 -1294 
L 256 -606 
Q 463 -647 628 -647 
Q 934 -647 1081 -467 
Q 1228 -288 1306 -9 
L 44 3319 
z
" transform="scale(0.015625)"/>
      <path id="Arial-BoldMT-29" d="M 216 -1347 
Q 475 -791 581 -494 
Q 688 -197 778 190 
Q 869 578 912 926 
Q 956 1275 956 1641 
Q 956 2384 797 3048 
Q 638 3713 209 4659 
L 806 4659 
Q 1278 3988 1539 3234 
Q 1800 2481 1800 1706 
Q 1800 1053 1594 306 
Q 1359 -531 822 -1347 
L 216 -1347 
z
" transform="scale(0.015625)"/>
     </defs>
     <use xlink:href="#Arial-BoldMT-69"/>
     <use xlink:href="#Arial-BoldMT-6d" transform="translate(27.783203 0)"/>
     <use xlink:href="#Arial-BoldMT-67" transform="translate(116.699219 0)"/>
     <use xlink:href="#Arial-BoldMT-2d" transform="translate(177.783203 0)"/>
     <use xlink:href="#Arial-BoldMT-63" transform="translate(211.083984 0)"/>
     <use xlink:href="#Arial-BoldMT-6c" transform="translate(266.699219 0)"/>
     <use xlink:href="#Arial-BoldMT-61" transform="translate(294.482422 0)"/>
     <use xlink:href="#Arial-BoldMT-73" transform="translate(350.097656 0)"/>
     <use xlink:href="#Arial-BoldMT-73" transform="translate(405.712891 0)"/>
     <use xlink:href="#Arial-BoldMT-69" transform="translate(461.328125 0)"/>
     <use xlink:href="#Arial-BoldMT-66" transform="translate(489.111328 0)"/>
     <use xlink:href="#Arial-BoldMT-69" transform="translate(522.412109 0)"/>
     <use xlink:href="#Arial-BoldMT-63" transform="translate(550.195312 0)"/>
     <use xlink:href="#Arial-BoldMT-61" transform="translate(605.810547 0)"/>
     <use xlink:href="#Arial-BoldMT-74" transform="translate(661.425781 0)"/>
     <use xlink:href="#Arial-BoldMT-69" transform="translate(694.726562 0)"/>
     <use xlink:href="#Arial-BoldMT-6f" transform="translate(722.509766 0)"/>
     <use xlink:href="#Arial-BoldMT-6e" transform="translate(783.59375 0)"/>
     <use xlink:href="#Arial-BoldMT-20" transform="translate(844.677734 0)"/>
     <use xlink:href="#Arial-BoldMT-2d" transform="translate(872.460938 0)"/>
     <use xlink:href="#Arial-BoldMT-20" transform="translate(905.761719 0)"/>
     <use xlink:href="#Arial-BoldMT-73" transform="translate(933.544922 0)"/>
     <use xlink:href="#Arial-BoldMT-76" transform="translate(989.160156 0)"/>
     <use xlink:href="#Arial-BoldMT-68" transform="translate(1044.775391 0)"/>
     <use xlink:href="#Arial-BoldMT-6e" transform="translate(1105.859375 0)"/>
     <use xlink:href="#Arial-BoldMT-20" transform="translate(1166.943359 0)"/>
     <use xlink:href="#Arial-BoldMT-28" transform="translate(1194.726562 0)"/>
     <use xlink:href="#Arial-BoldMT-41" transform="translate(1228.027344 0)"/>
     <use xlink:href="#Arial-BoldMT-63" transform="translate(1300.244141 0)"/>
     <use xlink:href="#Arial-BoldMT-63" transform="translate(1355.859375 0)"/>
     <use xlink:href="#Arial-BoldMT-75" transform="translate(1411.474609 0)"/>
     <use xlink:href="#Arial-BoldMT-72" transform="translate(1472.558594 0)"/>
     <use xlink:href="#Arial-BoldMT-61" transform="translate(1511.474609 0)"/>
     <use xlink:href="#Arial-BoldMT-63" transform="translate(1567.089844 0)"/>
     <use xlink:href="#Arial-BoldMT-79" transform="translate(1622.705078 0)"/>
     <use xlink:href="#Arial-BoldMT-29" transform="translate(1678.320312 0)"/>
    </g>
   </g>
   <g id="legend_1">
    <g id="patch_7">
     <path d="M 892.507 81.017187 
L 993.4195 81.017187 
Q 995.4195 81.017187 995.4195 79.017187 
L 995.4195 37.58125 
Q 995.4195 35.58125 993.4195 35.58125 
L 892.507 35.58125 
Q 890.507 35.58125 890.507 37.58125 
L 890.507 79.017187 
Q 890.507 81.017187 892.507 81.017187 
z
" style="fill: #ffffff; opacity: 0.8; stroke: #cccccc; stroke-linejoin: miter"/>
    </g>
    <g id="line2d_15">
     <path d="M 894.507 43.239062 
L 904.507 43.239062 
L 914.507 43.239062 
" style="fill: none; stroke: #1f77b4; stroke-width: 2; stroke-linecap: round"/>
     <g>
      <use xlink:href="#mda7f3bf3ef" x="904.507" y="43.239062" style="fill: #1f77b4; stroke: #1f77b4"/>
     </g>
    </g>
    <g id="text_15">
     <!-- AirNet - Mean -->
     <g style="fill: #262626" transform="translate(922.507 46.739062) scale(0.1 -0.1)">
      <defs>
       <path id="ArialMT-69" d="M 425 3934 
L 425 4581 
L 988 4581 
L 988 3934 
L 425 3934 
z
M 425 0 
L 425 3319 
L 988 3319 
L 988 0 
L 425 0 
z
" transform="scale(0.015625)"/>
       <path id="ArialMT-4e" d="M 488 0 
L 488 4581 
L 1109 4581 
L 3516 984 
L 3516 4581 
L 4097 4581 
L 4097 0 
L 3475 0 
L 1069 3600 
L 1069 0 
L 488 0 
z
" transform="scale(0.015625)"/>
       <path id="ArialMT-65" d="M 2694 1069 
L 3275 997 
Q 3138 488 2766 206 
Q 2394 -75 1816 -75 
Q 1088 -75 661 373 
Q 234 822 234 1631 
Q 234 2469 665 2931 
Q 1097 3394 1784 3394 
Q 2450 3394 2872 2941 
Q 3294 2488 3294 1666 
Q 3294 1616 3291 1516 
L 816 1516 
Q 847 969 1125 678 
Q 1403 388 1819 388 
Q 2128 388 2347 550 
Q 2566 713 2694 1069 
z
M 847 1978 
L 2700 1978 
Q 2663 2397 2488 2606 
Q 2219 2931 1791 2931 
Q 1403 2931 1139 2672 
Q 875 2413 847 1978 
z
" transform="scale(0.015625)"/>
       <path id="ArialMT-74" d="M 1650 503 
L 1731 6 
Q 1494 -44 1306 -44 
Q 1000 -44 831 53 
Q 663 150 594 308 
Q 525 466 525 972 
L 525 2881 
L 113 2881 
L 113 3319 
L 525 3319 
L 525 4141 
L 1084 4478 
L 1084 3319 
L 1650 3319 
L 1650 2881 
L 1084 2881 
L 1084 941 
Q 1084 700 1114 631 
Q 1144 563 1211 522 
Q 1278 481 1403 481 
Q 1497 481 1650 503 
z
" transform="scale(0.015625)"/>
       <path id="ArialMT-20" transform="scale(0.015625)"/>
       <path id="ArialMT-2d" d="M 203 1375 
L 203 1941 
L 1931 1941 
L 1931 1375 
L 203 1375 
z
" transform="scale(0.015625)"/>
       <path id="ArialMT-4d" d="M 475 0 
L 475 4581 
L 1388 4581 
L 2472 1338 
Q 2622 884 2691 659 
Q 2769 909 2934 1394 
L 4031 4581 
L 4847 4581 
L 4847 0 
L 4263 0 
L 4263 3834 
L 2931 0 
L 2384 0 
L 1059 3900 
L 1059 0 
L 475 0 
z
" transform="scale(0.015625)"/>
       <path id="ArialMT-6e" d="M 422 0 
L 422 3319 
L 928 3319 
L 928 2847 
Q 1294 3394 1984 3394 
Q 2284 3394 2536 3286 
Q 2788 3178 2913 3003 
Q 3038 2828 3088 2588 
Q 3119 2431 3119 2041 
L 3119 0 
L 2556 0 
L 2556 2019 
Q 2556 2363 2490 2533 
Q 2425 2703 2258 2804 
Q 2091 2906 1866 2906 
Q 1506 2906 1245 2678 
Q 984 2450 984 1813 
L 984 0 
L 422 0 
z
" transform="scale(0.015625)"/>
      </defs>
      <use xlink:href="#ArialMT-41"/>
      <use xlink:href="#ArialMT-69" transform="translate(66.699219 0)"/>
      <use xlink:href="#ArialMT-72" transform="translate(88.916016 0)"/>
      <use xlink:href="#ArialMT-4e" transform="translate(122.216797 0)"/>
      <use xlink:href="#ArialMT-65" transform="translate(194.433594 0)"/>
      <use xlink:href="#ArialMT-74" transform="translate(250.048828 0)"/>
      <use xlink:href="#ArialMT-20" transform="translate(277.832031 0)"/>
      <use xlink:href="#ArialMT-2d" transform="translate(305.615234 0)"/>
      <use xlink:href="#ArialMT-20" transform="translate(338.916016 0)"/>
      <use xlink:href="#ArialMT-4d" transform="translate(366.699219 0)"/>
      <use xlink:href="#ArialMT-65" transform="translate(450 0)"/>
      <use xlink:href="#ArialMT-61" transform="translate(505.615234 0)"/>
      <use xlink:href="#ArialMT-6e" transform="translate(561.230469 0)"/>
     </g>
    </g>
    <g id="line2d_16">
     <path d="M 894.507 57.384375 
L 904.507 57.384375 
L 914.507 57.384375 
" style="fill: none; stroke: #aec7e8; stroke-width: 2; stroke-linecap: round"/>
     <g>
      <use xlink:href="#m019c73e462" x="904.507" y="57.384375" style="fill: #aec7e8; stroke: #aec7e8"/>
     </g>
    </g>
    <g id="text_16">
     <!-- AirNext - Mean -->
     <g style="fill: #262626" transform="translate(922.507 60.884375) scale(0.1 -0.1)">
      <defs>
       <path id="ArialMT-78" d="M 47 0 
L 1259 1725 
L 138 3319 
L 841 3319 
L 1350 2541 
Q 1494 2319 1581 2169 
Q 1719 2375 1834 2534 
L 2394 3319 
L 3066 3319 
L 1919 1756 
L 3153 0 
L 2463 0 
L 1781 1031 
L 1600 1309 
L 728 0 
L 47 0 
z
" transform="scale(0.015625)"/>
      </defs>
      <use xlink:href="#ArialMT-41"/>
      <use xlink:href="#ArialMT-69" transform="translate(66.699219 0)"/>
      <use xlink:href="#ArialMT-72" transform="translate(88.916016 0)"/>
      <use xlink:href="#ArialMT-4e" transform="translate(122.216797 0)"/>
      <use xlink:href="#ArialMT-65" transform="translate(194.433594 0)"/>
      <use xlink:href="#ArialMT-78" transform="translate(250.048828 0)"/>
      <use xlink:href="#ArialMT-74" transform="translate(300.048828 0)"/>
      <use xlink:href="#ArialMT-20" transform="translate(327.832031 0)"/>
      <use xlink:href="#ArialMT-2d" transform="translate(355.615234 0)"/>
      <use xlink:href="#ArialMT-20" transform="translate(388.916016 0)"/>
      <use xlink:href="#ArialMT-4d" transform="translate(416.699219 0)"/>
      <use xlink:href="#ArialMT-65" transform="translate(500 0)"/>
      <use xlink:href="#ArialMT-61" transform="translate(555.615234 0)"/>
      <use xlink:href="#ArialMT-6e" transform="translate(611.230469 0)"/>
     </g>
    </g>
    <g id="line2d_17">
     <path d="M 894.507 71.529687 
L 904.507 71.529687 
L 914.507 71.529687 
" style="fill: none; stroke: #ff7f0e; stroke-width: 2; stroke-linecap: round"/>
     <g>
      <use xlink:href="#mdf4b0bd3fb" x="904.507" y="71.529687" style="fill: #ff7f0e; stroke: #ff7f0e"/>
     </g>
    </g>
    <g id="text_17">
     <!-- AlexNet - Mean -->
     <g style="fill: #262626" transform="translate(922.507 75.029687) scale(0.1 -0.1)">
      <defs>
       <path id="ArialMT-6c" d="M 409 0 
L 409 4581 
L 972 4581 
L 972 0 
L 409 0 
z
" transform="scale(0.015625)"/>
      </defs>
      <use xlink:href="#ArialMT-41"/>
      <use xlink:href="#ArialMT-6c" transform="translate(66.699219 0)"/>
      <use xlink:href="#ArialMT-65" transform="translate(88.916016 0)"/>
      <use xlink:href="#ArialMT-78" transform="translate(144.53125 0)"/>
      <use xlink:href="#ArialMT-4e" transform="translate(194.53125 0)"/>
      <use xlink:href="#ArialMT-65" transform="translate(266.748047 0)"/>
      <use xlink:href="#ArialMT-74" transform="translate(322.363281 0)"/>
      <use xlink:href="#ArialMT-20" transform="translate(350.146484 0)"/>
      <use xlink:href="#ArialMT-2d" transform="translate(377.929688 0)"/>
      <use xlink:href="#ArialMT-20" transform="translate(411.230469 0)"/>
      <use xlink:href="#ArialMT-4d" transform="translate(439.013672 0)"/>
      <use xlink:href="#ArialMT-65" transform="translate(522.314453 0)"/>
      <use xlink:href="#ArialMT-61" transform="translate(577.929688 0)"/>
      <use xlink:href="#ArialMT-6e" transform="translate(633.544922 0)"/>
     </g>
    </g>
   </g>
  </g>
 </g>
 <defs>
  <clipPath id="pa924a892cc">
   <rect x="54.81" y="30.58125" width="791.14" height="495.91875"/>
  </clipPath>
 </defs>
</svg>
