<?xml version="1.0" encoding="utf-8" standalone="no"?>
<!DOCTYPE svg PUBLIC "-//W3C//DTD SVG 1.1//EN"
  "http://www.w3.org/Graphics/SVG/1.1/DTD/svg11.dtd">
<svg xmlns:xlink="http://www.w3.org/1999/xlink" width="1008pt" height="576pt" viewBox="0 0 1008 576" xmlns="http://www.w3.org/2000/svg" version="1.1">
 <metadata>
  <rdf:RDF xmlns:dc="http://purl.org/dc/elements/1.1/" xmlns:cc="http://creativecommons.org/ns#" xmlns:rdf="http://www.w3.org/1999/02/22-rdf-syntax-ns#">
   <cc:Work>
    <dc:type rdf:resource="http://purl.org/dc/dcmitype/StillImage"/>
    <dc:date>2025-01-27T01:14:40.093337</dc:date>
    <dc:format>image/svg+xml</dc:format>
    <dc:creator>
     <cc:Agent>
      <dc:title>Matplotlib v3.10.0, https://matplotlib.org/</dc:title>
     </cc:Agent>
    </dc:creator>
   </cc:Work>
  </rdf:RDF>
 </metadata>
 <defs>
  <style type="text/css">*{stroke-linejoin: round; stroke-linecap: butt}</style>
 </defs>
 <g id="figure_1">
  <g id="patch_1">
   <path d="M 0 576 
L 1008 576 
L 1008 0 
L 0 0 
z
" style="fill: #ffffff"/>
  </g>
  <g id="axes_1">
   <g id="patch_2">
    <path d="M 67.24125 526.5 
L 988.92 526.5 
L 988.92 30.58125 
L 67.24125 30.58125 
z
" style="fill: #ffffff"/>
   </g>
   <g id="matplotlib.axis_1">
    <g id="xtick_1">
     <g id="line2d_1">
      <path d="M 76.366782 526.5 
L 76.366782 30.58125 
" clip-path="url(#p0dd42c114d)" style="fill: none; stroke-dasharray: 3.7,1.6; stroke-dashoffset: 0; stroke: #cccccc; stroke-opacity: 0.5"/>
     </g>
     <g id="text_1">
      <!-- 0 -->
      <g style="fill: #262626" transform="translate(73.308267 543.873594) scale(0.11 -0.11)">
       <defs>
        <path id="ArialMT-30" d="M 266 2259 
Q 266 3072 433 3567 
Q 600 4063 929 4331 
Q 1259 4600 1759 4600 
Q 2128 4600 2406 4451 
Q 2684 4303 2865 4023 
Q 3047 3744 3150 3342 
Q 3253 2941 3253 2259 
Q 3253 1453 3087 958 
Q 2922 463 2592 192 
Q 2263 -78 1759 -78 
Q 1097 -78 719 397 
Q 266 969 266 2259 
z
M 844 2259 
Q 844 1131 1108 757 
Q 1372 384 1759 384 
Q 2147 384 2411 759 
Q 2675 1134 2675 2259 
Q 2675 3391 2411 3762 
Q 2147 4134 1753 4134 
Q 1366 4134 1134 3806 
Q 844 3388 844 2259 
z
" transform="scale(0.015625)"/>
       </defs>
       <use xlink:href="#ArialMT-30"/>
      </g>
     </g>
    </g>
    <g id="xtick_2">
     <g id="line2d_2">
      <path d="M 258.877426 526.5 
L 258.877426 30.58125 
" clip-path="url(#p0dd42c114d)" style="fill: none; stroke-dasharray: 3.7,1.6; stroke-dashoffset: 0; stroke: #cccccc; stroke-opacity: 0.5"/>
     </g>
     <g id="text_2">
      <!-- 10 -->
      <g style="fill: #262626" transform="translate(252.760394 543.873594) scale(0.11 -0.11)">
       <defs>
        <path id="ArialMT-31" d="M 2384 0 
L 1822 0 
L 1822 3584 
Q 1619 3391 1289 3197 
Q 959 3003 697 2906 
L 697 3450 
Q 1169 3672 1522 3987 
Q 1875 4303 2022 4600 
L 2384 4600 
L 2384 0 
z
" transform="scale(0.015625)"/>
       </defs>
       <use xlink:href="#ArialMT-31"/>
       <use xlink:href="#ArialMT-30" transform="translate(55.615234 0)"/>
      </g>
     </g>
    </g>
    <g id="xtick_3">
     <g id="line2d_3">
      <path d="M 441.388069 526.5 
L 441.388069 30.58125 
" clip-path="url(#p0dd42c114d)" style="fill: none; stroke-dasharray: 3.7,1.6; stroke-dashoffset: 0; stroke: #cccccc; stroke-opacity: 0.5"/>
     </g>
     <g id="text_3">
      <!-- 20 -->
      <g style="fill: #262626" transform="translate(435.271038 543.873594) scale(0.11 -0.11)">
       <defs>
        <path id="ArialMT-32" d="M 3222 541 
L 3222 0 
L 194 0 
Q 188 203 259 391 
Q 375 700 629 1000 
Q 884 1300 1366 1694 
Q 2113 2306 2375 2664 
Q 2638 3022 2638 3341 
Q 2638 3675 2398 3904 
Q 2159 4134 1775 4134 
Q 1369 4134 1125 3890 
Q 881 3647 878 3216 
L 300 3275 
Q 359 3922 746 4261 
Q 1134 4600 1788 4600 
Q 2447 4600 2831 4234 
Q 3216 3869 3216 3328 
Q 3216 3053 3103 2787 
Q 2991 2522 2730 2228 
Q 2469 1934 1863 1422 
Q 1356 997 1212 845 
Q 1069 694 975 541 
L 3222 541 
z
" transform="scale(0.015625)"/>
       </defs>
       <use xlink:href="#ArialMT-32"/>
       <use xlink:href="#ArialMT-30" transform="translate(55.615234 0)"/>
      </g>
     </g>
    </g>
    <g id="xtick_4">
     <g id="line2d_4">
      <path d="M 623.898713 526.5 
L 623.898713 30.58125 
" clip-path="url(#p0dd42c114d)" style="fill: none; stroke-dasharray: 3.7,1.6; stroke-dashoffset: 0; stroke: #cccccc; stroke-opacity: 0.5"/>
     </g>
     <g id="text_4">
      <!-- 30 -->
      <g style="fill: #262626" transform="translate(617.781682 543.873594) scale(0.11 -0.11)">
       <defs>
        <path id="ArialMT-33" d="M 269 1209 
L 831 1284 
Q 928 806 1161 595 
Q 1394 384 1728 384 
Q 2125 384 2398 659 
Q 2672 934 2672 1341 
Q 2672 1728 2419 1979 
Q 2166 2231 1775 2231 
Q 1616 2231 1378 2169 
L 1441 2663 
Q 1497 2656 1531 2656 
Q 1891 2656 2178 2843 
Q 2466 3031 2466 3422 
Q 2466 3731 2256 3934 
Q 2047 4138 1716 4138 
Q 1388 4138 1169 3931 
Q 950 3725 888 3313 
L 325 3413 
Q 428 3978 793 4289 
Q 1159 4600 1703 4600 
Q 2078 4600 2393 4439 
Q 2709 4278 2876 4000 
Q 3044 3722 3044 3409 
Q 3044 3113 2884 2869 
Q 2725 2625 2413 2481 
Q 2819 2388 3044 2092 
Q 3269 1797 3269 1353 
Q 3269 753 2831 336 
Q 2394 -81 1725 -81 
Q 1122 -81 723 278 
Q 325 638 269 1209 
z
" transform="scale(0.015625)"/>
       </defs>
       <use xlink:href="#ArialMT-33"/>
       <use xlink:href="#ArialMT-30" transform="translate(55.615234 0)"/>
      </g>
     </g>
    </g>
    <g id="xtick_5">
     <g id="line2d_5">
      <path d="M 806.409356 526.5 
L 806.409356 30.58125 
" clip-path="url(#p0dd42c114d)" style="fill: none; stroke-dasharray: 3.7,1.6; stroke-dashoffset: 0; stroke: #cccccc; stroke-opacity: 0.5"/>
     </g>
     <g id="text_5">
      <!-- 40 -->
      <g style="fill: #262626" transform="translate(800.292325 543.873594) scale(0.11 -0.11)">
       <defs>
        <path id="ArialMT-34" d="M 2069 0 
L 2069 1097 
L 81 1097 
L 81 1613 
L 2172 4581 
L 2631 4581 
L 2631 1613 
L 3250 1613 
L 3250 1097 
L 2631 1097 
L 2631 0 
L 2069 0 
z
M 2069 1613 
L 2069 3678 
L 634 1613 
L 2069 1613 
z
" transform="scale(0.015625)"/>
       </defs>
       <use xlink:href="#ArialMT-34"/>
       <use xlink:href="#ArialMT-30" transform="translate(55.615234 0)"/>
      </g>
     </g>
    </g>
    <g id="xtick_6">
     <g id="line2d_6">
      <path d="M 988.92 526.5 
L 988.92 30.58125 
" clip-path="url(#p0dd42c114d)" style="fill: none; stroke-dasharray: 3.7,1.6; stroke-dashoffset: 0; stroke: #cccccc; stroke-opacity: 0.5"/>
     </g>
     <g id="text_6">
      <!-- 50 -->
      <g style="fill: #262626" transform="translate(982.802969 543.873594) scale(0.11 -0.11)">
       <defs>
        <path id="ArialMT-35" d="M 266 1200 
L 856 1250 
Q 922 819 1161 601 
Q 1400 384 1738 384 
Q 2144 384 2425 690 
Q 2706 997 2706 1503 
Q 2706 1984 2436 2262 
Q 2166 2541 1728 2541 
Q 1456 2541 1237 2417 
Q 1019 2294 894 2097 
L 366 2166 
L 809 4519 
L 3088 4519 
L 3088 3981 
L 1259 3981 
L 1013 2750 
Q 1425 3038 1878 3038 
Q 2478 3038 2890 2622 
Q 3303 2206 3303 1553 
Q 3303 931 2941 478 
Q 2500 -78 1738 -78 
Q 1113 -78 717 272 
Q 322 622 266 1200 
z
" transform="scale(0.015625)"/>
       </defs>
       <use xlink:href="#ArialMT-35"/>
       <use xlink:href="#ArialMT-30" transform="translate(55.615234 0)"/>
      </g>
     </g>
    </g>
    <g id="text_7">
     <!-- Epoch -->
     <g style="fill: #262626" transform="translate(508.233438 560.080781) scale(0.14 -0.14)">
      <defs>
       <path id="ArialMT-45" d="M 506 0 
L 506 4581 
L 3819 4581 
L 3819 4041 
L 1113 4041 
L 1113 2638 
L 3647 2638 
L 3647 2100 
L 1113 2100 
L 1113 541 
L 3925 541 
L 3925 0 
L 506 0 
z
" transform="scale(0.015625)"/>
       <path id="ArialMT-70" d="M 422 -1272 
L 422 3319 
L 934 3319 
L 934 2888 
Q 1116 3141 1344 3267 
Q 1572 3394 1897 3394 
Q 2322 3394 2647 3175 
Q 2972 2956 3137 2557 
Q 3303 2159 3303 1684 
Q 3303 1175 3120 767 
Q 2938 359 2589 142 
Q 2241 -75 1856 -75 
Q 1575 -75 1351 44 
Q 1128 163 984 344 
L 984 -1272 
L 422 -1272 
z
M 931 1641 
Q 931 1000 1190 694 
Q 1450 388 1819 388 
Q 2194 388 2461 705 
Q 2728 1022 2728 1688 
Q 2728 2322 2467 2637 
Q 2206 2953 1844 2953 
Q 1484 2953 1207 2617 
Q 931 2281 931 1641 
z
" transform="scale(0.015625)"/>
       <path id="ArialMT-6f" d="M 213 1659 
Q 213 2581 725 3025 
Q 1153 3394 1769 3394 
Q 2453 3394 2887 2945 
Q 3322 2497 3322 1706 
Q 3322 1066 3130 698 
Q 2938 331 2570 128 
Q 2203 -75 1769 -75 
Q 1072 -75 642 372 
Q 213 819 213 1659 
z
M 791 1659 
Q 791 1022 1069 705 
Q 1347 388 1769 388 
Q 2188 388 2466 706 
Q 2744 1025 2744 1678 
Q 2744 2294 2464 2611 
Q 2184 2928 1769 2928 
Q 1347 2928 1069 2612 
Q 791 2297 791 1659 
z
" transform="scale(0.015625)"/>
       <path id="ArialMT-63" d="M 2588 1216 
L 3141 1144 
Q 3050 572 2676 248 
Q 2303 -75 1759 -75 
Q 1078 -75 664 370 
Q 250 816 250 1647 
Q 250 2184 428 2587 
Q 606 2991 970 3192 
Q 1334 3394 1763 3394 
Q 2303 3394 2647 3120 
Q 2991 2847 3088 2344 
L 2541 2259 
Q 2463 2594 2264 2762 
Q 2066 2931 1784 2931 
Q 1359 2931 1093 2626 
Q 828 2322 828 1663 
Q 828 994 1084 691 
Q 1341 388 1753 388 
Q 2084 388 2306 591 
Q 2528 794 2588 1216 
z
" transform="scale(0.015625)"/>
       <path id="ArialMT-68" d="M 422 0 
L 422 4581 
L 984 4581 
L 984 2938 
Q 1378 3394 1978 3394 
Q 2347 3394 2619 3248 
Q 2891 3103 3008 2847 
Q 3125 2591 3125 2103 
L 3125 0 
L 2563 0 
L 2563 2103 
Q 2563 2525 2380 2717 
Q 2197 2909 1863 2909 
Q 1613 2909 1392 2779 
Q 1172 2650 1078 2428 
Q 984 2206 984 1816 
L 984 0 
L 422 0 
z
" transform="scale(0.015625)"/>
      </defs>
      <use xlink:href="#ArialMT-45"/>
      <use xlink:href="#ArialMT-70" transform="translate(66.699219 0)"/>
      <use xlink:href="#ArialMT-6f" transform="translate(122.314453 0)"/>
      <use xlink:href="#ArialMT-63" transform="translate(177.929688 0)"/>
      <use xlink:href="#ArialMT-68" transform="translate(227.929688 0)"/>
     </g>
    </g>
   </g>
   <g id="matplotlib.axis_2">
    <g id="ytick_1">
     <g id="line2d_7">
      <path d="M 67.24125 473.690842 
L 988.92 473.690842 
" clip-path="url(#p0dd42c114d)" style="fill: none; stroke-dasharray: 3.7,1.6; stroke-dashoffset: 0; stroke: #cccccc; stroke-opacity: 0.5"/>
     </g>
     <g id="text_8">
      <!-- 0.125 -->
      <g style="fill: #262626" transform="translate(30.217188 477.627639) scale(0.11 -0.11)">
       <defs>
        <path id="ArialMT-2e" d="M 581 0 
L 581 641 
L 1222 641 
L 1222 0 
L 581 0 
z
" transform="scale(0.015625)"/>
       </defs>
       <use xlink:href="#ArialMT-30"/>
       <use xlink:href="#ArialMT-2e" transform="translate(55.615234 0)"/>
       <use xlink:href="#ArialMT-31" transform="translate(83.398438 0)"/>
       <use xlink:href="#ArialMT-32" transform="translate(139.013672 0)"/>
       <use xlink:href="#ArialMT-35" transform="translate(194.628906 0)"/>
      </g>
     </g>
    </g>
    <g id="ytick_2">
     <g id="line2d_8">
      <path d="M 67.24125 412.743218 
L 988.92 412.743218 
" clip-path="url(#p0dd42c114d)" style="fill: none; stroke-dasharray: 3.7,1.6; stroke-dashoffset: 0; stroke: #cccccc; stroke-opacity: 0.5"/>
     </g>
     <g id="text_9">
      <!-- 0.150 -->
      <g style="fill: #262626" transform="translate(30.217188 416.680015) scale(0.11 -0.11)">
       <use xlink:href="#ArialMT-30"/>
       <use xlink:href="#ArialMT-2e" transform="translate(55.615234 0)"/>
       <use xlink:href="#ArialMT-31" transform="translate(83.398438 0)"/>
       <use xlink:href="#ArialMT-35" transform="translate(139.013672 0)"/>
       <use xlink:href="#ArialMT-30" transform="translate(194.628906 0)"/>
      </g>
     </g>
    </g>
    <g id="ytick_3">
     <g id="line2d_9">
      <path d="M 67.24125 351.795594 
L 988.92 351.795594 
" clip-path="url(#p0dd42c114d)" style="fill: none; stroke-dasharray: 3.7,1.6; stroke-dashoffset: 0; stroke: #cccccc; stroke-opacity: 0.5"/>
     </g>
     <g id="text_10">
      <!-- 0.175 -->
      <g style="fill: #262626" transform="translate(30.217188 355.732391) scale(0.11 -0.11)">
       <defs>
        <path id="ArialMT-37" d="M 303 3981 
L 303 4522 
L 3269 4522 
L 3269 4084 
Q 2831 3619 2401 2847 
Q 1972 2075 1738 1259 
Q 1569 684 1522 0 
L 944 0 
Q 953 541 1156 1306 
Q 1359 2072 1739 2783 
Q 2119 3494 2547 3981 
L 303 3981 
z
" transform="scale(0.015625)"/>
       </defs>
       <use xlink:href="#ArialMT-30"/>
       <use xlink:href="#ArialMT-2e" transform="translate(55.615234 0)"/>
       <use xlink:href="#ArialMT-31" transform="translate(83.398438 0)"/>
       <use xlink:href="#ArialMT-37" transform="translate(139.013672 0)"/>
       <use xlink:href="#ArialMT-35" transform="translate(194.628906 0)"/>
      </g>
     </g>
    </g>
    <g id="ytick_4">
     <g id="line2d_10">
      <path d="M 67.24125 290.84797 
L 988.92 290.84797 
" clip-path="url(#p0dd42c114d)" style="fill: none; stroke-dasharray: 3.7,1.6; stroke-dashoffset: 0; stroke: #cccccc; stroke-opacity: 0.5"/>
     </g>
     <g id="text_11">
      <!-- 0.200 -->
      <g style="fill: #262626" transform="translate(30.217188 294.784766) scale(0.11 -0.11)">
       <use xlink:href="#ArialMT-30"/>
       <use xlink:href="#ArialMT-2e" transform="translate(55.615234 0)"/>
       <use xlink:href="#ArialMT-32" transform="translate(83.398438 0)"/>
       <use xlink:href="#ArialMT-30" transform="translate(139.013672 0)"/>
       <use xlink:href="#ArialMT-30" transform="translate(194.628906 0)"/>
      </g>
     </g>
    </g>
    <g id="ytick_5">
     <g id="line2d_11">
      <path d="M 67.24125 229.900345 
L 988.92 229.900345 
" clip-path="url(#p0dd42c114d)" style="fill: none; stroke-dasharray: 3.7,1.6; stroke-dashoffset: 0; stroke: #cccccc; stroke-opacity: 0.5"/>
     </g>
     <g id="text_12">
      <!-- 0.225 -->
      <g style="fill: #262626" transform="translate(30.217188 233.837142) scale(0.11 -0.11)">
       <use xlink:href="#ArialMT-30"/>
       <use xlink:href="#ArialMT-2e" transform="translate(55.615234 0)"/>
       <use xlink:href="#ArialMT-32" transform="translate(83.398438 0)"/>
       <use xlink:href="#ArialMT-32" transform="translate(139.013672 0)"/>
       <use xlink:href="#ArialMT-35" transform="translate(194.628906 0)"/>
      </g>
     </g>
    </g>
    <g id="ytick_6">
     <g id="line2d_12">
      <path d="M 67.24125 168.952721 
L 988.92 168.952721 
" clip-path="url(#p0dd42c114d)" style="fill: none; stroke-dasharray: 3.7,1.6; stroke-dashoffset: 0; stroke: #cccccc; stroke-opacity: 0.5"/>
     </g>
     <g id="text_13">
      <!-- 0.250 -->
      <g style="fill: #262626" transform="translate(30.217188 172.889518) scale(0.11 -0.11)">
       <use xlink:href="#ArialMT-30"/>
       <use xlink:href="#ArialMT-2e" transform="translate(55.615234 0)"/>
       <use xlink:href="#ArialMT-32" transform="translate(83.398438 0)"/>
       <use xlink:href="#ArialMT-35" transform="translate(139.013672 0)"/>
       <use xlink:href="#ArialMT-30" transform="translate(194.628906 0)"/>
      </g>
     </g>
    </g>
    <g id="ytick_7">
     <g id="line2d_13">
      <path d="M 67.24125 108.005097 
L 988.92 108.005097 
" clip-path="url(#p0dd42c114d)" style="fill: none; stroke-dasharray: 3.7,1.6; stroke-dashoffset: 0; stroke: #cccccc; stroke-opacity: 0.5"/>
     </g>
     <g id="text_14">
      <!-- 0.275 -->
      <g style="fill: #262626" transform="translate(30.217188 111.941894) scale(0.11 -0.11)">
       <use xlink:href="#ArialMT-30"/>
       <use xlink:href="#ArialMT-2e" transform="translate(55.615234 0)"/>
       <use xlink:href="#ArialMT-32" transform="translate(83.398438 0)"/>
       <use xlink:href="#ArialMT-37" transform="translate(139.013672 0)"/>
       <use xlink:href="#ArialMT-35" transform="translate(194.628906 0)"/>
      </g>
     </g>
    </g>
    <g id="ytick_8">
     <g id="line2d_14">
      <path d="M 67.24125 47.057473 
L 988.92 47.057473 
" clip-path="url(#p0dd42c114d)" style="fill: none; stroke-dasharray: 3.7,1.6; stroke-dashoffset: 0; stroke: #cccccc; stroke-opacity: 0.5"/>
     </g>
     <g id="text_15">
      <!-- 0.300 -->
      <g style="fill: #262626" transform="translate(30.217188 50.99427) scale(0.11 -0.11)">
       <use xlink:href="#ArialMT-30"/>
       <use xlink:href="#ArialMT-2e" transform="translate(55.615234 0)"/>
       <use xlink:href="#ArialMT-33" transform="translate(83.398438 0)"/>
       <use xlink:href="#ArialMT-30" transform="translate(139.013672 0)"/>
       <use xlink:href="#ArialMT-30" transform="translate(194.628906 0)"/>
      </g>
     </g>
    </g>
    <g id="text_16">
     <!-- Iou_mean -->
     <g style="fill: #262626" transform="translate(23.434688 309.672031) rotate(-90) scale(0.14 -0.14)">
      <defs>
       <path id="ArialMT-49" d="M 597 0 
L 597 4581 
L 1203 4581 
L 1203 0 
L 597 0 
z
" transform="scale(0.015625)"/>
       <path id="ArialMT-75" d="M 2597 0 
L 2597 488 
Q 2209 -75 1544 -75 
Q 1250 -75 995 37 
Q 741 150 617 320 
Q 494 491 444 738 
Q 409 903 409 1263 
L 409 3319 
L 972 3319 
L 972 1478 
Q 972 1038 1006 884 
Q 1059 663 1231 536 
Q 1403 409 1656 409 
Q 1909 409 2131 539 
Q 2353 669 2445 892 
Q 2538 1116 2538 1541 
L 2538 3319 
L 3100 3319 
L 3100 0 
L 2597 0 
z
" transform="scale(0.015625)"/>
       <path id="ArialMT-5f" d="M -97 -1272 
L -97 -866 
L 3631 -866 
L 3631 -1272 
L -97 -1272 
z
" transform="scale(0.015625)"/>
       <path id="ArialMT-6d" d="M 422 0 
L 422 3319 
L 925 3319 
L 925 2853 
Q 1081 3097 1340 3245 
Q 1600 3394 1931 3394 
Q 2300 3394 2536 3241 
Q 2772 3088 2869 2813 
Q 3263 3394 3894 3394 
Q 4388 3394 4653 3120 
Q 4919 2847 4919 2278 
L 4919 0 
L 4359 0 
L 4359 2091 
Q 4359 2428 4304 2576 
Q 4250 2725 4106 2815 
Q 3963 2906 3769 2906 
Q 3419 2906 3187 2673 
Q 2956 2441 2956 1928 
L 2956 0 
L 2394 0 
L 2394 2156 
Q 2394 2531 2256 2718 
Q 2119 2906 1806 2906 
Q 1569 2906 1367 2781 
Q 1166 2656 1075 2415 
Q 984 2175 984 1722 
L 984 0 
L 422 0 
z
" transform="scale(0.015625)"/>
       <path id="ArialMT-65" d="M 2694 1069 
L 3275 997 
Q 3138 488 2766 206 
Q 2394 -75 1816 -75 
Q 1088 -75 661 373 
Q 234 822 234 1631 
Q 234 2469 665 2931 
Q 1097 3394 1784 3394 
Q 2450 3394 2872 2941 
Q 3294 2488 3294 1666 
Q 3294 1616 3291 1516 
L 816 1516 
Q 847 969 1125 678 
Q 1403 388 1819 388 
Q 2128 388 2347 550 
Q 2566 713 2694 1069 
z
M 847 1978 
L 2700 1978 
Q 2663 2397 2488 2606 
Q 2219 2931 1791 2931 
Q 1403 2931 1139 2672 
Q 875 2413 847 1978 
z
" transform="scale(0.015625)"/>
       <path id="ArialMT-61" d="M 2588 409 
Q 2275 144 1986 34 
Q 1697 -75 1366 -75 
Q 819 -75 525 192 
Q 231 459 231 875 
Q 231 1119 342 1320 
Q 453 1522 633 1644 
Q 813 1766 1038 1828 
Q 1203 1872 1538 1913 
Q 2219 1994 2541 2106 
Q 2544 2222 2544 2253 
Q 2544 2597 2384 2738 
Q 2169 2928 1744 2928 
Q 1347 2928 1158 2789 
Q 969 2650 878 2297 
L 328 2372 
Q 403 2725 575 2942 
Q 747 3159 1072 3276 
Q 1397 3394 1825 3394 
Q 2250 3394 2515 3294 
Q 2781 3194 2906 3042 
Q 3031 2891 3081 2659 
Q 3109 2516 3109 2141 
L 3109 1391 
Q 3109 606 3145 398 
Q 3181 191 3288 0 
L 2700 0 
Q 2613 175 2588 409 
z
M 2541 1666 
Q 2234 1541 1622 1453 
Q 1275 1403 1131 1340 
Q 988 1278 909 1158 
Q 831 1038 831 891 
Q 831 666 1001 516 
Q 1172 366 1500 366 
Q 1825 366 2078 508 
Q 2331 650 2450 897 
Q 2541 1088 2541 1459 
L 2541 1666 
z
" transform="scale(0.015625)"/>
       <path id="ArialMT-6e" d="M 422 0 
L 422 3319 
L 928 3319 
L 928 2847 
Q 1294 3394 1984 3394 
Q 2284 3394 2536 3286 
Q 2788 3178 2913 3003 
Q 3038 2828 3088 2588 
Q 3119 2431 3119 2041 
L 3119 0 
L 2556 0 
L 2556 2019 
Q 2556 2363 2490 2533 
Q 2425 2703 2258 2804 
Q 2091 2906 1866 2906 
Q 1506 2906 1245 2678 
Q 984 2450 984 1813 
L 984 0 
L 422 0 
z
" transform="scale(0.015625)"/>
      </defs>
      <use xlink:href="#ArialMT-49"/>
      <use xlink:href="#ArialMT-6f" transform="translate(27.783203 0)"/>
      <use xlink:href="#ArialMT-75" transform="translate(83.398438 0)"/>
      <use xlink:href="#ArialMT-5f" transform="translate(139.013672 0)"/>
      <use xlink:href="#ArialMT-6d" transform="translate(194.628906 0)"/>
      <use xlink:href="#ArialMT-65" transform="translate(277.929688 0)"/>
      <use xlink:href="#ArialMT-61" transform="translate(333.544922 0)"/>
      <use xlink:href="#ArialMT-6e" transform="translate(389.160156 0)"/>
     </g>
    </g>
   </g>
   <g id="patch_3">
    <path d="M 69.97891 395.842145 
L 82.754655 395.842145 
L 82.754655 341.941273 
L 69.97891 341.941273 
L 69.97891 395.842145 
z
" clip-path="url(#p0dd42c114d)" style="fill: #72b6a1; stroke: #595959; stroke-linejoin: miter"/>
   </g>
   <g id="line2d_15">
    <path d="M 76.366782 395.842145 
L 76.366782 416.440361 
" clip-path="url(#p0dd42c114d)" style="fill: none; stroke: #595959"/>
   </g>
   <g id="line2d_16">
    <path d="M 76.366782 341.941273 
L 76.366782 313.452983 
" clip-path="url(#p0dd42c114d)" style="fill: none; stroke: #595959"/>
   </g>
   <g id="line2d_17">
    <path d="M 73.172846 416.440361 
L 79.560718 416.440361 
" clip-path="url(#p0dd42c114d)" style="fill: none; stroke: #595959; stroke-linecap: round"/>
   </g>
   <g id="line2d_18">
    <path d="M 73.172846 313.452983 
L 79.560718 313.452983 
" clip-path="url(#p0dd42c114d)" style="fill: none; stroke: #595959; stroke-linecap: round"/>
   </g>
   <g id="line2d_19"/>
   <g id="patch_4">
    <path d="M 88.229974 379.707043 
L 101.005719 379.707043 
L 101.005719 285.875825 
L 88.229974 285.875825 
L 88.229974 379.707043 
z
" clip-path="url(#p0dd42c114d)" style="fill: #72b6a1; stroke: #595959; stroke-linejoin: miter"/>
   </g>
   <g id="line2d_20">
    <path d="M 94.617847 379.707043 
L 94.617847 416.295176 
" clip-path="url(#p0dd42c114d)" style="fill: none; stroke: #595959"/>
   </g>
   <g id="line2d_21">
    <path d="M 94.617847 285.875825 
L 94.617847 229.024211 
" clip-path="url(#p0dd42c114d)" style="fill: none; stroke: #595959"/>
   </g>
   <g id="line2d_22">
    <path d="M 91.42391 416.295176 
L 97.811783 416.295176 
" clip-path="url(#p0dd42c114d)" style="fill: none; stroke: #595959; stroke-linecap: round"/>
   </g>
   <g id="line2d_23">
    <path d="M 91.42391 229.024211 
L 97.811783 229.024211 
" clip-path="url(#p0dd42c114d)" style="fill: none; stroke: #595959; stroke-linecap: round"/>
   </g>
   <g id="line2d_24"/>
   <g id="patch_5">
    <path d="M 106.481038 352.415183 
L 119.256783 352.415183 
L 119.256783 248.123314 
L 106.481038 248.123314 
L 106.481038 352.415183 
z
" clip-path="url(#p0dd42c114d)" style="fill: #72b6a1; stroke: #595959; stroke-linejoin: miter"/>
   </g>
   <g id="line2d_25">
    <path d="M 112.868911 352.415183 
L 112.868911 398.843224 
" clip-path="url(#p0dd42c114d)" style="fill: none; stroke: #595959"/>
   </g>
   <g id="line2d_26">
    <path d="M 112.868911 248.123314 
L 112.868911 195.729759 
" clip-path="url(#p0dd42c114d)" style="fill: none; stroke: #595959"/>
   </g>
   <g id="line2d_27">
    <path d="M 109.674975 398.843224 
L 116.062847 398.843224 
" clip-path="url(#p0dd42c114d)" style="fill: none; stroke: #595959; stroke-linecap: round"/>
   </g>
   <g id="line2d_28">
    <path d="M 109.674975 195.729759 
L 116.062847 195.729759 
" clip-path="url(#p0dd42c114d)" style="fill: none; stroke: #595959; stroke-linecap: round"/>
   </g>
   <g id="line2d_29"/>
   <g id="patch_6">
    <path d="M 124.732103 333.071725 
L 137.507848 333.071725 
L 137.507848 248.187791 
L 124.732103 248.187791 
L 124.732103 333.071725 
z
" clip-path="url(#p0dd42c114d)" style="fill: #72b6a1; stroke: #595959; stroke-linejoin: miter"/>
   </g>
   <g id="line2d_30">
    <path d="M 131.119975 333.071725 
L 131.119975 409.255923 
" clip-path="url(#p0dd42c114d)" style="fill: none; stroke: #595959"/>
   </g>
   <g id="line2d_31">
    <path d="M 131.119975 248.187791 
L 131.119975 141.103935 
" clip-path="url(#p0dd42c114d)" style="fill: none; stroke: #595959"/>
   </g>
   <g id="line2d_32">
    <path d="M 127.926039 409.255923 
L 134.313912 409.255923 
" clip-path="url(#p0dd42c114d)" style="fill: none; stroke: #595959; stroke-linecap: round"/>
   </g>
   <g id="line2d_33">
    <path d="M 127.926039 141.103935 
L 134.313912 141.103935 
" clip-path="url(#p0dd42c114d)" style="fill: none; stroke: #595959; stroke-linecap: round"/>
   </g>
   <g id="line2d_34">
    <defs>
     <path id="m01a5fa9b43" d="M 0 3 
C 0.795609 3 1.55874 2.683901 2.12132 2.12132 
C 2.683901 1.55874 3 0.795609 3 0 
C 3 -0.795609 2.683901 -1.55874 2.12132 -2.12132 
C 1.55874 -2.683901 0.795609 -3 0 -3 
C -0.795609 -3 -1.55874 -2.683901 -2.12132 -2.12132 
C -2.683901 -1.55874 -3 -0.795609 -3 0 
C -3 0.795609 -2.683901 1.55874 -2.12132 2.12132 
C -1.55874 2.683901 -0.795609 3 0 3 
z
" style="stroke: #595959"/>
    </defs>
    <g clip-path="url(#p0dd42c114d)">
     <use xlink:href="#m01a5fa9b43" x="131.119975" y="87.741746" style="fill-opacity: 0; stroke: #595959"/>
    </g>
   </g>
   <g id="patch_7">
    <path d="M 142.983167 320.683012 
L 155.758912 320.683012 
L 155.758912 219.995204 
L 142.983167 219.995204 
L 142.983167 320.683012 
z
" clip-path="url(#p0dd42c114d)" style="fill: #72b6a1; stroke: #595959; stroke-linejoin: miter"/>
   </g>
   <g id="line2d_35">
    <path d="M 149.37104 320.683012 
L 149.37104 361.244972 
" clip-path="url(#p0dd42c114d)" style="fill: none; stroke: #595959"/>
   </g>
   <g id="line2d_36">
    <path d="M 149.37104 219.995204 
L 149.37104 133.385262 
" clip-path="url(#p0dd42c114d)" style="fill: none; stroke: #595959"/>
   </g>
   <g id="line2d_37">
    <path d="M 146.177103 361.244972 
L 152.564976 361.244972 
" clip-path="url(#p0dd42c114d)" style="fill: none; stroke: #595959; stroke-linecap: round"/>
   </g>
   <g id="line2d_38">
    <path d="M 146.177103 133.385262 
L 152.564976 133.385262 
" clip-path="url(#p0dd42c114d)" style="fill: none; stroke: #595959; stroke-linecap: round"/>
   </g>
   <g id="line2d_39">
    <g clip-path="url(#p0dd42c114d)">
     <use xlink:href="#m01a5fa9b43" x="149.37104" y="53.123011" style="fill-opacity: 0; stroke: #595959"/>
    </g>
   </g>
   <g id="patch_8">
    <path d="M 161.234231 404.77627 
L 174.009976 404.77627 
L 174.009976 325.838088 
L 161.234231 325.838088 
L 161.234231 404.77627 
z
" clip-path="url(#p0dd42c114d)" style="fill: #72b6a1; stroke: #595959; stroke-linejoin: miter"/>
   </g>
   <g id="line2d_40">
    <path d="M 167.622104 404.77627 
L 167.622104 447.497342 
" clip-path="url(#p0dd42c114d)" style="fill: none; stroke: #595959"/>
   </g>
   <g id="line2d_41">
    <path d="M 167.622104 325.838088 
L 167.622104 229.544858 
" clip-path="url(#p0dd42c114d)" style="fill: none; stroke: #595959"/>
   </g>
   <g id="line2d_42">
    <path d="M 164.428168 447.497342 
L 170.81604 447.497342 
" clip-path="url(#p0dd42c114d)" style="fill: none; stroke: #595959; stroke-linecap: round"/>
   </g>
   <g id="line2d_43">
    <path d="M 164.428168 229.544858 
L 170.81604 229.544858 
" clip-path="url(#p0dd42c114d)" style="fill: none; stroke: #595959; stroke-linecap: round"/>
   </g>
   <g id="line2d_44"/>
   <g id="patch_9">
    <path d="M 179.485296 403.699235 
L 192.261041 403.699235 
L 192.261041 337.847501 
L 179.485296 337.847501 
L 179.485296 403.699235 
z
" clip-path="url(#p0dd42c114d)" style="fill: #72b6a1; stroke: #595959; stroke-linejoin: miter"/>
   </g>
   <g id="line2d_45">
    <path d="M 185.873168 403.699235 
L 185.873168 447.135174 
" clip-path="url(#p0dd42c114d)" style="fill: none; stroke: #595959"/>
   </g>
   <g id="line2d_46">
    <path d="M 185.873168 337.847501 
L 185.873168 309.414001 
" clip-path="url(#p0dd42c114d)" style="fill: none; stroke: #595959"/>
   </g>
   <g id="line2d_47">
    <path d="M 182.679232 447.135174 
L 189.067105 447.135174 
" clip-path="url(#p0dd42c114d)" style="fill: none; stroke: #595959; stroke-linecap: round"/>
   </g>
   <g id="line2d_48">
    <path d="M 182.679232 309.414001 
L 189.067105 309.414001 
" clip-path="url(#p0dd42c114d)" style="fill: none; stroke: #595959; stroke-linecap: round"/>
   </g>
   <g id="line2d_49">
    <g clip-path="url(#p0dd42c114d)">
     <use xlink:href="#m01a5fa9b43" x="185.873168" y="161.572246" style="fill-opacity: 0; stroke: #595959"/>
    </g>
   </g>
   <g id="patch_10">
    <path d="M 197.73636 436.382881 
L 210.512105 436.382881 
L 210.512105 313.592932 
L 197.73636 313.592932 
L 197.73636 436.382881 
z
" clip-path="url(#p0dd42c114d)" style="fill: #72b6a1; stroke: #595959; stroke-linejoin: miter"/>
   </g>
   <g id="line2d_50">
    <path d="M 204.124233 436.382881 
L 204.124233 448.603209 
" clip-path="url(#p0dd42c114d)" style="fill: none; stroke: #595959"/>
   </g>
   <g id="line2d_51">
    <path d="M 204.124233 313.592932 
L 204.124233 198.642748 
" clip-path="url(#p0dd42c114d)" style="fill: none; stroke: #595959"/>
   </g>
   <g id="line2d_52">
    <path d="M 200.930296 448.603209 
L 207.318169 448.603209 
" clip-path="url(#p0dd42c114d)" style="fill: none; stroke: #595959; stroke-linecap: round"/>
   </g>
   <g id="line2d_53">
    <path d="M 200.930296 198.642748 
L 207.318169 198.642748 
" clip-path="url(#p0dd42c114d)" style="fill: none; stroke: #595959; stroke-linecap: round"/>
   </g>
   <g id="line2d_54"/>
   <g id="patch_11">
    <path d="M 215.987425 447.065806 
L 228.76317 447.065806 
L 228.76317 310.427474 
L 215.987425 310.427474 
L 215.987425 447.065806 
z
" clip-path="url(#p0dd42c114d)" style="fill: #72b6a1; stroke: #595959; stroke-linejoin: miter"/>
   </g>
   <g id="line2d_55">
    <path d="M 222.375297 447.065806 
L 222.375297 503.958239 
" clip-path="url(#p0dd42c114d)" style="fill: none; stroke: #595959"/>
   </g>
   <g id="line2d_56">
    <path d="M 222.375297 310.427474 
L 222.375297 203.936541 
" clip-path="url(#p0dd42c114d)" style="fill: none; stroke: #595959"/>
   </g>
   <g id="line2d_57">
    <path d="M 219.181361 503.958239 
L 225.569233 503.958239 
" clip-path="url(#p0dd42c114d)" style="fill: none; stroke: #595959; stroke-linecap: round"/>
   </g>
   <g id="line2d_58">
    <path d="M 219.181361 203.936541 
L 225.569233 203.936541 
" clip-path="url(#p0dd42c114d)" style="fill: none; stroke: #595959; stroke-linecap: round"/>
   </g>
   <g id="line2d_59"/>
   <g id="patch_12">
    <path d="M 234.238489 426.400343 
L 247.014234 426.400343 
L 247.014234 261.724378 
L 234.238489 261.724378 
L 234.238489 426.400343 
z
" clip-path="url(#p0dd42c114d)" style="fill: #72b6a1; stroke: #595959; stroke-linejoin: miter"/>
   </g>
   <g id="line2d_60">
    <path d="M 240.626361 426.400343 
L 240.626361 448.603209 
" clip-path="url(#p0dd42c114d)" style="fill: none; stroke: #595959"/>
   </g>
   <g id="line2d_61">
    <path d="M 240.626361 261.724378 
L 240.626361 111.569488 
" clip-path="url(#p0dd42c114d)" style="fill: none; stroke: #595959"/>
   </g>
   <g id="line2d_62">
    <path d="M 237.432425 448.603209 
L 243.820298 448.603209 
" clip-path="url(#p0dd42c114d)" style="fill: none; stroke: #595959; stroke-linecap: round"/>
   </g>
   <g id="line2d_63">
    <path d="M 237.432425 111.569488 
L 243.820298 111.569488 
" clip-path="url(#p0dd42c114d)" style="fill: none; stroke: #595959; stroke-linecap: round"/>
   </g>
   <g id="line2d_64"/>
   <g id="patch_13">
    <path d="M 252.489553 424.503442 
L 265.265298 424.503442 
L 265.265298 239.172537 
L 252.489553 239.172537 
L 252.489553 424.503442 
z
" clip-path="url(#p0dd42c114d)" style="fill: #72b6a1; stroke: #595959; stroke-linejoin: miter"/>
   </g>
   <g id="line2d_65">
    <path d="M 258.877426 424.503442 
L 258.877426 448.603209 
" clip-path="url(#p0dd42c114d)" style="fill: none; stroke: #595959"/>
   </g>
   <g id="line2d_66">
    <path d="M 258.877426 239.172537 
L 258.877426 131.936662 
" clip-path="url(#p0dd42c114d)" style="fill: none; stroke: #595959"/>
   </g>
   <g id="line2d_67">
    <path d="M 255.683489 448.603209 
L 262.071362 448.603209 
" clip-path="url(#p0dd42c114d)" style="fill: none; stroke: #595959; stroke-linecap: round"/>
   </g>
   <g id="line2d_68">
    <path d="M 255.683489 131.936662 
L 262.071362 131.936662 
" clip-path="url(#p0dd42c114d)" style="fill: none; stroke: #595959; stroke-linecap: round"/>
   </g>
   <g id="line2d_69"/>
   <g id="patch_14">
    <path d="M 270.740618 418.882361 
L 283.516363 418.882361 
L 283.516363 252.541305 
L 270.740618 252.541305 
L 270.740618 418.882361 
z
" clip-path="url(#p0dd42c114d)" style="fill: #72b6a1; stroke: #595959; stroke-linejoin: miter"/>
   </g>
   <g id="line2d_70">
    <path d="M 277.12849 418.882361 
L 277.12849 448.603209 
" clip-path="url(#p0dd42c114d)" style="fill: none; stroke: #595959"/>
   </g>
   <g id="line2d_71">
    <path d="M 277.12849 252.541305 
L 277.12849 128.922142 
" clip-path="url(#p0dd42c114d)" style="fill: none; stroke: #595959"/>
   </g>
   <g id="line2d_72">
    <path d="M 273.934554 448.603209 
L 280.322426 448.603209 
" clip-path="url(#p0dd42c114d)" style="fill: none; stroke: #595959; stroke-linecap: round"/>
   </g>
   <g id="line2d_73">
    <path d="M 273.934554 128.922142 
L 280.322426 128.922142 
" clip-path="url(#p0dd42c114d)" style="fill: none; stroke: #595959; stroke-linecap: round"/>
   </g>
   <g id="line2d_74"/>
   <g id="patch_15">
    <path d="M 288.991682 417.811496 
L 301.767427 417.811496 
L 301.767427 238.189077 
L 288.991682 238.189077 
L 288.991682 417.811496 
z
" clip-path="url(#p0dd42c114d)" style="fill: #72b6a1; stroke: #595959; stroke-linejoin: miter"/>
   </g>
   <g id="line2d_75">
    <path d="M 295.379554 417.811496 
L 295.379554 448.603209 
" clip-path="url(#p0dd42c114d)" style="fill: none; stroke: #595959"/>
   </g>
   <g id="line2d_76">
    <path d="M 295.379554 238.189077 
L 295.379554 98.090859 
" clip-path="url(#p0dd42c114d)" style="fill: none; stroke: #595959"/>
   </g>
   <g id="line2d_77">
    <path d="M 292.185618 448.603209 
L 298.573491 448.603209 
" clip-path="url(#p0dd42c114d)" style="fill: none; stroke: #595959; stroke-linecap: round"/>
   </g>
   <g id="line2d_78">
    <path d="M 292.185618 98.090859 
L 298.573491 98.090859 
" clip-path="url(#p0dd42c114d)" style="fill: none; stroke: #595959; stroke-linecap: round"/>
   </g>
   <g id="line2d_79"/>
   <g id="patch_16">
    <path d="M 307.242746 405.715096 
L 320.018491 405.715096 
L 320.018491 211.602327 
L 307.242746 211.602327 
L 307.242746 405.715096 
z
" clip-path="url(#p0dd42c114d)" style="fill: #72b6a1; stroke: #595959; stroke-linejoin: miter"/>
   </g>
   <g id="line2d_80">
    <path d="M 313.630619 405.715096 
L 313.630619 448.603209 
" clip-path="url(#p0dd42c114d)" style="fill: none; stroke: #595959"/>
   </g>
   <g id="line2d_81">
    <path d="M 313.630619 211.602327 
L 313.630619 115.964845 
" clip-path="url(#p0dd42c114d)" style="fill: none; stroke: #595959"/>
   </g>
   <g id="line2d_82">
    <path d="M 310.436683 448.603209 
L 316.824555 448.603209 
" clip-path="url(#p0dd42c114d)" style="fill: none; stroke: #595959; stroke-linecap: round"/>
   </g>
   <g id="line2d_83">
    <path d="M 310.436683 115.964845 
L 316.824555 115.964845 
" clip-path="url(#p0dd42c114d)" style="fill: none; stroke: #595959; stroke-linecap: round"/>
   </g>
   <g id="line2d_84"/>
   <g id="patch_17">
    <path d="M 325.493811 426.149147 
L 338.269556 426.149147 
L 338.269556 248.077872 
L 325.493811 248.077872 
L 325.493811 426.149147 
z
" clip-path="url(#p0dd42c114d)" style="fill: #72b6a1; stroke: #595959; stroke-linejoin: miter"/>
   </g>
   <g id="line2d_85">
    <path d="M 331.881683 426.149147 
L 331.881683 448.603209 
" clip-path="url(#p0dd42c114d)" style="fill: none; stroke: #595959"/>
   </g>
   <g id="line2d_86">
    <path d="M 331.881683 248.077872 
L 331.881683 115.597227 
" clip-path="url(#p0dd42c114d)" style="fill: none; stroke: #595959"/>
   </g>
   <g id="line2d_87">
    <path d="M 328.687747 448.603209 
L 335.075619 448.603209 
" clip-path="url(#p0dd42c114d)" style="fill: none; stroke: #595959; stroke-linecap: round"/>
   </g>
   <g id="line2d_88">
    <path d="M 328.687747 115.597227 
L 335.075619 115.597227 
" clip-path="url(#p0dd42c114d)" style="fill: none; stroke: #595959; stroke-linecap: round"/>
   </g>
   <g id="line2d_89"/>
   <g id="patch_18">
    <path d="M 343.744875 423.84148 
L 356.52062 423.84148 
L 356.52062 242.08006 
L 343.744875 242.08006 
L 343.744875 423.84148 
z
" clip-path="url(#p0dd42c114d)" style="fill: #72b6a1; stroke: #595959; stroke-linejoin: miter"/>
   </g>
   <g id="line2d_90">
    <path d="M 350.132748 423.84148 
L 350.132748 448.603209 
" clip-path="url(#p0dd42c114d)" style="fill: none; stroke: #595959"/>
   </g>
   <g id="line2d_91">
    <path d="M 350.132748 242.08006 
L 350.132748 136.282879 
" clip-path="url(#p0dd42c114d)" style="fill: none; stroke: #595959"/>
   </g>
   <g id="line2d_92">
    <path d="M 346.938811 448.603209 
L 353.326684 448.603209 
" clip-path="url(#p0dd42c114d)" style="fill: none; stroke: #595959; stroke-linecap: round"/>
   </g>
   <g id="line2d_93">
    <path d="M 346.938811 136.282879 
L 353.326684 136.282879 
" clip-path="url(#p0dd42c114d)" style="fill: none; stroke: #595959; stroke-linecap: round"/>
   </g>
   <g id="line2d_94"/>
   <g id="patch_19">
    <path d="M 361.995939 424.898514 
L 374.771684 424.898514 
L 374.771684 221.574656 
L 361.995939 221.574656 
L 361.995939 424.898514 
z
" clip-path="url(#p0dd42c114d)" style="fill: #72b6a1; stroke: #595959; stroke-linejoin: miter"/>
   </g>
   <g id="line2d_95">
    <path d="M 368.383812 424.898514 
L 368.383812 448.603209 
" clip-path="url(#p0dd42c114d)" style="fill: none; stroke: #595959"/>
   </g>
   <g id="line2d_96">
    <path d="M 368.383812 221.574656 
L 368.383812 73.68366 
" clip-path="url(#p0dd42c114d)" style="fill: none; stroke: #595959"/>
   </g>
   <g id="line2d_97">
    <path d="M 365.189876 448.603209 
L 371.577748 448.603209 
" clip-path="url(#p0dd42c114d)" style="fill: none; stroke: #595959; stroke-linecap: round"/>
   </g>
   <g id="line2d_98">
    <path d="M 365.189876 73.68366 
L 371.577748 73.68366 
" clip-path="url(#p0dd42c114d)" style="fill: none; stroke: #595959; stroke-linecap: round"/>
   </g>
   <g id="line2d_99"/>
   <g id="patch_20">
    <path d="M 380.247004 418.210546 
L 393.022749 418.210546 
L 393.022749 220.002615 
L 380.247004 220.002615 
L 380.247004 418.210546 
z
" clip-path="url(#p0dd42c114d)" style="fill: #72b6a1; stroke: #595959; stroke-linejoin: miter"/>
   </g>
   <g id="line2d_100">
    <path d="M 386.634876 418.210546 
L 386.634876 448.603209 
" clip-path="url(#p0dd42c114d)" style="fill: none; stroke: #595959"/>
   </g>
   <g id="line2d_101">
    <path d="M 386.634876 220.002615 
L 386.634876 97.760096 
" clip-path="url(#p0dd42c114d)" style="fill: none; stroke: #595959"/>
   </g>
   <g id="line2d_102">
    <path d="M 383.44094 448.603209 
L 389.828813 448.603209 
" clip-path="url(#p0dd42c114d)" style="fill: none; stroke: #595959; stroke-linecap: round"/>
   </g>
   <g id="line2d_103">
    <path d="M 383.44094 97.760096 
L 389.828813 97.760096 
" clip-path="url(#p0dd42c114d)" style="fill: none; stroke: #595959; stroke-linecap: round"/>
   </g>
   <g id="line2d_104"/>
   <g id="patch_21">
    <path d="M 398.498068 413.293839 
L 411.273813 413.293839 
L 411.273813 216.870471 
L 398.498068 216.870471 
L 398.498068 413.293839 
z
" clip-path="url(#p0dd42c114d)" style="fill: #72b6a1; stroke: #595959; stroke-linejoin: miter"/>
   </g>
   <g id="line2d_105">
    <path d="M 404.885941 413.293839 
L 404.885941 448.603209 
" clip-path="url(#p0dd42c114d)" style="fill: none; stroke: #595959"/>
   </g>
   <g id="line2d_106">
    <path d="M 404.885941 216.870471 
L 404.885941 98.292259 
" clip-path="url(#p0dd42c114d)" style="fill: none; stroke: #595959"/>
   </g>
   <g id="line2d_107">
    <path d="M 401.692004 448.603209 
L 408.079877 448.603209 
" clip-path="url(#p0dd42c114d)" style="fill: none; stroke: #595959; stroke-linecap: round"/>
   </g>
   <g id="line2d_108">
    <path d="M 401.692004 98.292259 
L 408.079877 98.292259 
" clip-path="url(#p0dd42c114d)" style="fill: none; stroke: #595959; stroke-linecap: round"/>
   </g>
   <g id="line2d_109"/>
   <g id="patch_22">
    <path d="M 416.749132 416.622302 
L 429.524877 416.622302 
L 429.524877 194.140904 
L 416.749132 194.140904 
L 416.749132 416.622302 
z
" clip-path="url(#p0dd42c114d)" style="fill: #72b6a1; stroke: #595959; stroke-linejoin: miter"/>
   </g>
   <g id="line2d_110">
    <path d="M 423.137005 416.622302 
L 423.137005 448.603209 
" clip-path="url(#p0dd42c114d)" style="fill: none; stroke: #595959"/>
   </g>
   <g id="line2d_111">
    <path d="M 423.137005 194.140904 
L 423.137005 96.140756 
" clip-path="url(#p0dd42c114d)" style="fill: none; stroke: #595959"/>
   </g>
   <g id="line2d_112">
    <path d="M 419.943069 448.603209 
L 426.330941 448.603209 
" clip-path="url(#p0dd42c114d)" style="fill: none; stroke: #595959; stroke-linecap: round"/>
   </g>
   <g id="line2d_113">
    <path d="M 419.943069 96.140756 
L 426.330941 96.140756 
" clip-path="url(#p0dd42c114d)" style="fill: none; stroke: #595959; stroke-linecap: round"/>
   </g>
   <g id="line2d_114"/>
   <g id="patch_23">
    <path d="M 435.000197 425.239276 
L 447.775942 425.239276 
L 447.775942 224.389733 
L 435.000197 224.389733 
L 435.000197 425.239276 
z
" clip-path="url(#p0dd42c114d)" style="fill: #72b6a1; stroke: #595959; stroke-linejoin: miter"/>
   </g>
   <g id="line2d_115">
    <path d="M 441.388069 425.239276 
L 441.388069 448.603209 
" clip-path="url(#p0dd42c114d)" style="fill: none; stroke: #595959"/>
   </g>
   <g id="line2d_116">
    <path d="M 441.388069 224.389733 
L 441.388069 92.868764 
" clip-path="url(#p0dd42c114d)" style="fill: none; stroke: #595959"/>
   </g>
   <g id="line2d_117">
    <path d="M 438.194133 448.603209 
L 444.582006 448.603209 
" clip-path="url(#p0dd42c114d)" style="fill: none; stroke: #595959; stroke-linecap: round"/>
   </g>
   <g id="line2d_118">
    <path d="M 438.194133 92.868764 
L 444.582006 92.868764 
" clip-path="url(#p0dd42c114d)" style="fill: none; stroke: #595959; stroke-linecap: round"/>
   </g>
   <g id="line2d_119"/>
   <g id="patch_24">
    <path d="M 453.251261 412.527626 
L 466.027006 412.527626 
L 466.027006 220.544119 
L 453.251261 220.544119 
L 453.251261 412.527626 
z
" clip-path="url(#p0dd42c114d)" style="fill: #72b6a1; stroke: #595959; stroke-linejoin: miter"/>
   </g>
   <g id="line2d_120">
    <path d="M 459.639134 412.527626 
L 459.639134 448.603209 
" clip-path="url(#p0dd42c114d)" style="fill: none; stroke: #595959"/>
   </g>
   <g id="line2d_121">
    <path d="M 459.639134 220.544119 
L 459.639134 149.491019 
" clip-path="url(#p0dd42c114d)" style="fill: none; stroke: #595959"/>
   </g>
   <g id="line2d_122">
    <path d="M 456.445197 448.603209 
L 462.83307 448.603209 
" clip-path="url(#p0dd42c114d)" style="fill: none; stroke: #595959; stroke-linecap: round"/>
   </g>
   <g id="line2d_123">
    <path d="M 456.445197 149.491019 
L 462.83307 149.491019 
" clip-path="url(#p0dd42c114d)" style="fill: none; stroke: #595959; stroke-linecap: round"/>
   </g>
   <g id="line2d_124"/>
   <g id="patch_25">
    <path d="M 471.502325 380.778038 
L 484.278071 380.778038 
L 484.278071 198.551059 
L 471.502325 198.551059 
L 471.502325 380.778038 
z
" clip-path="url(#p0dd42c114d)" style="fill: #72b6a1; stroke: #595959; stroke-linejoin: miter"/>
   </g>
   <g id="line2d_125">
    <path d="M 477.890198 380.778038 
L 477.890198 448.603209 
" clip-path="url(#p0dd42c114d)" style="fill: none; stroke: #595959"/>
   </g>
   <g id="line2d_126">
    <path d="M 477.890198 198.551059 
L 477.890198 122.17011 
" clip-path="url(#p0dd42c114d)" style="fill: none; stroke: #595959"/>
   </g>
   <g id="line2d_127">
    <path d="M 474.696262 448.603209 
L 481.084134 448.603209 
" clip-path="url(#p0dd42c114d)" style="fill: none; stroke: #595959; stroke-linecap: round"/>
   </g>
   <g id="line2d_128">
    <path d="M 474.696262 122.17011 
L 481.084134 122.17011 
" clip-path="url(#p0dd42c114d)" style="fill: none; stroke: #595959; stroke-linecap: round"/>
   </g>
   <g id="line2d_129"/>
   <g id="patch_26">
    <path d="M 489.75339 398.762466 
L 502.529135 398.762466 
L 502.529135 193.998518 
L 489.75339 193.998518 
L 489.75339 398.762466 
z
" clip-path="url(#p0dd42c114d)" style="fill: #72b6a1; stroke: #595959; stroke-linejoin: miter"/>
   </g>
   <g id="line2d_130">
    <path d="M 496.141262 398.762466 
L 496.141262 448.603209 
" clip-path="url(#p0dd42c114d)" style="fill: none; stroke: #595959"/>
   </g>
   <g id="line2d_131">
    <path d="M 496.141262 193.998518 
L 496.141262 97.929092 
" clip-path="url(#p0dd42c114d)" style="fill: none; stroke: #595959"/>
   </g>
   <g id="line2d_132">
    <path d="M 492.947326 448.603209 
L 499.335199 448.603209 
" clip-path="url(#p0dd42c114d)" style="fill: none; stroke: #595959; stroke-linecap: round"/>
   </g>
   <g id="line2d_133">
    <path d="M 492.947326 97.929092 
L 499.335199 97.929092 
" clip-path="url(#p0dd42c114d)" style="fill: none; stroke: #595959; stroke-linecap: round"/>
   </g>
   <g id="line2d_134"/>
   <g id="patch_27">
    <path d="M 508.004454 412.358566 
L 520.780199 412.358566 
L 520.780199 188.588651 
L 508.004454 188.588651 
L 508.004454 412.358566 
z
" clip-path="url(#p0dd42c114d)" style="fill: #72b6a1; stroke: #595959; stroke-linejoin: miter"/>
   </g>
   <g id="line2d_135">
    <path d="M 514.392327 412.358566 
L 514.392327 448.603209 
" clip-path="url(#p0dd42c114d)" style="fill: none; stroke: #595959"/>
   </g>
   <g id="line2d_136">
    <path d="M 514.392327 188.588651 
L 514.392327 101.113752 
" clip-path="url(#p0dd42c114d)" style="fill: none; stroke: #595959"/>
   </g>
   <g id="line2d_137">
    <path d="M 511.19839 448.603209 
L 517.586263 448.603209 
" clip-path="url(#p0dd42c114d)" style="fill: none; stroke: #595959; stroke-linecap: round"/>
   </g>
   <g id="line2d_138">
    <path d="M 511.19839 101.113752 
L 517.586263 101.113752 
" clip-path="url(#p0dd42c114d)" style="fill: none; stroke: #595959; stroke-linecap: round"/>
   </g>
   <g id="line2d_139"/>
   <g id="patch_28">
    <path d="M 526.255519 366.324404 
L 539.031264 366.324404 
L 539.031264 156.754308 
L 526.255519 156.754308 
L 526.255519 366.324404 
z
" clip-path="url(#p0dd42c114d)" style="fill: #72b6a1; stroke: #595959; stroke-linejoin: miter"/>
   </g>
   <g id="line2d_140">
    <path d="M 532.643391 366.324404 
L 532.643391 448.603209 
" clip-path="url(#p0dd42c114d)" style="fill: none; stroke: #595959"/>
   </g>
   <g id="line2d_141">
    <path d="M 532.643391 156.754308 
L 532.643391 72.83819 
" clip-path="url(#p0dd42c114d)" style="fill: none; stroke: #595959"/>
   </g>
   <g id="line2d_142">
    <path d="M 529.449455 448.603209 
L 535.837327 448.603209 
" clip-path="url(#p0dd42c114d)" style="fill: none; stroke: #595959; stroke-linecap: round"/>
   </g>
   <g id="line2d_143">
    <path d="M 529.449455 72.83819 
L 535.837327 72.83819 
" clip-path="url(#p0dd42c114d)" style="fill: none; stroke: #595959; stroke-linecap: round"/>
   </g>
   <g id="line2d_144"/>
   <g id="patch_29">
    <path d="M 544.506583 365.452184 
L 557.282328 365.452184 
L 557.282328 214.113695 
L 544.506583 214.113695 
L 544.506583 365.452184 
z
" clip-path="url(#p0dd42c114d)" style="fill: #72b6a1; stroke: #595959; stroke-linejoin: miter"/>
   </g>
   <g id="line2d_145">
    <path d="M 550.894455 365.452184 
L 550.894455 448.603209 
" clip-path="url(#p0dd42c114d)" style="fill: none; stroke: #595959"/>
   </g>
   <g id="line2d_146">
    <path d="M 550.894455 214.113695 
L 550.894455 75.88871 
" clip-path="url(#p0dd42c114d)" style="fill: none; stroke: #595959"/>
   </g>
   <g id="line2d_147">
    <path d="M 547.700519 448.603209 
L 554.088392 448.603209 
" clip-path="url(#p0dd42c114d)" style="fill: none; stroke: #595959; stroke-linecap: round"/>
   </g>
   <g id="line2d_148">
    <path d="M 547.700519 75.88871 
L 554.088392 75.88871 
" clip-path="url(#p0dd42c114d)" style="fill: none; stroke: #595959; stroke-linecap: round"/>
   </g>
   <g id="line2d_149"/>
   <g id="patch_30">
    <path d="M 562.757647 408.300191 
L 575.533392 408.300191 
L 575.533392 199.76436 
L 562.757647 199.76436 
L 562.757647 408.300191 
z
" clip-path="url(#p0dd42c114d)" style="fill: #72b6a1; stroke: #595959; stroke-linejoin: miter"/>
   </g>
   <g id="line2d_150">
    <path d="M 569.14552 408.300191 
L 569.14552 448.6035 
" clip-path="url(#p0dd42c114d)" style="fill: none; stroke: #595959"/>
   </g>
   <g id="line2d_151">
    <path d="M 569.14552 199.76436 
L 569.14552 110.758316 
" clip-path="url(#p0dd42c114d)" style="fill: none; stroke: #595959"/>
   </g>
   <g id="line2d_152">
    <path d="M 565.951584 448.6035 
L 572.339456 448.6035 
" clip-path="url(#p0dd42c114d)" style="fill: none; stroke: #595959; stroke-linecap: round"/>
   </g>
   <g id="line2d_153">
    <path d="M 565.951584 110.758316 
L 572.339456 110.758316 
" clip-path="url(#p0dd42c114d)" style="fill: none; stroke: #595959; stroke-linecap: round"/>
   </g>
   <g id="line2d_154"/>
   <g id="patch_31">
    <path d="M 581.008712 403.293837 
L 593.784457 403.293837 
L 593.784457 191.740235 
L 581.008712 191.740235 
L 581.008712 403.293837 
z
" clip-path="url(#p0dd42c114d)" style="fill: #72b6a1; stroke: #595959; stroke-linejoin: miter"/>
   </g>
   <g id="line2d_155">
    <path d="M 587.396584 403.293837 
L 587.396584 448.583883 
" clip-path="url(#p0dd42c114d)" style="fill: none; stroke: #595959"/>
   </g>
   <g id="line2d_156">
    <path d="M 587.396584 191.740235 
L 587.396584 115.842675 
" clip-path="url(#p0dd42c114d)" style="fill: none; stroke: #595959"/>
   </g>
   <g id="line2d_157">
    <path d="M 584.202648 448.583883 
L 590.59052 448.583883 
" clip-path="url(#p0dd42c114d)" style="fill: none; stroke: #595959; stroke-linecap: round"/>
   </g>
   <g id="line2d_158">
    <path d="M 584.202648 115.842675 
L 590.59052 115.842675 
" clip-path="url(#p0dd42c114d)" style="fill: none; stroke: #595959; stroke-linecap: round"/>
   </g>
   <g id="line2d_159"/>
   <g id="patch_32">
    <path d="M 599.259776 367.977601 
L 612.035521 367.977601 
L 612.035521 192.036518 
L 599.259776 192.036518 
L 599.259776 367.977601 
z
" clip-path="url(#p0dd42c114d)" style="fill: #72b6a1; stroke: #595959; stroke-linejoin: miter"/>
   </g>
   <g id="line2d_160">
    <path d="M 605.647649 367.977601 
L 605.647649 448.197175 
" clip-path="url(#p0dd42c114d)" style="fill: none; stroke: #595959"/>
   </g>
   <g id="line2d_161">
    <path d="M 605.647649 192.036518 
L 605.647649 108.478086 
" clip-path="url(#p0dd42c114d)" style="fill: none; stroke: #595959"/>
   </g>
   <g id="line2d_162">
    <path d="M 602.453712 448.197175 
L 608.841585 448.197175 
" clip-path="url(#p0dd42c114d)" style="fill: none; stroke: #595959; stroke-linecap: round"/>
   </g>
   <g id="line2d_163">
    <path d="M 602.453712 108.478086 
L 608.841585 108.478086 
" clip-path="url(#p0dd42c114d)" style="fill: none; stroke: #595959; stroke-linecap: round"/>
   </g>
   <g id="line2d_164"/>
   <g id="patch_33">
    <path d="M 617.51084 375.852656 
L 630.286585 375.852656 
L 630.286585 203.661164 
L 617.51084 203.661164 
L 617.51084 375.852656 
z
" clip-path="url(#p0dd42c114d)" style="fill: #72b6a1; stroke: #595959; stroke-linejoin: miter"/>
   </g>
   <g id="line2d_165">
    <path d="M 623.898713 375.852656 
L 623.898713 448.603209 
" clip-path="url(#p0dd42c114d)" style="fill: none; stroke: #595959"/>
   </g>
   <g id="line2d_166">
    <path d="M 623.898713 203.661164 
L 623.898713 98.008758 
" clip-path="url(#p0dd42c114d)" style="fill: none; stroke: #595959"/>
   </g>
   <g id="line2d_167">
    <path d="M 620.704777 448.603209 
L 627.092649 448.603209 
" clip-path="url(#p0dd42c114d)" style="fill: none; stroke: #595959; stroke-linecap: round"/>
   </g>
   <g id="line2d_168">
    <path d="M 620.704777 98.008758 
L 627.092649 98.008758 
" clip-path="url(#p0dd42c114d)" style="fill: none; stroke: #595959; stroke-linecap: round"/>
   </g>
   <g id="line2d_169"/>
   <g id="patch_34">
    <path d="M 635.761905 402.541401 
L 648.53765 402.541401 
L 648.53765 182.389825 
L 635.761905 182.389825 
L 635.761905 402.541401 
z
" clip-path="url(#p0dd42c114d)" style="fill: #72b6a1; stroke: #595959; stroke-linejoin: miter"/>
   </g>
   <g id="line2d_170">
    <path d="M 642.149777 402.541401 
L 642.149777 448.198628 
" clip-path="url(#p0dd42c114d)" style="fill: none; stroke: #595959"/>
   </g>
   <g id="line2d_171">
    <path d="M 642.149777 182.389825 
L 642.149777 86.606592 
" clip-path="url(#p0dd42c114d)" style="fill: none; stroke: #595959"/>
   </g>
   <g id="line2d_172">
    <path d="M 638.955841 448.198628 
L 645.343713 448.198628 
" clip-path="url(#p0dd42c114d)" style="fill: none; stroke: #595959; stroke-linecap: round"/>
   </g>
   <g id="line2d_173">
    <path d="M 638.955841 86.606592 
L 645.343713 86.606592 
" clip-path="url(#p0dd42c114d)" style="fill: none; stroke: #595959; stroke-linecap: round"/>
   </g>
   <g id="line2d_174"/>
   <g id="patch_35">
    <path d="M 654.012969 402.445614 
L 666.788714 402.445614 
L 666.788714 185.474297 
L 654.012969 185.474297 
L 654.012969 402.445614 
z
" clip-path="url(#p0dd42c114d)" style="fill: #72b6a1; stroke: #595959; stroke-linejoin: miter"/>
   </g>
   <g id="line2d_175">
    <path d="M 660.400842 402.445614 
L 660.400842 448.431452 
" clip-path="url(#p0dd42c114d)" style="fill: none; stroke: #595959"/>
   </g>
   <g id="line2d_176">
    <path d="M 660.400842 185.474297 
L 660.400842 95.273398 
" clip-path="url(#p0dd42c114d)" style="fill: none; stroke: #595959"/>
   </g>
   <g id="line2d_177">
    <path d="M 657.206905 448.431452 
L 663.594778 448.431452 
" clip-path="url(#p0dd42c114d)" style="fill: none; stroke: #595959; stroke-linecap: round"/>
   </g>
   <g id="line2d_178">
    <path d="M 657.206905 95.273398 
L 663.594778 95.273398 
" clip-path="url(#p0dd42c114d)" style="fill: none; stroke: #595959; stroke-linecap: round"/>
   </g>
   <g id="line2d_179"/>
   <g id="patch_36">
    <path d="M 672.264033 359.96467 
L 685.039778 359.96467 
L 685.039778 175.66179 
L 672.264033 175.66179 
L 672.264033 359.96467 
z
" clip-path="url(#p0dd42c114d)" style="fill: #72b6a1; stroke: #595959; stroke-linejoin: miter"/>
   </g>
   <g id="line2d_180">
    <path d="M 678.651906 359.96467 
L 678.651906 448.532116 
" clip-path="url(#p0dd42c114d)" style="fill: none; stroke: #595959"/>
   </g>
   <g id="line2d_181">
    <path d="M 678.651906 175.66179 
L 678.651906 98.113927 
" clip-path="url(#p0dd42c114d)" style="fill: none; stroke: #595959"/>
   </g>
   <g id="line2d_182">
    <path d="M 675.45797 448.532116 
L 681.845842 448.532116 
" clip-path="url(#p0dd42c114d)" style="fill: none; stroke: #595959; stroke-linecap: round"/>
   </g>
   <g id="line2d_183">
    <path d="M 675.45797 98.113927 
L 681.845842 98.113927 
" clip-path="url(#p0dd42c114d)" style="fill: none; stroke: #595959; stroke-linecap: round"/>
   </g>
   <g id="line2d_184"/>
   <g id="patch_37">
    <path d="M 690.515098 391.243958 
L 703.290843 391.243958 
L 703.290843 197.942706 
L 690.515098 197.942706 
L 690.515098 391.243958 
z
" clip-path="url(#p0dd42c114d)" style="fill: #72b6a1; stroke: #595959; stroke-linejoin: miter"/>
   </g>
   <g id="line2d_185">
    <path d="M 696.90297 391.243958 
L 696.90297 448.124556 
" clip-path="url(#p0dd42c114d)" style="fill: none; stroke: #595959"/>
   </g>
   <g id="line2d_186">
    <path d="M 696.90297 197.942706 
L 696.90297 84.341002 
" clip-path="url(#p0dd42c114d)" style="fill: none; stroke: #595959"/>
   </g>
   <g id="line2d_187">
    <path d="M 693.709034 448.124556 
L 700.096907 448.124556 
" clip-path="url(#p0dd42c114d)" style="fill: none; stroke: #595959; stroke-linecap: round"/>
   </g>
   <g id="line2d_188">
    <path d="M 693.709034 84.341002 
L 700.096907 84.341002 
" clip-path="url(#p0dd42c114d)" style="fill: none; stroke: #595959; stroke-linecap: round"/>
   </g>
   <g id="line2d_189"/>
   <g id="patch_38">
    <path d="M 708.766162 344.618172 
L 721.541907 344.618172 
L 721.541907 162.007408 
L 708.766162 162.007408 
L 708.766162 344.618172 
z
" clip-path="url(#p0dd42c114d)" style="fill: #72b6a1; stroke: #595959; stroke-linejoin: miter"/>
   </g>
   <g id="line2d_190">
    <path d="M 715.154035 344.618172 
L 715.154035 448.423642 
" clip-path="url(#p0dd42c114d)" style="fill: none; stroke: #595959"/>
   </g>
   <g id="line2d_191">
    <path d="M 715.154035 162.007408 
L 715.154035 94.20473 
" clip-path="url(#p0dd42c114d)" style="fill: none; stroke: #595959"/>
   </g>
   <g id="line2d_192">
    <path d="M 711.960098 448.423642 
L 718.347971 448.423642 
" clip-path="url(#p0dd42c114d)" style="fill: none; stroke: #595959; stroke-linecap: round"/>
   </g>
   <g id="line2d_193">
    <path d="M 711.960098 94.20473 
L 718.347971 94.20473 
" clip-path="url(#p0dd42c114d)" style="fill: none; stroke: #595959; stroke-linecap: round"/>
   </g>
   <g id="line2d_194"/>
   <g id="patch_39">
    <path d="M 727.017226 398.719836 
L 739.792972 398.719836 
L 739.792972 184.186128 
L 727.017226 184.186128 
L 727.017226 398.719836 
z
" clip-path="url(#p0dd42c114d)" style="fill: #72b6a1; stroke: #595959; stroke-linejoin: miter"/>
   </g>
   <g id="line2d_195">
    <path d="M 733.405099 398.719836 
L 733.405099 447.800042 
" clip-path="url(#p0dd42c114d)" style="fill: none; stroke: #595959"/>
   </g>
   <g id="line2d_196">
    <path d="M 733.405099 184.186128 
L 733.405099 77.146972 
" clip-path="url(#p0dd42c114d)" style="fill: none; stroke: #595959"/>
   </g>
   <g id="line2d_197">
    <path d="M 730.211163 447.800042 
L 736.599035 447.800042 
" clip-path="url(#p0dd42c114d)" style="fill: none; stroke: #595959; stroke-linecap: round"/>
   </g>
   <g id="line2d_198">
    <path d="M 730.211163 77.146972 
L 736.599035 77.146972 
" clip-path="url(#p0dd42c114d)" style="fill: none; stroke: #595959; stroke-linecap: round"/>
   </g>
   <g id="line2d_199"/>
   <g id="patch_40">
    <path d="M 745.268291 337.308614 
L 758.044036 337.308614 
L 758.044036 178.963086 
L 745.268291 178.963086 
L 745.268291 337.308614 
z
" clip-path="url(#p0dd42c114d)" style="fill: #72b6a1; stroke: #595959; stroke-linejoin: miter"/>
   </g>
   <g id="line2d_200">
    <path d="M 751.656163 337.308614 
L 751.656163 447.788599 
" clip-path="url(#p0dd42c114d)" style="fill: none; stroke: #595959"/>
   </g>
   <g id="line2d_201">
    <path d="M 751.656163 178.963086 
L 751.656163 128.854155 
" clip-path="url(#p0dd42c114d)" style="fill: none; stroke: #595959"/>
   </g>
   <g id="line2d_202">
    <path d="M 748.462227 447.788599 
L 754.8501 447.788599 
" clip-path="url(#p0dd42c114d)" style="fill: none; stroke: #595959; stroke-linecap: round"/>
   </g>
   <g id="line2d_203">
    <path d="M 748.462227 128.854155 
L 754.8501 128.854155 
" clip-path="url(#p0dd42c114d)" style="fill: none; stroke: #595959; stroke-linecap: round"/>
   </g>
   <g id="line2d_204"/>
   <g id="patch_41">
    <path d="M 763.519355 352.525831 
L 776.2951 352.525831 
L 776.2951 175.677568 
L 763.519355 175.677568 
L 763.519355 352.525831 
z
" clip-path="url(#p0dd42c114d)" style="fill: #72b6a1; stroke: #595959; stroke-linejoin: miter"/>
   </g>
   <g id="line2d_205">
    <path d="M 769.907228 352.525831 
L 769.907228 447.981607 
" clip-path="url(#p0dd42c114d)" style="fill: none; stroke: #595959"/>
   </g>
   <g id="line2d_206">
    <path d="M 769.907228 175.677568 
L 769.907228 94.092097 
" clip-path="url(#p0dd42c114d)" style="fill: none; stroke: #595959"/>
   </g>
   <g id="line2d_207">
    <path d="M 766.713291 447.981607 
L 773.101164 447.981607 
" clip-path="url(#p0dd42c114d)" style="fill: none; stroke: #595959; stroke-linecap: round"/>
   </g>
   <g id="line2d_208">
    <path d="M 766.713291 94.092097 
L 773.101164 94.092097 
" clip-path="url(#p0dd42c114d)" style="fill: none; stroke: #595959; stroke-linecap: round"/>
   </g>
   <g id="line2d_209"/>
   <g id="patch_42">
    <path d="M 781.77042 374.203464 
L 794.546165 374.203464 
L 794.546165 168.26164 
L 781.77042 168.26164 
L 781.77042 374.203464 
z
" clip-path="url(#p0dd42c114d)" style="fill: #72b6a1; stroke: #595959; stroke-linejoin: miter"/>
   </g>
   <g id="line2d_210">
    <path d="M 788.158292 374.203464 
L 788.158292 447.960537 
" clip-path="url(#p0dd42c114d)" style="fill: none; stroke: #595959"/>
   </g>
   <g id="line2d_211">
    <path d="M 788.158292 168.26164 
L 788.158292 69.267058 
" clip-path="url(#p0dd42c114d)" style="fill: none; stroke: #595959"/>
   </g>
   <g id="line2d_212">
    <path d="M 784.964356 447.960537 
L 791.352228 447.960537 
" clip-path="url(#p0dd42c114d)" style="fill: none; stroke: #595959; stroke-linecap: round"/>
   </g>
   <g id="line2d_213">
    <path d="M 784.964356 69.267058 
L 791.352228 69.267058 
" clip-path="url(#p0dd42c114d)" style="fill: none; stroke: #595959; stroke-linecap: round"/>
   </g>
   <g id="line2d_214"/>
   <g id="patch_43">
    <path d="M 800.021484 402.146729 
L 812.797229 402.146729 
L 812.797229 183.662012 
L 800.021484 183.662012 
L 800.021484 402.146729 
z
" clip-path="url(#p0dd42c114d)" style="fill: #72b6a1; stroke: #595959; stroke-linejoin: miter"/>
   </g>
   <g id="line2d_215">
    <path d="M 806.409356 402.146729 
L 806.409356 448.166369 
" clip-path="url(#p0dd42c114d)" style="fill: none; stroke: #595959"/>
   </g>
   <g id="line2d_216">
    <path d="M 806.409356 183.662012 
L 806.409356 83.283905 
" clip-path="url(#p0dd42c114d)" style="fill: none; stroke: #595959"/>
   </g>
   <g id="line2d_217">
    <path d="M 803.21542 448.166369 
L 809.603293 448.166369 
" clip-path="url(#p0dd42c114d)" style="fill: none; stroke: #595959; stroke-linecap: round"/>
   </g>
   <g id="line2d_218">
    <path d="M 803.21542 83.283905 
L 809.603293 83.283905 
" clip-path="url(#p0dd42c114d)" style="fill: none; stroke: #595959; stroke-linecap: round"/>
   </g>
   <g id="line2d_219"/>
   <g id="patch_44">
    <path d="M 818.272548 412.417962 
L 831.048293 412.417962 
L 831.048293 168.964655 
L 818.272548 168.964655 
L 818.272548 412.417962 
z
" clip-path="url(#p0dd42c114d)" style="fill: #72b6a1; stroke: #595959; stroke-linejoin: miter"/>
   </g>
   <g id="line2d_220">
    <path d="M 824.660421 412.417962 
L 824.660421 447.270603 
" clip-path="url(#p0dd42c114d)" style="fill: none; stroke: #595959"/>
   </g>
   <g id="line2d_221">
    <path d="M 824.660421 168.964655 
L 824.660421 76.372467 
" clip-path="url(#p0dd42c114d)" style="fill: none; stroke: #595959"/>
   </g>
   <g id="line2d_222">
    <path d="M 821.466485 447.270603 
L 827.854357 447.270603 
" clip-path="url(#p0dd42c114d)" style="fill: none; stroke: #595959; stroke-linecap: round"/>
   </g>
   <g id="line2d_223">
    <path d="M 821.466485 76.372467 
L 827.854357 76.372467 
" clip-path="url(#p0dd42c114d)" style="fill: none; stroke: #595959; stroke-linecap: round"/>
   </g>
   <g id="line2d_224"/>
   <g id="patch_45">
    <path d="M 836.523613 405.812385 
L 849.299358 405.812385 
L 849.299358 156.65995 
L 836.523613 156.65995 
L 836.523613 405.812385 
z
" clip-path="url(#p0dd42c114d)" style="fill: #72b6a1; stroke: #595959; stroke-linejoin: miter"/>
   </g>
   <g id="line2d_225">
    <path d="M 842.911485 405.812385 
L 842.911485 447.581204 
" clip-path="url(#p0dd42c114d)" style="fill: none; stroke: #595959"/>
   </g>
   <g id="line2d_226">
    <path d="M 842.911485 156.65995 
L 842.911485 101.670073 
" clip-path="url(#p0dd42c114d)" style="fill: none; stroke: #595959"/>
   </g>
   <g id="line2d_227">
    <path d="M 839.717549 447.581204 
L 846.105421 447.581204 
" clip-path="url(#p0dd42c114d)" style="fill: none; stroke: #595959; stroke-linecap: round"/>
   </g>
   <g id="line2d_228">
    <path d="M 839.717549 101.670073 
L 846.105421 101.670073 
" clip-path="url(#p0dd42c114d)" style="fill: none; stroke: #595959; stroke-linecap: round"/>
   </g>
   <g id="line2d_229"/>
   <g id="patch_46">
    <path d="M 854.774677 414.170397 
L 867.550422 414.170397 
L 867.550422 160.063442 
L 854.774677 160.063442 
L 854.774677 414.170397 
z
" clip-path="url(#p0dd42c114d)" style="fill: #72b6a1; stroke: #595959; stroke-linejoin: miter"/>
   </g>
   <g id="line2d_230">
    <path d="M 861.16255 414.170397 
L 861.16255 447.770326 
" clip-path="url(#p0dd42c114d)" style="fill: none; stroke: #595959"/>
   </g>
   <g id="line2d_231">
    <path d="M 861.16255 160.063442 
L 861.16255 65.174698 
" clip-path="url(#p0dd42c114d)" style="fill: none; stroke: #595959"/>
   </g>
   <g id="line2d_232">
    <path d="M 857.968613 447.770326 
L 864.356486 447.770326 
" clip-path="url(#p0dd42c114d)" style="fill: none; stroke: #595959; stroke-linecap: round"/>
   </g>
   <g id="line2d_233">
    <path d="M 857.968613 65.174698 
L 864.356486 65.174698 
" clip-path="url(#p0dd42c114d)" style="fill: none; stroke: #595959; stroke-linecap: round"/>
   </g>
   <g id="line2d_234"/>
   <g id="patch_47">
    <path d="M 873.025741 403.835972 
L 885.801486 403.835972 
L 885.801486 192.355101 
L 873.025741 192.355101 
L 873.025741 403.835972 
z
" clip-path="url(#p0dd42c114d)" style="fill: #72b6a1; stroke: #595959; stroke-linejoin: miter"/>
   </g>
   <g id="line2d_235">
    <path d="M 879.413614 403.835972 
L 879.413614 447.952109 
" clip-path="url(#p0dd42c114d)" style="fill: none; stroke: #595959"/>
   </g>
   <g id="line2d_236">
    <path d="M 879.413614 192.355101 
L 879.413614 69.58705 
" clip-path="url(#p0dd42c114d)" style="fill: none; stroke: #595959"/>
   </g>
   <g id="line2d_237">
    <path d="M 876.219678 447.952109 
L 882.60755 447.952109 
" clip-path="url(#p0dd42c114d)" style="fill: none; stroke: #595959; stroke-linecap: round"/>
   </g>
   <g id="line2d_238">
    <path d="M 876.219678 69.58705 
L 882.60755 69.58705 
" clip-path="url(#p0dd42c114d)" style="fill: none; stroke: #595959; stroke-linecap: round"/>
   </g>
   <g id="line2d_239"/>
   <g id="patch_48">
    <path d="M 891.276806 392.968711 
L 904.052551 392.968711 
L 904.052551 168.171505 
L 891.276806 168.171505 
L 891.276806 392.968711 
z
" clip-path="url(#p0dd42c114d)" style="fill: #72b6a1; stroke: #595959; stroke-linejoin: miter"/>
   </g>
   <g id="line2d_240">
    <path d="M 897.664678 392.968711 
L 897.664678 447.76019 
" clip-path="url(#p0dd42c114d)" style="fill: none; stroke: #595959"/>
   </g>
   <g id="line2d_241">
    <path d="M 897.664678 168.171505 
L 897.664678 74.798192 
" clip-path="url(#p0dd42c114d)" style="fill: none; stroke: #595959"/>
   </g>
   <g id="line2d_242">
    <path d="M 894.470742 447.76019 
L 900.858614 447.76019 
" clip-path="url(#p0dd42c114d)" style="fill: none; stroke: #595959; stroke-linecap: round"/>
   </g>
   <g id="line2d_243">
    <path d="M 894.470742 74.798192 
L 900.858614 74.798192 
" clip-path="url(#p0dd42c114d)" style="fill: none; stroke: #595959; stroke-linecap: round"/>
   </g>
   <g id="line2d_244"/>
   <g id="patch_49">
    <path d="M 909.52787 393.337237 
L 922.303615 393.337237 
L 922.303615 123.776163 
L 909.52787 123.776163 
L 909.52787 393.337237 
z
" clip-path="url(#p0dd42c114d)" style="fill: #72b6a1; stroke: #595959; stroke-linejoin: miter"/>
   </g>
   <g id="line2d_245">
    <path d="M 915.915743 393.337237 
L 915.915743 446.796346 
" clip-path="url(#p0dd42c114d)" style="fill: none; stroke: #595959"/>
   </g>
   <g id="line2d_246">
    <path d="M 915.915743 123.776163 
L 915.915743 62.339473 
" clip-path="url(#p0dd42c114d)" style="fill: none; stroke: #595959"/>
   </g>
   <g id="line2d_247">
    <path d="M 912.721806 446.796346 
L 919.109679 446.796346 
" clip-path="url(#p0dd42c114d)" style="fill: none; stroke: #595959; stroke-linecap: round"/>
   </g>
   <g id="line2d_248">
    <path d="M 912.721806 62.339473 
L 919.109679 62.339473 
" clip-path="url(#p0dd42c114d)" style="fill: none; stroke: #595959; stroke-linecap: round"/>
   </g>
   <g id="line2d_249"/>
   <g id="patch_50">
    <path d="M 927.778934 394.61912 
L 940.554679 394.61912 
L 940.554679 138.597266 
L 927.778934 138.597266 
L 927.778934 394.61912 
z
" clip-path="url(#p0dd42c114d)" style="fill: #72b6a1; stroke: #595959; stroke-linejoin: miter"/>
   </g>
   <g id="line2d_250">
    <path d="M 934.166807 394.61912 
L 934.166807 447.501865 
" clip-path="url(#p0dd42c114d)" style="fill: none; stroke: #595959"/>
   </g>
   <g id="line2d_251">
    <path d="M 934.166807 138.597266 
L 934.166807 131.284272 
" clip-path="url(#p0dd42c114d)" style="fill: none; stroke: #595959"/>
   </g>
   <g id="line2d_252">
    <path d="M 930.972871 447.501865 
L 937.360743 447.501865 
" clip-path="url(#p0dd42c114d)" style="fill: none; stroke: #595959; stroke-linecap: round"/>
   </g>
   <g id="line2d_253">
    <path d="M 930.972871 131.284272 
L 937.360743 131.284272 
" clip-path="url(#p0dd42c114d)" style="fill: none; stroke: #595959; stroke-linecap: round"/>
   </g>
   <g id="line2d_254"/>
   <g id="patch_51">
    <path d="M 946.029999 389.552281 
L 958.805744 389.552281 
L 958.805744 122.429407 
L 946.029999 122.429407 
L 946.029999 389.552281 
z
" clip-path="url(#p0dd42c114d)" style="fill: #72b6a1; stroke: #595959; stroke-linejoin: miter"/>
   </g>
   <g id="line2d_255">
    <path d="M 952.417871 389.552281 
L 952.417871 446.728777 
" clip-path="url(#p0dd42c114d)" style="fill: none; stroke: #595959"/>
   </g>
   <g id="line2d_256">
    <path d="M 952.417871 122.429407 
L 952.417871 64.095259 
" clip-path="url(#p0dd42c114d)" style="fill: none; stroke: #595959"/>
   </g>
   <g id="line2d_257">
    <path d="M 949.223935 446.728777 
L 955.611808 446.728777 
" clip-path="url(#p0dd42c114d)" style="fill: none; stroke: #595959; stroke-linecap: round"/>
   </g>
   <g id="line2d_258">
    <path d="M 949.223935 64.095259 
L 955.611808 64.095259 
" clip-path="url(#p0dd42c114d)" style="fill: none; stroke: #595959; stroke-linecap: round"/>
   </g>
   <g id="line2d_259"/>
   <g id="patch_52">
    <path d="M 964.281063 395.913963 
L 977.056808 395.913963 
L 977.056808 124.176711 
L 964.281063 124.176711 
L 964.281063 395.913963 
z
" clip-path="url(#p0dd42c114d)" style="fill: #72b6a1; stroke: #595959; stroke-linejoin: miter"/>
   </g>
   <g id="line2d_260">
    <path d="M 970.668936 395.913963 
L 970.668936 447.873133 
" clip-path="url(#p0dd42c114d)" style="fill: none; stroke: #595959"/>
   </g>
   <g id="line2d_261">
    <path d="M 970.668936 124.176711 
L 970.668936 113.279017 
" clip-path="url(#p0dd42c114d)" style="fill: none; stroke: #595959"/>
   </g>
   <g id="line2d_262">
    <path d="M 967.474999 447.873133 
L 973.862872 447.873133 
" clip-path="url(#p0dd42c114d)" style="fill: none; stroke: #595959; stroke-linecap: round"/>
   </g>
   <g id="line2d_263">
    <path d="M 967.474999 113.279017 
L 973.862872 113.279017 
" clip-path="url(#p0dd42c114d)" style="fill: none; stroke: #595959; stroke-linecap: round"/>
   </g>
   <g id="line2d_264"/>
   <g id="line2d_265">
    <path d="M 69.97891 376.75702 
L 82.754655 376.75702 
" clip-path="url(#p0dd42c114d)" style="fill: none; stroke: #595959"/>
   </g>
   <g id="line2d_266">
    <path d="M 88.229974 347.520809 
L 101.005719 347.520809 
" clip-path="url(#p0dd42c114d)" style="fill: none; stroke: #595959"/>
   </g>
   <g id="line2d_267">
    <path d="M 106.481038 324.374422 
L 119.256783 324.374422 
" clip-path="url(#p0dd42c114d)" style="fill: none; stroke: #595959"/>
   </g>
   <g id="line2d_268">
    <path d="M 124.732103 293.375368 
L 137.507848 293.375368 
" clip-path="url(#p0dd42c114d)" style="fill: none; stroke: #595959"/>
   </g>
   <g id="line2d_269">
    <path d="M 142.983167 290.566287 
L 155.758912 290.566287 
" clip-path="url(#p0dd42c114d)" style="fill: none; stroke: #595959"/>
   </g>
   <g id="line2d_270">
    <path d="M 161.234231 393.647901 
L 174.009976 393.647901 
" clip-path="url(#p0dd42c114d)" style="fill: none; stroke: #595959"/>
   </g>
   <g id="line2d_271">
    <path d="M 179.485296 385.401527 
L 192.261041 385.401527 
" clip-path="url(#p0dd42c114d)" style="fill: none; stroke: #595959"/>
   </g>
   <g id="line2d_272">
    <path d="M 197.73636 382.388708 
L 210.512105 382.388708 
" clip-path="url(#p0dd42c114d)" style="fill: none; stroke: #595959"/>
   </g>
   <g id="line2d_273">
    <path d="M 215.987425 377.204321 
L 228.76317 377.204321 
" clip-path="url(#p0dd42c114d)" style="fill: none; stroke: #595959"/>
   </g>
   <g id="line2d_274">
    <path d="M 234.238489 392.383852 
L 247.014234 392.383852 
" clip-path="url(#p0dd42c114d)" style="fill: none; stroke: #595959"/>
   </g>
   <g id="line2d_275">
    <path d="M 252.489553 365.0693 
L 265.265298 365.0693 
" clip-path="url(#p0dd42c114d)" style="fill: none; stroke: #595959"/>
   </g>
   <g id="line2d_276">
    <path d="M 270.740618 361.097093 
L 283.516363 361.097093 
" clip-path="url(#p0dd42c114d)" style="fill: none; stroke: #595959"/>
   </g>
   <g id="line2d_277">
    <path d="M 288.991682 377.199793 
L 301.767427 377.199793 
" clip-path="url(#p0dd42c114d)" style="fill: none; stroke: #595959"/>
   </g>
   <g id="line2d_278">
    <path d="M 307.242746 310.874268 
L 320.018491 310.874268 
" clip-path="url(#p0dd42c114d)" style="fill: none; stroke: #595959"/>
   </g>
   <g id="line2d_279">
    <path d="M 325.493811 350.335231 
L 338.269556 350.335231 
" clip-path="url(#p0dd42c114d)" style="fill: none; stroke: #595959"/>
   </g>
   <g id="line2d_280">
    <path d="M 343.744875 329.193649 
L 356.52062 329.193649 
" clip-path="url(#p0dd42c114d)" style="fill: none; stroke: #595959"/>
   </g>
   <g id="line2d_281">
    <path d="M 361.995939 338.788329 
L 374.771684 338.788329 
" clip-path="url(#p0dd42c114d)" style="fill: none; stroke: #595959"/>
   </g>
   <g id="line2d_282">
    <path d="M 380.247004 326.616168 
L 393.022749 326.616168 
" clip-path="url(#p0dd42c114d)" style="fill: none; stroke: #595959"/>
   </g>
   <g id="line2d_283">
    <path d="M 398.498068 329.498668 
L 411.273813 329.498668 
" clip-path="url(#p0dd42c114d)" style="fill: none; stroke: #595959"/>
   </g>
   <g id="line2d_284">
    <path d="M 416.749132 335.17022 
L 429.524877 335.17022 
" clip-path="url(#p0dd42c114d)" style="fill: none; stroke: #595959"/>
   </g>
   <g id="line2d_285">
    <path d="M 435.000197 323.240388 
L 447.775942 323.240388 
" clip-path="url(#p0dd42c114d)" style="fill: none; stroke: #595959"/>
   </g>
   <g id="line2d_286">
    <path d="M 453.251261 310.052507 
L 466.027006 310.052507 
" clip-path="url(#p0dd42c114d)" style="fill: none; stroke: #595959"/>
   </g>
   <g id="line2d_287">
    <path d="M 471.502325 312.454574 
L 484.278071 312.454574 
" clip-path="url(#p0dd42c114d)" style="fill: none; stroke: #595959"/>
   </g>
   <g id="line2d_288">
    <path d="M 489.75339 321.603139 
L 502.529135 321.603139 
" clip-path="url(#p0dd42c114d)" style="fill: none; stroke: #595959"/>
   </g>
   <g id="line2d_289">
    <path d="M 508.004454 302.184721 
L 520.780199 302.184721 
" clip-path="url(#p0dd42c114d)" style="fill: none; stroke: #595959"/>
   </g>
   <g id="line2d_290">
    <path d="M 526.255519 290.823465 
L 539.031264 290.823465 
" clip-path="url(#p0dd42c114d)" style="fill: none; stroke: #595959"/>
   </g>
   <g id="line2d_291">
    <path d="M 544.506583 278.057826 
L 557.282328 278.057826 
" clip-path="url(#p0dd42c114d)" style="fill: none; stroke: #595959"/>
   </g>
   <g id="line2d_292">
    <path d="M 562.757647 329.999129 
L 575.533392 329.999129 
" clip-path="url(#p0dd42c114d)" style="fill: none; stroke: #595959"/>
   </g>
   <g id="line2d_293">
    <path d="M 581.008712 302.727674 
L 593.784457 302.727674 
" clip-path="url(#p0dd42c114d)" style="fill: none; stroke: #595959"/>
   </g>
   <g id="line2d_294">
    <path d="M 599.259776 267.786375 
L 612.035521 267.786375 
" clip-path="url(#p0dd42c114d)" style="fill: none; stroke: #595959"/>
   </g>
   <g id="line2d_295">
    <path d="M 617.51084 288.336549 
L 630.286585 288.336549 
" clip-path="url(#p0dd42c114d)" style="fill: none; stroke: #595959"/>
   </g>
   <g id="line2d_296">
    <path d="M 635.761905 285.643535 
L 648.53765 285.643535 
" clip-path="url(#p0dd42c114d)" style="fill: none; stroke: #595959"/>
   </g>
   <g id="line2d_297">
    <path d="M 654.012969 322.799335 
L 666.788714 322.799335 
" clip-path="url(#p0dd42c114d)" style="fill: none; stroke: #595959"/>
   </g>
   <g id="line2d_298">
    <path d="M 672.264033 234.997233 
L 685.039778 234.997233 
" clip-path="url(#p0dd42c114d)" style="fill: none; stroke: #595959"/>
   </g>
   <g id="line2d_299">
    <path d="M 690.515098 265.145666 
L 703.290843 265.145666 
" clip-path="url(#p0dd42c114d)" style="fill: none; stroke: #595959"/>
   </g>
   <g id="line2d_300">
    <path d="M 708.766162 209.905568 
L 721.541907 209.905568 
" clip-path="url(#p0dd42c114d)" style="fill: none; stroke: #595959"/>
   </g>
   <g id="line2d_301">
    <path d="M 727.017226 283.127957 
L 739.792972 283.127957 
" clip-path="url(#p0dd42c114d)" style="fill: none; stroke: #595959"/>
   </g>
   <g id="line2d_302">
    <path d="M 745.268291 223.470281 
L 758.044036 223.470281 
" clip-path="url(#p0dd42c114d)" style="fill: none; stroke: #595959"/>
   </g>
   <g id="line2d_303">
    <path d="M 763.519355 259.941408 
L 776.2951 259.941408 
" clip-path="url(#p0dd42c114d)" style="fill: none; stroke: #595959"/>
   </g>
   <g id="line2d_304">
    <path d="M 781.77042 259.719834 
L 794.546165 259.719834 
" clip-path="url(#p0dd42c114d)" style="fill: none; stroke: #595959"/>
   </g>
   <g id="line2d_305">
    <path d="M 800.021484 368.117762 
L 812.797229 368.117762 
" clip-path="url(#p0dd42c114d)" style="fill: none; stroke: #595959"/>
   </g>
   <g id="line2d_306">
    <path d="M 818.272548 228.300346 
L 831.048293 228.300346 
" clip-path="url(#p0dd42c114d)" style="fill: none; stroke: #595959"/>
   </g>
   <g id="line2d_307">
    <path d="M 836.523613 340.243528 
L 849.299358 340.243528 
" clip-path="url(#p0dd42c114d)" style="fill: none; stroke: #595959"/>
   </g>
   <g id="line2d_308">
    <path d="M 854.774677 302.007824 
L 867.550422 302.007824 
" clip-path="url(#p0dd42c114d)" style="fill: none; stroke: #595959"/>
   </g>
   <g id="line2d_309">
    <path d="M 873.025741 363.437893 
L 885.801486 363.437893 
" clip-path="url(#p0dd42c114d)" style="fill: none; stroke: #595959"/>
   </g>
   <g id="line2d_310">
    <path d="M 891.276806 211.63865 
L 904.052551 211.63865 
" clip-path="url(#p0dd42c114d)" style="fill: none; stroke: #595959"/>
   </g>
   <g id="line2d_311">
    <path d="M 909.52787 357.424892 
L 922.303615 357.424892 
" clip-path="url(#p0dd42c114d)" style="fill: none; stroke: #595959"/>
   </g>
   <g id="line2d_312">
    <path d="M 927.778934 309.273674 
L 940.554679 309.273674 
" clip-path="url(#p0dd42c114d)" style="fill: none; stroke: #595959"/>
   </g>
   <g id="line2d_313">
    <path d="M 946.029999 346.741776 
L 958.805744 346.741776 
" clip-path="url(#p0dd42c114d)" style="fill: none; stroke: #595959"/>
   </g>
   <g id="line2d_314">
    <path d="M 964.281063 243.274153 
L 977.056808 243.274153 
" clip-path="url(#p0dd42c114d)" style="fill: none; stroke: #595959"/>
   </g>
   <g id="patch_53">
    <path d="M 67.24125 526.5 
L 67.24125 30.58125 
" style="fill: none; stroke: #cccccc; stroke-width: 1.25; stroke-linejoin: miter; stroke-linecap: square"/>
   </g>
   <g id="patch_54">
    <path d="M 988.92 526.5 
L 988.92 30.58125 
" style="fill: none; stroke: #cccccc; stroke-width: 1.25; stroke-linejoin: miter; stroke-linecap: square"/>
   </g>
   <g id="patch_55">
    <path d="M 67.24125 526.5 
L 988.92 526.5 
" style="fill: none; stroke: #cccccc; stroke-width: 1.25; stroke-linejoin: miter; stroke-linecap: square"/>
   </g>
   <g id="patch_56">
    <path d="M 67.24125 30.58125 
L 988.92 30.58125 
" style="fill: none; stroke: #cccccc; stroke-width: 1.25; stroke-linejoin: miter; stroke-linecap: square"/>
   </g>
   <g id="text_17">
    <!-- img-segmentation - coco (Iou_mean Distribution) -->
    <g style="fill: #262626" transform="translate(341.418125 24.58125) scale(0.16 -0.16)">
     <defs>
      <path id="Arial-BoldMT-69" d="M 459 3769 
L 459 4581 
L 1338 4581 
L 1338 3769 
L 459 3769 
z
M 459 0 
L 459 3319 
L 1338 3319 
L 1338 0 
L 459 0 
z
" transform="scale(0.015625)"/>
      <path id="Arial-BoldMT-6d" d="M 394 3319 
L 1203 3319 
L 1203 2866 
Q 1638 3394 2238 3394 
Q 2556 3394 2790 3262 
Q 3025 3131 3175 2866 
Q 3394 3131 3647 3262 
Q 3900 3394 4188 3394 
Q 4553 3394 4806 3245 
Q 5059 3097 5184 2809 
Q 5275 2597 5275 2122 
L 5275 0 
L 4397 0 
L 4397 1897 
Q 4397 2391 4306 2534 
Q 4184 2722 3931 2722 
Q 3747 2722 3584 2609 
Q 3422 2497 3350 2280 
Q 3278 2063 3278 1594 
L 3278 0 
L 2400 0 
L 2400 1819 
Q 2400 2303 2353 2443 
Q 2306 2584 2207 2653 
Q 2109 2722 1941 2722 
Q 1738 2722 1575 2612 
Q 1413 2503 1342 2297 
Q 1272 2091 1272 1613 
L 1272 0 
L 394 0 
L 394 3319 
z
" transform="scale(0.015625)"/>
      <path id="Arial-BoldMT-67" d="M 378 -219 
L 1381 -341 
Q 1406 -516 1497 -581 
Q 1622 -675 1891 -675 
Q 2234 -675 2406 -572 
Q 2522 -503 2581 -350 
Q 2622 -241 2622 53 
L 2622 538 
Q 2228 0 1628 0 
Q 959 0 569 566 
Q 263 1013 263 1678 
Q 263 2513 664 2953 
Q 1066 3394 1663 3394 
Q 2278 3394 2678 2853 
L 2678 3319 
L 3500 3319 
L 3500 341 
Q 3500 -247 3403 -537 
Q 3306 -828 3131 -993 
Q 2956 -1159 2664 -1253 
Q 2372 -1347 1925 -1347 
Q 1081 -1347 728 -1058 
Q 375 -769 375 -325 
Q 375 -281 378 -219 
z
M 1163 1728 
Q 1163 1200 1367 954 
Q 1572 709 1872 709 
Q 2194 709 2416 961 
Q 2638 1213 2638 1706 
Q 2638 2222 2425 2472 
Q 2213 2722 1888 2722 
Q 1572 2722 1367 2476 
Q 1163 2231 1163 1728 
z
" transform="scale(0.015625)"/>
      <path id="Arial-BoldMT-2d" d="M 359 1222 
L 359 2100 
L 2084 2100 
L 2084 1222 
L 359 1222 
z
" transform="scale(0.015625)"/>
      <path id="Arial-BoldMT-73" d="M 150 947 
L 1031 1081 
Q 1088 825 1259 692 
Q 1431 559 1741 559 
Q 2081 559 2253 684 
Q 2369 772 2369 919 
Q 2369 1019 2306 1084 
Q 2241 1147 2013 1200 
Q 950 1434 666 1628 
Q 272 1897 272 2375 
Q 272 2806 612 3100 
Q 953 3394 1669 3394 
Q 2350 3394 2681 3172 
Q 3013 2950 3138 2516 
L 2309 2363 
Q 2256 2556 2107 2659 
Q 1959 2763 1684 2763 
Q 1338 2763 1188 2666 
Q 1088 2597 1088 2488 
Q 1088 2394 1175 2328 
Q 1294 2241 1995 2081 
Q 2697 1922 2975 1691 
Q 3250 1456 3250 1038 
Q 3250 581 2869 253 
Q 2488 -75 1741 -75 
Q 1063 -75 667 200 
Q 272 475 150 947 
z
" transform="scale(0.015625)"/>
      <path id="Arial-BoldMT-65" d="M 2381 1056 
L 3256 909 
Q 3088 428 2723 176 
Q 2359 -75 1813 -75 
Q 947 -75 531 491 
Q 203 944 203 1634 
Q 203 2459 634 2926 
Q 1066 3394 1725 3394 
Q 2466 3394 2894 2905 
Q 3322 2416 3303 1406 
L 1103 1406 
Q 1113 1016 1316 798 
Q 1519 581 1822 581 
Q 2028 581 2168 693 
Q 2309 806 2381 1056 
z
M 2431 1944 
Q 2422 2325 2234 2523 
Q 2047 2722 1778 2722 
Q 1491 2722 1303 2513 
Q 1116 2303 1119 1944 
L 2431 1944 
z
" transform="scale(0.015625)"/>
      <path id="Arial-BoldMT-6e" d="M 3478 0 
L 2600 0 
L 2600 1694 
Q 2600 2231 2544 2389 
Q 2488 2547 2361 2634 
Q 2234 2722 2056 2722 
Q 1828 2722 1647 2597 
Q 1466 2472 1398 2265 
Q 1331 2059 1331 1503 
L 1331 0 
L 453 0 
L 453 3319 
L 1269 3319 
L 1269 2831 
Q 1703 3394 2363 3394 
Q 2653 3394 2893 3289 
Q 3134 3184 3257 3021 
Q 3381 2859 3429 2653 
Q 3478 2447 3478 2063 
L 3478 0 
z
" transform="scale(0.015625)"/>
      <path id="Arial-BoldMT-74" d="M 1981 3319 
L 1981 2619 
L 1381 2619 
L 1381 1281 
Q 1381 875 1398 808 
Q 1416 741 1477 697 
Q 1538 653 1625 653 
Q 1747 653 1978 738 
L 2053 56 
Q 1747 -75 1359 -75 
Q 1122 -75 931 4 
Q 741 84 652 211 
Q 563 338 528 553 
Q 500 706 500 1172 
L 500 2619 
L 97 2619 
L 97 3319 
L 500 3319 
L 500 3978 
L 1381 4491 
L 1381 3319 
L 1981 3319 
z
" transform="scale(0.015625)"/>
      <path id="Arial-BoldMT-61" d="M 1116 2306 
L 319 2450 
Q 453 2931 781 3162 
Q 1109 3394 1756 3394 
Q 2344 3394 2631 3255 
Q 2919 3116 3036 2902 
Q 3153 2688 3153 2116 
L 3144 1091 
Q 3144 653 3186 445 
Q 3228 238 3344 0 
L 2475 0 
Q 2441 88 2391 259 
Q 2369 338 2359 363 
Q 2134 144 1878 34 
Q 1622 -75 1331 -75 
Q 819 -75 523 203 
Q 228 481 228 906 
Q 228 1188 362 1408 
Q 497 1628 739 1745 
Q 981 1863 1438 1950 
Q 2053 2066 2291 2166 
L 2291 2253 
Q 2291 2506 2166 2614 
Q 2041 2722 1694 2722 
Q 1459 2722 1328 2630 
Q 1197 2538 1116 2306 
z
M 2291 1594 
Q 2122 1538 1756 1459 
Q 1391 1381 1278 1306 
Q 1106 1184 1106 997 
Q 1106 813 1243 678 
Q 1381 544 1594 544 
Q 1831 544 2047 700 
Q 2206 819 2256 991 
Q 2291 1103 2291 1419 
L 2291 1594 
z
" transform="scale(0.015625)"/>
      <path id="Arial-BoldMT-6f" d="M 256 1706 
Q 256 2144 472 2553 
Q 688 2963 1083 3178 
Q 1478 3394 1966 3394 
Q 2719 3394 3200 2905 
Q 3681 2416 3681 1669 
Q 3681 916 3195 420 
Q 2709 -75 1972 -75 
Q 1516 -75 1102 131 
Q 688 338 472 736 
Q 256 1134 256 1706 
z
M 1156 1659 
Q 1156 1166 1390 903 
Q 1625 641 1969 641 
Q 2313 641 2545 903 
Q 2778 1166 2778 1666 
Q 2778 2153 2545 2415 
Q 2313 2678 1969 2678 
Q 1625 2678 1390 2415 
Q 1156 2153 1156 1659 
z
" transform="scale(0.015625)"/>
      <path id="Arial-BoldMT-20" transform="scale(0.015625)"/>
      <path id="Arial-BoldMT-63" d="M 3353 2338 
L 2488 2181 
Q 2444 2441 2289 2572 
Q 2134 2703 1888 2703 
Q 1559 2703 1364 2476 
Q 1169 2250 1169 1719 
Q 1169 1128 1367 884 
Q 1566 641 1900 641 
Q 2150 641 2309 783 
Q 2469 925 2534 1272 
L 3397 1125 
Q 3263 531 2881 228 
Q 2500 -75 1859 -75 
Q 1131 -75 698 384 
Q 266 844 266 1656 
Q 266 2478 700 2936 
Q 1134 3394 1875 3394 
Q 2481 3394 2839 3133 
Q 3197 2872 3353 2338 
z
" transform="scale(0.015625)"/>
      <path id="Arial-BoldMT-28" d="M 1916 -1347 
L 1313 -1347 
Q 834 -625 584 153 
Q 334 931 334 1659 
Q 334 2563 644 3369 
Q 913 4069 1325 4659 
L 1925 4659 
Q 1497 3713 1336 3048 
Q 1175 2384 1175 1641 
Q 1175 1128 1270 590 
Q 1366 53 1531 -431 
Q 1641 -750 1916 -1347 
z
" transform="scale(0.015625)"/>
      <path id="Arial-BoldMT-49" d="M 438 0 
L 438 4581 
L 1363 4581 
L 1363 0 
L 438 0 
z
" transform="scale(0.015625)"/>
      <path id="Arial-BoldMT-75" d="M 2644 0 
L 2644 497 
Q 2463 231 2167 78 
Q 1872 -75 1544 -75 
Q 1209 -75 943 72 
Q 678 219 559 484 
Q 441 750 441 1219 
L 441 3319 
L 1319 3319 
L 1319 1794 
Q 1319 1094 1367 936 
Q 1416 778 1544 686 
Q 1672 594 1869 594 
Q 2094 594 2272 717 
Q 2450 841 2515 1023 
Q 2581 1206 2581 1919 
L 2581 3319 
L 3459 3319 
L 3459 0 
L 2644 0 
z
" transform="scale(0.015625)"/>
      <path id="Arial-BoldMT-5f" d="M -59 -1266 
L -59 -697 
L 3591 -697 
L 3591 -1266 
L -59 -1266 
z
" transform="scale(0.015625)"/>
      <path id="Arial-BoldMT-44" d="M 463 4581 
L 2153 4581 
Q 2725 4581 3025 4494 
Q 3428 4375 3715 4072 
Q 4003 3769 4153 3330 
Q 4303 2891 4303 2247 
Q 4303 1681 4163 1272 
Q 3991 772 3672 463 
Q 3431 228 3022 97 
Q 2716 0 2203 0 
L 463 0 
L 463 4581 
z
M 1388 3806 
L 1388 772 
L 2078 772 
Q 2466 772 2638 816 
Q 2863 872 3011 1006 
Q 3159 1141 3253 1448 
Q 3347 1756 3347 2288 
Q 3347 2819 3253 3103 
Q 3159 3388 2990 3547 
Q 2822 3706 2563 3763 
Q 2369 3806 1803 3806 
L 1388 3806 
z
" transform="scale(0.015625)"/>
      <path id="Arial-BoldMT-72" d="M 1300 0 
L 422 0 
L 422 3319 
L 1238 3319 
L 1238 2847 
Q 1447 3181 1614 3287 
Q 1781 3394 1994 3394 
Q 2294 3394 2572 3228 
L 2300 2463 
Q 2078 2606 1888 2606 
Q 1703 2606 1575 2504 
Q 1447 2403 1373 2137 
Q 1300 1872 1300 1025 
L 1300 0 
z
" transform="scale(0.015625)"/>
      <path id="Arial-BoldMT-62" d="M 422 0 
L 422 4581 
L 1300 4581 
L 1300 2931 
Q 1706 3394 2263 3394 
Q 2869 3394 3266 2955 
Q 3663 2516 3663 1694 
Q 3663 844 3258 384 
Q 2853 -75 2275 -75 
Q 1991 -75 1714 67 
Q 1438 209 1238 488 
L 1238 0 
L 422 0 
z
M 1294 1731 
Q 1294 1216 1456 969 
Q 1684 619 2063 619 
Q 2353 619 2558 867 
Q 2763 1116 2763 1650 
Q 2763 2219 2556 2470 
Q 2350 2722 2028 2722 
Q 1713 2722 1503 2476 
Q 1294 2231 1294 1731 
z
" transform="scale(0.015625)"/>
      <path id="Arial-BoldMT-29" d="M 216 -1347 
Q 475 -791 581 -494 
Q 688 -197 778 190 
Q 869 578 912 926 
Q 956 1275 956 1641 
Q 956 2384 797 3048 
Q 638 3713 209 4659 
L 806 4659 
Q 1278 3988 1539 3234 
Q 1800 2481 1800 1706 
Q 1800 1053 1594 306 
Q 1359 -531 822 -1347 
L 216 -1347 
z
" transform="scale(0.015625)"/>
     </defs>
     <use xlink:href="#Arial-BoldMT-69"/>
     <use xlink:href="#Arial-BoldMT-6d" transform="translate(27.783203 0)"/>
     <use xlink:href="#Arial-BoldMT-67" transform="translate(116.699219 0)"/>
     <use xlink:href="#Arial-BoldMT-2d" transform="translate(177.783203 0)"/>
     <use xlink:href="#Arial-BoldMT-73" transform="translate(211.083984 0)"/>
     <use xlink:href="#Arial-BoldMT-65" transform="translate(266.699219 0)"/>
     <use xlink:href="#Arial-BoldMT-67" transform="translate(322.314453 0)"/>
     <use xlink:href="#Arial-BoldMT-6d" transform="translate(383.398438 0)"/>
     <use xlink:href="#Arial-BoldMT-65" transform="translate(472.314453 0)"/>
     <use xlink:href="#Arial-BoldMT-6e" transform="translate(527.929688 0)"/>
     <use xlink:href="#Arial-BoldMT-74" transform="translate(589.013672 0)"/>
     <use xlink:href="#Arial-BoldMT-61" transform="translate(622.314453 0)"/>
     <use xlink:href="#Arial-BoldMT-74" transform="translate(677.929688 0)"/>
     <use xlink:href="#Arial-BoldMT-69" transform="translate(711.230469 0)"/>
     <use xlink:href="#Arial-BoldMT-6f" transform="translate(739.013672 0)"/>
     <use xlink:href="#Arial-BoldMT-6e" transform="translate(800.097656 0)"/>
     <use xlink:href="#Arial-BoldMT-20" transform="translate(861.181641 0)"/>
     <use xlink:href="#Arial-BoldMT-2d" transform="translate(888.964844 0)"/>
     <use xlink:href="#Arial-BoldMT-20" transform="translate(922.265625 0)"/>
     <use xlink:href="#Arial-BoldMT-63" transform="translate(950.048828 0)"/>
     <use xlink:href="#Arial-BoldMT-6f" transform="translate(1005.664062 0)"/>
     <use xlink:href="#Arial-BoldMT-63" transform="translate(1066.748047 0)"/>
     <use xlink:href="#Arial-BoldMT-6f" transform="translate(1122.363281 0)"/>
     <use xlink:href="#Arial-BoldMT-20" transform="translate(1183.447266 0)"/>
     <use xlink:href="#Arial-BoldMT-28" transform="translate(1211.230469 0)"/>
     <use xlink:href="#Arial-BoldMT-49" transform="translate(1244.53125 0)"/>
     <use xlink:href="#Arial-BoldMT-6f" transform="translate(1272.314453 0)"/>
     <use xlink:href="#Arial-BoldMT-75" transform="translate(1333.398438 0)"/>
     <use xlink:href="#Arial-BoldMT-5f" transform="translate(1394.482422 0)"/>
     <use xlink:href="#Arial-BoldMT-6d" transform="translate(1450.097656 0)"/>
     <use xlink:href="#Arial-BoldMT-65" transform="translate(1539.013672 0)"/>
     <use xlink:href="#Arial-BoldMT-61" transform="translate(1594.628906 0)"/>
     <use xlink:href="#Arial-BoldMT-6e" transform="translate(1650.244141 0)"/>
     <use xlink:href="#Arial-BoldMT-20" transform="translate(1711.328125 0)"/>
     <use xlink:href="#Arial-BoldMT-44" transform="translate(1739.111328 0)"/>
     <use xlink:href="#Arial-BoldMT-69" transform="translate(1811.328125 0)"/>
     <use xlink:href="#Arial-BoldMT-73" transform="translate(1839.111328 0)"/>
     <use xlink:href="#Arial-BoldMT-74" transform="translate(1894.726562 0)"/>
     <use xlink:href="#Arial-BoldMT-72" transform="translate(1928.027344 0)"/>
     <use xlink:href="#Arial-BoldMT-69" transform="translate(1966.943359 0)"/>
     <use xlink:href="#Arial-BoldMT-62" transform="translate(1994.726562 0)"/>
     <use xlink:href="#Arial-BoldMT-75" transform="translate(2055.810547 0)"/>
     <use xlink:href="#Arial-BoldMT-74" transform="translate(2116.894531 0)"/>
     <use xlink:href="#Arial-BoldMT-69" transform="translate(2150.195312 0)"/>
     <use xlink:href="#Arial-BoldMT-6f" transform="translate(2177.978516 0)"/>
     <use xlink:href="#Arial-BoldMT-6e" transform="translate(2239.0625 0)"/>
     <use xlink:href="#Arial-BoldMT-29" transform="translate(2300.146484 0)"/>
    </g>
   </g>
  </g>
 </g>
 <defs>
  <clipPath id="p0dd42c114d">
   <rect x="67.24125" y="30.58125" width="921.67875" height="495.91875"/>
  </clipPath>
 </defs>
</svg>
