<?xml version="1.0" encoding="utf-8" standalone="no"?>
<!DOCTYPE svg PUBLIC "-//W3C//DTD SVG 1.1//EN"
  "http://www.w3.org/Graphics/SVG/1.1/DTD/svg11.dtd">
<svg xmlns:xlink="http://www.w3.org/1999/xlink" width="1440pt" height="864pt" viewBox="0 0 1440 864" xmlns="http://www.w3.org/2000/svg" version="1.1">
 <metadata>
  <rdf:RDF xmlns:dc="http://purl.org/dc/elements/1.1/" xmlns:cc="http://creativecommons.org/ns#" xmlns:rdf="http://www.w3.org/1999/02/22-rdf-syntax-ns#">
   <cc:Work>
    <dc:type rdf:resource="http://purl.org/dc/dcmitype/StillImage"/>
    <dc:date>2025-01-26T23:30:58.515756</dc:date>
    <dc:format>image/svg+xml</dc:format>
    <dc:creator>
     <cc:Agent>
      <dc:title>Matplotlib v3.10.0, https://matplotlib.org/</dc:title>
     </cc:Agent>
    </dc:creator>
   </cc:Work>
  </rdf:RDF>
 </metadata>
 <defs>
  <style type="text/css">*{stroke-linejoin: round; stroke-linecap: butt}</style>
 </defs>
 <g id="figure_1">
  <g id="patch_1">
   <path d="M 0 864 
L 1440 864 
L 1440 0 
L 0 0 
z
" style="fill: #ffffff"/>
  </g>
  <g id="axes_1">
   <g id="patch_2">
    <path d="M 62.37 691.1355 
L 1427.04 691.1355 
L 1427.04 31.92 
L 62.37 31.92 
z
" style="fill: #ffffff"/>
   </g>
   <g id="matplotlib.axis_1">
    <g id="xtick_1">
     <g id="line2d_1">
      <path d="M 99.081902 691.1355 
L 99.081902 31.92 
" clip-path="url(#p7b0c94942e)" style="fill: none; stroke-dasharray: 3.7,1.6; stroke-dashoffset: 0; stroke: #cccccc; stroke-opacity: 0.5"/>
     </g>
     <g id="text_1">
      <!-- 0 -->
      <g style="fill: #262626" transform="translate(96.023386 708.509094) scale(0.11 -0.11)">
       <defs>
        <path id="ArialMT-30" d="M 266 2259 
Q 266 3072 433 3567 
Q 600 4063 929 4331 
Q 1259 4600 1759 4600 
Q 2128 4600 2406 4451 
Q 2684 4303 2865 4023 
Q 3047 3744 3150 3342 
Q 3253 2941 3253 2259 
Q 3253 1453 3087 958 
Q 2922 463 2592 192 
Q 2263 -78 1759 -78 
Q 1097 -78 719 397 
Q 266 969 266 2259 
z
M 844 2259 
Q 844 1131 1108 757 
Q 1372 384 1759 384 
Q 2147 384 2411 759 
Q 2675 1134 2675 2259 
Q 2675 3391 2411 3762 
Q 2147 4134 1753 4134 
Q 1366 4134 1134 3806 
Q 844 3388 844 2259 
z
" transform="scale(0.015625)"/>
       </defs>
       <use xlink:href="#ArialMT-30"/>
      </g>
     </g>
    </g>
    <g id="xtick_2">
     <g id="line2d_2">
      <path d="M 352.26743 691.1355 
L 352.26743 31.92 
" clip-path="url(#p7b0c94942e)" style="fill: none; stroke-dasharray: 3.7,1.6; stroke-dashoffset: 0; stroke: #cccccc; stroke-opacity: 0.5"/>
     </g>
     <g id="text_2">
      <!-- 10 -->
      <g style="fill: #262626" transform="translate(346.150399 708.509094) scale(0.11 -0.11)">
       <defs>
        <path id="ArialMT-31" d="M 2384 0 
L 1822 0 
L 1822 3584 
Q 1619 3391 1289 3197 
Q 959 3003 697 2906 
L 697 3450 
Q 1169 3672 1522 3987 
Q 1875 4303 2022 4600 
L 2384 4600 
L 2384 0 
z
" transform="scale(0.015625)"/>
       </defs>
       <use xlink:href="#ArialMT-31"/>
       <use xlink:href="#ArialMT-30" transform="translate(55.615234 0)"/>
      </g>
     </g>
    </g>
    <g id="xtick_3">
     <g id="line2d_3">
      <path d="M 605.452959 691.1355 
L 605.452959 31.92 
" clip-path="url(#p7b0c94942e)" style="fill: none; stroke-dasharray: 3.7,1.6; stroke-dashoffset: 0; stroke: #cccccc; stroke-opacity: 0.5"/>
     </g>
     <g id="text_3">
      <!-- 20 -->
      <g style="fill: #262626" transform="translate(599.335928 708.509094) scale(0.11 -0.11)">
       <defs>
        <path id="ArialMT-32" d="M 3222 541 
L 3222 0 
L 194 0 
Q 188 203 259 391 
Q 375 700 629 1000 
Q 884 1300 1366 1694 
Q 2113 2306 2375 2664 
Q 2638 3022 2638 3341 
Q 2638 3675 2398 3904 
Q 2159 4134 1775 4134 
Q 1369 4134 1125 3890 
Q 881 3647 878 3216 
L 300 3275 
Q 359 3922 746 4261 
Q 1134 4600 1788 4600 
Q 2447 4600 2831 4234 
Q 3216 3869 3216 3328 
Q 3216 3053 3103 2787 
Q 2991 2522 2730 2228 
Q 2469 1934 1863 1422 
Q 1356 997 1212 845 
Q 1069 694 975 541 
L 3222 541 
z
" transform="scale(0.015625)"/>
       </defs>
       <use xlink:href="#ArialMT-32"/>
       <use xlink:href="#ArialMT-30" transform="translate(55.615234 0)"/>
      </g>
     </g>
    </g>
    <g id="xtick_4">
     <g id="line2d_4">
      <path d="M 858.638488 691.1355 
L 858.638488 31.92 
" clip-path="url(#p7b0c94942e)" style="fill: none; stroke-dasharray: 3.7,1.6; stroke-dashoffset: 0; stroke: #cccccc; stroke-opacity: 0.5"/>
     </g>
     <g id="text_4">
      <!-- 30 -->
      <g style="fill: #262626" transform="translate(852.521457 708.509094) scale(0.11 -0.11)">
       <defs>
        <path id="ArialMT-33" d="M 269 1209 
L 831 1284 
Q 928 806 1161 595 
Q 1394 384 1728 384 
Q 2125 384 2398 659 
Q 2672 934 2672 1341 
Q 2672 1728 2419 1979 
Q 2166 2231 1775 2231 
Q 1616 2231 1378 2169 
L 1441 2663 
Q 1497 2656 1531 2656 
Q 1891 2656 2178 2843 
Q 2466 3031 2466 3422 
Q 2466 3731 2256 3934 
Q 2047 4138 1716 4138 
Q 1388 4138 1169 3931 
Q 950 3725 888 3313 
L 325 3413 
Q 428 3978 793 4289 
Q 1159 4600 1703 4600 
Q 2078 4600 2393 4439 
Q 2709 4278 2876 4000 
Q 3044 3722 3044 3409 
Q 3044 3113 2884 2869 
Q 2725 2625 2413 2481 
Q 2819 2388 3044 2092 
Q 3269 1797 3269 1353 
Q 3269 753 2831 336 
Q 2394 -81 1725 -81 
Q 1122 -81 723 278 
Q 325 638 269 1209 
z
" transform="scale(0.015625)"/>
       </defs>
       <use xlink:href="#ArialMT-33"/>
       <use xlink:href="#ArialMT-30" transform="translate(55.615234 0)"/>
      </g>
     </g>
    </g>
    <g id="xtick_5">
     <g id="line2d_5">
      <path d="M 1111.824017 691.1355 
L 1111.824017 31.92 
" clip-path="url(#p7b0c94942e)" style="fill: none; stroke-dasharray: 3.7,1.6; stroke-dashoffset: 0; stroke: #cccccc; stroke-opacity: 0.5"/>
     </g>
     <g id="text_5">
      <!-- 40 -->
      <g style="fill: #262626" transform="translate(1105.706985 708.509094) scale(0.11 -0.11)">
       <defs>
        <path id="ArialMT-34" d="M 2069 0 
L 2069 1097 
L 81 1097 
L 81 1613 
L 2172 4581 
L 2631 4581 
L 2631 1613 
L 3250 1613 
L 3250 1097 
L 2631 1097 
L 2631 0 
L 2069 0 
z
M 2069 1613 
L 2069 3678 
L 634 1613 
L 2069 1613 
z
" transform="scale(0.015625)"/>
       </defs>
       <use xlink:href="#ArialMT-34"/>
       <use xlink:href="#ArialMT-30" transform="translate(55.615234 0)"/>
      </g>
     </g>
    </g>
    <g id="xtick_6">
     <g id="line2d_6">
      <path d="M 1365.009545 691.1355 
L 1365.009545 31.92 
" clip-path="url(#p7b0c94942e)" style="fill: none; stroke-dasharray: 3.7,1.6; stroke-dashoffset: 0; stroke: #cccccc; stroke-opacity: 0.5"/>
     </g>
     <g id="text_6">
      <!-- 50 -->
      <g style="fill: #262626" transform="translate(1358.892514 708.509094) scale(0.11 -0.11)">
       <defs>
        <path id="ArialMT-35" d="M 266 1200 
L 856 1250 
Q 922 819 1161 601 
Q 1400 384 1738 384 
Q 2144 384 2425 690 
Q 2706 997 2706 1503 
Q 2706 1984 2436 2262 
Q 2166 2541 1728 2541 
Q 1456 2541 1237 2417 
Q 1019 2294 894 2097 
L 366 2166 
L 809 4519 
L 3088 4519 
L 3088 3981 
L 1259 3981 
L 1013 2750 
Q 1425 3038 1878 3038 
Q 2478 3038 2890 2622 
Q 3303 2206 3303 1553 
Q 3303 931 2941 478 
Q 2500 -78 1738 -78 
Q 1113 -78 717 272 
Q 322 622 266 1200 
z
" transform="scale(0.015625)"/>
       </defs>
       <use xlink:href="#ArialMT-35"/>
       <use xlink:href="#ArialMT-30" transform="translate(55.615234 0)"/>
      </g>
     </g>
    </g>
    <g id="text_7">
     <!-- Epoch -->
     <g style="fill: #262626" transform="translate(722.0225 726.147844) scale(0.16 -0.16)">
      <defs>
       <path id="ArialMT-45" d="M 506 0 
L 506 4581 
L 3819 4581 
L 3819 4041 
L 1113 4041 
L 1113 2638 
L 3647 2638 
L 3647 2100 
L 1113 2100 
L 1113 541 
L 3925 541 
L 3925 0 
L 506 0 
z
" transform="scale(0.015625)"/>
       <path id="ArialMT-70" d="M 422 -1272 
L 422 3319 
L 934 3319 
L 934 2888 
Q 1116 3141 1344 3267 
Q 1572 3394 1897 3394 
Q 2322 3394 2647 3175 
Q 2972 2956 3137 2557 
Q 3303 2159 3303 1684 
Q 3303 1175 3120 767 
Q 2938 359 2589 142 
Q 2241 -75 1856 -75 
Q 1575 -75 1351 44 
Q 1128 163 984 344 
L 984 -1272 
L 422 -1272 
z
M 931 1641 
Q 931 1000 1190 694 
Q 1450 388 1819 388 
Q 2194 388 2461 705 
Q 2728 1022 2728 1688 
Q 2728 2322 2467 2637 
Q 2206 2953 1844 2953 
Q 1484 2953 1207 2617 
Q 931 2281 931 1641 
z
" transform="scale(0.015625)"/>
       <path id="ArialMT-6f" d="M 213 1659 
Q 213 2581 725 3025 
Q 1153 3394 1769 3394 
Q 2453 3394 2887 2945 
Q 3322 2497 3322 1706 
Q 3322 1066 3130 698 
Q 2938 331 2570 128 
Q 2203 -75 1769 -75 
Q 1072 -75 642 372 
Q 213 819 213 1659 
z
M 791 1659 
Q 791 1022 1069 705 
Q 1347 388 1769 388 
Q 2188 388 2466 706 
Q 2744 1025 2744 1678 
Q 2744 2294 2464 2611 
Q 2184 2928 1769 2928 
Q 1347 2928 1069 2612 
Q 791 2297 791 1659 
z
" transform="scale(0.015625)"/>
       <path id="ArialMT-63" d="M 2588 1216 
L 3141 1144 
Q 3050 572 2676 248 
Q 2303 -75 1759 -75 
Q 1078 -75 664 370 
Q 250 816 250 1647 
Q 250 2184 428 2587 
Q 606 2991 970 3192 
Q 1334 3394 1763 3394 
Q 2303 3394 2647 3120 
Q 2991 2847 3088 2344 
L 2541 2259 
Q 2463 2594 2264 2762 
Q 2066 2931 1784 2931 
Q 1359 2931 1093 2626 
Q 828 2322 828 1663 
Q 828 994 1084 691 
Q 1341 388 1753 388 
Q 2084 388 2306 591 
Q 2528 794 2588 1216 
z
" transform="scale(0.015625)"/>
       <path id="ArialMT-68" d="M 422 0 
L 422 4581 
L 984 4581 
L 984 2938 
Q 1378 3394 1978 3394 
Q 2347 3394 2619 3248 
Q 2891 3103 3008 2847 
Q 3125 2591 3125 2103 
L 3125 0 
L 2563 0 
L 2563 2103 
Q 2563 2525 2380 2717 
Q 2197 2909 1863 2909 
Q 1613 2909 1392 2779 
Q 1172 2650 1078 2428 
Q 984 2206 984 1816 
L 984 0 
L 422 0 
z
" transform="scale(0.015625)"/>
      </defs>
      <use xlink:href="#ArialMT-45"/>
      <use xlink:href="#ArialMT-70" transform="translate(66.699219 0)"/>
      <use xlink:href="#ArialMT-6f" transform="translate(122.314453 0)"/>
      <use xlink:href="#ArialMT-63" transform="translate(177.929688 0)"/>
      <use xlink:href="#ArialMT-68" transform="translate(227.929688 0)"/>
     </g>
    </g>
   </g>
   <g id="matplotlib.axis_2">
    <g id="ytick_1">
     <g id="line2d_7">
      <path d="M 62.37 657.934687 
L 1427.04 657.934687 
" clip-path="url(#p7b0c94942e)" style="fill: none; stroke-dasharray: 3.7,1.6; stroke-dashoffset: 0; stroke: #cccccc; stroke-opacity: 0.5"/>
     </g>
     <g id="text_8">
      <!-- 0.70 -->
      <g style="fill: #262626" transform="translate(31.462969 661.871484) scale(0.11 -0.11)">
       <defs>
        <path id="ArialMT-2e" d="M 581 0 
L 581 641 
L 1222 641 
L 1222 0 
L 581 0 
z
" transform="scale(0.015625)"/>
        <path id="ArialMT-37" d="M 303 3981 
L 303 4522 
L 3269 4522 
L 3269 4084 
Q 2831 3619 2401 2847 
Q 1972 2075 1738 1259 
Q 1569 684 1522 0 
L 944 0 
Q 953 541 1156 1306 
Q 1359 2072 1739 2783 
Q 2119 3494 2547 3981 
L 303 3981 
z
" transform="scale(0.015625)"/>
       </defs>
       <use xlink:href="#ArialMT-30"/>
       <use xlink:href="#ArialMT-2e" transform="translate(55.615234 0)"/>
       <use xlink:href="#ArialMT-37" transform="translate(83.398438 0)"/>
       <use xlink:href="#ArialMT-30" transform="translate(139.013672 0)"/>
      </g>
     </g>
    </g>
    <g id="ytick_2">
     <g id="line2d_8">
      <path d="M 62.37 556.045739 
L 1427.04 556.045739 
" clip-path="url(#p7b0c94942e)" style="fill: none; stroke-dasharray: 3.7,1.6; stroke-dashoffset: 0; stroke: #cccccc; stroke-opacity: 0.5"/>
     </g>
     <g id="text_9">
      <!-- 0.75 -->
      <g style="fill: #262626" transform="translate(31.462969 559.982536) scale(0.11 -0.11)">
       <use xlink:href="#ArialMT-30"/>
       <use xlink:href="#ArialMT-2e" transform="translate(55.615234 0)"/>
       <use xlink:href="#ArialMT-37" transform="translate(83.398438 0)"/>
       <use xlink:href="#ArialMT-35" transform="translate(139.013672 0)"/>
      </g>
     </g>
    </g>
    <g id="ytick_3">
     <g id="line2d_9">
      <path d="M 62.37 454.156791 
L 1427.04 454.156791 
" clip-path="url(#p7b0c94942e)" style="fill: none; stroke-dasharray: 3.7,1.6; stroke-dashoffset: 0; stroke: #cccccc; stroke-opacity: 0.5"/>
     </g>
     <g id="text_10">
      <!-- 0.80 -->
      <g style="fill: #262626" transform="translate(31.462969 458.093588) scale(0.11 -0.11)">
       <defs>
        <path id="ArialMT-38" d="M 1131 2484 
Q 781 2613 612 2850 
Q 444 3088 444 3419 
Q 444 3919 803 4259 
Q 1163 4600 1759 4600 
Q 2359 4600 2725 4251 
Q 3091 3903 3091 3403 
Q 3091 3084 2923 2848 
Q 2756 2613 2416 2484 
Q 2838 2347 3058 2040 
Q 3278 1734 3278 1309 
Q 3278 722 2862 322 
Q 2447 -78 1769 -78 
Q 1091 -78 675 323 
Q 259 725 259 1325 
Q 259 1772 486 2073 
Q 713 2375 1131 2484 
z
M 1019 3438 
Q 1019 3113 1228 2906 
Q 1438 2700 1772 2700 
Q 2097 2700 2305 2904 
Q 2513 3109 2513 3406 
Q 2513 3716 2298 3927 
Q 2084 4138 1766 4138 
Q 1444 4138 1231 3931 
Q 1019 3725 1019 3438 
z
M 838 1322 
Q 838 1081 952 856 
Q 1066 631 1291 507 
Q 1516 384 1775 384 
Q 2178 384 2440 643 
Q 2703 903 2703 1303 
Q 2703 1709 2433 1975 
Q 2163 2241 1756 2241 
Q 1359 2241 1098 1978 
Q 838 1716 838 1322 
z
" transform="scale(0.015625)"/>
       </defs>
       <use xlink:href="#ArialMT-30"/>
       <use xlink:href="#ArialMT-2e" transform="translate(55.615234 0)"/>
       <use xlink:href="#ArialMT-38" transform="translate(83.398438 0)"/>
       <use xlink:href="#ArialMT-30" transform="translate(139.013672 0)"/>
      </g>
     </g>
    </g>
    <g id="ytick_4">
     <g id="line2d_10">
      <path d="M 62.37 352.267843 
L 1427.04 352.267843 
" clip-path="url(#p7b0c94942e)" style="fill: none; stroke-dasharray: 3.7,1.6; stroke-dashoffset: 0; stroke: #cccccc; stroke-opacity: 0.5"/>
     </g>
     <g id="text_11">
      <!-- 0.85 -->
      <g style="fill: #262626" transform="translate(31.462969 356.20464) scale(0.11 -0.11)">
       <use xlink:href="#ArialMT-30"/>
       <use xlink:href="#ArialMT-2e" transform="translate(55.615234 0)"/>
       <use xlink:href="#ArialMT-38" transform="translate(83.398438 0)"/>
       <use xlink:href="#ArialMT-35" transform="translate(139.013672 0)"/>
      </g>
     </g>
    </g>
    <g id="ytick_5">
     <g id="line2d_11">
      <path d="M 62.37 250.378895 
L 1427.04 250.378895 
" clip-path="url(#p7b0c94942e)" style="fill: none; stroke-dasharray: 3.7,1.6; stroke-dashoffset: 0; stroke: #cccccc; stroke-opacity: 0.5"/>
     </g>
     <g id="text_12">
      <!-- 0.90 -->
      <g style="fill: #262626" transform="translate(31.462969 254.315692) scale(0.11 -0.11)">
       <defs>
        <path id="ArialMT-39" d="M 350 1059 
L 891 1109 
Q 959 728 1153 556 
Q 1347 384 1650 384 
Q 1909 384 2104 503 
Q 2300 622 2425 820 
Q 2550 1019 2634 1356 
Q 2719 1694 2719 2044 
Q 2719 2081 2716 2156 
Q 2547 1888 2255 1720 
Q 1963 1553 1622 1553 
Q 1053 1553 659 1965 
Q 266 2378 266 3053 
Q 266 3750 677 4175 
Q 1088 4600 1706 4600 
Q 2153 4600 2523 4359 
Q 2894 4119 3086 3673 
Q 3278 3228 3278 2384 
Q 3278 1506 3087 986 
Q 2897 466 2520 194 
Q 2144 -78 1638 -78 
Q 1100 -78 759 220 
Q 419 519 350 1059 
z
M 2653 3081 
Q 2653 3566 2395 3850 
Q 2138 4134 1775 4134 
Q 1400 4134 1122 3828 
Q 844 3522 844 3034 
Q 844 2597 1108 2323 
Q 1372 2050 1759 2050 
Q 2150 2050 2401 2323 
Q 2653 2597 2653 3081 
z
" transform="scale(0.015625)"/>
       </defs>
       <use xlink:href="#ArialMT-30"/>
       <use xlink:href="#ArialMT-2e" transform="translate(55.615234 0)"/>
       <use xlink:href="#ArialMT-39" transform="translate(83.398438 0)"/>
       <use xlink:href="#ArialMT-30" transform="translate(139.013672 0)"/>
      </g>
     </g>
    </g>
    <g id="ytick_6">
     <g id="line2d_12">
      <path d="M 62.37 148.489947 
L 1427.04 148.489947 
" clip-path="url(#p7b0c94942e)" style="fill: none; stroke-dasharray: 3.7,1.6; stroke-dashoffset: 0; stroke: #cccccc; stroke-opacity: 0.5"/>
     </g>
     <g id="text_13">
      <!-- 0.95 -->
      <g style="fill: #262626" transform="translate(31.462969 152.426744) scale(0.11 -0.11)">
       <use xlink:href="#ArialMT-30"/>
       <use xlink:href="#ArialMT-2e" transform="translate(55.615234 0)"/>
       <use xlink:href="#ArialMT-39" transform="translate(83.398438 0)"/>
       <use xlink:href="#ArialMT-35" transform="translate(139.013672 0)"/>
      </g>
     </g>
    </g>
    <g id="ytick_7">
     <g id="line2d_13">
      <path d="M 62.37 46.600999 
L 1427.04 46.600999 
" clip-path="url(#p7b0c94942e)" style="fill: none; stroke-dasharray: 3.7,1.6; stroke-dashoffset: 0; stroke: #cccccc; stroke-opacity: 0.5"/>
     </g>
     <g id="text_14">
      <!-- 1.00 -->
      <g style="fill: #262626" transform="translate(31.462969 50.537796) scale(0.11 -0.11)">
       <use xlink:href="#ArialMT-31"/>
       <use xlink:href="#ArialMT-2e" transform="translate(55.615234 0)"/>
       <use xlink:href="#ArialMT-30" transform="translate(83.398438 0)"/>
       <use xlink:href="#ArialMT-30" transform="translate(139.013672 0)"/>
      </g>
     </g>
    </g>
    <g id="text_15">
     <!-- Accuracy -->
     <g style="fill: #262626" transform="translate(24.095469 394.42525) rotate(-90) scale(0.16 -0.16)">
      <defs>
       <path id="ArialMT-41" d="M -9 0 
L 1750 4581 
L 2403 4581 
L 4278 0 
L 3588 0 
L 3053 1388 
L 1138 1388 
L 634 0 
L -9 0 
z
M 1313 1881 
L 2866 1881 
L 2388 3150 
Q 2169 3728 2063 4100 
Q 1975 3659 1816 3225 
L 1313 1881 
z
" transform="scale(0.015625)"/>
       <path id="ArialMT-75" d="M 2597 0 
L 2597 488 
Q 2209 -75 1544 -75 
Q 1250 -75 995 37 
Q 741 150 617 320 
Q 494 491 444 738 
Q 409 903 409 1263 
L 409 3319 
L 972 3319 
L 972 1478 
Q 972 1038 1006 884 
Q 1059 663 1231 536 
Q 1403 409 1656 409 
Q 1909 409 2131 539 
Q 2353 669 2445 892 
Q 2538 1116 2538 1541 
L 2538 3319 
L 3100 3319 
L 3100 0 
L 2597 0 
z
" transform="scale(0.015625)"/>
       <path id="ArialMT-72" d="M 416 0 
L 416 3319 
L 922 3319 
L 922 2816 
Q 1116 3169 1280 3281 
Q 1444 3394 1641 3394 
Q 1925 3394 2219 3213 
L 2025 2691 
Q 1819 2813 1613 2813 
Q 1428 2813 1281 2702 
Q 1134 2591 1072 2394 
Q 978 2094 978 1738 
L 978 0 
L 416 0 
z
" transform="scale(0.015625)"/>
       <path id="ArialMT-61" d="M 2588 409 
Q 2275 144 1986 34 
Q 1697 -75 1366 -75 
Q 819 -75 525 192 
Q 231 459 231 875 
Q 231 1119 342 1320 
Q 453 1522 633 1644 
Q 813 1766 1038 1828 
Q 1203 1872 1538 1913 
Q 2219 1994 2541 2106 
Q 2544 2222 2544 2253 
Q 2544 2597 2384 2738 
Q 2169 2928 1744 2928 
Q 1347 2928 1158 2789 
Q 969 2650 878 2297 
L 328 2372 
Q 403 2725 575 2942 
Q 747 3159 1072 3276 
Q 1397 3394 1825 3394 
Q 2250 3394 2515 3294 
Q 2781 3194 2906 3042 
Q 3031 2891 3081 2659 
Q 3109 2516 3109 2141 
L 3109 1391 
Q 3109 606 3145 398 
Q 3181 191 3288 0 
L 2700 0 
Q 2613 175 2588 409 
z
M 2541 1666 
Q 2234 1541 1622 1453 
Q 1275 1403 1131 1340 
Q 988 1278 909 1158 
Q 831 1038 831 891 
Q 831 666 1001 516 
Q 1172 366 1500 366 
Q 1825 366 2078 508 
Q 2331 650 2450 897 
Q 2541 1088 2541 1459 
L 2541 1666 
z
" transform="scale(0.015625)"/>
       <path id="ArialMT-79" d="M 397 -1278 
L 334 -750 
Q 519 -800 656 -800 
Q 844 -800 956 -737 
Q 1069 -675 1141 -563 
Q 1194 -478 1313 -144 
Q 1328 -97 1363 -6 
L 103 3319 
L 709 3319 
L 1400 1397 
Q 1534 1031 1641 628 
Q 1738 1016 1872 1384 
L 2581 3319 
L 3144 3319 
L 1881 -56 
Q 1678 -603 1566 -809 
Q 1416 -1088 1222 -1217 
Q 1028 -1347 759 -1347 
Q 597 -1347 397 -1278 
z
" transform="scale(0.015625)"/>
      </defs>
      <use xlink:href="#ArialMT-41"/>
      <use xlink:href="#ArialMT-63" transform="translate(66.699219 0)"/>
      <use xlink:href="#ArialMT-63" transform="translate(116.699219 0)"/>
      <use xlink:href="#ArialMT-75" transform="translate(166.699219 0)"/>
      <use xlink:href="#ArialMT-72" transform="translate(222.314453 0)"/>
      <use xlink:href="#ArialMT-61" transform="translate(255.615234 0)"/>
      <use xlink:href="#ArialMT-63" transform="translate(311.230469 0)"/>
      <use xlink:href="#ArialMT-79" transform="translate(361.230469 0)"/>
     </g>
    </g>
   </g>
   <g id="line2d_14">
    <path d="M 124.400455 661.171159 
L 149.719007 458.389101 
L 175.03756 457.809118 
L 200.356113 406.002506 
L 225.674666 343.335578 
L 250.993219 516.614716 
L 276.311772 454.462457 
L 301.630325 410.65021 
L 326.948878 375.396634 
L 352.26743 345.950728 
L 377.585983 329.037163 
L 402.904536 311.206597 
L 428.223089 298.979923 
L 453.541642 286.345693 
L 478.860195 274.11902 
L 504.178748 268.107572 
L 529.497301 256.492232 
L 554.815853 247.627893 
L 580.134406 241.208889 
L 605.452959 233.974774 
L 630.771512 227.250103 
L 656.090065 220.932989 
L 681.408618 214.00454 
L 706.727171 211.966761 
L 732.045724 202.083533 
L 757.364276 198.823087 
L 782.682829 195.053196 
L 808.001382 186.698302 
L 833.319935 183.641634 
L 858.638488 180.483076 
L 883.957041 176.916963 
L 909.275594 171.720627 
L 934.594147 168.256403 
L 959.912699 167.746958 
L 985.231252 163.263844 
L 1010.549805 159.595842 
L 1035.868358 160.309065 
L 1061.186911 156.437285 
L 1086.505464 156.029729 
L 1111.824017 153.380616 
L 1137.14257 150.12017 
L 1162.461122 148.388058 
L 1187.779675 147.980502 
L 1213.098228 146.044612 
L 1238.416781 142.274721 
L 1263.735334 141.765276 
L 1289.053887 139.218052 
L 1314.37244 139.727497 
L 1339.690993 137.282162 
L 1365.009545 135.753828 
" clip-path="url(#p7b0c94942e)" style="fill: none; stroke: #1f77b4; stroke-width: 1.5; stroke-linecap: round"/>
    <defs>
     <path id="m012d35a6ce" d="M 0 3 
C 0.795609 3 1.55874 2.683901 2.12132 2.12132 
C 2.683901 1.55874 3 0.795609 3 0 
C 3 -0.795609 2.683901 -1.55874 2.12132 -2.12132 
C 1.55874 -2.683901 0.795609 -3 0 -3 
C -0.795609 -3 -1.55874 -2.683901 -2.12132 -2.12132 
C -2.683901 -1.55874 -3 -0.795609 -3 0 
C -3 0.795609 -2.683901 1.55874 -2.12132 2.12132 
C -1.55874 2.683901 -0.795609 3 0 3 
z
" style="stroke: #1f77b4"/>
    </defs>
    <g clip-path="url(#p7b0c94942e)">
     <use xlink:href="#m012d35a6ce" x="124.400455" y="661.171159" style="fill: #1f77b4; stroke: #1f77b4"/>
     <use xlink:href="#m012d35a6ce" x="149.719007" y="458.389101" style="fill: #1f77b4; stroke: #1f77b4"/>
     <use xlink:href="#m012d35a6ce" x="175.03756" y="457.809118" style="fill: #1f77b4; stroke: #1f77b4"/>
     <use xlink:href="#m012d35a6ce" x="200.356113" y="406.002506" style="fill: #1f77b4; stroke: #1f77b4"/>
     <use xlink:href="#m012d35a6ce" x="225.674666" y="343.335578" style="fill: #1f77b4; stroke: #1f77b4"/>
     <use xlink:href="#m012d35a6ce" x="250.993219" y="516.614716" style="fill: #1f77b4; stroke: #1f77b4"/>
     <use xlink:href="#m012d35a6ce" x="276.311772" y="454.462457" style="fill: #1f77b4; stroke: #1f77b4"/>
     <use xlink:href="#m012d35a6ce" x="301.630325" y="410.65021" style="fill: #1f77b4; stroke: #1f77b4"/>
     <use xlink:href="#m012d35a6ce" x="326.948878" y="375.396634" style="fill: #1f77b4; stroke: #1f77b4"/>
     <use xlink:href="#m012d35a6ce" x="352.26743" y="345.950728" style="fill: #1f77b4; stroke: #1f77b4"/>
     <use xlink:href="#m012d35a6ce" x="377.585983" y="329.037163" style="fill: #1f77b4; stroke: #1f77b4"/>
     <use xlink:href="#m012d35a6ce" x="402.904536" y="311.206597" style="fill: #1f77b4; stroke: #1f77b4"/>
     <use xlink:href="#m012d35a6ce" x="428.223089" y="298.979923" style="fill: #1f77b4; stroke: #1f77b4"/>
     <use xlink:href="#m012d35a6ce" x="453.541642" y="286.345693" style="fill: #1f77b4; stroke: #1f77b4"/>
     <use xlink:href="#m012d35a6ce" x="478.860195" y="274.11902" style="fill: #1f77b4; stroke: #1f77b4"/>
     <use xlink:href="#m012d35a6ce" x="504.178748" y="268.107572" style="fill: #1f77b4; stroke: #1f77b4"/>
     <use xlink:href="#m012d35a6ce" x="529.497301" y="256.492232" style="fill: #1f77b4; stroke: #1f77b4"/>
     <use xlink:href="#m012d35a6ce" x="554.815853" y="247.627893" style="fill: #1f77b4; stroke: #1f77b4"/>
     <use xlink:href="#m012d35a6ce" x="580.134406" y="241.208889" style="fill: #1f77b4; stroke: #1f77b4"/>
     <use xlink:href="#m012d35a6ce" x="605.452959" y="233.974774" style="fill: #1f77b4; stroke: #1f77b4"/>
     <use xlink:href="#m012d35a6ce" x="630.771512" y="227.250103" style="fill: #1f77b4; stroke: #1f77b4"/>
     <use xlink:href="#m012d35a6ce" x="656.090065" y="220.932989" style="fill: #1f77b4; stroke: #1f77b4"/>
     <use xlink:href="#m012d35a6ce" x="681.408618" y="214.00454" style="fill: #1f77b4; stroke: #1f77b4"/>
     <use xlink:href="#m012d35a6ce" x="706.727171" y="211.966761" style="fill: #1f77b4; stroke: #1f77b4"/>
     <use xlink:href="#m012d35a6ce" x="732.045724" y="202.083533" style="fill: #1f77b4; stroke: #1f77b4"/>
     <use xlink:href="#m012d35a6ce" x="757.364276" y="198.823087" style="fill: #1f77b4; stroke: #1f77b4"/>
     <use xlink:href="#m012d35a6ce" x="782.682829" y="195.053196" style="fill: #1f77b4; stroke: #1f77b4"/>
     <use xlink:href="#m012d35a6ce" x="808.001382" y="186.698302" style="fill: #1f77b4; stroke: #1f77b4"/>
     <use xlink:href="#m012d35a6ce" x="833.319935" y="183.641634" style="fill: #1f77b4; stroke: #1f77b4"/>
     <use xlink:href="#m012d35a6ce" x="858.638488" y="180.483076" style="fill: #1f77b4; stroke: #1f77b4"/>
     <use xlink:href="#m012d35a6ce" x="883.957041" y="176.916963" style="fill: #1f77b4; stroke: #1f77b4"/>
     <use xlink:href="#m012d35a6ce" x="909.275594" y="171.720627" style="fill: #1f77b4; stroke: #1f77b4"/>
     <use xlink:href="#m012d35a6ce" x="934.594147" y="168.256403" style="fill: #1f77b4; stroke: #1f77b4"/>
     <use xlink:href="#m012d35a6ce" x="959.912699" y="167.746958" style="fill: #1f77b4; stroke: #1f77b4"/>
     <use xlink:href="#m012d35a6ce" x="985.231252" y="163.263844" style="fill: #1f77b4; stroke: #1f77b4"/>
     <use xlink:href="#m012d35a6ce" x="1010.549805" y="159.595842" style="fill: #1f77b4; stroke: #1f77b4"/>
     <use xlink:href="#m012d35a6ce" x="1035.868358" y="160.309065" style="fill: #1f77b4; stroke: #1f77b4"/>
     <use xlink:href="#m012d35a6ce" x="1061.186911" y="156.437285" style="fill: #1f77b4; stroke: #1f77b4"/>
     <use xlink:href="#m012d35a6ce" x="1086.505464" y="156.029729" style="fill: #1f77b4; stroke: #1f77b4"/>
     <use xlink:href="#m012d35a6ce" x="1111.824017" y="153.380616" style="fill: #1f77b4; stroke: #1f77b4"/>
     <use xlink:href="#m012d35a6ce" x="1137.14257" y="150.12017" style="fill: #1f77b4; stroke: #1f77b4"/>
     <use xlink:href="#m012d35a6ce" x="1162.461122" y="148.388058" style="fill: #1f77b4; stroke: #1f77b4"/>
     <use xlink:href="#m012d35a6ce" x="1187.779675" y="147.980502" style="fill: #1f77b4; stroke: #1f77b4"/>
     <use xlink:href="#m012d35a6ce" x="1213.098228" y="146.044612" style="fill: #1f77b4; stroke: #1f77b4"/>
     <use xlink:href="#m012d35a6ce" x="1238.416781" y="142.274721" style="fill: #1f77b4; stroke: #1f77b4"/>
     <use xlink:href="#m012d35a6ce" x="1263.735334" y="141.765276" style="fill: #1f77b4; stroke: #1f77b4"/>
     <use xlink:href="#m012d35a6ce" x="1289.053887" y="139.218052" style="fill: #1f77b4; stroke: #1f77b4"/>
     <use xlink:href="#m012d35a6ce" x="1314.37244" y="139.727497" style="fill: #1f77b4; stroke: #1f77b4"/>
     <use xlink:href="#m012d35a6ce" x="1339.690993" y="137.282162" style="fill: #1f77b4; stroke: #1f77b4"/>
     <use xlink:href="#m012d35a6ce" x="1365.009545" y="135.753828" style="fill: #1f77b4; stroke: #1f77b4"/>
    </g>
   </g>
   <g id="line2d_15">
    <path d="M 124.400455 661.171159 
L 149.719007 559.78013 
L 175.03756 525.789792 
L 200.356113 495.842971 
L 225.674666 465.341492 
L 250.993219 436.430204 
L 276.311772 435.644875 
L 301.630325 426.213094 
L 326.948878 420.091919 
L 352.26743 420.614949 
L 377.585983 383.099438 
L 402.904536 354.448266 
L 428.223089 332.114209 
L 453.541642 314.304021 
L 478.860195 299.937679 
L 504.178748 287.751761 
L 529.497301 276.808888 
L 554.815853 266.538482 
L 580.134406 257.511121 
L 605.452959 249.482272 
L 630.771512 241.310778 
L 656.090065 234.19893 
L 681.408618 227.474259 
L 706.727171 221.625834 
L 732.045724 215.247585 
L 757.364276 209.562182 
L 782.682829 204.386224 
L 808.001382 198.924976 
L 833.319935 193.25995 
L 858.638488 188.939859 
L 883.957041 184.558634 
L 909.275594 179.89212 
L 934.594147 176.203741 
L 959.912699 173.024805 
L 985.231252 169.580959 
L 1010.549805 166.116735 
L 1035.868358 163.834422 
L 1061.186911 161.470599 
L 1086.505464 159.127153 
L 1111.824017 157.150507 
L 1137.14257 155.255373 
L 1162.461122 152.871171 
L 1187.779675 151.179815 
L 1213.098228 149.182792 
L 1238.416781 146.961612 
L 1263.735334 145.290634 
L 1289.053887 143.456633 
L 1314.37244 141.806032 
L 1339.690993 140.053542 
L 1365.009545 138.749363 
" clip-path="url(#p7b0c94942e)" style="fill: none; stroke-dasharray: 2,3.3; stroke-dashoffset: 0; stroke: #1f77b4; stroke-width: 2"/>
   </g>
   <g id="line2d_16">
    <path d="M 124.400455 452.146182 
L 149.719007 115.443965 
L 175.03756 89.632098 
L 200.356113 84.809354 
L 225.674666 79.103573 
L 250.993219 72.786458 
L 276.311772 66.061788 
L 301.630325 72.684569 
L 326.948878 69.118456 
L 352.26743 68.303345 
L 377.585983 68.7109 
L 402.904536 66.876899 
L 428.223089 67.997678 
L 453.541642 67.080677 
L 478.860195 64.83912 
L 504.178748 66.163677 
L 529.497301 68.609011 
L 554.815853 66.673121 
L 580.134406 63.310786 
L 605.452959 66.367455 
L 630.771512 66.061788 
L 656.090065 62.801341 
L 681.408618 65.552343 
L 706.727171 65.654232 
L 732.045724 65.654232 
L 757.364276 66.061788 
L 782.682829 65.85801 
L 808.001382 63.412675 
L 833.319935 63.820231 
L 858.638488 63.820231 
L 883.957041 65.348565 
L 909.275594 63.412675 
L 934.594147 65.552343 
L 959.912699 67.386344 
L 985.231252 63.514564 
L 1010.549805 61.884341 
L 1035.868358 64.941009 
L 1061.186911 63.310786 
L 1086.505464 65.348565 
L 1111.824017 64.533454 
L 1137.14257 62.393786 
L 1162.461122 63.514564 
L 1187.779675 64.227787 
L 1213.098228 63.412675 
L 1238.416781 64.125898 
L 1263.735334 62.088119 
L 1289.053887 63.718342 
L 1314.37244 62.597564 
L 1339.690993 63.616453 
L 1365.009545 64.227787 
" clip-path="url(#p7b0c94942e)" style="fill: none; stroke-dasharray: 5.55,2.4; stroke-dashoffset: 0; stroke: #aec7e8; stroke-width: 1.5"/>
    <defs>
     <path id="mafc612fb27" d="M 0 3 
C 0.795609 3 1.55874 2.683901 2.12132 2.12132 
C 2.683901 1.55874 3 0.795609 3 0 
C 3 -0.795609 2.683901 -1.55874 2.12132 -2.12132 
C 1.55874 -2.683901 0.795609 -3 0 -3 
C -0.795609 -3 -1.55874 -2.683901 -2.12132 -2.12132 
C -2.683901 -1.55874 -3 -0.795609 -3 0 
C -3 0.795609 -2.683901 1.55874 -2.12132 2.12132 
C -1.55874 2.683901 -0.795609 3 0 3 
z
" style="stroke: #aec7e8"/>
    </defs>
    <g clip-path="url(#p7b0c94942e)">
     <use xlink:href="#mafc612fb27" x="124.400455" y="452.146182" style="fill: #aec7e8; stroke: #aec7e8"/>
     <use xlink:href="#mafc612fb27" x="149.719007" y="115.443965" style="fill: #aec7e8; stroke: #aec7e8"/>
     <use xlink:href="#mafc612fb27" x="175.03756" y="89.632098" style="fill: #aec7e8; stroke: #aec7e8"/>
     <use xlink:href="#mafc612fb27" x="200.356113" y="84.809354" style="fill: #aec7e8; stroke: #aec7e8"/>
     <use xlink:href="#mafc612fb27" x="225.674666" y="79.103573" style="fill: #aec7e8; stroke: #aec7e8"/>
     <use xlink:href="#mafc612fb27" x="250.993219" y="72.786458" style="fill: #aec7e8; stroke: #aec7e8"/>
     <use xlink:href="#mafc612fb27" x="276.311772" y="66.061788" style="fill: #aec7e8; stroke: #aec7e8"/>
     <use xlink:href="#mafc612fb27" x="301.630325" y="72.684569" style="fill: #aec7e8; stroke: #aec7e8"/>
     <use xlink:href="#mafc612fb27" x="326.948878" y="69.118456" style="fill: #aec7e8; stroke: #aec7e8"/>
     <use xlink:href="#mafc612fb27" x="352.26743" y="68.303345" style="fill: #aec7e8; stroke: #aec7e8"/>
     <use xlink:href="#mafc612fb27" x="377.585983" y="68.7109" style="fill: #aec7e8; stroke: #aec7e8"/>
     <use xlink:href="#mafc612fb27" x="402.904536" y="66.876899" style="fill: #aec7e8; stroke: #aec7e8"/>
     <use xlink:href="#mafc612fb27" x="428.223089" y="67.997678" style="fill: #aec7e8; stroke: #aec7e8"/>
     <use xlink:href="#mafc612fb27" x="453.541642" y="67.080677" style="fill: #aec7e8; stroke: #aec7e8"/>
     <use xlink:href="#mafc612fb27" x="478.860195" y="64.83912" style="fill: #aec7e8; stroke: #aec7e8"/>
     <use xlink:href="#mafc612fb27" x="504.178748" y="66.163677" style="fill: #aec7e8; stroke: #aec7e8"/>
     <use xlink:href="#mafc612fb27" x="529.497301" y="68.609011" style="fill: #aec7e8; stroke: #aec7e8"/>
     <use xlink:href="#mafc612fb27" x="554.815853" y="66.673121" style="fill: #aec7e8; stroke: #aec7e8"/>
     <use xlink:href="#mafc612fb27" x="580.134406" y="63.310786" style="fill: #aec7e8; stroke: #aec7e8"/>
     <use xlink:href="#mafc612fb27" x="605.452959" y="66.367455" style="fill: #aec7e8; stroke: #aec7e8"/>
     <use xlink:href="#mafc612fb27" x="630.771512" y="66.061788" style="fill: #aec7e8; stroke: #aec7e8"/>
     <use xlink:href="#mafc612fb27" x="656.090065" y="62.801341" style="fill: #aec7e8; stroke: #aec7e8"/>
     <use xlink:href="#mafc612fb27" x="681.408618" y="65.552343" style="fill: #aec7e8; stroke: #aec7e8"/>
     <use xlink:href="#mafc612fb27" x="706.727171" y="65.654232" style="fill: #aec7e8; stroke: #aec7e8"/>
     <use xlink:href="#mafc612fb27" x="732.045724" y="65.654232" style="fill: #aec7e8; stroke: #aec7e8"/>
     <use xlink:href="#mafc612fb27" x="757.364276" y="66.061788" style="fill: #aec7e8; stroke: #aec7e8"/>
     <use xlink:href="#mafc612fb27" x="782.682829" y="65.85801" style="fill: #aec7e8; stroke: #aec7e8"/>
     <use xlink:href="#mafc612fb27" x="808.001382" y="63.412675" style="fill: #aec7e8; stroke: #aec7e8"/>
     <use xlink:href="#mafc612fb27" x="833.319935" y="63.820231" style="fill: #aec7e8; stroke: #aec7e8"/>
     <use xlink:href="#mafc612fb27" x="858.638488" y="63.820231" style="fill: #aec7e8; stroke: #aec7e8"/>
     <use xlink:href="#mafc612fb27" x="883.957041" y="65.348565" style="fill: #aec7e8; stroke: #aec7e8"/>
     <use xlink:href="#mafc612fb27" x="909.275594" y="63.412675" style="fill: #aec7e8; stroke: #aec7e8"/>
     <use xlink:href="#mafc612fb27" x="934.594147" y="65.552343" style="fill: #aec7e8; stroke: #aec7e8"/>
     <use xlink:href="#mafc612fb27" x="959.912699" y="67.386344" style="fill: #aec7e8; stroke: #aec7e8"/>
     <use xlink:href="#mafc612fb27" x="985.231252" y="63.514564" style="fill: #aec7e8; stroke: #aec7e8"/>
     <use xlink:href="#mafc612fb27" x="1010.549805" y="61.884341" style="fill: #aec7e8; stroke: #aec7e8"/>
     <use xlink:href="#mafc612fb27" x="1035.868358" y="64.941009" style="fill: #aec7e8; stroke: #aec7e8"/>
     <use xlink:href="#mafc612fb27" x="1061.186911" y="63.310786" style="fill: #aec7e8; stroke: #aec7e8"/>
     <use xlink:href="#mafc612fb27" x="1086.505464" y="65.348565" style="fill: #aec7e8; stroke: #aec7e8"/>
     <use xlink:href="#mafc612fb27" x="1111.824017" y="64.533454" style="fill: #aec7e8; stroke: #aec7e8"/>
     <use xlink:href="#mafc612fb27" x="1137.14257" y="62.393786" style="fill: #aec7e8; stroke: #aec7e8"/>
     <use xlink:href="#mafc612fb27" x="1162.461122" y="63.514564" style="fill: #aec7e8; stroke: #aec7e8"/>
     <use xlink:href="#mafc612fb27" x="1187.779675" y="64.227787" style="fill: #aec7e8; stroke: #aec7e8"/>
     <use xlink:href="#mafc612fb27" x="1213.098228" y="63.412675" style="fill: #aec7e8; stroke: #aec7e8"/>
     <use xlink:href="#mafc612fb27" x="1238.416781" y="64.125898" style="fill: #aec7e8; stroke: #aec7e8"/>
     <use xlink:href="#mafc612fb27" x="1263.735334" y="62.088119" style="fill: #aec7e8; stroke: #aec7e8"/>
     <use xlink:href="#mafc612fb27" x="1289.053887" y="63.718342" style="fill: #aec7e8; stroke: #aec7e8"/>
     <use xlink:href="#mafc612fb27" x="1314.37244" y="62.597564" style="fill: #aec7e8; stroke: #aec7e8"/>
     <use xlink:href="#mafc612fb27" x="1339.690993" y="63.616453" style="fill: #aec7e8; stroke: #aec7e8"/>
     <use xlink:href="#mafc612fb27" x="1365.009545" y="64.227787" style="fill: #aec7e8; stroke: #aec7e8"/>
    </g>
   </g>
   <g id="line2d_17">
    <path d="M 124.400455 200.825544 
L 149.719007 196.070727 
L 175.03756 186.051647 
L 200.356113 175.557085 
L 225.674666 164.227034 
L 250.993219 88.35509 
L 276.311772 78.478654 
L 301.630325 75.089149 
L 326.948878 71.950969 
L 352.26743 69.790923 
L 377.585983 68.975812 
L 402.904536 69.138834 
L 428.223089 68.201456 
L 453.541642 67.7939 
L 478.860195 67.101055 
L 504.178748 66.59161 
L 529.497301 66.938033 
L 554.815853 66.673121 
L 580.134406 65.919143 
L 605.452959 66.22481 
L 630.771512 66.204432 
L 656.090065 65.042898 
L 681.408618 64.818743 
L 706.727171 65.287432 
L 732.045724 65.144787 
L 757.364276 65.144787 
L 782.682829 65.756121 
L 808.001382 65.328187 
L 833.319935 64.961387 
L 858.638488 64.594587 
L 883.957041 64.451942 
L 909.275594 63.962875 
L 934.594147 64.390809 
L 959.912699 65.104032 
L 985.231252 65.042898 
L 1010.549805 64.350053 
L 1035.868358 64.65572 
L 1061.186911 64.207409 
L 1086.505464 63.799853 
L 1111.824017 64.003631 
L 1137.14257 64.10552 
L 1162.461122 63.820231 
L 1187.779675 64.003631 
L 1213.098228 63.616453 
L 1238.416781 63.534942 
L 1263.735334 63.473808 
L 1289.053887 63.514564 
L 1314.37244 63.188519 
L 1339.690993 63.229275 
L 1365.009545 63.249653 
" clip-path="url(#p7b0c94942e)" style="fill: none; stroke-dasharray: 2,3.3; stroke-dashoffset: 0; stroke: #aec7e8; stroke-width: 2"/>
   </g>
   <g id="patch_3">
    <path d="M 62.37 691.1355 
L 62.37 31.92 
" style="fill: none; stroke: #cccccc; stroke-width: 1.25; stroke-linejoin: miter; stroke-linecap: square"/>
   </g>
   <g id="patch_4">
    <path d="M 1427.04 691.1355 
L 1427.04 31.92 
" style="fill: none; stroke: #cccccc; stroke-width: 1.25; stroke-linejoin: miter; stroke-linecap: square"/>
   </g>
   <g id="patch_5">
    <path d="M 62.37 691.1355 
L 1427.04 691.1355 
" style="fill: none; stroke: #cccccc; stroke-width: 1.25; stroke-linejoin: miter; stroke-linecap: square"/>
   </g>
   <g id="patch_6">
    <path d="M 62.37 31.92 
L 1427.04 31.92 
" style="fill: none; stroke: #cccccc; stroke-width: 1.25; stroke-linejoin: miter; stroke-linecap: square"/>
   </g>
   <g id="text_16">
    <!-- img-classification - mnist (Rolling Mean) -->
    <g style="fill: #262626" transform="translate(572.201719 25.92) scale(0.18 -0.18)">
     <defs>
      <path id="Arial-BoldMT-69" d="M 459 3769 
L 459 4581 
L 1338 4581 
L 1338 3769 
L 459 3769 
z
M 459 0 
L 459 3319 
L 1338 3319 
L 1338 0 
L 459 0 
z
" transform="scale(0.015625)"/>
      <path id="Arial-BoldMT-6d" d="M 394 3319 
L 1203 3319 
L 1203 2866 
Q 1638 3394 2238 3394 
Q 2556 3394 2790 3262 
Q 3025 3131 3175 2866 
Q 3394 3131 3647 3262 
Q 3900 3394 4188 3394 
Q 4553 3394 4806 3245 
Q 5059 3097 5184 2809 
Q 5275 2597 5275 2122 
L 5275 0 
L 4397 0 
L 4397 1897 
Q 4397 2391 4306 2534 
Q 4184 2722 3931 2722 
Q 3747 2722 3584 2609 
Q 3422 2497 3350 2280 
Q 3278 2063 3278 1594 
L 3278 0 
L 2400 0 
L 2400 1819 
Q 2400 2303 2353 2443 
Q 2306 2584 2207 2653 
Q 2109 2722 1941 2722 
Q 1738 2722 1575 2612 
Q 1413 2503 1342 2297 
Q 1272 2091 1272 1613 
L 1272 0 
L 394 0 
L 394 3319 
z
" transform="scale(0.015625)"/>
      <path id="Arial-BoldMT-67" d="M 378 -219 
L 1381 -341 
Q 1406 -516 1497 -581 
Q 1622 -675 1891 -675 
Q 2234 -675 2406 -572 
Q 2522 -503 2581 -350 
Q 2622 -241 2622 53 
L 2622 538 
Q 2228 0 1628 0 
Q 959 0 569 566 
Q 263 1013 263 1678 
Q 263 2513 664 2953 
Q 1066 3394 1663 3394 
Q 2278 3394 2678 2853 
L 2678 3319 
L 3500 3319 
L 3500 341 
Q 3500 -247 3403 -537 
Q 3306 -828 3131 -993 
Q 2956 -1159 2664 -1253 
Q 2372 -1347 1925 -1347 
Q 1081 -1347 728 -1058 
Q 375 -769 375 -325 
Q 375 -281 378 -219 
z
M 1163 1728 
Q 1163 1200 1367 954 
Q 1572 709 1872 709 
Q 2194 709 2416 961 
Q 2638 1213 2638 1706 
Q 2638 2222 2425 2472 
Q 2213 2722 1888 2722 
Q 1572 2722 1367 2476 
Q 1163 2231 1163 1728 
z
" transform="scale(0.015625)"/>
      <path id="Arial-BoldMT-2d" d="M 359 1222 
L 359 2100 
L 2084 2100 
L 2084 1222 
L 359 1222 
z
" transform="scale(0.015625)"/>
      <path id="Arial-BoldMT-63" d="M 3353 2338 
L 2488 2181 
Q 2444 2441 2289 2572 
Q 2134 2703 1888 2703 
Q 1559 2703 1364 2476 
Q 1169 2250 1169 1719 
Q 1169 1128 1367 884 
Q 1566 641 1900 641 
Q 2150 641 2309 783 
Q 2469 925 2534 1272 
L 3397 1125 
Q 3263 531 2881 228 
Q 2500 -75 1859 -75 
Q 1131 -75 698 384 
Q 266 844 266 1656 
Q 266 2478 700 2936 
Q 1134 3394 1875 3394 
Q 2481 3394 2839 3133 
Q 3197 2872 3353 2338 
z
" transform="scale(0.015625)"/>
      <path id="Arial-BoldMT-6c" d="M 459 0 
L 459 4581 
L 1338 4581 
L 1338 0 
L 459 0 
z
" transform="scale(0.015625)"/>
      <path id="Arial-BoldMT-61" d="M 1116 2306 
L 319 2450 
Q 453 2931 781 3162 
Q 1109 3394 1756 3394 
Q 2344 3394 2631 3255 
Q 2919 3116 3036 2902 
Q 3153 2688 3153 2116 
L 3144 1091 
Q 3144 653 3186 445 
Q 3228 238 3344 0 
L 2475 0 
Q 2441 88 2391 259 
Q 2369 338 2359 363 
Q 2134 144 1878 34 
Q 1622 -75 1331 -75 
Q 819 -75 523 203 
Q 228 481 228 906 
Q 228 1188 362 1408 
Q 497 1628 739 1745 
Q 981 1863 1438 1950 
Q 2053 2066 2291 2166 
L 2291 2253 
Q 2291 2506 2166 2614 
Q 2041 2722 1694 2722 
Q 1459 2722 1328 2630 
Q 1197 2538 1116 2306 
z
M 2291 1594 
Q 2122 1538 1756 1459 
Q 1391 1381 1278 1306 
Q 1106 1184 1106 997 
Q 1106 813 1243 678 
Q 1381 544 1594 544 
Q 1831 544 2047 700 
Q 2206 819 2256 991 
Q 2291 1103 2291 1419 
L 2291 1594 
z
" transform="scale(0.015625)"/>
      <path id="Arial-BoldMT-73" d="M 150 947 
L 1031 1081 
Q 1088 825 1259 692 
Q 1431 559 1741 559 
Q 2081 559 2253 684 
Q 2369 772 2369 919 
Q 2369 1019 2306 1084 
Q 2241 1147 2013 1200 
Q 950 1434 666 1628 
Q 272 1897 272 2375 
Q 272 2806 612 3100 
Q 953 3394 1669 3394 
Q 2350 3394 2681 3172 
Q 3013 2950 3138 2516 
L 2309 2363 
Q 2256 2556 2107 2659 
Q 1959 2763 1684 2763 
Q 1338 2763 1188 2666 
Q 1088 2597 1088 2488 
Q 1088 2394 1175 2328 
Q 1294 2241 1995 2081 
Q 2697 1922 2975 1691 
Q 3250 1456 3250 1038 
Q 3250 581 2869 253 
Q 2488 -75 1741 -75 
Q 1063 -75 667 200 
Q 272 475 150 947 
z
" transform="scale(0.015625)"/>
      <path id="Arial-BoldMT-66" d="M 75 3319 
L 563 3319 
L 563 3569 
Q 563 3988 652 4194 
Q 741 4400 980 4529 
Q 1219 4659 1584 4659 
Q 1959 4659 2319 4547 
L 2200 3934 
Q 1991 3984 1797 3984 
Q 1606 3984 1523 3895 
Q 1441 3806 1441 3553 
L 1441 3319 
L 2097 3319 
L 2097 2628 
L 1441 2628 
L 1441 0 
L 563 0 
L 563 2628 
L 75 2628 
L 75 3319 
z
" transform="scale(0.015625)"/>
      <path id="Arial-BoldMT-74" d="M 1981 3319 
L 1981 2619 
L 1381 2619 
L 1381 1281 
Q 1381 875 1398 808 
Q 1416 741 1477 697 
Q 1538 653 1625 653 
Q 1747 653 1978 738 
L 2053 56 
Q 1747 -75 1359 -75 
Q 1122 -75 931 4 
Q 741 84 652 211 
Q 563 338 528 553 
Q 500 706 500 1172 
L 500 2619 
L 97 2619 
L 97 3319 
L 500 3319 
L 500 3978 
L 1381 4491 
L 1381 3319 
L 1981 3319 
z
" transform="scale(0.015625)"/>
      <path id="Arial-BoldMT-6f" d="M 256 1706 
Q 256 2144 472 2553 
Q 688 2963 1083 3178 
Q 1478 3394 1966 3394 
Q 2719 3394 3200 2905 
Q 3681 2416 3681 1669 
Q 3681 916 3195 420 
Q 2709 -75 1972 -75 
Q 1516 -75 1102 131 
Q 688 338 472 736 
Q 256 1134 256 1706 
z
M 1156 1659 
Q 1156 1166 1390 903 
Q 1625 641 1969 641 
Q 2313 641 2545 903 
Q 2778 1166 2778 1666 
Q 2778 2153 2545 2415 
Q 2313 2678 1969 2678 
Q 1625 2678 1390 2415 
Q 1156 2153 1156 1659 
z
" transform="scale(0.015625)"/>
      <path id="Arial-BoldMT-6e" d="M 3478 0 
L 2600 0 
L 2600 1694 
Q 2600 2231 2544 2389 
Q 2488 2547 2361 2634 
Q 2234 2722 2056 2722 
Q 1828 2722 1647 2597 
Q 1466 2472 1398 2265 
Q 1331 2059 1331 1503 
L 1331 0 
L 453 0 
L 453 3319 
L 1269 3319 
L 1269 2831 
Q 1703 3394 2363 3394 
Q 2653 3394 2893 3289 
Q 3134 3184 3257 3021 
Q 3381 2859 3429 2653 
Q 3478 2447 3478 2063 
L 3478 0 
z
" transform="scale(0.015625)"/>
      <path id="Arial-BoldMT-20" transform="scale(0.015625)"/>
      <path id="Arial-BoldMT-28" d="M 1916 -1347 
L 1313 -1347 
Q 834 -625 584 153 
Q 334 931 334 1659 
Q 334 2563 644 3369 
Q 913 4069 1325 4659 
L 1925 4659 
Q 1497 3713 1336 3048 
Q 1175 2384 1175 1641 
Q 1175 1128 1270 590 
Q 1366 53 1531 -431 
Q 1641 -750 1916 -1347 
z
" transform="scale(0.015625)"/>
      <path id="Arial-BoldMT-52" d="M 469 0 
L 469 4581 
L 2416 4581 
Q 3150 4581 3483 4457 
Q 3816 4334 4016 4018 
Q 4216 3703 4216 3297 
Q 4216 2781 3912 2445 
Q 3609 2109 3006 2022 
Q 3306 1847 3501 1637 
Q 3697 1428 4028 894 
L 4588 0 
L 3481 0 
L 2813 997 
Q 2456 1531 2325 1670 
Q 2194 1809 2047 1861 
Q 1900 1913 1581 1913 
L 1394 1913 
L 1394 0 
L 469 0 
z
M 1394 2644 
L 2078 2644 
Q 2744 2644 2909 2700 
Q 3075 2756 3169 2893 
Q 3263 3031 3263 3238 
Q 3263 3469 3139 3611 
Q 3016 3753 2791 3791 
Q 2678 3806 2116 3806 
L 1394 3806 
L 1394 2644 
z
" transform="scale(0.015625)"/>
      <path id="Arial-BoldMT-4d" d="M 453 0 
L 453 4581 
L 1838 4581 
L 2669 1456 
L 3491 4581 
L 4878 4581 
L 4878 0 
L 4019 0 
L 4019 3606 
L 3109 0 
L 2219 0 
L 1313 3606 
L 1313 0 
L 453 0 
z
" transform="scale(0.015625)"/>
      <path id="Arial-BoldMT-65" d="M 2381 1056 
L 3256 909 
Q 3088 428 2723 176 
Q 2359 -75 1813 -75 
Q 947 -75 531 491 
Q 203 944 203 1634 
Q 203 2459 634 2926 
Q 1066 3394 1725 3394 
Q 2466 3394 2894 2905 
Q 3322 2416 3303 1406 
L 1103 1406 
Q 1113 1016 1316 798 
Q 1519 581 1822 581 
Q 2028 581 2168 693 
Q 2309 806 2381 1056 
z
M 2431 1944 
Q 2422 2325 2234 2523 
Q 2047 2722 1778 2722 
Q 1491 2722 1303 2513 
Q 1116 2303 1119 1944 
L 2431 1944 
z
" transform="scale(0.015625)"/>
      <path id="Arial-BoldMT-29" d="M 216 -1347 
Q 475 -791 581 -494 
Q 688 -197 778 190 
Q 869 578 912 926 
Q 956 1275 956 1641 
Q 956 2384 797 3048 
Q 638 3713 209 4659 
L 806 4659 
Q 1278 3988 1539 3234 
Q 1800 2481 1800 1706 
Q 1800 1053 1594 306 
Q 1359 -531 822 -1347 
L 216 -1347 
z
" transform="scale(0.015625)"/>
     </defs>
     <use xlink:href="#Arial-BoldMT-69"/>
     <use xlink:href="#Arial-BoldMT-6d" transform="translate(27.783203 0)"/>
     <use xlink:href="#Arial-BoldMT-67" transform="translate(116.699219 0)"/>
     <use xlink:href="#Arial-BoldMT-2d" transform="translate(177.783203 0)"/>
     <use xlink:href="#Arial-BoldMT-63" transform="translate(211.083984 0)"/>
     <use xlink:href="#Arial-BoldMT-6c" transform="translate(266.699219 0)"/>
     <use xlink:href="#Arial-BoldMT-61" transform="translate(294.482422 0)"/>
     <use xlink:href="#Arial-BoldMT-73" transform="translate(350.097656 0)"/>
     <use xlink:href="#Arial-BoldMT-73" transform="translate(405.712891 0)"/>
     <use xlink:href="#Arial-BoldMT-69" transform="translate(461.328125 0)"/>
     <use xlink:href="#Arial-BoldMT-66" transform="translate(489.111328 0)"/>
     <use xlink:href="#Arial-BoldMT-69" transform="translate(522.412109 0)"/>
     <use xlink:href="#Arial-BoldMT-63" transform="translate(550.195312 0)"/>
     <use xlink:href="#Arial-BoldMT-61" transform="translate(605.810547 0)"/>
     <use xlink:href="#Arial-BoldMT-74" transform="translate(661.425781 0)"/>
     <use xlink:href="#Arial-BoldMT-69" transform="translate(694.726562 0)"/>
     <use xlink:href="#Arial-BoldMT-6f" transform="translate(722.509766 0)"/>
     <use xlink:href="#Arial-BoldMT-6e" transform="translate(783.59375 0)"/>
     <use xlink:href="#Arial-BoldMT-20" transform="translate(844.677734 0)"/>
     <use xlink:href="#Arial-BoldMT-2d" transform="translate(872.460938 0)"/>
     <use xlink:href="#Arial-BoldMT-20" transform="translate(905.761719 0)"/>
     <use xlink:href="#Arial-BoldMT-6d" transform="translate(933.544922 0)"/>
     <use xlink:href="#Arial-BoldMT-6e" transform="translate(1022.460938 0)"/>
     <use xlink:href="#Arial-BoldMT-69" transform="translate(1083.544922 0)"/>
     <use xlink:href="#Arial-BoldMT-73" transform="translate(1111.328125 0)"/>
     <use xlink:href="#Arial-BoldMT-74" transform="translate(1166.943359 0)"/>
     <use xlink:href="#Arial-BoldMT-20" transform="translate(1200.244141 0)"/>
     <use xlink:href="#Arial-BoldMT-28" transform="translate(1228.027344 0)"/>
     <use xlink:href="#Arial-BoldMT-52" transform="translate(1261.328125 0)"/>
     <use xlink:href="#Arial-BoldMT-6f" transform="translate(1333.544922 0)"/>
     <use xlink:href="#Arial-BoldMT-6c" transform="translate(1394.628906 0)"/>
     <use xlink:href="#Arial-BoldMT-6c" transform="translate(1422.412109 0)"/>
     <use xlink:href="#Arial-BoldMT-69" transform="translate(1450.195312 0)"/>
     <use xlink:href="#Arial-BoldMT-6e" transform="translate(1477.978516 0)"/>
     <use xlink:href="#Arial-BoldMT-67" transform="translate(1539.0625 0)"/>
     <use xlink:href="#Arial-BoldMT-20" transform="translate(1600.146484 0)"/>
     <use xlink:href="#Arial-BoldMT-4d" transform="translate(1627.929688 0)"/>
     <use xlink:href="#Arial-BoldMT-65" transform="translate(1711.230469 0)"/>
     <use xlink:href="#Arial-BoldMT-61" transform="translate(1766.845703 0)"/>
     <use xlink:href="#Arial-BoldMT-6e" transform="translate(1822.460938 0)"/>
     <use xlink:href="#Arial-BoldMT-29" transform="translate(1883.544922 0)"/>
    </g>
   </g>
   <g id="legend_1">
    <g id="patch_7">
     <path d="M 508.183125 850.681575 
L 981.226875 850.681575 
Q 983.626875 850.681575 983.626875 848.281575 
L 983.626875 798.417825 
Q 983.626875 796.017825 981.226875 796.017825 
L 508.183125 796.017825 
Q 505.783125 796.017825 505.783125 798.417825 
L 505.783125 848.281575 
Q 505.783125 850.681575 508.183125 850.681575 
z
" style="fill: #ffffff; opacity: 0.8; stroke: #cccccc; stroke-linejoin: miter"/>
    </g>
    <g id="text_17">
     <!-- Neural Network Model -->
     <g style="fill: #262626" transform="translate(685.352813 809.4072) scale(0.12 -0.12)">
      <defs>
       <path id="ArialMT-4e" d="M 488 0 
L 488 4581 
L 1109 4581 
L 3516 984 
L 3516 4581 
L 4097 4581 
L 4097 0 
L 3475 0 
L 1069 3600 
L 1069 0 
L 488 0 
z
" transform="scale(0.015625)"/>
       <path id="ArialMT-65" d="M 2694 1069 
L 3275 997 
Q 3138 488 2766 206 
Q 2394 -75 1816 -75 
Q 1088 -75 661 373 
Q 234 822 234 1631 
Q 234 2469 665 2931 
Q 1097 3394 1784 3394 
Q 2450 3394 2872 2941 
Q 3294 2488 3294 1666 
Q 3294 1616 3291 1516 
L 816 1516 
Q 847 969 1125 678 
Q 1403 388 1819 388 
Q 2128 388 2347 550 
Q 2566 713 2694 1069 
z
M 847 1978 
L 2700 1978 
Q 2663 2397 2488 2606 
Q 2219 2931 1791 2931 
Q 1403 2931 1139 2672 
Q 875 2413 847 1978 
z
" transform="scale(0.015625)"/>
       <path id="ArialMT-6c" d="M 409 0 
L 409 4581 
L 972 4581 
L 972 0 
L 409 0 
z
" transform="scale(0.015625)"/>
       <path id="ArialMT-20" transform="scale(0.015625)"/>
       <path id="ArialMT-74" d="M 1650 503 
L 1731 6 
Q 1494 -44 1306 -44 
Q 1000 -44 831 53 
Q 663 150 594 308 
Q 525 466 525 972 
L 525 2881 
L 113 2881 
L 113 3319 
L 525 3319 
L 525 4141 
L 1084 4478 
L 1084 3319 
L 1650 3319 
L 1650 2881 
L 1084 2881 
L 1084 941 
Q 1084 700 1114 631 
Q 1144 563 1211 522 
Q 1278 481 1403 481 
Q 1497 481 1650 503 
z
" transform="scale(0.015625)"/>
       <path id="ArialMT-77" d="M 1034 0 
L 19 3319 
L 600 3319 
L 1128 1403 
L 1325 691 
Q 1338 744 1497 1375 
L 2025 3319 
L 2603 3319 
L 3100 1394 
L 3266 759 
L 3456 1400 
L 4025 3319 
L 4572 3319 
L 3534 0 
L 2950 0 
L 2422 1988 
L 2294 2553 
L 1622 0 
L 1034 0 
z
" transform="scale(0.015625)"/>
       <path id="ArialMT-6b" d="M 425 0 
L 425 4581 
L 988 4581 
L 988 1969 
L 2319 3319 
L 3047 3319 
L 1778 2088 
L 3175 0 
L 2481 0 
L 1384 1697 
L 988 1316 
L 988 0 
L 425 0 
z
" transform="scale(0.015625)"/>
       <path id="ArialMT-4d" d="M 475 0 
L 475 4581 
L 1388 4581 
L 2472 1338 
Q 2622 884 2691 659 
Q 2769 909 2934 1394 
L 4031 4581 
L 4847 4581 
L 4847 0 
L 4263 0 
L 4263 3834 
L 2931 0 
L 2384 0 
L 1059 3900 
L 1059 0 
L 475 0 
z
" transform="scale(0.015625)"/>
       <path id="ArialMT-64" d="M 2575 0 
L 2575 419 
Q 2259 -75 1647 -75 
Q 1250 -75 917 144 
Q 584 363 401 755 
Q 219 1147 219 1656 
Q 219 2153 384 2558 
Q 550 2963 881 3178 
Q 1213 3394 1622 3394 
Q 1922 3394 2156 3267 
Q 2391 3141 2538 2938 
L 2538 4581 
L 3097 4581 
L 3097 0 
L 2575 0 
z
M 797 1656 
Q 797 1019 1065 703 
Q 1334 388 1700 388 
Q 2069 388 2326 689 
Q 2584 991 2584 1609 
Q 2584 2291 2321 2609 
Q 2059 2928 1675 2928 
Q 1300 2928 1048 2622 
Q 797 2316 797 1656 
z
" transform="scale(0.015625)"/>
      </defs>
      <use xlink:href="#ArialMT-4e"/>
      <use xlink:href="#ArialMT-65" transform="translate(72.216797 0)"/>
      <use xlink:href="#ArialMT-75" transform="translate(127.832031 0)"/>
      <use xlink:href="#ArialMT-72" transform="translate(183.447266 0)"/>
      <use xlink:href="#ArialMT-61" transform="translate(216.748047 0)"/>
      <use xlink:href="#ArialMT-6c" transform="translate(272.363281 0)"/>
      <use xlink:href="#ArialMT-20" transform="translate(294.580078 0)"/>
      <use xlink:href="#ArialMT-4e" transform="translate(322.363281 0)"/>
      <use xlink:href="#ArialMT-65" transform="translate(394.580078 0)"/>
      <use xlink:href="#ArialMT-74" transform="translate(450.195312 0)"/>
      <use xlink:href="#ArialMT-77" transform="translate(477.978516 0)"/>
      <use xlink:href="#ArialMT-6f" transform="translate(550.195312 0)"/>
      <use xlink:href="#ArialMT-72" transform="translate(605.810547 0)"/>
      <use xlink:href="#ArialMT-6b" transform="translate(639.111328 0)"/>
      <use xlink:href="#ArialMT-20" transform="translate(689.111328 0)"/>
      <use xlink:href="#ArialMT-4d" transform="translate(716.894531 0)"/>
      <use xlink:href="#ArialMT-6f" transform="translate(800.195312 0)"/>
      <use xlink:href="#ArialMT-64" transform="translate(855.810547 0)"/>
      <use xlink:href="#ArialMT-65" transform="translate(911.425781 0)"/>
      <use xlink:href="#ArialMT-6c" transform="translate(967.041016 0)"/>
     </g>
    </g>
    <g id="line2d_18">
     <path d="M 510.583125 822.181575 
L 522.583125 822.181575 
L 534.583125 822.181575 
" style="fill: none; stroke: #1f77b4; stroke-width: 1.5; stroke-linecap: round"/>
     <g>
      <use xlink:href="#m012d35a6ce" x="522.583125" y="822.181575" style="fill: #1f77b4; stroke: #1f77b4"/>
     </g>
    </g>
    <g id="text_18">
     <!-- AirNet - Mean -->
     <g style="fill: #262626" transform="translate(544.183125 826.381575) scale(0.12 -0.12)">
      <defs>
       <path id="ArialMT-69" d="M 425 3934 
L 425 4581 
L 988 4581 
L 988 3934 
L 425 3934 
z
M 425 0 
L 425 3319 
L 988 3319 
L 988 0 
L 425 0 
z
" transform="scale(0.015625)"/>
       <path id="ArialMT-2d" d="M 203 1375 
L 203 1941 
L 1931 1941 
L 1931 1375 
L 203 1375 
z
" transform="scale(0.015625)"/>
       <path id="ArialMT-6e" d="M 422 0 
L 422 3319 
L 928 3319 
L 928 2847 
Q 1294 3394 1984 3394 
Q 2284 3394 2536 3286 
Q 2788 3178 2913 3003 
Q 3038 2828 3088 2588 
Q 3119 2431 3119 2041 
L 3119 0 
L 2556 0 
L 2556 2019 
Q 2556 2363 2490 2533 
Q 2425 2703 2258 2804 
Q 2091 2906 1866 2906 
Q 1506 2906 1245 2678 
Q 984 2450 984 1813 
L 984 0 
L 422 0 
z
" transform="scale(0.015625)"/>
      </defs>
      <use xlink:href="#ArialMT-41"/>
      <use xlink:href="#ArialMT-69" transform="translate(66.699219 0)"/>
      <use xlink:href="#ArialMT-72" transform="translate(88.916016 0)"/>
      <use xlink:href="#ArialMT-4e" transform="translate(122.216797 0)"/>
      <use xlink:href="#ArialMT-65" transform="translate(194.433594 0)"/>
      <use xlink:href="#ArialMT-74" transform="translate(250.048828 0)"/>
      <use xlink:href="#ArialMT-20" transform="translate(277.832031 0)"/>
      <use xlink:href="#ArialMT-2d" transform="translate(305.615234 0)"/>
      <use xlink:href="#ArialMT-20" transform="translate(338.916016 0)"/>
      <use xlink:href="#ArialMT-4d" transform="translate(366.699219 0)"/>
      <use xlink:href="#ArialMT-65" transform="translate(450 0)"/>
      <use xlink:href="#ArialMT-61" transform="translate(505.615234 0)"/>
      <use xlink:href="#ArialMT-6e" transform="translate(561.230469 0)"/>
     </g>
    </g>
    <g id="line2d_19">
     <path d="M 510.583125 839.15595 
L 522.583125 839.15595 
L 534.583125 839.15595 
" style="fill: none; stroke-dasharray: 2,3.3; stroke-dashoffset: 0; stroke: #1f77b4; stroke-width: 2"/>
    </g>
    <g id="text_19">
     <!-- AirNet - Rolling Mean -->
     <g style="fill: #262626" transform="translate(544.183125 843.35595) scale(0.12 -0.12)">
      <defs>
       <path id="ArialMT-52" d="M 503 0 
L 503 4581 
L 2534 4581 
Q 3147 4581 3465 4457 
Q 3784 4334 3975 4021 
Q 4166 3709 4166 3331 
Q 4166 2844 3850 2509 
Q 3534 2175 2875 2084 
Q 3116 1969 3241 1856 
Q 3506 1613 3744 1247 
L 4541 0 
L 3778 0 
L 3172 953 
Q 2906 1366 2734 1584 
Q 2563 1803 2427 1890 
Q 2291 1978 2150 2013 
Q 2047 2034 1813 2034 
L 1109 2034 
L 1109 0 
L 503 0 
z
M 1109 2559 
L 2413 2559 
Q 2828 2559 3062 2645 
Q 3297 2731 3419 2920 
Q 3541 3109 3541 3331 
Q 3541 3656 3305 3865 
Q 3069 4075 2559 4075 
L 1109 4075 
L 1109 2559 
z
" transform="scale(0.015625)"/>
       <path id="ArialMT-67" d="M 319 -275 
L 866 -356 
Q 900 -609 1056 -725 
Q 1266 -881 1628 -881 
Q 2019 -881 2231 -725 
Q 2444 -569 2519 -288 
Q 2563 -116 2559 434 
Q 2191 0 1641 0 
Q 956 0 581 494 
Q 206 988 206 1678 
Q 206 2153 378 2554 
Q 550 2956 876 3175 
Q 1203 3394 1644 3394 
Q 2231 3394 2613 2919 
L 2613 3319 
L 3131 3319 
L 3131 450 
Q 3131 -325 2973 -648 
Q 2816 -972 2473 -1159 
Q 2131 -1347 1631 -1347 
Q 1038 -1347 672 -1080 
Q 306 -813 319 -275 
z
M 784 1719 
Q 784 1066 1043 766 
Q 1303 466 1694 466 
Q 2081 466 2343 764 
Q 2606 1063 2606 1700 
Q 2606 2309 2336 2618 
Q 2066 2928 1684 2928 
Q 1309 2928 1046 2623 
Q 784 2319 784 1719 
z
" transform="scale(0.015625)"/>
      </defs>
      <use xlink:href="#ArialMT-41"/>
      <use xlink:href="#ArialMT-69" transform="translate(66.699219 0)"/>
      <use xlink:href="#ArialMT-72" transform="translate(88.916016 0)"/>
      <use xlink:href="#ArialMT-4e" transform="translate(122.216797 0)"/>
      <use xlink:href="#ArialMT-65" transform="translate(194.433594 0)"/>
      <use xlink:href="#ArialMT-74" transform="translate(250.048828 0)"/>
      <use xlink:href="#ArialMT-20" transform="translate(277.832031 0)"/>
      <use xlink:href="#ArialMT-2d" transform="translate(305.615234 0)"/>
      <use xlink:href="#ArialMT-20" transform="translate(338.916016 0)"/>
      <use xlink:href="#ArialMT-52" transform="translate(366.699219 0)"/>
      <use xlink:href="#ArialMT-6f" transform="translate(438.916016 0)"/>
      <use xlink:href="#ArialMT-6c" transform="translate(494.53125 0)"/>
      <use xlink:href="#ArialMT-6c" transform="translate(516.748047 0)"/>
      <use xlink:href="#ArialMT-69" transform="translate(538.964844 0)"/>
      <use xlink:href="#ArialMT-6e" transform="translate(561.181641 0)"/>
      <use xlink:href="#ArialMT-67" transform="translate(616.796875 0)"/>
      <use xlink:href="#ArialMT-20" transform="translate(672.412109 0)"/>
      <use xlink:href="#ArialMT-4d" transform="translate(700.195312 0)"/>
      <use xlink:href="#ArialMT-65" transform="translate(783.496094 0)"/>
      <use xlink:href="#ArialMT-61" transform="translate(839.111328 0)"/>
      <use xlink:href="#ArialMT-6e" transform="translate(894.726562 0)"/>
     </g>
    </g>
    <g id="line2d_20">
     <path d="M 682.21875 822.181575 
L 694.21875 822.181575 
L 706.21875 822.181575 
" style="fill: none; stroke-dasharray: 5.55,2.4; stroke-dashoffset: 0; stroke: #aec7e8; stroke-width: 1.5"/>
     <g>
      <use xlink:href="#mafc612fb27" x="694.21875" y="822.181575" style="fill: #aec7e8; stroke: #aec7e8"/>
     </g>
    </g>
    <g id="text_20">
     <!-- AlexNet - Mean -->
     <g style="fill: #262626" transform="translate(715.81875 826.381575) scale(0.12 -0.12)">
      <defs>
       <path id="ArialMT-78" d="M 47 0 
L 1259 1725 
L 138 3319 
L 841 3319 
L 1350 2541 
Q 1494 2319 1581 2169 
Q 1719 2375 1834 2534 
L 2394 3319 
L 3066 3319 
L 1919 1756 
L 3153 0 
L 2463 0 
L 1781 1031 
L 1600 1309 
L 728 0 
L 47 0 
z
" transform="scale(0.015625)"/>
      </defs>
      <use xlink:href="#ArialMT-41"/>
      <use xlink:href="#ArialMT-6c" transform="translate(66.699219 0)"/>
      <use xlink:href="#ArialMT-65" transform="translate(88.916016 0)"/>
      <use xlink:href="#ArialMT-78" transform="translate(144.53125 0)"/>
      <use xlink:href="#ArialMT-4e" transform="translate(194.53125 0)"/>
      <use xlink:href="#ArialMT-65" transform="translate(266.748047 0)"/>
      <use xlink:href="#ArialMT-74" transform="translate(322.363281 0)"/>
      <use xlink:href="#ArialMT-20" transform="translate(350.146484 0)"/>
      <use xlink:href="#ArialMT-2d" transform="translate(377.929688 0)"/>
      <use xlink:href="#ArialMT-20" transform="translate(411.230469 0)"/>
      <use xlink:href="#ArialMT-4d" transform="translate(439.013672 0)"/>
      <use xlink:href="#ArialMT-65" transform="translate(522.314453 0)"/>
      <use xlink:href="#ArialMT-61" transform="translate(577.929688 0)"/>
      <use xlink:href="#ArialMT-6e" transform="translate(633.544922 0)"/>
     </g>
    </g>
    <g id="line2d_21">
     <path d="M 822.51375 822.181575 
L 834.51375 822.181575 
L 846.51375 822.181575 
" style="fill: none; stroke-dasharray: 2,3.3; stroke-dashoffset: 0; stroke: #aec7e8; stroke-width: 2"/>
    </g>
    <g id="text_21">
     <!-- AlexNet - Rolling Mean -->
     <g style="fill: #262626" transform="translate(856.11375 826.381575) scale(0.12 -0.12)">
      <use xlink:href="#ArialMT-41"/>
      <use xlink:href="#ArialMT-6c" transform="translate(66.699219 0)"/>
      <use xlink:href="#ArialMT-65" transform="translate(88.916016 0)"/>
      <use xlink:href="#ArialMT-78" transform="translate(144.53125 0)"/>
      <use xlink:href="#ArialMT-4e" transform="translate(194.53125 0)"/>
      <use xlink:href="#ArialMT-65" transform="translate(266.748047 0)"/>
      <use xlink:href="#ArialMT-74" transform="translate(322.363281 0)"/>
      <use xlink:href="#ArialMT-20" transform="translate(350.146484 0)"/>
      <use xlink:href="#ArialMT-2d" transform="translate(377.929688 0)"/>
      <use xlink:href="#ArialMT-20" transform="translate(411.230469 0)"/>
      <use xlink:href="#ArialMT-52" transform="translate(439.013672 0)"/>
      <use xlink:href="#ArialMT-6f" transform="translate(511.230469 0)"/>
      <use xlink:href="#ArialMT-6c" transform="translate(566.845703 0)"/>
      <use xlink:href="#ArialMT-6c" transform="translate(589.0625 0)"/>
      <use xlink:href="#ArialMT-69" transform="translate(611.279297 0)"/>
      <use xlink:href="#ArialMT-6e" transform="translate(633.496094 0)"/>
      <use xlink:href="#ArialMT-67" transform="translate(689.111328 0)"/>
      <use xlink:href="#ArialMT-20" transform="translate(744.726562 0)"/>
      <use xlink:href="#ArialMT-4d" transform="translate(772.509766 0)"/>
      <use xlink:href="#ArialMT-65" transform="translate(855.810547 0)"/>
      <use xlink:href="#ArialMT-61" transform="translate(911.425781 0)"/>
      <use xlink:href="#ArialMT-6e" transform="translate(967.041016 0)"/>
     </g>
    </g>
   </g>
  </g>
 </g>
 <defs>
  <clipPath id="p7b0c94942e">
   <rect x="62.37" y="31.92" width="1364.67" height="659.2155"/>
  </clipPath>
 </defs>
</svg>
